<?xml version='1.0' encoding='utf-8'?>
<svg xmlns="http://www.w3.org/2000/svg" version="1.1" width="154" height="132" viewBox="30.0 1.0 154.0 132.5">
<path d="M0 0 C0.99 0.33 1.98 0.66 3 1 C2.578476563 1.60328125 2.156953125 2.2065625 1.72265625 2.828125 C1.174804688 3.62734375 0.626953125 4.4265625 0.0625 5.25 C-0.482773438 6.03890625 -1.028046875 6.8278125 -1.58984375 7.640625 C-3.660254337 11.104691467 -4.127939075 14.112042094 -4.09765625 18.109375 C-4.094433594 18.863476562 -4.091210937 19.617578125 -4.087890625 20.39453125 C-4.079511719 21.171835937 -4.071132812 21.949140625 -4.0625 22.75 C-4.057988281 23.542773438 -4.053476562 24.335546875 -4.048828125 25.15234375 C-4.037085647 27.101595083 -4.019151456 29.050807381 -4 31 C-3.34 31 -2.68 31 -2 31 C-1.67 30.34 -1.34 29.68 -1 29 C0.32 29.33 1.64 29.66 3 30 C3 31.65 3 33.3 3 35 C3.99 35 4.98 35 6 35 C6 36.32 6 37.64 6 39 C6.66 38.34 7.32 37.68 8 37 C7.505 35.515 7.505 35.515 7 34 C6.01 33.67 5.02 33.34 4 33 C4 32.34 4 31.68 4 31 C4.66 31 5.32 31 6 31 C6 29.35 6 27.7 6 26 C5.34 26 4.68 26 4 26 C3.67 24.68 3.34 23.36 3 22 C2.34 22.66 1.68 23.32 1 24 C0.0234375 17.9453125 0.0234375 17.9453125 0 16 C0.66 15.34 1.32 14.68 2 14 C2.99 15.485 2.99 15.485 4 17 C4.66 17.33 5.32 17.66 6 18 C6 19.65 6 21.3 6 23 C6.99 23 7.98 23 9 23 C9 23.66 9 24.32 9 25 C9.99 25.33 10.98 25.66 12 26 C11.01 26 10.02 26 9 26 C9 26.66 9 27.32 9 28 C10.65 27.34 12.3 26.68 14 26 C13.95359375 24.854023438 13.9071875 23.708046875 13.859375 22.52734375 C13.82183091 20.997422092 13.785433595 19.467471993 13.75 17.9375 C13.716484375 17.185332031 13.68296875 16.433164062 13.6484375 15.658203125 C13.549342257 9.935452822 14.799187749 6.744511073 18 2 C18.66 2.33 19.32 2.66 20 3 C19.484375 4.19625 18.96875 5.3925 18.4375 6.625 C16.263529337 13.024434767 17.05420916 19.405736087 18 26 C18.33 26.66 18.66 27.32 19 28 C19.07033769 29.87379605 19.084302197 31.750011016 19.0625 33.625 C19.053476562 34.627890625 19.044453125 35.63078125 19.03515625 36.6640625 C19.023554687 37.434921875 19.011953125 38.20578125 19 39 C19.048984375 37.951992187 19.09796875 36.903984375 19.1484375 35.82421875 C19.223481434 34.445286464 19.299028568 33.066381497 19.375 31.6875 C19.4059375 30.997207031 19.436875 30.306914062 19.46875 29.595703125 C19.681249189 25.930092111 19.919338611 24.120992084 22 21 C22 20.01 22 19.02 22 18 C22.310883678 16.329000231 22.640803322 14.661284634 23 13 C23.66 13 24.32 13 25 13 C25 12.34 25 11.68 25 11 C24.01 10.67 23.02 10.34 22 10 C22.66 9.01 23.32 8.02 24 7 C23.67 7.33 23.34 7.66 23 8 C22.34 8 21.68 8 21 8 C21.33 6.68 21.66 5.36 22 4 C25.465 3.505 25.465 3.505 29 3 C29 3.66 29 4.32 29 5 C29.99 5.33 30.98 5.66 32 6 C33.370305502 7.974852047 34.706723724 9.973867168 36 12 C36.33 12 36.66 12 37 12 C37 13.65 37 15.3 37 17 C36.505 16.01 36.505 16.01 36 15 C33.975367449 14.347867083 33.975367449 14.347867083 32 14 C32.495 16.97 32.495 16.97 33 20 C32.34 20 31.68 20 31 20 C30.67 18.35 30.34 16.7 30 15 C28.35 15.66 26.7 16.32 25 17 C25.66 18.65 26.32 20.3 27 22 C27.66 22 28.32 22 29 22 C28.505 24.475 28.505 24.475 28 27 C28.66 27 29.32 27 30 27 C30.185625 26.0409375 30.185625 26.0409375 30.375 25.0625 C30.58125 24.381875 30.7875 23.70125 31 23 C31.66 22.67 32.32 22.34 33 22 C32.67 23.32 32.34 24.64 32 26 C32.66 26.33 33.32 26.66 34 27 C34.625 29.5625 34.625 29.5625 35 32 C35 29.69 35 27.38 35 25 C36.32 25 37.64 25 39 25 C38.67 23.35 38.34 21.7 38 20 C38.66 20 39.32 20 40 20 C40.33 18.68 40.66 17.36 41 16 C41.99 17.32 42.98 18.64 44 20 C44.99 19.67 45.98 19.34 47 19 C47.495 17.515 47.495 17.515 48 16 C48.99 16.33 49.98 16.66 51 17 C51.495 16.505 51.495 16.505 52 16 C52.66 16.33 53.32 16.66 54 17 C53.297998008 23.493518424 51.842256629 31.453778612 46.820068359 35.952880859 C46.022219238 36.575578613 45.224370117 37.198276367 44.40234375 37.83984375 C40.298927478 41.804603127 39.121035705 45.106311579 38.91015625 50.703125 C38.887275009 52.832213634 38.91693948 54.94825719 38.991455078 57.076171875 C39.062906525 59.262438814 39.053046258 61.437845798 39.033203125 63.625 C38.63095446 70.543041861 38.63095446 70.543041861 41.395721436 76.450561523 C42.917109829 77.650852729 44.457680032 78.826726487 46 80 C46 80.99 46 81.98 46 83 C42.8125 83.4375 42.8125 83.4375 39 83 C33.766895414 78.810804878 32.847431522 72.286171138 32 66 C31.891847752 67.769490952 31.814339175 69.540874868 31.75 71.3125 C31.70359375 72.298632813 31.6571875 73.284765625 31.609375 74.30078125 C31.705959418 77.141848801 31.705959418 77.141848801 34.015625 78.60546875 C34.67046875 79.065664063 35.3253125 79.525859375 36 80 C36 81.32 36 82.64 36 84 C33.69 84 31.38 84 29 84 C26.28085691 79.339507921 25.640448617 76.00381156 25.70703125 70.6328125 C25.711276093 69.953224792 25.715520935 69.273637085 25.719894409 68.573455811 C25.736557341 66.423550755 25.774182836 64.274617014 25.8125 62.125 C25.827563002 60.658867799 25.841248571 59.19272076 25.853515625 57.7265625 C25.886419198 54.150731252 25.938113366 50.575460585 26 47 C25.410979004 47.015710449 24.821958008 47.031420898 24.215087891 47.047607422 C21.49765973 47.110692002 18.780386389 47.14921991 16.0625 47.1875 C15.136308594 47.212636719 14.210117188 47.237773438 13.255859375 47.263671875 C6.56171777 47.334136523 -0.366688609 46.95046744 -5.769287109 42.563232422 C-7 41 -7 41 -6.6875 38.3125 C-6.460625 37.549375 -6.23375 36.78625 -6 36 C-6.99 36.495 -6.99 36.495 -8 37 C-8.087650685 32.979305755 -8.140610184 28.958859902 -8.1875 24.9375 C-8.212636719 23.803769531 -8.237773437 22.670039062 -8.263671875 21.501953125 C-8.334249448 13.432583948 -7.928169561 8.200557427 -2.3125 2.0625 C-1.549375 1.381875 -0.78625 0.70125 0 0 Z " fill="#434238" transform="translate(97,38)" />
<path d="M0 0 C0.99 0 1.98 0 3 0 C3.33 1.65 3.66 3.3 4 5 C4.66 4.01 5.32 3.02 6 2 C6.99 2 7.98 2 9 2 C9 3.98 9 5.96 9 8 C9.7425 8.2475 10.485 8.495 11.25 8.75 C16.273280078 11.033309127 18.356910277 14.416136038 20.9140625 19.203125 C22.045344393 21.075030291 23.323280742 22.528820243 24.8125 24.125 C27 27 27 27 27 29.6875 C25.885948198 32.263744793 25.271709769 33.353833501 23 35 C19.64453125 35.29296875 19.64453125 35.29296875 15.8125 35.1875 C14.540195313 35.160429687 13.267890625 35.133359375 11.95703125 35.10546875 C10.493300781 35.053261719 10.493300781 35.053261719 9 35 C8.67 36.32 8.34 37.64 8 39 C7.34 39 6.68 39 6 39 C4.375 37 4.375 37 3 35 C2.01 35.495 2.01 35.495 1 36 C-0.98 34.68 -2.96 33.36 -5 32 C-4.67 31.34 -4.34 30.68 -4 30 C-4.94875 29.401875 -5.8975 28.80375 -6.875 28.1875 C-10 26 -10 26 -12 23 C-11.125 19.8125 -11.125 19.8125 -10 17 C-8.68 17 -7.36 17 -6 17 C-3.75 19.5 -3.75 19.5 -2 22 C-2.144375 21.13375 -2.28875 20.2675 -2.4375 19.375 C-2.623125 18.26125 -2.80875 17.1475 -3 16 C-3.268125 15.0925 -3.53625 14.185 -3.8125 13.25 C-4.096990995 8.318822748 -2.035513874 4.420472189 0 0 Z " fill="#606057" transform="translate(147,11)" />
<path d="M0 0 C1.731586988 1.623362801 3.367366743 3.278594722 5 5 C6.080878906 6.109882813 6.080878906 6.109882813 7.18359375 7.2421875 C12.898406728 13.600783569 12.898406728 13.600783569 13.171875 17.3671875 C12.66558376 19.727157956 11.953272599 21.783741763 11 24 C7.063388861 33.739878264 7.729864707 39.984150051 10.734375 50.046875 C11.820107641 53.085110363 11.820107641 53.085110363 14.140625 55.140625 C14.75421875 55.75421875 15.3678125 56.3678125 16 57 C16 58.32 16 59.64 16 61 C13.69 61 11.38 61 9 61 C6.524509848 54.618511041 4.06289631 48.232029814 1.6875 41.8125 C1.361367188 40.932070313 1.035234375 40.051640625 0.69921875 39.14453125 C0 37 0 37 0 35 C-0.66 35 -1.32 35 -2 35 C-1.443330249 38.10956439 -0.850135055 41.211055779 -0.25 44.3125 C-0.092734375 45.193574219 0.06453125 46.074648438 0.2265625 46.982421875 C1.137923547 52.068014771 1.137923547 52.068014771 4.140625 56.10546875 C4.75421875 56.400664062 5.3678125 56.695859375 6 57 C5.67 58.32 5.34 59.64 5 61 C2.8125 61.5 2.8125 61.5 0 61 C-6.058659029 54.054707943 -7.328661046 44.826327202 -9 36 C-9.238476562 34.74703125 -9.476953125 33.4940625 -9.72265625 32.203125 C-10.001460439 28.983132957 -9.964157292 27.905289617 -8.1875 25.3125 C-6.585772975 22.887027647 -5.249505362 20.603136171 -4 18 C-3.01 18 -2.02 18 -1 18 C-1.66 17.01 -2.32 16.02 -3 15 C-2.01 14.67 -1.02 14.34 0 14 C-0.99 14 -1.98 14 -3 14 C-4.648261114 11.033129995 -5.442710874 8.343734754 -6 5 C-3.525 5.99 -3.525 5.99 -1 7 C-0.947295372 5.631067606 -0.947295372 5.631067606 -2 3 C-1.34 3 -0.68 3 0 3 C0.33 3.33 0.66 3.66 1 4 C0.67 2.68 0.34 1.36 0 0 Z " fill="#545146" transform="translate(75,62)" />
<path d="M0 0 C0.99 0.33 1.98 0.66 3 1 C2.578476563 1.60328125 2.156953125 2.2065625 1.72265625 2.828125 C1.174804688 3.62734375 0.626953125 4.4265625 0.0625 5.25 C-0.482773438 6.03890625 -1.028046875 6.8278125 -1.58984375 7.640625 C-3.660254337 11.104691467 -4.127939075 14.112042094 -4.09765625 18.109375 C-4.094433594 18.863476562 -4.091210937 19.617578125 -4.087890625 20.39453125 C-4.079511719 21.171835937 -4.071132812 21.949140625 -4.0625 22.75 C-4.057988281 23.542773438 -4.053476562 24.335546875 -4.048828125 25.15234375 C-4.037085647 27.101595083 -4.019151456 29.050807381 -4 31 C-3.34 31 -2.68 31 -2 31 C-1.67 30.34 -1.34 29.68 -1 29 C0.32 29.33 1.64 29.66 3 30 C3 31.65 3 33.3 3 35 C3.99 35 4.98 35 6 35 C6 36.32 6 37.64 6 39 C6.66 38.34 7.32 37.68 8 37 C7.505 35.515 7.505 35.515 7 34 C6.01 33.67 5.02 33.34 4 33 C4 32.34 4 31.68 4 31 C4.66 31 5.32 31 6 31 C6 29.35 6 27.7 6 26 C5.34 26 4.68 26 4 26 C3.67 24.68 3.34 23.36 3 22 C2.34 22.66 1.68 23.32 1 24 C0.0234375 17.9453125 0.0234375 17.9453125 0 16 C0.66 15.34 1.32 14.68 2 14 C2.99 15.485 2.99 15.485 4 17 C4.66 17.33 5.32 17.66 6 18 C6 19.65 6 21.3 6 23 C6.99 23 7.98 23 9 23 C9 23.66 9 24.32 9 25 C9.99 25.33 10.98 25.66 12 26 C11.01 26 10.02 26 9 26 C9 26.66 9 27.32 9 28 C10.65 27.34 12.3 26.68 14 26 C13.95359375 24.854023438 13.9071875 23.708046875 13.859375 22.52734375 C13.82183091 20.997422092 13.785433595 19.467471993 13.75 17.9375 C13.716484375 17.185332031 13.68296875 16.433164062 13.6484375 15.658203125 C13.549342257 9.935452822 14.799187749 6.744511073 18 2 C18.66 2.33 19.32 2.66 20 3 C19.484375 4.19625 18.96875 5.3925 18.4375 6.625 C16.263529337 13.024434767 17.05420916 19.405736087 18 26 C18.33 26.66 18.66 27.32 19 28 C19.649797188 34.722901671 18.729073817 39.859583911 16 46 C15.34 46 14.68 46 14 46 C14 44.02 14 42.04 14 40 C13.34 41.98 12.68 43.96 12 46 C6.040993232 47.394661159 1.529021966 46.70022003 -4 44 C-5.78515625 42.55859375 -5.78515625 42.55859375 -7 41 C-6.6875 38.3125 -6.6875 38.3125 -6 36 C-6.99 36.495 -6.99 36.495 -8 37 C-8.087650685 32.979305755 -8.140610184 28.958859902 -8.1875 24.9375 C-8.212636719 23.803769531 -8.237773437 22.670039062 -8.263671875 21.501953125 C-8.334249448 13.432583948 -7.928169561 8.200557427 -2.3125 2.0625 C-1.549375 1.381875 -0.78625 0.70125 0 0 Z " fill="#605E52" transform="translate(97,38)" />
<path d="M0 0 C-0.627598652 2.92879371 -1.586226586 5.360956293 -3 8 C-2.67 8.33 -2.34 8.66 -2 9 C-3 12 -3 12 -4 13 C-3.34 13.33 -2.68 13.66 -2 14 C-1.731875 13.38125 -1.46375 12.7625 -1.1875 12.125 C0 10 0 10 3 8 C6.459847538 10.306565026 6.569300471 11.254460783 8 15 C9.812997683 17.906424224 11.719882178 20.735456772 13.63671875 23.57421875 C14.086601562 24.374726563 14.536484375 25.175234375 15 26 C14.67 26.66 14.34 27.32 14 28 C11.03 24.37 8.06 20.74 5 17 C5.99 18.65 6.98 20.3 8 22 C8.495 22.99 8.495 22.99 9 24 C7.0625 23.1875 7.0625 23.1875 5 22 C4.505 20.515 4.505 20.515 4 19 C3.722649902 22.184900065 3.722649902 22.184900065 6 25 C5.401875 24.67 4.80375 24.34 4.1875 24 C1.946135291 22.79212012 1.946135291 22.79212012 -1 23 C-0.248499772 26.277735039 -0.248499772 26.277735039 3 28 C2.34 28 1.68 28 1 28 C1 28.66 1 29.32 1 30 C1.99 30 2.98 30 4 30 C3.67 30.66 3.34 31.32 3 32 C3.33 32.66 3.66 33.32 4 34 C3.34 34.66 2.68 35.32 2 36 C-1.974091557 32.705240333 -3.306161338 29.053714793 -4.75 24.25 C-4.970429688 23.552617188 -5.190859375 22.855234375 -5.41796875 22.13671875 C-5.956357424 20.427919915 -6.479710571 18.714396317 -7 17 C-7.556875 18.19625 -8.11375 19.3925 -8.6875 20.625 C-11.01969691 25.272911863 -13.608407039 29.185688099 -17.8125 32.375 C-21.316945483 33.376270138 -24.352527691 33.231585543 -28 33 C-28.99 32.34 -29.98 31.68 -31 31 C-31 30.01 -31 29.02 -31 28 C-29.9790625 28.5259375 -29.9790625 28.5259375 -28.9375 29.0625 C-25.129017237 30.277973222 -22.854928939 30.032570252 -19 29 C-12.807642158 24.247725377 -10.473891406 17.464645192 -8 10.3125 C-4.361979167 0 -4.361979167 0 0 0 Z " fill="#2D2B21" transform="translate(71,46)" />
<path d="M0 0 C0.598125 0.185625 1.19625 0.37125 1.8125 0.5625 C4.164087618 1.220936871 4.164087618 1.220936871 7 0 C7.33 0.99 7.66 1.98 8 3 C7.01 3.495 7.01 3.495 6 4 C8.49825283 7.212039353 11.070299202 10.174931373 14 13 C15.541666415 11.625144675 15.541666415 11.625144675 17 10 C17 9.34 17 8.68 17 8 C20.374627148 8.547236835 22.082349995 9.054899997 25 11 C23.35 9.02 21.7 7.04 20 5 C22.25 4.25 22.25 4.25 25 4 C27.375 5.625 27.375 5.625 29 8 C28.543429981 12.130871597 27.036077482 15.884592006 25.5625 19.75 C25.130664062 20.89984375 24.698828125 22.0496875 24.25390625 23.234375 C23 26 23 26 21 27 C21.2165625 26.373515625 21.433125 25.74703125 21.65625 25.1015625 C21.9346875 24.284296875 22.213125 23.46703125 22.5 22.625 C22.7784375 21.812890625 23.056875 21.00078125 23.34375 20.1640625 C24.096733053 18.05790758 24.096733053 18.05790758 24 16 C23.34 16 22.68 16 22 16 C22 15.34 22 14.68 22 14 C21.01 14 20.02 14 19 14 C18.67 14.66 18.34 15.32 18 16 C17.34 16 16.68 16 16 16 C15.67 16.99 15.34 17.98 15 19 C14.01 17.35 13.02 15.7 12 14 C10.235373169 17.088096954 10 18.233121357 10 22 C9.01 22.33 8.02 22.66 7 23 C6.67 24.98 6.34 26.96 6 29 C3.36 29 0.72 29 -2 29 C-2 28.67 -2 28.34 -2 28 C0.31 28 2.62 28 5 28 C5 26.68 5 25.36 5 24 C4.01 23.67 3.02 23.34 2 23 C1.67 23.33 1.34 23.66 1 24 C0.34 24 -0.32 24 -1 24 C-0.67 22.35 -0.34 20.7 0 19 C-0.66 19 -1.32 19 -2 19 C-2.33 19.99 -2.66 20.98 -3 22 C-3.66 19.03 -4.32 16.06 -5 13 C-2.69 12.34 -0.38 11.68 2 11 C2 12.98 2 14.96 2 17 C2.66 17 3.32 17 4 17 C3.67 15.02 3.34 13.04 3 11 C4.32 11.33 5.64 11.66 7 12 C5.133128314 7.89288229 3.22974578 5.118375235 0 2 C0 1.34 0 0.68 0 0 Z " fill="#343329" transform="translate(126,41)" />
<path d="M0 0 C2.218547068 4.621973059 3.382811588 7.768241629 3 13 C1.291159947 11.37660195 -0.37446717 9.706809472 -2 8 C-2 7.34 -2 6.68 -2 6 C-3.32 6 -4.64 6 -6 6 C-6 6.94875 -6 7.8975 -6 8.875 C-6 10.583333333 -6 12.291666667 -6 14 C-4.314916098 15.324638148 -2.533008777 16.433677529 -0.7265625 17.5859375 C1.277974899 19.2276627 1.910358679 20.671331047 3 23 C4.00435972 24.280168347 5.046902615 25.531281217 6.125 26.75 C6.663828125 27.36359375 7.20265625 27.9771875 7.7578125 28.609375 C8.372695313 29.297734375 8.372695313 29.297734375 9 30 C8.67 30.66 8.34 31.32 8 32 C7.4225 31.360625 6.845 30.72125 6.25 30.0625 C4.019375987 28.017761322 2.925636086 27.417948012 0 27 C0.33 27.99 0.66 28.98 1 30 C0.01 30.33 -0.98 30.66 -2 31 C-2.33 31.66 -2.66 32.32 -3 33 C-3.2475 32.38125 -3.495 31.7625 -3.75 31.125 C-4.812011519 28.869766831 -4.812011519 28.869766831 -6.9375 28.0625 C-9.719445433 26.629376595 -10.569385016 24.718168469 -12 22 C-11.34 21.67 -10.68 21.34 -10 21 C-10.721875 20.896875 -11.44375 20.79375 -12.1875 20.6875 C-15.244919928 19.940130684 -17.383296347 18.719548115 -20 17 C-19.01 16.34 -18.02 15.68 -17 15 C-14.115231592 12.27116502 -11.48317136 9.415663014 -8.9375 6.375 C-3.534722222 0 -3.534722222 0 0 0 Z " fill="#646359" transform="translate(143,22)" />
<path d="M0 0 C0.66 0 1.32 0 2 0 C2.752439726 4.014625219 3.111817828 7.797117311 3.10546875 11.87890625 C3.120292969 12.964941406 3.135117187 14.050976562 3.150390625 15.169921875 C3.175171519 17.435417334 3.180313643 19.701211005 3.166015625 21.966796875 C3.064885132 27.739753892 3.064885132 27.739753892 5.389160156 32.784667969 C7.215748743 34.260153536 7.215748743 34.260153536 10 36 C10 36.99 10 37.98 10 39 C6.8125 39.4375 6.8125 39.4375 3 39 C-0.371814688 35.824518825 -2.873192179 31.652819615 -3.09765625 26.95703125 C-3.065104167 24.971354167 -3.032552083 22.985677083 -3 21 C-3.66 21 -4.32 21 -5 21 C-7.233343674 18.728803043 -7.958407837 17.397066514 -8.29296875 14.203125 C-8.258164063 13.22859375 -8.223359375 12.2540625 -8.1875 11.25 C-8.160429687 10.26515625 -8.133359375 9.2803125 -8.10546875 8.265625 C-8.070664063 7.51796875 -8.035859375 6.7703125 -8 6 C-7.67 6.66 -7.34 7.32 -7 8 C-5.68 8 -4.36 8 -3 8 C-2.01 5.36 -1.02 2.72 0 0 Z " fill="#615F55" transform="translate(133,82)" />
<path d="M0 0 C0.982265625 0.090878906 0.982265625 0.090878906 1.984375 0.18359375 C2.89703125 0.267382813 3.8096875 0.351171875 4.75 0.4375 C5.743867188 0.5303125 6.737734375 0.623125 7.76171875 0.71875 C9.949917906 0.90879866 12.140312665 1.074862262 14.33203125 1.21875 C15.398085937 1.2909375 16.464140625 1.363125 17.5625 1.4375 C18.553789063 1.498085938 19.545078125 1.558671875 20.56640625 1.62109375 C23 2 23 2 25 4 C22.69 4.33 20.38 4.66 18 5 C17.67 6.32 17.34 7.64 17 9 C17.66 9 18.32 9 19 9 C19 8.34 19 7.68 19 7 C19.66 7.33 20.32 7.66 21 8 C20.01 9.485 20.01 9.485 19 11 C19.66 11.33 20.32 11.66 21 12 C21 12.66 21 13.32 21 14 C20.34 14 19.68 14 19 14 C19.33 18.29 19.66 22.58 20 27 C19.01 26.34 18.02 25.68 17 25 C16.951015625 26.048007813 16.90203125 27.096015625 16.8515625 28.17578125 C16.776518566 29.554713536 16.700971432 30.933618503 16.625 32.3125 C16.57859375 33.347939453 16.57859375 33.347939453 16.53125 34.404296875 C16.318750811 38.069907889 16.080661389 39.879007916 14 43 C14.023203125 42.105390625 14.04640625 41.21078125 14.0703125 40.2890625 C14.199182911 31.924100016 14.199182911 31.924100016 12.9375 23.6875 C11.331426176 16.75062795 12.459771886 10.604593096 15 4 C14.566875 4.5775 14.13375 5.155 13.6875 5.75 C12.125 7.833333333 10.5625 9.916666667 9 12 C8.3125 10.1875 8.3125 10.1875 8 8 C9.375 6.375 9.375 6.375 11 5 C11.33 4.34 11.66 3.68 12 3 C6.778660799 4.624195043 6.778660799 4.624195043 3.5625 8.6875 C3.376875 9.450625 3.19125 10.21375 3 11 C3.66 11 4.32 11 5 11 C5.66 9.02 6.32 7.04 7 5 C7.33 5.66 7.66 6.32 8 7 C7.064210051 9.359818132 6.066521924 11.696312645 5 14 C4.67 13.34 4.34 12.68 4 12 C3.01 12.33 2.02 12.66 1 13 C1.75 6.25 1.75 6.25 4 4 C2.68 3.67 1.36 3.34 0 3 C0 2.01 0 1.02 0 0 Z " fill="#282620" transform="translate(101,37)" />
<path d="M0 0 C0.66 0.99 1.32 1.98 2 3 C2.66 3 3.32 3 4 3 C3.67 3.639375 3.34 4.27875 3 4.9375 C1.927287749 6.767945667 1.927287749 6.767945667 2 8 C5.465 9.485 5.465 9.485 9 11 C8.67 12.32 8.34 13.64 8 15 C5.0625 14.625 5.0625 14.625 2 14 C1.67 13.34 1.34 12.68 1 12 C1 13.65 1 15.3 1 17 C1.66 16.67 2.32 16.34 3 16 C3.33 17.98 3.66 19.96 4 22 C4.66 22 5.32 22 6 22 C6.33 24.31 6.66 26.62 7 29 C6.67 28.34 6.34 27.68 6 27 C5.34 27 4.68 27 4 27 C6.389572692 30.24299151 8.2047869 32.509023425 12 34 C9.03 34.495 9.03 34.495 6 35 C6 33.68 6 32.36 6 31 C5.01 31 4.02 31 3 31 C3 29.35 3 27.7 3 26 C1.68 25.67 0.36 25.34 -1 25 C-1 26.98 -1 28.96 -1 31 C-1.33 29.68 -1.66 28.36 -2 27 C-2.99 27.33 -3.98 27.66 -5 28 C-5.081564373 25.145246938 -5.140763717 22.292864351 -5.1875 19.4375 C-5.212636719 18.637636719 -5.237773437 17.837773438 -5.263671875 17.013671875 C-5.347786477 10.144312727 -3.848914008 5.773371012 0 0 Z " fill="#312F25" transform="translate(97,42)" />
<path d="M0 0 C1.769490952 -0.108152248 3.540874868 -0.185660825 5.3125 -0.25 C6.298632813 -0.29640625 7.284765625 -0.3428125 8.30078125 -0.390625 C11 0 11 0 12.66796875 1.953125 C13.107539062 2.62859375 13.547109375 3.3040625 14 4 C14.99 4.33 15.98 4.66 17 5 C16.505 5.5775 16.01 6.155 15.5 6.75 C13.630199869 9.104006287 13.630199869 9.104006287 14 13 C14.99 13.33 15.98 13.66 17 14 C17.33 12.68 17.66 11.36 18 10 C17.67 10.66 17.34 11.32 17 12 C16.34 12 15.68 12 15 12 C16.625 6.25 16.625 6.25 20 4 C21.32 4 22.64 4 24 4 C23.67 4.928125 23.34 5.85625 23 6.8125 C21.876364134 10.394089324 21.981222521 12.772386505 22.2890625 16.50390625 C22.343203125 17.161972656 22.39734375 17.820039063 22.453125 18.498046875 C22.568086752 19.878894288 22.690535093 21.259138038 22.8203125 22.638671875 C22.960263635 24.421299461 22.987568462 26.211930402 23 28 C22.34 28.66 21.68 29.32 21 30 C19.68 30 18.36 30 17 30 C17 28.35 17 26.7 17 25 C16.01 25 15.02 25 14 25 C14 23.68 14 22.36 14 21 C14.66 20.67 15.32 20.34 16 20 C13.472119928 17.201275635 11.795888665 15.542269809 8 15 C8.997775798 12.006672607 9.752202502 11.052336846 12 9 C11.01 9.33 10.02 9.66 9 10 C8.67 9.34 8.34 8.68 8 8 C8.9375 5.375 8.9375 5.375 10 3 C8.417273992 1.417273992 6.619659971 1.652642532 4.4375 1.4375 C3.611210938 1.353710937 2.784921875 1.269921875 1.93359375 1.18359375 C1.295507813 1.123007812 0.657421875 1.062421875 0 1 C0 0.67 0 0.34 0 0 Z " fill="#56534B" transform="translate(89,36)" />
<path d="M0 0 C1.875 0.25 1.875 0.25 4 1 C6.227347584 4.333122981 6.316493822 7.438792488 6.5 11.375 C6.714423412 15.95293985 7.389284354 19.700428396 9 24 C9.66 23.01 10.32 22.02 11 21 C11.66 20.67 12.32 20.34 13 20 C13.66 20.33 14.32 20.66 15 21 C15 21.66 15 22.32 15 23 C14.34 23 13.68 23 13 23 C13 24.65 13 26.3 13 28 C12.01 28 11.02 28 10 28 C8.3125 26 8.3125 26 7 24 C6.34 24.33 5.68 24.66 5 25 C3.02 23.68 1.04 22.36 -1 21 C-0.67 20.34 -0.34 19.68 0 19 C-0.94875 18.401875 -1.8975 17.80375 -2.875 17.1875 C-6 15 -6 15 -8 12 C-7.125 8.8125 -7.125 8.8125 -6 6 C-4.68 6 -3.36 6 -2 6 C0.25 8.5 0.25 8.5 2 11 C1.400497042 7.31733897 0.75241109 3.654568153 0 0 Z " fill="#84847A" transform="translate(143,22)" />
<path d="M0 0 C0.99 0.33 1.98 0.66 3 1 C2.67 1.66 2.34 2.32 2 3 C2.99 3 3.98 3 5 3 C7.63671875 4.60546875 7.63671875 4.60546875 10 7 C10.70703125 9.98828125 10.70703125 9.98828125 10.8125 13.3125 C10.85890625 14.4571875 10.9053125 15.601875 10.953125 16.78125 C10.96859375 17.8434375 10.9840625 18.905625 11 20 C11.01546875 20.7940625 11.0309375 21.588125 11.046875 22.40625 C11.059426461 23.937528278 11.035602693 25.469084212 11 27 C8.001236781 24.196808295 5.836772732 21.405650834 3.75 17.875 C3.22921875 17.006171875 2.7084375 16.13734375 2.171875 15.2421875 C1 13 1 13 1 11 C0.34 10.67 -0.32 10.34 -1 10 C-0.67 9.34 -0.34 8.68 0 8 C-1.32 7.67 -2.64 7.34 -4 7 C-5.32 8.65 -6.64 10.3 -8 12 C-8.99 11.67 -9.98 11.34 -11 11 C-10 9 -10 9 -8 7 C-8.66 7 -9.32 7 -10 7 C-8.25 2.125 -8.25 2.125 -6 1 C-5.01 1.66 -4.02 2.32 -3 3 C-2.01 2.01 -1.02 1.02 0 0 Z " fill="#676559" transform="translate(77,48)" />
<path d="M0 0 C3.351625455 3.142148864 6.397686915 6.500351286 9.375 10 C10.083984375 10.825 10.79296875 11.65 11.5234375 12.5 C13 15 13 15 12.7890625 17.75 C12 20 12 20 11 21 C9.00045254 21.042543563 6.999583637 21.040807829 5 21 C4.34 21 3.68 21 3 21 C2.01 21 1.02 21 0 21 C-0.99 19.02 -1.98 17.04 -3 15 C-2.01 14.67 -1.02 14.34 0 14 C-0.99 14 -1.98 14 -3 14 C-4.648261114 11.033129995 -5.442710874 8.343734754 -6 5 C-3.525 5.99 -3.525 5.99 -1 7 C-0.947295372 5.631067606 -0.947295372 5.631067606 -2 3 C-1.34 3 -0.68 3 0 3 C0.33 3.33 0.66 3.66 1 4 C0.67 2.68 0.34 1.36 0 0 Z " fill="#6C6A5E" transform="translate(75,62)" />
<path d="M0 0 C1.191267806 3.573803418 0.734944502 5.508833018 0.0625 9.1875 C-0.132148438 10.274179687 -0.326796875 11.360859375 -0.52734375 12.48046875 C-0.683320313 13.311914062 -0.839296875 14.143359375 -1 15 C-0.34 15 0.32 15 1 15 C1.363515625 16.338046875 1.363515625 16.338046875 1.734375 17.703125 C2.06953125 18.87359375 2.4046875 20.0440625 2.75 21.25 C3.07484375 22.41015625 3.3996875 23.5703125 3.734375 24.765625 C5.052194732 28.133386538 6.474383686 29.516831019 9 32 C9 33.32 9 34.64 9 36 C6.69 36 4.38 36 2 36 C-0.967265029 28.876298843 -3.479423299 22.104377097 -4.54296875 14.4375 C-5.042307145 11.774361892 -5.923662637 9.480448244 -7 7 C-2.25 1.125 -2.25 1.125 0 0 Z " fill="#57544A" transform="translate(82,87)" />
<path d="M0 0 C1.32 0 2.64 0 4 0 C3.859236847 1.958704301 3.7122324 3.916960926 3.5625 5.875 C3.481289062 6.965546875 3.400078125 8.05609375 3.31640625 9.1796875 C3 12 3 12 2 14 C1.01 14 0.02 14 -1 14 C-1 14.99 -1 15.98 -1 17 C0.65 16.34 2.3 15.68 4 15 C4 15.66 4 16.32 4 17 C3.236875 17.2475 2.47375 17.495 1.6875 17.75 C-1.274906722 19.127863592 -2.11407501 20.428284104 -4 23 C-4.99 23 -5.98 23 -7 23 C-8.521066337 19.957867325 -8.374293375 16.719524282 -8.5625 13.375 C-8.605683594 12.66859375 -8.648867188 11.9621875 -8.693359375 11.234375 C-8.799447505 9.489814632 -8.90022889 7.744933034 -9 6 C-6.03 6.33 -3.06 6.66 0 7 C0 4.69 0 2.38 0 0 Z " fill="#68685A" transform="translate(132,63)" />
<path d="M0 0 C2.218547068 4.621973059 3.382811588 7.768241629 3 13 C1.291159947 11.37660195 -0.37446717 9.706809472 -2 8 C-2 7.34 -2 6.68 -2 6 C-3.32 6 -4.64 6 -6 6 C-6 6.94875 -6 7.8975 -6 8.875 C-6 10.583333333 -6 12.291666667 -6 14 C-4.499057634 15.178917771 -4.499057634 15.178917771 -2.625 16.3125 C0.58014331 18.488112428 2.007830884 20.141564547 3 24 C-0.889002428 22.906218067 -3.091712515 21.054506367 -5.9375 18.3125 C-9.117246465 15.298739037 -9.117246465 15.298739037 -13.5 15.0625 C-14.325 15.371875 -15.15 15.68125 -16 16 C-4.089330025 0 -4.089330025 0 0 0 Z " fill="#313127" transform="translate(143,22)" />
<path d="M0 0 C0.99 0 1.98 0 3 0 C3 1.98 3 3.96 3 6 C3.7425 6.2475 4.485 6.495 5.25 6.75 C10.273280078 9.033309127 12.356910277 12.416136038 14.9140625 17.203125 C16.045344393 19.075030291 17.323280742 20.528820243 18.8125 22.125 C21 25 21 25 21 27.6875 C19.885948198 30.263744793 19.271709769 31.353833501 17 33 C13.64453125 33.29296875 13.64453125 33.29296875 9.8125 33.1875 C8.540195313 33.160429687 7.267890625 33.133359375 5.95703125 33.10546875 C4.493300781 33.053261719 4.493300781 33.053261719 3 33 C6.420942415 30.719371723 7.681872224 30.780749935 11.6875 30.875 C13.178300781 30.902070313 13.178300781 30.902070313 14.69921875 30.9296875 C15.458476563 30.952890625 16.217734375 30.97609375 17 31 C16.49984375 30.548828125 15.9996875 30.09765625 15.484375 29.6328125 C14.99453125 29.093984375 14.5046875 28.55515625 14 28 C14.25146579 25.862540783 14.459257792 24.540742208 16 23 C10.147743984 14.306212498 10.147743984 14.306212498 2 8 C2 7.34 2 6.68 2 6 C1.01 6.33 0.02 6.66 -1 7 C-1.625 5.1875 -1.625 5.1875 -2 3 C-1.34 2.01 -0.68 1.02 0 0 Z " fill="#2B2A20" transform="translate(153,13)" />
<path d="M0 0 C0.66 0.33 1.32 0.66 2 1 C1.484375 2.19625 0.96875 3.3925 0.4375 4.625 C-1.736470663 11.024434767 -0.94579084 17.405736087 0 24 C0.33 24.66 0.66 25.32 1 26 C1.649797188 32.722901671 0.729073817 37.859583911 -2 44 C-2.66 44 -3.32 44 -4 44 C-3.916210937 42.914609375 -3.832421875 41.82921875 -3.74609375 40.7109375 C-3.642859028 39.265651391 -3.540015169 37.820337326 -3.4375 36.375 C-3.381425781 35.662148438 -3.325351563 34.949296875 -3.267578125 34.21484375 C-2.973140581 29.935684778 -3.211762431 26.239592068 -4 22 C-5.024094513 6.437121094 -5.024094513 6.437121094 0 0 Z " fill="#DCDBD4" transform="translate(115,40)" />
<path d="M0 0 C0.33 0 0.66 0 1 0 C2.65 5.94 4.3 11.88 6 18 C5.01 18.33 4.02 18.66 3 19 C2.67 19.66 2.34 20.32 2 21 C-0.783918302 19.608040849 -0.978989974 17.844242215 -2 15 C-3.98 15.66 -5.96 16.32 -8 17 C-7.487108286 12.512197505 -5.797152716 10.455306297 -3 7 C-1.859122315 4.703863819 -0.937644772 2.390994167 0 0 Z " fill="#E7E5DA" transform="translate(64,61)" />
<path d="M0 0 C1.875 0.6875 1.875 0.6875 4 2 C4.674208061 3.663630281 5.339417495 5.330912532 6 7 C7.812997683 9.906424224 9.719882178 12.735456772 11.63671875 15.57421875 C12.086601562 16.374726563 12.536484375 17.175234375 13 18 C12.67 18.66 12.34 19.32 12 20 C9.03 16.37 6.06 12.74 3 9 C3.99 10.65 4.98 12.3 6 14 C6.33 14.66 6.66 15.32 7 16 C5.0625 15.1875 5.0625 15.1875 3 14 C2.67 13.01 2.34 12.02 2 11 C1.01 11.33 0.02 11.66 -1 12 C-2.666666667 12 -4.333333333 12 -6 12 C-5.690625 11.443125 -5.38125 10.88625 -5.0625 10.3125 C-3.890495734 8.024405354 -3.890495734 8.024405354 -3.5625 5.4375 C-2.93304287 2.709852437 -2.123979927 1.754592113 0 0 Z " fill="#48463A" transform="translate(73,54)" />
<path d="M0 0 C0.99 0.33 1.98 0.66 3 1 C2.578476563 1.60328125 2.156953125 2.2065625 1.72265625 2.828125 C1.174804688 3.62734375 0.626953125 4.4265625 0.0625 5.25 C-0.482773438 6.03890625 -1.028046875 6.8278125 -1.58984375 7.640625 C-4.699240303 12.843050258 -4.307644925 18.726389121 -4.517578125 24.625 C-4.726324471 29.083506856 -5.350724543 32.793346001 -7 37 C-7.33 37 -7.66 37 -8 37 C-8.087650685 32.979305755 -8.140610184 28.958859902 -8.1875 24.9375 C-8.212636719 23.803769531 -8.237773437 22.670039062 -8.263671875 21.501953125 C-8.334249448 13.432583948 -7.928169561 8.200557427 -2.3125 2.0625 C-1.549375 1.381875 -0.78625 0.70125 0 0 Z " fill="#E0DED4" transform="translate(97,38)" />
<path d="M0 0 C0.99 0.33 1.98 0.66 3 1 C3.33 0.67 3.66 0.34 4 0 C4.66 0.33 5.32 0.66 6 1 C5.350835374 7.004772789 3.142049972 12.400781003 1 18 C0.01 18 -0.98 18 -2 18 C-2.109570313 17.336132812 -2.219140625 16.672265625 -2.33203125 15.98828125 C-3.228081816 10.998080946 -4.184387059 7.290457815 -7 3 C-6.67 2.34 -6.34 1.68 -6 1 C-5.34 1.99 -4.68 2.98 -4 4 C-3.01 3.67 -2.02 3.34 -1 3 C-0.67 2.01 -0.34 1.02 0 0 Z " fill="#69675C" transform="translate(145,54)" />
<path d="M0 0 C1.646662026 0.113562898 3.292360823 0.241173812 4.9375 0.375 C6.312285156 0.479414062 6.312285156 0.479414062 7.71484375 0.5859375 C8.845996094 0.790898438 8.845996094 0.790898438 10 1 C10.33 1.66 10.66 2.32 11 3 C10.2578125 5.1015625 10.2578125 5.1015625 9.125 7.625 C7.20232974 12.186369444 6.364495516 16.079310535 6 21 C5.67 21 5.34 21 5 21 C4.815489749 11.589977221 4.815489749 11.589977221 6 7 C2.219653773 10.477360261 2.219653773 10.477360261 0 15 C0.495 15.99 0.99 16.98 1.5 18 C1.995 18.99 2.49 19.98 3 21 C2.67 21.99 2.34 22.98 2 24 C0.035323181 20.761803028 -1.753421525 17.58458188 -3 14 C-1.75 10.5 -1.75 10.5 0 8 C-0.958655088 5.669240708 -0.958655088 5.669240708 -4 4 C-3.34 3.67 -2.68 3.34 -2 3 C-1.67 2.34 -1.34 1.68 -1 1 C-0.67 1 -0.34 1 0 1 C0 0.67 0 0.34 0 0 Z " fill="#333126" transform="translate(76,81)" />
<path d="M0 0 C0.33 0 0.66 0 1 0 C1.33 6.27 1.66 12.54 2 19 C2.66 18.67 3.32 18.34 4 18 C4 21.63 4 25.26 4 29 C3.34 29.33 2.68 29.66 2 30 C4.31 30.66 6.62 31.32 9 32 C9.33 33.65 9.66 35.3 10 37 C7.69 37 5.38 37 3 37 C0.28085691 32.339507921 -0.359551383 29.00381156 -0.29296875 23.6328125 C-0.286601486 22.613430939 -0.286601486 22.613430939 -0.280105591 21.573455811 C-0.263442659 19.423550755 -0.225817164 17.274617014 -0.1875 15.125 C-0.172436998 13.658867799 -0.158751429 12.19272076 -0.146484375 10.7265625 C-0.113580802 7.150731252 -0.061886634 3.575460585 0 0 Z " fill="#5E5B52" transform="translate(123,85)" />
</svg>