<?xml version='1.0' encoding='utf-8'?>
<svg xmlns="http://www.w3.org/2000/svg" version="1.1" width="154" height="108" viewBox="15.329999999999998 12.587829941999999 154.52304687499998 108.778659133">
<path d="M0 0 C0.99 3.96 1.98 7.92 3 12 C3.66 12 4.32 12 5 12 C5.221623291 13.623240862 5.426898026 15.248721 5.625 16.875 C5.741015625 17.779921875 5.85703125 18.68484375 5.9765625 19.6171875 C5.988164063 20.796679688 5.988164063 20.796679688 6 22 C5.34 22.66 4.68 23.32 4 24 C3.505 23.01 3.505 23.01 3 22 C2.01 22.495 2.01 22.495 1 23 C0.796972656 22.073808594 0.796972656 22.073808594 0.58984375 21.12890625 C-1.194644935 14.108492683 -4.234161292 9.405636233 -9 4 C-8.508867188 5.150488281 -8.508867188 5.150488281 -8.0078125 6.32421875 C-6.963395062 9.09718753 -6.83244197 11.067734468 -7 14 C-6.34 14 -5.68 14 -5 14 C-5 15.32 -5 16.64 -5 18 C-4.34 18 -3.68 18 -3 18 C-2.34 19.32 -1.68 20.64 -1 22 C-2.75 22.6875 -2.75 22.6875 -5 23 C-7.25 21.5625 -7.25 21.5625 -9 20 C-9.325395687 23.196593227 -9.325395687 23.196593227 -6.75 25.625 C-4.271187964 27.765792213 -3.164315108 28.648409432 0 29 C0.66 28.01 1.32 27.02 2 26 C2.66 26 3.32 26 4 26 C3.67 28.97 3.34 31.94 3 35 C2.67 34.01 2.34 33.02 2 32 C1.01 32.495 1.01 32.495 0 33 C0.215273438 33.720585938 0.430546875 34.441171875 0.65234375 35.18359375 C1.084945325 38.688152579 0.261888336 40.009127461 -1.4375 43.0625 C-5.126338414 50.697059726 -5.085139371 57.957190799 -2.8125 66.0625 C-1.636547519 69.183296969 -1.070607344 69.945812968 1.6875 72.0625 C2.8321875 72.5265625 2.8321875 72.5265625 4 73 C3.505 74.98 3.505 74.98 3 77 C1.7625 77.12375 0.525 77.2475 -0.75 77.375 C-1.794140625 77.479414062 -1.794140625 77.479414062 -2.859375 77.5859375 C-5.661051145 76.819055344 -6.653055723 75.337510036 -8.116210938 72.8984375 C-9.767604934 69.351133712 -10.493871168 65.633429713 -11.25 61.8125 C-11.422734375 61.006191406 -11.59546875 60.199882812 -11.7734375 59.369140625 C-12.445799221 56.159413837 -13 53.291103006 -13 50 C-13.99 50.66 -14.98 51.32 -16 52 C-16.415271238 54.126946649 -16.415271238 54.126946649 -16.29296875 56.5703125 C-16.283300781 57.466210937 -16.273632812 58.362109375 -16.263671875 59.28515625 C-16.238535156 60.222304687 -16.213398438 61.159453125 -16.1875 62.125 C-16.173964844 63.069882812 -16.160429687 64.014765625 -16.146484375 64.98828125 C-16.111063064 67.326087788 -16.061672711 69.662762374 -16 72 C-14.68 72.66 -13.36 73.32 -12 74 C-12.33 75.65 -12.66 77.3 -13 79 C-19.474640322 79.366489075 -19.474640322 79.366489075 -21.676025391 77.830810547 C-24.505140149 73.918671219 -24.072727604 68.485314271 -24.4375 63.8125 C-24.552871094 62.700683594 -24.668242187 61.588867188 -24.787109375 60.443359375 C-25.377185515 53.273297499 -24.661865623 49.105561036 -21 43 C-18.760966208 35.132793833 -20.869563795 27.679199428 -23 20 C-23.219140625 21.08796875 -23.43828125 22.1759375 -23.6640625 23.296875 C-26.244113754 35.50335939 -29.262135116 46.469235101 -38.97265625 54.98828125 C-41.659756231 56.329242512 -43.182842834 55.834894065 -46 55 C-45.67 53.68 -45.34 52.36 -45 51 C-44.278125 50.87625 -43.55625 50.7525 -42.8125 50.625 C-41.884375 50.41875 -40.95625 50.2125 -40 50 C-39.154375 49.814375 -38.30875 49.62875 -37.4375 49.4375 C-33.143593343 46.905196074 -31.575181649 42.053722015 -30.275146484 37.411865234 C-29.639782103 34.615008774 -29.05584478 31.813724609 -28.5 29 C-26.104830592 16.875487275 -22.669075072 8.168289722 -12.125 1.0625 C-7.903326757 -0.372868902 -4.447548103 -0.202161277 0 0 Z " fill="#4E4D44" transform="translate(71,32)" />
<path d="M0 0 C0.98484375 0.018046875 1.9696875 0.03609375 2.984375 0.0546875 C4.105859375 0.089492187 4.105859375 0.089492187 5.25 0.125 C5.25 0.455 5.25 0.785 5.25 1.125 C3.6 1.455 1.95 1.785 0.25 2.125 C2.89 4.765 5.53 7.405 8.25 10.125 C7.92 10.785 7.59 11.445 7.25 12.125 C6.730507812 11.535898438 6.211015625 10.946796875 5.67578125 10.33984375 C4.978398438 9.588320313 4.281015625 8.836796875 3.5625 8.0625 C2.535761719 6.931347656 2.535761719 6.931347656 1.48828125 5.77734375 C-0.638294992 3.865161218 -0.638294992 3.865161218 -3.375 4.125 C-6.305314899 5.358816799 -6.827771129 6.306465969 -8.0625 9.1875 C-8.388632812 9.920976563 -8.714765625 10.654453125 -9.05078125 11.41015625 C-9.281523437 11.976054687 -9.512265625 12.541953125 -9.75 13.125 C-10.41 11.805 -11.07 10.485 -11.75 9.125 C-12.74 9.125 -13.73 9.125 -14.75 9.125 C-14.769819336 9.687836914 -14.789638672 10.250673828 -14.810058594 10.830566406 C-15.223956174 22.051535624 -15.831857165 33.04446615 -17.75 44.125 C-18.41 44.125 -19.07 44.125 -19.75 44.125 C-19.75 44.785 -19.75 45.445 -19.75 46.125 C-28.391737502 48.076867851 -36.469340552 47.712618731 -44.7890625 44.68359375 C-46.804471335 43.870926312 -46.804471335 43.870926312 -48.75 45.125 C-48.42 43.475 -48.09 41.825 -47.75 40.125 C-46.76 40.125 -45.77 40.125 -44.75 40.125 C-44.255 37.155 -44.255 37.155 -43.75 34.125 C-44.41 34.125 -45.07 34.125 -45.75 34.125 C-46.41 35.445 -47.07 36.765 -47.75 38.125 C-52.012901789 37.651344246 -53.965489578 35.202616782 -56.75 32.125 C-57.41 31.135 -58.07 30.145 -58.75 29.125 C-58.42 28.465 -58.09 27.805 -57.75 27.125 C-57.1725 27.455 -56.595 27.785 -56 28.125 C-53.551161376 29.395758977 -53.551161376 29.395758977 -49.75 29.125 C-50.08 28.135 -50.41 27.145 -50.75 26.125 C-51.41 26.125 -52.07 26.125 -52.75 26.125 C-52.75 24.805 -52.75 23.485 -52.75 22.125 C-53.41 22.125 -54.07 22.125 -54.75 22.125 C-55.74 18.495 -56.73 14.865 -57.75 11.125 C-51.772591335 16.760842455 -47.573363993 22.002742214 -45.75 30.125 C-45.42 28.145 -45.09 26.165 -44.75 24.125 C-44.42 24.125 -44.09 24.125 -43.75 24.125 C-43.75 23.465 -43.75 22.805 -43.75 22.125 C-44.41 21.465 -45.07 20.805 -45.75 20.125 C-46.3828125 17.3046875 -46.3828125 17.3046875 -46.875 14 C-47.042578125 12.904296875 -47.21015625 11.80859375 -47.3828125 10.6796875 C-47.503984375 9.836640625 -47.62515625 8.99359375 -47.75 8.125 C-49.4 8.125 -51.05 8.125 -52.75 8.125 C-52.75 7.795 -52.75 7.465 -52.75 7.125 C-51.909289551 7.151184082 -51.068579102 7.177368164 -50.202392578 7.204345703 C-47.01723845 7.290679051 -43.832689361 7.352778261 -40.646728516 7.399658203 C-39.280315294 7.424467158 -37.914029811 7.458327124 -36.548095703 7.502197266 C-25.661687648 7.842522637 -17.208695389 6.052251856 -7.564697266 0.974365234 C-5.000425354 -0.225836835 -2.809478639 -0.066892349 0 0 Z " fill="#646257" transform="translate(118.75,23.875)" />
<path d="M0 0 C4.643724696 0.627530364 4.643724696 0.627530364 6.375 2.4375 C8.848884062 4.816234675 11.730275207 5.197992032 15 6 C14.853046875 6.693515625 14.70609375 7.38703125 14.5546875 8.1015625 C13.964874317 11.183544064 13.545976348 14.265683464 13.125 17.375 C12.570194196 21.083438795 12.045783543 24.415491345 10.4375 27.8125 C9.12905305 30.713838888 8.818548119 32.191939723 8.625 35.25 C8 39 8 39 5.75 41 C2.807794852 42.069892781 1.085195025 42.553752953 -2 42 C-3.355009193 40.688700781 -4.686713434 39.353083128 -6 38 C-7.987232677 37.296188427 -9.987779526 36.628818898 -12 36 C-14.375 34.375 -14.375 34.375 -16 33 C-15.835 32.2575 -15.67 31.515 -15.5 30.75 C-14.880743041 27.809934222 -14.880743041 27.809934222 -15 24 C-13.607508008 21.215016016 -12.009876315 18.562334066 -10.4375 15.875 C-9.796835937 14.779296875 -9.156171875 13.68359375 -8.49609375 12.5546875 C-8.002382813 11.711640625 -7.508671875 10.86859375 -7 10 C-6.37890625 11.8046875 -6.37890625 11.8046875 -6 14 C-7.26660533 16.042911823 -8.598863844 18.046901116 -10 20 C-10 20.66 -10 21.32 -10 22 C-9.34 21.34 -8.68 20.68 -8 20 C-5.682342711 19.280727048 -3.349041264 18.609010698 -1 18 C-1 22 -1 22 -2.5 23.75 C-2.995 24.1625 -3.49 24.575 -4 25 C-3.01 25.33 -2.02 25.66 -1 26 C-0.505 21.545 -0.505 21.545 0 17 C2.353337957 21.706675913 2.17102038 23.869388598 2 29 C1.34 29.33 0.68 29.66 0 30 C0 30.66 0 31.32 0 32 C1.32 32.33 2.64 32.66 4 33 C3.505 32.505 3.505 32.505 3 32 C2.91330568 30.511281404 2.892965063 29.018555004 2.90234375 27.52734375 C2.905566406 26.628222656 2.908789063 25.729101562 2.912109375 24.802734375 C2.920488281 23.857207031 2.928867188 22.911679687 2.9375 21.9375 C2.942011719 20.988105469 2.946523437 20.038710937 2.951171875 19.060546875 C2.962998898 16.706969349 2.979479747 14.353515227 3 12 C2.67 12 2.34 12 2 12 C1.875 6.25 1.875 6.25 3 4 C2.34 4 1.68 4 1 4 C0.67 2.68 0.34 1.36 0 0 Z " fill="#55534B" transform="translate(145,35)" />
<path d="M0 0 C0.66 1.32 1.32 2.64 2 4 C2.66 3.01 3.32 2.02 4 1 C6.363003494 3.363003494 6.514334445 4.5798498 7.125 7.8125 C7.292578125 8.664570313 7.46015625 9.516640625 7.6328125 10.39453125 C8.329183904 15.335804936 8.329183904 15.335804936 8 18 C6.35546875 19.6953125 6.35546875 19.6953125 4.1875 21.125 C1.1113113 23.190956782 1.1113113 23.190956782 -1.59375 25.69921875 C-2.0578125 26.128476562 -2.521875 26.557734375 -3 27 C-5.6875 26.6875 -5.6875 26.6875 -8 26 C-8 22 -8 22 -7 19 C-7.66 19.33 -8.32 19.66 -9 20 C-8.387223883 17.038248769 -7.746274782 15.619412173 -6 13 C-6.66 12.67 -7.32 12.34 -8 12 C-9.155707037 15.46712111 -9.328352928 18.541495597 -9.5625 22.1875 C-9.646289063 23.459804687 -9.730078125 24.732109375 -9.81640625 26.04296875 C-9.876992188 27.018789063 -9.937578125 27.994609375 -10 29 C-10.66 29 -11.32 29 -12 29 C-12.33 28.34 -12.66 27.68 -13 27 C-13.66 27.66 -14.32 28.32 -15 29 C-15.99 29 -16.98 29 -18 29 C-17.67 26.36 -17.34 23.72 -17 21 C-16.34 21 -15.68 21 -15 21 C-15.33 20.34 -15.66 19.68 -16 19 C-16.071163819 16.625974992 -16.084090848 14.249993234 -16.0625 11.875 C-16.053476562 10.593671875 -16.044453125 9.31234375 -16.03515625 7.9921875 C-16.023554687 7.004765625 -16.011953125 6.01734375 -16 5 C-15.34 5.33 -14.68 5.66 -14 6 C-13.34 4.68 -12.68 3.36 -12 2 C-12 6.333333333 -12 10.666666667 -12 15 C-11.818242188 14.240742188 -11.636484375 13.481484375 -11.44921875 12.69921875 C-11.197851563 11.705351562 -10.946484375 10.711484375 -10.6875 9.6875 C-10.443867188 8.701367187 -10.200234375 7.715234375 -9.94921875 6.69921875 C-8.982245477 3.949512858 -8.378428409 2.655295781 -6 1 C-4.333333333 1 -2.666666667 1 -1 1 C-1 2.65 -1 4.3 -1 6 C0.296336207 4.933548851 0.296336207 4.933548851 0.0625 2.4375 C0.041875 1.633125 0.02125 0.82875 0 0 Z " fill="#7D7D71" transform="translate(120,38)" />
<path d="M0 0 C-1 2 -2 4 -3 6 C-3.66 6 -4.32 6 -5 6 C-5 16.56 -5 27.12 -5 38 C-6.32 37.67 -7.64 37.34 -9 37 C-9.66 37.66 -10.32 38.32 -11 39 C-12.683006685 37.316993315 -12.22809077 35.17991273 -12.31640625 32.87109375 C-12.358300781 31.836621094 -12.400195313 30.802148438 -12.443359375 29.736328125 C-12.482675781 28.647714844 -12.521992188 27.559101563 -12.5625 26.4375 C-12.605683594 25.345019531 -12.648867188 24.252539062 -12.693359375 23.126953125 C-12.79982068 20.418104363 -12.901835164 17.709160076 -13 15 C-13.99 15 -14.98 15 -16 15 C-15.67 13.35 -15.34 11.7 -15 10 C-14.67 10.99 -14.34 11.98 -14 13 C-13.34 13 -12.68 13 -12 13 C-11.67 10.69 -11.34 8.38 -11 6 C-13.64 5.67 -16.28 5.34 -19 5 C-19.060585938 5.580078125 -19.121171875 6.16015625 -19.18359375 6.7578125 C-19.660165613 11.200928635 -20.210086657 15.599054232 -21 20 C-21.33 20 -21.66 20 -22 20 C-22.33 15.71 -22.66 11.42 -23 7 C-24.32 7.33 -25.64 7.66 -27 8 C-27.128894493 10.837635702 -27.128894493 10.837635702 -26.50390625 12.859375 C-25.909913754 15.382691959 -25.903430148 17.660691211 -25.9375 20.25 C-25.946523438 21.14203125 -25.955546875 22.0340625 -25.96484375 22.953125 C-25.976445313 23.62859375 -25.988046875 24.3040625 -26 25 C-27.910513482 22.134229777 -28.326633238 21.052052202 -28.78125 17.8046875 C-28.901132812 17.006757812 -29.021015625 16.208828125 -29.14453125 15.38671875 C-29.382594413 13.704580139 -29.619563849 12.022286395 -29.85546875 10.33984375 C-29.975351562 9.544492187 -30.095234375 8.749140625 -30.21875 7.9296875 C-30.321230469 7.199916992 -30.423710938 6.470146484 -30.529296875 5.718261719 C-30.684628906 5.151235352 -30.839960937 4.584208984 -31 4 C-31.66 3.67 -32.32 3.34 -33 3 C-31.956584473 2.970270996 -31.956584473 2.970270996 -30.892089844 2.939941406 C-27.719366787 2.844278759 -24.547265128 2.734766959 -21.375 2.625 C-19.733378906 2.57859375 -19.733378906 2.57859375 -18.05859375 2.53125 C-11.860718805 2.305872729 -5.950058421 0 0 0 Z " fill="#343226" transform="translate(105,29)" />
<path d="M0 0 C0 0.33 0 0.66 0 1 C-1.65 1.33 -3.3 1.66 -5 2 C-2.36 4.64 0.28 7.28 3 10 C2.67 10.66 2.34 11.32 2 12 C1.220761719 11.116347656 1.220761719 11.116347656 0.42578125 10.21484375 C-0.271601562 9.463320313 -0.968984375 8.711796875 -1.6875 7.9375 C-2.714238281 6.806347656 -2.714238281 6.806347656 -3.76171875 5.65234375 C-5.888294992 3.740161218 -5.888294992 3.740161218 -8.625 4 C-11.555314899 5.233816799 -12.077771129 6.181465969 -13.3125 9.0625 C-13.638632812 9.795976563 -13.964765625 10.529453125 -14.30078125 11.28515625 C-14.531523437 11.851054687 -14.762265625 12.416953125 -15 13 C-15.66 11.68 -16.32 10.36 -17 9 C-17.99 9 -18.98 9 -20 9 C-20.019819336 9.562836914 -20.039638672 10.125673828 -20.060058594 10.705566406 C-20.987318163 35.844034384 -20.987318163 35.844034384 -23 44 C-26.065331644 45.532665822 -29.267542719 45.102764709 -32.625 45.0625 C-33.33140625 45.057988281 -34.0378125 45.053476563 -34.765625 45.048828125 C-36.510452751 45.037038748 -38.255236997 45.019103245 -40 45 C-39.67 44.01 -39.34 43.02 -39 42 C-36.4375 40.8125 -36.4375 40.8125 -34 40 C-33.67 40.99 -33.34 41.98 -33 43 C-33 39.7 -33 36.4 -33 33 C-33.33 33 -33.66 33 -34 33 C-34 31.02 -34 29.04 -34 27 C-34.99 27 -35.98 27 -37 27 C-37.33 28.98 -37.66 30.96 -38 33 C-38.33 33 -38.66 33 -39 33 C-39.612057632 25.316490797 -40.132921994 17.70947565 -40 10 C-32.25 9.875 -32.25 9.875 -30 11 C-30.33 13.31 -30.66 15.62 -31 18 C-31.99 18 -32.98 18 -34 18 C-34.33 18.66 -34.66 19.32 -35 20 C-34.01 20 -33.02 20 -32 20 C-31.34 27.59 -30.68 35.18 -30 43 C-29.34 42.01 -28.68 41.02 -28 40 C-27.67 40.66 -27.34 41.32 -27 42 C-26.01 42.33 -25.02 42.66 -24 43 C-24.171445312 42.10796875 -24.342890625 41.2159375 -24.51953125 40.296875 C-25.325686778 34.629530296 -24.926902288 28.949742146 -24.6875 23.25 C-24.652050781 22.114335938 -24.616601562 20.978671875 -24.580078125 19.80859375 C-24.536894531 18.721914063 -24.493710937 17.635234375 -24.44921875 16.515625 C-24.411433105 15.528525391 -24.373647461 14.541425781 -24.334716797 13.524414062 C-24 11 -24 11 -22 8 C-21.34 7.67 -20.68 7.34 -20 7 C-19.773125 6.38125 -19.54625 5.7625 -19.3125 5.125 C-15.27483614 -1.412170058 -6.687033273 -0.326491679 0 0 Z " fill="#8E8C81" transform="translate(124,24)" />
<path d="M0 0 C0.66 0 1.32 0 2 0 C1.7834375 0.873984375 1.7834375 0.873984375 1.5625 1.765625 C-0.5862797 11.256068673 -1.974815771 22.138609409 3 31 C5.494171594 33.103568568 5.494171594 33.103568568 8 34 C7.67 35.32 7.34 36.64 7 38 C5.7625 38.12375 4.525 38.2475 3.25 38.375 C2.205859375 38.479414062 2.205859375 38.479414062 1.140625 38.5859375 C-1.661051145 37.819055344 -2.653055723 36.337510036 -4.116210938 33.8984375 C-5.767604934 30.351133712 -6.493871168 26.633429713 -7.25 22.8125 C-7.422734375 22.006191406 -7.59546875 21.199882812 -7.7734375 20.369140625 C-8.445799221 17.159413837 -9 14.291103006 -9 11 C-9.99 11.66 -10.98 12.32 -12 13 C-12.384112753 15.609620997 -12.602931973 18.005807403 -12.6875 20.625 C-12.721660156 21.33140625 -12.755820312 22.0378125 -12.791015625 22.765625 C-12.873513079 24.509856879 -12.938433351 26.254903949 -13 28 C-13.33 28 -13.66 28 -14 28 C-14.33 26.02 -14.66 24.04 -15 22 C-15.089122192 25.832254272 -14.87867729 29.265621519 -14 33 C-15.32 33 -16.64 33 -18 33 C-18 22.75 -18 22.75 -17 19 C-17.66 19 -18.32 19 -19 19 C-17.827449174 13.658379572 -15.415034251 11.123550814 -11.4609375 7.61328125 C-9.664378888 5.992125701 -9.664378888 5.992125701 -10 3 C-9.01 3.66 -8.02 4.32 -7 5 C-4.759289062 3.995543372 -3.122450147 3.122450147 -1.375 1.375 C-0.92125 0.92125 -0.4675 0.4675 0 0 Z " fill="#5C5A4F" transform="translate(67,71)" />
<path d="M0 0 C0.62109375 1.8046875 0.62109375 1.8046875 1 4 C-0.26660533 6.042911823 -1.598863844 8.046901116 -3 10 C-3 10.66 -3 11.32 -3 12 C-2.34 11.34 -1.68 10.68 -1 10 C1.317657289 9.280727048 3.650958736 8.609010698 6 8 C6 12 6 12 4.5 13.75 C4.005 14.1625 3.51 14.575 3 15 C3.99 15.33 4.98 15.66 6 16 C6.33 13.03 6.66 10.06 7 7 C9.353337957 11.706675913 9.17102038 13.869388598 9 19 C8.34 19.33 7.68 19.66 7 20 C7 20.66 7 21.32 7 22 C7.61875 22.226875 8.2375 22.45375 8.875 22.6875 C11.614102088 24.379298348 12.050244719 25.99244161 13 29 C11.68 29 10.36 29 9 29 C9 28.34 9 27.68 9 27 C8.34 27 7.68 27 7 27 C7 27.99 7 28.98 7 30 C2.089894935 29.366438056 -2.791984967 27.604174333 -7 25 C-8.33203125 23.05078125 -8.33203125 23.05078125 -9 21 C-8.505 19.515 -8.505 19.515 -8 18 C-8 16.68 -8 15.36 -8 14 C-6.607508008 11.215016016 -5.009876315 8.562334066 -3.4375 5.875 C-2.796835937 4.779296875 -2.156171875 3.68359375 -1.49609375 2.5546875 C-1.002382813 1.711640625 -0.508671875 0.86859375 0 0 Z " fill="#7B7A70" transform="translate(138,45)" />
<path d="M0 0 C1.666666667 0 3.333333333 0 5 0 C5.33 1.65 5.66 3.3 6 5 C4.68 4.67 3.36 4.34 2 4 C2.350625 5.258125 2.70125 6.51625 3.0625 7.8125 C3.936094851 10.947163876 4.072392972 11.782821084 3 15 C4.32 14.67 5.64 14.34 7 14 C6.67 11.36 6.34 8.72 6 6 C8.31 6.33 10.62 6.66 13 7 C11.982702745 9.305472478 10.938750334 11.59106546 9.875 13.875 C9.59140625 14.525976562 9.3078125 15.176953125 9.015625 15.84765625 C7.412181041 19.228831554 6.4845995 20.791414259 2.99609375 22.29296875 C2.007382812 22.526289062 1.018671875 22.759609375 0 23 C-2.068441768 24.125405412 -2.068441768 24.125405412 -3.8125 25.4375 C-4.396445312 25.848710938 -4.980390625 26.259921875 -5.58203125 26.68359375 C-7.284279569 28.052665178 -7.284279569 28.052665178 -8 31 C-8.33 31.33 -8.66 31.66 -9 32 C-8.01 32 -7.02 32 -6 32 C-6.887760019 35.699000079 -7.945818636 39.345504606 -9 43 C-10.32 43 -11.64 43 -13 43 C-13 40.666666667 -13 38.333333333 -13 36 C-13.99 35.67 -14.98 35.34 -16 35 C-16.054440011 31.999750531 -16.093883604 29.00050961 -16.125 26 C-16.141757813 25.160820313 -16.158515625 24.321640625 -16.17578125 23.45703125 C-16.218491173 17.947451227 -15.555020068 13.289517083 -14 8 C-13.67 8 -13.34 8 -13 8 C-13 9.65 -13 11.3 -13 13 C-12.34 13.33 -11.68 13.66 -11 14 C-11.99 15.32 -12.98 16.64 -14 18 C-13.67 18.33 -13.34 18.66 -13 19 C-12.34 18.67 -11.68 18.34 -11 18 C-11.350625 18.61875 -11.70125 19.2375 -12.0625 19.875 C-12.371875 20.57625 -12.68125 21.2775 -13 22 C-12.67 22.66 -12.34 23.32 -12 24 C-12 24.66 -12 25.32 -12 26 C-11.01 26.33 -10.02 26.66 -9 27 C-8.67 26.01 -8.34 25.02 -8 24 C-7.401875 23.855625 -6.80375 23.71125 -6.1875 23.5625 C-3.272674226 22.812973372 -2.059582482 21.128235231 0 19 C0.66 19 1.32 19 2 19 C1.855625 18.466328125 1.71125 17.93265625 1.5625 17.3828125 C0.096315885 11.497712373 -0.227344969 6.049902239 0 0 Z " fill="#33332A" transform="translate(126,37)" />
<path d="M0 0 C2.64 0 5.28 0 8 0 C9.763723603 6.655560767 11.340349614 13.139635985 12 20 C12.257069715 14.087396547 11.298212599 8.760818409 10 3 C12 4 12 4 13.125 6.75 C15.723973791 16.999178902 13.882597305 26.380171857 10 36 C9.34 36 8.68 36 8 36 C8.495 31.545 8.495 31.545 9 27 C8.34 27 7.68 27 7 27 C6.34 28.32 5.68 29.64 5 31 C0.737098211 30.526344246 -1.215489578 28.077616782 -4 25 C-4.66 24.01 -5.32 23.02 -6 22 C-5.67 21.34 -5.34 20.68 -5 20 C-4.4225 20.33 -3.845 20.66 -3.25 21 C-0.801161376 22.270758977 -0.801161376 22.270758977 3 22 C2.67 21.01 2.34 20.02 2 19 C1.34 19 0.68 19 0 19 C0 17.68 0 16.36 0 15 C-0.66 15 -1.32 15 -2 15 C-2.99 11.37 -3.98 7.74 -5 4 C0.977408665 9.635842455 5.176636007 14.877742214 7 23 C7.33 21.02 7.66 19.04 8 17 C8.33 17 8.66 17 9 17 C9 16.34 9 15.68 9 15 C8.34 14.34 7.68 13.68 7 13 C6.3671875 10.1796875 6.3671875 10.1796875 5.875 6.875 C5.707421875 5.779296875 5.53984375 4.68359375 5.3671875 3.5546875 C5.246015625 2.711640625 5.12484375 1.86859375 5 1 C3.35 1 1.7 1 0 1 C0 0.67 0 0.34 0 0 Z " fill="#8B897E" transform="translate(66,31)" />
<path d="M0 0 C0.99 0 1.98 0 3 0 C4.437239967 5.646299871 5.761233549 11.306945673 7 17 C6.34 17 5.68 17 5 17 C4.67 15.68 4.34 14.36 4 13 C3.67 14.98 3.34 16.96 3 19 C2.319375 18.01 2.319375 18.01 1.625 17 C1.08875 16.34 0.5525 15.68 0 15 C-0.66 15 -1.32 15 -2 15 C-2.265546875 16.143398437 -2.53109375 17.286796875 -2.8046875 18.46484375 C-3.161024532 19.955832909 -3.517819037 21.446712788 -3.875 22.9375 C-4.049023437 23.692246094 -4.223046875 24.446992188 -4.40234375 25.224609375 C-4.872440648 27.165935454 -5.430429697 29.08549544 -6 31 C-6.66 31.33 -7.32 31.66 -8 32 C-7.67 27.05 -7.34 22.1 -7 17 C-8.99390001 20.98780002 -9.226869626 22.471475721 -9.125 26.75 C-9.106953125 27.73484375 -9.08890625 28.7196875 -9.0703125 29.734375 C-9.047109375 30.48203125 -9.02390625 31.2296875 -9 32 C-9.66 32 -10.32 32 -11 32 C-11.33 34.64 -11.66 37.28 -12 40 C-9.983776699 39.284367341 -9.983776699 39.284367341 -8 38 C-7.194711105 35.949991291 -7.194711105 35.949991291 -7 34 C-6.67 35.98 -6.34 37.96 -6 40 C-10.430769231 42.092307692 -10.430769231 42.092307692 -13.3125 41.625 C-13.869375 41.41875 -14.42625 41.2125 -15 41 C-14.34 41 -13.68 41 -13 41 C-13.034804687 40.195625 -13.034804687 40.195625 -13.0703125 39.375 C-13.259907871 31.141143867 -12.093075665 23.135486816 -11 15 C-10.647929976 12.001601446 -10.321625494 9.001837945 -10 6 C-9.34 6 -8.68 6 -8 6 C-7.67 5.01 -7.34 4.02 -7 3 C-6.34 3.33 -5.68 3.66 -5 4 C-5 5.32 -5 6.64 -5 8 C-4.360625 6.865625 -3.72125 5.73125 -3.0625 4.5625 C-1.125 1.125 -1.125 1.125 0 0 Z " fill="#3A3A2E" transform="translate(114,27)" />
<path d="M0 0 C1.98 1.65 3.96 3.3 6 5 C6.66 4.34 7.32 3.68 8 3 C9.5 4.375 9.5 4.375 11 6 C11 6.66 11 7.32 11 8 C14.741673184 12.319586791 14.741673184 12.319586791 20 14 C20.66 13.01 21.32 12.02 22 11 C22.66 11 23.32 11 24 11 C23.67 13.97 23.34 16.94 23 20 C22.67 19.01 22.34 18.02 22 17 C21.34 17.33 20.68 17.66 20 18 C20.226875 18.70125 20.45375 19.4025 20.6875 20.125 C21.095326386 23.877002747 19.863772925 25.794310569 18 29 C17.67 28.01 17.34 27.02 17 26 C17.33 25.34 17.66 24.68 18 24 C15.03 26.31 12.06 28.62 9 31 C8.01 30.01 7.02 29.02 6 28 C5.34 27.67 4.68 27.34 4 27 C4 25.35 4 23.7 4 22 C4.99 22.33 5.98 22.66 7 23 C7 23.66 7 24.32 7 25 C8.32 25 9.64 25 11 25 C11.66 24.01 12.32 23.02 13 22 C12.4225 21.601679687 11.845 21.203359375 11.25 20.79296875 C10.13625 19.998261719 10.13625 19.998261719 9 19.1875 C8.2575 18.665429687 7.515 18.143359375 6.75 17.60546875 C6.1725 17.075664062 5.595 16.545859375 5 16 C5 15.01 5 14.02 5 13 C7.586994938 14.149775528 9.383883793 15.327705677 11.5625 17.1875 C12.366875 17.785625 13.17125 18.38375 14 19 C14.99 18.67 15.98 18.34 17 18 C15.957792969 17.182089844 15.957792969 17.182089844 14.89453125 16.34765625 C11.744179162 13.792512384 8.701255713 11.150978716 5.6875 8.4375 C5.137714844 7.956035156 4.587929688 7.474570312 4.021484375 6.978515625 C2.622058348 5.714686157 1.303920017 4.3621493 0 3 C0 2.01 0 1.02 0 0 Z " fill="#313027" transform="translate(51,47)" />
<path d="M0 0 C0.66 0 1.32 0 2 0 C2.265546875 1.085390625 2.53109375 2.17078125 2.8046875 3.2890625 C3.161330817 4.734406471 3.518108805 6.179717216 3.875 7.625 C4.049023437 8.337851562 4.223046875 9.050703125 4.40234375 9.78515625 C5.4287724 13.928886727 6.592513823 17.965206293 8 22 C9 25 9 25 10 28 C7.335794843 28 5.477393542 27.908377632 3 27 C2.67 26.01 2.34 25.02 2 24 C-0.000164663 22.791179036 -0.000164663 22.791179036 -2 22 C-2.057903533 18.708406839 -2.093562609 15.416943968 -2.125 12.125 C-2.141757813 11.187851563 -2.158515625 10.250703125 -2.17578125 9.28515625 C-2.185449219 7.941308594 -2.185449219 7.941308594 -2.1953125 6.5703125 C-2.205786133 5.742895508 -2.216259766 4.915478516 -2.227050781 4.062988281 C-2 2 -2 2 0 0 Z " fill="#EDEAE0" transform="translate(56,82)" />
<path d="M0 0 C0.99 0 1.98 0 3 0 C3 4.95 3 9.9 3 15 C3.33 15 3.66 15 4 15 C4.33 18.96 4.66 22.92 5 27 C5.33 27 5.66 27 6 27 C6 29.31 6 31.62 6 34 C5.38125 33.79375 4.7625 33.5875 4.125 33.375 C3.073125 33.189375 3.073125 33.189375 2 33 C1.34 33.66 0.68 34.32 0 35 C-1.683006685 33.316993315 -1.22809077 31.17991273 -1.31640625 28.87109375 C-1.358300781 27.836621094 -1.400195313 26.802148438 -1.443359375 25.736328125 C-1.482675781 24.647714844 -1.521992188 23.559101563 -1.5625 22.4375 C-1.605683594 21.345019531 -1.648867188 20.252539062 -1.693359375 19.126953125 C-1.79982068 16.418104363 -1.901835164 13.709160076 -2 11 C-2.99 11 -3.98 11 -5 11 C-4.67 9.35 -4.34 7.7 -4 6 C-3.67 6.99 -3.34 7.98 -3 9 C-2.34 9 -1.68 9 -1 9 C-1.020625 7.700625 -1.04125 6.40125 -1.0625 5.0625 C-1.083994545 3.708343667 -1.071481986 2.352439172 -1 1 C-0.67 0.67 -0.34 0.34 0 0 Z " fill="#545247" transform="translate(94,33)" />
<path d="M0 0 C1.299375 0.2475 1.299375 0.2475 2.625 0.5 C5.938274785 1.109690527 5.938274785 1.109690527 9.0625 0.8125 C12.86140559 1.054983336 14.312155871 2.388951418 17 5 C18.485207246 7.970414491 18.170582195 10.697644473 18.1875 14 C18.201679687 15.258125 18.215859375 16.51625 18.23046875 17.8125 C18 21 18 21 16 23 C16 22.01 16 21.02 16 20 C15.34 20 14.68 20 14 20 C13.67 20.99 13.34 21.98 13 23 C13.33 21.35 13.66 19.7 14 18 C14.99 17.67 15.98 17.34 17 17 C16.67 16.01 16.34 15.02 16 14 C11.584778914 15.269749718 11.584778914 15.269749718 8 18 C7.67 17.01 7.34 16.02 7 15 C8.313064329 12.986634696 9.648374923 10.987683936 11 9 C11.782155878 6.271749596 11.782155878 6.271749596 12 4 C10.35 4.33 8.7 4.66 7 5 C7 4.34 7 3.68 7 3 C6.34 3 5.68 3 5 3 C5.33 3.66 5.66 4.32 6 5 C6.039992002 6.99960012 6.043467991 9.000472422 6 11 C4.68 11.33 3.36 11.66 2 12 C1.855625 10.948125 1.71125 9.89625 1.5625 8.8125 C1.124730338 5.845394514 0.621951344 2.932056338 0 0 Z " fill="#6C6C64" transform="translate(127,40)" />
<path d="M0 0 C0 3 0 3 -1 5 C-0.34 5.33 0.32 5.66 1 6 C1 6.33 1 6.66 1 7 C1.99 7 2.98 7 4 7 C4.23828125 9.3046875 4.23828125 9.3046875 4 12 C2.35546875 13.6953125 2.35546875 13.6953125 0.1875 15.125 C-2.8886887 17.190956782 -2.8886887 17.190956782 -5.59375 19.69921875 C-6.0578125 20.128476562 -6.521875 20.557734375 -7 21 C-9.6875 20.6875 -9.6875 20.6875 -12 20 C-12 16 -12 16 -11 13 C-11.99 13.495 -11.99 13.495 -13 14 C-12.614029854 11.201716441 -12.198634267 10.179411596 -10.0625 8.25 C-8 7 -8 7 -6 7 C-6 6.34 -6 5.68 -6 5 C-4.040729371 3.2856382 -2.041197882 1.615948323 0 0 Z " fill="#5D5D51" transform="translate(124,44)" />
<path d="M0 0 C0.33 0 0.66 0 1 0 C1 2.97 1 5.94 1 9 C1.66 9 2.32 9 3 9 C5 11 5 11 5.1953125 14.4765625 C5.182014931 15.859509679 5.158162316 17.242386537 5.125 18.625 C5.115976562 19.33140625 5.106953125 20.0378125 5.09765625 20.765625 C5.074076034 22.510560979 5.038204607 24.255322951 5 26 C4.34 25.67 3.68 25.34 3 25 C3 24.01 3 23.02 3 22 C2.34 22 1.68 22 1 22 C0.8453125 22.9590625 0.8453125 22.9590625 0.6875 23.9375 C0.460625 24.618125 0.23375 25.29875 0 26 C-0.99 26.33 -1.98 26.66 -3 27 C1.95 27 6.9 27 12 27 C12 27.33 12 27.66 12 28 C8.224575227 28.872325502 4.685193023 29.163446006 0.8125 29.1875 C-0.232929688 29.201679688 -1.278359375 29.215859375 -2.35546875 29.23046875 C-5 29 -5 29 -7 27 C-6.01 27 -5.02 27 -4 27 C-4.011601563 26.203359375 -4.023203125 25.40671875 -4.03515625 24.5859375 C-4.124780316 14.061511424 -4.124780316 14.061511424 -3 9 C-2.34 9 -1.68 9 -1 9 C-0.67 6.03 -0.34 3.06 0 0 Z " fill="#413E34" transform="translate(87,42)" />
<path d="M0 0 C0.33 0 0.66 0 1 0 C5.085473834 16.018750514 5.085473834 16.018750514 3 24 C2.34 24.99 1.68 25.98 1 27 C-0.875 26.4375 -0.875 26.4375 -3 25 C-5.407599722 19.135721053 -4.819819273 15.136080497 -3.1875 9.125 C-2.996074219 8.354140625 -2.804648437 7.58328125 -2.607421875 6.7890625 C-1.180628321 1.180628321 -1.180628321 1.180628321 0 0 Z " fill="#E7E5DD" transform="translate(48,51)" />
<path d="M0 0 C0.33 0 0.66 0 1 0 C1 1.65 1 3.3 1 5 C1.66 5.33 2.32 5.66 3 6 C2.01 7.32 1.02 8.64 0 10 C0.33 10.33 0.66 10.66 1 11 C1.66 10.67 2.32 10.34 3 10 C2.649375 10.61875 2.29875 11.2375 1.9375 11.875 C1.628125 12.57625 1.31875 13.2775 1 14 C1.33 14.66 1.66 15.32 2 16 C2 16.66 2 17.32 2 18 C2.66 18.33 3.32 18.66 4 19 C3.67 19.66 3.34 20.32 3 21 C3.66 21.33 4.32 21.66 5 22 C4.34 22.66 3.68 23.32 3 24 C4.65 24 6.3 24 8 24 C7.112239981 27.699000079 6.054181364 31.345504606 5 35 C3.68 35 2.36 35 1 35 C1 32.666666667 1 30.333333333 1 28 C0.01 27.67 -0.98 27.34 -2 27 C-2.054440011 23.999750531 -2.093883604 21.00050961 -2.125 18 C-2.141757813 17.160820313 -2.158515625 16.321640625 -2.17578125 15.45703125 C-2.218491173 9.947451227 -1.555020068 5.289517083 0 0 Z " fill="#434237" transform="translate(112,45)" />
<path d="M0 0 C1.98 0.66 3.96 1.32 6 2 C5.01 3.485 5.01 3.485 4 5 C4 5.66 4 6.32 4 7 C4.66 7 5.32 7 6 7 C5.979375 7.928125 5.95875 8.85625 5.9375 9.8125 C5.842303963 13.022860114 5.842303963 13.022860114 7 16 C7.080585816 17.446038809 7.107619855 18.895501735 7.09765625 20.34375 C7.094433594 21.177773438 7.091210937 22.011796875 7.087890625 22.87109375 C7.079511719 23.738632813 7.071132812 24.606171875 7.0625 25.5 C7.057988281 26.367539063 7.053476563 27.235078125 7.048828125 28.12890625 C7.040111437 29.740248251 7.029342196 31.351581374 7.015869141 32.962890625 C7.00278973 34.641884472 7 36.320955209 7 38 C5.35 36.35 3.7 34.7 2 33 C2.66 32.34 3.32 31.68 4 31 C4.655632625 24.837053323 3.530195305 18.657797834 1 13 C-0.706694105 11.340714065 -2.357739801 10.242931507 -4.4140625 9.05859375 C-6.733298966 7.510531971 -7.323385249 5.631279588 -8 3 C-7.38125 3.350625 -6.7625 3.70125 -6.125 4.0625 C-5.073125 4.5265625 -5.073125 4.5265625 -4 5 C-3.34 4.67 -2.68 4.34 -2 4 C-1.01 5.485 -1.01 5.485 0 7 C1.044499108 3.866502676 0.934236446 3.010317436 0 0 Z " fill="#3B3932" transform="translate(142,32)" />
<path d="M0 0 C0.33 0.99 0.66 1.98 1 3 C0.34 3 -0.32 3 -1 3 C-1.380917969 4.649355469 -1.380917969 4.649355469 -1.76953125 6.33203125 C-2.661415378 10.176239193 -3.569200896 14.016464603 -4.487304688 17.854492188 C-4.914975198 19.644191447 -5.337085171 21.435218306 -5.7578125 23.2265625 C-8.15333235 32.781107187 -11.508154924 40.282485144 -18.9375 46.91796875 C-21.653006645 48.342581138 -23.128354728 47.862490681 -26 47 C-25.67 45.68 -25.34 44.36 -25 43 C-24.278125 42.87625 -23.55625 42.7525 -22.8125 42.625 C-21.884375 42.41875 -20.95625 42.2125 -20 42 C-19.154375 41.814375 -18.30875 41.62875 -17.4375 41.4375 C-13.143593343 38.905196074 -11.575181649 34.053722015 -10.275146484 29.411865234 C-9.639782103 26.615008774 -9.05584478 23.813724609 -8.5 21 C-5.422750424 5.422750424 -5.422750424 5.422750424 0 0 Z " fill="#2B2822" transform="translate(51,40)" />
<path d="M0 0 C7.75 -0.125 7.75 -0.125 10 1 C9.67 3.31 9.34 5.62 9 8 C8.01 8 7.02 8 6 8 C5.67 8.66 5.34 9.32 5 10 C5.99 10.33 6.98 10.66 8 11 C7.67 12.98 7.34 14.96 7 17 C5.68 17 4.36 17 3 17 C2.67 18.98 2.34 20.96 2 23 C1.67 23 1.34 23 1 23 C0.387942368 15.316490797 -0.132921994 7.70947565 0 0 Z " fill="#7A786C" transform="translate(84,34)" />
<path d="M0 0 C2.64 0 5.28 0 8 0 C9.763723603 6.655560767 11.340349614 13.139635985 12 20 C12.257069715 14.087396547 11.298212599 8.760818409 10 3 C12 4 12 4 13.125 6.75 C15.723973791 16.999178902 13.882597305 26.380171857 10 36 C9.34 36 8.68 36 8 36 C8.155976563 34.986796875 8.311953125 33.97359375 8.47265625 32.9296875 C8.669748959 31.57819464 8.866336749 30.226628079 9.0625 28.875 C9.166269531 28.20984375 9.270039063 27.5446875 9.376953125 26.859375 C9.972968058 22.666718231 10.067198481 19.110238721 9 15 C8.34 14.34 7.68 13.68 7 13 C6.3671875 10.1796875 6.3671875 10.1796875 5.875 6.875 C5.707421875 5.779296875 5.53984375 4.68359375 5.3671875 3.5546875 C5.246015625 2.711640625 5.12484375 1.86859375 5 1 C3.35 1 1.7 1 0 1 C0 0.67 0 0.34 0 0 Z " fill="#959487" transform="translate(66,31)" />
<path d="M0 0 C0 2.621137084 -0.312924447 4.509351119 -1 7 C-0.01 6.67 0.98 6.34 2 6 C2.042417232 8.332947754 2.040929374 10.667025669 2 13 C1.67 13.33 1.34 13.66 1 14 C1.009061502 17.076380037 1.133250585 20.141095314 1.2578125 23.21484375 C1.172734375 24.133945313 1.08765625 25.053046875 1 26 C0.01 26.66 -0.98 27.32 -2 28 C-4.009251644 21.617671249 -3.999895494 16.593905421 -3 10 C-4.98 10 -6.96 10 -9 10 C-6.642208735 6.649454518 -3.93208006 3.854920059 -1 1 C-0.67 0.67 -0.34 0.34 0 0 Z " fill="#6F6D62" transform="translate(124,60)" />
<path d="M0 0 C0.99 0.33 1.98 0.66 3 1 C2.716844402 3.084507167 2.423143308 5.167583665 2.125 7.25 C1.962578125 8.41015625 1.80015625 9.5703125 1.6328125 10.765625 C1 14 1 14 -0.0625 16.0625 C-1.33750825 18.69751705 -1.194218542 20.842821251 -1.125 23.75 C-1.106953125 24.73484375 -1.08890625 25.7196875 -1.0703125 26.734375 C-1.047109375 27.48203125 -1.02390625 28.2296875 -1 29 C-1.66 29 -2.32 29 -3 29 C-3.33 31.64 -3.66 34.28 -4 37 C-1.983776699 36.284367341 -1.983776699 36.284367341 0 35 C0.805288895 32.949991291 0.805288895 32.949991291 1 31 C1.33 32.98 1.66 34.96 2 37 C-2.430769231 39.092307692 -2.430769231 39.092307692 -5.3125 38.625 C-5.869375 38.41875 -6.42625 38.2125 -7 38 C-6.34 38 -5.68 38 -5 38 C-5.034804687 37.195625 -5.034804687 37.195625 -5.0703125 36.375 C-5.259907871 28.141143867 -4.093075665 20.135486816 -3 12 C-2.647929976 9.001601446 -2.321625494 6.001837945 -2 3 C-1.34 3 -0.68 3 0 3 C0 2.01 0 1.02 0 0 Z " fill="#343328" transform="translate(106,30)" />
<path d="M0 0 C2.353337957 4.706675913 2.17102038 6.869388598 2 12 C1.236875 12.2475 0.47375 12.495 -0.3125 12.75 C-3.105958839 13.787405702 -3.105958839 13.787405702 -4.5625 16.125 C-5.036875 16.74375 -5.51125 17.3625 -6 18 C-7.32 18 -8.64 18 -10 18 C-10 15.36 -10 12.72 -10 10 C-9.67 10 -9.34 10 -9 10 C-8.79375 9.071875 -8.5875 8.14375 -8.375 7.1875 C-7 4 -7 4 -3.875 2.125 C-2.92625 1.75375 -1.9775 1.3825 -1 1 C-1 5 -1 5 -2.5 6.75 C-2.995 7.1625 -3.49 7.575 -4 8 C-3.01 8.33 -2.02 8.66 -1 9 C-0.67 6.03 -0.34 3.06 0 0 Z " fill="#C4C3BA" transform="translate(145,52)" />
</svg>