<?xml version='1.0' encoding='utf-8'?>
<svg xmlns="http://www.w3.org/2000/svg" version="1.1" width="159" height="153" viewBox="37.0 0 159.643980181 153.0">
<path d="M0 0 C0.33 0 0.66 0 1 0 C1.33 11.88 1.66 23.76 2 36 C2.66 36 3.32 36 4 36 C4.2475 35.278125 4.495 34.55625 4.75 33.8125 C6 31 6 31 7.9375 28.75 C13.407988484 21.456015355 13.604021621 12.834414178 14 4 C14.66 4 15.32 4 16 4 C18.643980181 11.270945497 19.44574063 19.254217458 16.625 26.5625 C15.416666667 28.375 14.208333333 30.1875 13 32 C13.99 32.33 14.98 32.66 16 33 C15.012166255 35.203629124 14.276756777 36.76618824 12.4140625 38.33984375 C10.781484892 39.921387363 10.781484892 39.921387363 10.85546875 42.234375 C10.965039063 43.06453125 11.074609375 43.8946875 11.1875 44.75 C11.302226563 45.635585937 11.416953125 46.521171875 11.53515625 47.43359375 C11.995049573 50.234974802 11.995049573 50.234974802 13.125 53.8125 C14.025600582 57.093259262 14.035553139 58.799199389 13 62 C12 63 12 63 8.875 63.25 C4.461444361 62.965254475 1.929678768 61.924740621 -2 60 C-2.268125 60.845625 -2.53625 61.69125 -2.8125 62.5625 C-4.047859505 66.138540672 -5.476987996 69.538609083 -7 73 C-8.212118016 69.363645953 -7.677849901 68.714477573 -6.0625 65.375 C-4.629154576 62.797515617 -4.629154576 62.797515617 -4 60 C-4.99 60 -5.98 60 -7 60 C-7.99 62.475 -7.99 62.475 -9 65 C-9.66 65 -10.32 65 -11 65 C-12.55078125 63.171875 -12.55078125 63.171875 -14.3125 60.75 C-16.921916593 57.283515614 -19.408819896 54.502943709 -23 52 C-23 52.66 -23 53.32 -23 54 C-26.63 53.67 -30.26 53.34 -34 53 C-32 51 -32 51 -28.3125 50.75 C-23.165580397 50.245583197 -20.574251634 47.492398543 -17 44 C-13.3 41 -13.3 41 -11 41 C-11.495 40.1646875 -11.495 40.1646875 -12 39.3125 C-13.130960096 36.697154777 -13.156629745 34.819335402 -13 32 C-10.614359231 32.575844324 -8.333172159 33.222275947 -6 34 C-6.33 33.113125 -6.66 32.22625 -7 31.3125 C-7.912221426 28.290766527 -8.183309585 26.116262938 -8 23 C-6.382744664 26.009501234 -5.324173767 28.971036076 -4.375 32.25 C-4.114609375 33.14203125 -3.85421875 34.0340625 -3.5859375 34.953125 C-3.392578125 35.62859375 -3.19921875 36.3040625 -3 37 C-2.822002336 33.999072929 -2.822002336 33.999072929 -4 31.375 C-5.249769389 27.157028311 -5.174498607 23.362465181 -5 19 C-5.33 19.99 -5.66 20.98 -6 22 C-6.33 22 -6.66 22 -7 22 C-6.602932331 15.249849631 -4.926154003 4.926154003 0 0 Z " fill="#3A3832" transform="translate(168,10)" />
<path d="M0 0 C5.415336283 2.342101962 9.290765449 6.505544425 13 11 C15.256740058 17.176341212 13.695515588 24.738998534 12 31 C9.5625 33.9375 9.5625 33.9375 7 36 C3.327799073 41.318359963 3.179874348 46.749779239 4 53 C4.868636009 55.541982434 5.885291997 57.842244703 7.125 60.22265625 C8 62 8 62 8 64 C8.78375 64.309375 9.5675 64.61875 10.375 64.9375 C13 66 13 66 15 67 C15 67.99 15 68.98 15 70 C12.043354807 71.478322596 9.25770263 71.060327826 6 71 C5.67 70.01 5.34 69.02 5 68 C4.2575 67.278125 3.515 66.55625 2.75 65.8125 C-0.489882229 62.498984083 -2.641594191 58.955501673 -5 55 C-5.66 54.01 -6.32 53.02 -7 52 C-7.4140625 49.73828125 -7.4140625 49.73828125 -7.625 47.3125 C-7.699765625 46.504257813 -7.77453125 45.696015625 -7.8515625 44.86328125 C-7.900546875 44.248398438 -7.94953125 43.633515625 -8 43 C-12.630112252 46.62356611 -15.265115947 48.839998571 -16.625 54.6875 C-17.367358495 60.845846628 -17.367358495 60.845846628 -17 67 C-16.031286292 68.030336718 -15.033868275 69.035056276 -14 70 C-14.3125 72.1875 -14.3125 72.1875 -15 74 C-16.98 74 -18.96 74 -21 74 C-24.843416609 68.234875087 -24.317421555 62.739103779 -24 56 C-23.980664062 54.93265625 -23.961328125 53.8653125 -23.94140625 52.765625 C-23.663779451 46.001626635 -22.857840993 42.736394968 -18 38 C-16.982978834 34.948936501 -16.834179168 32.758009387 -16.8125 29.5625 C-16.791230469 28.141308594 -16.791230469 28.141308594 -16.76953125 26.69140625 C-17.003854818 23.954983562 -17.602986174 22.335718769 -19 20 C-19.268125 20.507890625 -19.53625 21.01578125 -19.8125 21.5390625 C-23.414796943 27.866781472 -27.964570189 32.65485673 -35 35 C-41.540983607 35.229508197 -41.540983607 35.229508197 -44 34 C-44 33.01 -44 32.02 -44 31 C-43.275546875 30.97421875 -42.55109375 30.9484375 -41.8046875 30.921875 C-33.647506368 30.453639049 -33.647506368 30.453639049 -27 26 C-25.075677068 22.769502564 -23.519514626 19.435424372 -22 16 C-21.340569758 14.663072935 -20.676488343 13.328377109 -20 12 C-19.01 12.33 -18.02 12.66 -17 13 C-17 13.66 -17 14.32 -17 15 C-16.34 15.33 -15.68 15.66 -15 16 C-15.2475 16.928125 -15.2475 16.928125 -15.5 17.875 C-16.076346445 19.960633865 -16.076346445 19.960633865 -16 22 C-15.01 22.33 -14.02 22.66 -13 23 C-13.66 23 -14.32 23 -15 23 C-15 23.99 -15 24.98 -15 26 C-12.69 26 -10.38 26 -8 26 C-8 26.66 -8 27.32 -8 28 C-7.01 28.33 -6.02 28.66 -5 29 C-6.65 29 -8.3 29 -10 29 C-10 28.34 -10 27.68 -10 27 C-10.99 27 -11.98 27 -13 27 C-13 27.66 -13 28.32 -13 29 C-12.34 29.33 -11.68 29.66 -11 30 C-11.99 30 -12.98 30 -14 30 C-14.33 32.64 -14.66 35.28 -15 38 C-13.02 38.33 -11.04 38.66 -9 39 C-9.33 38.01 -9.66 37.02 -10 36 C-9.44828125 36.163710937 -8.8965625 36.327421875 -8.328125 36.49609375 C-5.73385993 37.057604143 -3.401645894 37.097390078 -0.75 37.0625 C0.8175 37.041875 2.385 37.02125 4 37 C-0.95 36.34 -5.9 35.68 -11 35 C-11.33 34.01 -11.66 33.02 -12 32 C-11.203359375 32.144375 -10.40671875 32.28875 -9.5859375 32.4375 C-7.996523438 32.7159375 -7.996523438 32.7159375 -6.375 33 C-5.330859375 33.185625 -4.28671875 33.37125 -3.2109375 33.5625 C-0.069968711 33.99046655 2.835872597 34.190664779 6 34 C8.097641647 32.481051941 8.097641647 32.481051941 9 30 C9.115042415 27.036715967 9.115042415 27.036715967 8 24 C5.77512126 22.233097627 3.893149651 20.955035744 1.4375 19.625 C0.821972656 19.270507812 0.206445312 18.916015625 -0.427734375 18.55078125 C-1.941562201 17.682383892 -3.469510029 16.83868296 -5 16 C-5 17.32 -5 18.64 -5 20 C-5.66 20 -6.32 20 -7 20 C-7 20.66 -7 21.32 -7 22 C-8.32 21.67 -9.64 21.34 -11 21 C-10.67 20.34 -10.34 19.68 -10 19 C-9.34 19 -8.68 19 -8 19 C-8.495 15.535 -8.495 15.535 -9 12 C-5.981169388 12.609011195 -3.86780915 13.555543769 -1.328125 15.28515625 C-0.664257812 15.733105469 -0.000390625 16.181054687 0.68359375 16.642578125 C1.706464844 17.345439453 1.706464844 17.345439453 2.75 18.0625 C3.447382812 18.534941406 4.144765625 19.007382812 4.86328125 19.494140625 C6.579049928 20.657572811 8.290003979 21.828099742 10 23 C10.66 20.03 11.32 17.06 12 14 C11.278125 13.731875 10.55625 13.46375 9.8125 13.1875 C6.945258759 11.976887031 4.494114851 10.870586139 2 9 C1.21733851 6.531606071 1 4.571746345 1 2 C0.505 1.01 0.505 1.01 0 0 Z " fill="#5D5B50" transform="translate(91,69)" />
<path d="M0 0 C3.614771748 1.498013517 5.686204627 3.575374167 8.25 6.5 C8.95640625 7.2940625 9.6628125 8.088125 10.390625 8.90625 C12 11 12 11 12 13 C12.66 13 13.32 13 14 13 C14.28875 12.195625 14.5775 11.39125 14.875 10.5625 C16 8 16 8 18 7 C17.505 6.01 17.505 6.01 17 5 C17.99 5.33 18.98 5.66 20 6 C19.371835024 9.949497036 18.135447095 13.198920284 16.4375 16.8125 C15.982460938 17.788320313 15.527421875 18.764140625 15.05859375 19.76953125 C14.534589844 20.873613281 14.534589844 20.873613281 14 22 C13.67 22 13.34 22 13 22 C12.34 19.36 11.68 16.72 11 14 C10.67 14 10.34 14 10 14 C10.33 14.825 10.66 15.65 11 16.5 C12.346767044 21.213684654 13.085510558 25.503325716 11.1015625 30.06640625 C10.140012671 31.754233077 9.077509589 33.383735617 8 35 C7.67 35 7.34 35 7 35 C7 31.7 7 28.4 7 25 C5.776393202 24.925464401 5.776393202 24.925464401 4 26 C4.66 26.66 5.32 27.32 6 28 C2.37 28 -1.26 28 -5 28 C-5 25.03 -5 22.06 -5 19 C-5.121171875 20.048007813 -5.24234375 21.096015625 -5.3671875 22.17578125 C-5.536039452 23.554738856 -5.705333407 24.93364239 -5.875 26.3125 C-5.992949219 27.347939453 -5.992949219 27.347939453 -6.11328125 28.404296875 C-6.559438466 31.956394707 -6.979801934 33.969702902 -9 37 C-12.42362163 39.432573263 -13.678494374 40 -18 40 C-17.916210937 39.305195312 -17.832421875 38.610390625 -17.74609375 37.89453125 C-16.676381493 27.210949338 -17.331203367 16.693163397 -18 6 C-17.01 6.495 -17.01 6.495 -16 7 C-15.65625 9.80078125 -15.65625 9.80078125 -15.5 13.3125 C-15.316668857 17.405367778 -15.163046104 20.46760616 -13 24 C-12.67 22.35 -12.34 20.7 -12 19 C-12.66 18.67 -13.32 18.34 -14 18 C-14.4140625 14.83984375 -14.4140625 14.83984375 -14.625 10.9375 C-14.699765625 9.647148437 -14.77453125 8.356796875 -14.8515625 7.02734375 C-14.900546875 6.028320312 -14.94953125 5.029296875 -15 4 C-13.68 3.34 -12.36 2.68 -11 2 C-11.33 5.96 -11.66 9.92 -12 14 C-11.731875 13.030625 -11.46375 12.06125 -11.1875 11.0625 C-10.795625 10.051875 -10.40375 9.04125 -10 8 C-9.01 7.67 -8.02 7.34 -7 7 C-7.33 8.98 -7.66 10.96 -8 13 C-3.514743524 12.343621004 0.669140289 11.299257913 5 10 C4.372401348 7.07120629 3.413773414 4.639043707 2 2 C1.34 2 0.68 2 0 2 C0 1.34 0 0.68 0 0 Z " fill="#A9A79F" transform="translate(145,62)" />
<path d="M0 0 C0.66 0.66 1.32 1.32 2 2 C2.99 2 3.98 2 5 2 C4.67 2.99 4.34 3.98 4 5 C2.35 5 0.7 5 -1 5 C-0.584277344 5.8353125 -0.584277344 5.8353125 -0.16015625 6.6875 C2.313162361 11.898192589 3.581612039 16.247165532 4 22 C0.25 25 0.25 25 -2 25 C-2 25.66 -2 26.32 -2 27 C-4.31 27 -6.62 27 -9 27 C-9.268125 27.845625 -9.53625 28.69125 -9.8125 29.5625 C-11.047859505 33.138540672 -12.476987996 36.538609083 -14 40 C-15.212118016 36.363645953 -14.677849901 35.714477573 -13.0625 32.375 C-11.629154576 29.797515617 -11.629154576 29.797515617 -11 27 C-11.99 27 -12.98 27 -14 27 C-14.99 29.475 -14.99 29.475 -16 32 C-16.66 32 -17.32 32 -18 32 C-22.551911214 27.068762852 -25 21.743289488 -25 15 C-24.34 15 -23.68 15 -23 15 C-23 14.34 -23 13.68 -23 13 C-20 14 -20 14 -18.8125 16.0625 C-18.4103125 17.0215625 -18.4103125 17.0215625 -18 18 C-18.20625 16.906875 -18.4125 15.81375 -18.625 14.6875 C-19 11 -19 11 -17 8 C-13.4375 7.8125 -13.4375 7.8125 -10 8 C-9.67 8 -9.34 8 -9 8 C-9 7.34 -9 6.68 -9 6 C-7.02 6.66 -5.04 7.32 -3 8 C-2.87625 7.05125 -2.7525 6.1025 -2.625 5.125 C-2 2 -2 2 0 0 Z " fill="#63635B" transform="translate(175,43)" />
<path d="M0 0 C3.63 0 7.26 0 11 0 C11.347313445 4.862388231 10.523097389 7.827185088 8 12 C7.01 12.495 7.01 12.495 6 13 C6.66 13.66 7.32 14.32 8 15 C9.32 12.69 10.64 10.38 12 8 C14.495059616 10.495059616 14.35948376 11.673288884 14.625 15.125 C14.699765625 16.035078125 14.77453125 16.94515625 14.8515625 17.8828125 C14.900546875 18.581484375 14.94953125 19.28015625 15 20 C15.66 20 16.32 20 17 20 C17.253945313 21.085390625 17.507890625 22.17078125 17.76953125 23.2890625 C18.116803817 24.734467237 18.464481637 26.179774651 18.8125 27.625 C18.978144531 28.337851562 19.143789062 29.050703125 19.314453125 29.78515625 C20.809506994 35.934623106 22.351508908 41.494040012 28 45 C27.67 45.99 27.34 46.98 27 48 C23.563770904 48.319649218 21.437605396 48.213714263 18.3125 46.6875 C15.405032851 43.308551691 14.824548343 40.39011747 13.82421875 36.10546875 C12.431326594 30.857367973 10.189072492 25.957859834 8 21 C7.34 22.32 6.68 23.64 6 25 C3.69 25 1.38 25 -1 25 C-1.773516981 19.085570159 -2.095310275 13.914675485 -1 8 C-0.803800283 6.521962129 -0.6163725 5.042734747 -0.4375 3.5625 C-0.293125 2.386875 -0.14875 1.21125 0 0 Z " fill="#8E8C80" transform="translate(139,92)" />
<path d="M0 0 C3.584041707 3.216447686 5.490505828 5.159805369 6 10 C6.33 10.99 6.66 11.98 7 13 C6.00390625 15.171875 6.00390625 15.171875 4.5625 17.75 C1.110705199 24.853831841 1.530029747 31.261156496 2 39 C0.124983583 35.439044451 -0.953308469 31.887711402 -2 28 C-3.98 31.465 -3.98 31.465 -6 35 C-6.33 34.34 -6.66 33.68 -7 33 C-9.024632551 32.347867083 -9.024632551 32.347867083 -11 32 C-8 30 -8 30 -5 29 C-4.34 25.7 -3.68 22.4 -3 19 C-6.63 19 -10.26 19 -14 19 C-13.979375 20.134375 -13.95875 21.26875 -13.9375 22.4375 C-13.930752737 26.263198034 -14.309086564 29.953870063 -14.77734375 33.74609375 C-15.116203321 37.176303798 -15.062627842 40.555468704 -15 44 C-13.02 44 -11.04 44 -9 44 C-9.165 44.763125 -9.33 45.52625 -9.5 46.3125 C-10.16684883 51.230510123 -10.724061001 56.062520196 -10 61 C-7.721117601 63.747702722 -7.721117601 63.747702722 -5 65 C-5.33 65.99 -5.66 66.98 -6 68 C-9.25 68.3125 -9.25 68.3125 -13 68 C-15.599775533 65.829712868 -16.856266891 64.102852659 -17.299316406 60.703369141 C-17.359085631 57.917343669 -17.295582405 55.159519537 -17.1875 52.375 C-17.146060404 50.401115477 -17.108259324 48.427150985 -17.07421875 46.453125 C-17.045939941 45.040634766 -17.045939941 45.040634766 -17.017089844 43.599609375 C-16.987055449 39.030948898 -17.393898571 34.524114234 -18 30 C-19.98 30 -21.96 30 -24 30 C-23.67 26.37 -23.34 22.74 -23 19 C-22.01 19 -21.02 19 -20 19 C-19.67 21.31 -19.34 23.62 -19 26 C-18.34 24.68 -17.68 23.36 -17 22 C-16.67 22.33 -16.34 22.66 -16 23 C-15.34 17.06 -14.68 11.12 -14 5 C-13.67 5.99 -13.34 6.98 -13 8 C-12.01 8.33 -11.02 8.66 -10 9 C-10.66 9.66 -11.32 10.32 -12 11 C-12.397642626 12.988213131 -12.737753486 14.989443391 -13 17 C-12.67 16.34 -12.34 15.68 -12 15 C-9.351395732 14.406443864 -6.708026779 14.257907312 -4 14 C-6.475 13.505 -6.475 13.505 -9 13 C-9 12.67 -9 12.34 -9 12 C-6.36 11.67 -3.72 11.34 -1 11 C-0.225964421 15.063686791 0.098470197 18.864251727 0 23 C3.316392621 17.749045017 3.787224697 13.045481965 3 7 C1.649071198 4.074535599 1.649071198 4.074535599 0 2 C0 1.34 0 0.68 0 0 Z " fill="#3D3B32" transform="translate(153,73)" />
<path d="M0 0 C12.777848594 6.512003399 12.777848594 6.512003399 16 11 C16 13.96802845 15.229044591 15.572758575 13.83984375 18.1640625 C12 20 12 20 9.00390625 20.20703125 C7.868242188 20.076835937 6.732578125 19.946640625 5.5625 19.8125 C4.429414063 19.695195313 3.296328125 19.577890625 2.12890625 19.45703125 C-0.318579003 19.099533404 -2.624490681 18.671212707 -5 18 C-5 18.66 -5 19.32 -5 20 C0.28 20.33 5.56 20.66 11 21 C10.67 21.66 10.34 22.32 10 23 C8.39592672 23.027085665 6.791721504 23.046434835 5.1875 23.0625 C3.847519531 23.079902344 3.847519531 23.079902344 2.48046875 23.09765625 C0 23 0 23 -3 22 C-2.67 22.99 -2.34 23.98 -2 25 C-4.31 24.34 -6.62 23.68 -9 23 C-9 19.7 -9 16.4 -9 13 C-8.01 13.495 -8.01 13.495 -7 14 C-7 13.34 -7 12.68 -7 12 C-6.01 12 -5.02 12 -4 12 C-4 12.66 -4 13.32 -4 14 C-3.34 13.67 -2.68 13.34 -2 13 C-2 12.34 -2 11.68 -2 11 C-4.31 11 -6.62 11 -9 11 C-9 10.01 -9 9.02 -9 8 C-6.107656846 7.173616242 -4.11257569 7 -1 7 C-0.67 4.69 -0.34 2.38 0 0 Z " fill="#94918A" transform="translate(85,84)" />
<path d="M0 0 C0.99 1.32 1.98 2.64 3 4 C3.33 3.01 3.66 2.02 4 1 C5.98 1 7.96 1 10 1 C11.160915028 7.440314321 11.148451254 13.781325731 11.125 20.3125 C11.128867187 21.408847656 11.132734375 22.505195313 11.13671875 23.634765625 C11.135429687 24.679550781 11.134140625 25.724335938 11.1328125 26.80078125 C11.13168457 27.751223145 11.130556641 28.701665039 11.129394531 29.680908203 C11 32 11 32 10 34 C8.35 34 6.7 34 5 34 C4.34 32.35 3.68 30.7 3 29 C2.67 29 2.34 29 2 29 C-0.382978723 9.659574468 -0.382978723 9.659574468 0 0 Z " fill="#9E9C95" transform="translate(112,69)" />
<path d="M0 0 C0.33 0 0.66 0 1 0 C1.33 1.65 1.66 3.3 2 5 C4.97 5 7.94 5 11 5 C11 7.64 11 10.28 11 13 C10.01 13 9.02 13 8 13 C9.149071198 14.298142397 9.149071198 14.298142397 12 15 C12 12.03 12 9.06 12 6 C12.33 6 12.66 6 13 6 C13.612129465 18.129231994 11.078299153 26.675890858 3 36 C2.34 36 1.68 36 1 36 C0.140839039 31.558524305 -0.116975649 27.372301759 -0.09765625 22.8515625 C-0.095533829 21.865475006 -0.095533829 21.865475006 -0.09336853 20.859466553 C-0.087817623 18.781262687 -0.075274652 16.703170729 -0.0625 14.625 C-0.05747864 13.207032817 -0.052916851 11.789063929 -0.048828125 10.37109375 C-0.037864365 6.914026781 -0.020634213 3.457024332 0 0 Z " fill="#EBE9E0" transform="translate(169,10)" />
<path d="M0 0 C2.97 0.33 5.94 0.66 9 1 C9.038671875 2.251035156 9.038671875 2.251035156 9.078125 3.52734375 C9.410806034 10.128037907 10.089055355 15.402138208 13.16015625 21.29296875 C14 23 14 23 14 25 C14.78375 25.309375 15.5675 25.61875 16.375 25.9375 C19 27 19 27 21 28 C21 28.99 21 29.98 21 31 C18.043354807 32.478322596 15.25770263 32.060327826 12 32 C11.67 31.01 11.34 30.02 11 29 C9.88625 27.9171875 9.88625 27.9171875 8.75 26.8125 C5.510117771 23.498984083 3.358405809 19.955501673 1 16 C0.34 15.01 -0.32 14.02 -1 13 C-1.362689342 10.65076222 -1.502771466 8.332180855 -1.65625 5.9609375 C-1.82640625 4.990273437 -1.82640625 4.990273437 -2 4 C-2.66 3.67 -3.32 3.34 -4 3 C-2.68 2.67 -1.36 2.34 0 2 C0 1.34 0 0.68 0 0 Z " fill="#504E45" transform="translate(85,108)" />
<path d="M0 0 C1.311575159 2.623150317 0.896499882 4.230334356 0.5625 7.125 C0.460664063 8.035078125 0.358828125 8.94515625 0.25390625 9.8828125 C0.170117188 10.581484375 0.086328125 11.28015625 0 12 C0.268125 11.030625 0.53625 10.06125 0.8125 9.0625 C1.204375 8.051875 1.59625 7.04125 2 6 C2.99 5.67 3.98 5.34 5 5 C4.67 6.98 4.34 8.96 4 11 C4.66 11 5.32 11 6 11 C6.214499704 19.270155236 6.074229757 26.96235969 4 35 C3.34 35 2.68 35 2 35 C1.566875 35.495 1.13375 35.99 0.6875 36.5 C-1.58124337 38.516660773 -3.052372164 38.115404679 -6 38 C-5.916210937 37.305195312 -5.832421875 36.610390625 -5.74609375 35.89453125 C-4.676381493 25.210949338 -5.331203367 14.693163397 -6 4 C-5.01 4.495 -5.01 4.495 -4 5 C-3.65625 7.80078125 -3.65625 7.80078125 -3.5 11.3125 C-3.316668857 15.405367778 -3.163046104 18.46760616 -1 22 C-0.67 20.35 -0.34 18.7 0 17 C-0.66 16.67 -1.32 16.34 -2 16 C-2.4140625 12.83984375 -2.4140625 12.83984375 -2.625 8.9375 C-2.699765625 7.647148437 -2.77453125 6.356796875 -2.8515625 5.02734375 C-2.900546875 4.028320312 -2.94953125 3.029296875 -3 2 C-2.01 1.34 -1.02 0.68 0 0 Z " fill="#B0ADA7" transform="translate(133,64)" />
<path d="M0 0 C0.99 0.33 1.98 0.66 3 1 C3 1.66 3 2.32 3 3 C3.66 3.33 4.32 3.66 5 4 C4.835 4.61875 4.67 5.2375 4.5 5.875 C3.923653555 7.960633865 3.923653555 7.960633865 4 10 C4.99 10.33 5.98 10.66 7 11 C6.34 11 5.68 11 5 11 C5 11.99 5 12.98 5 14 C7.31 14 9.62 14 12 14 C12 14.66 12 15.32 12 16 C12.99 16.33 13.98 16.66 15 17 C13.35 17 11.7 17 10 17 C10 16.34 10 15.68 10 15 C9.01 15 8.02 15 7 15 C7 15.66 7 16.32 7 17 C7.66 17.33 8.32 17.66 9 18 C8.01 18 7.02 18 6 18 C5.67 20.64 5.34 23.28 5 26 C6.32 26.33 7.64 26.66 9 27 C7 28 7 28 5.0625 28.375 C2.656368023 29.104130902 1.62962776 30.125928076 0 32 C0.66 32.66 1.32 33.32 2 34 C0.02 34.495 0.02 34.495 -2 35 C-2 40.94 -2 46.88 -2 53 C-2.33 53 -2.66 53 -3 53 C-3.146113132 49.625461025 -3.234334668 46.251742343 -3.3125 42.875 C-3.354394531 41.923671875 -3.396289063 40.97234375 -3.439453125 39.9921875 C-3.57752563 32.039211187 -3.57752563 32.039211187 -0.54296875 28.5078125 C0.296210938 27.680234375 1.135390625 26.85265625 2 26 C3.017021166 22.948936501 3.165820832 20.758009387 3.1875 17.5625 C3.208769531 16.141308594 3.208769531 16.141308594 3.23046875 14.69140625 C2.996145182 11.954983562 2.397013826 10.335718769 1 8 C0.731875 8.507890625 0.46375 9.01578125 0.1875 9.5390625 C-3.414796943 15.866781472 -7.964570189 20.65485673 -15 23 C-21.540983607 23.229508197 -21.540983607 23.229508197 -24 22 C-24 21.01 -24 20.02 -24 19 C-23.275546875 18.97421875 -22.55109375 18.9484375 -21.8046875 18.921875 C-13.647506368 18.453639049 -13.647506368 18.453639049 -7 14 C-5.075677068 10.769502564 -3.519514626 7.435424372 -2 4 C-1.340569758 2.663072935 -0.676488343 1.328377109 0 0 Z " fill="#2B2821" transform="translate(71,81)" />
<path d="M0 0 C5.415336283 2.342101962 9.290765449 6.505544425 13 11 C15.257551933 17.178563184 13.692414185 24.736408288 12 31 C9.625 33.8125 9.625 33.8125 7 36 C5.477982905 38.5840033 4.216712695 41.260697116 3 44 C2.505 42.515 2.505 42.515 2 41 C0.126127837 40.19787372 0.126127837 40.19787372 -2.0625 39.8125 C-3.162714844 39.574667969 -3.162714844 39.574667969 -4.28515625 39.33203125 C-4.851054687 39.222460938 -5.416953125 39.112890625 -6 39 C-6 39.66 -6 40.32 -6 41 C-6.66 41 -7.32 41 -8 41 C-8.66 39.35 -9.32 37.7 -10 36 C-9.44828125 36.163710937 -8.8965625 36.327421875 -8.328125 36.49609375 C-5.73385993 37.057604143 -3.401645894 37.097390078 -0.75 37.0625 C0.8175 37.041875 2.385 37.02125 4 37 C-0.95 36.34 -5.9 35.68 -11 35 C-11.495 33.515 -11.495 33.515 -12 32 C-11.203359375 32.144375 -10.40671875 32.28875 -9.5859375 32.4375 C-7.996523438 32.7159375 -7.996523438 32.7159375 -6.375 33 C-4.808789062 33.2784375 -4.808789062 33.2784375 -3.2109375 33.5625 C-0.069968711 33.99046655 2.835872597 34.190664779 6 34 C8.097641647 32.481051941 8.097641647 32.481051941 9 30 C9.115042415 27.036715967 9.115042415 27.036715967 8 24 C5.77512126 22.233097627 3.893149651 20.955035744 1.4375 19.625 C0.821972656 19.270507812 0.206445312 18.916015625 -0.427734375 18.55078125 C-1.941562201 17.682383892 -3.469510029 16.83868296 -5 16 C-5 17.32 -5 18.64 -5 20 C-5.66 20 -6.32 20 -7 20 C-7 20.66 -7 21.32 -7 22 C-8.32 21.67 -9.64 21.34 -11 21 C-10.67 20.34 -10.34 19.68 -10 19 C-9.34 19 -8.68 19 -8 19 C-8.33 16.69 -8.66 14.38 -9 12 C-5.981169388 12.609011195 -3.86780915 13.555543769 -1.328125 15.28515625 C-0.664257812 15.733105469 -0.000390625 16.181054687 0.68359375 16.642578125 C1.365507812 17.111152344 2.047421875 17.579726562 2.75 18.0625 C3.447382812 18.534941406 4.144765625 19.007382812 4.86328125 19.494140625 C6.579049928 20.657572811 8.290003979 21.828099742 10 23 C10.66 20.03 11.32 17.06 12 14 C11.278125 13.731875 10.55625 13.46375 9.8125 13.1875 C6.945258759 11.976887031 4.494114851 10.870586139 2 9 C1.21733851 6.531606071 1 4.571746345 1 2 C0.67 1.34 0.34 0.68 0 0 Z " fill="#3D3B34" transform="translate(91,69)" />
<path d="M0 0 C5.633743283 1.2151211 7.95629002 2.731639466 12 7 C12.99 7 13.98 7 15 7 C17.6640625 7.81640625 17.6640625 7.81640625 20 10 C20.678099979 13.651735135 20.51246084 17.237907403 20.375 20.9375 C20.353730469 22.440869141 20.353730469 22.440869141 20.33203125 23.974609375 C20.248718183 28.137485647 20.154670892 31.979667122 19 36 C16.0625 35.25 16.0625 35.25 13 34 C11.32889051 30.06033773 12.613923867 26.705261798 13.625 22.73046875 C14.113805446 19.171354097 13.864802826 16.494270876 13 13 C10.873678308 10.15231033 10.873678308 10.15231033 8.125 7.75 C7.240703125 6.91984375 6.35640625 6.0896875 5.4453125 5.234375 C4.234882813 4.128359375 4.234882813 4.128359375 3 3 C1.993541646 2.006500337 0.99011604 1.009787219 0 0 Z " fill="#6F6D66" transform="translate(90,67)" />
<path d="M0 0 C1.875 0.3125 1.875 0.3125 4 1 C4.66 1.99 5.32 2.98 6 4 C8.562827418 4.729653662 8.562827418 4.729653662 11 5 C11.33 4.34 11.66 3.68 12 3 C12.253945313 4.085390625 12.507890625 5.17078125 12.76953125 6.2890625 C13.116803817 7.734467237 13.464481637 9.179774651 13.8125 10.625 C13.978144531 11.337851562 14.143789062 12.050703125 14.314453125 12.78515625 C15.809506994 18.934623106 17.351508908 24.494040012 23 28 C22.67 28.99 22.34 29.98 22 31 C18.563770904 31.319649218 16.437605396 31.213714263 13.3125 29.6875 C10.405032851 26.308551691 9.824548343 23.39011747 8.82421875 19.10546875 C7.431326594 13.857367973 5.189072492 8.957859834 3 4 C2.01 4.66 1.02 5.32 0 6 C0 5.34 0 4.68 0 4 C-0.99 3.67 -1.98 3.34 -3 3 C-1.68 3 -0.36 3 1 3 C0.67 2.01 0.34 1.02 0 0 Z " fill="#68655D" transform="translate(144,109)" />
<path d="M0 0 C0.99 0.495 0.99 0.495 2 1 C2 5.62 2 10.24 2 15 C3.98 15 5.96 15 8 15 C7.835 15.763125 7.67 16.52625 7.5 17.3125 C6.83315117 22.230510123 6.275938999 27.062520196 7 32 C9.278882399 34.747702722 9.278882399 34.747702722 12 36 C11.67 36.99 11.34 37.98 11 39 C7.75 39.3125 7.75 39.3125 4 39 C0.907103569 36.167122811 0.061716947 34.501334062 -0.454101562 30.311279297 C-0.453474286 28.898767436 -0.431228671 27.486147039 -0.390625 26.07421875 C-0.38496521 25.32662796 -0.37930542 24.57903717 -0.373474121 23.808792114 C-0.351184676 21.434360892 -0.301006564 19.061470615 -0.25 16.6875 C-0.229925193 15.072287509 -0.211676134 13.457051227 -0.1953125 11.841796875 C-0.151344862 7.893942673 -0.082372609 3.947232075 0 0 Z " fill="#575549" transform="translate(136,102)" />
<path d="M0 0 C3.144055631 3.144055631 3.179279588 6.051595177 3.25 10.3125 C3.207042946 14.957998567 2.65506002 18.066577748 0 22 C-0.53625 22.495 -1.0725 22.99 -1.625 23.5 C-3.676100972 25.737564696 -3.673163311 28.058469803 -4 31 C-4.33 31 -4.66 31 -5 31 C-5 29.35 -5 27.7 -5 26 C-5.99 26.33 -6.98 26.66 -8 27 C-7.67 25.68 -7.34 24.36 -7 23 C-6.01 23 -5.02 23 -4 23 C-4 22.34 -4 21.68 -4 21 C-3.34 21 -2.68 21 -2 21 C-2.33 20.34 -2.66 19.68 -3 19 C-4.32 19 -5.64 19 -7 19 C-7 17.68 -7 16.36 -7 15 C-7.99 14.67 -8.98 14.34 -10 14 C-9.529492187 13.408320312 -9.058984375 12.816640625 -8.57421875 12.20703125 C-3.944187604 6.339879367 -3.944187604 6.339879367 0 0 Z " fill="#EBE8E0" transform="translate(72,88)" />
<path d="M0 0 C7.623144745 -0.235767363 14.585694089 0.162826854 22 2 C21.67 2.66 21.34 3.32 21 4 C21.092386934 6.169602835 21.250275508 8.336516976 21.4375 10.5 C22.138300583 19.336228947 22.091320589 28.141902885 22 37 C21.01 37 20.02 37 19 37 C19.026184082 36.25838623 19.052368164 35.516772461 19.079345703 34.752685547 C19.183174314 31.397838548 19.248282388 28.043328949 19.3125 24.6875 C19.354394531 23.520253906 19.396289063 22.353007812 19.439453125 21.150390625 C19.455566406 20.032128906 19.471679688 18.913867188 19.48828125 17.76171875 C19.514465332 16.730065918 19.540649414 15.698413086 19.567626953 14.635498047 C19.246926999 11.791952426 19.246926999 11.791952426 16.656982422 10.139892578 C14.022364783 8.80286711 14.022364783 8.80286711 11 9 C7.8125 6.625 7.8125 6.625 5 4 C5 3.34 5 2.68 5 2 C3.35 1.67 1.7 1.34 0 1 C0 0.67 0 0.34 0 0 Z " fill="#93928B" transform="translate(90,65)" />
<path d="M0 0 C2.61328125 0.64453125 2.61328125 0.64453125 5.36328125 2.95703125 C6.763004604 5.966436461 6.566156143 6.624947975 5.61328125 9.64453125 C3.824172219 10.174083589 2.031889769 10.692924952 0.23828125 11.20703125 C-1.258320312 11.642089844 -1.258320312 11.642089844 -2.78515625 12.0859375 C-5.38671875 12.64453125 -5.38671875 12.64453125 -7.38671875 11.64453125 C-7.38671875 9.99453125 -7.38671875 8.34453125 -7.38671875 6.64453125 C-8.04671875 6.64453125 -8.70671875 6.64453125 -9.38671875 6.64453125 C-9.51046875 7.59328125 -9.63421875 8.54203125 -9.76171875 9.51953125 C-10.38671875 12.64453125 -10.38671875 12.64453125 -12.38671875 14.64453125 C-12.299568581 12.706191292 -12.191389108 10.768788347 -12.07421875 8.83203125 C-12.016210938 7.753085938 -11.958203125 6.674140625 -11.8984375 5.5625 C-11.38671875 2.64453125 -11.38671875 2.64453125 -10.18359375 0.7578125 C-6.915536049 -1.26696238 -3.674329777 -0.442866238 0 0 Z " fill="#5C5B52" transform="translate(144.38671875,63.35546875)" />
<path d="M0 0 C5.28 0 10.56 0 16 0 C15.67 0.66 15.34 1.32 15 2 C14.040342599 5.791183084 13.934608858 9.206513213 14.0859375 13.10546875 C14.129765625 14.253378906 14.17359375 15.401289062 14.21875 16.583984375 C14.2703125 17.773144531 14.321875 18.962304687 14.375 20.1875 C14.418828125 21.388261719 14.46265625 22.589023438 14.5078125 23.826171875 C14.466732131 29.591828246 14.466732131 29.591828246 16 35 C16.66 35.33 17.32 35.66 18 36 C15.395556516 36.053947046 12.792230024 36.093644694 10.1875 36.125 C9.449511719 36.141757813 8.711523438 36.158515625 7.951171875 36.17578125 C4.08753574 36.210746283 2.290963318 36.193975545 -1 34 C-0.01 34 0.98 34 2 34 C1.34 22.78 0.68 11.56 0 0 Z M2 1 C1.726707217 7.893051301 2.151183419 14.650525064 2.875 21.5 C2.95347168 22.289389648 3.031943359 23.078779297 3.112792969 23.892089844 C3.530631387 27.610931968 3.891694904 29.837542356 6 33 C6.33 33.66 6.66 34.32 7 35 C8.65 35 10.3 35 12 35 C13.272907489 32.454185021 13.129433253 30.648279216 13.1328125 27.80078125 C13.134101563 26.755996094 13.135390625 25.711210937 13.13671875 24.634765625 C13.132851563 23.538417969 13.128984375 22.442070312 13.125 21.3125 C13.128867187 20.235488281 13.132734375 19.158476562 13.13671875 18.048828125 C13.13002851 12.592937471 12.96850097 7.37287443 12 2 C10.02 2 8.04 2 6 2 C5.67 2.99 5.34 3.98 5 5 C4.01 3.68 3.02 2.36 2 1 Z " fill="#3E3C35" transform="translate(110,68)" />
<path d="M0 0 C0.66 0.66 1.32 1.32 2 2 C2.99 2 3.98 2 5 2 C4.67 2.99 4.34 3.98 4 5 C2.35 5 0.7 5 -1 5 C-0.722851563 5.556875 -0.445703125 6.11375 -0.16015625 6.6875 C2.313162361 11.898192589 3.581612039 16.247165532 4 22 C3.01 22.66 2.02 23.32 1 24 C0.2884375 23.0409375 0.2884375 23.0409375 -0.4375 22.0625 C-2.237166579 19.601294067 -2.237166579 19.601294067 -4.8125 18.25 C-8.848874059 15.943500538 -11.14394273 12.176128857 -13 8 C-11.68 8.33 -10.36 8.66 -9 9 C-9 8.01 -9 7.02 -9 6 C-7.02 6.66 -5.04 7.32 -3 8 C-2.87625 7.05125 -2.7525 6.1025 -2.625 5.125 C-2 2 -2 2 0 0 Z " fill="#9F9E99" transform="translate(175,43)" />
<path d="M0 0 C12.445810393 6.342786032 12.445810393 6.342786032 16 11 C16 12.32 16 13.64 16 15 C8.549933649 14.578298131 0.411341945 12.411341945 -5 7 C-3.68 7 -2.36 7 -1 7 C-0.67 4.69 -0.34 2.38 0 0 Z " fill="#9E9D95" transform="translate(85,84)" />
<path d="M0 0 C0.33 0 0.66 0 1 0 C1 12.54 1 25.08 1 38 C-3.64830643 31.027540355 -3.534370692 23.148512888 -4 15 C-4.66 17.31 -5.32 19.62 -6 22 C-6.33 22 -6.66 22 -7 22 C-6.602932331 15.249849631 -4.926154003 4.926154003 0 0 Z " fill="#6D6A63" transform="translate(168,10)" />
<path d="M0 0 C1.875 1.875 1.875 1.875 3 4 C2.67 4.99 2.34 5.98 2 7 C2.66 7.33 3.32 7.66 4 8 C3.67 8.33 3.34 8.66 3 9 C5.97 10.65 8.94 12.3 12 14 C12 14.99 12 15.98 12 17 C-0.702704212 12.905425179 -0.702704212 12.905425179 -6 9 C-7.287447758 5.905076565 -7.382131021 3.306903066 -7 0 C-4.244385521 -1.37780724 -2.902287656 -0.920237549 0 0 Z " fill="#B5B5AD" transform="translate(91,69)" />
<path d="M0 0 C1.18872582 3.566177459 0.589362289 5.434058247 -0.78515625 8.8671875 C-3.481563643 13.601073149 -7.876420469 16.808723677 -12.5625 19.4375 C-16.427209947 20.329356142 -20.380980635 20.809509682 -24 19 C-24 18.01 -24 17.02 -24 16 C-23.275546875 15.97421875 -22.55109375 15.9484375 -21.8046875 15.921875 C-13.647506368 15.453639049 -13.647506368 15.453639049 -7 11 C-5.535918521 8.431722993 -4.266930671 5.851045495 -3.078125 3.14453125 C-2 1 -2 1 0 0 Z " fill="#424039" transform="translate(71,84)" />
<path d="M0 0 C2.97 0.33 5.94 0.66 9 1 C9.125 9.75 9.125 9.75 8 12 C8 12.99 8 13.98 8 15 C5.625 15.625 5.625 15.625 3 16 C1 14 1 14 0.83984375 11.25 C0.872070312 10.1775 0.904296875 9.105 0.9375 8 C1.197981005 3.843970598 1.197981005 3.843970598 0 0 Z " fill="#79776E" transform="translate(85,108)" />
<path d="M0 0 C7.167078768 0.325776308 12.769271241 3.654436282 19 7 C18.67 9.31 18.34 11.62 18 14 C4.609323703 6.481286934 4.609323703 6.481286934 0 2 C0 1.34 0 0.68 0 0 Z " fill="#6F6D66" transform="translate(84,79)" />
</svg>