<?xml version='1.0' encoding='utf-8'?>
<svg xmlns="http://www.w3.org/2000/svg" version="1.1" width="169" height="121" viewBox="9.009999999999998 4.0 169.99 121.118632812">
<path d="M0 0 C1.32 0 2.64 0 4 0 C3.988398437 0.626484375 3.976796875 1.25296875 3.96484375 1.8984375 C3.955820313 2.715703125 3.946796875 3.53296875 3.9375 4.375 C3.925898437 5.187109375 3.914296875 5.99921875 3.90234375 6.8359375 C3.855336656 9.049371424 3.855336656 9.049371424 5 11 C3.68 11 2.36 11 1 11 C1.495 12.98 1.495 12.98 2 15 C1.34 15 0.68 15 0 15 C-0.66 14.34 -1.32 13.68 -2 13 C-2.99 14.98 -3.98 16.96 -5 19 C-4.67 19.33 -4.34 19.66 -4 20 C-3.938125 21.27875 -3.87625 22.5575 -3.8125 23.875 C-3.626122713 26.041443718 -3.626122713 26.041443718 -3 28 C0.755492076 30.707447776 4.447984874 31.458093437 9 32 C9.33 31.34 9.66 30.68 10 30 C10.99 30.99 11.98 31.98 13 33 C13.99 32.67 14.98 32.34 16 32 C15.505 30.515 15.505 30.515 15 29 C15.99 29 16.98 29 18 29 C16.68 27.35 15.36 25.7 14 24 C14.33 23.34 14.66 22.68 15 22 C19.883462819 26.150943396 19.883462819 26.150943396 20.4375 30.1875 C20 33 20 33 18 35 C10.931050573 35.785438825 2.343528075 34.171764038 -4 31 C-4.180629883 31.563964844 -4.361259766 32.127929688 -4.547363281 32.708984375 C-5.390852074 35.311384416 -6.257716465 37.905437493 -7.125 40.5 C-7.40859375 41.386875 -7.6921875 42.27375 -7.984375 43.1875 C-10.011556999 49.180907649 -12.386421818 54.540066799 -17 59 C-20.375 60.5 -20.375 60.5 -23 61 C-24.322798177 69.113949532 -25.194603435 77.025109674 -25.1875 85.25 C-25.188144531 85.976306152 -25.188789063 86.702612305 -25.189453125 87.450927734 C-25.157083503 90.561721974 -24.990552127 93.028343618 -24 96 C-24.66 96 -25.32 96 -26 96 C-31.824927149 84.350145702 -26.718129029 66.201576828 -22.875 54.60546875 C-22.58625 53.745664062 -22.2975 52.885859375 -22 52 C-21.764217178 48.148880576 -22.117605499 44.750176629 -23 41 C-22.01 41.99 -21.02 42.98 -20 44 C-17.563428902 38.988002501 -17.563428902 38.988002501 -17.5 33.625 C-21.163595247 29.656105149 -26.124467208 29.701802513 -31.193359375 29.46875 C-32.489833984 29.42234375 -32.489833984 29.42234375 -33.8125 29.375 C-34.696152344 29.336328125 -35.579804688 29.29765625 -36.490234375 29.2578125 C-38.659829715 29.163992161 -40.829885473 29.080926744 -43 29 C-41.971328125 28.178222656 -41.971328125 28.178222656 -40.921875 27.33984375 C-39.418710908 26.13610673 -37.915930863 24.931856197 -36.419921875 23.719238281 C-16.735985763 7.771066904 -16.735985763 7.771066904 -6.75 7.9375 C-4.89375 7.9684375 -4.89375 7.9684375 -3 8 C-2.690625 7.05125 -2.38125 6.1025 -2.0625 5.125 C-1 2 -1 2 0 0 Z " fill="#A9A79B" transform="translate(149,14)" />
<path d="M0 0 C-0.814042969 0.346113281 -0.814042969 0.346113281 -1.64453125 0.69921875 C-4.922637604 2.193562728 -7.512906369 3.482463017 -10 6.125 C-11.571143457 10.64203744 -12.015483838 14.283918618 -11 19 C-9.419418501 22.130171203 -7.772172111 25.07744235 -5.846435547 28.001708984 C-3.369133852 31.845911948 -2.380352584 34.430100304 -3 39 C-3.66 39.99 -4.32 40.98 -5 42 C-4.653513687 45.984592599 -3.609135305 49.352626642 -2 53 C-1.34 53 -0.68 53 0 53 C-0.106992187 52.385117188 -0.213984375 51.770234375 -0.32421875 51.13671875 C-0.444101563 50.328476563 -0.563984375 49.520234375 -0.6875 48.6875 C-0.815117187 47.886992187 -0.942734375 47.086484375 -1.07421875 46.26171875 C-1 44 -1 44 0.48046875 42.20703125 C0.981914063 41.808710937 1.483359375 41.410390625 2 41 C1.95875 42.051875 1.9175 43.10375 1.875 44.1875 C1.993200849 47.792625885 2.646052444 49.750525866 4 53 C3 56 3 56 1 57 C1.415750619 61.850423883 3.416599784 63.843195048 7 67 C7.99 67.66 8.98 68.32 10 69 C8.251382083 69.108534905 6.500807586 69.185834277 4.75 69.25 C3.77546875 69.29640625 2.8009375 69.3428125 1.796875 69.390625 C-1 69 -1 69 -3.2265625 67.46484375 C-5.516225473 64.282514817 -6.31666229 61.080368526 -7.125 57.3125 C-7.286777344 56.597875977 -7.448554687 55.883251953 -7.615234375 55.146972656 C-7.934654302 53.734277094 -8.249578031 52.320555918 -8.559570312 50.905761719 C-8.928416849 49.309743947 -9.373374185 47.731574614 -9.8359375 46.16015625 C-10.5 43.875 -10.5 43.875 -11 40 C-9.0625 36.75 -9.0625 36.75 -7 34 C-7.097384345 30.007241858 -8.837103719 27.291363905 -11 24 C-11.146953125 24.70125 -11.29390625 25.4025 -11.4453125 26.125 C-13.56254466 35.080648678 -17.194547044 41.796364696 -25 47 C-25.515625 47.37125 -26.03125 47.7425 -26.5625 48.125 C-33.107408344 52.187356903 -40.56733172 51.537832462 -48 51 C-48.99 50.67 -49.98 50.34 -51 50 C-48.849220431 44.802282707 -44.7668441 42.665955363 -40 40 C-38.305280779 39.299447373 -36.596547509 38.631760554 -34.875 38 C-27.279101772 35.114736332 -22.83735436 30.736164401 -19.109375 23.55859375 C-17.882821615 20.729747034 -16.969077665 17.88387741 -16.0625 14.9375 C-14.149247203 8.872411175 -11.521282949 3.314391615 -6.0625 -0.2734375 C-3.613967995 -1.135988547 -2.40908693 -0.860388189 0 0 Z " fill="#EAE8DC" transform="translate(68,45)" />
<path d="M0 0 C2.781471735 4.919097079 2.707085773 9.727723677 1.526367188 15.191894531 C0.887700763 17.352732488 0.164139455 19.452083853 -0.625 21.5625 C-1.031054687 22.670570068 -1.031054687 22.670570068 -1.4453125 23.801025391 C-3.433155341 29.000131711 -5.539686684 34.437944227 -10 38 C-13.1875 39.19140625 -13.1875 39.19140625 -16 40 C-17.322798177 48.113949532 -18.194603435 56.025109674 -18.1875 64.25 C-18.188144531 64.976306152 -18.188789063 65.702612305 -18.189453125 66.450927734 C-18.157083503 69.561721974 -17.990552127 72.028343618 -17 75 C-17.66 75 -18.32 75 -19 75 C-24.824927149 63.350145702 -19.718129029 45.201576828 -15.875 33.60546875 C-15.58625 32.745664062 -15.2975 31.885859375 -15 31 C-14.764217178 27.148880576 -15.117605499 23.750176629 -16 20 C-15.01 20.99 -14.02 21.98 -13 23 C-10.451657906 17.894433899 -10.451657906 17.894433899 -10.8125 12.5 C-11.204375 12.005 -11.59625 11.51 -12 11 C-11.01 11 -10.02 11 -9 11 C-8.67 11.66 -8.34 12.32 -8 13 C-3.836483998 9.034746665 -1.64299912 5.5609201 0 0 Z " fill="#737167" transform="translate(142,35)" />
<path d="M0 0 C-0.542695313 0.230742187 -1.085390625 0.461484375 -1.64453125 0.69921875 C-4.922637604 2.193562728 -7.512906369 3.482463017 -10 6.125 C-11.571143457 10.64203744 -12.015483838 14.283918618 -11 19 C-9.419418501 22.130171203 -7.772172111 25.07744235 -5.846435547 28.001708984 C-3.369133852 31.845911948 -2.380352584 34.430100304 -3 39 C-3.66 39.99 -4.32 40.98 -5 42 C-4.653513687 45.984592599 -3.609135305 49.352626642 -2 53 C-1.34 53 -0.68 53 0 53 C-0.106992187 52.385117188 -0.213984375 51.770234375 -0.32421875 51.13671875 C-0.444101562 50.328476563 -0.563984375 49.520234375 -0.6875 48.6875 C-0.815117187 47.886992187 -0.942734375 47.086484375 -1.07421875 46.26171875 C-1 44 -1 44 0.48046875 42.20703125 C0.981914062 41.808710937 1.483359375 41.410390625 2 41 C1.95875 42.051875 1.9175 43.10375 1.875 44.1875 C1.993200849 47.792625885 2.646052444 49.750525866 4 53 C3 56 3 56 1 57 C1.415750619 61.850423883 3.416599784 63.843195048 7 67 C8.485 67.99 8.485 67.99 10 69 C8.251382083 69.108534905 6.500807586 69.185834277 4.75 69.25 C3.77546875 69.29640625 2.8009375 69.3428125 1.796875 69.390625 C-1 69 -1 69 -3.2265625 67.46484375 C-5.516225473 64.282514817 -6.31666229 61.080368526 -7.125 57.3125 C-7.286777344 56.597875977 -7.448554687 55.883251953 -7.615234375 55.146972656 C-7.934654302 53.734277094 -8.249578031 52.320555918 -8.559570312 50.905761719 C-8.928416849 49.309743947 -9.373374185 47.731574614 -9.8359375 46.16015625 C-10.5 43.875 -10.5 43.875 -11 40 C-9.0625 36.75 -9.0625 36.75 -7 34 C-7.097384345 30.007241858 -8.837103719 27.291363905 -11 24 C-11.193359375 24.782460938 -11.38671875 25.564921875 -11.5859375 26.37109375 C-11.846328125 27.383007812 -12.10671875 28.394921875 -12.375 29.4375 C-12.630234375 30.446835937 -12.88546875 31.456171875 -13.1484375 32.49609375 C-14 35 -14 35 -16 36 C-15.835 35.236875 -15.67 34.47375 -15.5 33.6875 C-14.834378509 28.778541505 -14.920799218 23.945648859 -15 19 C-16.32 21.64 -17.64 24.28 -19 27 C-20 25 -20 25 -18.99609375 21.5859375 C-18.489058279 20.17772964 -17.968732421 18.774259254 -17.4375 17.375 C-17.163735352 16.651674805 -16.889970703 15.928349609 -16.607910156 15.183105469 C-14.248855966 9.195774679 -11.624864347 3.362765829 -6.0703125 -0.2578125 C-3.613673598 -1.138494371 -2.42082223 -0.864579368 0 0 Z " fill="#B1B0A8" transform="translate(68,45)" />
<path d="M0 0 C6.806725375 -0.119416235 6.806725375 -0.119416235 10.01953125 2.89453125 C13.072289603 6.769927644 15.243467789 10.389102947 17 15 C17.972364869 16.682939197 18.96564444 18.354434336 20 20 C18.68 19.67 17.36 19.34 16 19 C16.66 20.32 17.32 21.64 18 23 C16.1875 23.6875 16.1875 23.6875 14 24 C12.25 22.5625 12.25 22.5625 11 21 C10.67 21.33 10.34 21.66 10 22 C5.99229355 21.967483112 2.195214244 21.507966054 -1.5 19.9375 C-3.877117186 16.867056968 -3.695338544 13.838734343 -4 10 C-4.33 9.34 -4.66 8.68 -5 8 C-3.68 6.02 -2.36 4.04 -1 2 C-0.34 2.33 0.32 2.66 1 3 C1 3.66 1 4.32 1 5 C1.66 5 2.32 5 3 5 C2.652132917 3.024632551 2.652132917 3.024632551 2 1 C1.34 0.67 0.68 0.34 0 0 Z " fill="#DEDCD4" transform="translate(148,24)" />
<path d="M0 0 C2.602345111 3.015082642 3.439535757 5.104080906 3.75 9.0625 C3.82734375 9.919726563 3.9046875 10.776953125 3.984375 11.66015625 C4 14 4 14 3 17 C12.833032945 19.388936421 22.02122297 19.506230495 32 18 C31.976796875 17.25234375 31.95359375 16.5046875 31.9296875 15.734375 C31.911640625 14.74953125 31.89359375 13.7646875 31.875 12.75 C31.851796875 11.77546875 31.82859375 10.8009375 31.8046875 9.796875 C32.001372193 6.980350201 32.554310836 5.390509642 34 3 C35 5 35 5 34.5625 6.6875 C33.098373413 12.706687078 34.139265285 17.123754669 36.875 22.5625 C40.501717514 29.859735965 42.296144807 35.790643182 42.625 43.875 C42.683007812 45.050625 42.683007812 45.050625 42.7421875 46.25 C42.835666216 48.166313673 42.918884946 50.083123188 43 52 C44.98 52.66 46.96 53.32 49 54 C48.67 53.34 48.34 52.68 48 52 C49.32 52.33 50.64 52.66 52 53 C52 53.99 52 54.98 52 56 C50.278068456 56.331720613 48.546539902 56.613863212 46.8125 56.875 C45.368105469 57.118632812 45.368105469 57.118632812 43.89453125 57.3671875 C41 57 41 57 38.18359375 54.71875 C34.859624316 50.194550217 35.256893692 45.02965417 35.25 39.625 C35.216449587 37.617136804 35.180044304 35.60931905 35.140625 33.6015625 C35.125800781 32.650556641 35.110976562 31.699550781 35.095703125 30.719726562 C34.968167698 27.095377958 34.530605822 23.585868378 34 20 C32.857246094 20.2165625 32.857246094 20.2165625 31.69140625 20.4375 C20.675122139 22.41795557 12.727151402 22.368526048 2 19 C1.276835937 19.848847656 1.276835937 19.848847656 0.5390625 20.71484375 C-0.092578125 21.448320313 -0.72421875 22.181796875 -1.375 22.9375 C-2.001484375 23.668398438 -2.62796875 24.399296875 -3.2734375 25.15234375 C-5 27 -5 27 -7 28 C-5.804650881 25.174629355 -4.438759587 23.329249262 -2.4375 20.9375 C1.55936163 16.120769318 1.263827249 11.966554712 1 6 C0.718188393 3.992092301 0.407431836 1.986230201 0 0 Z " fill="#8B8A82" transform="translate(77,58)" />
<path d="M0 0 C1.32 0 2.64 0 4 0 C3.988398437 0.626484375 3.976796875 1.25296875 3.96484375 1.8984375 C3.955820313 2.715703125 3.946796875 3.53296875 3.9375 4.375 C3.925898437 5.187109375 3.914296875 5.99921875 3.90234375 6.8359375 C3.855336656 9.049371424 3.855336656 9.049371424 5 11 C3.68 11 2.36 11 1 11 C1.495 12.98 1.495 12.98 2 15 C1.34 15 0.68 15 0 15 C-0.66 14.34 -1.32 13.68 -2 13 C-2.99 14.98 -3.98 16.96 -5 19 C-4.67 19.33 -4.34 19.66 -4 20 C-3.938125 21.27875 -3.87625 22.5575 -3.8125 23.875 C-3.626122713 26.041443718 -3.626122713 26.041443718 -3 28 C0.755492076 30.707447776 4.447984874 31.458093437 9 32 C9.33 31.34 9.66 30.68 10 30 C10.99 30.99 11.98 31.98 13 33 C13.99 32.67 14.98 32.34 16 32 C15.505 30.515 15.505 30.515 15 29 C15.99 29 16.98 29 18 29 C16.68 27.35 15.36 25.7 14 24 C14.33 23.34 14.66 22.68 15 22 C19.883462819 26.150943396 19.883462819 26.150943396 20.4375 30.1875 C20 33 20 33 18 35 C10.276218045 35.858197995 2.282044259 33.427348086 -5 31 C-5.73046875 28.93359375 -5.73046875 28.93359375 -6.1875 26.4375 C-6.346054687 25.611210938 -6.504609375 24.784921875 -6.66796875 23.93359375 C-6.777539063 23.295507812 -6.887109375 22.657421875 -7 22 C-7.103125 22.928125 -7.20625 23.85625 -7.3125 24.8125 C-8.03112797 28.144320589 -8.446261506 28.937365062 -11 31 C-11.8353125 31.8353125 -11.8353125 31.8353125 -12.6875 32.6875 C-13.120625 33.120625 -13.55375 33.55375 -14 34 C-12.419804083 28.793670296 -10.22115005 24.016266889 -7.875 19.125 C-7.502460937 18.34125 -7.129921875 17.5575 -6.74609375 16.75 C-5.833810034 14.831865007 -4.91733016 12.915726705 -4 11 C-15.976015319 10.78330491 -22.914129123 15.360762196 -32 23 C-33.687282832 24.645792271 -35.360477325 26.306624391 -37 28 C-36.34 27.67 -35.68 27.34 -35 27 C-30.095840211 26.461953692 -25.583636568 26.150612084 -21.375 29 C-20.59125 29.66 -19.8075 30.32 -19 31 C-22 31 -22 31 -24 30 C-25.446524197 29.849327861 -26.898793399 29.751389641 -28.3515625 29.68359375 C-29.20234375 29.641699219 -30.053125 29.599804687 -30.9296875 29.556640625 C-31.819140625 29.517324219 -32.70859375 29.478007812 -33.625 29.4375 C-34.97078125 29.372724609 -34.97078125 29.372724609 -36.34375 29.306640625 C-38.562342826 29.200431394 -40.781048797 29.098388056 -43 29 C-41.971328125 28.178222656 -41.971328125 28.178222656 -40.921875 27.33984375 C-39.418710908 26.13610673 -37.915930863 24.931856197 -36.419921875 23.719238281 C-16.735985763 7.771066904 -16.735985763 7.771066904 -6.75 7.9375 C-4.89375 7.9684375 -4.89375 7.9684375 -3 8 C-2.690625 7.05125 -2.38125 6.1025 -2.0625 5.125 C-1 2 -1 2 0 0 Z " fill="#3D3B33" transform="translate(149,14)" />
<path d="M0 0 C0.66 1.32 1.32 2.64 2 4 C1.360625 4.37125 0.72125 4.7425 0.0625 5.125 C-3.280273876 7.17159625 -6.496126176 9.367918287 -9.71875 11.59765625 C-12.07542948 13.046368464 -14.408112479 14.046294909 -17 15 C-16.67 15.66 -16.34 16.32 -16 17 C-15.01 17.2165625 -15.01 17.2165625 -14 17.4375 C-13.34 17.623125 -12.68 17.80875 -12 18 C-11.67 18.99 -11.34 19.98 -11 21 C-4.636195214 17.931231915 -0.198035848 14.71262133 4 9 C4.495 9.99 4.495 9.99 5 11 C0.34936343 17.205981913 -4.392006532 21.854926743 -12 24 C-18.013416944 24.521850512 -24.214906317 24.928364561 -30 23 C-27.849220431 17.802282707 -23.7668441 15.665955363 -19 13 C-17.305280779 12.299447373 -15.596547509 11.631760554 -13.875 11 C-7.81588219 8.744347108 -3.580162751 5.370244127 0 0 Z " fill="#535044" transform="translate(47,72)" />
<path d="M0 0 C2 2 2 2 2.1953125 5.0390625 C2.172109375 6.222421875 2.14890625 7.40578125 2.125 8.625 C2.106953125 9.813515625 2.08890625 11.00203125 2.0703125 12.2265625 C2.047109375 13.141796875 2.02390625 14.05703125 2 15 C1.34 14.01 0.68 13.02 0 12 C-0.268125 12.639375 -0.53625 13.27875 -0.8125 13.9375 C-2 16 -2 16 -5 17 C-5.66 16.67 -6.32 16.34 -7 16 C-9.040550051 15.929343835 -11.083342571 15.91578024 -13.125 15.9375 C-14.220703125 15.946523437 -15.31640625 15.955546875 -16.4453125 15.96484375 C-17.709882812 15.982246094 -17.709882812 15.982246094 -19 16 C-17.665657197 11.996971591 -15.011941221 10.426827166 -11.75 8 C-11.176367188 7.56171875 -10.602734375 7.1234375 -10.01171875 6.671875 C-6.783304306 4.230340614 -3.520408438 2.011661964 0 0 Z " fill="#8A887C" transform="translate(131,26)" />
<path d="M0 0 C2.602345111 3.015082642 3.439535757 5.104080906 3.75 9.0625 C3.82734375 9.919726563 3.9046875 10.776953125 3.984375 11.66015625 C4 14 4 14 3 17 C12.833032945 19.388936421 22.02122297 19.506230495 32 18 C31.976796875 17.25234375 31.95359375 16.5046875 31.9296875 15.734375 C31.911640625 14.74953125 31.89359375 13.7646875 31.875 12.75 C31.851796875 11.77546875 31.82859375 10.8009375 31.8046875 9.796875 C32.001372193 6.980350201 32.554310836 5.390509642 34 3 C35 5 35 5 34.5625 6.6875 C33.063939711 12.848247855 34.21172779 17.217294025 37.0625 22.75 C38.78515625 26.109375 38.78515625 26.109375 40 29 C39.505 30.485 39.505 30.485 39 32 C38.505 31.01 38.505 31.01 38 30 C37.67 31.98 37.34 33.96 37 36 C36.67 36 36.34 36 36 36 C35.34 30.72 34.68 25.44 34 20 C32.205625 20.33 30.41125 20.66 28.5625 21 C18.749218126 22.597243771 11.517787001 21.988763021 2 19 C1.276835937 19.848847656 1.276835937 19.848847656 0.5390625 20.71484375 C-0.092578125 21.448320313 -0.72421875 22.181796875 -1.375 22.9375 C-2.001484375 23.668398438 -2.62796875 24.399296875 -3.2734375 25.15234375 C-5 27 -5 27 -7 28 C-5.804650881 25.174629355 -4.438759587 23.329249262 -2.4375 20.9375 C1.55936163 16.120769318 1.263827249 11.966554712 1 6 C0.718188393 3.992092301 0.407431836 1.986230201 0 0 Z " fill="#4C4940" transform="translate(77,58)" />
<path d="M0 0 C-0.542695313 0.230742187 -1.085390625 0.461484375 -1.64453125 0.69921875 C-4.922637604 2.193562728 -7.512906369 3.482463017 -10 6.125 C-11.571143457 10.64203744 -12.015483838 14.283918618 -11 19 C-9.419418501 22.130171203 -7.772172111 25.07744235 -5.846435547 28.001708984 C-3.372082079 31.841336978 -2.417579769 34.433295914 -3 39 C-4.5 40.875 -4.5 40.875 -6 42 C-5.896875 40.88625 -5.79375 39.7725 -5.6875 38.625 C-5.637400201 33.033862476 -8.280280672 28.740082258 -11 24 C-11.193359375 24.782460938 -11.38671875 25.564921875 -11.5859375 26.37109375 C-11.846328125 27.383007812 -12.10671875 28.394921875 -12.375 29.4375 C-12.630234375 30.446835937 -12.88546875 31.456171875 -13.1484375 32.49609375 C-14 35 -14 35 -16 36 C-15.835 35.236875 -15.67 34.47375 -15.5 33.6875 C-14.834378509 28.778541505 -14.920799218 23.945648859 -15 19 C-16.32 21.64 -17.64 24.28 -19 27 C-20 25 -20 25 -18.99609375 21.5859375 C-18.489058279 20.17772964 -17.968732421 18.774259254 -17.4375 17.375 C-17.163735352 16.651674805 -16.889970703 15.928349609 -16.607910156 15.183105469 C-14.248855966 9.195774679 -11.624864347 3.362765829 -6.0703125 -0.2578125 C-3.613673598 -1.138494371 -2.42082223 -0.864579368 0 0 Z " fill="#49463F" transform="translate(68,45)" />
<path d="M0 0 C1.294093972 3.693559878 0.701370362 6.51194935 0 10.3125 C-0.828127103 15.718014586 -1.160933897 20.808651458 -0.875 26.25 C-0.810546875 27.49265625 -0.74609375 28.7353125 -0.6796875 30.015625 C-0.327006809 33.115761601 -0.327006809 33.115761601 2.0546875 34.421875 C3.017617188 34.708046875 3.017617188 34.708046875 4 35 C2.515 35.495 2.515 35.495 1 36 C-2.290648895 33.26389607 -3.855421567 31.792076934 -4.63671875 27.51171875 C-4.661855469 25.618730469 -4.661855469 25.618730469 -4.6875 23.6875 C-4.801787764 19.423687267 -4.946078399 15.424709054 -6.1875 11.3125 C-7 8 -7 8 -6.25 5.625 C-4.670151757 3.571197284 -3.331474715 2.165737358 -1 1 C-0.67 0.67 -0.34 0.34 0 0 Z " fill="#E6E3D9" transform="translate(123,77)" />
<path d="M0 0 C2.800499051 4.802462228 2.749573876 9.584711178 2 15 C0.272260602 19.026632317 -1.647840431 21.401891461 -5.67578125 23.18359375 C-6.442773437 23.453007813 -7.209765625 23.722421875 -8 24 C-7.40704808 21.101458379 -6.801143905 18.206667799 -6.1875 15.3125 C-5.939033203 14.087568359 -5.939033203 14.087568359 -5.685546875 12.837890625 C-4.651904274 8.020726051 -3.612866165 3.612866165 0 0 Z " fill="#EAE8DD" transform="translate(135,49)" />
<path d="M0 0 C1.290711664 2.581423327 1.420445179 5.119236557 1.74609375 7.95703125 C2.04151191 10.334011216 2.488268417 12.66065562 3 15 C2.01 15.33 1.02 15.66 0 16 C0.415750619 20.850423883 2.416599784 22.843195048 6 26 C6.99 26.66 7.98 27.32 9 28 C-0.904157667 28.614740821 -0.904157667 28.614740821 -4.5625 26.5625 C-7.390075718 21.522038938 -8.371365214 15.75616082 -8 10 C-5.608671938 13.586992093 -5.345403694 16.424348061 -4.7578125 20.625 C-3.803756216 23.615032064 -2.667846554 24.424887644 0 26 C0.99 26.33 1.98 26.66 3 27 C2.4225 26.54625 1.845 26.0925 1.25 25.625 C-1.923070929 21.923083917 -3.721146879 17.699589077 -5 13 C-4.67 12.01 -4.34 11.02 -4 10 C-3.67 10.66 -3.34 11.32 -3 12 C-2.34 12 -1.68 12 -1 12 C-1.095390625 11.385117188 -1.19078125 10.770234375 -1.2890625 10.13671875 C-1.399921875 9.328476563 -1.51078125 8.520234375 -1.625 7.6875 C-1.741015625 6.886992187 -1.85703125 6.086484375 -1.9765625 5.26171875 C-2 3 -2 3 0 0 Z " fill="#545148" transform="translate(69,86)" />
</svg>