<?xml version='1.0' encoding='utf-8'?>
<svg xmlns="http://www.w3.org/2000/svg" version="1.1" width="159" height="142" viewBox="39.864432394 4.0 159.475567606 142.125">
<path d="M0 0 C0.66 0.33 1.32 0.66 2 1 C2.407292276 3.321565971 2.744386767 5.656878699 3 8 C1.520316759 7.859504824 0.041254836 7.712451738 -1.4375 7.5625 C-2.261210938 7.481289062 -3.084921875 7.400078125 -3.93359375 7.31640625 C-6 7 -6 7 -7 6 C-9.465571373 13.599761173 -9.19152362 20.945912061 -9.0625 28.875 C-9.026112874 31.497404364 -8.998027272 34.11962506 -8.97265625 36.7421875 C-8.945706787 38.472512207 -8.945706787 38.472512207 -8.918212891 40.237792969 C-9 43 -9 43 -10 45 C-18.053642853 45.336087105 -24.497832637 45.051729097 -32 42 C-33.397561716 52.230305296 -33.397561716 52.230305296 -31 62 C-28.465575938 64.228169859 -28.465575938 64.228169859 -26 66 C-26 66.99 -26 67.98 -26 69 C-28.625 69.5 -28.625 69.5 -32 69 C-36.672563572 64.886827842 -38.679391619 60.025520658 -39.578125 53.98046875 C-39.937996294 51.693065247 -39.937996294 51.693065247 -42 49 C-42 47.68 -42 46.36 -42 45 C-43.32 46.98 -44.64 48.96 -46 51 C-47.32 50.34 -48.64 49.68 -50 49 C-50 54.28 -50 59.56 -50 65 C-49.01 65 -48.02 65 -47 65 C-47.33 64.34 -47.66 63.68 -48 63 C-48.07033769 61.12620395 -48.084302197 59.249988984 -48.0625 57.375 C-48.053476562 56.372109375 -48.044453125 55.36921875 -48.03515625 54.3359375 C-48.017753906 53.179648437 -48.017753906 53.179648437 -48 52 C-47.67 52 -47.34 52 -47 52 C-46.97421875 52.663867188 -46.9484375 53.327734375 -46.921875 54.01171875 C-46.558019837 59.676282083 -46.008243967 62.733159648 -42 67 C-42 67.99 -42 68.98 -42 70 C-44.31 70 -46.62 70 -49 70 C-50.964080241 66.616500425 -51.559154071 63.478141325 -52.125 59.625 C-52.292578125 58.524140625 -52.46015625 57.42328125 -52.6328125 56.2890625 C-53.56921783 47.901261564 -53.56921783 47.901261564 -51.5 44.625 C-48.28967952 39.006939161 -50.083013636 33.375899184 -51.5625 27.4375 C-52.779837201 22.458533153 -53.498832858 18.924736532 -52 14 C-50.051308608 11.216155154 -48.265346277 10.632002505 -45 10 C-44.34 9.67 -43.68 9.34 -43 9 C-43.33 10.32 -43.66 11.64 -44 13 C-43.34 13 -42.68 13 -42 13 C-41.896875 12.236875 -41.79375 11.47375 -41.6875 10.6875 C-40.956359613 7.829405759 -40.23048087 6.842571154 -38 5 C-37.67 5.33 -37.34 5.66 -37 6 C-36.67 5.34 -36.34 4.68 -36 4 C-35.34 4 -34.68 4 -34 4 C-34 4.99 -34 5.98 -34 7 C-33.34 6.34 -32.68 5.68 -32 5 C-31.67 5.33 -31.34 5.66 -31 6 C-30.34 5.01 -29.68 4.02 -29 3 C-26.6875 2.63671875 -26.6875 2.63671875 -24 2.6875 C-23.113125 2.691367187 -22.22625 2.695234375 -21.3125 2.69921875 C-19 3 -19 3 -17 5 C-16.875 8.125 -16.875 8.125 -17 11 C-16.34 8.36 -15.68 5.72 -15 3 C-14.34 3 -13.68 3 -13 3 C-13 4.32 -13 5.64 -13 7 C-12.67 5.68 -12.34 4.36 -12 3 C-11.060273438 2.909121094 -11.060273438 2.909121094 -10.1015625 2.81640625 C-9.284296875 2.732617187 -8.46703125 2.648828125 -7.625 2.5625 C-6.812890625 2.481289062 -6.00078125 2.400078125 -5.1640625 2.31640625 C-2.957271949 2.109098861 -2.957271949 2.109098861 -1 1 C-0.505 1.495 -0.505 1.495 0 2 C0 1.34 0 0.68 0 0 Z " fill="#C4C2B9" transform="translate(134,51)" />
<path d="M0 0 C1.267148437 0.327421875 2.534296875 0.65484375 3.83984375 0.9921875 C9.123400302 2.166311178 14.171826552 2.227830161 19.5625 2.125 C20.475800781 2.115976562 21.389101563 2.106953125 22.330078125 2.09765625 C24.55367319 2.074372532 26.776686772 2.041677104 29 2 C31.513206119 6.525768595 31.353115192 10.926022149 31.390625 15.98046875 C31.563337658 21.075492157 32.523490538 24.230855062 36 28 C38.804777002 28.721048147 38.804777002 28.721048147 41.75 28.375 C42.73484375 28.320859375 43.7196875 28.26671875 44.734375 28.2109375 C45.48203125 28.141328125 46.2296875 28.07171875 47 28 C45.515 28.495 45.515 28.495 44 29 C43.266762039 31.015083582 43.266762039 31.015083582 43 33 C41.68 32.67 40.36 32.34 39 32 C39.66 32 40.32 32 41 32 C41 31.34 41 30.68 41 30 C39.68 30.33 38.36 30.66 37 31 C37.495 32.485 37.495 32.485 38 34 C38.99 34.495 38.99 34.495 40 35 C40.726939039 36.978889607 41.398162512 38.979545575 42 41 C41.01 41.33 40.02 41.66 39 42 C38 37.25 38 37.25 38 35 C37.34 35.66 36.68 36.32 36 37 C36.320413972 39.602805681 36.320413972 39.602805681 37 42 C32.594668489 42.577748395 28.443215104 43 24 43 C24 41.02 24 39.04 24 37 C23.01 37 22.02 37 21 37 C21.495 39.475 21.495 39.475 22 42 C21.01 42.495 21.01 42.495 20 43 C19.34 42.01 18.68 41.02 18 40 C17.34 40 16.68 40 16 40 C16 40.66 16 41.32 16 42 C9.25 43.125 9.25 43.125 7 42 C7 41.34 7 40.68 7 40 C6.34 40 5.68 40 5 40 C4.67 40.66 4.34 41.32 4 42 C4.33 40.35 4.66 38.7 5 37 C3.515 37.495 3.515 37.495 2 38 C2 39.32 2 40.64 2 42 C0.948125 41.649375 -0.10375 41.29875 -1.1875 40.9375 C-4.809228292 39.741970456 -4.809228292 39.741970456 -7.6875 40.625 C-8.450625 40.74875 -9.21375 40.8725 -10 41 C-12 39.3125 -12 39.3125 -14 37 C-17.312017105 34.213704566 -17.312017105 34.213704566 -21 32 C-21 31.34 -21 30.68 -21 30 C-20.34 30 -19.68 30 -19 30 C-19 29.34 -19 28.68 -19 28 C-19.66 28 -20.32 28 -21 28 C-20.67 23.71 -20.34 19.42 -20 15 C-19.67 15 -19.34 15 -19 15 C-18.939414063 15.60328125 -18.878828125 16.2065625 -18.81640625 16.828125 C-18.732617187 17.62734375 -18.648828125 18.4265625 -18.5625 19.25 C-18.440683594 20.433359375 -18.440683594 20.433359375 -18.31640625 21.640625 C-18.02365007 23.823646392 -17.579355813 25.877318197 -17 28 C-14.69 28 -12.38 28 -10 28 C-11.522060087 25.370987122 -12.843659638 23.156340362 -15 21 C-15 21.66 -15 22.32 -15 23 C-15.99 23 -16.98 23 -18 23 C-18.33 17.39 -18.66 11.78 -19 6 C-16.525 6.99 -16.525 6.99 -14 8 C-12.68 6.02 -11.36 4.04 -10 2 C-9 4 -9 4 -8.5625 6.25 C-7.216124231 12.832281537 -4.939821003 21.24313533 0 26 C3.101973975 26.80946422 3.101973975 26.80946422 6 27 C4.841228017 24.155741497 3.707241529 22.72152243 1.4375 20.5625 C-2.048422119 16.897812644 -1.919766801 14.470941988 -2.1875 9.5625 C-2.000326491 6.006203326 -1.288561691 3.301939333 0 0 Z " fill="#EAE7DC" transform="translate(102,93)" />
<path d="M0 0 C0.66 0.33 1.32 0.66 2 1 C2.407292276 3.321565971 2.744386767 5.656878699 3 8 C1.520316759 7.859504824 0.041254836 7.712451738 -1.4375 7.5625 C-2.261210938 7.481289062 -3.084921875 7.400078125 -3.93359375 7.31640625 C-6 7 -6 7 -7 6 C-9.465571373 13.599761173 -9.19152362 20.945912061 -9.0625 28.875 C-9.026112874 31.497404364 -8.998027272 34.11962506 -8.97265625 36.7421875 C-8.945706787 38.472512207 -8.945706787 38.472512207 -8.918212891 40.237792969 C-9 43 -9 43 -10 45 C-12.041363949 45.054517138 -14.083158557 45.093024854 -16.125 45.125 C-17.261953125 45.148203125 -18.39890625 45.17140625 -19.5703125 45.1953125 C-23.109742263 44.993750441 -25.767222611 44.448514498 -29 43 C-32.515450209 32.453649374 -25.023935358 15.268075369 -22 5 C-21.67 4.34 -21.34 3.68 -21 3 C-20.34 3 -19.68 3 -19 3 C-17 5 -17 5 -16.875 8.125 C-16.91625 9.07375 -16.9575 10.0225 -17 11 C-16.34 8.36 -15.68 5.72 -15 3 C-14.34 3 -13.68 3 -13 3 C-13 4.32 -13 5.64 -13 7 C-12.67 5.68 -12.34 4.36 -12 3 C-11.060273438 2.909121094 -11.060273438 2.909121094 -10.1015625 2.81640625 C-9.284296875 2.732617187 -8.46703125 2.648828125 -7.625 2.5625 C-6.812890625 2.481289062 -6.00078125 2.400078125 -5.1640625 2.31640625 C-2.957271949 2.109098861 -2.957271949 2.109098861 -1 1 C-0.67 1.33 -0.34 1.66 0 2 C0 1.34 0 0.68 0 0 Z " fill="#A5A39B" transform="translate(134,51)" />
<path d="M0 0 C0.66 0 1.32 0 2 0 C3.18306728 2.36613456 3.13354608 3.86780736 3.125 6.5 C3.128867187 7.69109375 3.128867187 7.69109375 3.1328125 8.90625 C3 11 3 11 2 13 C2.886875 12.505 3.77375 12.01 4.6875 11.5 C7.875862376 10.056213264 9.581875457 9.698400776 13 10 C13 11.32 13 12.64 13 14 C9.817880374 17.109798725 7.363261507 19.13683305 3 20 C3.023203125 20.640664063 3.04640625 21.281328125 3.0703125 21.94140625 C3.184408634 27.409870958 2.797919036 31.830982772 1 37 C0.34 36.01 -0.32 35.02 -1 34 C-1.99 34.99 -2.98 35.98 -4 37 C-4.66 36.67 -5.32 36.34 -6 36 C-6 35.01 -6 34.02 -6 33 C-6.66 34.32 -7.32 35.64 -8 37 C-10.25 36.875 -10.25 36.875 -13 36 C-15.94423498 32.635160023 -17.126480774 29.820461511 -17.8125 25.5 C-18.66564295 20.79191483 -20.705507662 19.129259869 -24.4453125 16.3515625 C-26 15 -26 15 -26.9375 12.125 C-26.958125 11.42375 -26.97875 10.7225 -27 10 C-23.670742937 10.391677302 -22.092916767 10.925213334 -19.4375 13.0625 C-14.395311165 15.90446098 -9.663946942 15.329938657 -4 15 C-4.12375 13.515 -4.12375 13.515 -4.25 12 C-4.287906918 7.365879334 -2.282852853 3.923653341 0 0 Z " fill="#4D4C45" transform="translate(163,14)" />
<path d="M0 0 C2.31 0 4.62 0 7 0 C6.396955963 2.583599835 5.7926153 5.166885116 5.1875 7.75 C5.006628418 8.524807129 4.825756836 9.299614258 4.639404297 10.097900391 C3.59197039 14.562546992 2.483365953 19.003279931 1.3125 23.4375 C-0.001579293 28.600974612 -0.659203972 33.688282597 -1 39 C-1.99 39 -2.98 39 -4 39 C-5.397561716 49.230305296 -5.397561716 49.230305296 -3 59 C-0.465575938 61.228169859 -0.465575938 61.228169859 2 63 C2 63.99 2 64.98 2 66 C-0.625 66.5 -0.625 66.5 -4 66 C-8.672563572 61.886827842 -10.679391619 57.025520658 -11.578125 50.98046875 C-11.937996294 48.693065247 -11.937996294 48.693065247 -14 46 C-13.764842676 43.021340567 -13.158091146 41.241933679 -11.51953125 38.734375 C-9.787041633 35.61678443 -9.335578297 33.150517511 -8.875 29.625 C-8.721601562 28.48546875 -8.568203125 27.3459375 -8.41015625 26.171875 C-8.274804687 25.12515625 -8.139453125 24.0784375 -8 23 C-7.773109506 21.624622574 -7.544523803 20.249520759 -7.3125 18.875 C-6.790629516 15.933294749 -6.790629516 15.933294749 -8 13 C-7.34 12.01 -6.68 11.02 -6 10 C-5.67 10.66 -5.34 11.32 -5 12 C-3.35 8.04 -1.7 4.08 0 0 Z " fill="#9E9B94" transform="translate(106,54)" />
<path d="M0 0 C1.718237315 2.505762751 3.070847088 5.132838289 4.5 7.8125 C4.995 8.534375 5.49 9.25625 6 10 C6.99 10 7.98 10 9 10 C11 10 13 10 15 10 C16.626515218 13.253030436 16.114531555 16.392256017 16 20 C15.67 20.33 15.34 20.66 15 21 C14.635577673 22.660146155 14.300271168 24.327060636 14 26 C13.34 26 12.68 26 12 26 C12.33 26.33 12.66 26.66 13 27 C13.040807829 28.999583637 13.042543563 31.00045254 13 33 C12.34 33 11.68 33 11 33 C10.67 33.66 10.34 34.32 10 35 C8.373051853 32.908209525 6.946373428 30.900407795 5.6875 28.5625 C3.056843685 24.56779967 -0.33275572 21.795450373 -4.64453125 19.73828125 C-7 18 -7 18 -7.70703125 15.08203125 C-7.741835938 14.003085938 -7.776640625 12.924140625 -7.8125 11.8125 C-7.884042969 10.182480469 -7.884042969 10.182480469 -7.95703125 8.51953125 C-7.971210937 7.688085937 -7.985390625 6.856640625 -8 6 C-5.981143186 9.897271414 -4.509942398 13.881975279 -3 18 C-2.34 18 -1.68 18 -1 18 C-1.45375 17.443125 -1.9075 16.88625 -2.375 16.3125 C-5.4087931 11.99517905 -6.576005551 8.299251066 -6 3 C-4.040620032 0.20088576 -3.500829479 0 0 0 Z " fill="#9B998E" transform="translate(145,43)" />
<path d="M0 0 C0.33 0 0.66 0 1 0 C1.362372629 1.623189793 1.714651567 3.248635805 2.0625 4.875 C2.259726562 5.779921875 2.456953125 6.68484375 2.66015625 7.6171875 C3 10 3 10 2 12 C-0.31 12 -2.62 12 -5 12 C-5.33 12.99 -5.66 13.98 -6 15 C-5.01 15.66 -4.02 16.32 -3 17 C-5.31 16.67 -7.62 16.34 -10 16 C-10 16.66 -10 17.32 -10 18 C-8.72125 18.0825 -7.4425 18.165 -6.125 18.25 C-0.736029426 18.840220587 4.200137738 20.476262898 9 23 C9.33 23.66 9.66 24.32 10 25 C9.287148438 24.795039062 8.574296875 24.590078125 7.83984375 24.37890625 C2.560232507 22.893793532 -2.547111158 21.605876538 -8 21 C-3.05 22.98 -3.05 22.98 2 25 C-0.54702616 26.27351308 -1.428294501 25.80191925 -4.125 25.0625 C-4.849453125 24.867851562 -5.57390625 24.673203125 -6.3203125 24.47265625 C-6.874609375 24.316679687 -7.42890625 24.160703125 -8 24 C-8.33 24.99 -8.66 25.98 -9 27 C-7.68 27 -6.36 27 -5 27 C-5.33 26.34 -5.66 25.68 -6 25 C3.486486486 27.675675676 3.486486486 27.675675676 7 32 C7.992709888 33.00723735 8.991585303 34.008486108 10 35 C8.582085925 34.54554036 7.165719538 34.086250559 5.75 33.625 C4.566640625 33.242148437 4.566640625 33.242148437 3.359375 32.8515625 C1 32 1 32 -1.109375 30.8984375 C-3.102729285 29.785395466 -3.102729285 29.785395466 -6 30 C-4.35 30.33 -2.7 30.66 -1 31 C-1 31.33 -1 31.66 -1 32 C-3.97 32 -6.94 32 -10 32 C-10 32.66 -10 33.32 -10 34 C-9.03578125 33.976796875 -8.0715625 33.95359375 -7.078125 33.9296875 C-5.183203125 33.902617187 -5.183203125 33.902617187 -3.25 33.875 C-1.99703125 33.851796875 -0.7440625 33.82859375 0.546875 33.8046875 C3.728204925 33.984626975 5.365218961 34.310014182 8 36 C6.515 36.495 6.515 36.495 5 37 C4.34 36.67 3.68 36.34 3 36 C0.795636 35.770496807 -1.413921727 35.589240666 -3.625 35.4375 C-4.813515625 35.353710937 -6.00203125 35.269921875 -7.2265625 35.18359375 C-8.599414063 35.092714844 -8.599414063 35.092714844 -10 35 C-10 35.66 -10 36.32 -10 37 C-6.37 37 -2.74 37 1 37 C1 37.33 1 37.66 1 38 C-2.63 38 -6.26 38 -10 38 C-10 39.98 -10 41.96 -10 44 C-9.030625 43.979375 -8.06125 43.95875 -7.0625 43.9375 C-4 44 -4 44 -3 45 C-2.959361679 46.666171151 -2.957278999 48.333880948 -3 50 C-3.66 49.01 -4.32 48.02 -5 47 C-8.567695525 46.26393501 -8.567695525 46.26393501 -12 46 C-12.049848699 41.874061568 -12.085929568 37.748242479 -12.109863281 33.622070312 C-12.119852484 32.221648577 -12.133448542 30.821247324 -12.150878906 29.420898438 C-12.330774002 14.584844035 -12.330774002 14.584844035 -10 8 C-9.34 7.34 -8.68 6.68 -8 6 C-8 6.99 -8 7.98 -8 9 C-5.03 9.33 -2.06 9.66 1 10 C0.67 9.34 0.34 8.68 0 8 C-0.134154724 5.327637905 -0.043185405 2.677495116 0 0 Z " fill="#524F45" transform="translate(136,49)" />
<path d="M0 0 C0.66 0 1.32 0 2 0 C3.18306728 2.36613456 3.13354608 3.86780736 3.125 6.5 C3.127578125 7.2940625 3.13015625 8.088125 3.1328125 8.90625 C3 11 3 11 2 13 C2.886875 12.505 3.77375 12.01 4.6875 11.5 C7.875862376 10.056213264 9.581875457 9.698400776 13 10 C13 11.32 13 12.64 13 14 C9.817880374 17.109798725 7.363261507 19.13683305 3 20 C3.023203125 20.640664063 3.04640625 21.281328125 3.0703125 21.94140625 C3.184408634 27.409870958 2.797919036 31.830982772 1 37 C0.34 36.01 -0.32 35.02 -1 34 C-1.99 34.99 -2.98 35.98 -4 37 C-4.66 36.67 -5.32 36.34 -6 36 C-6.389320335 34.010140511 -6.718879362 32.008004556 -7 30 C-7.33 29.01 -7.66 28.02 -8 27 C-7.83988879 24.298768936 -7.395593922 21.681247691 -7 19 C-6.67 19 -6.34 19 -6 19 C-5.34 21.64 -4.68 24.28 -4 27 C-2.68 26.01 -1.36 25.02 0 24 C-0.66 21.69 -1.32 19.38 -2 17 C-4.97 16.67 -7.94 16.34 -11 16 C-11 15.67 -11 15.34 -11 15 C-8.69 15 -6.38 15 -4 15 C-4.0825 14.01 -4.165 13.02 -4.25 12 C-4.287906918 7.365879334 -2.282852853 3.923653341 0 0 Z " fill="#7D7A73" transform="translate(163,14)" />
<path d="M0 0 C10.55808656 -0.369020501 10.55808656 -0.369020501 15 2 C16.205143754 11.339864093 16.092136547 20.602072164 16 30 C15.01 29.67 14.02 29.34 13 29 C13.33 30.32 13.66 31.64 14 33 C11.10589348 31.702641905 9.000462538 30.48211371 7 28 C6.567626953 25.731689453 6.567626953 25.731689453 6.48828125 23.11328125 C6.452832031 22.175488281 6.417382812 21.237695312 6.380859375 20.271484375 C6.358300781 19.295019531 6.335742187 18.318554687 6.3125 17.3125 C6.261259766 15.830400391 6.261259766 15.830400391 6.208984375 14.318359375 C6.12649462 11.87901947 6.057349322 9.440039366 6 7 C3.03 6.505 3.03 6.505 0 6 C0 4.02 0 2.04 0 0 Z " fill="#9D9A91" transform="translate(126,87)" />
<path d="M0 0 C0.6290625 0.132773438 1.258125 0.265546875 1.90625 0.40234375 C3.19015625 0.667246094 3.19015625 0.667246094 4.5 0.9375 C5.411367187 1.125703125 6.322734375 1.31390625 7.26171875 1.5078125 C9.636825811 1.9347219 11.909513873 2.156282929 14.3125 2.3125 C18.822507292 3.153348817 20.132294497 4.495026607 23 8 C23.763125 8.86625 24.52625 9.7325 25.3125 10.625 C27 13 27 13 27 16 C26.01 16 25.02 16 24 16 C24.99 16.99 25.98 17.98 27 19 C22.207307251 19 19.705390854 15.915717394 16 13 C20.455 16.96 20.455 16.96 25 21 C24.01 21.99 23.02 22.98 22 24 C21.236875 23.360625 20.47375 22.72125 19.6875 22.0625 C15.496955641 18.846500841 11.973998975 18.768972411 6.8125 18.4375 C5.540195313 18.353710937 4.267890625 18.269921875 2.95703125 18.18359375 C1.981210937 18.123007812 1.005390625 18.062421875 0 18 C0 16.68 0 15.36 0 14 C7.048116434 11.963877475 11.710120521 14.712883961 18 18 C16.047835655 16.047835655 14.468000469 15.151733552 12 14 C12.33 13.67 12.66 13.34 13 13 C10.525 12.01 10.525 12.01 8 11 C8 11.33 8 11.66 8 12 C5.36 12 2.72 12 0 12 C-0.33 11.01 -0.66 10.02 -1 9 C-0.67 8.34 -0.34 7.68 0 7 C2.31 7.33 4.62 7.66 7 8 C4.69 7.01 2.38 6.02 0 5 C3.339649852 3.899697728 5.650635922 4.123669449 9.0625 4.875 C10.348339844 5.149570313 10.348339844 5.149570313 11.66015625 5.4296875 C14 6 14 6 17 7 C8.702776896 3.753557327 8.702776896 3.753557327 0 2 C0 1.34 0 0.68 0 0 Z " fill="#9D9A90" transform="translate(126,65)" />
<path d="M0 0 C0.33 0 0.66 0 1 0 C1.153943154 4.249537932 0.715238716 7.671504258 -0.53125 11.73046875 C-0.847070312 12.780410156 -1.162890625 13.830351562 -1.48828125 14.912109375 C-1.822148438 15.992988281 -2.156015625 17.073867187 -2.5 18.1875 C-3.159821385 20.346568046 -3.816235573 22.506681169 -4.46875 24.66796875 C-4.762011719 25.619538574 -5.055273438 26.571108398 -5.357421875 27.551513672 C-6.126921432 30.061722538 -6.126921432 30.061722538 -6 33 C-5.01 32.505 -5.01 32.505 -4 32 C-4.99 34.475 -4.99 34.475 -6 37 C-9 37 -9 37 -11 36 C-11 41.28 -11 46.56 -11 52 C-10.01 52 -9.02 52 -8 52 C-8.33 51.34 -8.66 50.68 -9 50 C-9.07033769 48.12620395 -9.084302197 46.249988984 -9.0625 44.375 C-9.053476562 43.372109375 -9.044453125 42.36921875 -9.03515625 41.3359375 C-9.017753906 40.179648437 -9.017753906 40.179648437 -9 39 C-8.67 39 -8.34 39 -8 39 C-7.97421875 39.663867188 -7.9484375 40.327734375 -7.921875 41.01171875 C-7.558019837 46.676282083 -7.008243967 49.733159648 -3 54 C-3 54.99 -3 55.98 -3 57 C-5.31 57 -7.62 57 -10 57 C-11.964080241 53.616500425 -12.559154071 50.478141325 -13.125 46.625 C-13.292578125 45.524140625 -13.46015625 44.42328125 -13.6328125 43.2890625 C-14.56921783 34.901261564 -14.56921783 34.901261564 -12.5 31.625 C-10.480628682 28.091100193 -10.535891881 24.937433392 -11 21 C-11.661525561 18.665203902 -12.327413334 16.331633776 -13 14 C-12.625 11.5625 -12.625 11.5625 -12 10 C-11.01 11.485 -11.01 11.485 -10 13 C-9.01 9.37 -8.02 5.74 -7 2 C-5.993018781 6.027924876 -6.136230637 7.790786675 -6.9375 11.75 C-7.132148438 12.73484375 -7.326796875 13.7196875 -7.52734375 14.734375 C-7.683320313 15.48203125 -7.839296875 16.2296875 -8 17 C-7.01 14.03 -6.02 11.06 -5 8 C-3.640505122 12.078484635 -4.85513897 15.176809452 -5.9375 19.1875 C-6.132792969 19.937089844 -6.328085938 20.686679688 -6.529296875 21.458984375 C-7.012143745 23.307934586 -7.505106328 25.154237763 -8 27 C-5.706999231 23.130561202 -4.954722684 18.966004705 -4 14.625 C-2.893665574 9.646495081 -1.712244398 4.815687369 0 0 Z " fill="#545147" transform="translate(95,64)" />
<path d="M0 0 C2.64881193 2.64881193 3.554073069 5.56592354 5 9 C5.99 10.485 5.99 10.485 7 12 C8.32 12 9.64 12 11 12 C11 11.01 11 10.02 11 9 C11.99 8.67 12.98 8.34 14 8 C14.495 9.98 14.495 9.98 15 12 C15.66 12 16.32 12 17 12 C17.33 11.01 17.66 10.02 18 9 C21.522124958 14.558353449 20.154061033 21.798676909 19 28 C18.197242456 31.001472356 17.21283592 33.90320223 16.125 36.8125 C15.740214844 37.843588867 15.740214844 37.843588867 15.34765625 38.895507812 C13.945035957 42.389723945 13.209232932 43.860511378 10 46 C10.37125 44.906875 10.7425 43.81375 11.125 42.6875 C11.558125 40.8621875 11.558125 40.8621875 12 39 C11.34 38.01 10.68 37.02 10 36 C11.485 36.495 11.485 36.495 13 37 C13 36.236875 13 35.47375 13 34.6875 C13 32.791666667 13 30.895833333 13 29 C13.66 29.33 14.32 29.66 15 30 C15 28.02 15 26.04 15 24 C15.33 24 15.66 24 16 24 C16 21.03 16 18.06 16 15 C14.02 15 12.04 15 10 15 C9.67 15.66 9.34 16.32 9 17 C5.712111762 13.889835451 3.162640122 10.98381075 1 7 C0.34 7.66 -0.32 8.32 -1 9 C-1.33 8.01 -1.66 7.02 -2 6 C-4.245833333 7.845833333 -4.245833333 7.845833333 -4.375 10.625 C-3.759995275 16.160042522 -1.050680488 20.423979267 2 25 C-0.3125 24.5 -0.3125 24.5 -3 23 C-5.242856931 19.022433412 -6 15.556704367 -6 11 C-6.66 11 -7.32 11 -8 11 C-8.33 13.64 -8.66 16.28 -9 19 C-9.556875 18.505 -10.11375 18.01 -10.6875 17.5 C-13.381629827 15.752456329 -14.853750074 15.737812506 -18 16 C-18.33 15.34 -18.66 14.68 -19 14 C-18.454726562 13.887851563 -17.909453125 13.775703125 -17.34765625 13.66015625 C-10.058462442 11.753751716 -5.815611809 7.664793356 -1 2 C-0.67 1.34 -0.34 0.68 0 0 Z " fill="#3B392F" transform="translate(144,38)" />
<path d="M0 0 C1.5625 1.25 1.5625 1.25 3 3 C2.6875 5.1875 2.6875 5.1875 2 7 C2.66 7.33 3.32 7.66 4 8 C3.34 8 2.68 8 2 8 C2.66 11.3 3.32 14.6 4 18 C3.34 18.33 2.68 18.66 2 19 C2.99 19.66 3.98 20.32 5 21 C4.34 21 3.68 21 3 21 C3.2784375 22.0828125 3.2784375 22.0828125 3.5625 23.1875 C4.019953069 26.12826973 3.735163566 28.141030575 3 31 C1.68 31.33 0.36 31.66 -1 32 C-1.33 31.01 -1.66 30.02 -2 29 C-3.996653141 27.31461399 -3.996653141 27.31461399 -6 26 C-6.66 26.33 -7.32 26.66 -8 27 C-8.840986562 22.981953091 -9.054049445 19.98196457 -8 16 C-7.34 16.66 -6.68 17.32 -6 18 C-5.34 17.34 -4.68 16.68 -4 16 C-4.302719613 14.659384572 -4.638379715 13.325941046 -5 12 C-4.67 11.01 -4.34 10.02 -4 9 C-3.01 9 -2.02 9 -1 9 C-1.020625 7.700625 -1.04125 6.40125 -1.0625 5.0625 C-1.083994545 3.708343667 -1.071481986 2.352439172 -1 1 C-0.67 0.67 -0.34 0.34 0 0 Z " fill="#BAB7AB" transform="translate(185,49)" />
<path d="M0 0 C7.743358622 0.031735076 12.396226847 1.620876996 18 7 C20.906984957 10.010541673 23.356921563 13.116360058 25 17 C25.66 17 26.32 17 27 17 C25.125 21.75 25.125 21.75 24 24 C23.34 24 22.68 24 22 24 C22 23.34 22 22.68 22 22 C20.68 21.34 19.36 20.68 18 20 C18.99 20 19.98 20 21 20 C21.33 19.01 21.66 18.02 22 17 C21.4225 16.590078125 20.845 16.18015625 20.25 15.7578125 C19.13625 14.949570313 19.13625 14.949570313 18 14.125 C17.2575 13.591328125 16.515 13.05765625 15.75 12.5078125 C15.1725 12.010234375 14.595 11.51265625 14 11 C14 10.34 14 9.68 14 9 C12.741875 8.855625 11.48375 8.71125 10.1875 8.5625 C7.573328774 8.262513138 5.525601076 7.841867025 3 7 C3 6.34 3 5.68 3 5 C0.03 4.505 0.03 4.505 -3 4 C-1.68 3.67 -0.36 3.34 1 3 C0.67 2.01 0.34 1.02 0 0 Z " fill="#747167" transform="translate(130,60)" />
<path d="M0 0 C0.66 0 1.32 0 2 0 C1.25 7.75 1.25 7.75 -1 10 C-1.33 8.35 -1.66 6.7 -2 5 C-3.32 8.96 -4.64 12.92 -6 17 C-6.66 17 -7.32 17 -8 17 C-9.485 22.445 -9.485 22.445 -11 28 C-11.33 28 -11.66 28 -12 28 C-11.609375 25.021484375 -11.609375 25.021484375 -11.21875 22.04296875 C-10.946767003 19.845282937 -10.946767003 19.845282937 -11 17 C-11.66 19.64 -12.32 22.28 -13 25 C-15 22 -15 22 -15 19 C-15.66 19 -16.32 19 -17 19 C-16.912537159 17.561387058 -16.804346524 16.124024916 -16.6875 14.6875 C-16.629492188 13.886992187 -16.571484375 13.086484375 -16.51171875 12.26171875 C-15.90994116 9.601953676 -15.121428793 8.666836909 -13 7 C-10.9375 6.375 -10.9375 6.375 -9 6 C-8.34 5.67 -7.68 5.34 -7 5 C-7.33 6.32 -7.66 7.64 -8 9 C-7.34 9 -6.68 9 -6 9 C-5.896875 8.236875 -5.79375 7.47375 -5.6875 6.6875 C-4.956359613 3.829405759 -4.23048087 2.842571154 -2 1 C-1.67 1.33 -1.34 1.66 -1 2 C-0.67 1.34 -0.34 0.68 0 0 Z " fill="#9E9B94" transform="translate(98,55)" />
<path d="M0 0 C0.66 0.33 1.32 0.66 2 1 C2.407292276 3.321565971 2.744386767 5.656878699 3 8 C1.520316759 7.859504824 0.041254836 7.712451738 -1.4375 7.5625 C-2.261210938 7.481289062 -3.084921875 7.400078125 -3.93359375 7.31640625 C-6 7 -6 7 -7 6 C-9.47168075 13.629124835 -9.226353044 21.039887868 -9.125 29 C-9.114949777 30.360670494 -9.105827539 31.721348175 -9.09765625 33.08203125 C-9.074208199 36.388206474 -9.041388565 39.694008805 -9 43 C-10.32 43 -11.64 43 -13 43 C-13.141413933 32.943898076 -12.729045589 23.024376853 -12 13 C-12.33 13 -12.66 13 -13 13 C-12.67 9.7 -12.34 6.4 -12 3 C-9.721354167 2.772135417 -7.442708333 2.544270833 -5.1640625 2.31640625 C-2.957271949 2.109098861 -2.957271949 2.109098861 -1 1 C-0.67 1.33 -0.34 1.66 0 2 C0 1.34 0 0.68 0 0 Z " fill="#C1BFB6" transform="translate(134,51)" />
<path d="M0 0 C1.816103873 2.360935034 3.435085621 4.707014135 5 7.25 C5.66 8.1575 6.32 9.065 7 10 C7.99 10 8.98 10 10 10 C12 10 14 10 16 10 C17.626515218 13.253030436 17.114531555 16.392256017 17 20 C16.67 20.33 16.34 20.66 16 21 C15.635577673 22.660146155 15.300271168 24.327060636 15 26 C8.395455173 19.995868339 2.885094626 12.485572428 0 4 C0 2.68 0 1.36 0 0 Z " fill="#D6D4C9" transform="translate(144,43)" />
<path d="M0 0 C0.99 0 1.98 0 3 0 C4 1 5 2 6 3 C9.796926926 5.724653307 9.796926926 5.724653307 14 7 C14 8.98 14 10.96 14 13 C13.34 13 12.68 13 12 13 C12.2784375 13.928125 12.2784375 13.928125 12.5625 14.875 C13 17 13 17 12 19 C14.715491543 21.306719154 14.715491543 21.306719154 17.1875 20.625 C17.785625 20.41875 18.38375 20.2125 19 20 C19.66 20.99 20.32 21.98 21 23 C20.34 24.32 19.68 25.64 19 27 C16.75 26.875 16.75 26.875 14 26 C11.05576502 22.635160023 9.873519226 19.820461511 9.1875 15.5 C8.33435705 10.79191483 6.294492338 9.129259869 2.5546875 6.3515625 C1 5 1 5 0.0625 2.125 C0.041875 1.42375 0.02125 0.7225 0 0 Z " fill="#94938A" transform="translate(136,24)" />
<path d="M0 0 C0.99 0 1.98 0 3 0 C3 0.66 3 1.32 3 2 C3.66 2 4.32 2 5 2 C5.130208333 3.985677083 5.260416667 5.971354167 5.390625 7.95703125 C6.243320961 10.815749118 7.414523793 11.570487558 10 13 C15.065486967 13.849349023 19.610670884 13.66794669 24.25 11.4375 C27.647946782 8.425683534 30.874021462 5.292450768 34 2 C34.66 2.33 35.32 2.66 36 3 C35.525625 3.350625 35.05125 3.70125 34.5625 4.0625 C32.321261748 6.841635432 32.328823424 9.514471701 32 13 C31.67 12.01 31.34 11.02 31 10 C30.48953125 10.433125 29.9790625 10.86625 29.453125 11.3125 C23.907441766 15.560257371 19.726993401 16.843853507 12.73828125 16.453125 C7.439885625 15.576357678 4.949354167 13.149218202 1.625 9.125 C-0.135567606 5.739293066 -0.35773958 3.75626559 0 0 Z " fill="#36332B" transform="translate(50,59)" />
<path d="M0 0 C0.33 0 0.66 0 1 0 C1.362372629 1.623189793 1.714651567 3.248635805 2.0625 4.875 C2.259726562 5.779921875 2.456953125 6.68484375 2.66015625 7.6171875 C3 10 3 10 2 12 C-0.31 12 -2.62 12 -5 12 C-5.33 12.99 -5.66 13.98 -6 15 C-5.01 15.66 -4.02 16.32 -3 17 C-5.31 16.67 -7.62 16.34 -10 16 C-10 16.66 -10 17.32 -10 18 C-8.72125 18.0825 -7.4425 18.165 -6.125 18.25 C-0.736029426 18.840220587 4.200137738 20.476262898 9 23 C9.33 23.66 9.66 24.32 10 25 C9.333554687 24.795039062 8.667109375 24.590078125 7.98046875 24.37890625 C1.305789466 22.427846152 -5.061169749 21.389218718 -12 21 C-11.912454491 19.249089814 -11.804266268 17.499204486 -11.6875 15.75 C-11.629492188 14.77546875 -11.571484375 13.8009375 -11.51171875 12.796875 C-10.953634762 9.746583888 -10.036302241 8.292887242 -8 6 C-8 6.99 -8 7.98 -8 9 C-5.03 9.33 -2.06 9.66 1 10 C0.67 9.34 0.34 8.68 0 8 C-0.134154724 5.327637905 -0.043185405 2.677495116 0 0 Z " fill="#57554B" transform="translate(136,49)" />
<path d="M0 0 C0.66 1.32 1.32 2.64 2 4 C2.66 4 3.32 4 4 4 C4.33 3.01 4.66 2.02 5 1 C8.522124958 6.558353449 7.154061033 13.798676909 6 20 C5.197242456 23.001472356 4.21283592 25.90320223 3.125 28.8125 C2.868476563 29.499892578 2.611953125 30.187285156 2.34765625 30.895507812 C0.945035957 34.389723945 0.209232932 35.860511378 -3 38 C-2.62875 36.906875 -2.2575 35.81375 -1.875 34.6875 C-1.58625 33.470625 -1.2975 32.25375 -1 31 C-1.66 30.01 -2.32 29.02 -3 28 C-2.01 28.33 -1.02 28.66 0 29 C0 28.236875 0 27.47375 0 26.6875 C0 24.791666667 0 22.895833333 0 21 C0.66 21.33 1.32 21.66 2 22 C2 20.02 2 18.04 2 16 C2.33 16 2.66 16 3 16 C3 13.03 3 10.06 3 7 C0.69 6.67 -1.62 6.34 -4 6 C-2.848266448 3.531999531 -1.952164345 1.952164345 0 0 Z " fill="#524F48" transform="translate(157,46)" />
<path d="M0 0 C1 2 1 2 0.4375 5.4375 C-0.405075085 9.098703094 -0.405075085 9.098703094 2 12 C2.589623155 14.333924988 3.008319174 16.670904015 3.4375 19.0390625 C3.623125 19.686171875 3.80875 20.33328125 4 21 C4.66 21.33 5.32 21.66 6 22 C5.67515625 21.302617188 5.3503125 20.605234375 5.015625 19.88671875 C3.890347845 16.688334836 3.733199498 14.193600957 3.75 10.8125 C3.74484375 9.767070312 3.7396875 8.721640625 3.734375 7.64453125 C4 5 4 5 6 3 C5.965195313 4.069277344 5.965195313 4.069277344 5.9296875 5.16015625 C5.82419373 10.75886135 5.756095677 15.764223247 8 21 C10.534424062 23.228169859 10.534424062 23.228169859 13 25 C13 25.99 13 26.98 13 28 C10.375 28.5 10.375 28.5 7 28 C2.327436428 23.886827842 0.320608381 19.025520658 -0.578125 12.98046875 C-0.937996294 10.693065247 -0.937996294 10.693065247 -3 8 C-2.653581611 4.535816106 -1.96713413 2.950701194 0 0 Z " fill="#3D3A33" transform="translate(95,92)" />
<path d="M0 0 C1.508540583 2.896931915 2.723487202 5.820160262 3.875 8.875 C5.50494149 13.017257321 7.364842224 16.423714447 10 20 C9.34 20.99 8.68 21.98 8 23 C7.7525 22.360625 7.505 21.72125 7.25 21.0625 C6.216351152 18.815234312 6.216351152 18.815234312 4.0625 18.5 C3.381875 18.335 2.70125 18.17 2 18 C-1.311457468 14.433815034 -2.831095189 10.689048106 -3.3125 5.875 C-3 3 -3 3 -1.5 1.125 C-1.005 0.75375 -0.51 0.3825 0 0 Z " fill="#A6A498" transform="translate(142,43)" />
</svg>