<?xml version='1.0' encoding='utf-8'?>
<svg xmlns="http://www.w3.org/2000/svg" version="1.1" width="145" height="118" viewBox="1.375 8.0 145.7925 118.968232342">
<path d="M0 0 C1.32 0.33 2.64 0.66 4 1 C4 1.66 4 2.32 4 3 C4.99 3.33 5.98 3.66 7 4 C9.0078125 6.328125 9.0078125 6.328125 11.125 9.25 C11.828828125 10.20390625 12.53265625 11.1578125 13.2578125 12.140625 C15.015678877 15.025733044 15.872306659 16.644219009 16 20 C14.99609375 23.26953125 14.99609375 23.26953125 13.4375 26.8125 C13.165185547 27.433425293 12.892871094 28.054350586 12.612304688 28.694091797 C10.997396498 32.241420264 9.211077986 35.29843906 6.75 38.3125 C0.805702487 45.688408432 1.664170576 54.966188491 2 64 C2.018046875 64.864960938 2.03609375 65.729921875 2.0546875 66.62109375 C2.38574286 72.395088704 4.099181199 74.799118215 8 79 C8 79.99 8 80.98 8 82 C5.69 82 3.38 82 1 82 C-4.976522993 72.274366642 -5.152383054 64.25941458 -5 53 C-5.66 53 -6.32 53 -7 53 C-7.33 59.93 -7.66 66.86 -8 74 C-8.33 74 -8.66 74 -9 74 C-9.027006749 71.083271156 -9.046842368 68.166793227 -9.0625 65.25 C-9.070878906 64.425 -9.079257813 63.6 -9.087890625 62.75 C-9.091113281 61.95078125 -9.094335938 61.1515625 -9.09765625 60.328125 C-9.102893066 59.594970703 -9.108129883 58.861816406 -9.113525391 58.106445312 C-8.997257678 55.949116666 -8.55091196 54.083135849 -8 52 C-7.933754931 50.251130188 -7.914474046 48.499972524 -7.9375 46.75 C-7.946523437 45.85796875 -7.955546875 44.9659375 -7.96484375 44.046875 C-7.976445313 43.37140625 -7.988046875 42.6959375 -8 42 C-9.32 42 -10.64 42 -12 42 C-11.838464355 42.703586426 -11.676928711 43.407172852 -11.510498047 44.132080078 C-10.594786566 49.276442949 -10.815442927 54.475575778 -10.8125 59.6875 C-10.800253906 60.840566406 -10.788007812 61.993632813 -10.775390625 63.181640625 C-10.773457031 64.280566406 -10.771523438 65.379492188 -10.76953125 66.51171875 C-10.765422363 67.516784668 -10.761313477 68.521850586 -10.757080078 69.557373047 C-11 72 -11 72 -13 74 C-13 63.44 -13 52.88 -13 42 C-17.95 42 -22.9 42 -28 42 C-28.99 41.34 -29.98 40.68 -31 40 C-29.360412415 34.767273666 -27.610479653 29.848033642 -25 25 C-24.34 25 -23.68 25 -23 25 C-23 22.69 -23 20.38 -23 18 C-25.233398958 18.832549126 -25.233398958 18.832549126 -25.8515625 21.28515625 C-26.234414063 22.659941406 -26.234414063 22.659941406 -26.625 24.0625 C-26.885390625 24.981601563 -27.14578125 25.900703125 -27.4140625 26.84765625 C-27.607421875 27.557929687 -27.80078125 28.268203125 -28 29 C-28.33 29 -28.66 29 -29 29 C-29.495 22.565 -29.495 22.565 -30 16 C-30.99 16.99 -31.98 17.98 -33 19 C-32.34 19 -31.68 19 -31 19 C-30.67 20.65 -30.34 22.3 -30 24 C-30.99 24 -31.98 24 -33 24 C-34.4296875 21.953125 -34.4296875 21.953125 -35.875 19.25 C-39.001405468 13.771051804 -42.19898339 10.578229604 -48 8 C-48 7.67 -48 7.34 -48 7 C-39.42 7.66 -30.84 8.32 -22 9 C-22.33 11.31 -22.66 13.62 -23 16 C-21.02 15.34 -19.04 14.68 -17 14 C-16.67 14.66 -16.34 15.32 -16 16 C-14.107866307 13.614266214 -12.976082173 11.928246518 -12 9 C-11.34 9 -10.68 9 -10 9 C-10.165 10.27875 -10.33 11.5575 -10.5 12.875 C-11.261399665 19.771105534 -11.363486164 26.182569178 -10 33 C-10 29.04 -10 25.08 -10 21 C-9.34 21.33 -8.68 21.66 -8 22 C-7.951015625 21.361914062 -7.90203125 20.723828125 -7.8515625 20.06640625 C-7.776796875 19.240117188 -7.70203125 18.413828125 -7.625 17.5625 C-7.555390625 16.738789063 -7.48578125 15.915078125 -7.4140625 15.06640625 C-7.277421875 14.384492188 -7.14078125 13.702578125 -7 13 C-6.34 12.67 -5.68 12.34 -5 12 C-4.324717772 13.579678069 -3.660103062 15.163919032 -3 16.75 C-2.62875 17.63171875 -2.2575 18.5134375 -1.875 19.421875 C-1 22 -1 22 -1 26 C0.32 25.67 1.64 25.34 3 25 C2.34 23.35 1.68 21.7 1 20 C0.34 20 -0.32 20 -1 20 C-0.95875 18.948125 -0.9175 17.89625 -0.875 16.8125 C-0.992965583 13.214549717 -1.302290634 11.127359358 -3 8 C-3.99 7.34 -4.98 6.68 -6 6 C-5.195625 5.38125 -4.39125 4.7625 -3.5625 4.125 C-0.961254807 2.258359591 -0.961254807 2.258359591 0 0 Z " fill="#848274" transform="translate(105,34)" />
<path d="M0 0 C0.33 0 0.66 0 1 0 C1 2.333333333 1 4.666666667 1 7 C1.66 7 2.32 7 3 7 C3.33 6.34 3.66 5.68 4 5 C4.66 5.33 5.32 5.66 6 6 C6.33 5.34 6.66 4.68 7 4 C9.567804711 7.8415976 9.226888821 11.813917502 9.125 16.25 C9.115976562 16.995078125 9.106953125 17.74015625 9.09765625 18.5078125 C9.074183582 20.338680587 9.038315252 22.169382383 9 24 C8.67 24 8.34 24 8 24 C7.01 20.04 6.02 16.08 5 12 C4.34 12 3.68 12 3 12 C3.474375 12.78375 3.94875 13.5675 4.4375 14.375 C7.47180747 21.41459333 7.642579054 27.849491972 5 35 C5.66 33.35 6.32 31.7 7 30 C7.99 30.33 8.98 30.66 10 31 C10.33 32.65 10.66 34.3 11 36 C10.67 36 10.34 36 10 36 C7.713718622 43.158238125 6.486807218 49.486331314 7 57 C7.061875 58.155 7.12375 59.31 7.1875 60.5 C7.751268108 63.234277438 7.751268108 63.234277438 10.4375 64.25 C11.283125 64.4975 12.12875 64.745 13 65 C13.66 65.66 14.32 66.32 15 67 C14.625 69.125 14.625 69.125 14 71 C10.875 71.5625 10.875 71.5625 7 71 C1.714808125 66.067966107 0.024972473 59.470055732 -1.359375 52.6015625 C-1.895984115 49.788054129 -1.895984115 49.788054129 -4 47 C-5.048823914 50.560713121 -5.303869528 54.055278973 -5.5625 57.75 C-5.646289063 58.92046875 -5.730078125 60.0909375 -5.81640625 61.296875 C-5.876992188 62.18890625 -5.937578125 63.0809375 -6 64 C-5.35546875 64.286171875 -4.7109375 64.57234375 -4.046875 64.8671875 C-2 66 -2 66 -1.25 68.125 C-1.1675 68.74375 -1.085 69.3625 -1 70 C-4.3125 70.3125 -4.3125 70.3125 -8 70 C-12.142173827 65.497213392 -11.820003555 59.353801536 -12.125 53.5625 C-12.2178125 52.538339844 -12.310625 51.514179687 -12.40625 50.458984375 C-12.809982578 43.033188742 -12.809982578 43.033188742 -10.477050781 40.057373047 C-8.578125 38.484375 -8.578125 38.484375 -6.661132812 37.229492188 C-4.115772427 35.345536441 -3.694364469 32.985767217 -3 30 C-2.67 29.67 -2.34 29.34 -2 29 C-2.372539062 28.01 -2.745078125 27.02 -3.12890625 26 C-8.016848055 12.554756178 -8.016848055 12.554756178 -6 6 C-4.625 4 -4.625 4 -3 3 C-2.01 3 -1.02 3 0 3 C0 2.01 0 1.02 0 0 Z " fill="#524F46" transform="translate(51,45)" />
<path d="M0 0 C1.32 0.33 2.64 0.66 4 1 C4 1.66 4 2.32 4 3 C4.99 3.33 5.98 3.66 7 4 C9.0078125 6.328125 9.0078125 6.328125 11.125 9.25 C11.828828125 10.20390625 12.53265625 11.1578125 13.2578125 12.140625 C14.958177967 14.931359355 15.728917439 16.76869587 16 20 C15 23 15 23 12 25 C11.320608261 26.995713233 10.654384413 28.995947734 10 31 C8.4375 32.69140625 8.4375 32.69140625 7 34 C6.951015625 33.275546875 6.90203125 32.55109375 6.8515625 31.8046875 C6.313235735 24.843565534 5.171040496 19.249205328 2 13 C2.300351562 13.975820312 2.600703125 14.951640625 2.91015625 15.95703125 C3.294724453 17.242051832 3.678814141 18.527215688 4.0625 19.8125 C4.261660156 20.455097656 4.460820313 21.097695313 4.666015625 21.759765625 C6.11328125 26.66015625 6.11328125 26.66015625 5 30 C4.67 29.67 4.34 29.34 4 29 C1.660752359 30.892941602 1.660752359 30.892941602 1.83984375 34.08203125 C1.872070312 35.313085938 1.904296875 36.544140625 1.9375 37.8125 C2.09982552 44.510192107 2.09982552 44.510192107 1.510986328 47.399414062 C0.630654302 51.879727843 0.773946184 56.384731797 0.75 60.9375 C0.729375 61.913964844 0.70875 62.890429688 0.6875 63.896484375 C0.657740838 69.38332996 0.937458039 73.236941319 4 78 C1.227829463 77.713223738 0.218382097 77.265526619 -1.57421875 75.0859375 C-3.587734511 70.727917085 -3.705371738 66.563380718 -4 61.8125 C-4.464651738 54.478394723 -5.606386609 47.965377332 -8 41 C-9.32 41 -10.64 41 -12 41 C-12.99 41 -13.98 41 -15 41 C-14.888749718 37.353613714 -14.758458292 33.708135678 -14.625 30.0625 C-14.57859375 28.530126953 -14.57859375 28.530126953 -14.53125 26.966796875 C-14.292142867 20.730085835 -13.551406998 15.047964679 -12 9 C-11.34 9 -10.68 9 -10 9 C-10.165 10.27875 -10.33 11.5575 -10.5 12.875 C-11.261399665 19.771105534 -11.363486164 26.182569178 -10 33 C-10 29.04 -10 25.08 -10 21 C-9.34 21.33 -8.68 21.66 -8 22 C-7.951015625 21.361914062 -7.90203125 20.723828125 -7.8515625 20.06640625 C-7.776796875 19.240117188 -7.70203125 18.413828125 -7.625 17.5625 C-7.555390625 16.738789063 -7.48578125 15.915078125 -7.4140625 15.06640625 C-7.277421875 14.384492188 -7.14078125 13.702578125 -7 13 C-6.34 12.67 -5.68 12.34 -5 12 C-4.324717772 13.579678069 -3.660103062 15.163919032 -3 16.75 C-2.62875 17.63171875 -2.2575 18.5134375 -1.875 19.421875 C-1 22 -1 22 -1 26 C0.32 25.67 1.64 25.34 3 25 C2.34 23.35 1.68 21.7 1 20 C0.34 20 -0.32 20 -1 20 C-0.95875 18.948125 -0.9175 17.89625 -0.875 16.8125 C-0.992965583 13.214549717 -1.302290634 11.127359358 -3 8 C-3.99 7.34 -4.98 6.68 -6 6 C-5.195625 5.38125 -4.39125 4.7625 -3.5625 4.125 C-0.961254807 2.258359591 -0.961254807 2.258359591 0 0 Z " fill="#A09E92" transform="translate(105,34)" />
<path d="M0 0 C0.66 0 1.32 0 2 0 C2.66 1.32 3.32 2.64 4 4 C7.032881611 4.228896725 9.975240951 4.366637461 13 4 C14.912567119 2.119221271 14.912567119 2.119221271 16 0 C16.99 0 17.98 0 19 0 C18.718725792 1.481178008 18.424662678 2.959932488 18.125 4.4375 C17.962578125 5.261210937 17.80015625 6.084921875 17.6328125 6.93359375 C17.423984375 7.615507812 17.21515625 8.297421875 17 9 C16.34 9.33 15.68 9.66 15 10 C15 9.01 15 8.02 15 7 C14.34 8.32 13.68 9.64 13 11 C13.66 11.33 14.32 11.66 15 12 C13.35 12 11.7 12 10 12 C10 11.34 10 10.68 10 10 C8.68 9.67 7.36 9.34 6 9 C6.33 8.34 6.66 7.68 7 7 C6.071875 6.7834375 6.071875 6.7834375 5.125 6.5625 C3 6 3 6 1 5 C1.495 9.95 1.495 9.95 2 15 C1.34 15 0.68 15 0 15 C0.66 17.31 1.32 19.62 2 22 C2 20.02 2 18.04 2 16 C3.32 16 4.64 16 6 16 C6.66 19.3 7.32 22.6 8 26 C9.98 26.33 11.96 26.66 14 27 C13.505 26.01 13.505 26.01 13 25 C12.01 25 11.02 25 10 25 C8.197698325 21.17010894 7.803777585 18.21878192 8 14 C11 13 11 13 13.1875 13.9375 C13.785625 14.288125 14.38375 14.63875 15 15 C14.34 15 13.68 15 13 15 C13 15.66 13 16.32 13 17 C13.99 17.33 14.98 17.66 16 18 C16.495 18.99 16.495 18.99 17 20 C17.99 20 18.98 20 20 20 C19.505 19.54625 19.01 19.0925 18.5 18.625 C17 17 17 17 17 15 C16.685215545 13.662166066 16.354123441 12.327962905 16 11 C23.895348837 18.613372093 23.895348837 18.613372093 24.25 23.3125 C24.1675 24.199375 24.085 25.08625 24 26 C20.770890585 27.883647159 17.507669771 28.697834852 13.90234375 29.53515625 C9.699305793 30.555721523 9.699305793 30.555721523 7 34 C6.4225 32.948125 5.845 31.89625 5.25 30.8125 C3.873335556 28.383670588 2.510808247 26.388510308 0.75 24.1875 C-1 22 -1 22 -1 20 C-1.639375 19.87625 -2.27875 19.7525 -2.9375 19.625 C-3.9584375 19.315625 -3.9584375 19.315625 -5 19 C-5.495 18.01 -5.495 18.01 -6 17 C-8.166666667 17.833333333 -8.166666667 17.833333333 -9 20 C-11.0625 21.125 -11.0625 21.125 -13 22 C-12.360625 22.515625 -11.72125 23.03125 -11.0625 23.5625 C-8.40685406 26.700990656 -8.221162586 28.945352583 -8 33 C-8.33 33.99 -8.66 34.98 -9 36 C-8.01 35.67 -7.02 35.34 -6 35 C-5.505 37.97 -5.505 37.97 -5 41 C-6.98 41.495 -6.98 41.495 -9 42 C-9.277148438 41.145351562 -9.554296875 40.290703125 -9.83984375 39.41015625 C-10.202070312 38.305429688 -10.564296875 37.200703125 -10.9375 36.0625 C-11.297148437 34.960351563 -11.656796875 33.858203125 -12.02734375 32.72265625 C-12.738566685 30.118765246 -12.738566685 30.118765246 -14 29 C-14.33 32.63 -14.66 36.26 -15 40 C-15.99 39.505 -15.99 39.505 -17 39 C-17 43.62 -17 48.24 -17 53 C-21.521573478 43.956853045 -20.580851386 34.539932802 -18 25 C-18.66 25 -19.32 25 -20 25 C-20.12375 25.969375 -20.2475 26.93875 -20.375 27.9375 C-20.684375 29.4534375 -20.684375 29.4534375 -21 31 C-21.66 31.33 -22.32 31.66 -23 32 C-23.655551192 34.527332351 -23.655551192 34.527332351 -24 37 C-24.33 37 -24.66 37 -25 37 C-25.33 35.02 -25.66 33.04 -26 31 C-26.99 31 -27.98 31 -29 31 C-29.33 32.32 -29.66 33.64 -30 35 C-30.66 34.34 -31.32 33.68 -32 33 C-31.693479552 30.057403696 -31.32728846 27.654576919 -30 25 C-31.03640625 25.023203125 -32.0728125 25.04640625 -33.140625 25.0703125 C-34.510409442 25.08907667 -35.880201701 25.107276177 -37.25 25.125 C-37.931914062 25.141757813 -38.613828125 25.158515625 -39.31640625 25.17578125 C-43.162452576 25.213121506 -45.66397731 24.861217292 -49 23 C-47.873560791 23.015710449 -47.873560791 23.015710449 -46.724365234 23.031738281 C-43.295444706 23.073518912 -39.86657793 23.099396218 -36.4375 23.125 C-34.665361328 23.150136719 -34.665361328 23.150136719 -32.857421875 23.17578125 C-24.825896398 23.22077579 -18.445650246 23.252011311 -12 18 C-11.34 18 -10.68 18 -10 18 C-9.773125 17.278125 -9.54625 16.55625 -9.3125 15.8125 C-8 13 -8 13 -5.5 10.625 C-2.560210607 7.538221138 -1.946066123 5.099619867 -1 1 C-0.67 0.67 -0.34 0.34 0 0 Z " fill="#3F3D34" transform="translate(113,18)" />
<path d="M0 0 C0.33 0 0.66 0 1 0 C1 2.333333333 1 4.666666667 1 7 C1.66 7 2.32 7 3 7 C3.33 6.34 3.66 5.68 4 5 C4.66 5.33 5.32 5.66 6 6 C6.33 5.34 6.66 4.68 7 4 C9.567804711 7.8415976 9.226888821 11.813917502 9.125 16.25 C9.115976562 16.995078125 9.106953125 17.74015625 9.09765625 18.5078125 C9.074183582 20.338680587 9.038315252 22.169382383 9 24 C8.67 24 8.34 24 8 24 C7.01 20.04 6.02 16.08 5 12 C4.34 12 3.68 12 3 12 C3.474375 12.78375 3.94875 13.5675 4.4375 14.375 C7.47180747 21.41459333 7.642579054 27.849491972 5 35 C5.66 33.35 6.32 31.7 7 30 C7.99 30.33 8.98 30.66 10 31 C10.33 32.65 10.66 34.3 11 36 C10.67 36 10.34 36 10 36 C9.731875 37.0725 9.46375 38.145 9.1875 39.25 C8.134251115 42.576049111 7.488370139 44.607336405 5 47 C3.68 47 2.36 47 1 47 C0.997421875 46.163398438 0.99484375 45.326796875 0.9921875 44.46484375 C0.753971489 37.294541814 -0.160531993 31.731020289 -3 25.1875 C-5.392559178 19.657401622 -7.096692208 15.091609124 -7 9 C-5.5625 5.4375 -5.5625 5.4375 -4 3 C-2.68 3 -1.36 3 0 3 C0 2.01 0 1.02 0 0 Z " fill="#7A7A6E" transform="translate(51,45)" />
<path d="M0 0 C1.9375 1.125 1.9375 1.125 4 3 C4.6875 6.0625 4.6875 6.0625 5 9 C5.495 9.99 5.495 9.99 6 11 C6.226220812 12.703638216 6.408884731 14.413287005 6.5625 16.125 C6.646289063 17.035078125 6.730078125 17.94515625 6.81640625 18.8828125 C6.876992188 19.581484375 6.937578125 20.28015625 7 21 C7.433125 19.3603125 7.433125 19.3603125 7.875 17.6875 C9 14 9 14 11 11 C11.66 11 12.32 11 13 11 C11.634410566 16.384324054 9.790161482 20.543754114 6.4375 25 C0.298275806 33.431719304 0.622263741 41.838894642 1 52 C1.027070313 53.297441406 1.027070313 53.297441406 1.0546875 54.62109375 C1.38574286 60.395088704 3.099181199 62.799118215 7 67 C7 67.99 7 68.98 7 70 C4.69 70 2.38 70 0 70 C-5.976522993 60.274366642 -6.152383054 52.25941458 -6 41 C-6.66 41 -7.32 41 -8 41 C-8.33 47.93 -8.66 54.86 -9 62 C-9.33 62 -9.66 62 -10 62 C-10.027006749 59.083271156 -10.046842368 56.166793227 -10.0625 53.25 C-10.070878906 52.425 -10.079257813 51.6 -10.087890625 50.75 C-10.092724609 49.551171875 -10.092724609 49.551171875 -10.09765625 48.328125 C-10.105511475 47.228393555 -10.105511475 47.228393555 -10.113525391 46.106445312 C-9.997257678 43.949116666 -9.55091196 42.083135849 -9 40 C-8.933754931 38.251130188 -8.914474046 36.499972524 -8.9375 34.75 C-8.946523438 33.85796875 -8.955546875 32.9659375 -8.96484375 32.046875 C-8.976445313 31.37140625 -8.988046875 30.6959375 -9 30 C-10.32 30 -11.64 30 -13 30 C-12.838464355 30.703586426 -12.676928711 31.407172852 -12.510498047 32.132080078 C-11.594786566 37.276442949 -11.815442927 42.475575778 -11.8125 47.6875 C-11.800253906 48.840566406 -11.788007812 49.993632813 -11.775390625 51.181640625 C-11.772490234 52.830029297 -11.772490234 52.830029297 -11.76953125 54.51171875 C-11.765422363 55.516784668 -11.761313477 56.521850586 -11.757080078 57.557373047 C-12 60 -12 60 -14 62 C-14 51.44 -14 40.88 -14 30 C-18.29 30 -22.58 30 -27 30 C-27 29.67 -27 29.34 -27 29 C-18.585 28.505 -18.585 28.505 -10 28 C-9.67 27.34 -9.34 26.68 -9 26 C-5.593640141 34.912757108 -4.342198474 43.27472315 -3.771972656 52.750732422 C-3.316811708 59.349099057 -3.316811708 59.349099057 0 65 C0.66 65 1.32 65 2 65 C1.51015625 64.401875 1.0203125 63.80375 0.515625 63.1875 C-1.717715333 58.490578062 -1.357435645 54.130052056 -1.25 49 C-1.24484375 48.01515625 -1.2396875 47.0303125 -1.234375 46.015625 C-1.185683082 41.511622589 -0.893430472 37.416521648 0 33 C-0.008265961 29.160461288 -0.128510042 25.333334349 -0.2578125 21.49609375 C0.010185874 17.86187338 0.505910093 16.565909249 3 14 C3.33 14.33 3.66 14.66 4 15 C3.566875 13.627148437 3.566875 13.627148437 3.125 12.2265625 C2.568125 10.443789063 2.568125 10.443789063 2 8.625 C1.62875 7.441640625 1.2575 6.25828125 0.875 5.0390625 C0 2 0 2 0 0 Z " fill="#4F4D43" transform="translate(106,46)" />
<path d="M0 0 C0 0.66 0 1.32 0 2 C-0.9075 2.20625 -1.815 2.4125 -2.75 2.625 C-6.913430396 4.386451321 -7.990316485 5.98063297 -10 10 C-12.017821029 16.528244506 -10.130443615 21.481799414 -7.654541016 27.632568359 C-6.45752842 30.752583921 -5.885876621 32.56501665 -6.74609375 35.84375 C-7.96499772 37.939809163 -9.170398165 39.419889324 -11 41 C-10.835 40.484375 -10.67 39.96875 -10.5 39.4375 C-9.106361173 32.643510721 -10.598710195 27.303385738 -13 21 C-13.230742187 21.9178125 -13.461484375 22.835625 -13.69921875 23.78125 C-16.532529142 34.442560248 -19.72497556 42.473130949 -29 49 C-33.019839727 51.21091185 -36.446723603 51.331147374 -41 51 C-43.4375 50 -43.4375 50 -45 49 C-44.625 46.5625 -44.625 46.5625 -44 44 C-40.433099272 42.216549636 -36.177012481 43.163498818 -32.26171875 43.35546875 C-28.240059394 42.917180126 -26.794822071 41.882312153 -24 39 C-20.215584212 32.712663717 -18.68563672 25.901248118 -17.5625 18.75 C-16.284357805 10.774730041 -13.80282173 5.968055985 -7.4375 1 C-4.766814658 -0.095665781 -2.859534217 -0.245102933 0 0 Z " fill="#403F36" transform="translate(56,41)" />
<path d="M0 0 C0.33 0.99 0.66 1.98 1 3 C0.01 3.33 -0.98 3.66 -2 4 C-2 4.66 -2 5.32 -2 6 C-1.34 6 -0.68 6 0 6 C0.66 7.98 1.32 9.96 2 12 C2 10.02 2 8.04 2 6 C3.32 6 4.64 6 6 6 C6.66 9.3 7.32 12.6 8 16 C9.98 16.33 11.96 16.66 14 17 C13.67 16.34 13.34 15.68 13 15 C12.01 15 11.02 15 10 15 C8.197698325 11.17010894 7.803777585 8.21878192 8 4 C11 3 11 3 13.1875 3.9375 C14.0846875 4.4634375 14.0846875 4.4634375 15 5 C14.34 5 13.68 5 13 5 C13 5.66 13 6.32 13 7 C13.99 7.33 14.98 7.66 16 8 C16.33 8.66 16.66 9.32 17 10 C17.99 10 18.98 10 20 10 C19.505 9.54625 19.01 9.0925 18.5 8.625 C17 7 17 7 17 5 C16.685215545 3.662166066 16.354123441 2.327962905 16 1 C23.895348837 8.613372093 23.895348837 8.613372093 24.25 13.3125 C24.1675 14.199375 24.085 15.08625 24 16 C20.770890585 17.883647159 17.507669771 18.697834852 13.90234375 19.53515625 C9.699305793 20.555721523 9.699305793 20.555721523 7 24 C6.4225 22.948125 5.845 21.89625 5.25 20.8125 C3.873335556 18.383670588 2.510808247 16.388510308 0.75 14.1875 C-1 12 -1 12 -1 10 C-2.32 9.67 -3.64 9.34 -5 9 C-5.6875 6.1875 -5.6875 6.1875 -6 3 C-4.11242974 0.168644609 -3.468621058 0 0 0 Z " fill="#4D4A41" transform="translate(113,28)" />
<path d="M0 0 C1.32 0.33 2.64 0.66 4 1 C4 1.66 4 2.32 4 3 C4.99 3.33 5.98 3.66 7 4 C9.0078125 6.328125 9.0078125 6.328125 11.125 9.25 C11.828828125 10.20390625 12.53265625 11.1578125 13.2578125 12.140625 C14.958177967 14.931359355 15.728917439 16.76869587 16 20 C15 23 15 23 12 25 C11.320608261 26.995713233 10.654384413 28.995947734 10 31 C8.4375 32.69140625 8.4375 32.69140625 7 34 C6.951015625 33.275546875 6.90203125 32.55109375 6.8515625 31.8046875 C6.444635291 26.542697728 5.851217339 21.9751466 4 17 C3.87625 15.989375 3.7525 14.97875 3.625 13.9375 C2.600122494 9.12057572 0.010610156 6.673740104 -4 4 C-3.01 3.34 -2.02 2.68 -1 2 C-0.67 1.34 -0.34 0.68 0 0 Z " fill="#888579" transform="translate(105,34)" />
<path d="M0 0 C2.357735936 2.357735936 2.942012682 3.993749482 3.1328125 7.3046875 C3.130234375 8.152890625 3.12765625 9.00109375 3.125 9.875 C3.127578125 10.718046875 3.13015625 11.56109375 3.1328125 12.4296875 C3 15 3 15 2.504394531 17.342529297 C1.649197338 21.848251196 1.774057343 26.363597725 1.75 30.9375 C1.729375 31.913964844 1.70875 32.890429688 1.6875 33.896484375 C1.657740838 39.38332996 1.937458039 43.236941319 5 48 C2.227829463 47.713223738 1.218382097 47.265526619 -0.57421875 45.0859375 C-2.587734511 40.727917085 -2.705371738 36.563380718 -3 31.8125 C-3.41363406 25.283662398 -4.225252466 19.466785641 -6.360595703 13.259033203 C-7.349966337 9.763559177 -7.200547036 6.609846648 -7 3 C-6.67 3.99 -6.34 4.98 -6 6 C-5.34 6 -4.68 6 -4 6 C-3.34 7.98 -2.68 9.96 -2 12 C-1.34 12 -0.68 12 0 12 C0 8.04 0 4.08 0 0 Z " fill="#BBB9AC" transform="translate(104,64)" />
<path d="M0 0 C3.222153241 3.222153241 4.418803863 5.587820873 5 10 C4.883764843 14.505821659 4.427197355 18.718407934 3 23 C3.66 21.35 4.32 19.7 5 18 C5.99 18.33 6.98 18.66 8 19 C8.33 20.65 8.66 22.3 9 24 C8.67 24 8.34 24 8 24 C7.731875 25.0725 7.46375 26.145 7.1875 27.25 C6.134251115 30.576049111 5.488370139 32.607336405 3 35 C1.68 35 0.36 35 -1 35 C-1.060585938 34.03578125 -1.121171875 33.0715625 -1.18359375 32.078125 C-1.267382813 30.81484375 -1.351171875 29.5515625 -1.4375 28.25 C-1.518710938 26.99703125 -1.599921875 25.7440625 -1.68359375 24.453125 C-1.895101564 21.175747558 -1.895101564 21.175747558 -2.5625 18.75 C-3.236074653 16.055701389 -2.548296408 13.680560216 -2 11 C-1.67 11 -1.34 11 -1 11 C-0.67 7.37 -0.34 3.74 0 0 Z " fill="#9A998C" transform="translate(53,57)" />
<path d="M0 0 C8.58 0.66 17.16 1.32 26 2 C24 8.666666667 22 15.333333333 20 22 C19.67 22 19.34 22 19 22 C18.505 15.565 18.505 15.565 18 9 C17.01 9.99 16.02 10.98 15 12 C15.66 12 16.32 12 17 12 C17.33 13.65 17.66 15.3 18 17 C17.01 17 16.02 17 15 17 C13.5703125 14.953125 13.5703125 14.953125 12.125 12.25 C8.998594532 6.771051804 5.80101661 3.578229604 0 1 C0 0.67 0 0.34 0 0 Z " fill="#ADAB9F" transform="translate(57,41)" />
<path d="M0 0 C3.465 1.485 3.465 1.485 7 3 C7 3.66 7 4.32 7 5 C7.99 5.33 8.98 5.66 10 6 C10 6.66 10 7.32 10 8 C10.99 7.67 11.98 7.34 13 7 C12.67 5.68 12.34 4.36 12 3 C12.99 3 13.98 3 15 3 C15.33 2.34 15.66 1.68 16 1 C16.12375 2.2375 16.2475 3.475 16.375 4.75 C16.757463048 7.876219699 17.305495231 10.288792369 19 13 C18.67 13.33 18.34 13.66 18 14 C19.2375 14.7115625 19.2375 14.7115625 20.5 15.4375 C21.7375 16.2109375 21.7375 16.2109375 23 17 C23 17.33 23 17.66 23 18 C19.956132755 18.082266682 17.928246518 17.976082173 15 17 C15 16.01 15 15.02 15 14 C14.34 13.67 13.68 13.34 13 13 C13 12.34 13 11.68 13 11 C11.68 10.67 10.36 10.34 9 10 C9.060060784 11.459477049 9.148868895 12.917792721 9.25 14.375 C9.29640625 15.187109375 9.3428125 15.99921875 9.390625 16.8359375 C9.792209198 19.188389271 9.792209198 19.188389271 12.046875 20.2890625 C12.69140625 20.523671875 13.3359375 20.75828125 14 21 C14 21.66 14 22.32 14 23 C12.02 23 10.04 23 8 23 C6.197698325 19.17010894 5.803777585 16.21878192 6 12 C4.68 12 3.36 12 2 12 C2.33 14.31 2.66 16.62 3 19 C2.01 18.34 1.02 17.68 0 17 C-0.1875 13.875 -0.1875 13.875 0 11 C0.66 11 1.32 11 2 11 C1.67 10.113125 1.34 9.22625 1 8.3125 C0.087778574 5.290766527 -0.183309585 3.116262938 0 0 Z " fill="#A3A298" transform="translate(113,22)" />
<path d="M0 0 C5.232061709 7.848092563 5.586404651 17.164845571 6.083984375 26.3203125 C6.50371134 32.086258684 7.40999438 37.291363823 11 42 C12.485 42.495 12.485 42.495 14 43 C14 42.01 14 41.02 14 40 C14.99 40.33 15.98 40.66 17 41 C17 41.99 17 42.98 17 44 C14.69 44 12.38 44 10 44 C4.023477007 34.274366642 3.847616946 26.25941458 4 15 C3.34 15 2.68 15 2 15 C1.67 21.93 1.34 28.86 1 36 C0.67 36 0.34 36 0 36 C-0.027006749 33.083271156 -0.046842368 30.166793227 -0.0625 27.25 C-0.070878906 26.425 -0.079257813 25.6 -0.087890625 24.75 C-0.092724609 23.551171875 -0.092724609 23.551171875 -0.09765625 22.328125 C-0.105511475 21.228393555 -0.105511475 21.228393555 -0.113525391 20.106445312 C0.002742322 17.949116666 0.44908804 16.083135849 1 14 C1.066245069 12.251130188 1.085525954 10.499972524 1.0625 8.75 C1.053476562 7.85796875 1.044453125 6.9659375 1.03515625 6.046875 C1.023554687 5.37140625 1.011953125 4.6959375 1 4 C-0.32 4 -1.64 4 -3 4 C-2.838464355 4.703586426 -2.676928711 5.407172852 -2.510498047 6.132080078 C-1.594786566 11.276442949 -1.815442927 16.475575778 -1.8125 21.6875 C-1.800253906 22.840566406 -1.788007812 23.993632812 -1.775390625 25.181640625 C-1.772490234 26.830029297 -1.772490234 26.830029297 -1.76953125 28.51171875 C-1.765422363 29.516784668 -1.761313477 30.521850586 -1.757080078 31.557373047 C-2 34 -2 34 -4 36 C-4 25.44 -4 14.88 -4 4 C-8.29 4 -12.58 4 -17 4 C-17 3.67 -17 3.34 -17 3 C-8.585 2.505 -8.585 2.505 0 2 C0 1.34 0 0.68 0 0 Z " fill="#353328" transform="translate(96,72)" />
<path d="M0 0 C2.714870364 3.151054522 3.600913599 5.764668906 4.4375 9.8125 C5.607563001 14.897295061 7.138576243 18.658529472 10 23 C8.5 24.5625 8.5 24.5625 6 26 C3.225624566 25.968232342 0.747135331 25.503641477 -2 25 C-2 24.67 -2 24.34 -2 24 C-0.35 24 1.3 24 3 24 C1.13433512 20.372060019 1.13433512 20.372060019 -2 18 C-2.054348004 15.937795196 -2.092949605 13.875171843 -2.125 11.8125 C-2.148203125 10.663945313 -2.17140625 9.515390625 -2.1953125 8.33203125 C-2.004841517 5.082596275 -1.393601275 2.913394791 0 0 Z " fill="#E6E3D8" transform="translate(47,91)" />
<path d="M0 0 C1.32 0 2.64 0 4 0 C5.606190882 4.818572646 5.210515401 9.157938397 4 14 C3.859664217 15.439734997 3.755831426 16.883371488 3.68359375 18.328125 C3.641699219 19.12734375 3.599804687 19.9265625 3.556640625 20.75 C3.517324219 21.575 3.478007812 22.4 3.4375 23.25 C3.394316406 24.09046875 3.351132812 24.9309375 3.306640625 25.796875 C3.200914572 27.864406707 3.099987045 29.932182805 3 32 C3.797929688 32.112148437 4.595859375 32.224296875 5.41796875 32.33984375 C6.696074219 32.666621094 6.696074219 32.666621094 8 33 C9.3125 35.5625 9.3125 35.5625 10 38 C9 39 9 39 6.125 39.375 C3 39 3 39 1.322998047 36.971923828 C-0.32350986 33.273281875 -0.378533254 30.041378722 -0.29296875 26.07421875 C-0.288723907 25.32662796 -0.284479065 24.57903717 -0.280105591 23.808792114 C-0.263390562 21.434652679 -0.225753468 19.061380328 -0.1875 16.6875 C-0.172443806 15.072277936 -0.158757034 13.457042487 -0.146484375 11.841796875 C-0.113510797 7.894200117 -0.061779687 3.947246779 0 0 Z " fill="#9D9A91" transform="translate(93,76)" />
<path d="M0 0 C0.66 0 1.32 0 2 0 C2.66 1.32 3.32 2.64 4 4 C7.032881611 4.228896725 9.975240951 4.366637461 13 4 C14.912567119 2.119221271 14.912567119 2.119221271 16 0 C16.99 0 17.98 0 19 0 C18.718725792 1.481178008 18.424662678 2.959932488 18.125 4.4375 C17.881367187 5.673066406 17.881367187 5.673066406 17.6328125 6.93359375 C17.423984375 7.615507812 17.21515625 8.297421875 17 9 C16.01 9.495 16.01 9.495 15 10 C15 9.01 15 8.02 15 7 C14.34 8.32 13.68 9.64 13 11 C13.66 11.33 14.32 11.66 15 12 C13.35 12 11.7 12 10 12 C10 11.34 10 10.68 10 10 C8.68 9.67 7.36 9.34 6 9 C6.33 8.34 6.66 7.68 7 7 C6.071875 6.7834375 6.071875 6.7834375 5.125 6.5625 C3 6 3 6 1 5 C1.33 8.3 1.66 11.6 2 15 C0.68 15.33 -0.64 15.66 -2 16 C-2 14 -2 14 0 12 C0 11.34 0 10.68 0 10 C-2.629012878 11.522060087 -4.843659638 12.843659638 -7 15 C-7 14.01 -7 13.02 -7 12 C-6.38125 11.4225 -5.7625 10.845 -5.125 10.25 C-2.425743316 7.391963511 -1.924694489 4.7699083 -1 1 C-0.67 0.67 -0.34 0.34 0 0 Z " fill="#35322C" transform="translate(113,18)" />
<path d="M0 0 C0 0.99 0 1.98 0 3 C-0.767636719 3.674824219 -0.767636719 3.674824219 -1.55078125 4.36328125 C-3.295717899 5.946306842 -3.295717899 5.946306842 -2.85546875 8.48046875 C-2.524824219 9.820449219 -2.524824219 9.820449219 -2.1875 11.1875 C-1.974804687 12.088554687 -1.762109375 12.989609375 -1.54296875 13.91796875 C-1.363789062 14.605039062 -1.184609375 15.292109375 -1 16 C-0.34 14.02 0.32 12.04 1 10 C2.231041554 13.684005835 1.907672521 16.914749762 1.5625 20.75 C1.460664063 21.92046875 1.358828125 23.0909375 1.25390625 24.296875 C1.170117187 25.18890625 1.086328125 26.0809375 1 27 C1.966796875 27.429257812 1.966796875 27.429257812 2.953125 27.8671875 C5 29 5 29 5.75 31.125 C5.87375 32.053125 5.87375 32.053125 6 33 C2.6875 33.3125 2.6875 33.3125 -1 33 C-5.177377899 28.489997163 -4.746254169 22.3071546 -5 16.5 C-5.076054687 15.467460937 -5.152109375 14.434921875 -5.23046875 13.37109375 C-5.584370541 5.958285958 -5.584370541 5.958285958 -3.8828125 3.16796875 C-2.5 1.78125 -2.5 1.78125 0 0 Z " fill="#444136" transform="translate(44,82)" />
<path d="M0 0 C0.33 0.99 0.66 1.98 1 3 C0.01 3.33 -0.98 3.66 -2 4 C-2 4.66 -2 5.32 -2 6 C-1.34 6 -0.68 6 0 6 C0.66 7.98 1.32 9.96 2 12 C2 10.02 2 8.04 2 6 C3.32 6 4.64 6 6 6 C6.66 9.3 7.32 12.6 8 16 C8.99 16 9.98 16 11 16 C11 16.99 11 17.98 11 19 C10.34 19 9.68 19 9 19 C8.67 20.65 8.34 22.3 8 24 C7.570742188 23.425078125 7.141484375 22.85015625 6.69921875 22.2578125 C5.607708548 20.807484001 4.506876496 19.364098644 3.39453125 17.9296875 C2.872460937 17.251640625 2.350390625 16.57359375 1.8125 15.875 C1.282695312 15.191796875 0.752890625 14.50859375 0.20703125 13.8046875 C-1 12 -1 12 -1 10 C-2.32 9.67 -3.64 9.34 -5 9 C-5.6875 6.1875 -5.6875 6.1875 -6 3 C-4.11242974 0.168644609 -3.468621058 0 0 0 Z " fill="#5F5C51" transform="translate(113,28)" />
<path d="M0 0 C0.33 0 0.66 0 1 0 C1.66 3.96 2.32 7.92 3 12 C3.66 12 4.32 12 5 12 C5 12.66 5 13.32 5 14 C6.175625 14.433125 6.175625 14.433125 7.375 14.875 C10 16 10 16 12 18 C11.625 20.125 11.625 20.125 11 22 C7.75 22.375 7.75 22.375 4 22 C-0.404858693 17.237990602 -1.690093626 11.486446709 -2.25 5.1875 C-2 3 -2 3 0 0 Z " fill="#78756A" transform="translate(54,94)" />
<path d="M0 0 C1.990978458 2.986467687 2.941249258 5.596872616 4 9 C4.33 8.01 4.66 7.02 5 6 C6.940620023 10.851550059 7 14.817205979 7 20 C7.897971135 23.368212715 7.897971135 23.368212715 9 26 C9.99 25.34 10.98 24.68 12 24 C10.332488517 27.941390778 7.77289351 30.789281199 5 34 C3.465549064 30.931098128 4.450157109 28.299057345 5 25 C2.756374267 24.7715451 2.756374267 24.7715451 0.875 27 C0.25625 27.66 -0.3625 28.32 -1 29 C-0.771835938 28.394140625 -0.543671875 27.78828125 -0.30859375 27.1640625 C2.336363976 19.454544466 2.863772552 13.014279343 -0.625 5.5 C-1.305625 4.2625 -1.305625 4.2625 -2 3 C-1 1 -1 1 0 0 Z " fill="#545346" transform="translate(55,54)" />
<path d="M0 0 C2 1 2 1 3 3.875 C3.475738482 7.71990281 2.161874248 9.810306895 0.1875 13.0625 C-3.638478909 19.43617252 -4.380623863 25.684954246 -5 33 C-5.33 33 -5.66 33 -6 33 C-6.514190174 29.818954835 -6.950892255 26.631700963 -7.375 23.4375 C-7.593496094 22.094619141 -7.593496094 22.094619141 -7.81640625 20.724609375 C-8.644227436 14.077692208 -8.644227436 14.077692208 -6.748535156 10.906494141 C-5.125 9.0625 -5.125 9.0625 -3.46875 7.5 C-1.335021275 5.320872792 -0.710161813 2.911663432 0 0 Z " fill="#CFCDC1" transform="translate(48,75)" />
<path d="M0 0 C1.059609375 0.006767578 1.059609375 0.006767578 2.140625 0.013671875 C3.885452751 0.025461252 5.630236997 0.043396755 7.375 0.0625 C6.385 1.3825 5.395 2.7025 4.375 4.0625 C5.365 4.0625 6.355 4.0625 7.375 4.0625 C2.71253005 7.760320995 -0.673267686 8.375749069 -6.625 8.0625 C-9.0625 7.0625 -9.0625 7.0625 -10.625 6.0625 C-10.25 3.625 -10.25 3.625 -9.625 1.0625 C-6.559668356 -0.470165822 -3.357457281 -0.040264709 0 0 Z " fill="#2A2922" transform="translate(21.625,83.9375)" />
</svg>