<?xml version='1.0' encoding='utf-8'?>
<svg xmlns="http://www.w3.org/2000/svg" version="1.1" width="177" height="116" viewBox="35.234854542 5.0 177.765145458 116.5625">
<path d="M0 0 C4.324155528 2.882770352 4.369703825 5.842692693 5.4375 10.78125 C6.760926726 19.064920988 6.231108325 27.643359998 6 36 C8.137807705 35.214617439 8.137807705 35.214617439 8.6328125 33.3125 C9.853590346 27.576781867 10.181230442 22.030728175 10.1875 16.1875 C10.188708496 15.094052734 10.188708496 15.094052734 10.189941406 13.978515625 C10.15086032 10.202414259 9.901573422 6.671206972 9 3 C11 4 11 4 12.112792969 6.190185547 C13.087824998 9.278144718 13.228469685 11.724205702 13.1953125 14.95703125 C13.188867187 16.068847656 13.182421875 17.180664062 13.17578125 18.326171875 C13.159023437 19.476660156 13.142265625 20.627148437 13.125 21.8125 C13.115976563 22.982324219 13.106953125 24.152148438 13.09765625 25.357421875 C13.074137322 28.238490532 13.041268519 31.119139891 13 34 C13.99 34.495 13.99 34.495 15 35 C18.201575736 23.737313927 18.659104428 15.37241983 16 4 C16.99 4 17.98 4 19 4 C21.111020911 10.001922197 21.207923254 15.363791813 21.0625 21.6875 C21.027974312 23.545493493 20.99785591 25.403575371 20.97265625 27.26171875 C20.954689941 28.076003418 20.936723633 28.890288086 20.918212891 29.729248047 C20.998701011 31.963934647 21.374071019 33.85969703 22 36 C22.66 36 23.32 36 24 36 C25.537243081 29.521618446 26.193606467 23.262730106 26.1875 16.625 C26.188144531 15.947597656 26.188789063 15.270195313 26.189453125 14.572265625 C26.149765531 10.931830882 25.85438992 7.540591829 25 4 C25.66 4 26.32 4 27 4 C30.812957306 13.328555924 30.704576575 23.077847721 31 33 C34.82174309 22.47177017 34.642036368 13.874810409 32 3 C32.66 3 33.32 3 34 3 C36.635700548 9.895920931 37.426181679 16.419887345 37.708740234 23.728515625 C37.53771179 27.155519732 37.53771179 27.155519732 39 30 C39.299928495 19.902407319 39.56326709 10.629305113 36 1 C36.99 1 37.98 1 39 1 C42.192304492 8.235890182 42.256069179 15.588643083 42.5625 23.375 C42.605683594 24.397226562 42.648867188 25.419453125 42.693359375 26.47265625 C42.798877925 28.981652881 42.900992129 31.490739426 43 34 C43.99 34 44.98 34 46 34 C45.918791695 29.957531345 45.80597419 25.916534639 45.6875 21.875 C45.664941406 20.732890625 45.642382812 19.59078125 45.619140625 18.4140625 C45.427171666 12.410669597 45.099732144 8.157537517 42 3 C42.33 2.34 42.66 1.68 43 1 C45 2 45 2 45.81640625 3.9609375 C46.062617187 4.757578125 46.308828125 5.55421875 46.5625 6.375 C46.811289063 7.166484375 47.060078125 7.95796875 47.31640625 8.7734375 C47.541992188 9.508203125 47.767578125 10.24296875 48 11 C48.495 12.485 48.495 12.485 49 14 C49.147779358 15.698671881 49.24747066 17.401774886 49.31640625 19.10546875 C49.358300781 20.088378906 49.400195312 21.071289062 49.443359375 22.083984375 C49.482675781 23.108144531 49.521992188 24.132304687 49.5625 25.1875 C49.605683594 26.223261719 49.648867188 27.259023438 49.693359375 28.326171875 C49.799443662 30.883981899 49.901501462 33.441888452 50 36 C50.66 36 51.32 36 52 36 C52.226933206 31.959153786 52.428245086 27.917419143 52.625 23.875 C52.689453125 22.732890625 52.75390625 21.59078125 52.8203125 20.4140625 C52.89765625 18.751171875 52.89765625 18.751171875 52.9765625 17.0546875 C53.028930664 16.038745117 53.081298828 15.022802734 53.135253906 13.976074219 C52.985237338 10.675168143 52.174502893 8.074551941 51 5 C56.96024735 10.807420495 56.96024735 10.807420495 57.125 15.75 C57.115525217 18.682445185 56.945672063 21.506868092 56.6328125 24.42578125 C55.68274976 33.225922398 55.68274976 33.225922398 58.6015625 41.3515625 C60.024982301 43.200994316 60.024982301 43.200994316 62.61328125 44.6171875 C65.730218929 47.729023808 65.624765178 49.636631807 65.634765625 53.91015625 C65.610917969 54.764804688 65.587070313 55.619453125 65.5625 56.5 C65.573457031 57.354648438 65.584414063 58.209296875 65.595703125 59.08984375 C65.549203506 63.064011147 65.507651274 65.297589432 63.13671875 68.578125 C60.556918663 70.294847544 59.040104063 70.33778934 56 70 C56.573449373 67.132753136 56.861451504 66.138548496 59 64 C59.231088785 58.497886068 57.860169953 53.690678722 55 49 C54.34 48.34 53.68 47.68 53 47 C50.640399663 52.304168302 50.640399663 52.304168302 50.25 57.9375 C49.834661878 63.025392 46.693889717 66.615777685 43 70 C39.5625 70.5625 39.5625 70.5625 37 70 C37 68.68 37 67.36 37 66 C38.2065625 64.824375 38.2065625 64.824375 39.4375 63.625 C42.454789361 60.534118216 42.750451969 59.242316531 43 55 C43.2475 53.14375 43.2475 53.14375 43.5 51.25 C43.475108114 44.803001655 38.351883478 39.351883478 34 35 C33.175 35.61875 32.35 36.2375 31.5 36.875 C25.733925553 40.691978859 18.838659028 41.842443503 12 41 C7.881797169 40.006786376 3.798376111 38.899188055 0 37 C0.056477051 37.756196289 0.112954102 38.512392578 0.171142578 39.291503906 C0.412636389 42.734704181 0.612924965 46.179126456 0.8125 49.625 C0.902089844 50.814804688 0.991679687 52.004609375 1.083984375 53.23046875 C1.60904916 63.123794694 1.60904916 63.123794694 -1.29296875 66.80859375 C-4 69 -4 69 -7.125 69.4375 C-10 69 -10 69 -13 68 C-14.666216155 67.961250787 -16.333941717 67.954971398 -18 68 C-18 66.68 -18 65.36 -18 64 C-17.01 63.34 -16.02 62.68 -15 62 C-14.582109109 59.089356206 -14.582109109 59.089356206 -14.70703125 55.6796875 C-14.716699219 54.422851562 -14.726367188 53.166015625 -14.736328125 51.87109375 C-14.761464844 50.552382812 -14.786601562 49.233671875 -14.8125 47.875 C-14.82754517 46.535170967 -14.841233873 45.195325964 -14.853515625 43.85546875 C-14.888971278 40.569911579 -14.938391511 37.285154181 -15 34 C-14.34 34 -13.68 34 -13 34 C-7.827908381 43.878029057 -8.9786606 53.28703781 -10 64 C-8.715530812 61.431061624 -8.670228563 59.234236631 -8.4375 56.375 C-8.353710937 55.372109375 -8.269921875 54.36921875 -8.18359375 53.3359375 C-8.123007812 52.565078125 -8.062421875 51.79421875 -8 51 C-5.985717993 54.021423011 -5.680339947 55.153171714 -5.375 58.625 C-5.300234375 59.421640625 -5.22546875 60.21828125 -5.1484375 61.0390625 C-5.073845509 62.024461961 -5 63.011781369 -5 64 C-4.338107393 55.560869263 -7.0984696 48.274956717 -9.93359375 40.41015625 C-10.203007813 39.656054688 -10.472421875 38.901953125 -10.75 38.125 C-11.113515625 37.169804688 -11.113515625 37.169804688 -11.484375 36.1953125 C-13.24701032 28.690759092 -10.824203376 23.626054714 -7.5 17.0625 C-7.070742188 16.187871094 -6.641484375 15.313242188 -6.19921875 14.412109375 C-5.144917641 12.268363787 -4.078428749 10.131681413 -3 8 C-2.67 8 -2.34 8 -2 8 C-2.142047407 9.583677473 -2.288801527 11.166933176 -2.4375 12.75 C-2.518710938 13.63171875 -2.599921875 14.5134375 -2.68359375 15.421875 C-2.962384646 17.693504521 -3.387905771 19.798518234 -4 22 C-0.896752928 19.497381394 -0.059552698 18.319419016 0.6875 14.3125 C0.790625 13.219375 0.89375 12.12625 1 11 C1.33 10.67 1.66 10.34 2 10 C1.67 9.0925 1.34 8.185 1 7.25 C0 4 0 4 0 0 Z " fill="#DAD8CE" transform="translate(102,41)" />
<path d="M0 0 C0.33 0 0.66 0 1 0 C0.857952593 1.583677473 0.711198473 3.166933176 0.5625 4.75 C0.481289062 5.63171875 0.400078125 6.5134375 0.31640625 7.421875 C0.037615354 9.693504521 -0.387905771 11.798518234 -1 14 C2.122701261 11.481692532 2.945230979 10.273845103 3.75 6.25 C3.8325 5.1775 3.915 4.105 4 3 C4.99 3.66 5.98 4.32 7 5 C7.36328125 7.828125 7.36328125 7.828125 7.3125 11.25 C7.308632813 12.36890625 7.304765625 13.4878125 7.30078125 14.640625 C6.995258573 18.052956202 6.150868799 20.788484695 5 24 C4.831425172 26.75065232 4.831425172 26.75065232 5 29 C4.34 29 3.68 29 3 29 C3.056477051 29.756196289 3.112954102 30.512392578 3.171142578 31.291503906 C3.412636389 34.734704181 3.612924965 38.179126456 3.8125 41.625 C3.902089844 42.814804688 3.991679687 44.004609375 4.083984375 45.23046875 C4.60904916 55.123794694 4.60904916 55.123794694 1.70703125 58.80859375 C-1 61 -1 61 -4.125 61.4375 C-7 61 -7 61 -10 60 C-11.666216155 59.961250787 -13.333941717 59.954971398 -15 60 C-15 58.68 -15 57.36 -15 56 C-14.01 55.34 -13.02 54.68 -12 54 C-11.582109109 51.089356206 -11.582109109 51.089356206 -11.70703125 47.6796875 C-11.716699219 46.422851562 -11.726367188 45.166015625 -11.736328125 43.87109375 C-11.761464844 42.552382812 -11.786601562 41.233671875 -11.8125 39.875 C-11.82754517 38.535170967 -11.841233873 37.195325964 -11.853515625 35.85546875 C-11.888971278 32.569911579 -11.938391511 29.285154181 -12 26 C-11.34 26 -10.68 26 -10 26 C-4.827908381 35.878029057 -5.9786606 45.28703781 -7 56 C-5.715530812 53.431061624 -5.670228563 51.234236631 -5.4375 48.375 C-5.353710937 47.372109375 -5.269921875 46.36921875 -5.18359375 45.3359375 C-5.123007812 44.565078125 -5.062421875 43.79421875 -5 43 C-2.985717993 46.021423011 -2.680339947 47.153171714 -2.375 50.625 C-2.300234375 51.421640625 -2.22546875 52.21828125 -2.1484375 53.0390625 C-2.073845509 54.024461961 -2 55.011781369 -2 56 C-1.338107393 47.560869263 -4.0984696 40.274956717 -6.93359375 32.41015625 C-7.203007813 31.656054688 -7.472421875 30.901953125 -7.75 30.125 C-7.99234375 29.488203125 -8.2346875 28.85140625 -8.484375 28.1953125 C-10.24701032 20.690759092 -7.824203376 15.626054714 -4.5 9.0625 C-4.070742188 8.187871094 -3.641484375 7.313242188 -3.19921875 6.412109375 C-2.144917641 4.268363787 -1.078428749 2.131681413 0 0 Z " fill="#939189" transform="translate(99,49)" />
<path d="M0 0 C0.99 0.33 1.98 0.66 3 1 C2.625 2.9375 2.625 2.9375 2 5 C1.01 5.495 1.01 5.495 0 6 C-0.66 5.67 -1.32 5.34 -2 5 C-1.67 5.66 -1.34 6.32 -1 7 C0.878808715 6.952315971 0.878808715 6.952315971 3 6 C4.370305502 4.025147953 5.706723724 2.026132832 7 0 C7.66 0 8.32 0 9 0 C8.67 1.65 8.34 3.3 8 5 C8.33 5 8.66 5 9 5 C9 6.98 9 8.96 9 11 C9.66 11 10.32 11 11 11 C11 9.35 11 7.7 11 6 C11.99 5.67 12.98 5.34 14 5 C15.382641623 9.562717356 14.305374019 12.512776809 13 17 C13.264996041 19.333084478 13.264996041 19.333084478 14 21 C14.33 20.34 14.66 19.68 15 19 C15.99 19 16.98 19 18 19 C18.66 17.68 19.32 16.36 20 15 C20.533416067 21.267638785 18.815657096 25.447840826 16 31 C15.67 31.66 15.34 32.32 15 33 C16.98 32.01 18.96 31.02 21 30 C21.495 32.475 21.495 32.475 22 35 C22.66 34.01 23.32 33.02 24 32 C24.309375 32.639375 24.61875 33.27875 24.9375 33.9375 C25.834516304 35.936108213 25.834516304 35.936108213 27 37 C27.040807829 38.999583637 27.042543563 41.00045254 27 43 C25.666666667 42.333333333 24.333333333 41.666666667 23 41 C22.05125 40.566875 21.1025 40.13375 20.125 39.6875 C16.203477019 37.56987759 12.047745368 35.095490735 10 31 C9.175 30.525625 8.35 30.05125 7.5 29.5625 C5 28 5 28 4 25 C5.98 25.66 7.96 26.32 10 27 C10 24.69 10 22.38 10 20 C9.408320312 20.265546875 8.816640625 20.53109375 8.20703125 20.8046875 C6.574228107 21.534521205 4.938677498 22.258231642 3.30078125 22.9765625 C1.682990211 23.696191112 0.08369522 24.45815239 -1.5 25.25 C-5.249374717 26.374812415 -9.131517073 26.673724555 -13 26 C-14.8359375 24.85546875 -14.8359375 24.85546875 -16 23 C-15.765145458 15.324526549 -10.374180559 8.274352732 -5.01953125 3.078125 C-3.1875 1.6875 -3.1875 1.6875 0 0 Z " fill="#8C8A7F" transform="translate(61,31)" />
<path d="M0 0 C0.66 0 1.32 0 2 0 C2.33 2.97 2.66 5.94 3 9 C3.99 9 4.98 9 6 9 C6.433125 7.5459375 6.433125 7.5459375 6.875 6.0625 C8 3 8 3 10 2 C9.531992887 6.056061646 9.120467924 9.465886794 7 13 C7.928125 13.04125 8.85625 13.0825 9.8125 13.125 C15.452260689 13.879288981 20.183142384 17.151695406 25 20 C24.01 20.495 24.01 20.495 23 21 C22.347867083 23.024632551 22.347867083 23.024632551 22 25 C21.34 23.68 20.68 22.36 20 21 C19.67 22.32 19.34 23.64 19 25 C18.67 24.34 18.34 23.68 18 23 C17.973018107 24.624909538 17.95361243 26.249946334 17.9375 27.875 C17.925898437 28.779921875 17.914296875 29.68484375 17.90234375 30.6171875 C17.837507425 33.0168585 17.837507425 33.0168585 19 35 C19.33 33.68 19.66 32.36 20 31 C20.66 31 21.32 31 22 31 C21.388981989 34.315239646 20.758866435 37.626559366 20.125 40.9375 C19.863964844 42.355791016 19.863964844 42.355791016 19.59765625 43.802734375 C19.423632813 44.701855469 19.249609375 45.600976563 19.0703125 46.52734375 C18.913208008 47.359997559 18.756103516 48.192651367 18.594238281 49.050537109 C18.398139648 49.693859863 18.202041016 50.337182617 18 51 C17.01 51.495 17.01 51.495 16 52 C15.505 49.525 15.505 49.525 15 47 C14.34 47.66 13.68 48.32 13 49 C12.01 49 11.02 49 10 49 C10.28875 48.29875 10.5775 47.5975 10.875 46.875 C13.517615765 40.143839731 13.517615765 40.143839731 14 33 C13.67 33.66 13.34 34.32 13 35 C12.01 35 11.02 35 10 35 C9.67 36.65 9.34 38.3 9 40 C8.67 40 8.34 40 8 40 C6.88812458 34.774185524 7.206770726 31.067913802 8.625 25.91796875 C9.217175499 23.925574979 9.217175499 23.925574979 8 22 C7.34 22 6.68 22 6 22 C6 23.65 6 25.3 6 27 C5.34 27 4.68 27 4 27 C3.67 25.68 3.34 24.36 3 23 C2.34 23.66 1.68 24.32 1 25 C1.557289126 21.656265246 2.351738886 18.966870005 4 16 C1.393917274 18.516217804 -0.893816848 21.051343587 -3 24 C-4.32 23.67 -5.64 23.34 -7 23 C-7 22.34 -7 21.68 -7 21 C-5.68 20.67 -4.36 20.34 -3 20 C-3 19.01 -3 18.02 -3 17 C-5.971938504 18.124517272 -8.334406871 19.222937914 -11 21 C-9.556134175 17.287202164 -7.877636084 16.051355701 -4.375 14.25 C-3.557734375 13.82203125 -2.74046875 13.3940625 -1.8984375 12.953125 C-0.958710938 12.481328125 -0.958710938 12.481328125 0 12 C-0.33 11.34 -0.66 10.68 -1 10 C-1.1328125 8.125 -1.1328125 8.125 -1.125 6 C-1.127578125 5.29875 -1.13015625 4.5975 -1.1328125 3.875 C-1 2 -1 2 0 0 Z " fill="#444237" transform="translate(66,15)" />
<path d="M0 0 C2 1 2 1 3 3 C3.33 2.34 3.66 1.68 4 1 C4.66 1.99 5.32 2.98 6 4 C7.32 4 8.64 4 10 4 C10.99 5.485 10.99 5.485 12 7 C13.32 7 14.64 7 16 7 C15.818242188 7.522070312 15.636484375 8.044140625 15.44921875 8.58203125 C13.374409571 14.657498127 11.63584831 20.793057831 10 27 C10.33 26.34 10.66 25.68 11 25 C11.66 25.33 12.32 25.66 13 26 C12.71125 26.568476562 12.4225 27.136953125 12.125 27.72265625 C8.981919551 34.259827046 7.932218962 39.082018945 10.25 46.125 C10.830870641 47.750881938 11.414497035 49.375780478 12 51 C16.594430785 64.42100749 16.594430785 64.42100749 16 72 C15.01 72 14.02 72 13 72 C13.495 71.505 13.495 71.505 14 71 C13.910621974 69.474807239 13.754628541 67.953180709 13.5625 66.4375 C13.460664063 65.611210938 13.358828125 64.784921875 13.25390625 63.93359375 C13.170117187 63.295507813 13.086328125 62.657421875 13 62 C12.878828125 62.710273438 12.75765625 63.420546875 12.6328125 64.15234375 C12.465234375 65.071445313 12.29765625 65.990546875 12.125 66.9375 C11.962578125 67.854023438 11.80015625 68.770546875 11.6328125 69.71484375 C11.319570313 70.845996094 11.319570313 70.845996094 11 72 C10.01 72.495 10.01 72.495 9 73 C9.046003418 72.451745605 9.092006836 71.903491211 9.139404297 71.338623047 C10.440486204 56.424667886 10.440486204 56.424667886 7 42 C6.34 42 5.68 42 5 42 C4.67 42.99 4.34 43.98 4 45 C0.125 39.25 0.125 39.25 -1 37 C1.493615709 38.20381448 3.681430828 39.454287219 6 41 C5.67 39.02 5.34 37.04 5 35 C4.34 35 3.68 35 3 35 C1.657010749 29.644935941 2.493607184 25.793108267 3.9375 20.625 C4.132792969 19.888945312 4.328085938 19.152890625 4.529296875 18.39453125 C5.008801955 16.593463388 5.502924651 14.796298044 6 13 C5.34 13 4.68 13 4 13 C3.67 14.65 3.34 16.3 3 18 C0.81311857 14.719677855 0.794278347 13.894593909 0.9375 10.125 C1.015113849 6.585808463 0.919390751 3.447715315 0 0 Z " fill="#6B6A5F" transform="translate(82,33)" />
<path d="M0 0 C4.030877424 1.445031529 6.722824722 3.577882148 10.00390625 6.2890625 C12.150365361 8.054171007 14.353792962 9.651273258 16.625 11.25 C21.033953015 14.534757824 23.553299338 17.909898015 25.3125 23.1875 C25.428827294 24.705165391 25.487462394 26.227934599 25.5 27.75 C25.514179687 28.535039063 25.528359375 29.320078125 25.54296875 30.12890625 C25.3125 32.1875 25.3125 32.1875 23.3125 34.1875 C24.3025 34.1875 25.2925 34.1875 26.3125 34.1875 C26.9725 30.8875 27.6325 27.5875 28.3125 24.1875 C28.6425 24.1875 28.9725 24.1875 29.3125 24.1875 C29.932397959 32.246173469 29.932397959 32.246173469 27.625 35.75 C24.937650451 37.420514584 23.42093835 37.532882039 20.3125 37.1875 C20.885949373 34.320253136 21.173951504 33.326048496 23.3125 31.1875 C23.543588785 25.685386068 22.172669953 20.878178722 19.3125 16.1875 C18.6525 15.5275 17.9925 14.8675 17.3125 14.1875 C14.952899663 19.491668302 14.952899663 19.491668302 14.5625 25.125 C14.147161878 30.212892 11.006389717 33.803277685 7.3125 37.1875 C3.875 37.75 3.875 37.75 1.3125 37.1875 C1.3125 35.8675 1.3125 34.5475 1.3125 33.1875 C2.116875 32.40375 2.92125 31.62 3.75 30.8125 C6.767289361 27.721618216 7.062951969 26.429816531 7.3125 22.1875 C7.4775 20.95 7.6425 19.7125 7.8125 18.4375 C7.787608114 11.990501655 2.664383478 6.539383478 -1.6875 2.1875 C-3.3375 2.8475 -4.9875 3.5075 -6.6875 4.1875 C-4.552657262 1.477891909 -3.51590062 0.245295392 0 0 Z " fill="#7D7B70" transform="translate(137.6875,73.8125)" />
<path d="M0 0 C7.244658106 1.917703616 10.680168149 8.284441209 14.223388672 14.348632812 C18.750938338 22.252815013 18.750938338 22.252815013 20 26 C21.831853968 27.077868851 21.831853968 27.077868851 24 28 C24.997734375 28.655488281 24.997734375 28.655488281 26.015625 29.32421875 C33.063995107 33.624710301 38.765889653 33.179425 46.65625 32.296875 C50 32 50 32 52 33 C52 33.66 52 34.32 52 35 C46.169173979 38.9982807 39.858618739 38.847241138 33 38 C24.75224358 35.429715797 18.468126417 30.367106166 14.23828125 22.8828125 C12.757068895 19.948009466 11.344605268 16.99950406 10 14 C9.552295198 16.831430371 9.141624583 19.660721774 8.75 22.5 C8.62109375 23.291484375 8.4921875 24.08296875 8.359375 24.8984375 C7.637504555 30.40269964 8.276202421 33.640210057 11.196289062 38.388671875 C11.461513672 38.920410156 11.726738281 39.452148438 12 40 C11.67 40.66 11.34 41.32 11 42 C7.543085059 36.981897666 5.774914122 33.987174965 6.26171875 27.88671875 C6.328105469 26.885761719 6.394492187 25.884804688 6.462890625 24.853515625 C6.611864318 22.753634267 6.773199869 20.654591051 6.947265625 18.556640625 C7.341076962 12.227239852 7.246752678 8.823375978 3 4 C2.4225 3.21625 1.845 2.4325 1.25 1.625 C0.8375 1.08875 0.425 0.5525 0 0 Z " fill="#302E27" transform="translate(151,43)" />
<path d="M0 0 C0.33 0 0.66 0 1 0 C0.727637204 5.910272676 -0.27306318 11.165973216 -2.0625 16.8125 C-4.147514748 23.669714568 -4.425756484 29.880405458 -4 37 C-3.01 37 -2.02 37 -1 37 C-1 33.04 -1 29.08 -1 25 C-0.34 25 0.32 25 1 25 C1.33 23.68 1.66 22.36 2 21 C2.07425143 25.768845673 2.128649355 30.537353595 2.164794922 35.306640625 C2.179865647 36.928445056 2.200325928 38.55020884 2.226318359 40.171875 C2.262778288 42.505310458 2.279743142 44.838206307 2.29296875 47.171875 C2.308452606 47.894938354 2.323936462 48.618001709 2.339889526 49.362976074 C2.341279639 53.537145203 1.968533506 55.973259955 -1 59 C-2.32 58.67 -3.64 58.34 -5 58 C-4.01 57.34 -3.02 56.68 -2 56 C-0.908594645 47.736502313 -4.164775108 40.091021352 -6.93359375 32.41015625 C-7.203007813 31.656054688 -7.472421875 30.901953125 -7.75 30.125 C-7.99234375 29.488203125 -8.2346875 28.85140625 -8.484375 28.1953125 C-10.24701032 20.690759092 -7.824203376 15.626054714 -4.5 9.0625 C-4.070742188 8.187871094 -3.641484375 7.313242188 -3.19921875 6.412109375 C-2.144917641 4.268363787 -1.078428749 2.131681413 0 0 Z " fill="#D9D7CC" transform="translate(99,49)" />
<path d="M0 0 C4.324155528 2.882770352 4.369703825 5.842692693 5.4375 10.78125 C6.760926726 19.064920988 6.231108325 27.643359998 6 36 C8.137807705 35.214617439 8.137807705 35.214617439 8.6328125 33.3125 C9.853590346 27.576781867 10.181230442 22.030728175 10.1875 16.1875 C10.188305664 15.458535156 10.189111328 14.729570313 10.189941406 13.978515625 C10.15086032 10.202414259 9.901573422 6.671206972 9 3 C11 4 11 4 12.1171875 6.198974609 C13.081421341 9.258337127 13.1995705 11.61634789 13.125 14.81640625 C13.10953125 15.910175781 13.0940625 17.003945313 13.078125 18.130859375 C13.05234375 19.263300781 13.0265625 20.395742188 13 21.5625 C12.948925507 23.8136083 12.906879107 26.064944302 12.875 28.31640625 C12.840195313 29.808294678 12.840195313 29.808294678 12.8046875 31.330322266 C13.005236048 34.071570231 13.592895586 35.667405896 15 38 C19.784788218 38.097648739 24.276856867 37.77112541 29 37 C28.67 37.66 28.34 38.32 28 39 C18.485015999 42.00473179 11.307309121 41.204155599 2 38 C1.192710465 34.609383954 0.821688342 32.524745735 1.95703125 29.18359375 C4.455055581 21.558538207 3.703518567 13.252468397 0.65625 5.90234375 C0 4 0 4 0 0 Z " fill="#BCBAB0" transform="translate(102,41)" />
<path d="M0 0 C0.99 0 1.98 0 3 0 C5.111020911 6.001922197 5.207923254 11.363791813 5.0625 17.6875 C5.027974312 19.545493493 4.99785591 21.403575371 4.97265625 23.26171875 C4.954689941 24.076003418 4.936723633 24.890288086 4.918212891 25.729248047 C4.998701011 27.963934647 5.374071019 29.85969703 6 32 C6.66 32 7.32 32 8 32 C9.537243081 25.521618446 10.193606467 19.262730106 10.1875 12.625 C10.188144531 11.947597656 10.188789063 11.270195313 10.189453125 10.572265625 C10.149765531 6.931830882 9.85438992 3.540591829 9 0 C9.66 0 10.32 0 11 0 C13.686055449 7.354603532 14.390416496 13.830925359 14.1875 21.625 C14.167197266 23.131269531 14.167197266 23.131269531 14.146484375 24.66796875 C14.111561519 27.112568642 14.062527476 29.555977335 14 32 C8.282648953 34.450293306 4.209707731 35.332662914 -2 35 C-1.71125 33.949414062 -1.4225 32.898828125 -1.125 31.81640625 C1.95283911 20.319046439 2.737507367 11.707732399 0 0 Z " fill="#E3E2D8" transform="translate(118,45)" />
<path d="M0 0 C0.66 0 1.32 0 2 0 C2.33 2.97 2.66 5.94 3 9 C3.99 9 4.98 9 6 9 C6.433125 7.5459375 6.433125 7.5459375 6.875 6.0625 C8 3 8 3 10 2 C9.531992887 6.056061646 9.120467924 9.465886794 7 13 C7.66 13 8.32 13 9 13 C8.67 15.97 8.34 18.94 8 22 C7.34 22 6.68 22 6 22 C6 23.65 6 25.3 6 27 C5.34 27 4.68 27 4 27 C3.67 25.68 3.34 24.36 3 23 C2.34 23.66 1.68 24.32 1 25 C1.557289126 21.656265246 2.351738886 18.966870005 4 16 C1.393917274 18.516217804 -0.893816848 21.051343587 -3 24 C-4.32 23.67 -5.64 23.34 -7 23 C-7 22.34 -7 21.68 -7 21 C-5.68 20.67 -4.36 20.34 -3 20 C-3 19.01 -3 18.02 -3 17 C-5.971938504 18.124517272 -8.334406871 19.222937914 -11 21 C-9.556134175 17.287202164 -7.877636084 16.051355701 -4.375 14.25 C-3.557734375 13.82203125 -2.74046875 13.3940625 -1.8984375 12.953125 C-0.958710938 12.481328125 -0.958710938 12.481328125 0 12 C-0.33 11.34 -0.66 10.68 -1 10 C-1.1328125 8.125 -1.1328125 8.125 -1.125 6 C-1.127578125 5.29875 -1.13015625 4.5975 -1.1328125 3.875 C-1 2 -1 2 0 0 Z " fill="#3E3D34" transform="translate(66,15)" />
<path d="M0 0 C0.99 0.66 1.98 1.32 3 2 C4.18356118 9.983236194 2.832285862 17.531531923 0 25 C-0.66 25 -1.32 25 -2 25 C-2.33 24.01 -2.66 23.02 -3 22 C-3.66 22 -4.32 22 -5 22 C-5 25.96 -5 29.92 -5 34 C-5.99 34 -6.98 34 -8 34 C-10.335558443 25.580688518 -8.568160356 18.178367802 -6 10 C-4.68 9.67 -3.36 9.34 -2 9 C-1.34 6.03 -0.68 3.06 0 0 Z " fill="#868478" transform="translate(103,52)" />
<path d="M0 0 C4.936295757 3.201921572 6.600318842 6.476067491 8 12 C8.5 15.1875 8.5 15.1875 8 18 C5.5 20.875 5.5 20.875 3 23 C2.34 22.67 1.68 22.34 1 22 C0.67 22.66 0.34 23.32 0 24 C-0.433125 23.54625 -0.86625 23.0925 -1.3125 22.625 C-3.107983416 20.799756662 -3.107983416 20.799756662 -6 19 C-5.2884375 17.9790625 -5.2884375 17.9790625 -4.5625 16.9375 C-2.754643936 13.538730601 -2.45951035 10.807371468 -2 7 C-1.410314331 4.636650405 -0.713395864 2.33042649 0 0 Z " fill="#ECE9DC" transform="translate(154,87)" />
<path d="M0 0 C0.66 0 1.32 0 2 0 C1.294405049 2.161822828 0.579021104 4.319382052 -0.15234375 6.47265625 C-0.690263031 8.076498529 -1.206069997 9.688064228 -1.69140625 11.30859375 C-2.737447455 14.56626493 -3.425153056 16.611589903 -6.3125 18.5625 C-9.459299808 19.074769736 -11.908585756 18.718933545 -15 18 C-16.25 15.375 -16.25 15.375 -17 12 C-15.125 8.625 -15.125 8.625 -13 6 C-12.01 6.66 -11.02 7.32 -10 8 C-5.712133101 7.270150315 -4.321009331 6.445846294 -1.75 2.875 C-1.1725 1.92625 -0.595 0.9775 0 0 Z " fill="#E6E4D8" transform="translate(68,31)" />
<path d="M0 0 C1.2065625 0.0309375 1.2065625 0.0309375 2.4375 0.0625 C4.016340982 3.220181965 3.627961817 6.597544328 3.625 10.0625 C3.625644531 10.826188965 3.626289063 11.58987793 3.626953125 12.376708984 C3.573496932 18.116567718 2.965295821 23.510599114 1.4375 29.0625 C0.4475 29.3925 -0.5425 29.7225 -1.5625 30.0625 C-1.587556152 29.468242187 -1.612612305 28.873984375 -1.638427734 28.26171875 C-1.755588884 25.528489928 -1.877762734 22.795506325 -2 20.0625 C-2.039316406 19.127929688 -2.078632813 18.193359375 -2.119140625 17.23046875 C-2.314469673 12.933229687 -2.567412844 8.699924492 -3.16015625 4.4375 C-3.292929688 3.32375 -3.425703125 2.21 -3.5625 1.0625 C-2.5625 0.0625 -2.5625 0.0625 0 0 Z " fill="#615F53" transform="translate(109.5625,46.9375)" />
<path d="M0 0 C0.45375 0.61875 0.9075 1.2375 1.375 1.875 C2.971089186 4.059198333 2.971089186 4.059198333 5 6 C5.33 6 5.66 6 6 6 C6.223633703 7.414332065 6.42826476 8.831676177 6.625 10.25 C6.741015625 11.03890625 6.85703125 11.8278125 6.9765625 12.640625 C7.018201461 16.832280396 4.661508581 19.894906656 2 23 C1.34 23 0.68 23 0 23 C0.33 19.04 0.66 15.08 1 11 C-0.32 13.31 -1.64 15.62 -3 18 C-3.66 18 -4.32 18 -5 18 C-5.66 19.32 -6.32 20.64 -7 22 C-5.831071086 14.114091505 -3.264561034 7.251811151 0 0 Z " fill="#464439" transform="translate(98,40)" />
<path d="M0 0 C2.367685465 3.688306841 2.344423408 7.316686725 2.3125 11.5625 C2.311210937 12.267617188 2.309921875 12.972734375 2.30859375 13.69921875 C2.198132298 19.77459859 1.040554666 25.267013082 -1 31 C-2.32 31 -3.64 31 -5 31 C-4.67 24.07 -4.34 17.14 -4 10 C-3.67 10 -3.34 10 -3 10 C-2.951015625 9.361914062 -2.90203125 8.723828125 -2.8515625 8.06640625 C-2.776796875 7.240117187 -2.70203125 6.413828125 -2.625 5.5625 C-2.555390625 4.738789063 -2.48578125 3.915078125 -2.4140625 3.06640625 C-2.277421875 2.384492188 -2.14078125 1.702578125 -2 1 C-1.34 0.67 -0.68 0.34 0 0 Z " fill="#6F6D64" transform="translate(127,46)" />
<path d="M0 0 C2.610995197 1.305497598 3.34469111 2.953033393 4.420410156 5.602050781 C5.70886899 10.932818543 5.009081726 16.510452647 4.6875 21.9375 C4.626269531 23.193691406 4.565039063 24.449882812 4.501953125 25.744140625 C4.349395527 28.830498175 4.181643572 31.91524042 4 35 C3.67 34.34 3.34 33.68 3 33 C2.34 33 1.68 33 1 33 C-0.149436583 30.701126835 -0.128989063 29.37909386 -0.1328125 26.82421875 C-0.134101563 25.995996094 -0.135390625 25.167773438 -0.13671875 24.314453125 C-0.132851563 23.447558594 -0.128984375 22.580664063 -0.125 21.6875 C-0.128867187 20.832207031 -0.132734375 19.976914063 -0.13671875 19.095703125 C-0.130209792 14.894170757 0.141221811 11.122135305 1 7 C0.374003829 5.31763529 -0.28752268 3.647603803 -1 2 C-0.67 1.34 -0.34 0.68 0 0 Z " fill="#6F6C62" transform="translate(151,44)" />
<path d="M0 0 C-0.33 2.64 -0.66 5.28 -1 8 C-2.98 7.34 -4.96 6.68 -7 6 C-6.01 7.65 -5.02 9.3 -4 11 C-7.401948703 13.093506894 -10.052724119 13.179421631 -14 13 C-13.67 12.01 -13.34 11.02 -13 10 C-13.5775 10.350625 -14.155 10.70125 -14.75 11.0625 C-17.358017763 12.149174068 -18.394176285 11.930651327 -21 11 C-20.67 10.34 -20.34 9.68 -20 9 C-20.66 8.34 -21.32 7.68 -22 7 C-21.01 6.896875 -20.02 6.79375 -19 6.6875 C-12.780228693 5.795371186 -5.691183579 0 0 0 Z " fill="#E5E3D9" transform="translate(72,50)" />
<path d="M0 0 C0.99 0.33 1.98 0.66 3 1 C2.625 2.9375 2.625 2.9375 2 5 C1.01 5.495 1.01 5.495 0 6 C-0.66 5.67 -1.32 5.34 -2 5 C-2.33 6.32 -2.66 7.64 -3 9 C-3.99 8.34 -4.98 7.68 -6 7 C-7.736667269 9.198327127 -7.736667269 9.198327127 -9 12 C-8.353364326 14.700403898 -8.353364326 14.700403898 -7 17 C-6.67 17.66 -6.34 18.32 -6 19 C-5.34 19.33 -4.68 19.66 -4 20 C-6.3125 22.5 -6.3125 22.5 -9 25 C-9.99 25 -10.98 25 -12 25 C-12.12375 24.360625 -12.2475 23.72125 -12.375 23.0625 C-12.58125 22.381875 -12.7875 21.70125 -13 21 C-13.66 20.67 -14.32 20.34 -15 20 C-13.973320724 12.628969303 -9.109550827 6.263265203 -3.25 1.8125 C-2.1775 1.214375 -1.105 0.61625 0 0 Z " fill="#B9B6AB" transform="translate(61,31)" />
<path d="M0 0 C4.875 2.875 4.875 2.875 6 4 C6.597045837 10.872969521 5.589310562 17.330571748 4 24 C2.35 24.33 0.7 24.66 -1 25 C-0.34 24.01 0.32 23.02 1 22 C2.311773346 14.266638527 -0.414330607 8.693813418 -4.75 2.5 C-5.1625 2.005 -5.575 1.51 -6 1 C-4.02 1.66 -2.04 2.32 0 3 C0 2.01 0 1.02 0 0 Z " fill="#C0BFB5" transform="translate(161,84)" />
<path d="M0 0 C0.33 0 0.66 0 1 0 C1.533416067 6.267638785 -0.184342904 10.447840826 -3 16 C-3.33 16.66 -3.66 17.32 -4 18 C-2.02 17.01 -0.04 16.02 2 15 C2.33 16.65 2.66 18.3 3 20 C3.66 19.01 4.32 18.02 5 17 C5.309375 17.639375 5.61875 18.27875 5.9375 18.9375 C6.834516304 20.936108213 6.834516304 20.936108213 8 22 C8.040807829 23.999583637 8.042543563 26.00045254 8 28 C4.242697529 26.371835596 1.383176997 23.985980831 -1.75 21.375 C-2.73484375 20.557734375 -3.7196875 19.74046875 -4.734375 18.8984375 C-5.48203125 18.271953125 -6.2296875 17.64546875 -7 17 C-6.452763165 13.625372852 -5.945100003 11.917650005 -4 9 C-3.34 9 -2.68 9 -2 9 C-1.855625 7.88625 -1.71125 6.7725 -1.5625 5.625 C-1 2 -1 2 0 0 Z " fill="#D6D4C8" transform="translate(80,46)" />
<path d="M0 0 C0.66 0.33 1.32 0.66 2 1 C2 2.65 2 4.3 2 6 C2.33 6 2.66 6 3 6 C3.33 8.31 3.66 10.62 4 13 C5.312234961 9.063295117 4.242962558 6.875118562 3 3 C3.66 3 4.32 3 5 3 C7.269003262 8.205360425 7.227548269 12.555229453 6 18 C5.376485487 19.354050174 4.720441384 20.694938149 4 22 C3.01 22 2.02 22 1 22 C0.67 23.65 0.34 25.3 0 27 C-0.33 27 -0.66 27 -1 27 C-1.897049088 22.783869288 -2.103210752 19.809846119 -1 15.625 C0.082359063 11.446090506 -0.099247567 8.081332944 -0.80859375 3.84765625 C-1 2 -1 2 0 0 Z " fill="#5B594E" transform="translate(75,28)" />
<path d="M0 0 C0.99 0.66 1.98 1.32 3 2 C3.703735118 9.271929555 2.347458749 16.097609826 0 23 C-0.66 23.66 -1.32 24.32 -2 25 C-2.66 24.67 -3.32 24.34 -4 24 C-4.112352431 17.908001519 -4.073269283 12.010307987 -3 6 C-2.34 5.34 -1.68 4.68 -1 4 C-0.3574765 1.931259658 -0.3574765 1.931259658 0 0 Z " fill="#78776D" transform="translate(118,53)" />
<path d="M0 0 C1.460628504 2.647389163 2 3.894483343 2 7 C-1.3 8.32 -4.6 9.64 -8 11 C-6.741875 10.87625 -5.48375 10.7525 -4.1875 10.625 C-3.479804687 10.555390625 -2.772109375 10.48578125 -2.04296875 10.4140625 C0.299881422 10.073346088 0.299881422 10.073346088 3 8 C3.729653662 5.437172582 3.729653662 5.437172582 4 3 C4.66 3.33 5.32 3.66 6 4 C6.0625 6.75 6.0625 6.75 5 10 C2.177034755 11.816010632 -0.851871178 12.871015871 -4 14 C-4.825 14.4125 -5.65 14.825 -6.5 15.25 C-10.249374717 16.374812415 -14.131517073 16.673724555 -18 16 C-19.79296875 14.6171875 -19.79296875 14.6171875 -21 13 C-20.6875 10.8125 -20.6875 10.8125 -20 9 C-17 11 -17 11 -16 13 C-16.33 13.66 -16.66 14.32 -17 15 C-13.880074568 13.581852077 -11.375215446 12.375215446 -8.9375 9.9375 C-7 8 -7 8 -4.375 7.125 C-1.659079147 6.161995649 -1.659079147 6.161995649 -0.6875 2.875 C-0.460625 1.92625 -0.23375 0.9775 0 0 Z " fill="#4B483E" transform="translate(66,41)" />
<path d="M0 0 C2.475 0.495 2.475 0.495 5 1 C5 9.25 5 17.5 5 26 C4.01 26 3.02 26 2 26 C1.005440913 23.016322738 0.804403677 20.799580797 0.68359375 17.67578125 C0.641699219 16.647753906 0.599804688 15.619726563 0.556640625 14.560546875 C0.517324219 13.488691406 0.478007813 12.416835937 0.4375 11.3125 C0.394316406 10.229042969 0.351132812 9.145585938 0.306640625 8.029296875 C0.200531625 5.352992089 0.098476395 2.676594736 0 0 Z " fill="#666458" transform="translate(143,49)" />
</svg>