<?xml version='1.0' encoding='utf-8'?>
<svg xmlns="http://www.w3.org/2000/svg" version="1.1" width="187" height="135" viewBox="9.0 5.0 187.180470554 135.48828125">
<path d="M0 0 C3.358103949 1.389560255 5.185865524 2.825264666 7 6 C7.1875 8.75 7.1875 8.75 7 11 C9.97 11 12.94 11 16 11 C16.226875 10.278125 16.45375 9.55625 16.6875 8.8125 C18.272799739 5.41542913 20.159233232 3.425044802 23 1 C23.99 1 24.98 1 26 1 C25.509589041 7.375342466 25.509589041 7.375342466 23.0625 10.375 C21 12 21 12 19 13 C19.448307182 18.013961899 23.69074421 20.736770214 27.2265625 23.845703125 C28.7265625 25.24609375 28.7265625 25.24609375 31 28 C30.950148665 31.474638078 30.46005534 32.53994466 28 35 C23.915268816 35.355194016 21.557922068 34.890146098 18 33 C16.004918452 32.638391469 14.004914589 32.30237163 12 32 C12.04640625 32.966796875 12.0928125 33.93359375 12.140625 34.9296875 C12.369614776 43.189675851 11.816343815 49.553173271 8 57 C7.60296875 57.888164063 7.2059375 58.776328125 6.796875 59.69140625 C4.584303285 64.501649188 2.742744475 68.254200567 -2 71 C-2.99 71 -3.98 71 -5 71 C-4.889376866 75.500472876 -4.758923662 80.000164971 -4.625 84.5 C-4.57859375 86.40265625 -4.57859375 86.40265625 -4.53125 88.34375 C-4.664556081 99.19191413 -4.664556081 99.19191413 -0.4921875 108.8046875 C0.041484375 109.157890625 0.57515625 109.51109375 1.125 109.875 C2.07375 110.57625 3.0225 111.2775 4 112 C4 112.66 4 113.32 4 114 C1.36 114 -1.28 114 -4 114 C-4.433125 113.0409375 -4.433125 113.0409375 -4.875 112.0625 C-5.828234509 109.847939209 -5.828234509 109.847939209 -8 109 C-8.502441406 107.234130859 -8.502441406 107.234130859 -8.8515625 104.96484375 C-9.044921875 103.751513672 -9.044921875 103.751513672 -9.2421875 102.513671875 C-9.368515625 101.663535156 -9.49484375 100.813398437 -9.625 99.9375 C-9.7590625 99.083496094 -9.893125 98.229492188 -10.03125 97.349609375 C-10.36213574 95.234304106 -10.682087994 93.117293959 -11 91 C-13.965278166 96.789137688 -15.019142836 102.49483296 -14 109 C-11.661690417 111.540422604 -11.661690417 111.540422604 -9 113 C-9 113.66 -9 114.32 -9 115 C-14.95703125 115.48828125 -14.95703125 115.48828125 -17 115 C-19.657085045 112.004209608 -19.994571626 110.189993087 -20.109375 106.171875 C-20.006060427 104.696670163 -19.885356058 103.22261059 -19.75 101.75 C-19.631306335 100.153660994 -19.512822409 98.557306382 -19.39453125 96.9609375 C-19.295192871 95.738422852 -19.295192871 95.738422852 -19.193847656 94.491210938 C-18.879862092 90.456061445 -18.6632372 86.415868193 -18.4375 82.375 C-18.353471855 80.94527668 -18.268894939 79.515585432 -18.18359375 78.0859375 C-18.123007812 77.067578125 -18.062421875 76.04921875 -18 75 C-22.62 75 -27.24 75 -32 75 C-32 74.67 -32 74.34 -32 74 C-27.71 74 -23.42 74 -19 74 C-19.023203125 72.96359375 -19.04640625 71.9271875 -19.0703125 70.859375 C-19.08907667 69.489590558 -19.107276177 68.119798299 -19.125 66.75 C-19.141757813 66.068085938 -19.158515625 65.386171875 -19.17578125 64.68359375 C-19.212134816 60.939176496 -19.079443486 58.176472727 -17 55 C-16.67 55.66 -16.34 56.32 -16 57 C-16.33 57.99 -16.66 58.98 -17 60 C-17.290980337 65.04936467 -17.310361608 70.086143969 -16 75 C-15.792460937 74.480507812 -15.584921875 73.961015625 -15.37109375 73.42578125 C-13.559261303 69.324520355 -12.141416464 66.789715225 -8.25 64.4375 C-6.437107955 63.327014249 -6.437107955 63.327014249 -5 62 C-3.74651432 56.074431329 -6.243912275 51.157979437 -9 46 C-10.647455961 44.352544039 -12.553354506 44.8290384 -14.8125 44.8125 C-15.685195312 44.798320313 -16.557890625 44.784140625 -17.45703125 44.76953125 C-20.10919085 45.009895945 -21.724649986 45.658126915 -24 47 C-22.606674259 43.632796126 -21.021071396 42.014047597 -18 40 C-18.33 39.34 -18.66 38.68 -19 38 C-18.113125 37.443125 -17.22625 36.88625 -16.3125 36.3125 C-13.949011266 34.753603175 -12.298759825 33.298759825 -10.25 31.25 C-9.5075 30.5075 -8.765 29.765 -8 29 C-7.34 29 -6.68 29 -6 29 C-5.755078125 28.45859375 -5.51015625 27.9171875 -5.2578125 27.359375 C-3.706462119 24.449388572 -1.832856962 21.9025804 0.125 19.25 C0.849453125 18.26515625 1.57390625 17.2803125 2.3203125 16.265625 C2.874609375 15.51796875 3.42890625 14.7703125 4 14 C3.34 12.989375 2.68 11.97875 2 10.9375 C-0.154997163 7.219371091 -0.351905721 4.310845085 0 0 Z " fill="#6C6962" transform="translate(142,15)" />
<path d="M0 0 C-3.751170499 2.438593965 -7.490372026 2.279367437 -11.80859375 2.2734375 C-13.376959872 2.293756531 -14.945319172 2.314607799 -16.513671875 2.3359375 C-18.961891094 2.358337915 -21.409838011 2.374933042 -23.858154297 2.380859375 C-42.233203537 2.418538029 -42.233203537 2.418538029 -58 11 C-60.739281571 15.108922356 -60.606138299 18.172541401 -60 23 C-58.504538055 28.227062743 -56.497348388 33.17404298 -54 38 C-47.164581982 35.587499523 -42.143192903 31.984611971 -38 26 C-37.068464126 23.326057647 -36.530258386 20.795907855 -36 18 C-35.67 18 -35.34 18 -35 18 C-35.33 21.3 -35.66 24.6 -36 28 C-33.483758286 29.156927463 -30.96276546 30.300574317 -28.4375 31.4375 C-27.733027344 31.762988281 -27.028554688 32.088476563 -26.302734375 32.423828125 C-21.814130822 34.430254598 -17.899932244 35.542844692 -13 36 C-13 36.33 -13 36.66 -13 37 C-22.416392181 38.177049023 -29.722410642 33.981368133 -38 30 C-38.112148437 30.725742188 -38.224296875 31.451484375 -38.33984375 32.19921875 C-39.029613875 35.125639929 -40.055108141 37.222878088 -41.5625 39.8125 C-42.017539062 40.602695313 -42.472578125 41.392890625 -42.94140625 42.20703125 C-43.290742188 42.798710938 -43.640078125 43.390390625 -44 44 C-44.66 44 -45.32 44 -46 44 C-46.966463881 50.765247164 -45.314325333 55.325186659 -42.375 61.3125 C-41.879033203 62.352773438 -41.879033203 62.352773438 -41.373046875 63.4140625 C-38.965207449 68.08463615 -36.521515562 70.169194412 -32 73 C-32 73.99 -32 74.98 -32 76 C-34.31 76 -36.62 76 -39 76 C-39.33 75.34 -39.66 74.68 -40 74 C-40.99 73.67 -41.98 73.34 -43 73 C-44.425353943 70.600020055 -45.703934176 68.245327438 -46.9375 65.75 C-49.656656679 60.291372752 -49.656656679 60.291372752 -53.23828125 55.37890625 C-55.425172851 52.425875241 -55.42465932 50.811680898 -55.25 47.1875 C-55.21390625 46.211679688 -55.1778125 45.235859375 -55.140625 44.23046875 C-55.09421875 43.494414062 -55.0478125 42.758359375 -55 42 C-55.626484375 42.5775 -56.25296875 43.155 -56.8984375 43.75 C-57.715703125 44.4925 -58.53296875 45.235 -59.375 46 C-60.187109375 46.7425 -60.99921875 47.485 -61.8359375 48.25 C-64 50 -64 50 -66 50 C-69.322833264 59.7794915 -69.322833264 59.7794915 -70 70 C-68.228453477 72.525908476 -68.228453477 72.525908476 -66 74 C-66 74.66 -66 75.32 -66 76 C-68.64 76 -71.28 76 -74 76 C-74 74.68 -74 73.36 -74 72 C-75.485 71.505 -75.485 71.505 -77 71 C-76.556421918 67.137174207 -76.035186815 63.288615122 -75.5 59.4375 C-75.37625 58.351464844 -75.2525 57.265429688 -75.125 56.146484375 C-74.277323472 50.336368176 -73.454721905 46.763606281 -68.90625 42.84765625 C-68.197910156 42.333400879 -67.489570313 41.819145508 -66.759765625 41.289306641 C-64.861975713 40.104947543 -64.861975713 40.104947543 -64 38 C-64.66 38 -65.32 38 -66 38 C-66 37.01 -66 36.02 -66 35 C-66.99 34.34 -67.98 33.68 -69 33 C-67.68 33 -66.36 33 -65 33 C-66.65 32.67 -68.3 32.34 -70 32 C-70.33 32.99 -70.66 33.98 -71 35 C-78.552186735 39.968543905 -90.14698123 41.334409636 -99 40 C-101.31640625 38.60546875 -101.31640625 38.60546875 -103 37 C-103 36.34 -103 35.68 -103 35 C-97.25 35.875 -97.25 35.875 -95 37 C-87.062145759 37.900016931 -81.515997041 36.489180937 -75.23046875 31.6328125 C-70.326148835 27.182391268 -67.202058968 21.658604453 -63.83984375 16.03125 C-59.322076805 8.587965182 -54.692891793 4.367412105 -46.281494141 1.916503906 C-42.104245935 0.920585375 -38.090233307 0.656357285 -33.80859375 0.5859375 C-33.059653473 0.56657135 -32.310713196 0.5472052 -31.539077759 0.527252197 C-29.171996609 0.46811874 -26.804860605 0.421433061 -24.4375 0.375 C-22.846985683 0.336740763 -21.256490325 0.29768467 -19.666015625 0.2578125 C-13.109978945 0.09960298 -6.55821852 -0.020305736 0 0 Z " fill="#939187" transform="translate(122,54)" />
<path d="M0 0 C2 1 2 1 2.6171875 2.80078125 C3.677530072 8.892341126 2.989204234 15.075570365 2.12109375 21.15234375 C1.837615684 23.095856929 1.837615684 23.095856929 3 25 C0.93050735 30.656613245 -1.651501194 35.903500691 -7 39 C-7.99 39 -8.98 39 -10 39 C-9.889376866 43.500472876 -9.758923662 48.000164971 -9.625 52.5 C-9.5940625 53.7684375 -9.563125 55.036875 -9.53125 56.34375 C-9.664556081 67.19191413 -9.664556081 67.19191413 -5.4921875 76.8046875 C-4.958515625 77.157890625 -4.42484375 77.51109375 -3.875 77.875 C-2.92625 78.57625 -1.9775 79.2775 -1 80 C-1 80.66 -1 81.32 -1 82 C-3.64 82 -6.28 82 -9 82 C-9.433125 81.0409375 -9.433125 81.0409375 -9.875 80.0625 C-10.828234509 77.847939209 -10.828234509 77.847939209 -13 77 C-13.502441406 75.234130859 -13.502441406 75.234130859 -13.8515625 72.96484375 C-14.044921875 71.751513672 -14.044921875 71.751513672 -14.2421875 70.513671875 C-14.368515625 69.663535156 -14.49484375 68.813398437 -14.625 67.9375 C-14.7590625 67.083496094 -14.893125 66.229492188 -15.03125 65.349609375 C-15.36213574 63.234304106 -15.682087994 61.117293959 -16 59 C-18.965278166 64.789137688 -20.019142836 70.49483296 -19 77 C-16.661690417 79.540422604 -16.661690417 79.540422604 -14 81 C-14 81.66 -14 82.32 -14 83 C-19.95703125 83.48828125 -19.95703125 83.48828125 -22 83 C-24.657085045 80.004209608 -24.994571626 78.189993087 -25.109375 74.171875 C-25.006060427 72.696670163 -24.885356058 71.22261059 -24.75 69.75 C-24.631306335 68.153660994 -24.512822409 66.557306382 -24.39453125 64.9609375 C-24.295192871 63.738422852 -24.295192871 63.738422852 -24.193847656 62.491210938 C-23.879862092 58.456061445 -23.6632372 54.415868193 -23.4375 50.375 C-23.353471855 48.94527668 -23.268894939 47.515585432 -23.18359375 46.0859375 C-23.123007812 45.067578125 -23.062421875 44.04921875 -23 43 C-27.62 43 -32.24 43 -37 43 C-37 42.67 -37 42.34 -37 42 C-32.71 42 -28.42 42 -24 42 C-24.023203125 40.96359375 -24.04640625 39.9271875 -24.0703125 38.859375 C-24.08907667 37.489590558 -24.107276177 36.119798299 -24.125 34.75 C-24.141757813 34.068085938 -24.158515625 33.386171875 -24.17578125 32.68359375 C-24.212134816 28.939176496 -24.079443486 26.176472727 -22 23 C-21.67 23.66 -21.34 24.32 -21 25 C-21.33 25.99 -21.66 26.98 -22 28 C-22.290980337 33.04936467 -22.310361608 38.086143969 -21 43 C-20.688691406 42.220761719 -20.688691406 42.220761719 -20.37109375 41.42578125 C-18.575746278 37.361835716 -17.153290105 34.792552369 -13.3125 32.4375 C-10.086315845 30.424581681 -10.059228172 30.240861234 -9.0625 26.1875 C-9.041875 25.135625 -9.02125 24.08375 -9 23 C-8.67 23 -8.34 23 -8 23 C-7.820007197 28.219791283 -8.029051923 32.072629808 -10 37 C-5.29157376 34.886734741 -5.29157376 34.886734741 -2 31 C-1.613820746 28.233084604 -1.613820746 28.233084604 -1.5 25.1875 C-1.330667112 21.847408787 -1.072593434 19.203530479 0.0546875 16.04296875 C1.165568978 12.467032093 1.003600763 9.835287481 0.625 6.125 C0.514140625 4.972578125 0.40328125 3.82015625 0.2890625 2.6328125 C0.193671875 1.763984375 0.09828125 0.89515625 0 0 Z " fill="#55524B" transform="translate(147,47)" />
<path d="M0 0 C0.144375 0.598125 0.28875 1.19625 0.4375 1.8125 C0.887243897 3.561504045 1.428923409 5.286770228 2 7 C5.000072714 8.70855022 5.000072714 8.70855022 8 10 C8.081564373 12.854753062 8.140763717 15.707135649 8.1875 18.5625 C8.212636719 19.362363281 8.237773438 20.162226562 8.263671875 20.986328125 C8.330548854 26.447948049 7.490951904 30.129241028 5 35 C4.67 35 4.34 35 4 35 C4.0721875 34.382539063 4.144375 33.765078125 4.21875 33.12890625 C4.848885903 27.378916135 5.093282813 21.783534414 5 16 C5 16.66 5 17.32 5 18 C4.867591245 19.667786875 4.719862137 21.334382308 4.5625 23 C4.481289062 23.886875 4.400078125 24.77375 4.31640625 25.6875 C4 28 4 28 3 30 C2.871312897 31.936025974 2.771158795 33.874006216 2.6875 35.8125 C2.387513664 39.607781679 2.138965132 41.742657163 0.3125 45.125 C-2.352772339 47.286031626 -4.687304906 48.171826226 -8 49 C-7.67 48.01 -7.34 47.02 -7 46 C-4.931093333 38.587658129 -5.718773106 31.914516758 -9 25 C-11.881331189 21.820600068 -14.819248974 21.475085344 -19 21 C-15.835256948 17.744835718 -12.672472094 14.679912069 -9 12 C-8.34 12 -7.68 12 -7 12 C-6.6596875 10.9790625 -6.6596875 10.9790625 -6.3125 9.9375 C-4.644276426 6.203856764 -2.442703923 3.278365791 0 0 Z " fill="#B8B5AC" transform="translate(144,36)" />
<path d="M0 0 C0.66 0.33 1.32 0.66 2 1 C3.471807965 5.82425944 4.253761426 9.924771476 4 15 C4.66 14.67 5.32 14.34 6 14 C6.99 16.31 7.98 18.62 9 21 C7.548445101 22.672573546 6.088555912 24.337917577 4.625 26 C3.812890625 26.928125 3.00078125 27.85625 2.1640625 28.8125 C1.449921875 29.534375 0.73578125 30.25625 0 31 C-0.66 31 -1.32 31 -2 31 C-5.322833264 40.7794915 -5.322833264 40.7794915 -6 51 C-4.228453477 53.525908476 -4.228453477 53.525908476 -2 55 C-2 55.66 -2 56.32 -2 57 C-4.64 57 -7.28 57 -10 57 C-10 55.68 -10 54.36 -10 53 C-11.485 52.505 -11.485 52.505 -13 52 C-12.556421918 48.137174207 -12.035186815 44.288615122 -11.5 40.4375 C-11.37625 39.351464844 -11.2525 38.265429688 -11.125 37.146484375 C-10.277323472 31.336368176 -9.454721905 27.763606281 -4.90625 23.84765625 C-4.197910156 23.333400879 -3.489570312 22.819145508 -2.759765625 22.289306641 C-0.861975713 21.104947543 -0.861975713 21.104947543 0 19 C-0.66 19 -1.32 19 -2 19 C-2 18.01 -2 17.02 -2 16 C-2.99 15.34 -3.98 14.68 -5 14 C-3.68 14 -2.36 14 -1 14 C-3.475 13.505 -3.475 13.505 -6 13 C-6.33 13.99 -6.66 14.98 -7 16 C-14.552186735 20.968543905 -26.14698123 22.334409636 -35 21 C-37.31640625 19.60546875 -37.31640625 19.60546875 -39 18 C-39 17.34 -39 16.68 -39 16 C-33.25 16.875 -33.25 16.875 -31 18 C-23.749152138 18.85058023 -17.260791669 17.84022458 -11 14 C-6.463403678 9.871620325 -3.056006504 5.298947057 0 0 Z " fill="#C1BFB5" transform="translate(58,73)" />
<path d="M0 0 C0.33 1.32 0.66 2.64 1 4 C1.722682354 7.298513899 1.722682354 7.298513899 5.0625 8.6875 C6.5165625 9.3371875 6.5165625 9.3371875 8 10 C8.081564373 12.854753062 8.140763717 15.707135649 8.1875 18.5625 C8.212636719 19.362363281 8.237773438 20.162226562 8.263671875 20.986328125 C8.330548854 26.447948049 7.490951904 30.129241028 5 35 C4.67 35 4.34 35 4 35 C4.0721875 34.382539063 4.144375 33.765078125 4.21875 33.12890625 C4.848885903 27.378916135 5.093282813 21.783534414 5 16 C5 16.66 5 17.32 5 18 C4.892937888 19.66791501 4.765400467 21.334559972 4.625 23 C4.555390625 23.886875 4.48578125 24.77375 4.4140625 25.6875 C4 28 4 28 2 30 C0.822263494 28.25743068 -0.341831795 26.50563593 -1.5 24.75 C-2.1496875 23.77546875 -2.799375 22.8009375 -3.46875 21.796875 C-5 19 -5 19 -5 15 C-5.99 14.01 -6.98 13.02 -8 12 C-5.36 8.04 -2.72 4.08 0 0 Z " fill="#E9E7DF" transform="translate(144,36)" />
<path d="M0 0 C5.180640763 -0.518064076 5.180640763 -0.518064076 8 0 C10.0625 2.5625 10.0625 2.5625 12 6 C14.233783381 8.43818186 16.602412843 10.72363916 19 13 C15.2578125 15.0234375 15.2578125 15.0234375 12.9375 14.8125 C10.742447177 13.891993977 9.551337194 12.784037773 8 11 C8.33 12.32 8.66 13.64 9 15 C5.249281858 16.821777383 2.993626683 17.366240707 -1 16 C-2.63671875 14.7421875 -2.63671875 14.7421875 -4 13 C-4.29296875 10.73828125 -4.29296875 10.73828125 -4.1875 8.3125 C-4.160429687 7.504257813 -4.133359375 6.696015625 -4.10546875 5.86328125 C-4.070664062 5.248398438 -4.035859375 4.633515625 -4 4 C-3.01 4 -2.02 4 -1 4 C-1 4.99 -1 5.98 -1 7 C0.32 7 1.64 7 3 7 C2.505 6.401875 2.01 5.80375 1.5 5.1875 C0 3 0 3 0 0 Z " fill="#ECECE2" transform="translate(150,28)" />
<path d="M0 0 C0 3.51716303 -0.824455845 4.37121748 -3 7 C-1.8553125 6.7525 -1.8553125 6.7525 -0.6875 6.5 C2 6 2 6 5 6 C3.71034824 7.375628544 2.373107074 8.70766393 1 10 C0.34 10 -0.32 10 -1 10 C-4.322833264 19.7794915 -4.322833264 19.7794915 -5 30 C-3.228453477 32.525908476 -3.228453477 32.525908476 -1 34 C-1 34.66 -1 35.32 -1 36 C-3.64 36 -6.28 36 -9 36 C-9 34.68 -9 33.36 -9 32 C-9.99 31.67 -10.98 31.34 -12 31 C-11.556421918 27.137174207 -11.035186815 23.288615122 -10.5 19.4375 C-10.37625 18.351464844 -10.2525 17.265429688 -10.125 16.146484375 C-9.086555565 9.028813143 -7.483213059 5.439627833 -1.662109375 1.093994141 C-1.113613281 0.732976074 -0.565117188 0.371958008 0 0 Z " fill="#8C8982" transform="translate(57,94)" />
<path d="M0 0 C-3.751170499 2.438593965 -7.490372026 2.279367437 -11.80859375 2.2734375 C-13.376959872 2.293756531 -14.945319172 2.314607799 -16.513671875 2.3359375 C-18.961891094 2.358337915 -21.409838011 2.374933042 -23.858154297 2.380859375 C-42.233203537 2.418538029 -42.233203537 2.418538029 -58 11 C-60.739281571 15.108922356 -60.606138299 18.172541401 -60 23 C-58.528836355 28.142133307 -56.693717703 33.359650363 -54 38 C-51.949991291 38.805288895 -51.949991291 38.805288895 -50 39 C-50.309375 39.66 -50.61875 40.32 -50.9375 41 C-52.560476493 45.582521864 -53 50.130921481 -53 55 C-55 53 -55 53 -55.1953125 50.3984375 C-55.172109375 49.400703125 -55.14890625 48.40296875 -55.125 47.375 C-55.106953125 46.372109375 -55.08890625 45.36921875 -55.0703125 44.3359375 C-55.047109375 43.565078125 -55.02390625 42.79421875 -55 42 C-55.99 42.99 -56.98 43.98 -58 45 C-58.66 44.67 -59.32 44.34 -60 44 C-58.02 41.525 -58.02 41.525 -56 39 C-57.485 36.525 -57.485 36.525 -59 34 C-59.66 34.66 -60.32 35.32 -61 36 C-60.95875 34.845 -60.9175 33.69 -60.875 32.5 C-60.859125668 28.055186993 -61.782068946 24.262758689 -63 20 C-63.519492187 20.663867188 -64.038984375 21.327734375 -64.57421875 22.01171875 C-68.187073942 26.586221165 -71.744633594 31.010593994 -76 35 C-76.66 34.67 -77.32 34.34 -78 34 C-77.27296875 33.359980469 -77.27296875 33.359980469 -76.53125 32.70703125 C-71.155055675 27.692696158 -67.549176466 22.297617009 -63.8046875 15.99609375 C-59.323531157 8.556598262 -54.663725615 4.358913681 -46.281494141 1.916503906 C-42.104245935 0.920585375 -38.090233307 0.656357285 -33.80859375 0.5859375 C-33.059653473 0.56657135 -32.310713196 0.5472052 -31.539077759 0.527252197 C-29.171996609 0.46811874 -26.804860605 0.421433061 -24.4375 0.375 C-22.846985683 0.336740763 -21.256490325 0.29768467 -19.666015625 0.2578125 C-13.109978945 0.09960298 -6.55821852 -0.020305736 0 0 Z " fill="#3F3C33" transform="translate(122,54)" />
<path d="M0 0 C0.33 0.66 0.66 1.32 1 2 C0.67 2.99 0.34 3.98 0 5 C-0.290980337 10.04936467 -0.310361608 15.086143969 1 20 C1.66 19.34 2.32 18.68 3 18 C2.91435791 18.593129883 2.82871582 19.186259766 2.740478516 19.797363281 C-1.53630905 39.727656632 -1.53630905 39.727656632 1 59 C2.98 58.505 2.98 58.505 5 58 C4.360625 57.649375 3.72125 57.29875 3.0625 56.9375 C0.710300387 54.727857939 0.373359138 53.301774851 0.007080078 50.151123047 C-0.007289287 45.785313428 1.221761832 41.637876521 2.3125 37.4375 C2.538730469 36.517753906 2.764960938 35.598007813 2.998046875 34.650390625 C4.150817712 30.029340959 5.407629254 25.493027317 7 21 C7.66 21.66 8.32 22.32 9 23 C8.4740625 24.0209375 8.4740625 24.0209375 7.9375 25.0625 C6.772781732 28.711950573 7.306778583 31.343098032 8 35 C8.359591957 37.311662584 8.713375083 39.624233463 9.0625 41.9375 C9.374632963 43.958390058 9.687010481 45.979242426 10 48 C9.34 47.67 8.68 47.34 8 47 C7.3671875 44.49609375 7.3671875 44.49609375 6.875 41.4375 C6.707421875 40.425585938 6.53984375 39.413671875 6.3671875 38.37109375 C6.246015625 37.588632813 6.12484375 36.806171875 6 36 C2.947296906 41.698379108 1.993268996 47.574057421 3 54 C5.338309583 56.540422604 5.338309583 56.540422604 8 58 C8 58.66 8 59.32 8 60 C2.04296875 60.48828125 2.04296875 60.48828125 0 60 C-2.657085045 57.004209608 -2.994571626 55.189993087 -3.109375 51.171875 C-3.006060427 49.696670163 -2.885356058 48.22261059 -2.75 46.75 C-2.631306335 45.153660994 -2.512822409 43.557306382 -2.39453125 41.9609375 C-2.328305664 41.145927734 -2.262080078 40.330917969 -2.193847656 39.491210938 C-1.879862092 35.456061445 -1.6632372 31.415868193 -1.4375 27.375 C-1.353471855 25.94527668 -1.268894939 24.515585432 -1.18359375 23.0859375 C-1.123007812 22.067578125 -1.062421875 21.04921875 -1 20 C-5.62 20 -10.24 20 -15 20 C-15 19.67 -15 19.34 -15 19 C-10.71 19 -6.42 19 -2 19 C-2.023203125 17.96359375 -2.04640625 16.9271875 -2.0703125 15.859375 C-2.08907667 14.489590558 -2.107276177 13.119798299 -2.125 11.75 C-2.141757813 11.068085938 -2.158515625 10.386171875 -2.17578125 9.68359375 C-2.212134816 5.939176496 -2.079443486 3.176472727 0 0 Z " fill="#46443C" transform="translate(125,70)" />
<path d="M0 0 C0.99 0.33 1.98 0.66 3 1 C3 1.66 3 2.32 3 3 C3.626484375 2.976796875 4.25296875 2.95359375 4.8984375 2.9296875 C5.715703125 2.911640625 6.53296875 2.89359375 7.375 2.875 C8.187109375 2.851796875 8.99921875 2.82859375 9.8359375 2.8046875 C12 3 12 3 14 5 C13.444444444 9.555555556 13.444444444 9.555555556 12 11 C7.923387273 11.271774182 5.556671962 10.88948198 2 9 C0.004918452 8.638391469 -1.995085411 8.30237163 -4 8 C-3.965195312 8.99 -3.930390625 9.98 -3.89453125 11 C-3.718654885 18.239327666 -3.747440955 24.359358616 -7 31 C-8 28 -8 28 -7 25 C-6.855078767 23.593350739 -6.753710687 22.181886702 -6.68359375 20.76953125 C-6.641699219 19.967089844 -6.599804688 19.164648437 -6.556640625 18.337890625 C-6.517324219 17.504511719 -6.478007813 16.671132813 -6.4375 15.8125 C-6.394316406 14.967519531 -6.351132812 14.122539062 -6.306640625 13.251953125 C-6.200684822 11.168155666 -6.099849798 9.084098966 -6 7 C-6.99 6.67 -7.98 6.34 -9 6 C-6.985802296 4.992901148 -5.180962739 4.52871824 -3 4 C-2.01 3.67 -1.02 3.34 0 3 C0 2.01 0 1.02 0 0 Z " fill="#87857D" transform="translate(158,39)" />
<path d="M0 0 C1.16213504 3.486405121 0.991101022 6.213575483 0.83984375 9.84375 C0.844616822 12.299432683 0.844616822 12.299432683 3 15 C1.68 15.33 0.36 15.66 -1 16 C-1.597328192 13.237357113 -2 10.83967231 -2 8 C-2.377695313 8.70125 -2.755390625 9.4025 -3.14453125 10.125 C-7.580888805 17.771742765 -12.554947507 22.301404484 -20 27 C-18.39125 27.3403125 -18.39125 27.3403125 -16.75 27.6875 C-12.50570704 29.173002536 -11.225976284 30.14734874 -9 34 C-8.25 37.8125 -8.25 37.8125 -8 41 C-9.942555409 38.086166886 -11.436317809 35.127364381 -13 32 C-14.647455961 30.352544039 -16.553354506 30.8290384 -18.8125 30.8125 C-19.685195312 30.798320312 -20.557890625 30.784140625 -21.45703125 30.76953125 C-24.10919085 31.009895945 -25.724649986 31.658126915 -28 33 C-26.606674259 29.632796126 -25.021071396 28.014047597 -22 26 C-22.33 25.34 -22.66 24.68 -23 24 C-22.113125 23.443125 -21.22625 22.88625 -20.3125 22.3125 C-17.949011266 20.753603175 -16.298759825 19.298759825 -14.25 17.25 C-13.5075 16.5075 -12.765 15.765 -12 15 C-11.34 15 -10.68 15 -10 15 C-9.755078125 14.45859375 -9.51015625 13.9171875 -9.2578125 13.359375 C-7.706462119 10.449388572 -5.832856962 7.9025804 -3.875 5.25 C-3.150546875 4.26515625 -2.42609375 3.2803125 -1.6796875 2.265625 C-1.125390625 1.51796875 -0.57109375 0.7703125 0 0 Z " fill="#36332D" transform="translate(146,29)" />
<path d="M0 0 C0.12375 0.639375 0.2475 1.27875 0.375 1.9375 C0.684375 2.9584375 0.684375 2.9584375 1 4 C1.66 4.33 2.32 4.66 3 5 C2.82984375 5.585234375 2.6596875 6.17046875 2.484375 6.7734375 C0.756231931 12.895476245 -0.79445101 19.058201285 -2.25 25.25 C-2.437236328 26.005874023 -2.624472656 26.761748047 -2.817382812 27.540527344 C-3.91390028 32.31761157 -4.156373517 36.135889173 -3 41 C-1.083784248 43.420113002 -1.083784248 43.420113002 1 45 C-1.3125 45.3125 -1.3125 45.3125 -4 45 C-7.033687487 41.154977487 -7.29479096 38.538865532 -6.8125 33.75 C-6.691328125 32.524101562 -6.57015625 31.298203125 -6.4453125 30.03515625 C-6.372158203 29.383051758 -6.299003906 28.730947266 -6.223632812 28.059082031 C-5.990769492 25.915010802 -5.801972124 23.769807264 -5.6171875 21.62109375 C-4.886792465 13.773012029 -3.830357412 7.022321921 0 0 Z " fill="#E6E4DC" transform="translate(130,84)" />
<path d="M0 0 C2.875 -0.125 2.875 -0.125 6 0 C8.664843652 2.664843652 8.329208363 4.098798276 8.375 7.8125 C8.301118766 11.668176878 8.172407609 13.668446906 6.375 17.125 C3.675846938 19.255910312 1.321861162 20.16953471 -2 21 C-1.67 20.13375 -1.34 19.2675 -1 18.375 C0.745737887 12.437032398 0.152841703 6.122159306 0 0 Z " fill="#EBE9DF" transform="translate(138,64)" />
<path d="M0 0 C2.611201452 2.611201452 2.263422051 3.781499359 2.30859375 7.41796875 C2.333730469 8.507871094 2.358867188 9.597773437 2.384765625 10.720703125 C2.419623988 13.012317745 2.450936261 15.303989344 2.478515625 17.595703125 C2.659040678 25.085291287 3.007139425 30.665098216 8.1875 36.4375 C9.0846875 37.2109375 9.0846875 37.2109375 10 38 C8.35 38 6.7 38 5 38 C4.566875 37.0409375 4.566875 37.0409375 4.125 36.0625 C3.171765491 33.847939209 3.171765491 33.847939209 1 33 C0.571493204 30.58667353 0.249042063 28.245272 0 25.8125 C-0.51025284 20.96982258 -1.42268698 16.618319056 -3 12 C-2.64731051 7.767726122 -1.424540377 3.988713057 0 0 Z " fill="#E3E0D9" transform="translate(134,90)" />
<path d="M0 0 C2.64 0 5.28 0 8 0 C8.99 1.98 9.98 3.96 11 6 C10.01 6.33 9.02 6.66 8 7 C7.34 6.67 6.68 6.34 6 6 C5.67 7.32 5.34 8.64 5 10 C3.35 10 1.7 10 0 10 C0.33 10.99 0.66 11.98 1 13 C-0.9375 13.5625 -0.9375 13.5625 -3 14 C-4 13 -4 13 -4.09765625 10.93359375 C-4.086054687 10.109882813 -4.074453125 9.286171875 -4.0625 8.4375 C-4.053476563 7.611210937 -4.044453125 6.784921875 -4.03515625 5.93359375 C-4.023554687 5.295507812 -4.011953125 4.657421875 -4 4 C-3.01 4 -2.02 4 -1 4 C-1 4.99 -1 5.98 -1 7 C0.32 7 1.64 7 3 7 C2.505 6.401875 2.01 5.80375 1.5 5.1875 C0 3 0 3 0 0 Z " fill="#E6E6DC" transform="translate(150,28)" />
<path d="M0 0 C1.32 0.66 2.64 1.32 4 2 C4 2.66 4 3.32 4 4 C5.65 3.67 7.3 3.34 9 3 C11.180470554 7.906058747 12 10.694568934 12 16 C9.03 16 6.06 16 3 16 C3 15.34 3 14.68 3 14 C5.31 14 7.62 14 10 14 C9.0925 13.773125 8.185 13.54625 7.25 13.3125 C3.511521716 11.802729924 2.278371601 10.254816573 0 7 C-0.66 6.34 -1.32 5.68 -2 5 C-2 4.01 -2 3.02 -2 2 C-1.34 2 -0.68 2 0 2 C0 1.34 0 0.68 0 0 Z " fill="#BDBAAE" transform="translate(175,49)" />
</svg>