<?xml version='1.0' encoding='utf-8'?>
<svg xmlns="http://www.w3.org/2000/svg" version="1.1" width="102" height="118" viewBox="16.875 8.0 102.3125 118.770195586">
<path d="M0 0 C3.980195284 0.052376932 7.958303062 0.147569637 11.9375 0.25 C13.054472656 0.264179687 14.171445312 0.278359375 15.322265625 0.29296875 C22.119809509 0.492310213 28.255865689 1.060753777 34 5 C35.82911774 7.276562349 36.796032977 9.291074198 38 12 C38.495 12.99 38.495 12.99 39 14 C39.076069157 15.717895136 39.146984693 17.436207447 39.188964844 19.155273438 C39.413129094 27.078134702 40.538695274 34.540081811 42.375 42.25 C42.688725586 43.588651123 42.688725586 43.588651123 43.008789062 44.954345703 C44.139894284 49.483515506 45.426899029 53.054578512 48 57 C48.1875 59.8125 48.1875 59.8125 48 62 C46.09765625 61.3359375 46.09765625 61.3359375 44 60 C43.05859375 57.6015625 43.05859375 57.6015625 42.4375 54.625 C42.202890625 53.560234375 41.96828125 52.49546875 41.7265625 51.3984375 C41.486796875 50.276953125 41.24703125 49.15546875 41 48 C40.445877043 45.747922293 39.883789606 43.497784339 39.3125 41.25 C38.875 39.5 38.4375 37.75 38 36 C36.24503343 39.162884626 35.380728393 42.166870498 34.59765625 45.69140625 C34.346933594 46.801933594 34.096210937 47.912460938 33.837890625 49.056640625 C33.582011719 50.213574219 33.326132812 51.370507812 33.0625 52.5625 C31.592688059 59.152219522 30.115743685 65.737999092 28.43359375 72.27734375 C28.205993652 73.165427246 27.978393555 74.053510742 27.743896484 74.968505859 C27 77 27 77 25 78 C22.650594698 77.392395181 20.314709121 76.728704723 18 76 C18 74.68 18 73.36 18 72 C16.35 71.67 14.7 71.34 13 71 C13.437131244 68.552065035 13.826091149 67.195647458 15.5 65.3125 C17.467544229 62.279202647 17.537176964 59.677477631 17.7890625 56.12109375 C18 54 18 54 19 51 C20.550908148 52.550908148 20.206773112 54.036962327 20.25 56.1875 C20.196071843 61.840968444 18.091230415 65.363154377 15 70 C17.475 69.505 17.475 69.505 20 69 C23.070115535 59.058673507 23.68604689 52.072675839 21 42 C21 40.68 21 39.36 21 38 C20.419921875 38.2165625 19.83984375 38.433125 19.2421875 38.65625 C14.674461133 40.284350487 10.921953604 41.378611816 6 41 C6.165 40.030625 6.33 39.06125 6.5 38.0625 C7.338581002 32.083052853 8.077351489 26.388405966 5 21 C4.67 22.65 4.34 24.3 4 26 C3.01 26.33 2.02 26.66 1 27 C0.21625 26.175 -0.5675 25.35 -1.375 24.5 C-3.637212644 21.770114943 -3.637212644 21.770114943 -6 22 C-6 21.34 -6 20.68 -6 20 C-4.013102686 18.64721885 -2.012547824 17.314316946 0 16 C1.230049815 13.53990037 1.133140273 11.868271942 1.125 9.125 C1.128867187 7.829492188 1.128867187 7.829492188 1.1328125 6.5078125 C1.009774546 4.184566422 0.59662675 2.236609715 0 0 Z " fill="#C5C3B7" transform="translate(61,36)" />
<path d="M0 0 C2.861967894 0.408852556 4.73961348 0.81619775 7.125 2.5 C10.949091407 4.495178125 14.40643043 4.503224872 18.671875 4.69140625 C19.44015625 4.793242187 20.2084375 4.895078125 21 5 C21.33 5.66 21.66 6.32 22 7 C23.65 6.67 25.3 6.34 27 6 C29.31 9.3 31.62 12.6 34 16 C34.66 15.34 35.32 14.68 36 14 C35.749002264 22.734721225 34.786946486 30.581660436 32.446777344 38.987060547 C30.840643543 44.997180843 30.444836518 50.784955267 30.2734375 56.98828125 C30 60 30 60 28 63 C25.309816844 63.770195586 22.818684759 63.821035888 20 64 C19 63 19 63 18.886474609 59.306396484 C18.886633763 57.661287076 18.892330116 56.016172689 18.90234375 54.37109375 C18.903758698 53.506862946 18.905173645 52.642632141 18.90663147 51.752212524 C18.912247612 48.980607078 18.924802809 46.2090812 18.9375 43.4375 C18.942512922 41.563152205 18.947076188 39.688803149 18.951171875 37.814453125 C18.962222284 33.209604564 18.979497704 28.60481579 19 24 C22 26 22 26 22.681396484 27.774658203 C23.05915011 30.413144256 23.111930285 32.93929868 23.09765625 35.60546875 C23.094433594 36.670878906 23.091210938 37.736289062 23.087890625 38.833984375 C23.079511719 39.940644531 23.071132812 41.047304688 23.0625 42.1875 C23.057988281 43.305761719 23.053476562 44.424023437 23.048828125 45.576171875 C23.036893732 48.384163985 23.019776405 51.192054679 23 54 C23 54.33 23 54.66 23 55 C23.210526203 40.85263919 23.366108202 26.985389552 21 13 C21 16.3 21 19.6 21 23 C15.694132489 20.942622802 11.465194855 18.553930599 7 15 C7 14.34 7 13.68 7 13 C6.34 13 5.68 13 5 13 C4.67 13.33 4.34 13.66 4 14 C1.315669524 11.549089565 0.082102589 9.717586164 -0.09765625 5.95703125 C-0.065104167 3.971354167 -0.032552083 1.985677083 0 0 Z " fill="#B0AEA3" transform="translate(31,53)" />
<path d="M0 0 C1.875 0.25 1.875 0.25 4 1 C5.1328125 3.046875 5.1328125 3.046875 6 5 C6.831445313 4.988398437 7.662890625 4.976796875 8.51953125 4.96484375 C9.606210938 4.955820313 10.692890625 4.946796875 11.8125 4.9375 C12.891445312 4.925898437 13.970390625 4.914296875 15.08203125 4.90234375 C18 5 18 5 21 6 C21.717277781 7.645519616 22.383252276 9.314222889 23 11 C23.66 11.66 24.32 12.32 25 13 C25.33 12.34 25.66 11.68 26 11 C30.218212126 12.745772665 31.388879963 14.808692647 33.23828125 18.84375 C34.766616082 23.170113217 34.615980736 26.573518296 32.8125 30.75 C30.614207946 33.478914274 29.273762054 34.676564276 26 36 C22.650304185 36.236328232 19.351499345 36.175709674 16 36 C17 34 17 34 19 33 C19.45375 32.236875 19.9075 31.47375 20.375 30.6875 C21.990292612 28.016054526 23.725213189 26.117904962 26 24 C25 25 25 25 22.5625 25.8125 C19.869665081 26.774545683 19.869665081 26.774545683 18.6875 29.125 C18.460625 29.74375 18.23375 30.3625 18 31 C17.3503125 30.0409375 17.3503125 30.0409375 16.6875 29.0625 C15.087608225 26.732539969 15.087608225 26.732539969 12 26 C12.33 25.01 12.66 24.02 13 23 C15.019917851 22.059693414 17.055163822 21.483450853 19.1875 20.84375 C19.785625 20.5653125 20.38375 20.286875 21 20 C21.33 19.01 21.66 18.02 22 17 C20.02 17 18.04 17 16 17 C15.67 17.66 15.34 18.32 15 19 C15.66 19 16.32 19 17 19 C17 19.66 17 20.32 17 21 C15.02 21.33 13.04 21.66 11 22 C10.67 20.68 10.34 19.36 10 18 C9.34 18 8.68 18 8 18 C6.875 13.25 6.875 13.25 8 11 C6.68 10.01 5.36 9.02 4 8 C4.33 7.67 4.66 7.34 5 7 C4.01 6.67 3.02 6.34 2 6 C0.8125 2.9375 0.8125 2.9375 0 0 Z " fill="#BEBCB0" transform="translate(28,20)" />
<path d="M0 0 C3.772904168 1.637298035 5.436404608 3.450533737 7.203125 7.2421875 C8.208417171 10.721286877 8.332425525 14.093786821 8.4375 17.6875 C8.645455587 24.766754386 9.726161205 31.362756598 11.375 38.25 C11.58439209 39.14291748 11.79378418 40.035834961 12.009521484 40.955810547 C13.139886542 45.484613617 14.427219768 49.05507031 17 53 C17.1875 55.8125 17.1875 55.8125 17 58 C15.09765625 57.3359375 15.09765625 57.3359375 13 56 C12.05859375 53.6015625 12.05859375 53.6015625 11.4375 50.625 C11.202890625 49.560234375 10.96828125 48.49546875 10.7265625 47.3984375 C10.486796875 46.276953125 10.24703125 45.15546875 10 44 C9.445877043 41.747922293 8.883789606 39.497784339 8.3125 37.25 C7.875 35.5 7.4375 33.75 7 32 C5.24503343 35.162884626 4.380728393 38.166870498 3.59765625 41.69140625 C3.346933594 42.801933594 3.096210938 43.912460938 2.837890625 45.056640625 C2.582011719 46.213574219 2.326132812 47.370507812 2.0625 48.5625 C0.592688059 55.152219522 -0.884256315 61.737999092 -2.56640625 68.27734375 C-2.794006348 69.165427246 -3.021606445 70.053510742 -3.256103516 70.968505859 C-4 73 -4 73 -6 74 C-8.349405302 73.392395181 -10.685290879 72.728704723 -13 72 C-13 70.68 -13 69.36 -13 68 C-14.65 67.67 -16.3 67.34 -18 67 C-17.562868756 64.552065035 -17.173908851 63.195647458 -15.5 61.3125 C-13.532455771 58.279202647 -13.462823036 55.677477631 -13.2109375 52.12109375 C-13 50 -13 50 -12 47 C-10.449091852 48.550908148 -10.793226888 50.036962327 -10.75 52.1875 C-10.803928157 57.840968444 -12.908769585 61.363154377 -16 66 C-13.525 65.505 -13.525 65.505 -11 65 C-7.929884465 55.058673507 -7.31395311 48.072675839 -10 38 C-10 36.68 -10 35.36 -10 34 C-11.98 34.495 -11.98 34.495 -14 35 C-13.722851562 34.46890625 -13.445703125 33.9378125 -13.16015625 33.390625 C-12.797929688 32.68421875 -12.435703125 31.9778125 -12.0625 31.25 C-11.702851563 30.55390625 -11.343203125 29.8578125 -10.97265625 29.140625 C-9.1358765 25.098234225 -8.884773698 21.679009396 -8.9375 17.25 C-8.951035156 15.772734375 -8.951035156 15.772734375 -8.96484375 14.265625 C-8.976445313 13.51796875 -8.988046875 12.7703125 -9 12 C-8.01 12.33 -7.02 12.66 -6 13 C-5.805264121 18.549972562 -6.438458365 22.632200631 -8 28 C-8.293724668 31.965283014 -7.975045164 35.308394644 -7 39.125 C-5.320099971 46.047141255 -4.91948785 54.125987857 -7 61 C-5.02 60.505 -5.02 60.505 -3 60 C-2.793186035 59.10168457 -2.58637207 58.203369141 -2.373291016 57.277832031 C-1.605624693 53.948906628 -0.835692373 50.620522434 -0.064208984 47.292480469 C0.269386006 45.851285178 0.602073247 44.409879458 0.933837891 42.968261719 C1.41054267 40.897553065 1.890494327 38.827620215 2.37109375 36.7578125 C2.659118652 35.511450195 2.947143555 34.265087891 3.243896484 32.980957031 C4 30 4 30 5 28 C5.227501503 26.129432087 5.409628105 24.253140419 5.5625 22.375 C5.646289063 21.372109375 5.730078125 20.36921875 5.81640625 19.3359375 C5.907285156 18.179648437 5.907285156 18.179648437 6 17 C5.225273437 16.7215625 4.450546875 16.443125 3.65234375 16.15625 C1 15 1 15 -1.4375 12.5 C-4.224087079 9.781378459 -6.272976045 8.953424733 -10 8 C-9.01 7.34 -8.02 6.68 -7 6 C-2.725455754 8.747921301 1.141261533 11.692509886 5 15 C5.782874973 8.893575207 3.108251506 4.995404206 0 0 Z " fill="#676458" transform="translate(92,40)" />
<path d="M0 0 C2.861967894 0.408852556 4.73961348 0.81619775 7.125 2.5 C10.949091407 4.495178125 14.40643043 4.503224872 18.671875 4.69140625 C19.44015625 4.793242187 20.2084375 4.895078125 21 5 C21.33 5.66 21.66 6.32 22 7 C23.65 6.67 25.3 6.34 27 6 C28.172326847 7.620921304 29.337707704 9.246868332 30.5 10.875 C31.1496875 11.779921875 31.799375 12.68484375 32.46875 13.6171875 C34 16 34 16 34 18 C33.34 18 32.68 18 32 18 C31.34 17.34 30.68 16.68 30 16 C29.01 16.33 28.02 16.66 27 17 C24 12.25 24 12.25 24 10 C23.01 10 22.02 10 21 10 C21 14.29 21 18.58 21 23 C15.694132489 20.942622802 11.465194855 18.553930599 7 15 C7 14.34 7 13.68 7 13 C6.34 13 5.68 13 5 13 C4.67 13.33 4.34 13.66 4 14 C1.315669524 11.549089565 0.082102589 9.717586164 -0.09765625 5.95703125 C-0.065104167 3.971354167 -0.032552083 1.985677083 0 0 Z " fill="#C0BEB2" transform="translate(31,53)" />
<path d="M0 0 C5.007470008 10.014940016 4.220297064 22.843373687 4.3125 33.8125 C4.330063477 34.963793945 4.347626953 36.115087891 4.365722656 37.301269531 C4.36451416 38.925246582 4.36451416 38.925246582 4.36328125 40.58203125 C4.366262207 41.553742676 4.369243164 42.525454102 4.372314453 43.526611328 C3.943574708 46.374848941 3.227561485 47.248800201 1 49 C1.242303467 48.18015625 1.242303467 48.18015625 1.489501953 47.34375 C2.511572551 42.651316838 2.184679912 37.782869589 2.1875 33 C2.199746094 31.906875 2.211992188 30.81375 2.224609375 29.6875 C2.226542969 28.635625 2.228476562 27.58375 2.23046875 26.5 C2.23663208 25.06140625 2.23663208 25.06140625 2.242919922 23.59375 C1.992658846 20.921615659 1.361686009 19.288253129 0 17 C0.020947266 17.918134766 0.041894531 18.836269531 0.063476562 19.782226562 C0.131745834 23.196554284 0.181843848 26.610154426 0.219726562 30.024902344 C0.239813005 31.501255904 0.267088012 32.977530186 0.301757812 34.453613281 C0.350411843 36.578649623 0.372996729 38.702632342 0.390625 40.828125 C0.411572266 42.105908203 0.432519531 43.383691406 0.454101562 44.700195312 C0 48 0 48 -1.790039062 50.432617188 C-4.886646596 52.628841267 -7.301306222 52.284514906 -11 52 C-11.33 50.68 -11.66 49.36 -12 48 C-11.34 47.649375 -10.68 47.29875 -10 46.9375 C-7.670930365 45.107659001 -7.670930365 45.107659001 -7.75390625 41.94921875 C-8.03569774 37.427136275 -8.884358477 33.269770509 -9.9375 28.875 C-10.301130171 27.309976863 -10.664420891 25.744874811 -11.02734375 24.1796875 C-11.197338867 23.456201172 -11.367333984 22.732714844 -11.542480469 21.987304688 C-12.076636872 19.667116256 -12.553872178 17.338649004 -13 15 C-10.42274665 18.053720356 -9.304321317 20.705417101 -8.3125 24.5625 C-8.061132812 25.512539062 -7.809765625 26.462578125 -7.55078125 27.44140625 C-7 30 -7 30 -7 33 C-5.68 33 -4.36 33 -3 33 C-1.178269081 23.187359526 -1.178269081 23.187359526 -4 14 C-5.897762516 12.322187374 -5.897762516 12.322187374 -8.0625 10.875 C-11.902777778 8.194444444 -11.902777778 8.194444444 -13 6 C-10.458287961 7.173097864 -8.271162559 8.490849705 -5.9375 10.0625 C-3.116426599 12.104725434 -3.116426599 12.104725434 0 13 C0 8.71 0 4.42 0 0 Z " fill="#8B897E" transform="translate(51,62)" />
<path d="M0 0 C2.31 0.33 4.62 0.66 7 1 C7 1.33 7 1.66 7 2 C5.02 2 3.04 2 1 2 C1 2.66 1 3.32 1 4 C1.804375 3.71125 2.60875 3.4225 3.4375 3.125 C8.67678132 2.941165568 12.127860881 5.601122329 16 9 C16 9.66 16 10.32 16 11 C15.01 11 14.02 11 13 11 C13 11.66 13 12.32 13 13 C13.66 13 14.32 13 15 13 C15.09765625 19.15234375 15.09765625 19.15234375 15 21 C14.67 21.33 14.34 21.66 14 22 C14.66 22.66 15.32 23.32 16 24 C13.332893464 23.847593912 11.549412901 23.506350809 9.5546875 21.66796875 C6 17.49375 6 17.49375 6 15 C5.34 15 4.68 15 4 15 C3.67 14.67 3.34 14.34 3 14 C2.67 15.65 2.34 17.3 2 19 C1.01 19.33 0.02 19.66 -1 20 C-1.78375 19.175 -2.5675 18.35 -3.375 17.5 C-5.637212644 14.770114943 -5.637212644 14.770114943 -8 15 C-8 14.34 -8 13.68 -8 13 C-6.576875 12.2265625 -6.576875 12.2265625 -5.125 11.4375 C-0.912216311 8.151528723 -0.634569768 5.120321578 0 0 Z " fill="#BDBBAE" transform="translate(63,43)" />
<path d="M0 0 C3.772904168 1.637298035 5.436404608 3.450533737 7.203125 7.2421875 C8.208417171 10.721286877 8.332425525 14.093786821 8.4375 17.6875 C8.645455587 24.766754386 9.726161205 31.362756598 11.375 38.25 C11.58439209 39.14291748 11.79378418 40.035834961 12.009521484 40.955810547 C13.139886542 45.484613617 14.427219768 49.05507031 17 53 C17.1875 55.8125 17.1875 55.8125 17 58 C15.09765625 57.3359375 15.09765625 57.3359375 13 56 C12.05859375 53.6015625 12.05859375 53.6015625 11.4375 50.625 C11.202890625 49.560234375 10.96828125 48.49546875 10.7265625 47.3984375 C10.486796875 46.276953125 10.24703125 45.15546875 10 44 C9.445877043 41.747922293 8.883789606 39.497784339 8.3125 37.25 C7.875 35.5 7.4375 33.75 7 32 C5.1764264 35.254844081 4.348896414 38.369618356 3.5625 42.0078125 C3.179648437 43.734511719 3.179648437 43.734511719 2.7890625 45.49609375 C2.26139867 47.922824931 1.735366714 50.349911497 1.2109375 52.77734375 C0.955703125 53.925898437 0.70046875 55.074453125 0.4375 56.2578125 C0.209335938 57.311137695 -0.018828125 58.364462891 -0.25390625 59.449707031 C-1 62 -1 62 -3 64 C-2.215218021 57.730561942 -0.911314082 51.607439634 0.4375 45.4375 C0.654707031 44.422363281 0.871914062 43.407226562 1.095703125 42.361328125 C1.960595771 38.384899776 2.82789872 34.513905216 4.12109375 30.65234375 C5.078619044 27.762745197 5.403231165 25.15584074 5.625 22.125 C5.699765625 21.158203125 5.77453125 20.19140625 5.8515625 19.1953125 C5.900546875 18.470859375 5.94953125 17.74640625 6 17 C5.225273437 16.7215625 4.450546875 16.443125 3.65234375 16.15625 C1 15 1 15 -1.4375 12.5 C-4.224087079 9.781378459 -6.272976045 8.953424733 -10 8 C-9.01 7.34 -8.02 6.68 -7 6 C-2.725455754 8.747921301 1.141261533 11.692509886 5 15 C5.782874973 8.893575207 3.108251506 4.995404206 0 0 Z " fill="#46433B" transform="translate(92,40)" />
<path d="M0 0 C4.218212126 1.745772665 5.388879963 3.808692647 7.23828125 7.84375 C8.766616082 12.170113217 8.615980736 15.573518296 6.8125 19.75 C4.614207946 22.478914274 3.273762054 23.676564276 0 25 C-3.349695815 25.236328232 -6.648500655 25.175709674 -10 25 C-9 23 -9 23 -7 22 C-6.54625 21.236875 -6.0925 20.47375 -5.625 19.6875 C-4 17 -4 17 -1.8125 15.0625 C0.299989318 13.062168451 0.299989318 13.062168451 0.3125 9.875 C0.175280742 7.060608275 0.175280742 7.060608275 -1 5 C-0.720575452 3.323452711 -0.39171753 1.653918458 0 0 Z " fill="#B5B3A8" transform="translate(54,31)" />
<path d="M0 0 C3.372194172 0.612438852 5.432414059 1.843835267 8.125 3.9375 C8.808203125 4.462148438 9.49140625 4.986796875 10.1953125 5.52734375 C12.803762593 7.655884194 13.912358994 8.737076981 15 12 C15.021728516 13.901123047 15.021728516 13.901123047 14.87890625 16.01171875 C14.830566406 16.769042969 14.782226562 17.526367188 14.732421875 18.306640625 C14.676347656 19.092324219 14.620273438 19.878007813 14.5625 20.6875 C14.510292969 21.484785156 14.458085938 22.282070312 14.404296875 23.103515625 C14.274809776 25.069365223 14.138099587 27.034736645 14 29 C13.67 28.34 13.34 27.68 13 27 C11.68 27 10.36 27 9 27 C8.68546875 25.949414062 8.3709375 24.898828125 8.046875 23.81640625 C5.764831437 16.297927694 3.322008278 9.13616593 0 2 C0 1.34 0 0.68 0 0 Z " fill="#CAC7BC" transform="translate(35,68)" />
<path d="M0 0 C0.66 0 1.32 0 2 0 C2.125 5.75 2.125 5.75 1 8 C1.66 8.33 2.32 8.66 3 9 C2.587911893 14.254123365 1.822829128 17.28336057 -2 21 C-5.714417655 23.052704493 -8.799557033 23.19536944 -13 23 C-12.7525 21.63875 -12.7525 21.63875 -12.5 20.25 C-11.711266893 14.862175252 -11.919740772 9.430874441 -12 4 C-11.401875 4.763125 -10.80375 5.52625 -10.1875 6.3125 C-7.756906085 9.318485951 -7.756906085 9.318485951 -5 12 C-4.34 12 -3.68 12 -3 12 C-3.66 11.67 -4.32 11.34 -5 11 C-4.67 10.34 -4.34 9.68 -4 9 C-3.34 9.33 -2.68 9.66 -2 10 C-1.855625 8.72125 -1.71125 7.4425 -1.5625 6.125 C-1.293572539 3.743071056 -1.077736543 2.155473086 0 0 Z " fill="#D0CEC2" transform="translate(80,54)" />
<path d="M0 0 C3.155266037 0.350585115 4.598121374 0.5300687 6.70703125 2.99609375 C9.891958555 5.779514035 12.260649459 5.63449745 16.4375 5.8125 C17.735585938 5.880820312 19.033671875 5.949140625 20.37109375 6.01953125 C23.454124393 6.002937974 26.01099982 5.642495366 29 5 C30 6 30 6 30.375 9.375 C30.703289034 12.887496458 30.703289034 12.887496458 32.375 14.875 C35.444767765 17.000223838 38.077718243 17.098188381 41.67578125 16.9921875 C42.586503906 16.975429687 43.497226563 16.958671875 44.435546875 16.94140625 C46.342000465 16.897401211 48.248287792 16.845414956 50.154296875 16.78515625 C55.536420625 16.701712471 59.377974741 16.878436449 64 20 C64.495 20.99 64.495 20.99 65 22 C64.26265625 21.684179687 63.5253125 21.368359375 62.765625 21.04296875 C57.447979133 19.570135299 52.24491962 19.491965902 46.75 19.3125 C45.649140625 19.265449219 44.54828125 19.218398437 43.4140625 19.169921875 C38.042719109 18.691949138 38.042719109 18.691949138 33 20 C32.38125 19.030625 31.7625 18.06125 31.125 17.0625 C29.343211542 13.971646384 29.343211542 13.971646384 27 13 C27 14.65 27 16.3 27 18 C24.031715707 14.648711282 22.702049076 12.397044212 22 8 C20.951992187 7.97421875 19.903984375 7.9484375 18.82421875 7.921875 C17.445270985 7.865591418 16.066366347 7.808244125 14.6875 7.75 C13.997207031 7.735820312 13.306914062 7.721640625 12.595703125 7.70703125 C10.57421875 7.609375 10.57421875 7.609375 7 7 C5.20703125 5.015625 5.20703125 5.015625 4 3 C3.01 2.67 2.02 2.34 1 2 C1.695434398 5.003840541 1.695434398 5.003840541 3 8 C5.032435479 8.968770574 5.032435479 8.968770574 7 9 C6.01 10.485 6.01 10.485 5 12 C4.34 12 3.68 12 3 12 C2.34 13.98 1.68 15.96 1 18 C0 15 0 15 1.0625 12 C1.371875 11.01 1.68125 10.02 2 9 C1.34 8.01 0.68 7.02 0 6 C-0.125 2.8125 -0.125 2.8125 0 0 Z " fill="#3C3A34" transform="translate(27,18)" />
<path d="M0 0 C3.736392159 1.245464053 4.187565132 2.634049531 6 6 C6 5.01 6 4.02 6 3 C6.99 3 7.98 3 9 3 C12.155363277 7.733044915 10.33368991 12.228727394 9.328125 17.56640625 C7.288751605 27.711248395 7.288751605 27.711248395 5 30 C4.01 29.67 3.02 29.34 2 29 C2.023203125 27.91203125 2.04640625 26.8240625 2.0703125 25.703125 C2.198624626 16.91274192 1.864629792 8.640561269 0 0 Z " fill="#D4D2C5" transform="translate(83,72)" />
<path d="M0 0 C3.208243145 11.458011233 3.87818982 19.566373019 0 31 C-1 32 -1 32 -3.5625 32.0625 C-4.366875 32.041875 -5.17125 32.02125 -6 32 C-5.71125 31.443125 -5.4225 30.88625 -5.125 30.3125 C-4.568125 29.1678125 -4.568125 29.1678125 -4 28 C-3.62875 27.278125 -3.2575 26.55625 -2.875 25.8125 C-1.640943489 21.845889787 -1.351520158 18.114759 -2 14 C-3.750658329 11.58140803 -3.750658329 11.58140803 -6 10 C-8 7 -8 7 -8 3 C-2.25 0 -2.25 0 0 0 Z " fill="#C8C5BA" transform="translate(82,74)" />
<path d="M0 0 C5.007470008 10.014940016 4.220297064 22.843373687 4.3125 33.8125 C4.330063477 34.963793945 4.347626953 36.115087891 4.365722656 37.301269531 C4.36451416 38.925246582 4.36451416 38.925246582 4.36328125 40.58203125 C4.366262207 41.553742676 4.369243164 42.525454102 4.372314453 43.526611328 C3.943574708 46.374848941 3.227561485 47.248800201 1 49 C1.242303467 48.18015625 1.242303467 48.18015625 1.489501953 47.34375 C2.511572551 42.651316838 2.184679912 37.782869589 2.1875 33 C2.199746094 31.906875 2.211992188 30.81375 2.224609375 29.6875 C2.226542969 28.635625 2.228476562 27.58375 2.23046875 26.5 C2.23663208 25.06140625 2.23663208 25.06140625 2.242919922 23.59375 C1.992658846 20.921615659 1.361686009 19.288253129 0 17 C0.005236816 17.928608398 0.010473633 18.857216797 0.015869141 19.813964844 C0.032895928 23.254238054 0.045442731 26.694466588 0.054931641 30.134765625 C0.059965141 31.624681659 0.066792424 33.114592744 0.075439453 34.604492188 C0.087548053 36.744153042 0.093238069 38.883748676 0.09765625 41.0234375 C0.102893066 42.311694336 0.108129883 43.599951172 0.113525391 44.927246094 C0 48 0 48 -1 50 C-1.66 49.67 -2.32 49.34 -3 49 C-2.959233398 48.081865234 -2.918466797 47.163730469 -2.876464844 46.217773438 C-2.730003427 42.8037967 -2.593202151 39.38971422 -2.462890625 35.975097656 C-2.404573532 34.498703264 -2.342435369 33.022454563 -2.276367188 31.546386719 C-2.181941973 29.421819388 -2.101374872 27.29710326 -2.0234375 25.171875 C-1.971069336 23.894091797 -1.918701172 22.616308594 -1.864746094 21.299804688 C-1.994100593 18.143928487 -2.25416839 16.575966745 -4 14 C-5.897762516 12.322187374 -5.897762516 12.322187374 -8.0625 10.875 C-11.902777778 8.194444444 -11.902777778 8.194444444 -13 6 C-10.458287961 7.173097864 -8.271162559 8.490849705 -5.9375 10.0625 C-3.116426599 12.104725434 -3.116426599 12.104725434 0 13 C0 8.71 0 4.42 0 0 Z " fill="#403E34" transform="translate(51,62)" />
<path d="M0 0 C0.66 0 1.32 0 2 0 C2.2475 0.94875 2.495 1.8975 2.75 2.875 C3.685707703 6.086931912 3.685707703 6.086931912 6.125 7.375 C6.74375 7.58125 7.3625 7.7875 8 8 C7.951171875 11.076171875 7.951171875 11.076171875 7.90234375 14.15234375 C7.79438816 16.017321413 7.79438816 16.017321413 9 17 C9.040638321 18.666171151 9.042721001 20.333880948 9 22 C5.307069903 21.218803249 2.574183525 20.441679635 -0.4375 18.125 C-2.853622402 13.292755195 -2.650351948 8.308686832 -2 3 C-1.34 2.01 -0.68 1.02 0 0 Z " fill="#B5B3A7" transform="translate(30,31)" />
<path d="M0 0 C2.97 0 5.94 0 9 0 C9.33 0.66 9.66 1.32 10 2 C11.65 1.67 13.3 1.34 15 1 C16.172326847 2.620921304 17.337707704 4.246868332 18.5 5.875 C19.1496875 6.779921875 19.799375 7.68484375 20.46875 8.6171875 C22 11 22 11 22 13 C21.34 13 20.68 13 20 13 C19.34 12.34 18.68 11.68 18 11 C17.01 11.33 16.02 11.66 15 12 C12 7.25 12 7.25 12 5 C11.01 5 10.02 5 9 5 C9 9.29 9 13.58 9 18 C8.01 17.34 7.02 16.68 6 16 C6.33 15.34 6.66 14.68 7 14 C6.195625 13.731875 5.39125 13.46375 4.5625 13.1875 C3.716875 12.795625 2.87125 12.40375 2 12 C1.67 11.01 1.34 10.02 1 9 C1.99 8.34 2.98 7.68 4 7 C2.68 5.35 1.36 3.7 0 2 C2 3 4 4 6 5 C6 4.34 6 3.68 6 3 C5.34 3 4.68 3 4 3 C4 2.34 4 1.68 4 1 C2.68 0.67 1.36 0.34 0 0 Z " fill="#CFCDC1" transform="translate(43,58)" />
<path d="M0 0 C2.97 0.495 2.97 0.495 6 1 C5.867226563 1.643242187 5.734453125 2.286484375 5.59765625 2.94921875 C4.164476028 10.28249857 3.450349311 17.545533779 3 25 C1.68 25.33 0.36 25.66 -1 26 C-1 25.34 -1 24.68 -1 24 C-1.66 24 -2.32 24 -3 24 C-3 24.66 -3 25.32 -3 26 C-3.66 26 -4.32 26 -5 26 C-4.71125 25.38125 -4.4225 24.7625 -4.125 24.125 C-1.324466933 16.34574148 -0.592391847 8.199950297 0 0 Z " fill="#D8D6CA" transform="translate(56,89)" />
<path d="M0 0 C2.520919849 0.377060661 3.726195593 0.704579456 5.484375 2.6015625 C8.46219464 7.362397603 9.585122075 10.382828082 9 16 C8.492109375 15.601679688 7.98421875 15.203359375 7.4609375 14.79296875 C1.989427442 10.581750335 -3.015229461 7.027172138 -10 6 C-5.692307692 2.061538462 -5.692307692 2.061538462 -2.1875 1.75 C-1.465625 1.8325 -0.74375 1.915 0 2 C0 1.34 0 0.68 0 0 Z " fill="#BDBBAF" transform="translate(89,40)" />
<path d="M0 0 C2.681177444 2.44803158 3.857259914 4.287118965 4.16796875 8.015625 C4.212294042 13.08643845 3.635244605 17.196468974 2 22 C7.445 21.01 7.445 21.01 13 20 C12.67 20.66 12.34 21.32 12 22 C11.01 22 10.02 22 9 22 C8.67 22.66 8.34 23.32 8 24 C5.69 23.67 3.38 23.34 1 23 C1.0825 21.7625 1.165 20.525 1.25 19.25 C1.265492691 15.745498378 1.265492691 15.745498378 -0.75 12.875 C-1.4925 12.25625 -2.235 11.6375 -3 11 C-3.99 9.4221875 -3.99 9.4221875 -5 7.8125 C-6.697101303 4.880569417 -6.697101303 4.880569417 -9.25 4.125 C-10.11625 4.063125 -10.11625 4.063125 -11 4 C-11.33 4.99 -11.66 5.98 -12 7 C-12.33 5.35 -12.66 3.7 -13 2 C-10.3125 1.6875 -10.3125 1.6875 -7 2 C-4.25 4.5 -4.25 4.5 -2 7 C-1.34 7 -0.68 7 0 7 C0 4.69 0 2.38 0 0 Z " fill="#76746A" transform="translate(65,55)" />
<path d="M0 0 C1.98 0.99 3.96 1.98 6 3 C5.01 3.33 4.02 3.66 3 4 C3.99 4.66 4.98 5.32 6 6 C6 6.66 6 7.32 6 8 C6.99 8.33 7.98 8.66 9 9 C9.33 11.31 9.66 13.62 10 16 C9.01 15.67 8.02 15.34 7 15 C7 14.34 7 13.68 7 13 C6.01 13.495 6.01 13.495 5 14 C4.67 14.99 4.34 15.98 4 17 C3.38125 16.030625 2.7625 15.06125 2.125 14.0625 C0.343211542 10.971646384 0.343211542 10.971646384 -2 10 C-1.541775316 6.530584537 -1.108683171 3.326049514 0 0 Z " fill="#CBC9BC" transform="translate(85,62)" />
</svg>