<?xml version='1.0' encoding='utf-8'?>
<svg xmlns="http://www.w3.org/2000/svg" version="1.1" width="154" height="122" viewBox="28.0 8.0 154.34 122.709492187">
<path d="M0 0 C0.732832031 -0.003867187 1.465664062 -0.007734375 2.220703125 -0.01171875 C7.684130184 -0.001684908 7.684130184 -0.001684908 9.9375 1.125 C12.270486601 1.165223907 14.604566655 1.168202469 16.9375 1.125 C17.318832987 3.1164056 17.650755824 5.117790771 17.9375 7.125 C17.6075 7.455 17.2775 7.785 16.9375 8.125 C17.261505935 9.460630579 17.596735678 10.793546446 17.9375 12.125 C18.01568636 13.638956958 18.045399087 15.155935073 18.03515625 16.671875 C18.031933594 17.516210938 18.028710937 18.360546875 18.025390625 19.23046875 C18.012822266 20.539511719 18.012822266 20.539511719 18 21.875 C17.995488281 22.763164062 17.990976563 23.651328125 17.986328125 24.56640625 C17.974574001 26.752673289 17.958142487 28.938801787 17.9375 31.125 C17.322617188 31.113398437 16.707734375 31.101796875 16.07421875 31.08984375 C14.861855469 31.076308594 14.861855469 31.076308594 13.625 31.0625 C12.824492187 31.050898437 12.023984375 31.039296875 11.19921875 31.02734375 C8.768886661 31.028421454 8.768886661 31.028421454 5.9375 32.125 C4.968125 31.63 3.99875 31.135 3 30.625 C0.208170949 28.971407339 0.208170949 28.971407339 -2.05078125 29.15234375 C-5.191140498 30.670692202 -5.875791037 33.085514739 -7.3125 36.1875 C-7.83328125 37.292226562 -8.3540625 38.396953125 -8.890625 39.53515625 C-9.27734375 40.389804688 -9.6640625 41.244453125 -10.0625 42.125 C-11.0625 39.125 -11.0625 39.125 -11.5625 36.5 C-11.825025257 34.180385483 -11.825025257 34.180385483 -13.0625 33.125 C-12.948075393 34.72995567 -12.820553063 36.333981189 -12.6875 37.9375 C-12.617890625 38.830820313 -12.54828125 39.724140625 -12.4765625 40.64453125 C-12.196049636 43.368984988 -12.196049636 43.368984988 -10.0625 46.125 C-8.649427048 49.054367859 -7.241668262 51.983965749 -5.892578125 54.943359375 C-3.889969912 59.112869601 -1.744294145 61.393755118 1.9375 64.125 C1.9375 64.785 1.9375 65.445 1.9375 66.125 C0.7 66.228125 -0.5375 66.33125 -1.8125 66.4375 C-2.50859375 66.495507812 -3.2046875 66.553515625 -3.921875 66.61328125 C-7.275226769 65.848374368 -8.171180733 63.936121019 -10.0625 61.125 C-11.585416801 58.549396677 -12.964644899 55.920749922 -14.3125 53.25 C-14.676015625 52.568085938 -15.03953125 51.886171875 -15.4140625 51.18359375 C-17.752414833 46.568424672 -18.467301117 43.292960928 -18.0625 38.125 C-24.21071694 42.666794461 -27.647079932 46.506709632 -29.0625 54.125 C-29.566343354 57.378965335 -29.566343354 57.378965335 -29.0625 60.125 C-27.604166415 61.750144675 -27.604166415 61.750144675 -26.0625 63.125 C-26.0625 64.445 -26.0625 65.765 -26.0625 67.125 C-28.0425 67.125 -30.0225 67.125 -32.0625 67.125 C-35.065315941 62.200381857 -35.039407629 59.710613034 -34.0625 54.125 C-33.878771758 52.777714384 -33.69783825 51.430045052 -33.51953125 50.08203125 C-33.306446483 48.700248434 -33.091588487 47.318737958 -32.875 45.9375 C-32.742548828 44.890458984 -32.742548828 44.890458984 -32.607421875 43.822265625 C-31.944165486 39.792887216 -31.327541146 38.333296044 -28.0703125 35.7734375 C-27.077734375 35.229453125 -26.08515625 34.68546875 -25.0625 34.125 C-23.05271034 31.855882642 -22.054852409 30.340967016 -22.07421875 27.26171875 C-22.24015055 25.773772934 -22.437943377 24.289180645 -22.66015625 22.80859375 C-23.140094406 19.607452845 -23.46144495 16.411479265 -23.75 13.1875 C-23.910488281 11.534277344 -23.910488281 11.534277344 -24.07421875 9.84765625 C-24.0625 7.125 -24.0625 7.125 -22.0625 5.125 C-20.7425 5.125 -19.4225 5.125 -18.0625 5.125 C-18.0625 4.465 -18.0625 3.805 -18.0625 3.125 C-16.7425 2.795 -15.4225 2.465 -14.0625 2.125 C-13.4025 5.425 -12.7425 8.725 -12.0625 12.125 C-11.4025 10.805 -10.7425 9.485 -10.0625 8.125 C-9.0725 8.785 -8.0825 9.445 -7.0625 10.125 C-8.3825 7.155 -9.7025 4.185 -11.0625 1.125 C-7.340159905 -0.115780032 -3.874539667 -0.020554587 0 0 Z " fill="#504E45" transform="translate(96.0625,52.875)" />
<path d="M0 0 C2.097827872 2.097827872 2.650939604 3.379920703 3.625 6.125 C4.015585937 7.211679687 4.015585937 7.211679687 4.4140625 8.3203125 C4.704101562 9.151757812 4.704101562 9.151757812 5 10 C5.66 10 6.32 10 7 10 C7 15.28 7 20.56 7 26 C6.01 26 5.02 26 4 26 C4.11429397 27.771556542 4.241830367 29.542262292 4.375 31.3125 C4.444609375 32.298632813 4.51421875 33.284765625 4.5859375 34.30078125 C4.838654724 37.215284333 4.838654724 37.215284333 7 40 C8.413072952 42.929367859 9.820831738 45.858965749 11.169921875 48.818359375 C13.172530088 52.987869601 15.318205855 55.268755118 19 58 C19 58.66 19 59.32 19 60 C17.14375 60.1546875 17.14375 60.1546875 15.25 60.3125 C14.55390625 60.370507812 13.8578125 60.428515625 13.140625 60.48828125 C9.787273231 59.723374368 8.891319267 57.811121019 7 55 C5.477083199 52.424396677 4.097855101 49.795749922 2.75 47.125 C2.386484375 46.443085938 2.02296875 45.761171875 1.6484375 45.05859375 C-0.689914833 40.443424672 -1.404801117 37.167960928 -1 32 C-7.14821694 36.541794461 -10.584579932 40.381709632 -12 48 C-12.503843354 51.253965335 -12.503843354 51.253965335 -12 54 C-10.541666415 55.625144675 -10.541666415 55.625144675 -9 57 C-9 58.32 -9 59.64 -9 61 C-10.98 61 -12.96 61 -15 61 C-18.002815941 56.075381857 -17.976907629 53.585613034 -17 48 C-16.816271758 46.652714384 -16.63533825 45.305045052 -16.45703125 43.95703125 C-16.243946483 42.575248434 -16.029088487 41.193737958 -15.8125 39.8125 C-15.680048828 38.765458984 -15.680048828 38.765458984 -15.544921875 37.697265625 C-14.881665486 33.667887216 -14.265041146 32.208296044 -11.0078125 29.6484375 C-10.015234375 29.104453125 -9.02265625 28.56046875 -8 28 C-5.960181442 25.696979047 -4.971146931 24.190189097 -5.046875 21.06640625 C-5.229704013 19.558066893 -5.438264045 18.052696632 -5.66796875 16.55078125 C-7.136087485 5.27217497 -7.136087485 5.27217497 -5 1 C-4.34 1 -3.68 1 -3 1 C-2.867226563 2.25296875 -2.734453125 3.5059375 -2.59765625 4.796875 C-2.419417092 6.447932463 -2.241023596 8.098973269 -2.0625 9.75 C-1.975488281 10.575 -1.888476563 11.4 -1.798828125 12.25 C-1.711816406 13.04921875 -1.624804688 13.8484375 -1.53515625 14.671875 C-1.456604004 15.405029297 -1.378051758 16.138183594 -1.297119141 16.893554688 C-0.990011979 19.336485078 -0.990011979 19.336485078 0 23 C0 15.41 0 7.82 0 0 Z " fill="#46443B" transform="translate(79,59)" />
<path d="M0 0 C0.33 0 0.66 0 1 0 C1.083023682 1.074836426 1.083023682 1.074836426 1.167724609 2.171386719 C1.42001558 5.406276768 1.678676682 8.640626335 1.9375 11.875 C2.024511719 13.002929688 2.111523437 14.130859375 2.201171875 15.29296875 C2.288183594 16.369335937 2.375195312 17.445703125 2.46484375 18.5546875 C2.543395996 19.549682617 2.621948242 20.544677734 2.702880859 21.569824219 C2.862744333 24.004956636 2.862744333 24.004956636 4 26 C4.66 26 5.32 26 6 26 C6.193359375 25.070585937 6.38671875 24.141171875 6.5859375 23.18359375 C9.172231986 10.905096661 9.172231986 10.905096661 11 5 C11.66 5.33 12.32 5.66 13 6 C13.307690462 11.230737858 12.639673684 13.60054386 10 18 C9.749001333 21.708939082 9.749001333 21.708939082 10 25 C10.99 25 11.98 25 13 25 C13.99 21.535 13.99 21.535 15 18 C15.33 18 15.66 18 16 18 C16.027253409 19.729077396 16.046509871 21.458281765 16.0625 23.1875 C16.074101563 24.150429688 16.085703125 25.113359375 16.09765625 26.10546875 C16.004866224 28.855765133 15.621116854 31.32479591 15 34 C14.34 34 13.68 34 13 34 C13.011601563 34.880429687 13.023203125 35.760859375 13.03515625 36.66796875 C13.044179687 37.829414063 13.053203125 38.990859375 13.0625 40.1875 C13.074101563 41.336054687 13.085703125 42.484609375 13.09765625 43.66796875 C13.011353463 46.612619849 12.618812986 49.135645951 12 52 C11.521124011 57.024272673 11.17941269 60.743475681 14 65.0625 C14.99 66.0215625 14.99 66.0215625 16 67 C16 67.33 16 67.66 16 68 C13.69 68 11.38 68 9 68 C6.282200584 63.359551625 5.674396142 60.199209336 5.92578125 54.8515625 C5.952222137 54.194170837 5.978663025 53.536779175 6.005905151 52.859466553 C6.092981272 50.780313412 6.202355387 48.703045635 6.3125 46.625 C6.375831072 45.207096673 6.437694595 43.789126991 6.498046875 42.37109375 C6.648405365 38.913132331 6.818764048 35.456496536 7 32 C6.39671875 32.155976563 5.7934375 32.311953125 5.171875 32.47265625 C4.37265625 32.667304688 3.5734375 32.861953125 2.75 33.0625 C1.566640625 33.358339844 1.566640625 33.358339844 0.359375 33.66015625 C-2.103948218 34.014972674 -3.65604132 33.768775439 -6 33 C-5.855625 32.419921875 -5.71125 31.83984375 -5.5625 31.2421875 C-3.412305974 23.62434419 -3.412305974 23.62434419 -5.0078125 16.25390625 C-6.362922548 13.175565707 -6.191928071 10.596403569 -6.125 7.25 C-6.097929687 5.494296875 -6.097929687 5.494296875 -6.0703125 3.703125 C-6.047109375 2.81109375 -6.02390625 1.9190625 -6 1 C-5.34 1 -4.68 1 -4 1 C-3.67 3.64 -3.34 6.28 -3 9 C-2.34 9 -1.68 9 -1 9 C-0.67 6.03 -0.34 3.06 0 0 Z " fill="#97978F" transform="translate(121,52)" />
<path d="M0 0 C-0.33 5.94 -0.66 11.88 -1 18 C-1.33 18 -1.66 18 -2 18 C-2 15.36 -2 12.72 -2 10 C-2.66 10 -3.32 10 -4 10 C-3.505 11.98 -3.505 11.98 -3 14 C-3.66 14.33 -4.32 14.66 -5 15 C-5 10.71 -5 6.42 -5 2 C-5.66 2 -6.32 2 -7 2 C-6.886556243 4.146475299 -6.758936552 6.292205919 -6.625 8.4375 C-6.520585938 10.229941406 -6.520585938 10.229941406 -6.4140625 12.05859375 C-6.209101562 13.514589844 -6.209101562 13.514589844 -6 15 C-5.34 15.33 -4.68 15.66 -4 16 C-3.680142692 22.717003469 -4.5206176 27.757269315 -7 34 C-5.02 34.495 -5.02 34.495 -3 35 C-5.103885694 35.054022743 -7.208167137 35.092802557 -9.3125 35.125 C-11.070136719 35.159804687 -11.070136719 35.159804687 -12.86328125 35.1953125 C-16 35 -16 35 -19 33 C-18.34 33 -17.68 33 -17 33 C-17 29.7 -17 26.4 -17 23 C-16.67 23 -16.34 23 -16 23 C-16 26.3 -16 29.6 -16 33 C-15.34 33 -14.68 33 -14 33 C-14 31.02 -14 29.04 -14 27 C-13.67 27 -13.34 27 -13 27 C-13 28.98 -13 30.96 -13 33 C-12.01 33 -11.02 33 -10 33 C-10 30.69 -10 28.38 -10 26 C-9.67 26 -9.34 26 -9 26 C-8.790055567 17.971074498 -8.790055567 17.971074498 -9.5625 10 C-9.968877983 7.213408116 -9.941361632 5.614893423 -9 3 C-11.31 3 -13.62 3 -16 3 C-16.33 3.66 -16.66 4.32 -17 5 C-17.495 4.01 -17.495 4.01 -18 3 C-19.895333415 2.53476937 -19.895333415 2.53476937 -22.0625 2.375 C-23.361875 2.25125 -24.66125 2.1275 -26 2 C-26.33 2.66 -26.66 3.32 -27 4 C-27 3.34 -27 2.68 -27 2 C-29.31 2 -31.62 2 -34 2 C-35.331932313 4.849555858 -35.331932313 4.849555858 -34.125 6.875 C-33.75375 7.57625 -33.3825 8.2775 -33 9 C-32.623316556 10.657407153 -32.279424548 12.323452711 -32 14 C-33.32 13.34 -34.64 12.68 -36 12 C-36.33 13.65 -36.66 15.3 -37 17 C-38.903188838 14.145216744 -39.461909901 12.580586916 -40.125 9.3125 C-40.376367187 8.100136719 -40.376367187 8.100136719 -40.6328125 6.86328125 C-40.753984375 6.248398438 -40.87515625 5.633515625 -41 5 C-41.99 5 -42.98 5 -44 5 C-44 5.66 -44 6.32 -44 7 C-44.785039063 7.225585938 -45.570078125 7.451171875 -46.37890625 7.68359375 C-49.161060045 8.754946097 -49.161060045 8.754946097 -50.15234375 11.28515625 C-50.411445313 12.201679688 -50.670546875 13.118203125 -50.9375 14.0625 C-53.109565753 20.727588862 -55.951986969 26.677704357 -61.625 31 C-65.817118682 32.765102603 -69.447219896 33.159045124 -74 33.1875 C-75.03125 33.201679687 -76.0625 33.215859375 -77.125 33.23046875 C-79.965452029 33.00276947 -81.591079479 32.465040606 -84 31 C-84 30.01 -84 29.02 -84 28 C-83.175 28.165 -82.35 28.33 -81.5 28.5 C-73.776020627 29.603425625 -68.513851812 29.487945417 -62 25 C-58.397426213 21.48320178 -56.380476027 17.89376399 -54.0625 13.4375 C-51.047766227 7.762707015 -48.391321265 4.367173909 -42.277832031 1.902587891 C-38.59869945 0.889497383 -35.368607714 0.69553389 -31.5546875 0.62109375 C-30.862390442 0.604099274 -30.170093384 0.587104797 -29.456817627 0.569595337 C-27.262969105 0.516856957 -25.069134872 0.476344921 -22.875 0.4375 C-20.673816988 0.393418528 -18.472771113 0.346627545 -16.271759033 0.294692993 C-14.280096517 0.248426272 -12.288239355 0.210776254 -10.296386719 0.173583984 C-7.144582096 0.115765695 -7.144582096 0.115765695 -4.738769531 -0.577880859 C-3 -1 -3 -1 0 0 Z " fill="#2E2C25" transform="translate(122,51)" />
<path d="M0 0 C0.33 0 0.66 0 1 0 C0.87625 1.051875 0.7525 2.10375 0.625 3.1875 C0.584295255 7.158791495 0.584295255 7.158791495 3.625 9.375 C4.16640625 9.760429688 4.7078125 10.145859375 5.265625 10.54296875 C8.605077953 13.348410083 10.899484804 17.208644558 13 21 C13 21.66 13 22.32 13 23 C11.68 23.33 10.36 23.66 9 24 C9 24.66 9 25.32 9 26 C7.373315198 25.717881234 5.748671039 25.423976254 4.125 25.125 C3.220078125 24.962578125 2.31515625 24.80015625 1.3828125 24.6328125 C-1 24 -1 24 -3 22 C-3.6328125 19.6171875 -3.6328125 19.6171875 -4.125 16.875 C-4.292578125 15.964921875 -4.46015625 15.05484375 -4.6328125 14.1171875 C-4.814570312 13.069179687 -4.814570312 13.069179687 -5 12 C-5.66 12 -6.32 12 -7 12 C-6.844023437 13.120195313 -6.688046875 14.240390625 -6.52734375 15.39453125 C-6.33037066 16.867139591 -6.133775773 18.339798555 -5.9375 19.8125 C-5.833730469 20.550488281 -5.729960938 21.288476563 -5.623046875 22.048828125 C-5.179134339 25.431747793 -4.906850082 27.720550245 -6 31 C-5.744765625 31.937792969 -5.744765625 31.937792969 -5.484375 32.89453125 C-4.868101257 35.57333405 -5.377554995 37.100101823 -6.25 39.6875 C-6.50265625 40.475117187 -6.7553125 41.262734375 -7.015625 42.07421875 C-8 44 -8 44 -11 45 C-12.60150166 41.436819599 -13.253524697 38.516356407 -13.4375 34.625 C-13.689491758 31.087606258 -14.076313827 28.320479162 -15.625 25.125 C-17.105568349 21.760071933 -17.141505942 20.424517827 -16 17 C-15.34 17 -14.68 17 -14 17 C-13.34 19.64 -12.68 22.28 -12 25 C-12 24.01 -12 23.02 -12 22 C-11.01 22 -10.02 22 -9 22 C-9 16.72 -9 11.44 -9 6 C-5 7 -5 7 -3 8 C-2.690625 7.05125 -2.38125 6.1025 -2.0625 5.125 C-1 2 -1 2 0 0 Z " fill="#7E7D76" transform="translate(157,23)" />
<path d="M0 0 C0.66 0 1.32 0 2 0 C2.66 1.32 3.32 2.64 4 4 C4.45375 3.34 4.9075 2.68 5.375 2 C5.91125 1.34 6.4475 0.68 7 0 C7.66 0 8.32 0 9 0 C8.918789062 0.70125 8.837578125 1.4025 8.75390625 2.125 C8.316133603 7.914147312 8.316133603 7.914147312 10.34765625 13.1953125 C11.546669053 14.497097829 12.779992642 15.767986667 14.04296875 17.0078125 C17.251797268 20.274284644 19.562613139 24.143036176 22 28 C21.34 29.32 20.68 30.64 20 32 C8.478359909 32.369020501 8.478359909 32.369020501 3 30 C2.34 32.64 1.68 35.28 1 38 C-0.577390516 35.49473271 -1.070657537 34.413851289 -0.5625 31.4375 C-0.376875 30.633125 -0.19125 29.82875 0 29 C-0.33 28.01 -0.66 27.02 -1 26 C-1.067408648 24.438815721 -1.085144562 22.8749748 -1.0625 21.3125 C-1.053476563 20.504257813 -1.044453125 19.696015625 -1.03515625 18.86328125 C-1.023554687 18.248398438 -1.011953125 17.633515625 -1 17 C-0.34 17 0.32 17 1 17 C1.181757812 17.698671875 1.363515625 18.39734375 1.55078125 19.1171875 C1.802148437 20.027265625 2.053515625 20.93734375 2.3125 21.875 C2.677949219 23.232382812 2.677949219 23.232382812 3.05078125 24.6171875 C3.866698523 27.32113319 3.866698523 27.32113319 7 29 C9.640176354 29.817798412 12.302705912 30.380948898 15 31 C15 30.34 15 29.68 15 29 C16.32 28.67 17.64 28.34 19 28 C17.900735969 26.226119138 16.795394978 24.456003164 15.6875 22.6875 C15.072617187 21.701367187 14.457734375 20.715234375 13.82421875 19.69921875 C11.47916062 16.229336163 9.482092277 14.321394852 6 12 C5.8125 9.375 5.8125 9.375 6 7 C5.01 8.98 4.02 10.96 3 13 C1.02 12.34 -0.96 11.68 -3 11 C-2.836289062 11.674179688 -2.672578125 12.348359375 -2.50390625 13.04296875 C-1.912464202 16.513679064 -1.904609544 19.793221237 -1.9375 23.3125 C-1.946523437 24.566757813 -1.955546875 25.821015625 -1.96484375 27.11328125 C-1.976445313 28.065898437 -1.988046875 29.018515625 -2 30 C-3.32 29.01 -4.64 28.02 -6 27 C-5.67 28.98 -5.34 30.96 -5 33 C-5.66 32.67 -6.32 32.34 -7 32 C-7.4140625 29.71484375 -7.4140625 29.71484375 -7.625 26.9375 C-7.699765625 26.018398437 -7.77453125 25.099296875 -7.8515625 24.15234375 C-7.900546875 23.442070313 -7.94953125 22.731796875 -8 22 C-8.99 22.33 -9.98 22.66 -11 23 C-13.1875 22.5625 -13.1875 22.5625 -15 22 C-15 22.66 -15 23.32 -15 24 C-14.34 24.33 -13.68 24.66 -13 25 C-13.33 25.99 -13.66 26.98 -14 28 C-14.99 27.67 -15.98 27.34 -17 27 C-17.70703125 24.7578125 -17.70703125 24.7578125 -18 22 C-16.63671875 19.8671875 -16.63671875 19.8671875 -14.6875 17.875 C-12.514396747 15.609330482 -10.753469048 13.630203571 -9 11 C-5.875 10.3125 -5.875 10.3125 -3 10 C-2.87625 8.906875 -2.7525 7.81375 -2.625 6.6875 C-2 3 -2 3 0 0 Z " fill="#3C3A33" transform="translate(151,18)" />
<path d="M0 0 C0.99 0.66 1.98 1.32 3 2 C3.285753474 4.493575053 3.410872344 6.814999564 3.4375 9.3125 C3.752597 17.707177603 4.336324301 27.984634345 10.75 34.125 C11.4925 34.74375 12.235 35.3625 13 36 C13 36.99 13 37.98 13 39 C12.39671875 38.988398437 11.7934375 38.976796875 11.171875 38.96484375 C10.37265625 38.955820313 9.5734375 38.946796875 8.75 38.9375 C7.96109375 38.925898437 7.1721875 38.914296875 6.359375 38.90234375 C3.997652986 38.919178995 3.997652986 38.919178995 1.765625 39.56640625 C1.18296875 39.709492187 0.6003125 39.852578125 0 40 C-1.482929021 38.517070979 -1.592666962 37.036665188 -2 35 C-2 33.68 -2 32.36 -2 31 C-2.99 31.33 -3.98 31.66 -5 32 C-5 32.66 -5 33.32 -5 34 C-4.34 34 -3.68 34 -3 34 C-3.66 35.32 -4.32 36.64 -5 38 C-7.287448281 35.855517237 -8.81575543 34.043406091 -9.37109375 30.8984375 C-9.570372616 23.700953741 -7.821898856 16.9188778 -6 10 C-3.201773206 13.315201246 -1.811810076 16.697810606 -0.3125 20.75 C0.124492188 21.92046875 0.561484375 23.0909375 1.01171875 24.296875 C1.500917969 25.634921875 1.500917969 25.634921875 2 27 C1.378793545 25.082100459 0.75288109 23.165724784 0.125 21.25 C-0.223046875 20.18265625 -0.57109375 19.1153125 -0.9296875 18.015625 C-1.898182858 15.088529254 -1.898182858 15.088529254 -3.109375 12.79296875 C-4.47524634 10.043254078 -4.370085808 8.022367431 -4 5 C-2 2.125 -2 2.125 0 0 Z " fill="#EBE8E0" transform="translate(141,81)" />
<path d="M0 0 C2 1 2 1 2.78125 2.890625 C3.0184375 3.66921875 3.255625 4.4478125 3.5 5.25 C4.282140097 7.783453792 5.050308167 10.104035336 6.20703125 12.49609375 C7.222307787 15.701966955 6.629297437 16.827641762 5.1875 19.8125 C3.175897044 24.330140309 2.364220535 28.083022775 2 33 C1.67 33 1.34 33 1 33 C0.67 31.35 0.34 29.7 0 28 C-2.13982746 30.318146415 -2.964717734 31.600694355 -3.24609375 34.78515625 C-2.975286098 38.32284986 -2.072673978 40.616749402 -0.5625 43.8125 C1.74672027 49.037600104 2.715713636 53.314272724 3 59 C1.06973244 55.426760516 -0.223668186 51.703659336 -1.5625 47.875 C-3.094659155 43.3589203 -3.094659155 43.3589203 -5 39 C-5.99 40.32 -6.98 41.64 -8 43 C-7.67 39.37 -7.34 35.74 -7 32 C-6.34 32 -5.68 32 -5 32 C-5 27.05 -5 22.1 -5 17 C-5.66 19.31 -6.32 21.62 -7 24 C-8.5625 25.9375 -8.5625 25.9375 -10 27 C-10.33 27 -10.66 27 -11 27 C-11.474377003 19.713042155 -11.286709394 15.028185085 -7 9 C-6.34 9 -5.68 9 -5 9 C-4.67 7.35 -4.34 5.7 -4 4 C-3.34 4.33 -2.68 4.66 -2 5 C-1.497558594 6.857666016 -1.497558594 6.857666016 -1.1484375 9.25390625 C-1.01953125 10.107910156 -0.890625 10.961914062 -0.7578125 11.841796875 C-0.631484375 12.739628906 -0.50515625 13.637460937 -0.375 14.5625 C-0.2409375 15.464199219 -0.106875 16.365898437 0.03125 17.294921875 C0.362209002 19.528895136 0.684735051 21.763766959 1 24 C0.892806396 23.165775146 0.892806396 23.165775146 0.783447266 22.314697266 C0.158123876 17.145539288 -0.109403639 12.143803964 -0.0625 6.9375 C-0.053476563 5.626523437 -0.044453125 4.315546875 -0.03515625 2.96484375 C-0.023554687 1.986445313 -0.011953125 1.008046875 0 0 Z " fill="#323128" transform="translate(141,54)" />
<path d="M0 0 C2.296338245 3.444507367 2.540164848 5.938122828 3 10 C3.66 8.68 4.32 7.36 5 6 C7.743449209 8.352622646 8.658526481 10.355498566 9.625 13.8125 C9.871210937 14.692929687 10.117421875 15.573359375 10.37109375 16.48046875 C11.075830254 19.30379201 11.620346732 22.114635163 12 25 C11.01 25.66 10.02 26.32 9 27 C7.79549696 29.55183404 7.79549696 29.55183404 7 32 C5 30 5 30 4.8046875 26.3046875 C4.817991001 24.827998924 4.841851652 23.351376415 4.875 21.875 C4.884023438 21.120898438 4.893046875 20.366796875 4.90234375 19.58984375 C4.925931298 17.726427457 4.961802809 15.863174074 5 14 C4.01 14.33 3.02 14.66 2 15 C1.01 12.03 0.02 9.06 -1 6 C-1 13.26 -1 20.52 -1 28 C-3 27 -3 27 -3.605224609 25.208007812 C-3.99818173 23.010169716 -4.20494255 20.901148998 -4.31640625 18.671875 C-4.358300781 17.87265625 -4.400195313 17.0734375 -4.443359375 16.25 C-4.482675781 15.425 -4.521992188 14.6 -4.5625 13.75 C-4.605683594 12.90953125 -4.648867188 12.0690625 -4.693359375 11.203125 C-4.799085428 9.135593293 -4.900012955 7.067817195 -5 5 C-5.66 5 -6.32 5 -7 5 C-7.33 5.99 -7.66 6.98 -8 8 C-8.33 7.01 -8.66 6.02 -9 5 C-8.34 4.34 -7.68 3.68 -7 3 C-5.68 3 -4.36 3 -3 3 C-3 2.34 -3 1.68 -3 1 C-2.01 0.67 -1.02 0.34 0 0 Z " fill="#97968E" transform="translate(81,55)" />
<path d="M0 0 C0.99 0.66 1.98 1.32 3 2 C3.285753474 4.493575053 3.410872344 6.814999564 3.4375 9.3125 C3.752597 17.707177603 4.336324301 27.984634345 10.75 34.125 C11.4925 34.74375 12.235 35.3625 13 36 C13 36.99 13 37.98 13 39 C11.02 39 9.04 39 7 39 C6.566875 38.0409375 6.566875 38.0409375 6.125 37.0625 C5.171765491 34.847939209 5.171765491 34.847939209 3 34 C2.462877279 31.851509118 2.020752417 29.678966249 1.625 27.5 C0.742089894 23.044699771 -0.205534523 19.089992363 -2.1875 15 C-3.875173089 11.481299352 -4.720376923 8.962073075 -4 5 C-2 2.125 -2 2.125 0 0 Z " fill="#95938B" transform="translate(141,81)" />
<path d="M0 0 C0.66 0 1.32 0 2 0 C2.66 2.64 3.32 5.28 4 8 C4 7.01 4 6.02 4 5 C8.61487965 6.457330416 8.61487965 6.457330416 10.375 8.9375 C11 11 11 11 10 14 C10.17015625 14.625195312 10.3403125 15.250390625 10.515625 15.89453125 C11.131898743 18.57333405 10.622445005 20.100101823 9.75 22.6875 C9.49734375 23.475117188 9.2446875 24.262734375 8.984375 25.07421875 C8 27 8 27 5 28 C3.39849834 24.436819599 2.746475303 21.516356407 2.5625 17.625 C2.310508242 14.087606258 1.923686173 11.320479162 0.375 8.125 C-1.105568349 4.760071933 -1.141505942 3.424517827 0 0 Z " fill="#8D8B81" transform="translate(141,40)" />
<path d="M0 0 C0.66 0.33 1.32 0.66 2 1 C2.502441406 3.041259766 2.502441406 3.041259766 2.8515625 5.69140625 C2.98046875 6.635644531 3.109375 7.579882813 3.2421875 8.552734375 C3.368515625 9.545957031 3.49484375 10.539179687 3.625 11.5625 C3.7590625 12.559589844 3.893125 13.556679688 4.03125 14.583984375 C4.362298879 17.055027791 4.684821445 19.526890517 5 22 C4.34 22 3.68 22 3 22 C2.67 22.66 2.34 23.32 2 24 C1.34 24 0.68 24 0 24 C-0.33 24.99 -0.66 25.98 -1 27 C-1 22.38 -1 17.76 -1 13 C-1.268125 14.093125 -1.53625 15.18625 -1.8125 16.3125 C-3.330754352 21.027079304 -3.330754352 21.027079304 -6 23 C-6.33 23 -6.66 23 -7 23 C-7.474377003 15.713042155 -7.286709394 11.028185085 -3 5 C-2.34 5 -1.68 5 -1 5 C-0.67 3.35 -0.34 1.7 0 0 Z " fill="#3D3C34" transform="translate(137,58)" />
<path d="M0 0 C0.993867188 0.009023437 1.987734375 0.018046875 3.01171875 0.02734375 C4.150605469 0.044746094 4.150605469 0.044746094 5.3125 0.0625 C4.631844933 8.284096725 4.631844933 8.284096725 3.3125 11.5 C1.735593211 15.540823647 1.629827928 19.761871507 1.3125 24.0625 C0.9825 24.0625 0.6525 24.0625 0.3125 24.0625 C0.14234375 23.528828125 -0.0278125 22.99515625 -0.203125 22.4453125 C-2.579048275 15.140612219 -5.166019584 7.901997519 -8.6875 1.0625 C-5.538191067 0.012730356 -3.299355437 -0.038815946 0 0 Z " fill="#8D8D85" transform="translate(93.6875,52.9375)" />
<path d="M0 0 C2.043870844 1.664372278 2.917976912 2.582495091 3.43359375 5.20703125 C3.44572381 13.297781305 1.495411322 20.368943057 -1 28 C-2.32 28 -3.64 28 -5 28 C-5.33 19.42 -5.66 10.84 -6 2 C-5.34 2 -4.68 2 -4 2 C-3.926523437 3.247167969 -3.926523437 3.247167969 -3.8515625 4.51953125 C-3.776796875 5.606210938 -3.70203125 6.692890625 -3.625 7.8125 C-3.555390625 8.891445312 -3.48578125 9.970390625 -3.4140625 11.08203125 C-3.18804267 14.186261855 -3.18804267 14.186261855 -1 17 C-1 14.69 -1 12.38 -1 10 C-1.33 10 -1.66 10 -2 10 C-2 7.36 -2 4.72 -2 2 C-1.34 2 -0.68 2 0 2 C0 1.34 0 0.68 0 0 Z " fill="#2C2B22" transform="translate(128,50)" />
<path d="M0 0 C0.66 0.66 1.32 1.32 2 2 C2.99 2 3.98 2 5 2 C5.66 3.32 6.32 4.64 7 6 C6.01 6 5.02 6 4 6 C4.66 8.64 5.32 11.28 6 14 C6 12.02 6 10.04 6 8 C6.804375 7.87625 7.60875 7.7525 8.4375 7.625 C9.283125 7.41875 10.12875 7.2125 11 7 C11.33 6.34 11.66 5.68 12 5 C12.839055652 6.120738621 13.671078308 7.246745475 14.5 8.375 C14.9640625 9.001484375 15.428125 9.62796875 15.90625 10.2734375 C17 12 17 12 17 14 C15.68 14.33 14.36 14.66 13 15 C13 15.66 13 16.32 13 17 C11.373315198 16.717881234 9.748671039 16.423976254 8.125 16.125 C7.220078125 15.962578125 6.31515625 15.80015625 5.3828125 15.6328125 C3 15 3 15 1 13 C0.33203125 10.46875 0.33203125 10.46875 -0.1875 7.5 C-0.366679688 6.5203125 -0.545859375 5.540625 -0.73046875 4.53125 C-1 2 -1 2 0 0 Z " fill="#CCCBC2" transform="translate(153,32)" />
<path d="M0 0 C0.26296875 0.583945312 0.5259375 1.167890625 0.796875 1.76953125 C2.055363927 4.102638968 3.44750354 5.751034208 5.25 7.6875 C8.979082849 11.838743172 12.023424531 16.289814642 15 21 C14.34 22.32 13.68 23.64 13 25 C1.478359909 25.369020501 1.478359909 25.369020501 -4 23 C-4.66 25.64 -5.32 28.28 -6 31 C-7.577390516 28.49473271 -8.070657537 27.413851289 -7.5625 24.4375 C-7.376875 23.633125 -7.19125 22.82875 -7 22 C-7.33 21.01 -7.66 20.02 -8 19 C-8.067408648 17.438815721 -8.085144562 15.8749748 -8.0625 14.3125 C-8.053476563 13.504257813 -8.044453125 12.696015625 -8.03515625 11.86328125 C-8.023554687 11.248398438 -8.011953125 10.633515625 -8 10 C-7.34 10 -6.68 10 -6 10 C-5.727363281 11.048007813 -5.727363281 11.048007813 -5.44921875 12.1171875 C-5.197851563 13.027265625 -4.946484375 13.93734375 -4.6875 14.875 C-4.443867187 15.779921875 -4.200234375 16.68484375 -3.94921875 17.6171875 C-3.133301477 20.32113319 -3.133301477 20.32113319 0 22 C2.640176354 22.817798412 5.302705912 23.380948898 8 24 C8 23.34 8 22.68 8 22 C9.32 21.67 10.64 21.34 12 21 C10.900735969 19.226119138 9.795394978 17.456003164 8.6875 15.6875 C7.765175781 14.208300781 7.765175781 14.208300781 6.82421875 12.69921875 C4.47916062 9.229336163 2.482092277 7.321394852 -1 5 C-0.67 3.35 -0.34 1.7 0 0 Z " fill="#2F2D25" transform="translate(158,25)" />
<path d="M0 0 C0.33 0 0.66 0 1 0 C1.027253409 1.729077396 1.046509871 3.458281765 1.0625 5.1875 C1.074101563 6.150429687 1.085703125 7.113359375 1.09765625 8.10546875 C1.004866224 10.855765133 0.621116854 13.32479591 0 16 C-0.66 16 -1.32 16 -2 16 C-1.976796875 16.903632813 -1.95359375 17.807265625 -1.9296875 18.73828125 C-1.911640625 19.917773438 -1.89359375 21.097265625 -1.875 22.3125 C-1.851796875 23.484257813 -1.82859375 24.656015625 -1.8046875 25.86328125 C-2 29 -2 29 -4 32 C-4.460376401 35.19806665 -4.460376401 35.19806665 -4.625 38.6875 C-4.699765625 39.866992188 -4.77453125 41.046484375 -4.8515625 42.26171875 C-4.900546875 43.165351563 -4.94953125 44.068984375 -5 45 C-5.99 44.34 -6.98 43.68 -8 43 C-7.812411108 38.941674467 -7.600134016 34.885459461 -7.365234375 30.829589844 C-7.288828083 29.450715275 -7.219091137 28.071453877 -7.15625 26.691894531 C-7.064576543 24.705158828 -6.946651248 22.719689661 -6.828125 20.734375 C-6.765283203 19.540380859 -6.702441406 18.346386719 -6.637695312 17.116210938 C-5.893940718 13.48172256 -4.745462292 12.386021923 -2 10 C-1.350306157 7.691518353 -1.350306157 7.691518353 -1.3125 5.3125 C-1.069444444 1.069444444 -1.069444444 1.069444444 0 0 Z " fill="#9E9D96" transform="translate(136,70)" />
<path d="M0 0 C0.66 0 1.32 0 2 0 C2.121171875 1.229765625 2.24234375 2.45953125 2.3671875 3.7265625 C2.536102945 5.359411803 2.705393636 6.992222319 2.875 8.625 C2.953632813 9.433242187 3.032265625 10.241484375 3.11328125 11.07421875 C3.598100514 15.661354866 4.473314184 19.625211232 6 24 C6 25.32 6 26.64 6 28 C5.34 28 4.68 28 4 28 C3.34 26.68 2.68 25.36 2 24 C1.276835937 24.848847656 1.276835937 24.848847656 0.5390625 25.71484375 C-0.092578125 26.448320313 -0.72421875 27.181796875 -1.375 27.9375 C-2.001484375 28.668398438 -2.62796875 29.399296875 -3.2734375 30.15234375 C-5 32 -5 32 -7 33 C-7.628529342 35.332478154 -8.155352456 37.692914666 -8.625 40.0625 C-8.885390625 41.352851563 -9.14578125 42.643203125 -9.4140625 43.97265625 C-9.607421875 44.971679688 -9.80078125 45.970703125 -10 47 C-10.33 47 -10.66 47 -11 47 C-11.205899405 41.234816656 -10.999026374 36.451890111 -9 31 C-6.0625 28.8125 -6.0625 28.8125 -3 27 C-0.960181442 24.696979047 0.028853069 23.190189097 -0.046875 20.06640625 C-0.229704013 18.558066893 -0.438264045 17.052696632 -0.66796875 15.55078125 C-2.136087485 4.27217497 -2.136087485 4.27217497 0 0 Z " fill="#292720" transform="translate(74,60)" />
<path d="M0 0 C0.33 0 0.66 0 1 0 C1.366763137 2.185423318 1.717827 4.373484057 2.0625 6.5625 C2.259726562 7.780664062 2.456953125 8.998828125 2.66015625 10.25390625 C3.008352034 14.092064377 2.813591931 17.238880729 2 21 C1.34 21.66 0.68 22.32 0 23 C-0.99 23 -1.98 23 -3 23 C-3.33 23.66 -3.66 24.32 -4 25 C-3.67 22.69 -3.34 20.38 -3 18 C-3.66 18 -4.32 18 -5 18 C-5.33 18.66 -5.66 19.32 -6 20 C-7.378800292 14.085474157 -6.614929014 11.256984462 -3.5625 6.0625 C-2.903789062 4.919101563 -2.245078125 3.775703125 -1.56640625 2.59765625 C-1.049492187 1.740429687 -0.532578125 0.883203125 0 0 Z " fill="#E7E6DD" transform="translate(72,63)" />
<path d="M0 0 C0.83656618 2.34961489 1.227456697 3.496345886 0.1796875 5.81640625 C-3.477838286 10.711358425 -6.853575891 13.779356899 -13 15 C-14.997570022 15.116705857 -16.999062756 15.174994142 -19 15.1875 C-20.03125 15.201679688 -21.0625 15.215859375 -22.125 15.23046875 C-24.965452029 15.00276947 -26.591079479 14.465040606 -29 13 C-29 12.01 -29 11.02 -29 10 C-28.175 10.165 -27.35 10.33 -26.5 10.5 C-18.839618167 11.594340262 -13.440751955 11.537489065 -7 7 C-5.129046622 5.100627077 -3.613985738 3.136157594 -2 1 C-1.34 0.67 -0.68 0.34 0 0 Z " fill="#4F4D46" transform="translate(67,69)" />
<path d="M0 0 C0.66 1.32 1.32 2.64 2 4 C3.98 3.67 5.96 3.34 8 3 C9.460136871 5.920273742 8.883140287 8.261672969 8.625 11.50390625 C8.52703125 12.801347656 8.4290625 14.098789063 8.328125 15.435546875 C8.219366251 16.811246775 8.109983506 18.186897475 8 19.5625 C7.785606671 22.250929288 7.578270904 24.939578699 7.375 27.62890625 C7.231914063 29.424368896 7.231914063 29.424368896 7.0859375 31.256103516 C7.057578125 32.161589355 7.02921875 33.067075195 7 34 C7.33 34.33 7.66 34.66 8 35 C8.66 29.72 9.32 24.44 10 19 C10.33 19 10.66 19 11 19 C10.930390625 20.645488281 10.930390625 20.645488281 10.859375 22.32421875 C10.821842103 23.7786185 10.785443569 25.233047834 10.75 26.6875 C10.716484375 27.408730469 10.68296875 28.129960938 10.6484375 28.873046875 C10.575537655 32.864313369 10.692064371 34.548241722 13.015625 37.95703125 C13.997890625 38.968300781 13.997890625 38.968300781 15 40 C15 40.33 15 40.66 15 41 C12.69 41 10.38 41 8 41 C5.282200584 36.359551625 4.674396142 33.199209336 4.92578125 27.8515625 C4.965442581 26.865475006 4.965442581 26.865475006 5.005905151 25.859466553 C5.092981272 23.780313412 5.202355387 21.703045635 5.3125 19.625 C5.375831072 18.207096673 5.437694595 16.789126991 5.498046875 15.37109375 C5.648405365 11.913132331 5.818764048 8.456496536 6 5 C3.36 5.33 0.72 5.66 -2 6 C-1.34 4.02 -0.68 2.04 0 0 Z " fill="#34322B" transform="translate(122,79)" />
<path d="M0 0 C2 1 2 1 2.618896484 2.778320312 C3.014441579 5.08418858 3.113457884 7.208233095 3.09765625 9.546875 C3.094433594 10.391210938 3.091210937 11.235546875 3.087890625 12.10546875 C3.079511719 12.978164062 3.071132812 13.850859375 3.0625 14.75 C3.057988281 15.638164062 3.053476562 16.526328125 3.048828125 17.44140625 C3.037074001 19.627673289 3.020642487 21.813801787 3 24 C0.36 24 -2.28 24 -5 24 C-5 21.69 -5 19.38 -5 17 C-4.34 17 -3.68 17 -3 17 C-2.67 14.36 -2.34 11.72 -2 9 C-1.67 9 -1.34 9 -1 9 C-0.67 6.03 -0.34 3.06 0 0 Z " fill="#BAB9B0" transform="translate(111,60)" />
<path d="M0 0 C0.33 0 0.66 0 1 0 C1 9.57 1 19.14 1 29 C-5 28 -5 28 -6 27 C-6.040638321 25.333828849 -6.042721001 23.666119052 -6 22 C-5.34 22 -4.68 22 -4 22 C-4 18.37 -4 14.74 -4 11 C-3.34 10.67 -2.68 10.34 -2 10 C-1.67 10.66 -1.34 11.32 -1 12 C-0.67 8.04 -0.34 4.08 0 0 Z " fill="#B6B4A9" transform="translate(103,54)" />
<path d="M0 0 C0.33 0 0.66 0 1 0 C0.877679291 5.993714746 0.877679291 5.993714746 -1.51953125 8.7421875 C-2.131835938 9.301640625 -2.744140625 9.86109375 -3.375 10.4375 C-7.795110172 14.512714511 -9.630660813 18.3900073 -10.2421875 24.3671875 C-10.3658185 28.556904714 -10.091514273 31.300269573 -8 35 C-9.875 34.875 -9.875 34.875 -12 34 C-14.58351935 28.708753639 -13.871682769 24.573520955 -12.625 19.0625 C-12.447270508 18.259978027 -12.269541016 17.457456055 -12.086425781 16.630615234 C-10.397186296 9.951063644 -7.727990987 6.781465912 -2 3 C-1.34 2.01 -0.68 1.02 0 0 Z " fill="#CFCCC5" transform="translate(76,83)" />
</svg>