<?xml version='1.0' encoding='utf-8'?>
<svg xmlns="http://www.w3.org/2000/svg" version="1.1" width="153" height="125" viewBox="30.659423828 7.0 153.835576172 125.677673545">
<path d="M0 0 C9.045091714 3.279594512 16.290708458 10.758739801 21 19 C21 19.66 21 20.32 21 21 C19.54096742 20.690781161 18.082792783 20.377512005 16.625 20.0625 C15.406835938 19.801464844 15.406835938 19.801464844 14.1640625 19.53515625 C12 19 12 19 10 18 C10.020625 17.030625 10.04125 16.06125 10.0625 15.0625 C10.35618499 12.125341047 10.35618499 12.125341047 9 11 C9.023203125 11.666445313 9.04640625 12.332890625 9.0703125 13.01953125 C9.185471706 18.900876439 8.696350367 24.203996847 7.5 29.953125 C6.69253249 34.873630139 6.599475273 39.835875262 6.44140625 44.8125 C6 48 6 48 4.9765625 49.92578125 C1.753080678 51.677673545 -1.621401223 51.308965373 -5.1875 51.1875 C-5.937089844 51.173964844 -6.686679688 51.160429687 -7.458984375 51.146484375 C-9.306297669 51.111185395 -11.153240661 51.057379174 -13 51 C-12.369000234 46.330601733 -12.369000234 46.330601733 -10.4609375 44.62109375 C-7.498249517 41.333619117 -8.586097145 36.236457469 -8.6953125 32.01953125 C-8.959052301 27.309408913 -10.010548584 22.908696464 -11.34375 18.390625 C-12 16 -12 16 -12 13 C-12.639375 12.773125 -13.27875 12.54625 -13.9375 12.3125 C-16 11 -16 11 -16.75 8.375 C-16.8325 7.59125 -16.915 6.8075 -17 6 C-11.905637092 0.332099546 -7.586722365 -1.524326119 0 0 Z " fill="#504E43" transform="translate(72,71)" />
<path d="M0 0 C0.99 0.33 1.98 0.66 3 1 C3 1.66 3 2.32 3 3 C3.5775 3.061875 4.155 3.12375 4.75 3.1875 C7 4 7 4 8.5 6.375 C13.393467144 11.513140501 20.489079901 11.972974339 27.33203125 12.21484375 C35.356601171 12.340080223 43.317862655 11.966343954 51.30078125 11.12109375 C54.055538538 10.997508401 56.331202716 11.343738373 59 12 C55.597807349 14.747924833 51.515354125 18 47 18 C47 18.66 47 19.32 47 20 C45.68 20.33 44.36 20.66 43 21 C43.495 21.99 43.495 21.99 44 23 C43.505 23.495 43.505 23.495 43 24 C44.32 24 45.64 24 47 24 C46 27 46 27 44 28 C44.66 28 45.32 28 46 28 C46.495 34.435 46.495 34.435 47 41 C42.05 41.495 42.05 41.495 37 42 C35.68 39.03 34.36 36.06 33 33 C34.98 32.01 36.96 31.02 39 30 C36.69 30.66 34.38 31.32 32 32 C33.048749975 29.378125062 33.649313132 28.206286393 36.125 26.75 C36.74375 26.5025 37.3625 26.255 38 26 C32.070588235 28.470588235 32.070588235 28.470588235 29 29 C28.34 28.67 27.68 28.34 27 28 C27.421523437 28.45890625 27.843046875 28.9178125 28.27734375 29.390625 C28.825195312 30.00421875 29.373046875 30.6178125 29.9375 31.25 C30.482773438 31.85328125 31.028046875 32.4565625 31.58984375 33.078125 C33.062127991 35.084673052 33.575291891 36.570024488 34 39 C33.29875 38.278125 32.5975 37.55625 31.875 36.8125 C24.989120229 29.747988304 24.989120229 29.747988304 15.94140625 26.76953125 C14.826367187 26.783710938 13.711328125 26.797890625 12.5625 26.8125 C10.893808594 26.822167969 10.893808594 26.822167969 9.19140625 26.83203125 C6.348991163 26.981632044 3.765984527 27.353741933 1 28 C3.052336846 25.752202502 4.006672607 24.997775798 7 24 C6.34 23.34 5.68 22.68 5 22 C6.98 21.34 8.96 20.68 11 20 C11 19.34 11 18.68 11 18 C10.401875 18.350625 9.80375 18.70125 9.1875 19.0625 C7 20 7 20 4 19 C5.65 18.01 7.3 17.02 9 16 C4.890412327 17.450442708 1.567412549 19.511107524 -2 22 C-1.505 20.515 -1.505 20.515 -1 19 C-0.34 19 0.32 19 1 19 C1 18.34 1 17.68 1 17 C0.34 16.67 -0.32 16.34 -1 16 C5.75 14 5.75 14 8 14 C7.67 13.34 7.34 12.68 7 12 C6.01 12.495 6.01 12.495 5 13 C4.34 12.67 3.68 12.34 3 12 C2.40234375 10.0390625 2.40234375 10.0390625 1.9375 7.625 C1.415893138 4.978168487 0.856079167 2.568237501 0 0 Z " fill="#555449" transform="translate(61,35)" />
<path d="M0 0 C9.045530091 -0.49339255 15.219749037 1.119249154 22.125 7.1875 C25.09933304 10.015404337 27.858123232 12.92449614 30.5 16.0625 C35.89702172 22.429199381 41.899011554 27.671994612 50 30 C50.556875 29.34 51.11375 28.68 51.6875 28 C54 26 54 26 56.75 25.75 C57.4925 25.8325 58.235 25.915 59 26 C59.495 27.98 59.495 27.98 60 30 C59.34 30 58.68 30 58 30 C57.34 31.32 56.68 32.64 56 34 C48.406927072 34.84367477 44.025326941 32.531943616 38 28 C32.389137944 23.301918209 27.149306841 18.194675183 22 13 C21.34 12.34 20.68 11.68 20 11 C19.90630127 11.616574707 19.812602539 12.233149414 19.716064453 12.868408203 C19 15 19 15 17.481201172 16.172607422 C16.841584473 16.48045166 16.201967773 16.788295898 15.54296875 17.10546875 C14.842363281 17.449003906 14.141757813 17.792539062 13.419921875 18.146484375 C12.683222656 18.490019531 11.946523437 18.833554687 11.1875 19.1875 C10.099853516 19.720205078 10.099853516 19.720205078 8.990234375 20.263671875 C-0.010884703 24.603644203 -0.010884703 24.603644203 -5 23 C-4.742135728 16.47603393 -4.178324793 12.121817488 0 7 C-3.888051145 10.24004262 -4.98255954 13.082371109 -6 18 C-6.168470912 21.292194281 -6.168470912 21.292194281 -6 24 C-4.68 24.33 -3.36 24.66 -2 25 C-3.875 29.75 -3.875 29.75 -5 32 C-7.50390625 32.4140625 -7.50390625 32.4140625 -10.5625 32.625 C-11.574414062 32.699765625 -12.586328125 32.77453125 -13.62890625 32.8515625 C-14.411367188 32.900546875 -15.193828125 32.94953125 -16 33 C-16 33.99 -16 34.98 -16 36 C-14.68 36.33 -13.36 36.66 -12 37 C-12.99 37 -13.98 37 -15 37 C-15.33 37.99 -15.66 38.98 -16 40 C-16.158554688 39.382539063 -16.317109375 38.765078125 -16.48046875 38.12890625 C-19.176778291 28.341749518 -22.706531625 21.094623734 -31 15 C-30.34 14.67 -29.68 14.34 -29 14 C-28.4225 14.515625 -27.845 15.03125 -27.25 15.5625 C-25.152301283 17.226122923 -25.152301283 17.226122923 -22.9375 16.8125 C-20.737181852 15.961840661 -20.737181852 15.961840661 -18 14 C-17.01 14.33 -16.02 14.66 -15 15 C-16.98 16.32 -18.96 17.64 -21 19 C-20.401875 18.814375 -19.80375 18.62875 -19.1875 18.4375 C-17 18 -17 18 -14 19 C-15.98 19.99 -17.96 20.98 -20 22 C-19.01 24.97 -18.02 27.94 -17 31 C-13.7 30.67 -10.4 30.34 -7 30 C-7.33 28.68 -7.66 27.36 -8 26 C-8.065484923 24.417884266 -8.085783812 22.833299194 -8.0625 21.25 C-8.053476562 20.45078125 -8.044453125 19.6515625 -8.03515625 18.828125 C-8.023554687 18.22484375 -8.011953125 17.6215625 -8 17 C-9.65 17.33 -11.3 17.66 -13 18 C-11 16 -11 16 -8 15 C-7.67 14.34 -7.34 13.68 -7 13 C-9.31 13.33 -11.62 13.66 -14 14 C-13.67 12.68 -13.34 11.36 -13 10 C-11.02 9.67 -9.04 9.34 -7 9 C-7 8.34 -7 7.68 -7 7 C-4.976077116 4.571292539 -2.866974916 3.285195652 0 2 C0 1.34 0 0.68 0 0 Z " fill="#26251D" transform="translate(115,46)" />
<path d="M0 0 C0.66 0.33 1.32 0.66 2 1 C1.38125 1.78375 0.7625 2.5675 0.125 3.375 C-2.688249598 7.525041961 -3.267444594 12.122723215 -4 17 C1.718946855 17.557507398 5.344463912 15.721520017 10.25 13.125 C10.969296875 12.760195313 11.68859375 12.395390625 12.4296875 12.01953125 C18.068807375 9.252053336 18.068807375 9.252053336 21 4 C22.460628504 6.647389163 23 7.894483343 23 11 C21.89140625 11.470507813 20.7828125 11.941015625 19.640625 12.42578125 C18.176962245 13.054405638 16.713427251 13.683327557 15.25 14.3125 C14.520390625 14.621230469 13.79078125 14.929960937 13.0390625 15.248046875 C9.353633452 16.839482146 6.082418394 18.36372111 3 21 C5.31 21.33 7.62 21.66 10 22 C10 23.32 10 24.64 10 26 C9.34 26 8.68 26 8 26 C8 26.66 8 27.32 8 28 C8.770859375 27.555273438 9.54171875 27.110546875 10.3359375 26.65234375 C11.338828125 26.086445313 12.34171875 25.520546875 13.375 24.9375 C14.372734375 24.369023438 15.37046875 23.800546875 16.3984375 23.21484375 C17.256953125 22.813945312 18.11546875 22.413046875 19 22 C19.66 22.33 20.32 22.66 21 23 C19.954588488 24.491293079 18.887911861 25.967694024 17.8125 27.4375 C17.220820312 28.261210937 16.629140625 29.084921875 16.01953125 29.93359375 C13.680670275 32.326741634 12.277996395 32.68861865 9 33 C8.67 32.34 8.34 31.68 8 31 C7.34 31 6.68 31 6 31 C6 32.65 6 34.3 6 36 C7.32 36 8.64 36 10 36 C10 35.34 10 34.68 10 34 C10.66 34.33 11.32 34.66 12 35 C11.67 35.66 11.34 36.32 11 37 C10.34 37 9.68 37 9 37 C9 37.66 9 38.32 9 39 C7.519915905 38.886377383 6.040899259 38.758770916 4.5625 38.625 C3.738789063 38.555390625 2.915078125 38.48578125 2.06640625 38.4140625 C1.043535156 38.209101562 1.043535156 38.209101562 0 38 C-0.33 37.34 -0.66 36.68 -1 36 C-1.4021875 36.47953125 -1.804375 36.9590625 -2.21875 37.453125 C-4.390705589 39.339296959 -5.663413285 39.504162485 -8.5 39.75 C-9.2734375 39.82734375 -10.046875 39.9046875 -10.84375 39.984375 C-13 40 -13 40 -16 39 C-16 37.35 -16 35.7 -16 34 C-16.99 33.67 -17.98 33.34 -19 33 C-18.34 33 -17.68 33 -17 33 C-17.33 31.02 -17.66 29.04 -18 27 C-18.66 27.66 -19.32 28.32 -20 29 C-19.67 26.69 -19.34 24.38 -19 22 C-16.497015657 24.938285968 -15.53069061 27.17902761 -15 31 C-15 30.67 -15 30.34 -15 30 C-15 29.01 -15 28.02 -15 27 C-12.249211161 26.083070387 -10.640510873 25.891139166 -7.8125 25.9375 C-5.9253125 25.9684375 -5.9253125 25.9684375 -4 26 C-3.01 22.535 -3.01 22.535 -2 19 C-3.32 19 -4.64 19 -6 19 C-6.368971568 13.219445435 -5.484325902 8.275358705 -3 3 C-1.39453125 1.234375 -1.39453125 1.234375 0 0 Z " fill="#6A685D" transform="translate(114,52)" />
<path d="M0 0 C0 0.99 0 1.98 0 3 C1.65 3.33 3.3 3.66 5 4 C5 4.66 5 5.32 5 6 C6.973210532 7.372668196 8.975431518 8.704276172 11 10 C13.518198324 12.518198324 14.016078286 14.866815012 15.0234375 18.22265625 C15.860465119 20.21266707 15.860465119 20.21266707 18.1015625 20.74609375 C18.728046875 20.829882813 19.35453125 20.913671875 20 21 C20.33 20.34 20.66 19.68 21 19 C20.919212396 22.605091054 20.806363162 26.208479214 20.6875 29.8125 C20.664941406 30.836660156 20.642382813 31.860820312 20.619140625 32.916015625 C20.583691406 33.898925781 20.548242187 34.881835938 20.51171875 35.89453125 C20.485534668 36.800500488 20.459350586 37.706469727 20.432373047 38.639892578 C19.919026895 41.441991531 19.316826402 42.370525303 17 44 C14.188729573 44.217142412 11.611665501 44.282842755 8.8125 44.1875 C8.062910156 44.173964844 7.313320312 44.160429687 6.541015625 44.146484375 C4.693702331 44.111185395 2.846759339 44.057379174 1 44 C1.630999766 39.330601733 1.630999766 39.330601733 3.5390625 37.62109375 C6.501750483 34.333619117 5.413902855 29.236457469 5.3046875 25.01953125 C5.040947699 20.309408913 3.989451416 15.908696464 2.65625 11.390625 C2 9 2 9 2 6 C1.360625 5.731875 0.72125 5.46375 0.0625 5.1875 C-2 4 -2 4 -3 1 C-2.01 0.67 -1.02 0.34 0 0 Z " fill="#4D4B3F" transform="translate(58,78)" />
<path d="M0 0 C2.939783571 4.409675357 1.641449746 7.642091471 0.76953125 12.69921875 C-0.481239423 18.064199556 -2.687170017 22.22132712 -5.9375 26.625 C-7.372935124 29.09729029 -7.372935124 29.09729029 -5.875 32.125 C-4.230011401 34.922707155 -4.230011401 34.922707155 -2.37890625 36.44140625 C-1 38 -1 38 -1.0625 41.8125 C-3.863969876 60.326561786 -3.863969876 60.326561786 -10 65 C-13.75 65.25 -13.75 65.25 -17 65 C-16.75 63.1875 -16.75 63.1875 -16 61 C-15.360625 60.566875 -14.72125 60.13375 -14.0625 59.6875 C-11.128984154 57.287350671 -10.520307083 54.615467165 -10 51 C-9.853868468 47.658458957 -9.878965662 44.341892546 -10 41 C-9.01 41.33 -8.02 41.66 -7 42 C-7 42.99 -7 43.98 -7 45 C-5.68 45 -4.36 45 -3 45 C-2.654334126 42.096406662 -2.448958657 39.879189559 -4.04296875 37.3359375 C-5.91340992 35.108960623 -7.944610359 33.055389641 -10 31 C-10.66 31.33 -11.32 31.66 -12 32 C-12.33 31.67 -12.66 31.34 -13 31 C-14.32 31 -15.64 31 -17 31 C-17.33 30.01 -17.66 29.02 -18 28 C-17.01 27.01 -16.02 26.02 -15 25 C-14.67 25.99 -14.34 26.98 -14 28 C-8.363109664 26.673672862 -6.068143174 22.533682353 -3 18 C-3.67546875 18.337734375 -4.3509375 18.67546875 -5.046875 19.0234375 C-11.0234375 22.01171875 -11.0234375 22.01171875 -17 25 C-17.33 24.34 -17.66 23.68 -18 23 C-17.01 23 -16.02 23 -15 23 C-15 21.68 -15 20.36 -15 19 C-14.34 19 -13.68 19 -13 19 C-13 18.34 -13 17.68 -13 17 C-14.093125 17 -15.18625 17 -16.3125 17 C-18.541666667 17 -20.770833333 17 -23 17 C-8.030927835 6 -8.030927835 6 0 6 C-0.185625 5.38125 -0.37125 4.7625 -0.5625 4.125 C-1 2 -1 2 0 0 Z " fill="#3A372C" transform="translate(137,57)" />
<path d="M0 0 C0.33 0.66 0.66 1.32 1 2 C3.874599753 3.437299876 6.910542949 4.141817486 10 5 C10 4.34 10 3.68 10 3 C11.65 2.34 13.3 1.68 15 1 C15.98712878 2.243721888 16.964399047 3.495272183 17.9375 4.75 C18.482773437 5.44609375 19.028046875 6.1421875 19.58984375 6.859375 C21.003158786 9.004795055 21.675388472 10.464938545 22 13 C21.67 13.99 21.34 14.98 21 16 C18.9375 16.6875 18.9375 16.6875 17 17 C16.8453125 16.0409375 16.8453125 16.0409375 16.6875 15.0625 C16.460625 14.381875 16.23375 13.70125 16 13 C15.01 12.67 14.02 12.34 13 12 C12.480507813 13.085390625 11.961015625 14.17078125 11.42578125 15.2890625 C10.72179152 16.734588079 10.017339749 18.179888701 9.3125 19.625 C8.972832031 20.337851562 8.633164063 21.050703125 8.283203125 21.78515625 C3.031914894 32.484042553 3.031914894 32.484042553 -2 35 C-4.332986601 35.040223907 -6.667066655 35.043202469 -9 35 C-7.997381615 31.212330544 -6.474931244 29.387366861 -3.5 27 C-0.499818836 24.542471146 1.161495469 22.913021144 2 19 C2.231596069 14.136482547 1.957944927 9.789724633 1 5 C0.113125 5.33 -0.77375 5.66 -1.6875 6 C-7.313093231 7.650483965 -13.198458141 7.157034216 -19 7 C-19 6.67 -19 6.34 -19 6 C-17.02 6 -15.04 6 -13 6 C-12.67 4.68 -12.34 3.36 -12 2 C-12 3.32 -12 4.64 -12 6 C-6.555 5.01 -6.555 5.01 -1 4 C-0.67 2.68 -0.34 1.36 0 0 Z " fill="#535146" transform="translate(113,86)" />
<path d="M0 0 C4.031196437 0.526724273 6.137321252 1.576723577 9.125 4.3125 C10.118867188 5.203886719 10.118867188 5.203886719 11.1328125 6.11328125 C17.224363017 12.268550915 17.972867117 18.77897316 18.62109375 27.109375 C18.808652344 28.045234375 18.808652344 28.045234375 19 29 C19.66 29.33 20.32 29.66 21 30 C13.38730605 31.181034762 8.154188111 30.932044308 1 28 C1 25.03 1 22.06 1 19 C1.99 19.66 2.98 20.32 4 21 C3.67 22.98 3.34 24.96 3 27 C6.63 27.99 10.26 28.98 14 30 C8.864720967 22.19009647 3.791775011 16.194516674 -4 11 C-3.67 10.34 -3.34 9.68 -3 9 C-2.01 9.33 -1.02 9.66 0 10 C0 10.66 0 11.32 0 12 C0.78375 12.309375 1.5675 12.61875 2.375 12.9375 C5 14 5 14 7 15 C5.68 13.35 4.36 11.7 3 10 C3.33 9.34 3.66 8.68 4 8 C4 6.68 4 5.36 4 4 C4 3.34 4 2.68 4 2 C2.68 1.34 1.36 0.68 0 0 Z " fill="#37362D" transform="translate(79,62)" />
<path d="M0 0 C-1.98 0.99 -1.98 0.99 -4 2 C-3.34 2 -2.68 2 -2 2 C-2 2.99 -2 3.98 -2 5 C-2.66 5 -3.32 5 -4 5 C-3.67 6.32 -3.34 7.64 -3 9 C-0.36 8.34 2.28 7.68 5 7 C4.67 6.01 4.34 5.02 4 4 C3.01 4 2.02 4 1 4 C0.34 3.67 -0.32 3.34 -1 3 C-1 2.34 -1 1.68 -1 1 C1.875 0.375 1.875 0.375 5 0 C5.66 0.66 6.32 1.32 7 2 C7.86625 2.433125 8.7325 2.86625 9.625 3.3125 C10.40875 3.869375 11.1925 4.42625 12 5 C12.1484375 7.60546875 12.1484375 7.60546875 12 10 C8.97276995 11.714414412 5.92633576 13.391423891 2.875 15.0625 C1.59109375 15.790498047 1.59109375 15.790498047 0.28125 16.533203125 C-6.190419997 20.042839547 -6.190419997 20.042839547 -10.6171875 19.80859375 C-11.403515625 19.541757812 -12.18984375 19.274921875 -13 19 C-12.967429271 11.199310364 -11.113959513 5.954982033 -6 0 C-3.509071894 -1.245464053 -2.589192669 -0.776757801 0 0 Z " fill="#44423B" transform="translate(123,50)" />
<path d="M0 0 C0.458260616 5.728257703 -0.44174139 8.499849405 -4 13 C-4.66 13.66 -5.32 14.32 -6 15 C-5.175 15.61875 -4.35 16.2375 -3.5 16.875 C-2.675 17.57625 -1.85 18.2775 -1 19 C-1 19.66 -1 20.32 -1 21 C-1.66 21 -2.32 21 -3 21 C-3 20.34 -3 19.68 -3 19 C-4.32 19.33 -5.64 19.66 -7 20 C-7 19.34 -7 18.68 -7 18 C-8.65 18 -10.3 18 -12 18 C-12.99 20.475 -12.99 20.475 -14 23 C-12.35 22.34 -10.7 21.68 -9 21 C-9 21.99 -9 22.98 -9 24 C-10.98 24.66 -12.96 25.32 -15 26 C-15.33 27.65 -15.66 29.3 -16 31 C-16.33 31 -16.66 31 -17 31 C-17.954942811 24.42150508 -17.8931507 18.581833618 -17 12 C-16.34 12.66 -15.68 13.32 -15 14 C-14.34 12.35 -13.68 10.7 -13 9 C-14.32 9.33 -15.64 9.66 -17 10 C-17.33 9.34 -17.66 8.68 -18 8 C-15.36 8 -12.72 8 -10 8 C-9.773125 7.236875 -9.54625 6.47375 -9.3125 5.6875 C-7.277073608 1.51972215 -4.601468523 0 0 0 Z " fill="#423F35" transform="translate(67,17)" />
<path d="M0 0 C0.99 0.33 1.98 0.66 3 1 C3 1.66 3 2.32 3 3 C3.66 3 4.32 3 5 3 C5.86625 4.36125 5.86625 4.36125 6.75 5.75 C8.808917137 9.17445952 8.808917137 9.17445952 12.25 11.0625 C13.1575 11.701875 14.065 12.34125 15 13 C15.375 15.75 15.375 15.75 15 18 C14.34 18.33 13.68 18.66 13 19 C13.66 19.66 14.32 20.32 15 21 C14.67 21.33 14.34 21.66 14 22 C14.94359375 22.311308594 14.94359375 22.311308594 15.90625 22.62890625 C22.346601729 24.947044899 27.489116866 27.756098357 32 33 C33.5 36.4375 33.5 36.4375 34 39 C33.29875 38.278125 32.5975 37.55625 31.875 36.8125 C24.989120229 29.747988304 24.989120229 29.747988304 15.94140625 26.76953125 C14.826367187 26.783710938 13.711328125 26.797890625 12.5625 26.8125 C10.893808594 26.822167969 10.893808594 26.822167969 9.19140625 26.83203125 C6.348991163 26.981632044 3.765984527 27.353741933 1 28 C3.052336846 25.752202502 4.006672607 24.997775798 7 24 C6.34 23.34 5.68 22.68 5 22 C6.98 21.34 8.96 20.68 11 20 C11 19.34 11 18.68 11 18 C10.401875 18.350625 9.80375 18.70125 9.1875 19.0625 C7 20 7 20 4 19 C5.65 18.01 7.3 17.02 9 16 C4.890412327 17.450442708 1.567412549 19.511107524 -2 22 C-1.505 20.515 -1.505 20.515 -1 19 C-0.34 19 0.32 19 1 19 C1 18.34 1 17.68 1 17 C0.34 16.67 -0.32 16.34 -1 16 C5.75 14 5.75 14 8 14 C7.67 13.34 7.34 12.68 7 12 C6.01 12.495 6.01 12.495 5 13 C4.34 12.67 3.68 12.34 3 12 C2.40234375 10.0390625 2.40234375 10.0390625 1.9375 7.625 C1.415893138 4.978168487 0.856079167 2.568237501 0 0 Z " fill="#8A8980" transform="translate(61,35)" />
<path d="M0 0 C1.1446875 1.175625 1.1446875 1.175625 2.3125 2.375 C9.764428451 9.653627789 19.711765818 9.307352977 29.625 9.625 C30.629179687 9.663671875 31.633359375 9.70234375 32.66796875 9.7421875 C35.11181005 9.835286216 37.555665955 9.921109135 40 10 C39.67 11.65 39.34 13.3 39 15 C37.68 14.34 36.36 13.68 35 13 C35.33 12.34 35.66 11.68 36 11 C35.01 11.33 34.02 11.66 33 12 C31.105291837 12.068549499 29.208316605 12.084803725 27.3125 12.0625 C26.318632812 12.053476563 25.324765625 12.044453125 24.30078125 12.03515625 C23.161894531 12.017753906 23.161894531 12.017753906 22 12 C22.33 14.97 22.66 17.94 23 21 C21.68 20.67 20.36 20.34 19 20 C18.01 20 17.02 20 16 20 C16.66 20.66 17.32 21.32 18 22 C13.71 21.34 9.42 20.68 5 20 C6.32 19.34 7.64 18.68 9 18 C8.34 17.34 7.68 16.68 7 16 C7.33 15.01 7.66 14.02 8 13 C8.66 13 9.32 13 10 13 C10 12.01 10 11.02 10 10 C9.278125 9.79375 8.55625 9.5875 7.8125 9.375 C4.02781616 7.524710122 2.477413475 5.397595622 0 2 C0 1.34 0 0.68 0 0 Z " fill="#36342B" transform="translate(66,38)" />
<path d="M0 0 C1.9375 0.6875 1.9375 0.6875 4 2 C4.75 4.625 4.75 4.625 5 7 C5.66 6.67 6.32 6.34 7 6 C7.33 8.97 7.66 11.94 8 15 C9.32 15.33 10.64 15.66 12 16 C12.6875 18.3125 12.6875 18.3125 13 21 C12.03125 22.65625 12.03125 22.65625 10 24 C7.188729573 24.217142412 4.611665501 24.282842755 1.8125 24.1875 C1.062910156 24.173964844 0.313320312 24.160429687 -0.458984375 24.146484375 C-2.306297669 24.111185395 -4.153240661 24.057379174 -6 24 C-5.1875 19.171875 -5.1875 19.171875 -3.5 17.625 C-1.16629078 15.096815011 -1.313761342 12.325870229 -1 9 C-0.01 9.99 0.98 10.98 2 12 C2 10.68 2 9.36 2 8 C1.34 8 0.68 8 0 8 C0 5.36 0 2.72 0 0 Z " fill="#79776C" transform="translate(65,98)" />
<path d="M0 0 C-0.763125 0.721875 -1.52625 1.44375 -2.3125 2.1875 C-8.026877588 8.167662592 -8.590499552 12.937077382 -9 21 C-7.68 21.33 -6.36 21.66 -5 22 C-6.875 26.75 -6.875 26.75 -8 29 C-10.50390625 29.4140625 -10.50390625 29.4140625 -13.5625 29.625 C-14.574414062 29.699765625 -15.586328125 29.77453125 -16.62890625 29.8515625 C-17.411367188 29.900546875 -18.193828125 29.94953125 -19 30 C-19 30.99 -19 31.98 -19 33 C-17.68 33.33 -16.36 33.66 -15 34 C-15.99 34 -16.98 34 -18 34 C-18.33 34.99 -18.66 35.98 -19 37 C-19.158554688 36.382539063 -19.317109375 35.765078125 -19.48046875 35.12890625 C-22.176778291 25.341749518 -25.706531625 18.094623734 -34 12 C-33.34 11.67 -32.68 11.34 -32 11 C-31.4225 11.515625 -30.845 12.03125 -30.25 12.5625 C-28.152301283 14.226122923 -28.152301283 14.226122923 -25.9375 13.8125 C-23.737181852 12.961840661 -23.737181852 12.961840661 -21 11 C-20.01 11.33 -19.02 11.66 -18 12 C-19.98 13.32 -21.96 14.64 -24 16 C-23.401875 15.814375 -22.80375 15.62875 -22.1875 15.4375 C-20 15 -20 15 -17 16 C-18.98 16.99 -20.96 17.98 -23 19 C-22.01 21.97 -21.02 24.94 -20 28 C-16.7 27.67 -13.4 27.34 -10 27 C-10.33 25.68 -10.66 24.36 -11 23 C-11.065484923 21.417884266 -11.085783812 19.833299194 -11.0625 18.25 C-11.053476562 17.45078125 -11.044453125 16.6515625 -11.03515625 15.828125 C-11.023554687 15.22484375 -11.011953125 14.6215625 -11 14 C-12.65 14.33 -14.3 14.66 -16 15 C-14 13 -14 13 -11 12 C-10.67 11.34 -10.34 10.68 -10 10 C-12.31 10.33 -14.62 10.66 -17 11 C-16.67 9.68 -16.34 8.36 -16 7 C-14.02 6.67 -12.04 6.34 -10 6 C-10 5.34 -10 4.68 -10 4 C-7.060478677 0.472574412 -4.508529041 -1.502843014 0 0 Z " fill="#292721" transform="translate(118,49)" />
<path d="M0 0 C9.042985531 3.238164786 16.303102715 10.780429752 21 19 C21 19.66 21 20.32 21 21 C19.54096742 20.690781161 18.082792783 20.377512005 16.625 20.0625 C15.406835938 19.801464844 15.406835938 19.801464844 14.1640625 19.53515625 C12 19 12 19 10 18 C10.020625 17.071875 10.04125 16.14375 10.0625 15.1875 C10.157696037 11.977139886 10.157696037 11.977139886 9 9 C7.353698069 7.880649267 7.353698069 7.880649267 5 7 C4.395429687 6.739609375 3.790859375 6.47921875 3.16796875 6.2109375 C-0.976420331 4.51514541 -4.465067401 3.29456604 -9 4 C-11.673984755 5.938978789 -11.673984755 5.938978789 -14 8 C-14.99 8 -15.98 8 -17 8 C-13.877665698 0.052239959 -7.790342531 -1.313893591 0 0 Z " fill="#E0DDD5" transform="translate(72,71)" />
<path d="M0 0 C-1 3 -1 3 -3 4 C-2.34 4 -1.68 4 -1 4 C-0.67 8.29 -0.34 12.58 0 17 C-4.95 17.495 -4.95 17.495 -10 18 C-11.32 15.03 -12.64 12.06 -14 9 C-12.02 8.01 -10.04 7.02 -8 6 C-10.31 6.66 -12.62 7.32 -15 8 C-14.000745497 5.442768047 -13.336180559 4.210275099 -10.9765625 2.734375 C-9.812539062 2.247109375 -9.812539062 2.247109375 -8.625 1.75 C-7.854140625 1.41484375 -7.08328125 1.0796875 -6.2890625 0.734375 C-4 0 -4 0 0 0 Z " fill="#77756C" transform="translate(108,59)" />
<path d="M0 0 C5.052559636 0.631569954 9.295932014 2.13459373 14 4 C14.027176919 6.062426167 14.046475804 8.12495703 14.0625 10.1875 C14.074101563 11.336054687 14.085703125 12.484609375 14.09765625 13.66796875 C14.011928316 16.593005862 13.678490227 19.163162911 13 22 C10.125 22.625 10.125 22.625 7 23 C5 21 5 21 4.875 18.375 C4.91625 17.59125 4.9575 16.8075 5 16 C5.33 16.66 5.66 17.32 6 18 C6.99 18 7.98 18 9 18 C8.67 19.32 8.34 20.64 8 22 C8.66 22 9.32 22 10 22 C9.425472537 18.069243558 9.425472537 18.069243558 7 15 C7.99 15 8.98 15 10 15 C10 13.35 10 11.7 10 10 C9.34 10 8.68 10 8 10 C8.33 10.99 8.66 11.98 9 13 C7.68 13 6.36 13 5 13 C5 12.34 5 11.68 5 11 C4.34 11 3.68 11 3 11 C2.637205442 9.710730085 2.285033023 8.418467279 1.9375 7.125 C1.641660156 6.046054688 1.641660156 6.046054688 1.33984375 4.9453125 C1 3 1 3 2 1 C1.34 0.67 0.68 0.34 0 0 Z " fill="#6F6D60" transform="translate(67,76)" />
<path d="M0 0 C2.4375 0.125 2.4375 0.125 5 1 C7.149660248 4.58276708 7.503256409 7.890072659 7 12 C4.044854881 17.593667546 4.044854881 17.593667546 0.75 18.875 C0.1725 18.91625 -0.405 18.9575 -1 19 C-0.67 16.69 -0.34 14.38 0 12 C-0.66 11.67 -1.32 11.34 -2 11 C-2.99 14.63 -3.98 18.26 -5 22 C-7.31 22 -9.62 22 -12 22 C-12.33 20.35 -12.66 18.7 -13 17 C-12.34 17.99 -11.68 18.98 -11 20 C-8.416198225 20.250309771 -8.416198225 20.250309771 -6 20 C-6 19.34 -6 18.68 -6 18 C-6.99 18.33 -7.98 18.66 -9 19 C-9 18.34 -9 17.68 -9 17 C-9.66 16.34 -10.32 15.68 -11 15 C-9.35 15 -7.7 15 -6 15 C-5.525625 13.865625 -5.05125 12.73125 -4.5625 11.5625 C-3 8 -3 8 -2 7 C-0.333828849 6.959361679 1.333880948 6.957278999 3 7 C2.67 6.34 2.34 5.68 2 5 C0.68 5.33 -0.64 5.66 -2 6 C-1.125 1.125 -1.125 1.125 0 0 Z " fill="#969488" transform="translate(55,34)" />
<path d="M0 0 C1.026652131 0.972617809 2.017090324 1.983196887 3 3 C3.9075 3.928125 4.815 4.85625 5.75 5.8125 C8 9 8 9 7.8125 12.375 C7.544375 13.24125 7.27625 14.1075 7 15 C5.68 15.33 4.36 15.66 3 16 C2.896875 15.360625 2.79375 14.72125 2.6875 14.0625 C2.460625 13.381875 2.23375 12.70125 2 12 C1.01 11.67 0.02 11.34 -1 11 C-1.33 11.66 -1.66 12.32 -2 13 C-2.66 13 -3.32 13 -4 13 C-4.33 13.99 -4.66 14.98 -5 16 C-6.65 16 -8.3 16 -10 16 C-9.967447917 14.014322917 -9.934895833 12.028645833 -9.90234375 10.04296875 C-9.917367831 7.796945386 -9.917367831 7.796945386 -11 5 C-10.34 5 -9.68 5 -9 5 C-9 5.66 -9 6.32 -9 7 C-8.01 7 -7.02 7 -6 7 C-6 6.34 -6 5.68 -6 5 C-5.34 5 -4.68 5 -4 5 C-3.67 5.66 -3.34 6.32 -3 7 C-2.690625 6.030625 -2.38125 5.06125 -2.0625 4.0625 C-1 1 -1 1 0 0 Z " fill="#716F63" transform="translate(127,87)" />
<path d="M0 0 C0.66 0.33 1.32 0.66 2 1 C1.38125 1.78375 0.7625 2.5675 0.125 3.375 C-2.688249598 7.525041961 -3.267444594 12.122723215 -4 17 C1.718946855 17.557507398 5.344463912 15.721520017 10.25 13.125 C10.969296875 12.760195313 11.68859375 12.395390625 12.4296875 12.01953125 C18.068807375 9.252053336 18.068807375 9.252053336 21 4 C22.460628504 6.647389163 23 7.894483343 23 11 C21.40671875 11.653554687 21.40671875 11.653554687 19.78125 12.3203125 C9.52023281 16.566301215 9.52023281 16.566301215 0.48046875 22.93359375 C-1 24 -1 24 -4 24 C-3.34 22.35 -2.68 20.7 -2 19 C-3.32 19 -4.64 19 -6 19 C-6.368971568 13.219445435 -5.484325902 8.275358705 -3 3 C-1.39453125 1.234375 -1.39453125 1.234375 0 0 Z " fill="#CAC8C2" transform="translate(114,52)" />
<path d="M0 0 C2.749990266 3.228249442 3.104296893 4.521484466 4 9 C7.96 9 11.92 9 16 9 C16.33 11.31 16.66 13.62 17 16 C11.834305587 17.792179694 8.489460872 18.120298137 3 17 C3 15.35 3 13.7 3 12 C2.01 11.67 1.02 11.34 0 11 C0.66 11 1.32 11 2 11 C1.67 9.02 1.34 7.04 1 5 C0.34 5.66 -0.32 6.32 -1 7 C-0.67 4.69 -0.34 2.38 0 0 Z " fill="#615F53" transform="translate(95,74)" />
<path d="M0 0 C0.928125 0.845625 1.85625 1.69125 2.8125 2.5625 C5.972164912 5.251439323 9.251491794 7.674015893 12.6875 10 C14.054550781 10.928125 14.054550781 10.928125 15.44921875 11.875 C17.908893032 13.29366 17.908893032 13.29366 20.20703125 12.3125 C22.118511834 10.983420046 22.118511834 10.983420046 24 9 C26.625 8.875 26.625 8.875 29 9 C29.33 10.32 29.66 11.64 30 13 C29.34 13 28.68 13 28 13 C27.34 14.32 26.68 15.64 26 17 C18.42097237 17.842114181 14.055900215 15.446574966 8 11 C4.897679339 8.43541492 1.915436057 5.774593735 -1 3 C-0.67 2.01 -0.34 1.02 0 0 Z " fill="#1D1B14" transform="translate(145,63)" />
<path d="M0 0 C1.98 0.66 3.96 1.32 6 2 C6.33 1.34 6.66 0.68 7 0 C6.67 6.6 6.34 13.2 6 20 C5.67 19.01 5.34 18.02 5 17 C4.01 17.33 3.02 17.66 2 18 C0 16 0 16 -0.0625 13 C-0.041875 12.01 -0.02125 11.02 0 10 C-0.33 9.34 -0.66 8.68 -1 8 C-1.33 11.63 -1.66 15.26 -2 19 C-2.33 19 -2.66 19 -3 19 C-3 13.72 -3 8.44 -3 3 C-2.01 3.495 -2.01 3.495 -1 4 C-0.67 2.68 -0.34 1.36 0 0 Z " fill="#464539" transform="translate(72,97)" />
<path d="M0 0 C1.903756318 1.596536383 2.900497622 2.505414653 3.3984375 4.98046875 C3.341227515 10.367742345 2.825185719 15.29871439 0 20 C-2.6875 22 -2.6875 22 -5 23 C-6.32 21.68 -7.64 20.36 -9 19 C-8.68546875 18.550117188 -8.3709375 18.100234375 -8.046875 17.63671875 C-4.339369356 12.064293099 -2.086365509 6.340686239 0 0 Z " fill="#EAE9DD" transform="translate(125,96)" />
<path d="M0 0 C3.63 0 7.26 0 11 0 C11 0.33 11 0.66 11 1 C9.68 1.33 8.36 1.66 7 2 C7.99 2 8.98 2 10 2 C9.34 3.98 8.68 5.96 8 8 C7.67 8 7.34 8 7 8 C6.830442048 9.728885548 6.664484863 11.458124428 6.5 13.1875 C6.4071875 14.150429688 6.314375 15.113359375 6.21875 16.10546875 C6.018751561 18.75187667 5.96120817 21.347608648 6 24 C5.34 23.67 4.68 23.34 4 23 C3.375 20.4375 3.375 20.4375 3 18 C3 19.98 3 21.96 3 24 C1 23 1 23 0.3671875 21.109375 C-0.485634532 17.021243988 -1.271216681 13.203858558 -1 9 C-0.34 9 0.32 9 1 9 C1.269325211 4.349471281 1.269325211 4.349471281 0 0 Z " fill="#67645C" transform="translate(44,24)" />
<path d="M0 0 C11.638565022 -0.920179372 11.638565022 -0.920179372 14.9765625 1.3359375 C16.3125 3 16.3125 3 18 6 C17.34 7.65 16.68 9.3 16 11 C17.65 12.98 19.3 14.96 21 17 C20.01 17 19.02 17 18 17 C16.46484375 15.3203125 16.46484375 15.3203125 14.9375 13.125 C12.27964734 8.879116415 12.27964734 8.879116415 8.125 6.54296875 C6.709584227 6.306198832 5.292878788 6.077012311 3.875 5.85546875 C2 5 2 5 0.75 2.42578125 C0.37875 1.225019531 0.37875 1.225019531 0 0 Z " fill="#525148" transform="translate(67,61)" />
<path d="M0 0 C0.66 0.33 1.32 0.66 2 1 C2.4140625 3.06640625 2.4140625 3.06640625 2.625 5.5625 C2.699765625 6.388789063 2.77453125 7.215078125 2.8515625 8.06640625 C2.900546875 8.704492188 2.94953125 9.342578125 3 10 C4.32 9.67 5.64 9.34 7 9 C7.33 9.99 7.66 10.98 8 12 C7.030625 12.309375 6.06125 12.61875 5.0625 12.9375 C2.159342081 13.695233416 2.159342081 13.695233416 1 15 C1 15.66 1 16.32 1 17 C-0.8125 18.6875 -0.8125 18.6875 -3 20 C-3.99 19.67 -4.98 19.34 -6 19 C-8.142557928 19.389328557 -8.142557928 19.389328557 -10 20 C-11.098987016 16.703038952 -10.871244441 15.595050967 -10.0625 12.3125 C-9.867851563 11.504257813 -9.673203125 10.696015625 -9.47265625 9.86328125 C-9.238691406 8.940957031 -9.238691406 8.940957031 -9 8 C-7.68 7.67 -6.36 7.34 -5 7 C-5.66 9.97 -6.32 12.94 -7 16 C-3.3675325 14.088175 -1.484601742 12.848967479 0 9 C0.239797623 6.637777681 0.239797623 6.637777681 0.125 4.25 C0.097929687 3.051171875 0.097929687 3.051171875 0.0703125 1.828125 C0.047109375 1.22484375 0.02390625 0.6215625 0 0 Z " fill="#302E23" transform="translate(61,37)" />
<path d="M0 0 C0.99 0 1.98 0 3 0 C3.35944299 6.829416803 2.516297319 11.099739156 -1.25 16.9375 C-4.063713287 18.645825924 -6.800307727 18.181114657 -10 18 C-9.75 16.1875 -9.75 16.1875 -9 14 C-8.360625 13.566875 -7.72125 13.13375 -7.0625 12.6875 C-4.10959589 10.271487547 -3.822093529 7.630913086 -3 4 C-2.67 4.66 -2.34 5.32 -2 6 C-1.34 4.02 -0.68 2.04 0 0 Z " fill="#625F54" transform="translate(130,104)" />
<path d="M0 0 C0.66 0.33 1.32 0.66 2 1 C2 1.99 2 2.98 2 4 C1.34 4 0.68 4 0 4 C0.99 8.29 1.98 12.58 3 17 C3.33 14.69 3.66 12.38 4 10 C4.33 10 4.66 10 5 10 C6 17.625 6 17.625 6 21 C5.34 21.33 4.68 21.66 4 22 C4.66 22.33 5.32 22.66 6 23 C6 23.66 6 24.32 6 25 C3.6875 25.6875 3.6875 25.6875 1 26 C-0.649658203 24.824951172 -0.649658203 24.824951172 -2 23 C-2.340576172 20.731689453 -2.340576172 20.731689453 -2.29296875 18.11328125 C-2.283300781 17.175488281 -2.273632812 16.237695313 -2.263671875 15.271484375 C-2.238535156 14.295019531 -2.213398437 13.318554687 -2.1875 12.3125 C-2.173964844 11.324433594 -2.160429687 10.336367188 -2.146484375 9.318359375 C-2.111122032 6.878357693 -2.061770328 4.439452813 -2 2 C-1.34 2 -0.68 2 0 2 C0 1.34 0 0.68 0 0 Z " fill="#3D3A31" transform="translate(43,29)" />
</svg>