<?xml version='1.0' encoding='utf-8'?>
<svg xmlns="http://www.w3.org/2000/svg" version="1.1" width="176" height="109" viewBox="29.0 6.260534852999999 176.67000000000002 109.739465147">
<path d="M0 0 C3 1 3 1 4.625 4.1875 C5.89741899 7.411849692 6.579415064 10.551203526 7 14 C7.211922206 8.80790596 6.591268899 4.873261004 5 0 C6.921875 0.5859375 6.921875 0.5859375 9 2 C9.828125 5.0390625 9.828125 5.0390625 10.25 8.625 C10.39953125 9.813515625 10.5490625 11.00203125 10.703125 12.2265625 C10.850078125 13.599414063 10.850078125 13.599414063 11 15 C12.382260163 12.235479675 12.095253869 9.953863696 12.0625 6.875 C12.053476563 5.779296875 12.044453125 4.68359375 12.03515625 3.5546875 C12.023554687 2.711640625 12.011953125 1.86859375 12 1 C12.99 1.33 13.98 1.66 15 2 C15.864773307 11.416420458 13.513752914 18.403854479 10 27 C11.153772403 24.294810397 12.298147586 21.586257408 13.4375 18.875 C13.762988281 18.114453125 14.088476563 17.35390625 14.423828125 16.5703125 C16.176784058 12.37767563 17.48308031 8.557629945 18 4 C19.32 5.32 20.64 6.64 22 8 C21.38125 9.11375 21.38125 9.11375 20.75 10.25 C18.224491263 15.252682378 16.697402256 20.675154345 15 26 C17.225162108 23.774837892 18.249152967 20.290453853 19.5625 17.4375 C19.891855469 16.726582031 20.221210937 16.015664063 20.560546875 15.283203125 C21.375655651 13.523040697 22.18807909 11.761635185 23 10 C23.66 10 24.32 10 25 10 C24.524128838 16.027701382 21.802770427 20.766782892 19 26 C20.32 24.68 21.64 23.36 23 22 C21.588322528 27.261706942 19.251497676 30.721713584 16 35 C16.66 35 17.32 35 18 35 C18.277148437 35.638085937 18.554296875 36.276171875 18.83984375 36.93359375 C19.202070312 37.759882812 19.564296875 38.586171875 19.9375 39.4375 C20.297148437 40.261210938 20.656796875 41.084921875 21.02734375 41.93359375 C21.831223231 43.944101169 21.831223231 43.944101169 23 45 C23.127155223 47.782629426 23.185213153 50.529407299 23.1875 53.3125 C23.199746094 54.085292969 23.211992188 54.858085937 23.224609375 55.654296875 C23.242767173 62.693469742 23.242767173 62.693469742 21 66 C19.68 65.67 18.36 65.34 17 65 C17.495 64.195625 17.99 63.39125 18.5 62.5625 C20.374189983 58.111298791 20.957056968 54.75490208 20 50 C17.735785781 45.087082355 14.972400728 40.698030708 11 37 C11.058007812 37.65484375 11.116015625 38.3096875 11.17578125 38.984375 C11.573506901 47.029796744 9.599466169 52.863486151 6 60 C5.677734375 60.678046875 5.35546875 61.35609375 5.0234375 62.0546875 C4.125 63.6875 4.125 63.6875 2 66 C-1.75 66.875 -1.75 66.875 -5 67 C-4.6875 65.125 -4.6875 65.125 -4 63 C-3.01 62.34 -2.02 61.68 -1 61 C-0.656575511 59.669230106 -0.323801264 58.335680213 0 57 C1.5 55.375 1.5 55.375 3 54 C5.204501797 49.590996405 4.649142905 43.283322429 3.328125 38.63671875 C2.574365058 36.748763424 1.788866468 34.873557861 1 33 C1 31.68 1 30.36 1 29 C-0.142753906 29.558808594 -0.142753906 29.558808594 -1.30859375 30.12890625 C-8.191142344 33.282333633 -12.559977019 34.612004979 -20 33 C-19.517890625 32.203359375 -19.03578125 31.40671875 -18.5390625 30.5859375 C-17.907421875 29.526328125 -17.27578125 28.46671875 -16.625 27.375 C-15.685273438 25.808789062 -15.685273438 25.808789062 -14.7265625 24.2109375 C-11.664110056 18.515607389 -10.753028663 14.089480841 -10.875 7.625 C-10.893046875 6.379765625 -10.91109375 5.13453125 -10.9296875 3.8515625 C-10.952890625 2.910546875 -10.97609375 1.96953125 -11 1 C-9.015625 2.55859375 -9.015625 2.55859375 -7 5 C-6.609375 8.34765625 -6.609375 8.34765625 -6.75 12.0625 C-6.78609375 13.290976562 -6.8221875 14.519453125 -6.859375 15.78515625 C-6.928984375 17.376503906 -6.928984375 17.376503906 -7 19 C-7 19.99 -7 20.98 -7 22 C-4.181355107 15.658048991 -3.803512973 7.589461082 -6 1 C-5.01 1 -4.02 1 -3 1 C0.285714286 9.428571429 0.285714286 9.428571429 1 14 C1.149752393 6.943487483 1.149752393 6.943487483 0 0 Z " fill="#92918C" transform="translate(141,38)" />
<path d="M0 0 C3.473700848 0.356785251 4.893216054 1.560001478 7.55078125 3.78125 C8.340976563 4.4309375 9.131171875 5.080625 9.9453125 5.75 C10.536992188 6.2553125 11.128671875 6.760625 11.73828125 7.28125 C11.49078125 8.3125 11.24328125 9.34375 10.98828125 10.40625 C10.681910364 15.154998738 11.891243123 16.596847717 14.73828125 20.28125 C15.992615829 24.044253736 15.84523547 27.553359091 15.80078125 31.46875 C15.796269531 32.218339844 15.791757813 32.967929688 15.787109375 33.740234375 C15.775344792 35.587273829 15.757409905 37.434272132 15.73828125 39.28125 C20.402164997 31.237120235 22.705181072 24.61550022 22.73828125 15.28125 C26.66796875 18.90625 26.66796875 18.90625 27.30078125 22.28125 C26.829085982 30.387420537 21.903098067 38.494141113 17.73828125 45.28125 C11.98828125 45.40625 11.98828125 45.40625 9.73828125 44.28125 C9.748754883 43.504106445 9.759228516 42.726962891 9.770019531 41.926269531 C9.811484073 38.419628997 9.837577031 34.913039944 9.86328125 31.40625 C9.880039063 30.182929687 9.896796875 28.959609375 9.9140625 27.69921875 C9.920507813 26.532617188 9.926953125 25.366015625 9.93359375 24.1640625 C9.944067383 23.08527832 9.954541016 22.006494141 9.965332031 20.895019531 C10.006681015 18.120809777 10.006681015 18.120809777 7.73828125 16.28125 C3.912634596 16.468820621 3.912634596 16.468820621 0.73828125 18.28125 C1.85203125 18.075 2.96578125 17.86875 4.11328125 17.65625 C5.30953125 17.5325 6.50578125 17.40875 7.73828125 17.28125 C9.73828125 19.28125 9.73828125 19.28125 9.93359375 21.8828125 C9.910390625 22.880546875 9.8871875 23.87828125 9.86328125 24.90625 C9.845234375 25.909140625 9.8271875 26.91203125 9.80859375 27.9453125 C9.785390625 28.716171875 9.7621875 29.48703125 9.73828125 30.28125 C7.42828125 30.28125 5.11828125 30.28125 2.73828125 30.28125 C2.40828125 31.27125 2.07828125 32.26125 1.73828125 33.28125 C2.39828125 32.62125 3.05828125 31.96125 3.73828125 31.28125 C6.36328125 31.65625 6.36328125 31.65625 8.73828125 32.28125 C8.73828125 33.27125 8.73828125 34.26125 8.73828125 35.28125 C7.08828125 35.28125 5.43828125 35.28125 3.73828125 35.28125 C3.40828125 35.94125 3.07828125 36.60125 2.73828125 37.28125 C3.35703125 37.095625 3.97578125 36.91 4.61328125 36.71875 C6.73828125 36.28125 6.73828125 36.28125 8.73828125 37.28125 C8.73828125 37.94125 8.73828125 38.60125 8.73828125 39.28125 C6.26328125 39.77625 6.26328125 39.77625 3.73828125 40.28125 C3.40828125 41.27125 3.07828125 42.26125 2.73828125 43.28125 C4.38828125 42.62125 6.03828125 41.96125 7.73828125 41.28125 C9.817401936 50.566643355 11.844394874 59.845148881 13.11328125 69.28125 C13.286015625 70.56 13.45875 71.83875 13.63671875 73.15625 C13.73828125 76.28125 13.73828125 76.28125 11.73828125 79.28125 C10.41828125 78.95125 9.09828125 78.62125 7.73828125 78.28125 C8.72828125 77.29125 8.72828125 77.29125 9.73828125 76.28125 C10.986362414 69.353508724 8.691752799 63.327857211 6.05078125 57.03125 C5.711113281 56.15984375 5.371445313 55.2884375 5.021484375 54.390625 C2.949386862 49.309144745 0.936619296 45.839911321 -3.26171875 42.28125 C-2.97296875 43.438828125 -2.68421875 44.59640625 -2.38671875 45.7890625 C-2.01135904 47.32803731 -1.636379099 48.867104782 -1.26171875 50.40625 C-1.0709375 51.166796875 -0.88015625 51.92734375 -0.68359375 52.7109375 C0.351006454 56.997138344 0.965552355 60.835259015 0.73828125 65.28125 C-0.912207169 62.270117169 -1.803769167 59.449677663 -2.55859375 56.10546875 C-2.79578125 55.112246094 -3.03296875 54.119023438 -3.27734375 53.095703125 C-3.763510441 51.025615698 -4.237657956 48.952665447 -4.69921875 46.876953125 C-6.12456281 41.012572114 -7.659483991 37.053685471 -11.884277344 32.700927734 C-13.572734111 30.960698011 -14.647776399 29.145802836 -15.69921875 26.96875 C-16.192285156 25.984550781 -16.192285156 25.984550781 -16.6953125 24.98046875 C-16.882226562 24.419726563 -17.069140625 23.858984375 -17.26171875 23.28125 C-16.93171875 22.62125 -16.60171875 21.96125 -16.26171875 21.28125 C-15.768007813 22.135898438 -15.274296875 22.990546875 -14.765625 23.87109375 C-14.124960938 24.975820313 -13.484296875 26.080546875 -12.82421875 27.21875 C-12.186132813 28.320898437 -11.548046875 29.423046875 -10.890625 30.55859375 C-9.514616479 33.109607103 -9.514616479 33.109607103 -8.26171875 34.28125 C-8.114765625 32.761445313 -8.114765625 32.761445313 -7.96484375 31.2109375 C-7.814659523 29.859279454 -7.663569518 28.507721835 -7.51171875 27.15625 C-7.44984375 26.49109375 -7.38796875 25.8259375 -7.32421875 25.140625 C-6.744573705 20.213642121 -5.201474422 17.220063263 -2.26171875 13.28125 C-0.693751965 9.90086871 -0.693751965 9.90086871 -0.26171875 6.28125 C-1.58171875 6.28125 -2.90171875 6.28125 -4.26171875 6.28125 C-3.20586877 0.398657256 -3.20586877 0.398657256 0 0 Z " fill="#6C6A67" transform="translate(95.26171875,24.71875)" />
<path d="M0 0 C6.80050412 5.591236657 10.002184593 13.127610047 13.76171875 20.892578125 C17.302134326 27.938005122 21.021432317 34.339175356 28.79296875 36.9296875 C29.86546875 37.1771875 30.93796875 37.4246875 32.04296875 37.6796875 C33.98046875 39.3046875 33.98046875 39.3046875 35.04296875 40.6796875 C34.71296875 41.6696875 34.38296875 42.6596875 34.04296875 43.6796875 C26.526049161 42.680935946 22.118956874 37.282858728 17.56640625 31.57421875 C13.186527118 25.619591199 9.8810194 19.90935339 8.04296875 12.6796875 C7.38296875 12.6796875 6.72296875 12.6796875 6.04296875 12.6796875 C5.95015625 14.3503125 5.95015625 14.3503125 5.85546875 16.0546875 C5.422474146 19.811748374 4.227515161 22.496375502 2.41796875 25.8046875 C0.744620584 28.962769444 0.04296875 30.358027595 0.04296875 33.9921875 C0.907449398 36.699810497 0.907449398 36.699810497 2.5859375 38.75 C4.663747851 42.92790285 4.443031174 46.643408998 4.35546875 51.2421875 C4.358691406 52.092324219 4.361914063 52.942460938 4.365234375 53.818359375 C4.32862765 58.061411638 4.176140212 60.925539266 2.04296875 64.6796875 C-0.26703125 64.6796875 -2.57703125 64.6796875 -4.95703125 64.6796875 C-3.95703125 62.6796875 -2.95703125 60.6796875 -1.95703125 58.6796875 C-1.263670926 51.189122686 -1.484114998 45.829947346 -5.95703125 39.6796875 C-6.150390625 40.317773437 -6.34375 40.955859375 -6.54296875 41.61328125 C-6.803359375 42.439570312 -7.06375 43.265859375 -7.33203125 44.1171875 C-7.587265625 44.940898438 -7.8425 45.764609375 -8.10546875 46.61328125 C-8.95703125 48.6796875 -8.95703125 48.6796875 -10.95703125 49.6796875 C-10.793320312 49.15890625 -10.629609375 48.638125 -10.4609375 48.1015625 C-9.816444656 45.003999996 -9.862915359 42.091276557 -9.89453125 38.9296875 C-9.903554687 37.75921875 -9.912578125 36.58875 -9.921875 35.3828125 C-9.933476563 34.49078125 -9.945078125 33.59875 -9.95703125 32.6796875 C-4.747744977 37.276116564 0.144276764 43.157237505 1.52734375 50.1171875 C1.692165742 54.995918468 0.634840338 58.46789617 -1.95703125 62.6796875 C-0.96703125 63.0096875 0.02296875 63.3396875 1.04296875 63.6796875 C2.172645882 59.584536829 2.300682132 55.593061955 2.35546875 51.3671875 C2.384472656 50.633066406 2.413476562 49.898945312 2.443359375 49.142578125 C2.508847548 43.465257273 1.051788963 40.457005589 -1.95703125 35.6796875 C-1.95703125 34.6896875 -1.95703125 33.6996875 -1.95703125 32.6796875 C-2.61703125 32.6796875 -3.27703125 32.6796875 -3.95703125 32.6796875 C-2.506588542 28.570099827 -0.445923726 25.247100049 2.04296875 21.6796875 C0.72296875 22.6696875 -0.59703125 23.6596875 -1.95703125 24.6796875 C-0.940904986 21.207922765 0.264644812 18.153965622 2.10546875 15.0546875 C3.620603496 12.415420523 4.572279058 10.621498074 5.04296875 7.6796875 C4.38296875 7.6796875 3.72296875 7.6796875 3.04296875 7.6796875 C2.777421875 8.517578125 2.511875 9.35546875 2.23828125 10.21875 C0.963551111 13.909635303 -0.521709514 17.47863912 -2.08203125 21.0546875 C-2.359179687 21.695351563 -2.636328125 22.336015625 -2.921875 22.99609375 C-3.598035103 24.558256745 -4.277218323 26.119110654 -4.95703125 27.6796875 C-6.000611632 24.509131926 -5.927193613 22.779864766 -4.7421875 19.67578125 C-4.468261719 18.935214844 -4.194335938 18.194648437 -3.912109375 17.431640625 C-3.617558594 16.667871094 -3.323007813 15.904101563 -3.01953125 15.1171875 C-2.443736067 13.596628601 -1.87194738 12.074544909 -1.3046875 10.55078125 C-1.046955566 9.879743652 -0.789223633 9.208706055 -0.523681641 8.517333984 C0.190301588 6.522391988 0.190301588 6.522391988 0.04296875 3.6796875 C-0.45203125 3.1846875 -0.45203125 3.1846875 -0.95703125 2.6796875 C-1.187773437 3.490507812 -1.418515625 4.301328125 -1.65625 5.13671875 C-3.865980684 12.639322138 -6.521729994 19.654214849 -9.95703125 26.6796875 C-11.275619729 22.723922063 -10.224413371 21.454444198 -8.58203125 17.6796875 C-6.121964545 11.607888512 -5.100861744 6.204361726 -4.95703125 -0.3203125 C-5.94703125 0.1746875 -5.94703125 0.1746875 -6.95703125 0.6796875 C-6.904824219 1.692890625 -6.904824219 1.692890625 -6.8515625 2.7265625 C-6.824492187 3.61859375 -6.797421875 4.510625 -6.76953125 5.4296875 C-6.717324219 6.752265625 -6.717324219 6.752265625 -6.6640625 8.1015625 C-7.007794412 11.12640333 -7.959305835 12.435523517 -9.95703125 14.6796875 C-10.006015625 13.85984375 -10.055 13.04 -10.10546875 12.1953125 C-10.180234375 11.11765625 -10.255 10.04 -10.33203125 8.9296875 C-10.401640625 7.86234375 -10.47125 6.795 -10.54296875 5.6953125 C-10.929853553 2.877623183 -11.513892911 1.096650897 -12.95703125 -1.3203125 C-13.05172736 0.653424126 -13.05172736 0.653424126 -12.45703125 2.3671875 C-11.771283489 5.538770892 -11.780617325 8.445432202 -11.95703125 11.6796875 C-12.94703125 13.1646875 -12.94703125 13.1646875 -13.95703125 14.6796875 C-14.078203125 13.85984375 -14.199375 13.04 -14.32421875 12.1953125 C-14.491796875 11.11765625 -14.659375 10.04 -14.83203125 8.9296875 C-14.994453125 7.86234375 -15.156875 6.795 -15.32421875 5.6953125 C-15.894195704 2.979126026 -16.484426797 1.014038263 -17.95703125 -1.3203125 C-18.61703125 -1.6503125 -19.27703125 -1.9803125 -19.95703125 -2.3203125 C-19.62703125 -1.6809375 -19.29703125 -1.0415625 -18.95703125 -0.3828125 C-17.626461972 3.692055915 -17.79043926 7.431591747 -17.95703125 11.6796875 C-18.94703125 12.1746875 -18.94703125 12.1746875 -19.95703125 12.6796875 C-20.94703125 8.0596875 -21.93703125 3.4396875 -22.95703125 -1.3203125 C-23.94703125 -0.8253125 -23.94703125 -0.8253125 -24.95703125 -0.3203125 C-24.62703125 0.3396875 -24.29703125 0.9996875 -23.95703125 1.6796875 C-23.372356161 8.988126118 -23.711923128 15.064659405 -26.95703125 21.6796875 C-27.61703125 22.0096875 -28.27703125 22.3396875 -28.95703125 22.6796875 C-28.715332031 21.417050781 -28.715332031 21.417050781 -28.46875 20.12890625 C-27.936241756 16.539556789 -27.788970107 13.119478236 -27.76953125 9.4921875 C-27.755351563 8.281757813 -27.741171875 7.071328125 -27.7265625 5.82421875 C-27.709464616 2.517607482 -27.709464616 2.517607482 -29.95703125 -0.3203125 C-30.94703125 0.1746875 -30.94703125 0.1746875 -31.95703125 0.6796875 C-32.28703125 -0.3103125 -32.61703125 -1.3003125 -32.95703125 -2.3203125 C-22.091838011 -4.0760126 -9.923481534 -5.531120855 0 0 Z " fill="#2C2A26" transform="translate(160.95703125,40.3203125)" />
<path d="M0 0 C0.99 0.33 1.98 0.66 3 1 C3.864773307 10.416420458 1.513752914 17.403854479 -2 26 C-0.846227597 23.294810397 0.298147586 20.586257408 1.4375 17.875 C1.762988281 17.114453125 2.088476563 16.35390625 2.423828125 15.5703125 C4.176784058 11.37767563 5.48308031 7.557629945 6 3 C7.32 4.32 8.64 5.64 10 7 C9.5875 7.7425 9.175 8.485 8.75 9.25 C6.224491263 14.252682378 4.697402256 19.675154345 3 25 C5.225162108 22.774837892 6.249152967 19.290453853 7.5625 16.4375 C8.056533203 15.371123047 8.056533203 15.371123047 8.560546875 14.283203125 C9.375655651 12.523040697 10.18807909 10.761635185 11 9 C11.66 9 12.32 9 13 9 C12.524128838 15.027701382 9.802770427 19.766782892 7 25 C8.32 23.68 9.64 22.36 11 21 C9.588322528 26.261706942 7.251497676 29.721713584 4 34 C4.66 34 5.32 34 6 34 C6.277148437 34.638085937 6.554296875 35.276171875 6.83984375 35.93359375 C7.202070313 36.759882812 7.564296875 37.586171875 7.9375 38.4375 C8.297148437 39.261210938 8.656796875 40.084921875 9.02734375 40.93359375 C9.831223231 42.944101169 9.831223231 42.944101169 11 44 C11.127155223 46.782629426 11.185213153 49.529407299 11.1875 52.3125 C11.199746094 53.085292969 11.211992188 53.858085937 11.224609375 54.654296875 C11.242767173 61.693469742 11.242767173 61.693469742 9 65 C7.68 64.67 6.36 64.34 5 64 C5.495 63.195625 5.99 62.39125 6.5 61.5625 C8.381424433 57.094116972 8.923774172 53.774127022 8 49 C4.968763612 41.9746639 -0.21115435 35.774174263 -4.747558594 29.645751953 C-8 25.211453251 -8 25.211453251 -8 23 C-7.01 22.67 -6.02 22.34 -5 22 C0.124632696 15.114225927 0.64343155 8.321714707 0 0 Z " fill="#D8D7D3" transform="translate(153,39)" />
<path d="M0 0 C2 2 2 2 2.23046875 5.34375 C2.227783696 6.729238101 2.212778469 8.114739921 2.1875 9.5 C2.177832031 10.575078125 2.177832031 10.575078125 2.16796875 11.671875 C2.08899441 17.1605916 1.681144247 22.550846023 1 28 C3.64 28.33 6.28 28.66 9 29 C9.275859375 28.294882812 9.55171875 27.589765625 9.8359375 26.86328125 C11.026831548 23.934001596 12.308751357 21.062464142 13.625 18.1875 C14.294023438 16.723769531 14.294023438 16.723769531 14.9765625 15.23046875 C15.314296875 14.494414062 15.65203125 13.758359375 16 13 C16.99 13.33 17.98 13.66 19 14 C16.306801761 19.585075037 13.595260385 24.940003902 10 30 C12.844840342 29.728431145 12.844840342 29.728431145 16 28 C19.244733441 23.673688745 21.614977045 18.83754656 24 14 C24.71484375 15.640625 24.71484375 15.640625 25 18 C23.56640625 20.796875 23.56640625 20.796875 21.5625 23.75 C20.903789063 24.73484375 20.245078125 25.7196875 19.56640625 26.734375 C19.049492187 27.48203125 18.532578125 28.2296875 18 29 C19.65 29.33 21.3 29.66 23 30 C23 30.33 23 30.66 23 31 C20.06243881 31.026950103 17.125124454 31.046814744 14.1875 31.0625 C12.937431641 31.075068359 12.937431641 31.075068359 11.662109375 31.087890625 C10.458447266 31.092724609 10.458447266 31.092724609 9.23046875 31.09765625 C8.492077637 31.102893066 7.753686523 31.108129883 6.992919922 31.113525391 C5 31 5 31 2 30 C2.181757812 30.982265625 2.181757812 30.982265625 2.3671875 31.984375 C2.918754849 34.98829564 3.459445537 37.9940789 4 41 C4.19078125 42.029960937 4.3815625 43.059921875 4.578125 44.12109375 C7.253140704 59.120288945 7.253140704 59.120288945 4 64 C0.375 64.1875 0.375 64.1875 -3 64 C-1.125 60.125 -1.125 60.125 0 59 C-0.026740811 56.798442323 -0.026740811 56.798442323 -0.3125 54.25 C-0.391132813 53.38890625 -0.469765625 52.5278125 -0.55078125 51.640625 C-1.021419435 48.874090971 -1.871231678 46.561613009 -3 44 C-2.965195313 45.192382812 -2.930390625 46.384765625 -2.89453125 47.61328125 C-2.866392469 49.17967342 -2.839092403 50.746080814 -2.8125 52.3125 C-2.774794922 53.491025391 -2.774794922 53.491025391 -2.736328125 54.693359375 C-2.721826172 55.829345703 -2.721826172 55.829345703 -2.70703125 56.98828125 C-2.683465576 58.033026123 -2.683465576 58.033026123 -2.659423828 59.098876953 C-3.112167996 61.626130599 -3.949649725 62.489938804 -6 64 C-9.6875 64.1875 -9.6875 64.1875 -13 64 C-12.34 62.68 -11.68 61.36 -11 60 C-9.35 60.33 -7.7 60.66 -6 61 C-5.911622388 57.375158267 -5.859152939 53.750599828 -5.8125 50.125 C-5.774794922 48.605195313 -5.774794922 48.605195313 -5.736328125 47.0546875 C-5.670294217 40.187161117 -6.622088296 34.446544543 -9 28 C-5.100957854 31.489091264 -3.725137177 35.858971012 -1.8125 40.625 C-1.444472656 41.489960938 -1.076445312 42.354921875 -0.697265625 43.24609375 C1.667281687 49.098238675 2.576911365 53.684991721 2 60 C1.34 60.66 0.68 61.32 0 62 C0.99 62 1.98 62 3 62 C3.989526914 57.446801257 3.876988177 53.959128057 3.00390625 49.39453125 C2.775097656 48.164121094 2.546289062 46.933710937 2.310546875 45.666015625 C2.063691406 44.394355469 1.816835938 43.122695312 1.5625 41.8125 C1.082537914 39.277740018 0.604575285 36.742600366 0.12890625 34.20703125 C-0.086931152 33.087883301 -0.302768555 31.968735352 -0.525146484 30.815673828 C-1 28 -1 28 -1 25 C-2.65 25.66 -4.3 26.32 -6 27 C-5.67 25.68 -5.34 24.36 -5 23 C-3.35 23 -1.7 23 0 23 C0 22.34 0 21.68 0 21 C-3.715991908 20.799135573 -4.772084452 20.848056301 -8 23 C-7.25 21.0625 -7.25 21.0625 -6 19 C-4 18.1875 -4 18.1875 -2 18 C-1.34 18.33 -0.68 18.66 0 19 C-0.33 18.01 -0.66 17.02 -1 16 C-4.374627148 16.547236835 -6.082349995 17.054899997 -9 19 C-7.125 14.125 -7.125 14.125 -6 13 C-4.000416363 12.959192171 -1.99954746 12.957456437 0 13 C0.026881508 11.354254341 0.046341233 9.708385866 0.0625 8.0625 C0.074101563 7.145976562 0.085703125 6.229453125 0.09765625 5.28515625 C0.25949049 3.034066726 0.25949049 3.034066726 -1 2 C-5.570711751 2.344959377 -8.583251713 2.856591576 -12 6 C-10.959022624 3.255605099 -10.027158128 2.0212861 -7.6875 0.1875 C-4.535719533 -1.205147183 -3.213793453 -1.129170673 0 0 Z " fill="#34342C" transform="translate(104,41)" />
<path d="M0 0 C7.566099 0.11730386 13.813807049 1.64397747 19.625 6.625 C20.07875 7.2025 20.5325 7.78 21 8.375 C20.01 8.705 19.02 9.035 18 9.375 C16.781300713 11.879475158 16.781300713 11.879475158 16 14.375 C17.32 14.375 18.64 14.375 20 14.375 C20.33 15.695 20.66 17.015 21 18.375 C20.34 18.705 19.68 19.035 19 19.375 C18.01 19.045 17.02 18.715 16 18.375 C15.87625 19.2825 15.7525 20.19 15.625 21.125 C15 24.375 15 24.375 14.03125 26.28125 C12.909209105 28.55933303 12.386168218 30.64218294 11.875 33.125 C11.707421875 33.92421875 11.53984375 34.7234375 11.3671875 35.546875 C11.246015625 36.15015625 11.12484375 36.7534375 11 37.375 C10.855625 36.735625 10.71125 36.09625 10.5625 35.4375 C10.189928187 33.399548541 10.189928187 33.399548541 9 32.375 C9 28.605198156 10.253977985 26.638833608 12 23.3125 C14.20856506 19.530367647 14.20856506 19.530367647 15 15.375 C14.34 15.045 13.68 14.715 13 14.375 C12.9071875 15.86 12.9071875 15.86 12.8125 17.375 C12.175676944 22.093279914 9.692718362 25.549551405 7 29.375 C7 26.753862916 7.312924447 24.865648881 8 22.375 C6.68 23.695 5.36 25.015 4 26.375 C4.476037741 24.249296878 4.955925978 22.124455732 5.4375 20 C5.837753906 18.224960938 5.837753906 18.224960938 6.24609375 16.4140625 C7 13.375 7 13.375 8 11.375 C7.34 11.375 6.68 11.375 6 11.375 C5.939414062 12.001484375 5.878828125 12.62796875 5.81640625 13.2734375 C5.732617187 14.090703125 5.648828125 14.90796875 5.5625 15.75 C5.481289062 16.562109375 5.400078125 17.37421875 5.31640625 18.2109375 C5 20.375 5 20.375 4 22.375 C3.34 22.045 2.68 21.715 2 21.375 C2.644685033 18.937191015 3.290700487 16.499747992 3.9375 14.0625 C4.119902344 13.372207031 4.302304687 12.681914062 4.490234375 11.970703125 C5.259326096 9.076121557 6.052615762 6.217152713 7 3.375 C6.34 3.375 5.68 3.375 5 3.375 C4.67 5.025 4.34 6.675 4 8.375 C3.67 8.375 3.34 8.375 3 8.375 C3 6.725 3 5.075 3 3.375 C2.01 3.87 2.01 3.87 1 4.375 C0.344448808 6.902332351 0.344448808 6.902332351 0 9.375 C-2.97 8.88 -2.97 8.88 -6 8.375 C-5.67 7.715 -5.34 7.055 -5 6.375 C-4.34 6.705 -3.68 7.035 -3 7.375 C-3.33 6.715 -3.66 6.055 -4 5.375 C-4.66 5.375 -5.32 5.375 -6 5.375 C-6 4.715 -6 4.055 -6 3.375 C-6.66 3.045 -7.32 2.715 -8 2.375 C-5.295231106 -0.329768894 -3.777971127 0.044551546 0 0 Z " fill="#3C3B39" transform="translate(75,16.625)" />
<path d="M0 0 C4.263003088 4.032570489 5.91119496 8.186601082 6.1953125 13.98828125 C6.182147782 15.429817925 6.158486509 16.871292191 6.125 18.3125 C6.115976562 19.053066406 6.106953125 19.793632813 6.09765625 20.556640625 C6.074242133 22.371234673 6.038376154 24.185660712 6 26 C10.663883747 17.955870235 12.966899822 11.33425022 13 2 C16.9296875 5.625 16.9296875 5.625 17.5625 9 C17.090804732 17.106170537 12.164816817 25.212891113 8 32 C2.25 32.125 2.25 32.125 0 31 C0.010473633 30.222856445 0.020947266 29.445712891 0.031738281 28.645019531 C0.073202823 25.138378997 0.099295781 21.631789944 0.125 18.125 C0.141757813 16.901679687 0.158515625 15.678359375 0.17578125 14.41796875 C0.185449219 12.668066406 0.185449219 12.668066406 0.1953125 10.8828125 C0.211022949 9.26463623 0.211022949 9.26463623 0.227050781 7.613769531 C0.268399765 4.839559777 0.268399765 4.839559777 -2 3 C-5.755618671 3.326575537 -8.736025516 4.116937798 -12 6 C-9.486763917 0.200224424 -6.140730288 -0.754124772 0 0 Z " fill="#E0E0DB" transform="translate(105,38)" />
<path d="M0 0 C0.793417969 -0.020625 1.586835937 -0.04125 2.404296875 -0.0625 C8.22081167 -0.101569789 8.22081167 -0.101569789 11.36328125 1.765625 C11.841523438 2.25546875 12.319765625 2.7453125 12.8125 3.25 C11.8225 3.58 10.8325 3.91 9.8125 4.25 C9.864707031 5.263203125 9.864707031 5.263203125 9.91796875 6.296875 C9.945039063 7.18890625 9.972109375 8.0809375 10 9 C10.052207031 10.322578125 10.052207031 10.322578125 10.10546875 11.671875 C9.761736838 14.69671583 8.810225415 16.005836017 6.8125 18.25 C6.763515625 17.43015625 6.71453125 16.6103125 6.6640625 15.765625 C6.589296875 14.68796875 6.51453125 13.6103125 6.4375 12.5 C6.367890625 11.43265625 6.29828125 10.3653125 6.2265625 9.265625 C5.839677697 6.447935683 5.255638339 4.666963397 3.8125 2.25 C3.71780389 4.223736626 3.71780389 4.223736626 4.3125 5.9375 C4.998247761 9.109083392 4.988913925 12.015744702 4.8125 15.25 C3.8225 16.735 3.8225 16.735 2.8125 18.25 C2.691328125 17.43015625 2.57015625 16.6103125 2.4453125 15.765625 C2.277734375 14.68796875 2.11015625 13.6103125 1.9375 12.5 C1.775078125 11.43265625 1.61265625 10.3653125 1.4453125 9.265625 C0.875335546 6.549438526 0.285104453 4.584350763 -1.1875 2.25 C-1.8475 1.92 -2.5075 1.59 -3.1875 1.25 C-2.8575 1.889375 -2.5275 2.52875 -2.1875 3.1875 C-0.856930722 7.262368415 -1.02090801 11.001904247 -1.1875 15.25 C-2.1775 15.745 -2.1775 15.745 -3.1875 16.25 C-4.1775 11.63 -5.1675 7.01 -6.1875 2.25 C-7.1775 2.745 -7.1775 2.745 -8.1875 3.25 C-7.8575 3.91 -7.5275 4.57 -7.1875 5.25 C-6.602824911 12.558438618 -6.942391878 18.634971905 -10.1875 25.25 C-10.8475 25.58 -11.5075 25.91 -12.1875 26.25 C-11.945800781 24.987363281 -11.945800781 24.987363281 -11.69921875 23.69921875 C-11.166710506 20.109869289 -11.019438857 16.689790736 -11 13.0625 C-10.985820313 11.852070313 -10.971640625 10.641640625 -10.95703125 9.39453125 C-10.939933366 6.087919982 -10.939933366 6.087919982 -13.1875 3.25 C-14.1775 3.745 -14.1775 3.745 -15.1875 4.25 C-15.5175 3.26 -15.8475 2.27 -16.1875 1.25 C-10.7643102 0.352168845 -5.493754224 0.036232509 0 0 Z " fill="#21201E" transform="translate(144.1875,36.75)" />
<path d="M0 0 C0.33 0.99 0.66 1.98 1 3 C0.67 3.66 0.34 4.32 0 5 C0.554296875 4.699648438 1.10859375 4.399296875 1.6796875 4.08984375 C2.404140625 3.709570312 3.12859375 3.329296875 3.875 2.9375 C4.594296875 2.554648437 5.31359375 2.171796875 6.0546875 1.77734375 C7.017617188 1.392558594 7.017617188 1.392558594 8 1 C8.66 1.33 9.32 1.66 10 2 C7.36 3.65 4.72 5.3 2 7 C2.33 7 2.66 7 3 7 C3.99 7.33 4.98 7.66 6 8 C5.67 8.33 5.34 8.66 5 9 C5.051230404 16.51806183 5.869138147 22.690231755 11.1875 28.3125 C14.901144042 30.540686425 17.699536288 30.708443138 22 31 C22.495 32.485 22.495 32.485 23 34 C19.890466208 35.554766896 17.437332395 35.286444366 14 35 C6.899042339 31.377062418 1.962749611 25.450748834 -0.54296875 17.93359375 C-1.176808104 15.251965713 -1.205308798 12.737450638 -1 10 C-2.2375 10.061875 -3.475 10.12375 -4.75 10.1875 C-7.692575858 10.192717333 -8.856463266 10.078945204 -11.5 8.625 C-13 7 -13 7 -13 5 C-9.37 5.33 -5.74 5.66 -2 6 C-1.34 4.02 -0.68 2.04 0 0 Z " fill="#54524B" transform="translate(52,39)" />
<path d="M0 0 C1.65 0.33 3.3 0.66 5 1 C5 1.99 5 2.98 5 4 C3.35 4 1.7 4 0 4 C-0.33 4.66 -0.66 5.32 -1 6 C-0.071875 5.7215625 -0.071875 5.7215625 0.875 5.4375 C3 5 3 5 5 6 C5 6.66 5 7.32 5 8 C3.35 8.33 1.7 8.66 0 9 C-0.33 9.99 -0.66 10.98 -1 12 C0.65 11.34 2.3 10.68 4 10 C6.079120686 19.285393355 8.106113624 28.563898881 9.375 38 C9.547734375 39.27875 9.72046875 40.5575 9.8984375 41.875 C10 45 10 45 8 48 C6.68 47.67 5.36 47.34 4 47 C4.66 46.34 5.32 45.68 6 45 C7.281836155 38.017863008 4.87841246 32.105333668 2.125 25.8125 C1.397071043 24.090420718 0.670473663 22.367777869 -0.0546875 20.64453125 C-0.566485596 19.443044434 -0.566485596 19.443044434 -1.088623047 18.217285156 C-2.197292957 15.520006796 -3.114449472 12.777604827 -4 10 C-4.309375 9.34 -4.61875 8.68 -4.9375 8 C-5.047886614 4.467628338 -2.318235493 2.487862481 0 0 Z " fill="#DDDDD7" transform="translate(99,56)" />
<path d="M0 0 C4.031178303 1.343726101 4.801305971 3.453719308 7 7 C7.99 8.485 7.99 8.485 9 10 C10.394151219 18.555685901 7.809042846 25.447967075 4 33 C3.677734375 33.678046875 3.35546875 34.35609375 3.0234375 35.0546875 C2.125 36.6875 2.125 36.6875 0 39 C-3.75 39.875 -3.75 39.875 -7 40 C-6.6875 38.125 -6.6875 38.125 -6 36 C-5.01 35.34 -4.02 34.68 -3 34 C-2.656575511 32.669230106 -2.323801264 31.335680213 -2 30 C-0.5 28.375 -0.5 28.375 1 27 C3.398879002 22.202241995 3.571883894 15.505220415 2.39453125 10.34765625 C1.868113476 8.862317835 1.304528658 7.3891979 0.69140625 5.9375 C0 4 0 4 0 0 Z " fill="#B1AEA8" transform="translate(143,65)" />
<path d="M0 0 C3.604636373 3.364327281 5.739573151 5.82573863 6.3359375 10.8046875 C6.417277497 17.198011256 6.320537889 21.139394875 2 26 C4.31 26 6.62 26 9 26 C9 26.33 9 26.66 9 27 C6.36 27 3.72 27 1 27 C0.67 25.35 0.34 23.7 0 22 C-0.33 22.66 -0.66 23.32 -1 24 C-1.66 24 -2.32 24 -3 24 C-3.33 23.34 -3.66 22.68 -4 22 C-4.66 22.33 -5.32 22.66 -6 23 C-6.99 22.34 -7.98 21.68 -9 21 C-8.517890625 20.154375 -8.03578125 19.30875 -7.5390625 18.4375 C-4.173493253 12.393212372 -1.214450637 6.881886945 0 0 Z " fill="#EBE8DE" transform="translate(154,79)" />
<path d="M0 0 C0.66 0 1.32 0 2 0 C1.855625 0.770859375 1.71125 1.54171875 1.5625 2.3359375 C1.376875 3.338828125 1.19125 4.34171875 1 5.375 C0.814375 6.372734375 0.62875 7.37046875 0.4375 8.3984375 C-0.055279834 10.88903545 -0.055279834 10.88903545 0 13 C1.32 9.04 2.64 5.08 4 1 C4.33 1 4.66 1 5 1 C4.608396495 6.955073989 3.628754053 11.62819824 1 17 C1.817523033 15.419254358 2.628819969 13.835287766 3.4375 12.25 C4.116191406 10.927421875 4.116191406 10.927421875 4.80859375 9.578125 C5.834553979 7.358014339 6.515086025 5.385553807 7 3 C7.99 3.33 8.98 3.66 10 4 C8.56835889 7.659381717 7.010657037 11.239880682 5.375 14.8125 C4.928984375 15.788320312 4.48296875 16.764140625 4.0234375 17.76953125 C3.685703125 18.505585938 3.34796875 19.241640625 3 20 C3.66 19.67 4.32 19.34 5 19 C5 20.32 5 21.64 5 23 C5.268125 21.845 5.53625 20.69 5.8125 19.5 C6.883851221 15.183764864 8.374722371 11.137070328 10 7 C11.32 7.33 12.64 7.66 14 8 C13.21625 8.99 12.4325 9.98 11.625 11 C7.61519059 17.270296867 7.588386122 24.763728885 7 32 C3.495575188 28.721667112 1.020660867 25.69398167 -1.1875 21.4375 C-1.676054687 20.508085937 -2.164609375 19.578671875 -2.66796875 18.62109375 C-3.787427211 16.418288392 -4.901218917 14.213184647 -6 12 C-4.68 11.67 -3.36 11.34 -2 11 C-1.34 7.37 -0.68 3.74 0 0 Z " fill="#CFCECA" transform="translate(81,28)" />
<path d="M0 0 C0.99 0.33 1.98 0.66 3 1 C3.864773307 10.416420458 1.513752914 17.403854479 -2 26 C-0.846227597 23.294810397 0.298147586 20.586257408 1.4375 17.875 C1.762988281 17.114453125 2.088476563 16.35390625 2.423828125 15.5703125 C4.176784058 11.37767563 5.48308031 7.557629945 6 3 C7.32 4.32 8.64 5.64 10 7 C9.557851562 7.846914062 9.115703125 8.693828125 8.66015625 9.56640625 C7.011723249 12.975753564 5.695918861 16.367377527 4.4375 19.9375 C4.023710937 21.101523437 3.609921875 22.265546875 3.18359375 23.46484375 C2.014220979 26.957524798 0.983410266 30.451565721 0 34 C-0.66 34 -1.32 34 -2 34 C-3.5078125 32.1015625 -3.5078125 32.1015625 -5.125 29.625 C-5.663828125 28.812890625 -6.20265625 28.00078125 -6.7578125 27.1640625 C-8 25 -8 25 -8 23 C-7.01 22.67 -6.02 22.34 -5 22 C0.124632696 15.114225927 0.64343155 8.321714707 0 0 Z " fill="#E5E4E2" transform="translate(153,39)" />
<path d="M0 0 C0.66 0 1.32 0 2 0 C2.33 0.66 2.66 1.32 3 2 C3.33 1.34 3.66 0.68 4 0 C4.66 0 5.32 0 6 0 C4.765830133 6.824233384 3.108400499 13.393678436 1 20 C0.34 20 -0.32 20 -1 20 C-0.01 21.32 0.98 22.64 2 24 C1.67 24.66 1.34 25.32 1 26 C-0.32 24.68 -1.64 23.36 -3 22 C-3.663867188 22.204960938 -4.327734375 22.409921875 -5.01171875 22.62109375 C-5.894726562 22.890507813 -6.777734375 23.159921875 -7.6875 23.4375 C-8.557617188 23.704335938 -9.427734375 23.971171875 -10.32421875 24.24609375 C-12.870259207 24.963445295 -15.400342301 25.517541004 -18 26 C-16.610826579 23.221653158 -15.042364475 23.003570144 -12.1875 21.875 C-11.314804688 21.521796875 -10.442109375 21.16859375 -9.54296875 20.8046875 C-7 20 -7 20 -3 20 C-3.155976563 19.419921875 -3.311953125 18.83984375 -3.47265625 18.2421875 C-4.660561979 13.474830732 -5.24917875 9.871797125 -4 5 C-3.01 5.33 -2.02 5.66 -1 6 C-1.020625 5.195625 -1.04125 4.39125 -1.0625 3.5625 C-1 1 -1 1 0 0 Z " fill="#8B8A85" transform="translate(76,20)" />
<path d="M0 0 C5.071580851 4.386232087 7.665352198 9.040747739 8.237060547 15.8046875 C8.294137186 18.875360838 8.262430146 21.929785295 8.1875 25 C8.173964844 26.060898438 8.160429687 27.121796875 8.146484375 28.21484375 C8.111408792 30.810436872 8.062258436 33.40494067 8 36 C5.525 36.495 5.525 36.495 3 37 C2.67 36.34 2.34 35.68 2 35 C1.01 34.34 0.02 33.68 -1 33 C-0.360625 32.787304687 0.27875 32.574609375 0.9375 32.35546875 C3.247405926 31.154202374 3.247405926 31.154202374 3.75 28.48828125 C4.394367795 20.302796608 3.286693541 13.867115886 0.91015625 6.1171875 C0 3 0 3 0 0 Z " fill="#CFCDC7" transform="translate(91,66)" />
<path d="M0 0 C0.99 0 1.98 0 3 0 C5.736218135 5.47243627 5.874521854 10.249954004 4.0546875 15.97265625 C1.8008873 21.692205815 -0.387475308 26.848727778 -5 31 C-7.8125 31.375 -7.8125 31.375 -10 31 C-8.726809505 27.414963605 -7.025912824 24.38830282 -4.978515625 21.189941406 C-0.478933223 14.044365635 1.134963973 8.606810126 0 0 Z " fill="#DFDFD7" transform="translate(124,40)" />
<path d="M0 0 C5.413956104 0.066023855 9.10614892 0.685699397 13.8125 3.3125 C13.8125 3.9725 13.8125 4.6325 13.8125 5.3125 C11.3375 4.8175 11.3375 4.8175 8.8125 4.3125 C8.4825 6.2925 8.1525 8.2725 7.8125 10.3125 C7.1525 10.3125 6.4925 10.3125 5.8125 10.3125 C5.85375 11.364375 5.895 12.41625 5.9375 13.5 C5.821021255 17.05260173 5.340419318 19.161166408 3.8125 22.3125 C3.1525 21.9825 2.4925 21.6525 1.8125 21.3125 C2.457185033 18.874691015 3.103200487 16.437247992 3.75 14 C3.932402344 13.309707031 4.114804687 12.619414062 4.302734375 11.908203125 C5.071826096 9.013621557 5.865115762 6.154652713 6.8125 3.3125 C6.1525 3.3125 5.4925 3.3125 4.8125 3.3125 C4.4825 4.9625 4.1525 6.6125 3.8125 8.3125 C3.4825 8.3125 3.1525 8.3125 2.8125 8.3125 C2.8125 6.6625 2.8125 5.0125 2.8125 3.3125 C1.8225 3.8075 1.8225 3.8075 0.8125 4.3125 C0.156948808 6.839832351 0.156948808 6.839832351 -0.1875 9.3125 C-3.1575 8.8175 -3.1575 8.8175 -6.1875 8.3125 C-5.8575 7.6525 -5.5275 6.9925 -5.1875 6.3125 C-4.5275 6.6425 -3.8675 6.9725 -3.1875 7.3125 C-3.5175 6.6525 -3.8475 5.9925 -4.1875 5.3125 C-4.8475 5.3125 -5.5075 5.3125 -6.1875 5.3125 C-6.1875 4.6525 -6.1875 3.9925 -6.1875 3.3125 C-6.8475 2.9825 -7.5075 2.6525 -8.1875 2.3125 C-5.448034853 -0.426965147 -3.821293846 0.013192039 0 0 Z " fill="#1A1817" transform="translate(75.1875,16.6875)" />
<path d="M0 0 C2.779698699 2.254705903 3.898887411 3.458873319 4.56640625 7.03125 C4.556447053 15.875017069 3.583456416 25.416543584 -3 32 C-6.125 32.125 -6.125 32.125 -9 32 C-8.517890625 31.203359375 -8.03578125 30.40671875 -7.5390625 29.5859375 C-6.907421875 28.526328125 -6.27578125 27.46671875 -5.625 26.375 C-4.685273438 24.808789062 -4.685273438 24.808789062 -3.7265625 23.2109375 C-0.664110056 17.515607389 0.246971337 13.089480841 0.125 6.625 C0.106953125 5.379765625 0.08890625 4.13453125 0.0703125 2.8515625 C0.047109375 1.910546875 0.02390625 0.96953125 0 0 Z " fill="#E1E1DB" transform="translate(130,39)" />
<path d="M0 0 C3 1 3 1 4.6875 4.0625 C7.205917328 10.605055069 6.327461087 16.585651989 3.98828125 23.015625 C2.553248645 25.897034341 0.730815315 27.361510811 -2 29 C-2.99 29.33 -3.98 29.66 -5 30 C-3.989165636 27.468360782 -2.974908165 24.939559814 -1.9296875 22.421875 C1.131750327 14.666232505 2.104333988 8.154294203 0 0 Z " fill="#DEDDD8" transform="translate(141,38)" />
<path d="M0 0 C4.883133264 2.441566632 5.290443379 3.956807967 7 9 C7.1875 11.9375 7.1875 11.9375 7 14 C7.66 14 8.32 14 9 14 C7.260170047 19.812613705 5.188951102 24.831699938 2 30 C1.67 30 1.34 30 1 30 C1 23.4 1 16.8 1 10 C1.66 10 2.32 10 3 10 C2.01 6.7 1.02 3.4 0 0 Z " fill="#767571" transform="translate(109,36)" />
<path d="M0 0 C0.33 0 0.66 0 1 0 C1.042721001 1.666119052 1.040638321 3.333828849 1 5 C0.67 5.33 0.34 5.66 0 6 C-1.00642948 7.328486914 -2.006921793 8.661503286 -3 10 C-2.67 10.66 -2.34 11.32 -2 12 C-2.66 12 -3.32 12 -4 12 C-4.66 13.65 -5.32 15.3 -6 17 C-6.66 17 -7.32 17 -8 17 C-8 16.34 -8 15.68 -8 15 C-8.99 15 -9.98 15 -11 15 C-11.33 14.34 -11.66 13.68 -12 13 C-12.99 13.495 -12.99 13.495 -14 14 C-12.47970107 9.135043424 -9.673471807 4.541648656 -6 1 C-4.68 1 -3.36 1 -2 1 C-2 1.66 -2 2.32 -2 3 C-1.34 3 -0.68 3 0 3 C0 2.01 0 1.02 0 0 Z " fill="#9F9D98" transform="translate(71,19)" />
<path d="M0 0 C2 2 2 2 2.23046875 5.37890625 C2.227786823 6.773508473 2.212806265 8.168124819 2.1875 9.5625 C2.177832031 10.641445312 2.177832031 10.641445312 2.16796875 11.7421875 C2.093861584 16.883372164 1.727672826 21.906290215 1 27 C0.67 26.34 0.34 25.68 0 25 C-1.98 25.66 -3.96 26.32 -6 27 C-5.67 25.68 -5.34 24.36 -5 23 C-3.35 23 -1.7 23 0 23 C0 22.34 0 21.68 0 21 C-3.715991908 20.799135573 -4.772084452 20.848056301 -8 23 C-7.25 21.0625 -7.25 21.0625 -6 19 C-4 18.1875 -4 18.1875 -2 18 C-1.34 18.33 -0.68 18.66 0 19 C-0.33 18.01 -0.66 17.02 -1 16 C-4.374627148 16.547236835 -6.082349995 17.054899997 -9 19 C-7.125 14.125 -7.125 14.125 -6 13 C-4.000416363 12.959192171 -1.99954746 12.957456437 0 13 C0.026881508 11.354254341 0.046341233 9.708385866 0.0625 8.0625 C0.074101563 7.145976562 0.085703125 6.229453125 0.09765625 5.28515625 C0.25949049 3.034066726 0.25949049 3.034066726 -1 2 C-5.570711751 2.344959377 -8.583251713 2.856591576 -12 6 C-10.959022624 3.255605099 -10.027158128 2.0212861 -7.6875 0.1875 C-4.535719533 -1.205147183 -3.213793453 -1.129170673 0 0 Z " fill="#282724" transform="translate(104,41)" />
<path d="M0 0 C3.473700848 0.356785251 4.893216054 1.560001478 7.55078125 3.78125 C8.340976563 4.4309375 9.131171875 5.080625 9.9453125 5.75 C10.536992188 6.2553125 11.128671875 6.760625 11.73828125 7.28125 C11.40828125 9.26125 11.07828125 11.24125 10.73828125 13.28125 C9.66578125 12.765625 8.59328125 12.25 7.48828125 11.71875 C5.023505128 10.64884718 4.016958223 10.245522183 1.30078125 10.59375 C0.52734375 10.9340625 0.52734375 10.9340625 -0.26171875 11.28125 C-0.26171875 9.63125 -0.26171875 7.98125 -0.26171875 6.28125 C-1.58171875 6.28125 -2.90171875 6.28125 -4.26171875 6.28125 C-3.20586877 0.398657256 -3.20586877 0.398657256 0 0 Z " fill="#747271" transform="translate(95.26171875,24.71875)" />
<path d="M0 0 C3.899042146 3.489091264 5.274862823 7.858971012 7.1875 12.625 C7.555527344 13.489960938 7.923554688 14.354921875 8.302734375 15.24609375 C10.667281687 21.098238675 11.576911365 25.684991721 11 32 C10.34 32.66 9.68 33.32 9 34 C9.99 34.66 10.98 35.32 12 36 C10.02 36 8.04 36 6 36 C7.875 32.125 7.875 32.125 9 31 C8.973259189 28.798442323 8.973259189 28.798442323 8.6875 26.25 C8.608867187 25.38890625 8.530234375 24.5278125 8.44921875 23.640625 C7.978580565 20.874090971 7.128768322 18.561613009 6 16 C6.034804687 17.192382812 6.069609375 18.384765625 6.10546875 19.61328125 C6.133607531 21.17967342 6.160907597 22.746080814 6.1875 24.3125 C6.225205078 25.491025391 6.225205078 25.491025391 6.263671875 26.693359375 C6.278173828 27.829345703 6.278173828 27.829345703 6.29296875 28.98828125 C6.316534424 30.033026123 6.316534424 30.033026123 6.340576172 31.098876953 C5.887832004 33.626130599 5.050350275 34.489938804 3 36 C-0.6875 36.1875 -0.6875 36.1875 -4 36 C-3.34 34.68 -2.68 33.36 -2 32 C-0.35 32.33 1.3 32.66 3 33 C3.088377612 29.375158267 3.140847061 25.750599828 3.1875 22.125 C3.212636719 21.111796875 3.237773437 20.09859375 3.263671875 19.0546875 C3.329705783 12.187161117 2.377911704 6.446544543 0 0 Z " fill="#2E2D27" transform="translate(95,69)" />
</svg>