<?xml version='1.0' encoding='utf-8'?>
<svg xmlns="http://www.w3.org/2000/svg" version="1.1" width="152" height="143" viewBox="7.0 3.0 152.6875 143.4375">
<path d="M0 0 C0.66 0 1.32 0 2 0 C1.67 4.29 1.34 8.58 1 13 C2.11375 12.236875 3.2275 11.47375 4.375 10.6875 C5.001484375 10.258242188 5.62796875 9.828984375 6.2734375 9.38671875 C8.263788453 7.930796611 8.263788453 7.930796611 10 5 C10.66 5 11.32 5 12 5 C11.523893406 9.999119238 9.968377815 12.978326832 7 17 C8.458556472 20.686461413 10.302290446 22.161439709 13.625 24.25 C14.442265625 24.77078125 15.25953125 25.2915625 16.1015625 25.828125 C16.728046875 26.21484375 17.35453125 26.6015625 18 27 C17.67 28.32 17.34 29.64 17 31 C17.66 31.33 18.32 31.66 19 32 C12.333333333 32 5.666666667 32 -1 32 C0.32 32.66 1.64 33.32 3 34 C3.318060543 41.727693199 3.322708357 47.939244741 0 55 C-1.793259001 52.310111498 -3.467455495 49.587085367 -5.125 46.8125 C-5.663828125 45.911445312 -6.20265625 45.010390625 -6.7578125 44.08203125 C-7.167734375 43.394960938 -7.57765625 42.707890625 -8 42 C-7.4946875 42.906210937 -6.989375 43.812421875 -6.46875 44.74609375 C0.12594999 56.934467568 0.12594999 56.934467568 -0.35546875 62.890625 C-1.651022822 67.130620144 -4.269577066 70.562592556 -7 74 C-8.260416749 71.479166501 -7.662258911 70.649035643 -7 68 C-7.33 67.34 -7.66 66.68 -8 66 C-8.33 68.64 -8.66 71.28 -9 74 C-9.66 74 -10.32 74 -11 74 C-13.438518336 80.879339118 -15.193485756 87.734424367 -16.6875 94.875 C-17.024912109 96.392871094 -17.024912109 96.392871094 -17.369140625 97.94140625 C-18.748298468 104.489262028 -20.055279291 111.315876116 -19 118 C-17.577659646 120.277663226 -17.577659646 120.277663226 -16 122 C-20 122 -20 122 -21.76953125 120.518798828 C-23.543312598 116.887826177 -23.050358854 113.605803182 -22.6875 109.69921875 C-22.149311408 102.312696783 -21.901353662 94.988369167 -21.9375 87.58203125 C-21.942575684 86.136533966 -21.942575684 86.136533966 -21.947753906 84.661834717 C-21.960994027 81.712015393 -21.979614861 78.762278083 -22 75.8125 C-22.026776873 71.860679832 -22.046621799 67.908908496 -22.0625 63.95703125 C-22.07494751 62.631892624 -22.07494751 62.631892624 -22.087646484 61.279983521 C-22.108063979 56.094033281 -21.967072392 51.105053566 -21 46 C-19.581016741 44.774514458 -18.150933681 43.554272363 -16.625 42.46484375 C-11.34730507 37.707306253 -9.370264399 29.726752504 -8 23 C-8.598125 23.350625 -9.19625 23.70125 -9.8125 24.0625 C-12 25 -12 25 -15 24 C-13.719375153 22.292500203 -12.382324432 20.626264038 -11 19 C-10.34 19 -9.68 19 -9 19 C-9.680625 17.9275 -10.36125 16.855 -11.0625 15.75 C-13.034710018 12.338422671 -13.034710018 12.338422671 -12.75 9.5625 C-12.5025 9.046875 -12.255 8.53125 -12 8 C-8.311979563 9.229340146 -7.27643027 10.938593775 -5 14 C-4.806640625 13.240742188 -4.61328125 12.481484375 -4.4140625 11.69921875 C-4.153671875 10.705351562 -3.89328125 9.711484375 -3.625 8.6875 C-3.242148437 7.208300781 -3.242148437 7.208300781 -2.8515625 5.69921875 C-2 3 -2 3 0 0 Z " fill="#DCD8C8" transform="translate(128,13)" />
<path d="M0 0 C-0.617021277 21.531914894 -0.617021277 21.531914894 -4 32 C-13.257580871 35.02288355 -20.134331484 34.028512725 -29 30 C-31.264836042 27.735163958 -31.549428199 27.102801266 -32 24 C-31.858104684 20.658365319 -31.606825541 17.350084392 -31.31640625 14.01953125 C-30.992440731 9.823782703 -31.122315548 6.117372648 -32 2 C-32.66 2 -33.32 2 -34 2 C-33.505 2.7425 -33.505 2.7425 -33 3.5 C-31.563636422 7.090908944 -31.871485376 10.144561271 -32 14 C-32.33 14 -32.66 14 -33 14 C-33.12375 12.9171875 -33.12375 12.9171875 -33.25 11.8125 C-34.147146018 8.448202434 -35.820338381 6.671843275 -38 4 C-38 3.01 -38 2.02 -38 1 C-36.577358398 1.007855225 -36.577358398 1.007855225 -35.125976562 1.015869141 C-31.599928692 1.03293345 -28.073924851 1.045461096 -24.547851562 1.054931641 C-23.023104926 1.059953649 -21.498363087 1.066772496 -19.973632812 1.075439453 C-17.779284808 1.087598487 -15.585000602 1.093249684 -13.390625 1.09765625 C-12.070947266 1.102893066 -10.751269531 1.108129883 -9.391601562 1.113525391 C-6.150352766 1.005032683 -3.181401139 0 0 0 Z " fill="#E7E1D3" transform="translate(106,60)" />
<path d="M0 0 C0.495 0.99 0.495 0.99 1 2 C0.67 2.66 0.34 3.32 0 4 C-0.767533574 10.118339062 -0.297136982 14.897298853 2.4375 20.4375 C5.45270788 26.873321861 5.60862046 32.891284168 5.634521484 39.882568359 C5.700274271 45.404172239 6.558416768 49.042470595 9 54 C9.495 55.8253125 9.495 55.8253125 10 57.6875 C10.949626402 60.833137455 11.641199788 62.731922873 14 65 C15.32 65 16.64 65 18 65 C17.01 63.515 17.01 63.515 16 62 C17.32 62.66 18.64 63.32 20 64 C20 64.99 20 65.98 20 67 C16.8125 67.4375 16.8125 67.4375 13 67 C8.651068148 61.953091431 6.615257161 56.874760254 4.6875 50.5625 C4.423886719 49.735566406 4.160273438 48.908632813 3.888671875 48.056640625 C3.247949066 46.041276152 2.622372526 44.021106657 2 42 C1.34 42 0.68 42 0 42 C-1.271494543 45.916203192 -1.183788261 49.865722286 -1.1875 53.9375 C-1.205869141 54.992275391 -1.205869141 54.992275391 -1.224609375 56.068359375 C-1.236132715 60.166827345 -0.82416742 63.315614421 1 67 C-2.3125 67.3125 -2.3125 67.3125 -6 67 C-10.286923918 62.479243869 -9.332443511 56.496389934 -9.1875 50.6875 C-9.173964844 49.660761719 -9.160429687 48.634023437 -9.146484375 47.576171875 C-9.111238827 45.05024091 -9.061966995 42.525393399 -9 40 C-9.452460937 40.50015625 -9.904921875 41.0003125 -10.37109375 41.515625 C-11.177402344 42.250390625 -11.177402344 42.250390625 -12 43 C-14.324888813 42.718195295 -15.908928353 42.045535824 -18 41 C-17 40 -17 40 -14.4375 39.9375 C-13.633125 39.958125 -12.82875 39.97875 -12 40 C-12 39.34 -12 38.68 -12 38 C-11.34 38 -10.68 38 -10 38 C-10 36.68 -10 35.36 -10 34 C-11.030605469 34.524003906 -11.030605469 34.524003906 -12.08203125 35.05859375 C-13.433613281 35.741152344 -13.433613281 35.741152344 -14.8125 36.4375 C-15.705820312 36.889960938 -16.599140625 37.342421875 -17.51953125 37.80859375 C-21.392612586 39.668892659 -24.306083899 40.136335329 -28.5625 40.125 C-29.533164062 40.127578125 -30.503828125 40.13015625 -31.50390625 40.1328125 C-34 40 -34 40 -36 39 C-36 38.01 -36 37.02 -36 36 C-35.38125 36.165 -34.7625 36.33 -34.125 36.5 C-27.819598116 37.508864301 -22.228076626 38.3501983 -16.6875 34.625 C-9.425568693 28.342041324 -7.289576942 19.283123969 -4.9921875 10.296875 C-3.914803845 6.716907264 -2.706913384 2.706913384 0 0 Z " fill="#A5A298" transform="translate(53,69)" />
<path d="M0 0 C0.66 0 1.32 0 2 0 C1.67 4.29 1.34 8.58 1 13 C2.11375 12.236875 3.2275 11.47375 4.375 10.6875 C5.001484375 10.258242188 5.62796875 9.828984375 6.2734375 9.38671875 C8.263788453 7.930796611 8.263788453 7.930796611 10 5 C10.66 5 11.32 5 12 5 C11.523893406 9.999119238 9.968377815 12.978326832 7 17 C8.458556472 20.686461413 10.302290446 22.161439709 13.625 24.25 C14.442265625 24.77078125 15.25953125 25.2915625 16.1015625 25.828125 C16.728046875 26.21484375 17.35453125 26.6015625 18 27 C17.67 28.32 17.34 29.64 17 31 C17.66 31.33 18.32 31.66 19 32 C15.875019369 32.028959758 12.750073101 32.046784834 9.625 32.0625 C8.735546875 32.070878906 7.84609375 32.079257813 6.9296875 32.087890625 C5.653515625 32.092724609 5.653515625 32.092724609 4.3515625 32.09765625 C3.173278809 32.105511475 3.173278809 32.105511475 1.971191406 32.113525391 C0 32 0 32 -2 31 C-2 31.66 -2 32.32 -2 33 C-3.875 32.5 -3.875 32.5 -6 31 C-6.984945537 28.348223555 -7.459123821 25.794526926 -8 23 C-8.598125 23.350625 -9.19625 23.70125 -9.8125 24.0625 C-12 25 -12 25 -15 24 C-13.719375153 22.292500203 -12.382324432 20.626264038 -11 19 C-10.34 19 -9.68 19 -9 19 C-9.680625 17.9275 -10.36125 16.855 -11.0625 15.75 C-13.034710018 12.338422671 -13.034710018 12.338422671 -12.75 9.5625 C-12.5025 9.046875 -12.255 8.53125 -12 8 C-8.311979563 9.229340146 -7.27643027 10.938593775 -5 14 C-4.806640625 13.240742188 -4.61328125 12.481484375 -4.4140625 11.69921875 C-4.153671875 10.705351562 -3.89328125 9.711484375 -3.625 8.6875 C-3.369765625 7.701367188 -3.11453125 6.715234375 -2.8515625 5.69921875 C-2 3 -2 3 0 0 Z " fill="#D2CEC3" transform="translate(128,13)" />
<path d="M0 0 C3.890067728 1.387807946 6.965587078 3.215222696 10.3125 5.625 C11.195507813 6.256640625 12.078515625 6.88828125 12.98828125 7.5390625 C13.652148437 8.021171875 14.316015625 8.50328125 15 9 C14.6875 10.875 14.6875 10.875 14 13 C10.368045035 15.42130331 8.616506523 15.210227852 4.3125 15.125 C3.133007813 15.106953125 1.953515625 15.08890625 0.73828125 15.0703125 C-0.165351563 15.047109375 -1.068984375 15.02390625 -2 15 C-1.938125 16.051875 -1.87625 17.10375 -1.8125 18.1875 C-1.803612869 23.217616389 -3.004191278 27.834391501 -4.22265625 32.69140625 C-4.933054146 35.715059606 -5.39424702 38.675625001 -5.8125 41.75 C-6.811433474 47.508557676 -9.433792521 51.460363439 -13 56 C-13.78375 57.010625 -14.5675 58.02125 -15.375 59.0625 C-16.179375 60.0215625 -16.179375 60.0215625 -17 61 C-17.33 60.67 -17.66 60.34 -18 60 C-22.254774248 73.733043667 -22.446044132 85.668669762 -21 100 C-21.66 99.67 -22.32 99.34 -23 99 C-23.730756483 96.685937803 -24.401382577 94.351711307 -25 92 C-25.179421631 95.947275881 -25.093506894 98.598051297 -23 102 C-24.975585938 100.808105469 -24.975585938 100.808105469 -27 99 C-28.548352748 91.507710977 -26.348215631 83.211837837 -24.75 75.875 C-24.545039062 74.855351563 -24.340078125 73.835703125 -24.12890625 72.78515625 C-22.78681074 66.448838662 -20.905646425 60.791241337 -18 55 C-17.34 55 -16.68 55 -16 55 C-15.701092442 49.221120549 -16.168627876 46.170331705 -19 41 C-18.67 40.34 -18.34 39.68 -18 39 C-17.128551309 40.552927598 -16.278463433 42.117854356 -15.4375 43.6875 C-14.961835937 44.557617188 -14.486171875 45.427734375 -13.99609375 46.32421875 C-12.85731632 49.383287533 -13.07281311 50.918630395 -14 54 C-10.475075256 49.379830782 -8.126375021 45.433990956 -8.42578125 39.5078125 C-9.416488802 35.181048904 -11.536311374 31.455775454 -13.6875 27.6015625 C-15 25 -15 25 -15 22 C-11 28 -11 28 -7 34 C-5.371500309 29.644094322 -4.658815544 25.760653882 -4.375 21.125 C-4.300234375 19.972578125 -4.22546875 18.82015625 -4.1484375 17.6328125 C-4.099453125 16.763984375 -4.05046875 15.89515625 -4 15 C-4.951328125 14.816308594 -4.951328125 14.816308594 -5.921875 14.62890625 C-8 14 -8 14 -9.25 11.9375 C-9.4975 11.298125 -9.745 10.65875 -10 10 C-9.01 10.66 -8.02 11.32 -7 12 C-5.068623181 12.273568432 -5.068623181 12.273568432 -2.98828125 12.1953125 C-2.230957031 12.188867188 -1.473632812 12.182421875 -0.693359375 12.17578125 C0.092324219 12.159023437 0.878007813 12.142265625 1.6875 12.125 C2.883427734 12.111464844 2.883427734 12.111464844 4.103515625 12.09765625 C6.069139003 12.07411585 8.03460775 12.038245471 10 12 C9.69699784 8.760631453 9.455180535 7.388925524 6.93359375 5.234375 C6.109882812 4.74453125 5.286171875 4.2546875 4.4375 3.75 C2.948806542 2.848887579 1.466775639 1.936365863 0 1 C0 0.67 0 0.34 0 0 Z " fill="#504D43" transform="translate(135,32)" />
<path d="M0 0 C0.495 0.99 0.495 0.99 1 2 C0.67 2.66 0.34 3.32 0 4 C-0.767533574 10.118339062 -0.297136982 14.897298853 2.4375 20.4375 C5.45270788 26.873321861 5.60862046 32.891284168 5.634521484 39.882568359 C5.700274271 45.404172239 6.558416768 49.042470595 9 54 C9.495 55.8253125 9.495 55.8253125 10 57.6875 C10.949626402 60.833137455 11.641199788 62.731922873 14 65 C15.32 65 16.64 65 18 65 C17.01 63.515 17.01 63.515 16 62 C17.32 62.66 18.64 63.32 20 64 C20 64.99 20 65.98 20 67 C16.8125 67.4375 16.8125 67.4375 13 67 C8.647195787 61.957443735 6.682934837 56.948607091 4.8125 50.625 C4.325750108 49.010972942 3.832590313 47.398860446 3.33203125 45.7890625 C3.122961426 45.084750977 2.913891602 44.380439453 2.698486328 43.654785156 C2.122830016 41.790533629 2.122830016 41.790533629 0 41 C0.491132812 40.611992187 0.982265625 40.223984375 1.48828125 39.82421875 C3.507257527 37.387883036 3.30898805 35.930693279 3.1875 32.8125 C3.160429687 31.911445313 3.133359375 31.010390625 3.10546875 30.08203125 C3.070664063 29.394960938 3.035859375 28.707890625 3 28 C2.34 28 1.68 28 1 28 C0.34 24.7 -0.32 21.4 -1 18 C-1.670957031 19.446328125 -1.670957031 19.446328125 -2.35546875 20.921875 C-2.965491233 22.198229733 -3.576205125 23.474254174 -4.1875 24.75 C-4.479472656 25.38421875 -4.771445312 26.0184375 -5.072265625 26.671875 C-8.395465396 33.532674526 -13.218721559 36.562911408 -20.2265625 39.24609375 C-25.108605065 40.573184194 -31.346628108 41.326685946 -36 39 C-36 38.01 -36 37.02 -36 36 C-35.38125 36.165 -34.7625 36.33 -34.125 36.5 C-27.819598116 37.508864301 -22.228076626 38.3501983 -16.6875 34.625 C-9.425568693 28.342041324 -7.289576942 19.283123969 -4.9921875 10.296875 C-3.914803845 6.716907264 -2.706913384 2.706913384 0 0 Z " fill="#3D3A30" transform="translate(53,69)" />
<path d="M0 0 C2.875064208 -0.027123247 5.749869077 -0.046898514 8.625 -0.0625 C9.837363281 -0.075068359 9.837363281 -0.075068359 11.07421875 -0.087890625 C12.263378906 -0.092724609 12.263378906 -0.092724609 13.4765625 -0.09765625 C14.560583496 -0.105511475 14.560583496 -0.105511475 15.666503906 -0.113525391 C18.465713811 0.022657138 21.235610699 0.53926845 24 1 C24 10.9 24 20.8 24 31 C21.814701326 28.814701326 21.491500925 27.784029773 20.7109375 24.8671875 C20.491796875 24.061523438 20.27265625 23.255859375 20.046875 22.42578125 C19.82515625 21.584023438 19.6034375 20.742265625 19.375 19.875 C19.145546875 19.025507812 18.91609375 18.176015625 18.6796875 17.30078125 C18.113741338 15.202064233 17.554122051 13.101864101 17 11 C17.482592619 14.106689982 17.984780752 16.955293459 19 19.9375 C20.092922839 23.284576195 20.581222351 26.510186256 21 30 C18 29 18 29 16.90234375 26.83984375 C14.059520703 18.288355798 12.860799896 9.92513576 12 1 C11.01 1 10.02 1 9 1 C8.67 1.99 8.34 2.98 8 4 C8 3.01 8 2.02 8 1 C6.68 1 5.36 1 4 1 C4.495 1.7425 4.495 1.7425 5 2.5 C6.436363578 6.090908944 6.128514624 9.144561271 6 13 C5.67 13 5.34 13 5 13 C4.87625 11.9171875 4.87625 11.9171875 4.75 10.8125 C3.852853982 7.448202434 2.179661619 5.671843275 0 3 C0 2.01 0 1.02 0 0 Z " fill="#F2EDDF" transform="translate(68,61)" />
<path d="M0 0 C1.976778156 1.235486348 3.436724327 2.53039676 5 4.25 C5 3.26 5 2.27 5 1.25 C5 0.59 5 -0.07 5 -0.75 C5.66 -0.75 6.32 -0.75 7 -0.75 C9.026337403 5.843390164 9.026337403 10.656609836 7 17.25 C6.34 16.59 5.68 15.93 5 15.25 C3.324764297 15.537183263 1.659198956 15.881289121 0 16.25 C-1.11375 16.229375 -2.2275 16.20875 -3.375 16.1875 C-7.365396294 16.256299936 -10.231288815 17.019400429 -14 18.25 C-11.70802621 15.577251012 -9.997947794 14.740320222 -6.5625 14.0625 C-5.800664062 13.903945312 -5.038828125 13.745390625 -4.25390625 13.58203125 C-2 13.25 -2 13.25 2 13.25 C0.228611872 11.0180608 0.228611872 11.0180608 -2.05859375 11.203125 C-2.843632813 11.30109375 -3.628671875 11.3990625 -4.4375 11.5 C-5.219960937 11.58765625 -6.002421875 11.6753125 -6.80859375 11.765625 C-9.275534349 12.172208862 -9.275534349 12.172208862 -12 14.25 C-12.99 14.25 -13.98 14.25 -15 14.25 C-14.727777074 10.348138058 -14.276690353 8.571559059 -11.6875 5.5625 C-3.637647059 -1.364117647 -3.637647059 -1.364117647 0 0 Z " fill="#D1CDBD" transform="translate(67,62.75)" />
<path d="M0 0 C1.32 0 2.64 0 4 0 C4 4.62 4 9.24 4 14 C4.66 14 5.32 14 6 14 C6 10.7 6 7.4 6 4 C6.99 4 7.98 4 9 4 C10.711850501 10.134130962 9.092297417 14.395984529 7.125 20.33203125 C4.245307126 29.721029891 1.257009894 41.225584893 3 51 C4.430178302 53.262867517 4.430178302 53.262867517 6 55 C2 55 2 55 0.23046875 53.484375 C-1.492439297 50.005741611 -1.052274438 46.997522108 -0.6875 43.25 C0.037430383 33.762196087 0.09655159 24.321176471 0.0625 14.8125 C0.059433441 13.714400024 0.059433441 13.714400024 0.056304932 12.594116211 C0.044241467 8.396030579 0.025272943 4.198030258 0 0 Z " fill="#EDEBE0" transform="translate(106,80)" />
<path d="M0 0 C0.66 0.99 1.32 1.98 2 3 C1.01 3 0.02 3 -1 3 C-2.339814864 3.306243398 -3.675118871 3.634515551 -5 4 C-3.68 4.33 -2.36 4.66 -1 5 C-2 7 -3 9 -4 11 C-4.899803204 21.936069705 -2.820607371 30.767312445 3 40 C0.8125 40.4375 0.8125 40.4375 -2 40 C-6.155098326 35.449178024 -7.864432587 31.049566982 -9.421875 25.13671875 C-9.932346298 22.97023346 -9.932346298 22.97023346 -11 21 C-11.083421588 19.551514182 -11.107328609 18.099291308 -11.09765625 16.6484375 C-11.094433594 15.79765625 -11.091210938 14.946875 -11.087890625 14.0703125 C-11.079511719 13.180859375 -11.071132812 12.29140625 -11.0625 11.375 C-11.057988281 10.4778125 -11.053476563 9.580625 -11.048828125 8.65625 C-11.03702591 6.437433517 -11.020561554 4.218749816 -11 2 C-7.113007901 0.343573825 -4.265738665 -0.473970963 0 0 Z " fill="#DEDBCF" transform="translate(69,95)" />
<path d="M0 0 C1.732774266 5.198322798 -0.983924131 10.090187474 -3 15 C-6.104442015 20.666360183 -10.019784489 24.974798596 -16.203613281 27.102050781 C-20.115895096 28.027412358 -23.357393354 28.170259956 -27.3671875 28.0546875 C-28.76170879 28.029392735 -30.156240571 28.004670976 -31.55078125 27.98046875 C-33.712098319 27.931002848 -35.872843163 27.875066837 -38.033691406 27.808105469 C-46.423694902 27.565221848 -53.597456533 27.467310115 -61 32 C-62.010625 32.5775 -63.02125 33.155 -64.0625 33.75 C-64.701875 34.1625 -65.34125 34.575 -66 35 C-66 34.34 -66 33.68 -66 33 C-64.27734375 31.5625 -64.27734375 31.5625 -61.9375 30 C-61.183398438 29.484375 -60.429296875 28.96875 -59.65234375 28.4375 C-53.976325194 25.361248412 -48.653019178 24.766605884 -42.2734375 24.91015625 C-40.815107286 24.930562665 -39.356773824 24.950738128 -37.8984375 24.970703125 C-35.629408179 25.014262582 -33.360611019 25.06284003 -31.091796875 25.116455078 C-28.881518946 25.164846625 -26.671553689 25.194623472 -24.4609375 25.22265625 C-23.149155273 25.251096191 -21.837373047 25.279536133 -20.485839844 25.308837891 C-16.802318359 24.982485833 -14.953509902 24.158225063 -12 22 C-12.99 21.67 -13.98 21.34 -15 21 C-15 21.66 -15 22.32 -15 23 C-15.66 22.67 -16.32 22.34 -17 22 C-13.679977802 15.854766605 -9.742818957 11.056737453 -4 7 C-3.34 7 -2.68 7 -2 7 C-2 6.34 -2 5.68 -2 5 C-4.64 5.66 -7.28 6.32 -10 7 C-7.415525818 3.123288726 -5.371172859 3.192138052 -1 2 C-0.67 1.34 -0.34 0.68 0 0 Z " fill="#5D5A50" transform="translate(120,34)" />
<path d="M0 0 C0.66 0 1.32 0 2 0 C1.67 4.29 1.34 8.58 1 13 C2.11375 12.236875 3.2275 11.47375 4.375 10.6875 C5.001484375 10.258242188 5.62796875 9.828984375 6.2734375 9.38671875 C8.263788453 7.930796611 8.263788453 7.930796611 10 5 C10.66 5 11.32 5 12 5 C11.521961081 10.01940865 9.946806547 12.948140997 7 17 C6.67 17.66 6.34 18.32 6 19 C5.13375 18.835 4.2675 18.67 3.375 18.5 C0.187748013 18.02781452 -2.784850265 17.923448816 -6 18 C-6.33 18.66 -6.66 19.32 -7 20 C-9.0625 20.625 -9.0625 20.625 -11 21 C-11 21.66 -11 22.32 -11 23 C-11.66 23 -12.32 23 -13 23 C-12.34 21.68 -11.68 20.36 -11 19 C-10.34 19 -9.68 19 -9 19 C-9.680625 17.9275 -10.36125 16.855 -11.0625 15.75 C-13.034710018 12.338422671 -13.034710018 12.338422671 -12.75 9.5625 C-12.5025 9.046875 -12.255 8.53125 -12 8 C-8.311979563 9.229340146 -7.27643027 10.938593775 -5 14 C-4.806640625 13.240742188 -4.61328125 12.481484375 -4.4140625 11.69921875 C-4.153671875 10.705351562 -3.89328125 9.711484375 -3.625 8.6875 C-3.369765625 7.701367188 -3.11453125 6.715234375 -2.8515625 5.69921875 C-2 3 -2 3 0 0 Z " fill="#64615C" transform="translate(128,13)" />
<path d="M0 0 C1.98 0 3.96 0 6 0 C7.856947261 9.64374611 9.585246989 19.279814608 11 29 C10.34 29 9.68 29 9 29 C7.68 25.37 6.36 21.74 5 18 C5.99 21.63 6.98 25.26 8 29 C3 28 3 28 1 26 C-0.774868522 21.583958081 0.280283058 16.644732593 0.68359375 12.01953125 C1.007559269 7.823782703 0.877684452 4.117372648 0 0 Z " fill="#E7E3D3" transform="translate(74,62)" />
<path d="M0 0 C0.33 0 0.66 0 1 0 C0.989526367 1.190771484 0.979052734 2.381542969 0.968261719 3.608398438 C0.932044438 8.028940738 0.909093182 12.449469932 0.890136719 16.870117188 C0.880083096 18.782900044 0.866438268 20.69566755 0.849121094 22.608398438 C0.824844775 25.358762519 0.813510497 28.108923275 0.8046875 30.859375 C0.794364929 31.71368103 0.784042358 32.567987061 0.773406982 33.448181152 C0.77325592 34.248709106 0.773104858 35.049237061 0.772949219 35.874023438 C0.768507996 36.575736694 0.764066772 37.277449951 0.759490967 38.000427246 C1.040742089 40.338726451 1.847148986 41.962676748 3 44 C0.625 43.75 0.625 43.75 -2 43 C-4.753850797 38.668422185 -4.709717567 33.995558143 -5 29 C-5.065742188 28.00484375 -5.131484375 27.0096875 -5.19921875 25.984375 C-5.516553297 17.099007685 -3.793829274 9.39270802 -1 1 C-0.67 0.67 -0.34 0.34 0 0 Z " fill="#BAB6AF" transform="translate(117,91)" />
<path d="M0 0 C1.76953125 0.1328125 1.76953125 0.1328125 4 1 C5.88671875 3.6171875 5.88671875 3.6171875 7.6875 6.875 C8.289492188 7.944921875 8.891484375 9.01484375 9.51171875 10.1171875 C12.079066653 15.090160603 12.959571695 19.475979163 12 25 C10.312830931 28.261204352 8.280799743 31.128636038 6 34 C5 32 5 32 5.5546875 30.16015625 C6.143548928 27.303661779 5.371157592 26.045836752 4.125 23.4375 C1.770858078 17.990502656 1.223881897 12.888093898 1 7 C1.66 7.33 2.32 7.66 3 8 C2.094561514 5.283684541 1.075251941 2.652288121 0 0 Z " fill="#EAE6DA" transform="translate(115,53)" />
<path d="M0 0 C1.095703125 0.009023438 2.19140625 0.018046875 3.3203125 0.02734375 C4.163359375 0.038945313 5.00640625 0.050546875 5.875 0.0625 C7.908422933 4.248958981 7.859845769 5.138271154 6.875 10.0625 C-1.045 11.5475 -1.045 11.5475 -9.125 13.0625 C-10.115 10.7525 -11.105 8.4425 -12.125 6.0625 C-8.495 5.0725 -4.865 4.0825 -1.125 3.0625 C-4.425 3.0625 -7.725 3.0625 -11.125 3.0625 C-6.925624866 0.262916577 -5.027945624 -0.053488783 0 0 Z " fill="#DDD7C8" transform="translate(67.125,83.9375)" />
<path d="M0 0 C0.33 0 0.66 0 1 0 C1.025056152 0.862785645 1.050112305 1.725571289 1.075927734 2.614501953 C1.171113846 5.818237686 1.270344437 9.021815368 1.372314453 12.225341797 C1.415602184 13.611359825 1.457281636 14.997429062 1.497314453 16.383544922 C1.555165839 18.376917984 1.619297763 20.37010565 1.68359375 22.36328125 C1.720251465 23.562512207 1.75690918 24.761743164 1.794677734 25.997314453 C1.877330248 29.049943486 1.877330248 29.049943486 3 32 C-2.19209404 32.211922206 -6.126738996 31.591268899 -11 30 C-11.185625 28.9790625 -11.185625 28.9790625 -11.375 27.9375 C-11.978849638 24.868288949 -11.978849638 24.868288949 -13.125 21.4375 C-13.974020105 18.102063871 -13.96641314 17.110216938 -13 14 C-12.327796492 15.935585994 -11.662419228 17.873543719 -11 19.8125 C-10.62875 20.891445312 -10.2575 21.970390625 -9.875 23.08203125 C-9 26 -9 26 -9 29 C-8.67 28.67 -8.34 28.34 -8 28 C-8.101837096 26.08575543 -8.101837096 26.08575543 -8.4375 23.9375 C-8.623125 22.638125 -8.80875 21.33875 -9 20 C-7 23 -7 23 -6 25.625 C-5.239527381 28.151399382 -5.239527381 28.151399382 -3 29 C-3 28.34 -3 27.68 -3 27 C-3.66 26.67 -4.32 26.34 -5 26 C-5.240511077 24.17898756 -5.469291188 22.355791946 -5.64453125 20.52734375 C-6.210622831 16.502494816 -7.373399365 12.640989405 -8.4765625 8.734375 C-8.995951921 6.021146683 -8.916825742 4.567112077 -8 2 C-6.124213497 3.875786503 -6.124824954 6.984751843 -5.625 9.5 C-4.44412162 15.189157909 -2.976443479 20.541251345 -1 26 C-1.011601563 24.961015625 -1.023203125 23.92203125 -1.03515625 22.8515625 C-1.094133801 15.169736506 -1.027206647 7.630677949 0 0 Z " fill="#D0CBBD" transform="translate(92,62)" />
<path d="M0 0 C2.439331046 2.439331046 2.376081726 3.315890284 2.5 6.6875 C2.44651839 10.799641603 1.801216596 12.863832454 -0.9375 15.9375 C-1.482773438 16.462148438 -2.028046875 16.986796875 -2.58984375 17.52734375 C-5.677992759 20.752363629 -5.165439268 24.732724514 -5.1875 28.9375 C-5.201679687 30.163398438 -5.215859375 31.389296875 -5.23046875 32.65234375 C-5.01676797 35.756438125 -4.639981822 37.413625506 -3 40 C-4.32 40 -5.64 40 -7 40 C-10.117875378 34.836331115 -9.15064286 29.264497869 -8.9375 23.4375 C-8.922675781 22.288300781 -8.907851562 21.139101563 -8.892578125 19.955078125 C-8.854550781 18.854863281 -8.816523438 17.754648437 -8.77734375 16.62109375 C-8.748903809 15.614899902 -8.720463867 14.608706055 -8.691162109 13.572021484 C-8 11 -8 11 -5.576416016 9.148681641 C-3 8 -3 8 -1 8 C-1.020625 7.05125 -1.04125 6.1025 -1.0625 5.125 C-1 2 -1 2 0 0 Z " fill="#E9E6DA" transform="translate(55,95)" />
<path d="M0 0 C0.33 0 0.66 0 1 0 C1.509088526 7.636327883 -0.11967178 14.724589553 -3.9375 21.375 C-8.573367546 26.164004311 -15.666495684 28.636945074 -22.15625 29.34375 C-29.164948454 29.417525773 -29.164948454 29.417525773 -32 28 C-32 27.01 -32 26.02 -32 25 C-31.38125 25.165 -30.7625 25.33 -30.125 25.5 C-23.819598116 26.508864301 -18.228076626 27.3501983 -12.6875 23.625 C-8.887820458 20.41638172 -6.964810395 16.688023988 -5.0078125 12.171875 C-4 10 -4 10 -2 8 C-1.32707499 6.033096256 -1.32707499 6.033096256 -0.875 3.875 C-0.58625 2.59625 -0.2975 1.3175 0 0 Z " fill="#6A685E" transform="translate(49,80)" />
<path d="M0 0 C3.498443863 0.633892351 5.840868758 2.051776935 8.75 4.0625 C9.948828125 4.884277344 9.948828125 4.884277344 11.171875 5.72265625 C12.076796875 6.354941406 12.076796875 6.354941406 13 7 C12.67 8.32 12.34 9.64 12 11 C12.66 11.33 13.32 11.66 14 12 C9.38 12 4.76 12 0 12 C-2.215384615 4.615384615 -2.215384615 4.615384615 -1.125 1.5 C-0.75375 1.005 -0.3825 0.51 0 0 Z " fill="#E2DFD1" transform="translate(133,33)" />
<path d="M0 0 C0.33 0 0.66 0 1 0 C1.09796875 0.810820312 1.1959375 1.621640625 1.296875 2.45703125 C2.470688476 11.149322424 4.066140001 19.599210002 9 27 C6.8125 27.4375 6.8125 27.4375 4 27 C-0.664087823 21.891713337 -2.292493273 16.599282754 -4 10 C-4.33 9.01 -4.66 8.02 -5 7 C-4.01 6.67 -3.02 6.34 -2 6 C-0.774797361 2.991525816 -0.774797361 2.991525816 0 0 Z " fill="#B4B2A6" transform="translate(63,108)" />
<path d="M0 0 C2 3 2 3 2.875 5.125 C3.832835408 7.171943827 3.832835408 7.171943827 5.9375 7.6875 C6.618125 7.790625 7.29875 7.89375 8 8 C8.99 8.33 9.98 8.66 11 9 C11 13.29 11 17.58 11 22 C10.34 21.01 9.68 20.02 9 19 C8.063569735 17.77461411 7.103805789 16.566810157 6.125 15.375 C5.632578125 14.763984375 5.14015625 14.15296875 4.6328125 13.5234375 C2.751384502 11.768038172 1.473390545 11.530727526 -1 11 C-1.66 10.34 -2.32 9.68 -3 9 C-2.01 6.03 -1.02 3.06 0 0 Z " fill="#DDD9CC" transform="translate(120,38)" />
</svg>