<?xml version='1.0' encoding='utf-8'?>
<svg xmlns="http://www.w3.org/2000/svg" version="1.1" width="189" height="120" viewBox="2.0 16.0 189.351195454 120.3125">
<path d="M0 0 C0.66 0 1.32 0 2 0 C2.495 2.97 2.495 2.97 3 6 C6.433385164 4.793675483 8.503645846 3.615228162 11 1 C11.66 1 12.32 1 13 1 C12.439025683 4.365845903 11.56149386 6.981111871 10 10 C10 10.66 10 11.32 10 12 C10.61875 12.268125 11.2375 12.53625 11.875 12.8125 C14 14 14 14 16 17 C16.12375 18.0725 16.2475 19.145 16.375 20.25 C16.942945825 23.657674951 17.339438983 24.784968864 19.125 27.5 C21.351195454 31.655564848 21.315156812 33.528466839 20 38 C16.481754887 40.345496742 15.142243058 40.579914028 11 40 C10.278125 39.175 9.55625 38.35 8.8125 37.5 C5.048485524 34.154209354 2.554911302 34.473649226 -2.328125 34.69140625 C-5.421035005 35.048628312 -8.141195261 35.763760113 -11 37 C-10.67 35.02 -10.34 33.04 -10 31 C-9.505 32.485 -9.505 32.485 -9 34 C-7.68 33.34 -6.36 32.68 -5 32 C-5.61875 31.154375 -6.2375 30.30875 -6.875 29.4375 C-10.516608181 23.936347216 -11.266194529 18.521765962 -11 12 C-11.99 12 -12.98 12 -14 12 C-13.528203125 13.046074219 -13.528203125 13.046074219 -13.046875 14.11328125 C-11.923092156 17.212070511 -11.527019754 19.908074976 -11.25 23.1875 C-11.103046875 24.755644531 -11.103046875 24.755644531 -10.953125 26.35546875 C-11 29 -11 29 -13 31 C-13.66 30.34 -14.32 29.68 -15 29 C-14.814375 29.598125 -14.62875 30.19625 -14.4375 30.8125 C-14 33 -14 33 -15 36 C-15.66 36 -16.32 36 -17 36 C-17 36.66 -17 37.32 -17 38 C-17.66 38 -18.32 38 -19 38 C-20.69140625 35.76953125 -20.69140625 35.76953125 -22.5625 32.8125 C-23.182539062 31.849570312 -23.802578125 30.886640625 -24.44140625 29.89453125 C-25.924840354 27.1395822 -26.695071784 25.097428724 -27 22 C-26.67 21.34 -26.34 20.68 -26 20 C-27.98 19.67 -29.96 19.34 -32 19 C-32 19.66 -32 20.32 -32 21 C-31.01 21.33 -30.02 21.66 -29 22 C-27.8125 25.0625 -27.8125 25.0625 -27 28 C-27.99 27.01 -28.98 26.02 -30 25 C-29.855625 25.834023438 -29.71125 26.668046875 -29.5625 27.52734375 C-27.988744207 37.068238247 -27.611510325 45.454133486 -29 55 C-23.627759476 48.782567051 -23.627759476 48.782567051 -22 41 C-22.811888324 37.919898673 -23.834557455 34.962989521 -25 32 C-22.560091958 34.174108004 -21.424192083 35.97833646 -20.375 39.0625 C-19.660224458 41.126126162 -18.977578724 43.044842552 -18 45 C-18.433125 45.391875 -18.86625 45.78375 -19.3125 46.1875 C-22.129342513 49.212997514 -24 51.499857663 -24 55.75 C-22.199834679 61.600537293 -19.319539689 66.723478711 -15.125 71.1875 C-13 74 -13 74 -12.875 77 C-14.839939712 82.239839233 -17.902000294 85.520929217 -22.5625 88.4375 C-26 90 -26 90 -28.4375 89.75 C-29.2109375 89.37875 -29.2109375 89.37875 -30 89 C-29.665228752 85.87546835 -29.025594486 85.022900329 -26.625 82.875 C-24.772254188 81.551610135 -22.894450397 80.262966932 -21 79 C-21 77.68 -21 76.36 -21 75 C-23.334857178 73.20120697 -25.485506393 71.741178969 -28 70.25 C-31.465 68.14625 -31.465 68.14625 -35 66 C-35.66 74.58 -36.32 83.16 -37 92 C-35.35 92.66 -33.7 93.32 -32 94 C-31.1875 96.625 -31.1875 96.625 -31 99 C-32.2375 99.103125 -33.475 99.20625 -34.75 99.3125 C-35.44609375 99.370507812 -36.1421875 99.428515625 -36.859375 99.48828125 C-39 99 -39 99 -41.25 97.25 C-43.96703343 92.204080773 -43.421062926 87.316128191 -43.25 81.6875 C-43.231953125 80.565371094 -43.21390625 79.443242188 -43.1953125 78.287109375 C-43.148278562 75.52386553 -43.082563166 72.76237302 -43 70 C-42.67 70 -42.34 70 -42 70 C-42 72.64 -42 75.28 -42 78 C-41.01 78.33 -40.02 78.66 -39 79 C-39.66 79 -40.32 79 -41 79 C-40.858605195 81.250283287 -40.711719965 83.500222064 -40.5625 85.75 C-40.481289062 87.00296875 -40.400078125 88.2559375 -40.31640625 89.546875 C-40.074844776 92.183175528 -39.757160655 94.480372945 -39 97 C-38.34 97 -37.68 97 -37 97 C-37.33 96.030625 -37.66 95.06125 -38 94.0625 C-40.047705203 86.763893597 -38.976489721 79.888326174 -37.4375 72.578125 C-36.553390757 67.379325799 -36.553390757 67.379325799 -38.5 62.6875 C-38.995 62.130625 -39.49 61.57375 -40 61 C-38.35 61.33 -36.7 61.66 -35 62 C-31.540203645 53.77742759 -31.540203645 53.77742759 -31 45 C-33.771197842 46.705825797 -33.771197842 46.705825797 -35 48 C-34.01 48.66 -33.02 49.32 -32 50 C-35.3 50 -38.6 50 -42 50 C-43.230102946 44.962062455 -42.568190809 41.07696155 -41.1875 36.1875 C-40.810348274 34.774966167 -40.434041067 33.362206565 -40.05859375 31.94921875 C-39.875385742 31.272944336 -39.692177734 30.596669922 -39.503417969 29.899902344 C-38.547668104 26.292896791 -37.781672209 22.647803642 -37 19 C-37.66 19 -38.32 19 -39 19 C-39.33 21.31 -39.66 23.62 -40 26 C-40.66 26 -41.32 26 -42 26 C-42 24.35 -42 22.7 -42 21 C-42.99 23.97 -43.98 26.94 -45 30 C-46.416871186 25.749386441 -45.193200389 23.28148375 -44 19 C-45.98 19 -47.96 19 -50 19 C-50.33 19.66 -50.66 20.32 -51 21 C-51 20.34 -51 19.68 -51 19 C-51.99 18.67 -52.98 18.34 -54 18 C-53.34515625 17.913632812 -52.6903125 17.827265625 -52.015625 17.73828125 C-44.421227103 16.569087223 -37.996374076 14.099659401 -31 11 C-23.040113479 7.473467997 -15.870196518 5.340711771 -7.204101562 4.807861328 C-5.011628328 4.673828495 -5.011628328 4.673828495 -2 4 C-0.462081099 2.071971466 -0.462081099 2.071971466 0 0 Z " fill="#444237" transform="translate(160,26)" />
<path d="M0 0 C-0.2784375 1.4540625 -0.2784375 1.4540625 -0.5625 2.9375 C-0.706875 3.948125 -0.85125 4.95875 -1 6 C-0.505 6.495 -0.505 6.495 0 7 C-0.125013116 14.173829568 -0.577211098 21.216191074 -3 28 C-5.539039956 27.649787592 -6.820932982 27.159881266 -8.75 25.4375 C-10.584610549 21.860009429 -10.199685828 18.993716569 -10 15 C-10.99 14.505 -10.99 14.505 -12 14 C-12.33 15.65 -12.66 17.3 -13 19 C-13.33 19 -13.66 19 -14 19 C-14.403682947 12.541072855 -13.591526204 7.938914217 -11 2 C-11.99 2 -12.98 2 -14 2 C-14.060585937 3.0621875 -14.121171875 4.124375 -14.18359375 5.21875 C-15.002021114 19.156716207 -15.002021114 19.156716207 -16 26 C-16.33 26 -16.66 26 -17 26 C-17.103125 25.21625 -17.20625 24.4325 -17.3125 23.625 C-17.775950216 20.669548195 -17.775950216 20.669548195 -21 19 C-21.99 19.66 -22.98 20.32 -24 21 C-24.66 21 -25.32 21 -26 21 C-26.33 20.67 -26.66 20.34 -27 20 C-28.073108581 23.271855534 -27.89263102 25.429475921 -27.0625 28.75 C-26.867851562 29.54921875 -26.673203125 30.3484375 -26.47265625 31.171875 C-26.316679687 31.77515625 -26.160703125 32.3784375 -26 33 C-27.65 33.33 -29.3 33.66 -31 34 C-31 34.66 -31 35.32 -31 36 C-33.053039233 35.486740192 -35.094365824 34.972245346 -37.125 34.375 C-39.080396985 33.784389904 -39.080396985 33.784389904 -41 35 C-42.85715944 30.841577776 -43.789900509 26.639943716 -44.625 22.1875 C-44.82609375 21.148193359 -44.82609375 21.148193359 -45.03125 20.087890625 C-45.358582884 18.392773906 -45.679905936 16.696498541 -46 15 C-46.66 15 -47.32 15 -48 15 C-47.45859375 16.896855469 -47.45859375 16.896855469 -46.90625 18.83203125 C-46.437295614 20.492129777 -45.968556819 22.152289217 -45.5 23.8125 C-45.261523438 24.645878906 -45.023046875 25.479257812 -44.77734375 26.337890625 C-44.551757812 27.140332031 -44.326171875 27.942773437 -44.09375 28.76953125 C-43.884277344 29.507922363 -43.674804688 30.246313477 -43.458984375 31.007080078 C-42.916218533 33.363780911 -43 35.592405451 -43 38 C-43.99 38 -44.98 38 -46 38 C-46.33 39.65 -46.66 41.3 -47 43 C-46.01 43.495 -46.01 43.495 -45 44 C-45.7425 44.4125 -46.485 44.825 -47.25 45.25 C-49.901716852 46.937456178 -51.866740143 48.708720894 -54 51 C-51.69 51.66 -49.38 52.32 -47 53 C-47.204960937 53.53109375 -47.409921875 54.0621875 -47.62109375 54.609375 C-47.890507812 55.31578125 -48.159921875 56.0221875 -48.4375 56.75 C-48.704335937 57.44609375 -48.971171875 58.1421875 -49.24609375 58.859375 C-50.518949053 62.473492647 -51.172056379 65.72377669 -51.25 69.5625 C-51.288671875 70.709121094 -51.288671875 70.709121094 -51.328125 71.87890625 C-50.91753671 74.533066269 -49.862448066 75.152255471 -48 77 C-48 78.32 -48 79.64 -48 81 C-51.3125 81.3125 -51.3125 81.3125 -55 81 C-59.220843299 75.657976373 -58.364667294 70.162261741 -58.125 63.6875 C-58.122421875 62.584707031 -58.11984375 61.481914063 -58.1171875 60.345703125 C-57.884502841 53.385938783 -56.829340586 49.547513111 -51.687011719 44.731201172 C-48.105141376 41.055507598 -46.986000418 36.37642904 -47.015625 31.34765625 C-47.358442542 27.456677147 -48.036696739 23.780220477 -49 20 C-49.120043945 20.589020996 -49.240087891 21.178041992 -49.363769531 21.784912109 C-54.719840688 47.5046348 -54.719840688 47.5046348 -67 56 C-73.133988557 59.680393134 -79.963117498 60.131245668 -87 59 C-89.8984375 57.16015625 -89.8984375 57.16015625 -92 55 C-92 54.01 -92 53.02 -92 52 C-89.75 51.8125 -89.75 51.8125 -87 52 C-86.4225 52.495 -85.845 52.99 -85.25 53.5 C-81.653422621 55.897718253 -78.188300941 55.600300135 -74 55 C-67.387085495 53.091736105 -63.28873179 48.937179514 -60 43 C-57.089904917 36.105313187 -55.582775951 29.105220204 -54.158203125 21.77734375 C-52.481267189 14.071290318 -49.187229419 9.027867948 -43.5 3.625 C-30.533278358 -2.39526362 -13.919053255 -0.20409169 0 0 Z " fill="#767468" transform="translate(104,45)" />
<path d="M0 0 C0.66 0 1.32 0 2 0 C1.867226563 0.617460937 1.734453125 1.234921875 1.59765625 1.87109375 C0.407991728 7.576273246 -0.438642597 13.199306839 -1 19 C-0.67 18.01 -0.34 17.02 0 16 C0.66 16 1.32 16 2 16 C1.9071875 17.1446875 1.9071875 17.1446875 1.8125 18.3125 C1.707111897 21.035201254 1.707111897 21.035201254 3.5 22.5 C5 24 5 24 5.1875 26.6875 C5.0946875 27.8321875 5.0946875 27.8321875 5 29 C5.66 27.02 6.32 25.04 7 23 C7.33 23 7.66 23 8 23 C8.495 29.93 8.495 29.93 9 37 C0.059982577 41.291208363 -9.644338739 41.416811542 -19.0625 38.375 C-23.917248065 36.318871408 -26.361404822 34.596262568 -29 30 C-30.062356241 26.694318687 -30.89818179 23.47978705 -31 20 C-30.01 18.515 -30.01 18.515 -29 17 C-28.67 17.99 -28.34 18.98 -28 20 C-27.4225 19.505 -26.845 19.01 -26.25 18.5 C-23.412929768 16.608619845 -21.316003996 17 -18 17 C-17.34 11.72 -16.68 6.44 -16 1 C-15.01 1 -14.02 1 -13 1 C-13.520833333 2.953125 -14.041666667 4.90625 -14.5625 6.859375 C-15.133493485 9.28901861 -15.133493485 9.28901861 -15 13 C-14.34 12.01 -13.68 11.02 -13 10 C-12.34 9.67 -11.68 9.34 -11 9 C-11 11.97 -11 14.94 -11 18 C-10.67 18 -10.34 18 -10 18 C-9.87625 18.7425 -9.7525 19.485 -9.625 20.25 C-9.045132989 22.801414847 -8.262912609 24.726757303 -7 27 C-5.366624646 24.043637508 -4.556162454 21.405033719 -3.96484375 18.0859375 C-3.795332031 17.160390625 -3.625820312 16.23484375 -3.451171875 15.28125 C-3.281660156 14.3221875 -3.112148437 13.363125 -2.9375 12.375 C-2.5950934 10.465669518 -2.25016481 8.556789061 -1.90234375 6.6484375 C-1.752731934 5.804584961 -1.603120117 4.960732422 -1.448974609 4.091308594 C-1 2 -1 2 0 0 Z " fill="#E8E7DC" transform="translate(106,46)" />
<path d="M0 0 C0.66 0 1.32 0 2 0 C1.439025683 3.365845903 0.56149386 5.981111871 -1 9 C-1 9.66 -1 10.32 -1 11 C-0.071875 11.4021875 -0.071875 11.4021875 0.875 11.8125 C3 13 3 13 5 16 C5.12375 17.0725 5.2475 18.145 5.375 19.25 C5.942945825 22.657674951 6.339438983 23.784968864 8.125 26.5 C10.351195454 30.655564848 10.315156812 32.528466839 9 37 C5.481754887 39.345496742 4.142243058 39.579914028 0 39 C-0.721875 38.175 -1.44375 37.35 -2.1875 36.5 C-5.951514476 33.154209354 -8.445088698 33.473649226 -13.328125 33.69140625 C-16.421035005 34.048628312 -19.141195261 34.763760113 -22 36 C-21.505 33.03 -21.505 33.03 -21 30 C-20.67 30.99 -20.34 31.98 -20 33 C-18.68 32.34 -17.36 31.68 -16 31 C-16.28875 30.287148438 -16.5775 29.574296875 -16.875 28.83984375 C-20.735149327 18.881194618 -20.735149327 18.881194618 -20 13 C-19.34 12.01 -18.68 11.02 -18 10 C-17.34 10 -16.68 10 -16 10 C-16 11.32 -16 12.64 -16 14 C-15.841445313 13.385117188 -15.682890625 12.770234375 -15.51953125 12.13671875 C-13.590051458 5.452830189 -13.590051458 5.452830189 -10.3125 2.9375 C-9.549375 2.628125 -8.78625 2.31875 -8 2 C-8 2.99 -8 3.98 -8 5 C-4.566614836 3.793675483 -2.496354154 2.615228162 0 0 Z " fill="#6A695F" transform="translate(171,27)" />
<path d="M0 0 C0.66 0 1.32 0 2 0 C2 1.32 2 2.64 2 4 C1.34 4 0.68 4 0 4 C0 5.98 0 7.96 0 10 C-0.66 9.67 -1.32 9.34 -2 9 C-2.66 11.31 -3.32 13.62 -4 16 C-4.66 15.67 -5.32 15.34 -6 15 C-5.67 13.68 -5.34 12.36 -5 11 C-5.66 11 -6.32 11 -7 11 C-7 12.65 -7 14.3 -7 16 C-7.33 16 -7.66 16 -8 16 C-7.554711497 21.273153329 -6.916268368 26.017702242 -5 31 C-9.12521724 27.348547205 -10.713399951 22.277988063 -11.1875 16.85546875 C-11.1875 15.235772858 -11.103174878 13.616406423 -11 12 C-11.99 12 -12.98 12 -14 12 C-13.528203125 13.046074219 -13.528203125 13.046074219 -13.046875 14.11328125 C-11.923092156 17.212070511 -11.527019754 19.908074976 -11.25 23.1875 C-11.103046875 24.755644531 -11.103046875 24.755644531 -10.953125 26.35546875 C-11 29 -11 29 -13 31 C-13.66 30.34 -14.32 29.68 -15 29 C-14.814375 29.598125 -14.62875 30.19625 -14.4375 30.8125 C-14 33 -14 33 -15 36 C-15.66 36 -16.32 36 -17 36 C-17 36.66 -17 37.32 -17 38 C-17.66 38 -18.32 38 -19 38 C-20.69140625 35.76953125 -20.69140625 35.76953125 -22.5625 32.8125 C-23.182539062 31.849570312 -23.802578125 30.886640625 -24.44140625 29.89453125 C-25.924840354 27.1395822 -26.695071784 25.097428724 -27 22 C-26.67 21.34 -26.34 20.68 -26 20 C-27.98 19.67 -29.96 19.34 -32 19 C-32 19.66 -32 20.32 -32 21 C-31.01 21.33 -30.02 21.66 -29 22 C-27.8125 25.0625 -27.8125 25.0625 -27 28 C-27.99 27.01 -28.98 26.02 -30 25 C-30.66 25.66 -31.32 26.32 -32 27 C-32.33 26.01 -32.66 25.02 -33 24 C-33.99 23.34 -34.98 22.68 -36 22 C-35.34 21.67 -34.68 21.34 -34 21 C-35.65 20.34 -37.3 19.68 -39 19 C-39.33 21.31 -39.66 23.62 -40 26 C-40.66 26 -41.32 26 -42 26 C-42 24.35 -42 22.7 -42 21 C-42.99 23.97 -43.98 26.94 -45 30 C-46.416871186 25.749386441 -45.193200389 23.28148375 -44 19 C-45.98 19 -47.96 19 -50 19 C-50.33 19.66 -50.66 20.32 -51 21 C-51 20.34 -51 19.68 -51 19 C-51.99 18.67 -52.98 18.34 -54 18 C-53.34515625 17.913632812 -52.6903125 17.827265625 -52.015625 17.73828125 C-44.421227103 16.569087223 -37.996374076 14.099659401 -31 11 C-23.040113479 7.473467997 -15.870196518 5.340711771 -7.204101562 4.807861328 C-5.011628328 4.673828495 -5.011628328 4.673828495 -2 4 C-0.462081099 2.071971466 -0.462081099 2.071971466 0 0 Z " fill="#716F64" transform="translate(160,26)" />
<path d="M0 0 C1.616484375 0.013535156 1.616484375 0.013535156 3.265625 0.02734375 C4.08546875 0.038945312 4.9053125 0.050546875 5.75 0.0625 C6.74 2.0425 6.74 2.0425 7.75 4.0625 C8.41 3.4025 9.07 2.7425 9.75 2.0625 C9 8.6875 9 8.6875 6.75 12.0625 C5.76 6.6175 5.76 6.6175 4.75 1.0625 C3.1 1.0625 1.45 1.0625 -0.25 1.0625 C-0.58 2.7125 -0.91 4.3625 -1.25 6.0625 C-2.24 5.7325 -3.23 5.4025 -4.25 5.0625 C-4.58 6.7125 -4.91 8.3625 -5.25 10.0625 C-7.388548496 7.923951504 -7.676550627 6.929746864 -8.25 4.0625 C-9.24 4.7225 -10.23 5.3825 -11.25 6.0625 C-10.26 6.3925 -9.27 6.7225 -8.25 7.0625 C-8.25 8.3825 -8.25 9.7025 -8.25 11.0625 C-11.469567834 12.135689278 -12.154216886 11.933189001 -15.25 11.0625 C-16.24 11.0625 -17.23 11.0625 -18.25 11.0625 C-15.775 12.0525 -15.775 12.0525 -13.25 13.0625 C-13.25 13.3925 -13.25 13.7225 -13.25 14.0625 C-14.9 14.0625 -16.55 14.0625 -18.25 14.0625 C-17.70859375 15.959355469 -17.70859375 15.959355469 -17.15625 17.89453125 C-16.687295614 19.554629777 -16.218556819 21.214789217 -15.75 22.875 C-15.511523438 23.708378906 -15.273046875 24.541757812 -15.02734375 25.400390625 C-14.801757812 26.202832031 -14.576171875 27.005273437 -14.34375 27.83203125 C-14.134277344 28.570422363 -13.924804688 29.308813477 -13.708984375 30.069580078 C-13.166218533 32.426280911 -13.25 34.654905451 -13.25 37.0625 C-14.24 37.0625 -15.23 37.0625 -16.25 37.0625 C-16.58 38.7125 -16.91 40.3625 -17.25 42.0625 C-16.26 42.5575 -16.26 42.5575 -15.25 43.0625 C-15.9925 43.475 -16.735 43.8875 -17.5 44.3125 C-20.151716852 45.999956178 -22.116740143 47.771220894 -24.25 50.0625 C-21.94 50.7225 -19.63 51.3825 -17.25 52.0625 C-17.454960937 52.59359375 -17.659921875 53.1246875 -17.87109375 53.671875 C-18.140507812 54.37828125 -18.409921875 55.0846875 -18.6875 55.8125 C-18.954335937 56.50859375 -19.221171875 57.2046875 -19.49609375 57.921875 C-20.768949053 61.535992647 -21.422056379 64.78627669 -21.5 68.625 C-21.538671875 69.771621094 -21.538671875 69.771621094 -21.578125 70.94140625 C-21.16753671 73.595566269 -20.112448066 74.214755471 -18.25 76.0625 C-18.25 77.3825 -18.25 78.7025 -18.25 80.0625 C-21.5625 80.375 -21.5625 80.375 -25.25 80.0625 C-29.470843299 74.720476373 -28.614667294 69.224761741 -28.375 62.75 C-28.372421875 61.647207031 -28.36984375 60.544414063 -28.3671875 59.408203125 C-28.134502841 52.448438783 -27.079340586 48.610013111 -21.937011719 43.793701172 C-18.355141376 40.118007598 -17.236000418 35.43892904 -17.265625 30.41015625 C-17.608442542 26.519177147 -18.286696739 22.842720477 -19.25 19.0625 C-19.370043945 19.651520996 -19.490087891 20.240541992 -19.613769531 20.847412109 C-24.969840688 46.5671348 -24.969840688 46.5671348 -37.25 55.0625 C-43.383988557 58.742893134 -50.213117498 59.193745668 -57.25 58.0625 C-60.1484375 56.22265625 -60.1484375 56.22265625 -62.25 54.0625 C-62.25 53.0725 -62.25 52.0825 -62.25 51.0625 C-60 50.875 -60 50.875 -57.25 51.0625 C-56.6725 51.5575 -56.095 52.0525 -55.5 52.5625 C-51.903422621 54.960218253 -48.438300941 54.662800135 -44.25 54.0625 C-37.637085495 52.154236105 -33.53873179 47.999679514 -30.25 42.0625 C-27.339904917 35.167813187 -25.832775951 28.167720204 -24.408203125 20.83984375 C-22.698048874 12.981141606 -19.494512478 7.593219733 -13.125 2.625 C-8.618417664 0.175770469 -5.115234416 -0.055600374 0 0 Z " fill="#47443C" transform="translate(74.25,45.9375)" />
<path d="M0 0 C2.018229167 0.29296875 4.036458333 0.5859375 6.0546875 0.87890625 C8.081406667 1.168429699 8.081406667 1.168429699 10 0 C11.99960012 -0.039992002 14.000472422 -0.043467991 16 0 C15.34 0.33 14.68 0.66 14 1 C13.533487934 3.125767821 13.533487934 3.125767821 13.375 5.5625 C13.300234375 6.388789063 13.22546875 7.215078125 13.1484375 8.06640625 C13.099453125 8.704492188 13.05046875 9.342578125 13 10 C13.99 7.36 14.98 4.72 16 2 C17.245464053 4.490928106 16.776757801 5.410807331 16 8 C16.66 8 17.32 8 18 8 C18.33 5.69 18.66 3.38 19 1 C19.66 1 20.32 1 21 1 C20.102471829 8.919366213 19.116433179 16.320698623 16.59765625 23.90234375 C15.816949238 26.642472281 15.776721375 29.171804089 16 32 C16.66 31.34 17.32 30.68 18 30 C20.625 29.375 20.625 29.375 23 29 C22.505 28.01 22.505 28.01 22 27 C23.65 27 25.3 27 27 27 C27 25.02 27 23.04 27 21 C27.33 21 27.66 21 28 21 C28.733042775 30.187469451 27.085870113 36.769890201 23 45 C20.36 44.34 17.72 43.68 15 43 C15 44.65 15 46.3 15 48 C14.67 48 14.34 48 14 48 C13.505 45.03 13.505 45.03 13 42 C12.214960937 42.144375 11.429921875 42.28875 10.62109375 42.4375 C0.49493409 44.226661952 -6.38102957 44.131488474 -16.20703125 40.875 C-18.830284647 39.900347047 -18.830284647 39.900347047 -21 40 C-21.66 40.66 -22.32 41.32 -23 42 C-23.33 39.36 -23.66 36.72 -24 34 C-23.195625 34.598125 -22.39125 35.19625 -21.5625 35.8125 C-12.81332465 41.516718732 -2.753255815 42.444476004 7.453125 40.54296875 C9.514491076 39.991207699 9.514491076 39.991207699 12 39 C11.67 35.7 11.34 32.4 11 29 C10.01 29.99 9.02 30.98 8 32 C7.87625 31.443125 7.7525 30.88625 7.625 30.3125 C7.050567928 27.930564009 7.050567928 27.930564009 5.875 25.5625 C4.861153183 22.593377177 5.149727359 20.975954242 6 18 C5.34 18 4.68 18 4 18 C3.67 19.98 3.34 21.96 3 24 C2.67 24 2.34 24 2 24 C2.385770547 16.257984189 3.423887716 9.323287751 6 2 C5.34 2 4.68 2 4 2 C3.67 3.98 3.34 5.96 3 8 C2.01 7.67 1.02 7.34 0 7 C0.185625 6.21625 0.37125 5.4325 0.5625 4.625 C1.259622663 2.029102245 1.259622663 2.029102245 0 0 Z " fill="#67645B" transform="translate(102,44)" />
<path d="M0 0 C0.99 0 1.98 0 3 0 C2.479166667 1.953125 1.958333333 3.90625 1.4375 5.859375 C0.866506515 8.28901861 0.866506515 8.28901861 1 12 C1.66 11.01 2.32 10.02 3 9 C3.66 8.67 4.32 8.34 5 8 C5 10.97 5 13.94 5 17 C5.33 17 5.66 17 6 17 C6.12375 17.7425 6.2475 18.485 6.375 19.25 C6.954867011 21.801414847 7.737087391 23.726757303 9 26 C9.33 25.34 9.66 24.68 10 24 C11.353846154 30.4 11.353846154 30.4 9.5625 33.4375 C9.046875 33.953125 8.53125 34.46875 8 35 C7.34 34.67 6.68 34.34 6 34 C5.67 34.66 5.34 35.32 5 36 C4.34 35.01 3.68 34.02 3 33 C2.34 32.34 1.68 31.68 1 31 C0.505 33.475 0.505 33.475 0 36 C-0.66 36 -1.32 36 -2 36 C-2.33 34.35 -2.66 32.7 -3 31 C-5.31 30.34 -7.62 29.68 -10 29 C-10 28.34 -10 27.68 -10 27 C-10.66 27 -11.32 27 -12 27 C-12.33 25.35 -12.66 23.7 -13 22 C-13.66 22 -14.32 22 -15 22 C-14.67 20.02 -14.34 18.04 -14 16 C-13.34 16.33 -12.68 16.66 -12 17 C-12 17.66 -12 18.32 -12 19 C-11.4225 18.505 -10.845 18.01 -10.25 17.5 C-7.412929768 15.608619845 -5.316003996 16 -2 16 C-1.34 10.72 -0.68 5.44 0 0 Z " fill="#A19F92" transform="translate(90,47)" />
<path d="M0 0 C0.99 0 1.98 0 3 0 C3.17015625 0.929414063 3.3403125 1.858828125 3.515625 2.81640625 C4.846484984 9.605207978 6.04801759 15.276439268 10 21 C5.125 22 5.125 22 4 22 C3.7525 22.7425 3.505 23.485 3.25 24.25 C1.877187619 27.270187239 0.551799075 28.898518409 -2 31 C-3.32 31.33 -4.64 31.66 -6 32 C-6.99 29.03 -7.98 26.06 -9 23 C-7.189195211 27.473753007 -6.514378019 30.35743131 -8 35 C-12.616419919 42.30820996 -12.616419919 42.30820996 -16 44 C-15.835 42.700625 -15.67 41.40125 -15.5 40.0625 C-14.649800979 32.164274311 -14.942291467 25.261385708 -16.66015625 17.48046875 C-17.005091575 14.962837355 -16.796268301 13.388804902 -16 11 C-15.67 11.33 -15.34 11.66 -15 12 C-16.5 10.625 -16.5 10.625 -18 9 C-18 8.34 -18 7.68 -18 7 C-15.03 7.495 -15.03 7.495 -12 8 C-11.95875 8.969375 -11.9175 9.93875 -11.875 10.9375 C-11.278831582 15.431692686 -8.905308827 18.489448404 -6.27734375 22.08203125 C-5 24 -5 24 -5 26 C-4.34 26 -3.68 26 -3 26 C-3 25.34 -3 24.68 -3 24 C-2.34 24 -1.68 24 -1 24 C-1.33 23.01 -1.66 22.02 -2 21 C-1.34 21 -0.68 21 0 21 C-0.350625 20.401875 -0.70125 19.80375 -1.0625 19.1875 C-2 17 -2 17 -1 14 C-0.01 14.99 0.98 15.98 2 17 C1.857867027 15.103885656 1.711130933 13.208116057 1.5625 11.3125 C1.481289062 10.256757812 1.400078125 9.201015625 1.31640625 8.11328125 C1.035483187 5.349137034 0.598431482 2.710542593 0 0 Z " fill="#BEBCB1" transform="translate(146,38)" />
<path d="M0 0 C-0.185625 0.969375 -0.37125 1.93875 -0.5625 2.9375 C-0.706875 3.948125 -0.85125 4.95875 -1 6 C-0.67 6.33 -0.34 6.66 0 7 C-0.125013116 14.173829568 -0.577211098 21.216191074 -3 28 C-5.539039956 27.649787592 -6.820932982 27.159881266 -8.75 25.4375 C-10.584610549 21.860009429 -10.199685828 18.993716569 -10 15 C-10.66 14.67 -11.32 14.34 -12 14 C-12.33 15.65 -12.66 17.3 -13 19 C-13.33 19 -13.66 19 -14 19 C-14.403682947 12.541072855 -13.591526204 7.938914217 -11 2 C-11.99 2 -12.98 2 -14 2 C-14.33 4.97 -14.66 7.94 -15 11 C-15.33 11 -15.66 11 -16 11 C-15.67 8.03 -15.34 5.06 -15 2 C-15.66 2 -16.32 2 -17 2 C-17 5.3 -17 8.6 -17 12 C-17.99 12.33 -18.98 12.66 -20 13 C-19.400497042 9.31733897 -18.75241109 5.654568153 -18 2 C-19.65 2 -21.3 2 -23 2 C-23 1.67 -23 1.34 -23 1 C-20.479326873 0.830542983 -17.958506165 0.66436516 -15.4375 0.5 C-14.733027344 0.452304688 -14.028554688 0.404609375 -13.302734375 0.35546875 C-8.857398653 0.068672897 -4.454553411 -0.04682842 0 0 Z " fill="#423F37" transform="translate(104,45)" />
<path d="M0 0 C6.27 0 12.54 0 19 0 C19 0.33 19 0.66 19 1 C15.37 1.33 11.74 1.66 8 2 C7.979375 3.464375 7.95875 4.92875 7.9375 6.4375 C7.925898437 7.261210937 7.914296875 8.084921875 7.90234375 8.93359375 C7.76732652 10.991639381 7.76732652 10.991639381 9 12 C9 8.7 9 5.4 9 2 C9.66 2 10.32 2 11 2 C11.184510251 18.892938497 11.184510251 18.892938497 10 26 C9.67 26 9.34 26 9 26 C8.896875 25.21625 8.79375 24.4325 8.6875 23.625 C8.224049784 20.669548195 8.224049784 20.669548195 5 19 C4.01 19.66 3.02 20.32 2 21 C1.34 21 0.68 21 0 21 C-0.33 20.67 -0.66 20.34 -1 20 C-2.374324565 23.817568237 -1.679750393 27.072553286 -1 31 C-3.349144923 28.650855077 -3.731403566 27.04320554 -4.625 23.875 C-4.885390625 22.964921875 -5.14578125 22.05484375 -5.4140625 21.1171875 C-5.607421875 20.418515625 -5.80078125 19.71984375 -6 19 C-6.99 19 -7.98 19 -9 19 C-9 18.34 -9 17.68 -9 17 C-9.99 16.67 -10.98 16.34 -12 16 C-8.376732607 14.792244202 -7.358536313 15.456888721 -4 17 C-4.023203125 16.336132812 -4.04640625 15.672265625 -4.0703125 14.98828125 C-4.249560633 6.217926186 -4.249560633 6.217926186 -2 2 C-1.01 2 -0.02 2 1 2 C1.66 4.64 2.32 7.28 3 10 C3.66 9.34 4.32 8.68 5 8 C5 7.01 5 6.02 5 5 C4.34 6.32 3.68 7.64 3 9 C2.8046875 6.94921875 2.609375 4.8984375 2.4140625 2.84765625 C2.277421875 2.237929687 2.14078125 1.628203125 2 1 C1.34 0.67 0.68 0.34 0 0 Z " fill="#636155" transform="translate(78,45)" />
<path d="M0 0 C2 3 2 3 2.4375 5.125 C2.7159375 6.053125 2.7159375 6.053125 3 7 C3.99 7.33 4.98 7.66 6 8 C8.078125 10.29296875 8.078125 10.29296875 10.25 13.1875 C11.340546875 14.600957031 11.340546875 14.600957031 12.453125 16.04296875 C14.33369218 19.637891364 14.172247528 21.171714154 13 25 C9.673656854 29.891681096 6.386564722 32.55156149 1 35 C-1.4375 34.75 -1.4375 34.75 -3 34 C-2.665228752 30.87546835 -2.025594486 30.022900329 0.375 27.875 C2.227745812 26.551610135 4.105549603 25.262966932 6 24 C5.622789921 18.593322199 3.915002146 16.613848135 0 13 C0 12.34 0 11.68 0 11 C-0.66 11 -1.32 11 -2 11 C-2 10.34 -2 9.68 -2 9 C-1.34 9 -0.68 9 0 9 C0 8.34 0 7.68 0 7 C-0.99 7.66 -1.98 8.32 -3 9 C-3.99 9 -4.98 9 -6 9 C-5.693815945 5.325791344 -5.242282157 4.218644873 -2.4375 1.6875 C-1.633125 1.130625 -0.82875 0.57375 0 0 Z " fill="#B8B6AA" transform="translate(133,81)" />
<path d="M0 0 C0.99 0.66 1.98 1.32 3 2 C2.67 6.29 2.34 10.58 2 15 C3.98 15 5.96 15 8 15 C8.66 13.68 9.32 12.36 10 11 C9.87625 12.27875 9.7525 13.5575 9.625 14.875 C9.64431304 21.016546561 12.261043824 25.267639149 16 30 C18.075538497 31.982548421 20.178890043 33.788030426 22.4609375 35.52734375 C22.968828125 36.013320312 23.47671875 36.499296875 24 37 C24 37.99 24 38.98 24 40 C16.736353078 40.615563298 16.736353078 40.615563298 13.5234375 37.9296875 C10.75697579 34.717851149 8.523426722 31.417026189 6.3125 27.8125 C3.494846325 23.151363479 3.494846325 23.151363479 0 19 C-0.1953125 16.3984375 -0.1953125 16.3984375 -0.125 13.375 C-0.106953125 12.372109375 -0.08890625 11.36921875 -0.0703125 10.3359375 C-0.047109375 9.565078125 -0.02390625 8.79421875 0 8 C-1.98 8.99 -1.98 8.99 -4 10 C-3.34 9.278125 -2.68 8.55625 -2 7.8125 C0.153585299 4.784020673 0.411767536 3.602965944 0 0 Z " fill="#767369" transform="translate(65,85)" />
<path d="M0 0 C0.66 0 1.32 0 2 0 C1.102471829 7.919366213 0.116433179 15.320698623 -2.40234375 22.90234375 C-3.183050762 25.642472281 -3.223278625 28.171804089 -3 31 C-2.34 30.34 -1.68 29.68 -1 29 C1.625 28.375 1.625 28.375 4 28 C3.67 27.34 3.34 26.68 3 26 C4.65 26 6.3 26 8 26 C8 24.02 8 22.04 8 20 C8.33 20 8.66 20 9 20 C9.733042775 29.187469451 8.085870113 35.769890201 4 44 C2.35 43.34 0.7 42.68 -1 42 C-1 41.34 -1 40.68 -1 40 C-1.66 40 -2.32 40 -3 40 C-5.930024782 36.506508914 -6.50607138 33.290411986 -6.36328125 28.78125 C-5.737159087 23.987712582 -4.344573118 19.393434042 -3.0234375 14.75390625 C-1.69506519 9.881517738 -0.787579804 4.984551128 0 0 Z " fill="#ABA99B" transform="translate(121,45)" />
<path d="M0 0 C1.82421875 0.2109375 1.82421875 0.2109375 4 1 C7.225362771 5.328121765 9 9.609784876 9 15 C8 18 8 18 5 20 C2.125 20.4375 2.125 20.4375 -1 20 C-1.721875 19.175 -2.44375 18.35 -3.1875 17.5 C-6.951514476 14.154209354 -9.445088698 14.473649226 -14.328125 14.69140625 C-17.421035005 15.048628312 -20.141195261 15.763760113 -23 17 C-22.67 15.02 -22.34 13.04 -22 11 C-21.67 11.99 -21.34 12.98 -21 14 C-20.38125 13.690625 -19.7625 13.38125 -19.125 13.0625 C-15.346465551 11.173232775 -14.067431715 11.023764883 -9.875 11.9375 C-8.509882812 12.229472656 -8.509882812 12.229472656 -7.1171875 12.52734375 C-6.418515625 12.683320313 -5.71984375 12.839296875 -5 13 C-4.71125 12.236875 -4.4225 11.47375 -4.125 10.6875 C-3 8 -3 8 -1 5 C-0.61500109 3.344504688 -0.272068654 1.677756698 0 0 Z " fill="#666359" transform="translate(172,46)" />
<path d="M0 0 C-0.78375 0.45375 -1.5675 0.9075 -2.375 1.375 C-5.036980309 2.88428742 -5.036980309 2.88428742 -7 5 C-7 4.34 -7 3.68 -7 3 C-7.66 3 -8.32 3 -9 3 C-8.67 3.99 -8.34 4.98 -8 6 C-8.99 6.33 -9.98 6.66 -11 7 C-11.33 7.66 -11.66 8.32 -12 9 C-11.34 9.33 -10.68 9.66 -10 10 C-11.65 10.33 -13.3 10.66 -15 11 C-15 11.66 -15 12.32 -15 13 C-14.01 13.33 -13.02 13.66 -12 14 C-10.8125 17.0625 -10.8125 17.0625 -10 20 C-10.99 19.01 -11.98 18.02 -13 17 C-13.66 17.66 -14.32 18.32 -15 19 C-15.33 18.01 -15.66 17.02 -16 16 C-16.99 15.34 -17.98 14.68 -19 14 C-18.34 13.67 -17.68 13.34 -17 13 C-18.65 12.34 -20.3 11.68 -22 11 C-22.33 13.31 -22.66 15.62 -23 18 C-23.66 18 -24.32 18 -25 18 C-25 16.35 -25 14.7 -25 13 C-25.99 15.97 -26.98 18.94 -28 22 C-29.416871186 17.749386441 -28.193200389 15.28148375 -27 11 C-28.98 11 -30.96 11 -33 11 C-33.33 11.66 -33.66 12.32 -34 13 C-34 12.34 -34 11.68 -34 11 C-34.99 10.67 -35.98 10.34 -37 10 C-36.34515625 9.913632812 -35.6903125 9.827265625 -35.015625 9.73828125 C-27.429572448 8.570372029 -20.979740241 6.122759948 -14 3 C-12.172264186 2.195494552 -10.339246104 1.402830952 -8.5 0.625 C-7.7265625 0.287265625 -6.953125 -0.05046875 -6.15625 -0.3984375 C-3.696472878 -1.084679668 -2.381640982 -0.833574344 0 0 Z " fill="#313028" transform="translate(143,34)" />
<path d="M0 0 C3.394051784 3.394051784 3.96199622 7.816510107 4.04296875 12.46875 C3.658902875 18.256533426 2.365233002 23.219389589 -1 28 C-1.854648438 28.729609375 -2.709296875 29.45921875 -3.58984375 30.2109375 C-6.796093103 33.921248744 -6.774284425 36.561030178 -6.8125 41.3125 C-6.837636719 42.053066406 -6.862773437 42.793632812 -6.888671875 43.556640625 C-6.947184425 45.370529687 -6.976543489 47.185319025 -7 49 C-7.33 49 -7.66 49 -8 49 C-8 44.05 -8 39.1 -8 34 C-9.98 34.99 -11.96 35.98 -14 37 C-12.680540085 34.128603899 -11.178136238 31.950733603 -9.125 29.5625 C-2.775950042 21.215822129 -1.389296032 10.145517076 0 0 Z " fill="#E8E5DE" transform="translate(54,63)" />
<path d="M0 0 C1.03125 0.350625 2.0625 0.70125 3.125 1.0625 C6.979896405 1.995136227 9.201722259 1.926409205 13 1 C13 1.66 13 2.32 13 3 C12.34 3 11.68 3 11 3 C11 3.66 11 4.32 11 5 C12.32 4.34 13.64 3.68 15 3 C14.731875 3.721875 14.46375 4.44375 14.1875 5.1875 C13.651058452 8.263905373 13.651058452 8.263905373 16.4375 10.8125 C17.283125 11.534375 18.12875 12.25625 19 13 C14 11 14 11 5 5 C4.34 13.58 3.68 22.16 3 31 C5.475 31.99 5.475 31.99 8 33 C8.8125 35.625 8.8125 35.625 9 38 C7.14375 38.1546875 7.14375 38.1546875 5.25 38.3125 C4.205859375 38.399511719 4.205859375 38.399511719 3.140625 38.48828125 C1 38 1 38 -1.25 36.25 C-3.96703343 31.204080773 -3.421062926 26.316128191 -3.25 20.6875 C-3.222929687 19.004306641 -3.222929687 19.004306641 -3.1953125 17.287109375 C-3.148278562 14.52386553 -3.082563166 11.76237302 -3 9 C-2.67 9 -2.34 9 -2 9 C-2 11.64 -2 14.28 -2 17 C-1.01 17.33 -0.02 17.66 1 18 C0.34 18 -0.32 18 -1 18 C-0.858605195 20.250283287 -0.711719965 22.500222064 -0.5625 24.75 C-0.440683594 26.629453125 -0.440683594 26.629453125 -0.31640625 28.546875 C-0.074844776 31.183175528 0.242839345 33.480372945 1 36 C1.66 36 2.32 36 3 36 C2.67 35.030625 2.34 34.06125 2 33.0625 C-0.047705203 25.763893597 1.023510279 18.888326174 2.5625 11.578125 C3.446609243 6.379325799 3.446609243 6.379325799 1.5 1.6875 C1.005 1.130625 0.51 0.57375 0 0 Z " fill="#4C4A3F" transform="translate(120,87)" />
<path d="M0 0 C0.66 0 1.32 0 2 0 C2.670083401 2.123925065 3.335967971 4.24917524 4 6.375 C4.37125 7.558359375 4.7425 8.74171875 5.125 9.9609375 C6 13 6 13 6 15 C9.3 15.33 12.6 15.66 16 16 C16 16.33 16 16.66 16 17 C13.03 17.33 10.06 17.66 7 18 C7.66 18 8.32 18 9 18 C11.001092782 18.326709026 13.001161309 18.659772138 15 19 C16.840463877 19 18.396295936 17.827718226 20 17 C22.336090385 18.752067789 22.951158076 19.706948459 23.4375 22.625 C22.845290523 27.193473105 21.039225351 30.903341929 19 35 C17.35 35 15.7 35 14 35 C14.33 34.01 14.66 33.02 15 32 C15.99 31.67 16.98 31.34 18 31 C16.68 30.34 15.36 29.68 14 29 C15.32 28.67 16.64 28.34 18 28 C16.68 27.34 15.36 26.68 14 26 C14.66 26 15.32 26 16 26 C16 25.34 16 24.68 16 24 C13.36 23.67 10.72 23.34 8 23 C8 22.34 8 21.68 8 21 C7.34 21 6.68 21 6 21 C2.374043437 14.784074464 0 7.215617131 0 0 Z " fill="#C7C4B9" transform="translate(56,60)" />
<path d="M0 0 C2.64 0 5.28 0 8 0 C9.39585273 2.79170546 8.973404191 4.902128553 8.75 8 C8.68296875 9.0725 8.6159375 10.145 8.546875 11.25 C8.36640625 12.1575 8.1859375 13.065 8 14 C7.01 14.66 6.02 15.32 5 16 C4.67 16.33 4.34 16.66 4 17 C4.99 17.66 5.98 18.32 7 19 C3.7 19 0.4 19 -3 19 C-4.193176674 14.062199676 -3.673930803 10.910461173 -2.0625 6.125 C-1.492089844 4.396367187 -1.492089844 4.396367187 -0.91015625 2.6328125 C-0.609804688 1.763984375 -0.309453125 0.89515625 0 0 Z " fill="#828073" transform="translate(121,57)" />
<path d="M0 0 C0.66 0 1.32 0 2 0 C1.867226562 0.617460937 1.734453125 1.234921875 1.59765625 1.87109375 C0.407991728 7.576273246 -0.438642597 13.199306839 -1 19 C-0.67 18.01 -0.34 17.02 0 16 C0.66 16 1.32 16 2 16 C1.938125 16.763125 1.87625 17.52625 1.8125 18.3125 C1.707111897 21.035201254 1.707111897 21.035201254 3.5 22.5 C5 24 5 24 5.1875 26.6875 C5.125625 27.450625 5.06375 28.21375 5 29 C5.66 27.02 6.32 25.04 7 23 C7.33 23 7.66 23 8 23 C8.080909707 24.624187449 8.139149952 26.249517449 8.1875 27.875 C8.222304687 28.779921875 8.257109375 29.68484375 8.29296875 30.6171875 C8.196289062 31.403515625 8.099609375 32.18984375 8 33 C5 35 5 35 2.4375 34.75 C0 34 0 34 -2 32 C-2.66 34.31 -3.32 36.62 -4 39 C-7.139312248 27.948599972 -5.167455433 10.334910866 0 0 Z " fill="#B8B6AB" transform="translate(106,46)" />
<path d="M0 0 C0.66 0 1.32 0 2 0 C2 1.32 2 2.64 2 4 C1.34 4 0.68 4 0 4 C0 5.98 0 7.96 0 10 C-0.66 9.67 -1.32 9.34 -2 9 C-2.66 11.31 -3.32 13.62 -4 16 C-4.66 15.67 -5.32 15.34 -6 15 C-5.67 13.68 -5.34 12.36 -5 11 C-5.66 11 -6.32 11 -7 11 C-7 12.65 -7 14.3 -7 16 C-7.33 16 -7.66 16 -8 16 C-7.554711497 21.273153329 -6.916268368 26.017702242 -5 31 C-9.12521724 27.348547205 -10.713399951 22.277988063 -11.1875 16.85546875 C-11.1875 15.235772858 -11.103174878 13.616406423 -11 12 C-11.99 12 -12.98 12 -14 12 C-13.67 12.66 -13.34 13.32 -13 14 C-12.960007998 15.99960012 -12.956532009 18.000472422 -13 20 C-13.33 20 -13.66 20 -14 20 C-14.33 17.69 -14.66 15.38 -15 13 C-16.32 12.67 -17.64 12.34 -19 12 C-18.67 11.34 -18.34 10.68 -18 10 C-14.9375 9.375 -14.9375 9.375 -12 9 C-12 8.34 -12 7.68 -12 7 C-13.32 6.67 -14.64 6.34 -16 6 C-12.553663382 4.276831691 -8.557300635 4.706925142 -4.75 4.57421875 C-1.859665862 4.304543348 -1.859665862 4.304543348 -0.625 1.95703125 C-0.315625 0.988300781 -0.315625 0.988300781 0 0 Z " fill="#3A3730" transform="translate(160,26)" />
<path d="M0 0 C3.3125 0.1875 3.3125 0.1875 6 1 C6 1.66 6 2.32 6 3 C4.02 3.33 2.04 3.66 0 4 C-0.33 5.32 -0.66 6.64 -1 8 C-1.66 8 -2.32 8 -3 8 C-2.855625 8.614882812 -2.71125 9.229765625 -2.5625 9.86328125 C-2.376875 10.671523437 -2.19125 11.479765625 -2 12.3125 C-1.814375 13.113007813 -1.62875 13.913515625 -1.4375 14.73828125 C-1 17 -1 17 -1 20 C-0.689116322 21.670999769 -0.359196678 23.338715366 0 25 C-1.32 24.67 -2.64 24.34 -4 24 C-4 23.01 -4 22.02 -4 21 C-4.99 21.33 -5.98 21.66 -7 22 C-9 19 -9 19 -8.625 16.3125 C-8.41875 15.549375 -8.2125 14.78625 -8 14 C-8.66 14 -9.32 14 -10 14 C-10.33 12.02 -10.66 10.04 -11 8 C-10.01 7.67 -9.02 7.34 -8 7 C-8 6.34 -8 5.68 -8 5 C-7.01 5 -6.02 5 -5 5 C-3.8553125 3.7315625 -3.8553125 3.7315625 -2.6875 2.4375 C-1.800625 1.633125 -0.91375 0.82875 0 0 Z " fill="#58574F" transform="translate(142,32)" />
<path d="M0 0 C5.057377049 1.264344262 5.057377049 1.264344262 7 4 C7.109375 6.26953125 7.109375 6.26953125 6.75 8.8125 C6.632695313 9.70453125 6.515390625 10.5965625 6.39453125 11.515625 C6.100256614 13.368681125 5.776452253 15.217093288 5.4375 17.0625 C4.485876952 23.451969035 4.920672065 29.658948384 6 36 C5.34 36 4.68 36 4 36 C1.693190522 32.368577268 1.853369615 29.416870165 2 25.1875 C2.087046806 19.970132073 1.852918649 15.863911453 0 11 C-0.33 11 -0.66 11 -1 11 C-0.67 7.37 -0.34 3.74 0 0 Z " fill="#AAA89C" transform="translate(117,87)" />
<path d="M0 0 C1.485 0.495 1.485 0.495 3 1 C0.495019024 6.657591181 -3.918996884 9.751398131 -9.125 12.875 C-14.367922485 14.864927398 -20.530247755 14.879314601 -26 14 C-28.8984375 12.16015625 -28.8984375 12.16015625 -31 10 C-31 9.01 -31 8.02 -31 7 C-28.75 6.8125 -28.75 6.8125 -26 7 C-25.13375 7.7425 -25.13375 7.7425 -24.25 8.5 C-20.659124171 10.89391722 -17.182440852 10.612232296 -13 10 C-7.058525154 8.122069557 -3.614210958 4.969540068 0 0 Z " fill="#302E26" transform="translate(43,90)" />
<path d="M0 0 C9.824104235 9.068403909 9.824104235 9.068403909 10.1875 15.125 C7.481839537 21.675546384 3.301832971 25.135530468 -3 28 C-5.4375 27.75 -5.4375 27.75 -7 27 C-6.665228752 23.87546835 -6.025594486 23.022900329 -3.625 20.875 C-1.772254188 19.551610135 0.105549603 18.262966932 2 17 C2.250309771 14.416198225 2.250309771 14.416198225 2 12 C3.32 12.33 4.64 12.66 6 13 C4.68 15.64 3.36 18.28 2 21 C3.32 20.34 4.64 19.68 6 19 C6.81870185 15.437933389 6.81870185 15.437933389 7 12 C6.34 11.67 5.68 11.34 5 11 C3.7109375 9.00390625 3.7109375 9.00390625 2.375 6.5625 C1.928984375 5.759414062 1.48296875 4.956328125 1.0234375 4.12890625 C0 2 0 2 0 0 Z " fill="#3A372E" transform="translate(137,88)" />
<path d="M0 0 C0.99 0.66 1.98 1.32 3 2 C2.67 6.29 2.34 10.58 2 15 C3.98 15 5.96 15 8 15 C8.66 13.68 9.32 12.36 10 11 C9.965195313 11.870117188 9.965195313 11.870117188 9.9296875 12.7578125 C9.81749577 17.614111659 10.124850853 21.429323954 12 26 C9.525 25.01 9.525 25.01 7 24 C7.33 25.32 7.66 26.64 8 28 C6.642648579 26.691125416 5.314945123 25.351471376 4 24 C3.2575 23.319375 2.515 22.63875 1.75 21.9375 C-0.91334071 17.46689238 -0.320333948 13.08085234 0 8 C-1.98 8.99 -1.98 8.99 -4 10 C-3.34 9.278125 -2.68 8.55625 -2 7.8125 C0.153585299 4.784020673 0.411767536 3.602965944 0 0 Z " fill="#434137" transform="translate(65,85)" />
<path d="M0 0 C6.27 0 12.54 0 19 0 C19 0.33 19 0.66 19 1 C13.555 1.495 13.555 1.495 8 2 C7.979375 3.464375 7.95875 4.92875 7.9375 6.4375 C7.925898437 7.261210937 7.914296875 8.084921875 7.90234375 8.93359375 C7.76732652 10.991639381 7.76732652 10.991639381 9 12 C9 8.7 9 5.4 9 2 C9.66 2 10.32 2 11 2 C11.184510251 18.892938497 11.184510251 18.892938497 10 26 C9.67 26 9.34 26 9 26 C8.9175 25.236875 8.835 24.47375 8.75 23.6875 C8.28964921 20.853866256 8.28964921 20.853866256 5.9375 19.75 C4 18 4 18 3.828125 14.86328125 C3.96734375 13.691523437 4.1065625 12.519765625 4.25 11.3125 C4.37890625 10.133007812 4.5078125 8.953515625 4.640625 7.73828125 C4.75921875 6.834648438 4.8778125 5.931015625 5 5 C4.34 6.32 3.68 7.64 3 9 C2.8046875 6.94921875 2.609375 4.8984375 2.4140625 2.84765625 C2.277421875 2.237929687 2.14078125 1.628203125 2 1 C1.34 0.67 0.68 0.34 0 0 Z " fill="#6A685D" transform="translate(78,45)" />
<path d="M0 0 C2.740898242 2.36713939 4.024934825 4.506016456 5 8 C5 13.858222802 1.777419442 17.801753989 -2 22 C-2.66 22.33 -3.32 22.66 -4 23 C-3.722145498 19.727838868 -3.425344367 16.457667403 -3.125 13.1875 C-3.046367188 12.258730469 -2.967734375 11.329960938 -2.88671875 10.373046875 C-2.802929688 9.480371094 -2.719140625 8.587695313 -2.6328125 7.66796875 C-2.55949707 6.845788574 -2.486181641 6.023608398 -2.410644531 5.176513672 C-2 3 -2 3 0 0 Z " fill="#E2E0D4" transform="translate(134,59)" />
<path d="M0 0 C0.33 0.99 0.66 1.98 1 3 C2.925464401 4.149071198 2.925464401 4.149071198 5 4 C5.93213141 10.260396094 6.209271723 15.021970633 4 21 C1.375652529 20.638021038 0.17986311 20.173439427 -1.75 18.3125 C-3.996829553 14.155865326 -3.195119679 10.767470739 -2.0625 6.3125 C-1.38639531 4.204644203 -0.700012401 2.100037202 0 0 Z " fill="#69665C" transform="translate(97,52)" />
<path d="M0 0 C1.32 0 2.64 0 4 0 C3.67 0.99 3.34 1.98 3 3 C3.202821739 5.656314614 3.202821739 5.656314614 3.75 8.5 C3.90984375 9.4590625 4.0696875 10.418125 4.234375 11.40625 C5.062874593 14.213003722 5.981997037 15.004172894 8 17 C8 18.32 8 19.64 8 21 C4.625 21.1875 4.625 21.1875 1 21 C-1.116556298 17.825165552 -1.229291486 17.333009947 -0.9765625 13.76953125 C-0.925 12.967089844 -0.8734375 12.164648438 -0.8203125 11.337890625 C-0.755859375 10.504511719 -0.69140625 9.671132813 -0.625 8.8125 C-0.56828125 7.967519531 -0.5115625 7.122539062 -0.453125 6.251953125 C-0.31179176 4.167287834 -0.157167502 2.083531338 0 0 Z " fill="#6A685D" transform="translate(48,105)" />
<path d="M0 0 C0.66 0 1.32 0 2 0 C0.367068499 14.408219131 0.367068499 14.408219131 -1.6875 20.5625 C-3.41333213 25.862644357 -2.945144745 29.10971051 -0.4375 34.125 C1 37 1 37 1 41 C-1.852784831 40.704884328 -2.835788233 40.187670591 -4.75 38 C-8.042142757 30.098857384 -5.25510086 22.591000368 -3.0234375 14.75390625 C-1.69506519 9.881517738 -0.787579804 4.984551128 0 0 Z " fill="#E8E6DB" transform="translate(121,45)" />
<path d="M0 0 C3.875 0.875 3.875 0.875 5 2 C5.867032082 7.924719228 3.288351542 11.372819616 0 16 C-1.625430798 15.859049359 -3.250340514 15.712079131 -4.875 15.5625 C-5.779921875 15.481289062 -6.68484375 15.400078125 -7.6171875 15.31640625 C-10 15 -10 15 -12 14 C-11.67 13.34 -11.34 12.68 -11 12 C-10.360625 12.185625 -9.72125 12.37125 -9.0625 12.5625 C-8.0415625 12.7790625 -8.0415625 12.7790625 -7 13 C-6.67 12.67 -6.34 12.34 -6 12 C-5.34 12.33 -4.68 12.66 -4 13 C-4.33 12.34 -4.66 11.68 -5 11 C-5.134154724 8.327637905 -5.043185405 5.677495116 -5 3 C-4.67 3.99 -4.34 4.98 -4 6 C-2.02 5.67 -0.04 5.34 2 5 C2 4.34 2 3.68 2 3 C1.34 2.67 0.68 2.34 0 2 C0 1.34 0 0.68 0 0 Z " fill="#DFDDD4" transform="translate(167,43)" />
<path d="M0 0 C0.33 0 0.66 0 1 0 C1.048984375 0.663867188 1.09796875 1.327734375 1.1484375 2.01171875 C1.711258123 8.711223601 1.711258123 8.711223601 4 15 C4.66 15 5.32 15 6 15 C6 15.66 6 16.32 6 17 C5.01 17 4.02 17 3 17 C3 18.65 3 20.3 3 22 C2.67 22 2.34 22 2 22 C1.505 19.03 1.505 19.03 1 16 C0.214960937 16.144375 -0.570078125 16.28875 -1.37890625 16.4375 C-11.50506591 18.226661952 -18.38102957 18.131488474 -28.20703125 14.875 C-30.830284647 13.900347047 -30.830284647 13.900347047 -33 14 C-33.66 14.66 -34.32 15.32 -35 16 C-35.33 13.36 -35.66 10.72 -36 8 C-35.195625 8.598125 -34.39125 9.19625 -33.5625 9.8125 C-24.81332465 15.516718732 -14.753255815 16.444476004 -4.546875 14.54296875 C-2.485508924 13.991207699 -2.485508924 13.991207699 0 13 C0 8.71 0 4.42 0 0 Z " fill="#3F3D35" transform="translate(114,70)" />
</svg>