<?xml version='1.0' encoding='utf-8'?>
<svg xmlns="http://www.w3.org/2000/svg" version="1.1" width="153" height="103" viewBox="18.225413283 11.0 153.899586717 103.88953125">
<path d="M0 0 C12.154486702 -0.777656732 20.923397078 -0.189396694 30.97265625 7.51171875 C40.099033647 16.430206001 44.789238589 31.743545324 49.02734375 43.53125 C49.974965668 46.191129675 49.974965668 46.191129675 52 49 C52.125 51.6875 52.125 51.6875 52 54 C51.01 54 50.02 54 49 54 C47.56848664 50.651816032 46.646118246 47.501587324 45.9375 43.9375 C44.454191128 37.789069442 42.078990821 32.189046616 39.5 26.4375 C39.108044434 25.556345215 38.716088867 24.67519043 38.312255859 23.767333984 C36.55169751 19.927569237 35.151443335 16.875227381 32 14 C31.34 13.34 30.68 12.68 30 12 C29.957582768 14.332947754 29.959070626 16.667025669 30 19 C30.33 19.33 30.66 19.66 31 20 C31.33 18.35 31.66 16.7 32 15 C32.33 15 32.66 15 33 15 C32.268968109 25.465298654 32.268968109 25.465298654 30.875 30.25 C29.920109459 34.342388034 30.003241903 36.936293911 31 41 C31.508051758 41.77859375 32.016103516 42.5571875 32.539550781 43.359375 C34.230354209 46.416501358 34.320327332 48.102407063 34.1796875 51.5625 C34.1384375 52.606640625 34.0971875 53.65078125 34.0546875 54.7265625 C33.965742187 56.346914063 33.965742187 56.346914063 33.875 58 C33.83890625 59.080234375 33.8028125 60.16046875 33.765625 61.2734375 C33.329889793 70.561477435 33.329889793 70.561477435 30 75 C27.3125 75.3125 27.3125 75.3125 25 75 C25.573449373 72.132753136 25.861451504 71.138548496 28 69 C28.542238645 62.428802857 28.466253322 55.451514615 27 49 C26.34 48.67 25.68 48.34 25 48 C22.308869847 52.999332696 19.925344743 57.815740256 18.4375 63.3125 C17.295597937 67.324929347 16.252669068 70.199090525 13 73 C9.25 73.8125 9.25 73.8125 6 74 C6.1875 72.1875 6.1875 72.1875 7 70 C8.175625 69.416054688 8.175625 69.416054688 9.375 68.8203125 C12.871701612 66.395516442 13.652578535 63.600808811 14.8125 59.6875 C15.028417969 59.035878906 15.244335937 58.384257813 15.466796875 57.712890625 C17.142445184 52.398691702 18.011499634 48.251790851 15.6875 43.078125 C15.130625 42.14484375 14.57375 41.2115625 14 40.25 C11 35.166666667 11 35.166666667 11 33 C10.32453125 33.300351562 9.6490625 33.600703125 8.953125 33.91015625 C8.06109375 34.290429688 7.1690625 34.670703125 6.25 35.0625 C5.36828125 35.445351563 4.4865625 35.828203125 3.578125 36.22265625 C0.847436908 37.046000084 -0.369013469 36.977399202 -3 36 C-1.257053217 35.131531689 0.494686628 34.280693727 2.25 33.4375 C3.22453125 32.961835937 4.1990625 32.486171875 5.203125 31.99609375 C8.196535305 30.930004884 9.159166648 30.696010921 12 32 C14.140625 33.62890625 14.140625 33.62890625 16.25 35.5625 C17.309609375 36.523496094 17.309609375 36.523496094 18.390625 37.50390625 C18.92171875 37.997617187 19.4528125 38.491328125 20 39 C18.543312166 36.032168711 16.987679135 33.135846874 15.375 30.25 C14.928984375 29.45078125 14.48296875 28.6515625 14.0234375 27.828125 C13.685703125 27.22484375 13.34796875 26.6215625 13 26 C12.34 27.32 11.68 28.64 11 30 C9.407264282 26.814528564 10.238358794 24.398091534 11 21 C12.313831027 19.647445532 13.649559117 18.316003411 15 17 C16.092781351 15.345142117 17.134967761 13.655802028 18.125 11.9375 C19.694555538 9.233472972 21.264535066 6.603197401 23 4 C17.636020039 6.383991094 16.235596388 9.913774156 14 15 C12.567281434 18.101200946 11.125043396 20.166608805 9 23 C9.33 19.04 9.66 15.08 10 11 C8.288782463 15.521509752 7.647763876 19.556171527 7.375 24.375 C7.300234375 25.620234375 7.22546875 26.86546875 7.1484375 28.1484375 C7.099453125 29.089453125 7.05046875 30.03046875 7 31 C6.67 31 6.34 31 6 31 C6 25.72 6 20.44 6 15 C5.01 16.485 5.01 16.485 4 18 C4.674768341 11.252316585 6.166308625 6.833691375 11 2 C7.37 2 3.74 2 0 2 C0 1.34 0 0.68 0 0 Z " fill="#6F6D63" transform="translate(110,29)" />
<path d="M0 0 C4.62 0 9.24 0 14 0 C14 0.33 14 0.66 14 1 C9.71 1 5.42 1 1 1 C2.05978933 2.286126757 2.05978933 2.286126757 4.50390625 2.09765625 C5.513242187 2.086054687 6.522578125 2.074453125 7.5625 2.0625 C8.574414062 2.053476563 9.586328125 2.044453125 10.62890625 2.03515625 C11.411367188 2.023554687 12.193828125 2.011953125 13 2 C12.475996094 2.670957031 12.475996094 2.670957031 11.94140625 3.35546875 C8.290809661 8.175743005 8.290809661 8.175743005 7 14 C7.368568637 16.231671853 7.368568637 16.231671853 8 18 C8.99 15.69 9.98 13.38 11 11 C12 14 12 14 12 16 C12.66 16 13.32 16 14 16 C14.253945313 15.457304687 14.507890625 14.914609375 14.76953125 14.35546875 C15.113710938 13.640039063 15.457890625 12.924609375 15.8125 12.1875 C16.148945312 11.479804687 16.485390625 10.772109375 16.83203125 10.04296875 C18.033130716 7.942048948 19.109694873 6.509387217 21 5 C21.99 5 22.98 5 24 5 C22.334120747 8.45669945 20.436824562 11.751022412 18.5 15.0625 C17.58734375 16.626777344 17.58734375 16.626777344 16.65625 18.22265625 C15.488965319 20.180060515 14.26417927 22.103731095 13 24 C13 24.99 13 25.98 13 27 C13.66 26.67 14.32 26.34 15 26 C16.146197304 28.124804403 17.291972922 30.249834306 18.4375 32.375 C18.762988281 32.97828125 19.088476563 33.5815625 19.423828125 34.203125 C21.88671875 38.7734375 21.88671875 38.7734375 23 41 C19.990225488 39.649882331 17.919255389 38.103941152 15.5625 35.8125 C12.94594744 33.446003295 12.94594744 33.446003295 9.5625 32.875 C5.968332594 34.452927154 2.468160367 36.162564044 -1 38 C-4.309947128 39.654973564 -7.991230005 39.100843352 -11.625 39.0625 C-12.426796875 39.057988281 -13.22859375 39.053476563 -14.0546875 39.048828125 C-16.036490061 39.037031681 -18.018254334 39.01909605 -20 39 C-16.666666667 32.333333333 -13.333333333 25.666666667 -10 19 C-9 22 -9 22 -9.77734375 23.9375 C-10.160195313 24.618125 -10.543046875 25.29875 -10.9375 26 C-12.467697386 28.738793966 -13 29.777755644 -13 33 C-12.01 33 -11.02 33 -10 33 C-9.853046875 31.783769531 -9.853046875 31.783769531 -9.703125 30.54296875 C-8.20845241 19.474660521 -4.632800526 10.09288686 0 0 Z " fill="#666458" transform="translate(109,28)" />
<path d="M0 0 C0.408632813 0.480820313 0.817265625 0.961640625 1.23828125 1.45703125 C3.325150906 3.284777401 4.459760198 3.46391477 7.1875 3.6875 C9.0746875 3.8421875 9.0746875 3.8421875 11 4 C10.01 4.33 9.02 4.66 8 5 C6.781300713 7.504475158 6.781300713 7.504475158 6 10 C11.281995933 11.199880454 11.281995933 11.199880454 16 9 C15.67 10.65 15.34 12.3 15 14 C17.475 14.99 17.475 14.99 20 16 C19.01 16.33 18.02 16.66 17 17 C16.266655707 20.977541285 16.266655707 20.977541285 16 25 C15.625 27.0625 15.625 27.0625 15 29 C14.34 29.33 13.68 29.66 13 30 C13.33 30.99 13.66 31.98 14 33 C16.475 27.555 16.475 27.555 19 22 C19.66 22.33 20.32 22.66 21 23 C19.45730076 27.720659673 17.922053809 32.416640917 16 37 C16.66 37 17.32 37 18 37 C18.33 35.35 18.66 33.7 19 32 C19.144375 32.639375 19.28875 33.27875 19.4375 33.9375 C19.810071813 35.975451459 19.810071813 35.975451459 21 37 C21.33 37.99 21.66 38.98 22 40 C22.99 39.01 23.98 38.02 25 37 C25.495 40.96 25.495 40.96 26 45 C26.66 44.01 27.32 43.02 28 42 C29.354396677 44.708793354 29.065014507 47.009332677 29 50 C30.32 50 31.64 50 33 50 C32.988398437 50.689648437 32.976796875 51.379296875 32.96484375 52.08984375 C32.906578758 58.157726515 33.210960519 63.983573959 34 70 C31.722978262 66.584467393 31.281757876 63.929699708 30.5625 59.9609375 C30.376875 59.313828125 30.19125 58.66671875 30 58 C29.01 57.505 29.01 57.505 28 57 C27.742801834 54.974564439 27.491578785 52.946497763 27.34375 50.91015625 C27.145237875 48.764778443 27.145237875 48.764778443 25 47 C24.972807 48.583236878 24.953516945 50.16661062 24.9375 51.75 C24.925898437 52.63171875 24.914296875 53.5134375 24.90234375 54.421875 C24.991738023 56.781883795 25.330871789 58.744985243 26 61 C26.66 60.01 27.32 59.02 28 58 C27.036446469 70.669703872 27.036446469 70.669703872 26 76 C25.01 75.67 24.02 75.34 23 75 C22.962415771 74.071029053 22.962415771 74.071029053 22.924072266 73.123291016 C22.806773422 70.269551124 22.684664144 67.416035595 22.5625 64.5625 C22.523183594 63.588613281 22.483867188 62.614726563 22.443359375 61.611328125 C22.318482772 58.739166257 22.165514136 55.870085555 22 53 C21.941750488 51.735187988 21.941750488 51.735187988 21.882324219 50.444824219 C21.411695171 43.827203524 19.255765974 41.003688974 14.2734375 36.578125 C13.316953125 35.80984375 12.36046875 35.0415625 11.375 34.25 C10.413359375 33.47140625 9.45171875 32.6928125 8.4609375 31.890625 C6.167084609 30.004264412 6.167084609 30.004264412 4 29 C4 26.03 4 23.06 4 20 C3.34 19.67 2.68 19.34 2 19 C1.375 16.4375 1.375 16.4375 1 14 C0.67 15.32 0.34 16.64 0 18 C-0.33 18 -0.66 18 -1 18 C-0.67 15.69 -0.34 13.38 0 11 C-1.98 11.99 -1.98 11.99 -4 13 C-3.34 11.35 -2.68 9.7 -2 8 C-3.396654366 7.894280565 -3.396654366 7.894280565 -5.4375 10 C-8 12 -8 12 -10 12 C-10.268125 12.598125 -10.53625 13.19625 -10.8125 13.8125 C-11.98493467 15.972248076 -13.193692818 17.357902562 -15 19 C-12.477741964 10.928774286 -6.502885942 5.079177186 0 0 Z " fill="#636155" transform="translate(51,21)" />
<path d="M0 0 C6.6 0.66 13.2 1.32 20 2 C18.374774927 6.87567522 16.821177518 11.521740643 14.9375 16.25 C12.674162761 22.363612081 11.779277124 28.550456432 11 35 C9.02 35.495 9.02 35.495 7 36 C6.131001816 33.562432768 5.852812656 32.392006495 6.77734375 29.9296875 C7.160195313 29.251640625 7.543046875 28.57359375 7.9375 27.875 C9.576417017 25.100560275 9.576417017 25.100560275 10 22 C9.445703125 23.120195313 8.89140625 24.240390625 8.3203125 25.39453125 C7.588648092 26.867240379 6.856871392 28.339893722 6.125 29.8125 C5.760195313 30.550488281 5.395390625 31.288476563 5.01953125 32.048828125 C4.665039062 32.761035156 4.310546875 33.473242187 3.9453125 34.20703125 C3.458288574 35.188934326 3.458288574 35.188934326 2.961425781 36.190673828 C2 38 2 38 0 41 C8.415 40.505 8.415 40.505 17 40 C13.95318939 42.031207073 13.398816763 42.246598748 9.98828125 42.1953125 C9.230957031 42.188867187 8.473632812 42.182421875 7.693359375 42.17578125 C6.907675781 42.159023437 6.121992187 42.142265625 5.3125 42.125 C4.515214844 42.115976563 3.717929688 42.106953125 2.896484375 42.09765625 C0.930860997 42.07411585 -1.03460775 42.038245471 -3 42 C-2.836289063 43.1653125 -2.672578125 44.330625 -2.50390625 45.53125 C-2.003054156 49.538066748 -1.898643005 53.458872475 -1.9375 57.5 C-1.946523438 58.7271875 -1.955546875 59.954375 -1.96484375 61.21875 C-1.982246094 62.59546875 -1.982246094 62.59546875 -2 64 C-2.33 64 -2.66 64 -3 64 C-3.340879294 60.063116131 -3.671285013 56.125416704 -4 52.1875 C-4.143085938 50.537177734 -4.143085938 50.537177734 -4.2890625 48.853515625 C-5.157273681 38.341958832 -5.855450437 28.924195237 -2.5 18.8125 C-2.261523438 18.051308594 -2.023046875 17.290117188 -1.77734375 16.505859375 C-1.198814963 14.666137831 -0.601474186 12.832348144 0 11 C-0.33 11 -0.66 11 -1 11 C-1 8 -1 8 1.5 5.3125 C2.325 4.549375 3.15 3.78625 4 3 C2.68 2.01 1.36 1.02 0 0 Z " fill="#4D4B3F" transform="translate(89,26)" />
<path d="M0 0 C0 3.575758958 -1.088406067 5.052959353 -3 8 C-2.34 8 -1.68 8 -1 8 C-0.67 7.01 -0.34 6.02 0 5 C0.66 5.33 1.32 5.66 2 6 C2 6.66 2 7.32 2 8 C2.66 8.66 3.32 9.32 4 10 C4.5625 11.9375 4.5625 11.9375 5 14 C5.33 14.99 5.66 15.98 6 17 C5.722300924 19.340606498 5.394600231 21.676243082 5 24 C4.03578125 24.265546875 3.0715625 24.53109375 2.078125 24.8046875 C0.81484375 25.157890625 -0.4484375 25.51109375 -1.75 25.875 C-3.00296875 26.223046875 -4.2559375 26.57109375 -5.546875 26.9296875 C-8.264624988 27.772067021 -10.49816146 28.706142997 -13 30 C-16.782703218 30.369044216 -17.730360513 30.179759658 -21 28 C-21.774586717 22.892834834 -19.481106815 20.159201186 -16.65625 16.1484375 C-14.634379351 13.525727932 -12.437101207 11.239498406 -10 9 C-9.533359375 8.526914062 -9.06671875 8.053828125 -8.5859375 7.56640625 C-6.892742242 5.894063151 -5.126423446 4.352623681 -3.3125 2.8125 C-2.689882813 2.282695312 -2.067265625 1.752890625 -1.42578125 1.20703125 C-0.955273437 0.808710937 -0.484765625 0.410390625 0 0 Z " fill="#848275" transform="translate(50,26)" />
<path d="M0 0 C12.154486702 -0.777656732 20.923397078 -0.189396694 30.97265625 7.51171875 C40.099033647 16.430206001 44.789238589 31.743545324 49.02734375 43.53125 C49.974965668 46.191129675 49.974965668 46.191129675 52 49 C52.125 51.6875 52.125 51.6875 52 54 C51.01 54 50.02 54 49 54 C47.56848664 50.651816032 46.646118246 47.501587324 45.9375 43.9375 C44.466671334 37.849482378 42.124481751 32.316277965 39.5625 26.625 C39.17892334 25.768981934 38.79534668 24.912963867 38.400146484 24.031005859 C34.963587496 15.609859648 34.963587496 15.609859648 28.5 9.9375 C25.403531655 10.014911709 24.237288505 10.92843657 22 13 C23.20381448 10.506384291 24.454287219 8.318569172 26 6 C25.01 6 24.02 6 23 6 C23 5.34 23 4.68 23 4 C17.636020039 6.383991094 16.235596388 9.913774156 14 15 C12.567281434 18.101200946 11.125043396 20.166608805 9 23 C9.33 19.04 9.66 15.08 10 11 C8.288782463 15.521509752 7.647763876 19.556171527 7.375 24.375 C7.300234375 25.620234375 7.22546875 26.86546875 7.1484375 28.1484375 C7.099453125 29.089453125 7.05046875 30.03046875 7 31 C6.67 31 6.34 31 6 31 C6 25.72 6 20.44 6 15 C5.01 16.485 5.01 16.485 4 18 C4.674768341 11.252316585 6.166308625 6.833691375 11 2 C7.37 2 3.74 2 0 2 C0 1.34 0 0.68 0 0 Z " fill="#312E25" transform="translate(110,29)" />
<path d="M0 0 C0.66 0.33 1.32 0.66 2 1 C0.45730076 5.720659673 -1.077946191 10.416640917 -3 15 C-2.34 15 -1.68 15 -1 15 C-0.67 13.35 -0.34 11.7 0 10 C0.144375 10.639375 0.28875 11.27875 0.4375 11.9375 C0.810071813 13.975451459 0.810071813 13.975451459 2 15 C2.33 15.99 2.66 16.98 3 18 C3.99 17.01 4.98 16.02 6 15 C6.33 17.64 6.66 20.28 7 23 C7.66 22.01 8.32 21.02 9 20 C10.354396677 22.708793354 10.065014507 25.009332677 10 28 C11.32 28 12.64 28 14 28 C13.988398437 28.689648437 13.976796875 29.379296875 13.96484375 30.08984375 C13.906578758 36.157726515 14.210960519 41.983573959 15 48 C12.722978262 44.584467393 12.281757876 41.929699708 11.5625 37.9609375 C11.376875 37.313828125 11.19125 36.66671875 11 36 C10.34 35.67 9.68 35.34 9 35 C8.742801834 32.974564439 8.491578785 30.946497763 8.34375 28.91015625 C8.145237875 26.764778443 8.145237875 26.764778443 6 25 C5.972807 26.583236878 5.953516945 28.16661062 5.9375 29.75 C5.925898437 30.63171875 5.914296875 31.5134375 5.90234375 32.421875 C5.991738023 34.781883795 6.330871789 36.744985243 7 39 C7.66 38.01 8.32 37.02 9 36 C8.036446469 48.669703872 8.036446469 48.669703872 7 54 C5.515 53.505 5.515 53.505 4 53 C3.974943848 52.380686035 3.949887695 51.76137207 3.924072266 51.123291016 C3.806773422 48.269551124 3.684664144 45.416035595 3.5625 42.5625 C3.523183594 41.588613281 3.483867187 40.614726563 3.443359375 39.611328125 C3.318482772 36.739166257 3.165514136 33.870085555 3 31 C2.941750488 29.735187988 2.941750488 29.735187988 2.882324219 28.444824219 C2.411695171 21.827203524 0.255765974 19.003688974 -4.7265625 14.578125 C-5.683046875 13.80984375 -6.63953125 13.0415625 -7.625 12.25 C-8.586640625 11.47140625 -9.54828125 10.6928125 -10.5390625 9.890625 C-12.832915391 8.004264412 -12.832915391 8.004264412 -15 7 C-15 6.01 -15 5.02 -15 4 C-11 4 -11 4 -9 5 C-6.876159267 7.123840733 -5.984541998 8.046374005 -5 11 C-3.35 7.37 -1.7 3.74 0 0 Z " fill="#3E3B32" transform="translate(70,43)" />
<path d="M0 0 C3.921875 2.625 3.921875 2.625 4.625 6 C4.74875 6.99 4.8725 7.98 5 9 C5.99 10.485 5.99 10.485 7 12 C7.607198385 14.086199957 8.141251478 16.194267835 8.625 18.3125 C9.015585937 19.977324219 9.015585937 19.977324219 9.4140625 21.67578125 C9.980245323 24.887925131 10.20799232 27.747756452 10 31 C8.625 32.6875 8.625 32.6875 7 34 C6.34 34.99 5.68 35.98 5 37 C4.01 37 3.02 37 2 37 C0.43593472 37.151274017 -1.126592521 37.31902522 -2.6875 37.5 C-3.495742187 37.5928125 -4.303984375 37.685625 -5.13671875 37.78125 C-6.059042969 37.88953125 -6.059042969 37.88953125 -7 38 C-7 34 -7 34 -4.625 31.25 C-2 29 -2 29 0 29 C0 27.35 0 25.7 0 24 C0.66 24 1.32 24 2 24 C2 23.01 2 22.02 2 21 C1.67 21 1.34 21 1 21 C0.146267611 13.971953008 -0.121093106 7.077219306 0 0 Z " fill="#B9B6AE" transform="translate(75,67)" />
<path d="M0 0 C0.66 0.33 1.32 0.66 2 1 C1.195625 1.886875 0.39125 2.77375 -0.4375 3.6875 C-2.699542297 6.410922029 -3.80926387 8.376013533 -4 12 C-3.631431363 14.231671853 -3.631431363 14.231671853 -3 16 C-2.01 13.69 -1.02 11.38 0 9 C1 12 1 12 1 14 C1.66 14 2.32 14 3 14 C3.253945313 13.457304687 3.507890625 12.914609375 3.76953125 12.35546875 C4.113710938 11.640039063 4.457890625 10.924609375 4.8125 10.1875 C5.317167969 9.125957031 5.317167969 9.125957031 5.83203125 8.04296875 C7.033130716 5.942048948 8.109694873 4.509387217 10 3 C10.99 3 11.98 3 13 3 C11.334120747 6.45669945 9.436824562 9.751022412 7.5 13.0625 C6.58734375 14.626777344 6.58734375 14.626777344 5.65625 16.22265625 C4.488965319 18.180060515 3.26417927 20.103731095 2 22 C2 22.99 2 23.98 2 25 C2.66 24.67 3.32 24.34 4 24 C5.146197304 26.124804403 6.291972922 28.249834306 7.4375 30.375 C7.762988281 30.97828125 8.088476563 31.5815625 8.423828125 32.203125 C10.88671875 36.7734375 10.88671875 36.7734375 12 39 C8.990606837 37.655935515 7.002030671 36.13807855 4.6875 33.8125 C1.702838895 31.14439386 1.347923244 30.988954818 -2.9375 31.125 C-3.948125 31.41375 -4.95875 31.7025 -6 32 C-6 30.35 -6 28.7 -6 27 C-6.66 27.33 -7.32 27.66 -8 28 C-8.439345473 16.414297145 -8.070801562 8.725190878 0 0 Z " fill="#A9A89D" transform="translate(120,30)" />
<path d="M0 0 C0.99 0 1.98 0 3 0 C3 0.66 3 1.32 3 2 C5.475 2.495 5.475 2.495 8 3 C6.02 5.31 4.04 7.62 2 10 C2.99 9.67 3.98 9.34 5 9 C4.818242188 9.522070312 4.636484375 10.044140625 4.44921875 10.58203125 C2.374409571 16.657498127 0.63584831 22.793057831 -1 29 C-3.429451599 25.355822601 -3.161795746 23.287587281 -3 19 C-3.66 19.99 -4.32 20.98 -5 22 C-6.236979167 20.470052083 -7.473958333 18.940104167 -8.7109375 17.41015625 C-9.9666391 15.867335627 -9.9666391 15.867335627 -12 15 C-11.108706327 9.206591127 -7.165591019 4.868048803 -3 1 C-2.34 1.33 -1.68 1.66 -1 2 C-1.33 2.66 -1.66 3.32 -2 4 C-1.34 2.68 -0.68 1.36 0 0 Z " fill="#98968A" transform="translate(86,25)" />
<path d="M0 0 C2.359375 1.84765625 2.359375 1.84765625 4.75 4.0625 C5.54921875 4.795976563 6.3484375 5.529453125 7.171875 6.28515625 C7.77515625 6.851054687 8.3784375 7.416953125 9 8 C8.01 8.33 7.02 8.66 6 9 C6.165 9.5775 6.33 10.155 6.5 10.75 C7 13 7 13 7 17 C8.32 17 9.64 17 11 17 C10.223606798 13.925464401 10.223606798 13.925464401 8 12 C8.66 12 9.32 12 10 12 C10.33 11.34 10.66 10.68 11 10 C12.65 11.65 14.3 13.3 16 15 C15.67 15.66 15.34 16.32 15 17 C14.34 16.67 13.68 16.34 13 16 C10.308869847 20.999332696 7.925344743 25.815740256 6.4375 31.3125 C5.295597937 35.324929347 4.252669068 38.199090525 1 41 C-2.75 41.8125 -2.75 41.8125 -6 42 C-5.8125 40.1875 -5.8125 40.1875 -5 38 C-3.824375 37.416054688 -3.824375 37.416054688 -2.625 36.8203125 C0.871701612 34.395516442 1.652578535 31.600808811 2.8125 27.6875 C3.028417969 27.035878906 3.244335937 26.384257812 3.466796875 25.712890625 C5.142445184 20.398691702 6.011499634 16.251790851 3.6875 11.078125 C3.130625 10.14484375 2.57375 9.2115625 2 8.25 C-1 3.166666667 -1 3.166666667 -1 1 C-1.67546875 1.300351562 -2.3509375 1.600703125 -3.046875 1.91015625 C-4.384921875 2.480566406 -4.384921875 2.480566406 -5.75 3.0625 C-6.63171875 3.445351562 -7.5134375 3.828203125 -8.421875 4.22265625 C-11.152563092 5.046000084 -12.369013469 4.977399202 -15 4 C-13.257053217 3.131531689 -11.505313372 2.280693727 -9.75 1.4375 C-8.77546875 0.961835937 -7.8009375 0.486171875 -6.796875 -0.00390625 C-3.78496558 -1.076583488 -2.850639804 -1.333363779 0 0 Z " fill="#444139" transform="translate(122,61)" />
<path d="M0 0 C0.721875 0.103125 1.44375 0.20625 2.1875 0.3125 C1.92453125 0.829414062 1.6615625 1.346328125 1.390625 1.87890625 C-0.142525868 4.980052324 -1.602943692 8.113796408 -3.0625 11.25 C-3.368974609 11.906616211 -3.675449219 12.563232422 -3.991210938 13.239746094 C-5.507078679 16.491274577 -7.013945573 19.746448685 -8.5 23.01171875 C-9.015625 24.142226562 -9.53125 25.272734375 -10.0625 26.4375 C-10.52140625 27.450703125 -10.9803125 28.46390625 -11.453125 29.5078125 C-12.773610406 32.232262274 -14.107023842 34.809301123 -15.8125 37.3125 C-16.4725 37.3125 -17.1325 37.3125 -17.8125 37.3125 C-17.262338803 32.790443332 -16.075599778 29.447766748 -13.9375 25.4375 C-11.530548803 20.797175817 -9.521130237 16.248542907 -7.8125 11.3125 C-10.545226144 17.285612876 -13.257426323 23.261009712 -15.8125 29.3125 C-16.1425 29.3125 -16.4725 29.3125 -16.8125 29.3125 C-17.242320846 21.432451164 -16.142813147 14.747163301 -10.9375 8.5625 C-9.905804281 7.469666756 -8.86449769 6.385803972 -7.8125 5.3125 C-6.966875 4.343125 -6.12125 3.37375 -5.25 2.375 C-2.8125 0.3125 -2.8125 0.3125 0 0 Z " fill="#9B998C" transform="translate(103.8125,28.6875)" />
<path d="M0 0 C1 3 1 3 0.22265625 4.9375 C-0.160195313 5.618125 -0.543046875 6.29875 -0.9375 7 C-2.467697386 9.738793966 -3 10.777755644 -3 14 C-2.01 14 -1.02 14 0 14 C0.28875 13.360625 0.5775 12.72125 0.875 12.0625 C2 10 2 10 4 9 C4.66 9.66 5.32 10.32 6 11 C5.625 13.625 5.625 13.625 5 16 C5.66 16 6.32 16 7 16 C7 12.04 7 8.08 7 4 C7.66 4.66 8.32 5.32 9 6 C9.33 4.02 9.66 2.04 10 0 C10.33 0 10.66 0 11 0 C11.33 4.29 11.66 8.58 12 13 C12.66 13 13.32 13 14 13 C13.75 14.875 13.75 14.875 13 17 C11.0625 18.1875 11.0625 18.1875 9 19 C8.34 19.33 7.68 19.66 7 20 C4.11629667 20.071948686 1.257603362 20.092917081 -1.625 20.0625 C-2.426796875 20.057988281 -3.22859375 20.053476562 -4.0546875 20.048828125 C-6.036490061 20.037031681 -8.018254334 20.01909605 -10 20 C-6.666666667 13.333333333 -3.333333333 6.666666667 0 0 Z " fill="#939185" transform="translate(99,47)" />
<path d="M0 0 C6.6 0.66 13.2 1.32 20 2 C18.374774927 6.87567522 16.821177518 11.521740643 14.9375 16.25 C12.674162761 22.363612081 11.779277124 28.550456432 11 35 C9.02 35.495 9.02 35.495 7 36 C6.131001816 33.562432768 5.852812656 32.392006495 6.77734375 29.9296875 C7.160195312 29.251640625 7.543046875 28.57359375 7.9375 27.875 C9.576417017 25.100560275 9.576417017 25.100560275 10 22 C9.445703125 23.143398437 8.89140625 24.286796875 8.3203125 25.46484375 C7.588858484 26.955884628 6.857070333 28.446761624 6.125 29.9375 C5.760195313 30.692246094 5.395390625 31.446992188 5.01953125 32.224609375 C4.665039062 32.943261719 4.310546875 33.661914063 3.9453125 34.40234375 C3.458288574 35.399957275 3.458288574 35.399957275 2.961425781 36.417724609 C2 38 2 38 0 39 C10.66976357 12.209873394 10.66976357 12.209873394 17 3 C16.312929688 3 15.625859375 3 14.91796875 3 C4 3 4 3 0 0 Z " fill="#424034" transform="translate(89,26)" />
<path d="M0 0 C1.9375 0.375 1.9375 0.375 4 1 C4.33 1.66 4.66 2.32 5 3 C5.639375 3.28875 6.27875 3.5775 6.9375 3.875 C9 5 9 5 10.33203125 6.68359375 C11 9 11 9 9.734375 11.98046875 C9.07953125 13.038789063 8.4246875 14.097109375 7.75 15.1875 C6.783203125 16.786582031 6.783203125 16.786582031 5.796875 18.41796875 C4 21 4 21 2 22 C2 20.02 2 18.04 2 16 C1.67 17.32 1.34 18.64 1 20 C0.34 20 -0.32 20 -1 20 C-0.216092493 15.139773455 1.405910726 10.643651365 3 6 C1.02 9.63 -0.96 13.26 -3 17 C-3.66 16.67 -4.32 16.34 -5 16 C-4.67 14.68 -4.34 13.36 -4 12 C-3.34 12 -2.68 12 -2 12 C-2.226875 11.319375 -2.45375 10.63875 -2.6875 9.9375 C-3.122901761 5.84472345 -1.798367849 3.668670411 0 0 Z " fill="#8F8D82" transform="translate(68,38)" />
<path d="M0 0 C0.66 0.66 1.32 1.32 2 2 C2.99 1.67 3.98 1.34 5 1 C5.66 1.66 6.32 2.32 7 3 C6.71125 3.542695313 6.4225 4.085390625 6.125 4.64453125 C4.429305853 8.194890871 3.262174636 11.914289647 2 15.63671875 C1 18 1 18 -1 19 C-1.66 19.99 -2.32 20.98 -3 22 C-2.67 18.04 -2.34 14.08 -2 10 C-3.711217537 14.521509752 -4.352236124 18.556171527 -4.625 23.375 C-4.699765625 24.620234375 -4.77453125 25.86546875 -4.8515625 27.1484375 C-4.900546875 28.089453125 -4.94953125 29.03046875 -5 30 C-5.33 30 -5.66 30 -6 30 C-6 24.72 -6 19.44 -6 14 C-6.66 14.99 -7.32 15.98 -8 17 C-7.279491268 9.794912678 -5.445331414 4.882021268 0 0 Z " fill="#5B5A4E" transform="translate(122,30)" />
<path d="M0 0 C0 3.999049693 -1.72586967 5.802004223 -4 9 C-3.01 9 -2.02 9 -1 9 C-0.34 13.62 0.32 18.24 1 23 C-11.75 28 -11.75 28 -14 28 C-13.649278747 25.104955473 -13.145459522 24.130336131 -10.93359375 22.1484375 C-10.109882812 21.563203125 -9.286171875 20.97796875 -8.4375 20.375 C-6.925437159 19.294618126 -5.436879481 18.178531453 -4 17 C-3.894590745 14.789181489 -3.894590745 14.789181489 -5 12 C-6.98 12 -8.96 12 -11 12 C-9.631940553 7.074985992 -7.261694614 5.609200784 -3 3 C-1.206055541 1.376488908 -1.206055541 1.376488908 0 0 Z " fill="#E1DFD3" transform="translate(50,26)" />
<path d="M0 0 C5.414590561 2.399109303 6.959170899 6.074479468 9.3125 11.1875 C9.671503906 11.937089844 10.030507812 12.686679688 10.400390625 13.458984375 C11.27980541 15.299892659 12.141672858 17.149165542 13 19 C10.992709197 22.010936204 10.161157756 22.630164973 7 24 C2.059196617 19.300211416 2.059196617 19.300211416 1.890625 15.59765625 C2.158867082 13.363482071 2.507338685 11.195025659 3 9 C2.34 10.32 1.68 11.64 1 13 C-0.102286958 8.590852169 -0.076545356 4.516175988 0 0 Z " fill="#E0DED4" transform="translate(139,40)" />
<path d="M0 0 C0.408632813 0.480820313 0.817265625 0.961640625 1.23828125 1.45703125 C3.325150906 3.284777401 4.459760198 3.46391477 7.1875 3.6875 C9.0746875 3.8421875 9.0746875 3.8421875 11 4 C10.01 4.33 9.02 4.66 8 5 C6.781300713 7.504475158 6.781300713 7.504475158 6 10 C11.281995933 11.199880454 11.281995933 11.199880454 16 9 C15.67 10.65 15.34 12.3 15 14 C17.475 14.99 17.475 14.99 20 16 C19.01 16.495 19.01 16.495 18 17 C16.265625 16.22265625 16.265625 16.22265625 14.25 15.0625 C10.669724162 13.16129513 8.11059556 12.588940444 4 13 C3 10 3 10 3.9375 7.8125 C4.288125 7.214375 4.63875 6.61625 5 6 C4.01 5.67 3.02 5.34 2 5 C1.566875 5.86625 1.566875 5.86625 1.125 6.75 C0.083333333 8.833333333 -0.958333333 10.916666667 -2 13 C-2.66 13 -3.32 13 -4 13 C-3.34 11.35 -2.68 9.7 -2 8 C-3.396654366 7.894280565 -3.396654366 7.894280565 -5.4375 10 C-8 12 -8 12 -10 12 C-10.268125 12.598125 -10.53625 13.19625 -10.8125 13.8125 C-11.98493467 15.972248076 -13.193692818 17.357902562 -15 19 C-12.477741964 10.928774286 -6.502885942 5.079177186 0 0 Z " fill="#2F2D23" transform="translate(51,21)" />
<path d="M0 0 C1.98 0.66 3.96 1.32 6 2 C6 2.99 6 3.98 6 5 C5.34 4.34 4.68 3.68 4 3 C3.929211945 6.539402735 3.954923459 9.765601988 4.625 13.25 C5 16 5 16 3 19 C2.67 19 2.34 19 2 19 C2 20.65 2 22.3 2 24 C-0.44168979 20.969432084 -2.130273889 17.909814043 -3.75 14.375 C-4.19859375 13.413359375 -4.6471875 12.45171875 -5.109375 11.4609375 C-5.40328125 10.648828125 -5.6971875 9.83671875 -6 9 C-5.67 8.34 -5.34 7.68 -5 7 C-4.01 8.32 -3.02 9.64 -2 11 C-2.66 8.69 -3.32 6.38 -4 4 C-2.68 2.68 -1.36 1.36 0 0 Z " fill="#88867B" transform="translate(136,38)" />
<path d="M0 0 C4.62 0 9.24 0 14 0 C14 0.33 14 0.66 14 1 C9.71 1 5.42 1 1 1 C2.32 1.33 3.64 1.66 5 2 C4.34 3.65 3.68 5.3 3 7 C1.68 7 0.36 7 -1 7 C-1.2165625 8.546875 -1.2165625 8.546875 -1.4375 10.125 C-1.916604568 13.425498135 -2.438750825 16.712683405 -3 20 C-3.66 19.34 -4.32 18.68 -5 18 C-4.855625 18.640664063 -4.71125 19.281328125 -4.5625 19.94140625 C-3.459645094 25.080403765 -2.771606888 29.746958427 -3 35 C-3.66 35 -4.32 35 -5 35 C-5.495 33.515 -5.495 33.515 -6 32 C-6.99 32.495 -6.99 32.495 -8 33 C-10.492917705 20.752186927 -5.155589052 10.884021331 0 0 Z " fill="#7C7A6E" transform="translate(109,28)" />
<path d="M0 0 C1.32 0 2.64 0 4 0 C3.690625 0.556875 3.38125 1.11375 3.0625 1.6875 C0.588478207 7.072135667 1.129268655 10.387805965 3 16 C2.01 15.01 1.02 14.02 0 13 C0.515625 14.093125 1.03125 15.18625 1.5625 16.3125 C3 20 3 20 2 23 C0.02 19.37 -1.96 15.74 -4 12 C-4.943243375 16.716216877 -5.105565465 17.677084553 -3.5625 21.8125 C-3.275039063 22.602695313 -2.987578125 23.392890625 -2.69140625 24.20703125 C-2.463242187 24.798710938 -2.235078125 25.390390625 -2 26 C-3.666666667 24.333333333 -5.333333333 22.666666667 -7 21 C-7.66 20.67 -8.32 20.34 -9 20 C-9.66 21.32 -10.32 22.64 -11 24 C-12.592735718 20.814528564 -11.761641206 18.398091534 -11 15 C-9.684823764 13.64875353 -8.349182879 12.317293102 -7 11 C-5.886893153 9.30296825 -4.823616462 7.572206541 -3.8125 5.8125 C-1.069444444 1.069444444 -1.069444444 1.069444444 0 0 Z " fill="#5A594C" transform="translate(132,35)" />
<path d="M0 0 C2 2 2 2 2.125 4.29296875 C2.08375 5.248164063 2.0425 6.203359375 2 7.1875 C1.855725704 14.608609088 2.879762882 21.678450266 4 29 C4.33 29 4.66 29 5 29 C6.701594533 42.817767654 6.701594533 42.817767654 3 48 C1.35 48 -0.3 48 -2 48 C-1.426550627 45.132753136 -1.138548496 44.138548496 1 42 C1.282732572 39.076281405 1.282732572 39.076281405 1.1875 35.75 C1.181054687 34.63109375 1.174609375 33.5121875 1.16796875 32.359375 C1.008043712 29.160874237 0.540461729 26.151972806 0 23 C-0.039034836 21.563030087 -0.044638656 20.124306751 0 18.6875 C0 17.470625 0 16.25375 0 15 C-0.33 14.67 -0.66 14.34 -1 14 C-0.909684258 11.643050463 -0.753118717 9.288464177 -0.5625 6.9375 C-0.460664063 5.647148438 -0.358828125 4.356796875 -0.25390625 3.02734375 C-0.170117187 2.028320312 -0.086328125 1.029296875 0 0 Z " fill="#7A7870" transform="translate(83,56)" />
<path d="M0 0 C0.66 0.33 1.32 0.66 2 1 C2 1.66 2 2.32 2 3 C2.66 3.66 3.32 4.32 4 5 C4.5625 6.9375 4.5625 6.9375 5 9 C5.33 9.99 5.66 10.98 6 12 C5.722300924 14.340606498 5.394600231 16.676243082 5 19 C2.750236479 19.646656627 0.500180327 20.292295233 -1.75 20.9375 C-3.00296875 21.297148437 -4.2559375 21.656796875 -5.546875 22.02734375 C-8.025617193 22.725541494 -10.496601624 23.399437258 -13 24 C-10.70860372 21.36968337 -8.751630097 20.344412007 -5.4375 19.3125 C-4.652460938 19.061132812 -3.867421875 18.809765625 -3.05859375 18.55078125 C-1 18 -1 18 1 18 C0.67 17.360625 0.34 16.72125 0 16.0625 C-1.330569278 11.987631585 -1.16659199 8.248095753 -1 4 C-1.99 4 -2.98 4 -4 4 C-3.67 3.34 -3.34 2.68 -3 2 C-2.34 2.33 -1.68 2.66 -1 3 C-0.67 2.01 -0.34 1.02 0 0 Z " fill="#767367" transform="translate(50,31)" />
<path d="M0 0 C0 3.825123779 -1.491257453 6.509965378 -3.125 9.875 C-3.768644323 11.223760294 -4.411865532 12.572722576 -5.0546875 13.921875 C-5.380498047 14.601855469 -5.706308594 15.281835937 -6.041992188 15.982421875 C-7.962982213 20.028054283 -9.792915885 24.115819904 -11.640625 28.1953125 C-12.961110406 30.919762274 -14.294523842 33.496801123 -16 36 C-16.66 36 -17.32 36 -18 36 C-17.449076176 31.605572318 -16.366694243 28.289291392 -14.3125 24.375 C-12.117784422 20.153585347 -9.996706044 15.914123469 -7.9375 11.625 C-5.723648908 7.173932632 -3.407931249 3.608397793 0 0 Z " fill="#D6D4C7" transform="translate(104,30)" />
<path d="M0 0 C-1.665879253 3.45669945 -3.563175438 6.751022412 -5.5 10.0625 C-6.41265625 11.626777344 -6.41265625 11.626777344 -7.34375 13.22265625 C-8.511034681 15.180060515 -9.73582073 17.103731095 -11 19 C-11.38499891 20.655495312 -11.727931346 22.322243302 -12 24 C-12.99 24 -13.98 24 -15 24 C-16.043509413 17.047461383 -16.465051721 12.237093098 -13 6 C-12 9 -12 9 -12 11 C-11.34 11 -10.68 11 -10 11 C-9.746054688 10.457304687 -9.492109375 9.914609375 -9.23046875 9.35546875 C-8.886289062 8.640039063 -8.542109375 7.924609375 -8.1875 7.1875 C-7.682832031 6.125957031 -7.682832031 6.125957031 -7.16796875 5.04296875 C-5.170078515 1.548331315 -4.152261223 0 0 0 Z " fill="#979589" transform="translate(133,33)" />
</svg>