<?xml version='1.0' encoding='utf-8'?>
<svg xmlns="http://www.w3.org/2000/svg" version="1.1" width="128" height="155" viewBox="16.115096611 8.0 128.884903389 155.125">
<path d="M0 0 C0.109570312 1.122773438 0.219140625 2.245546875 0.33203125 3.40234375 C1.151556462 11.298865709 2.028224179 18.570560448 5 26 C6.66342837 24.33657163 6.360480965 22.217429104 6.5625 19.9375 C6.646289063 19.018398437 6.730078125 18.099296875 6.81640625 17.15234375 C6.907285156 16.086933594 6.907285156 16.086933594 7 15 C7.66 15.33 8.32 15.66 9 16 C11.091688108 22.275064323 10.358807826 30.023010775 7.62890625 36.00390625 C6.592508133 37.671587633 5.511596825 39.312991011 4.375 40.9140625 C1.941309681 44.606081336 1.86685818 47.438484025 2.4375 51.75 C2.539335937 52.54921875 2.641171875 53.3484375 2.74609375 54.171875 C2.829882813 54.77515625 2.913671875 55.3784375 3 56 C1.054899997 53.082349995 0.547236835 51.374627148 0 48 C-3.342382459 51.244599993 -3.428570446 54.237361955 -3.517578125 58.652587891 C-3.511777344 59.489108887 -3.505976562 60.325629883 -3.5 61.1875 C-3.499355469 62.040134277 -3.498710938 62.892768555 -3.498046875 63.771240234 C-3.34137345 70.367317797 -1.90536748 74.658015197 2 80 C2 80.66 2 81.32 2 82 C-0.31 82 -2.62 82 -5 82 C-5.193359375 81.445703125 -5.38671875 80.89140625 -5.5859375 80.3203125 C-5.976523437 79.233632812 -5.976523437 79.233632812 -6.375 78.125 C-6.630234375 77.405703125 -6.88546875 76.68640625 -7.1484375 75.9453125 C-7.938777827 73.818420062 -7.938777827 73.818420062 -10 72 C-10.306752318 69.100322433 -10.511733706 66.282168216 -10.625 63.375 C-10.663671875 62.573203125 -10.70234375 61.77140625 -10.7421875 60.9453125 C-10.836539312 58.963924445 -10.919362147 56.981993549 -11 55 C-11.7425 55.825 -12.485 56.65 -13.25 57.5 C-16 60 -16 60 -20 60 C-19.884903389 58.582494369 -19.757463422 57.165988307 -19.625 55.75 C-19.555390625 54.96109375 -19.48578125 54.1721875 -19.4140625 53.359375 C-18.984928871 50.914123003 -18.213993622 49.151630972 -17 47 C-15.68 47.33 -14.36 47.66 -13 48 C-11.198898334 40.670988818 -9.637790197 33.525924327 -9 26 C-6.988683434 29.333717615 -6.782212854 31.826523753 -6.875 35.6875 C-6.893046875 36.660742188 -6.91109375 37.633984375 -6.9296875 38.63671875 C-6.964492187 39.806542969 -6.964492187 39.806542969 -7 41 C-7 41.33 -7 41.66 -7 42 C-6.972918297 39.270766118 -6.953121525 36.541803634 -6.9375 33.8125 C-6.929121094 33.043574219 -6.920742187 32.274648437 -6.912109375 31.482421875 C-6.894942288 27.4824906 -7.158648117 23.921994164 -8 20 C-8.114688547 17.77290844 -8.174786166 15.542506421 -8.1875 13.3125 C-8.201679688 12.174257813 -8.215859375 11.036015625 -8.23046875 9.86328125 C-8 7 -8 7 -6 5 C-4.7315625 3.700625 -4.7315625 3.700625 -3.4375 2.375 C-1 0 -1 0 0 0 Z " fill="#626059" transform="translate(46,70)" />
<path d="M0 0 C0 2.97 0 5.94 0 9 C-0.33 9 -0.66 9 -1 9 C-1.495 6.525 -1.495 6.525 -2 4 C-2.817217174 5.100679957 -3.628594515 6.20569731 -4.4375 7.3125 C-4.889960938 7.927382812 -5.342421875 8.542265625 -5.80859375 9.17578125 C-7.173363083 11.096771005 -7.173363083 11.096771005 -8 14 C-5.084827082 12.925988925 -3.221898245 12.221898245 -1 10 C-1.1875 11.875 -1.1875 11.875 -2 14 C-4.5625 15.25 -4.5625 15.25 -7 16 C-5.35 16.33 -3.7 16.66 -2 17 C-2 17.99 -2 18.98 -2 20 C-3.65 20.33 -5.3 20.66 -7 21 C-5.68 21.99 -4.36 22.98 -3 24 C-3.66 24.99 -4.32 25.98 -5 27 C-5.298710631 30.034046555 -5.377870782 33.042805505 -5.4609375 36.08984375 C-6.115717093 39.624704594 -7.170870804 40.84298437 -10 43 C-13.070983791 42.925097956 -14.485600364 42.443447962 -16.8125 40.4375 C-17.204375 39.963125 -17.59625 39.48875 -18 39 C-18.66 41.31 -19.32 43.62 -20 46 C-22.00535489 42.256670872 -23 39.26323685 -23 35 C-22.67 34.34 -22.34 33.68 -22 33 C-21.34 33.66 -20.68 34.32 -20 35 C-17.841680505 28.92972642 -17.79147686 23.406294244 -18 17 C-18.66 17 -19.32 17 -20 17 C-20 18.65 -20 20.3 -20 22 C-20.66 22.33 -21.32 22.66 -22 23 C-21.34 23.33 -20.68 23.66 -20 24 C-20 24.66 -20 25.32 -20 26 C-21.32 26.33 -22.64 26.66 -24 27 C-25 22.25 -25 22.25 -25 20 C-25.99 22.475 -25.99 22.475 -27 25 C-28.65 25 -30.3 25 -32 25 C-31.01 25.33 -30.02 25.66 -29 26 C-29.011601563 26.808242187 -29.023203125 27.616484375 -29.03515625 28.44921875 C-29.044179688 29.517851562 -29.053203125 30.586484375 -29.0625 31.6875 C-29.074101563 32.743242188 -29.085703125 33.798984375 -29.09765625 34.88671875 C-29.008654246 37.724102624 -28.649398382 40.243891904 -28 43 C-29.485 42.505 -29.485 42.505 -31 42 C-31.33 42.66 -31.66 43.32 -32 44 C-32.33 42.68 -32.66 41.36 -33 40 C-33.7425 40.061875 -34.485 40.12375 -35.25 40.1875 C-38.453830064 39.969057041 -39.640312556 39.097499951 -42 37 C-39.69 37 -37.38 37 -35 37 C-38.3 36.34 -41.6 35.68 -45 35 C-43.312914201 31.625828402 -42.525186938 30.42417946 -40 28 C-39.484375 27.278125 -38.96875 26.55625 -38.4375 25.8125 C-37.7259375 24.9153125 -37.7259375 24.9153125 -37 24 C-36.34 24 -35.68 24 -35 24 C-34.7525 23.38125 -34.505 22.7625 -34.25 22.125 C-32.793713607 19.649313132 -31.621874938 19.048749975 -29 18 C-29.61875 17.38125 -30.2375 16.7625 -30.875 16.125 C-33.710439373 11.955236217 -34.273345446 7.924040728 -35 3 C-32.581479504 3.524679033 -31.190413675 3.843588767 -29.25 5.4375 C-26.94271585 7.03978066 -25.515115842 7.426717852 -22.8125 8 C-21.554375 8.33 -20.29625 8.66 -19 9 C-18.67 9.99 -18.34 10.98 -18 12 C-17.34 12 -16.68 12 -16 12 C-16 10.68 -16 9.36 -16 8 C-15.34 8 -14.68 8 -14 8 C-13.67 8.66 -13.34 9.32 -13 10 C-12.34 9.67 -11.68 9.34 -11 9 C-10.505 10.485 -10.505 10.485 -10 12 C-9.528203125 11.203359375 -9.528203125 11.203359375 -9.046875 10.390625 C-2.751824818 0 -2.751824818 0 0 0 Z " fill="#615F5B" transform="translate(135,18)" />
<path d="M0 0 C2.31 0.66 4.62 1.32 7 2 C2.977739888 16.434493737 2.977739888 16.434493737 -0.57421875 19.24609375 C-3.825668381 23.2458222 -2.303334767 30.120035408 -2 35 C-1.433553568 39.790318591 -0.345252386 43.660373649 2.125 47.8125 C4 51 4 51 4 55 C2.826308594 55.090878906 2.826308594 55.090878906 1.62890625 55.18359375 C0.616992188 55.267382812 -0.394921875 55.351171875 -1.4375 55.4375 C-2.446835937 55.518710938 -3.456171875 55.599921875 -4.49609375 55.68359375 C-6.936407787 55.732114685 -6.936407787 55.732114685 -8 57 C-9.519280378 57.07179964 -11.041674817 57.083920073 -12.5625 57.0625 C-13.388789063 57.053476563 -14.215078125 57.044453125 -15.06640625 57.03515625 C-15.704492188 57.023554687 -16.342578125 57.011953125 -17 57 C-16.67 56.34 -16.34 55.68 -16 55 C-13.69 55.33 -11.38 55.66 -9 56 C-9.433125 55.426367188 -9.86625 54.852734375 -10.3125 54.26171875 C-14.493868827 47.88319547 -15.579666823 42.59614431 -15.5625 35.125 C-15.564433594 34.304753418 -15.566367187 33.484506836 -15.568359375 32.639404297 C-15.441510281 27.952234165 -14.927661619 24.856706239 -12 21 C-11.34 21.33 -10.68 21.66 -10 22 C-9.375 24.5625 -9.375 24.5625 -9 27 C-10.043477415 22.987355032 -10.760978352 19.540388706 -8.87109375 15.71484375 C-7.818933408 14.219668527 -6.739845464 12.743134914 -5.63671875 11.28515625 C-3.138715018 7.797489941 -1.59302374 3.963817895 0 0 Z " fill="#E9E7E0" transform="translate(57,96)" />
<path d="M0 0 C0.793417969 -0.003867188 1.586835937 -0.007734375 2.404296875 -0.01171875 C8.310869333 -0.001630667 8.310869333 -0.001630667 9.4375 1.125 C9.478138321 2.791171151 9.480221001 4.458880948 9.4375 6.125 C8.7775 5.795 8.1175 5.465 7.4375 5.125 C7.400117188 5.895859375 7.362734375 6.66671875 7.32421875 7.4609375 C7.258476562 8.463828125 7.192734375 9.46671875 7.125 10.5 C7.037988281 11.996601563 7.037988281 11.996601563 6.94921875 13.5234375 C6.780351563 14.381953125 6.611484375 15.24046875 6.4375 16.125 C5.4475 16.785 4.4575 17.445 3.4375 18.125 C1.41382462 16.10132462 1.999577666 12.118673971 1.81640625 9.375 C1.691367187 8.6325 1.566328125 7.89 1.4375 7.125 C0.7775 6.795 0.1175 6.465 -0.5625 6.125 C-0.5625 6.785 -0.5625 7.445 -0.5625 8.125 C-1.5525 8.125 -2.5425 8.125 -3.5625 8.125 C-3.5625 6.475 -3.5625 4.825 -3.5625 3.125 C-4.2225 3.125 -4.8825 3.125 -5.5625 3.125 C-4.9025 8.735 -4.2425 14.345 -3.5625 20.125 C-3.8925 20.125 -4.2225 20.125 -4.5625 20.125 C-4.611484375 20.751484375 -4.66046875 21.37796875 -4.7109375 22.0234375 C-4.785703125 22.840703125 -4.86046875 23.65796875 -4.9375 24.5 C-5.007109375 25.312109375 -5.07671875 26.12421875 -5.1484375 26.9609375 C-5.5625 29.125 -5.5625 29.125 -7.5625 31.125 C-11.735564383 22.697840859 -12.692437201 14.352244945 -13.5625 5.125 C-13.8925 8.095 -14.2225 11.065 -14.5625 14.125 C-14.8925 14.125 -15.2225 14.125 -15.5625 14.125 C-15.8925 12.475 -16.2225 10.825 -16.5625 9.125 C-17.5525 9.785 -18.5425 10.445 -19.5625 11.125 C-19.966968956 14.079345853 -19.966968956 14.079345853 -19.8125 17.4375 C-19.79703125 18.568007812 -19.7815625 19.698515625 -19.765625 20.86328125 C-19.649746537 23.997844817 -19.649746537 23.997844817 -19.05859375 26.51171875 C-18.354520652 30.22057625 -18.378252675 33.858401964 -18.375 37.625 C-18.362753906 38.371367187 -18.350507812 39.117734375 -18.337890625 39.88671875 C-18.326719821 44.094388333 -18.633056014 47.281364549 -20.5625 51.125 C-21.5625 48.125 -21.5625 48.125 -20.5625 45.125 C-20.493950501 43.230291837 -20.477696275 41.333316605 -20.5 39.4375 C-20.520625 37.684375 -20.54125 35.93125 -20.5625 34.125 C-21.8825 40.395 -23.2025 46.665 -24.5625 53.125 C-25.8825 52.135 -27.2025 51.145 -28.5625 50.125 C-27.813802083 48.529947917 -27.065104167 46.934895833 -26.31640625 45.33984375 C-23.901770233 38.246068509 -24.300085838 30.365517278 -24.220703125 22.951171875 C-24.032147198 16.895457116 -23.120156742 12.133657971 -19.5625 7.125 C-17.2734375 5.06640625 -17.2734375 5.06640625 -14.9375 3.6875 C-14.161484375 3.214414062 -13.38546875 2.741328125 -12.5859375 2.25390625 C-8.34275503 -0.113429143 -4.783014545 -0.02342701 0 0 Z " fill="#48453E" transform="translate(58.5625,65.875)" />
<path d="M0 0 C1.938524362 3.256414442 2.244959448 5.671294358 2.1875 9.4375 C2.177832031 10.827753906 2.177832031 10.827753906 2.16796875 12.24609375 C2.005052618 14.917160558 1.591329497 17.393419577 1 20 C3.020454425 19.398162512 5.021110393 18.726939039 7 18 C7.33 17.34 7.66 16.68 8 16 C8.66 16.33 9.32 16.66 10 17 C9.34 18.093125 8.68 19.18625 8 20.3125 C4.415160656 28.394449633 4.157234385 39.841531548 7.12890625 48.16015625 C8.309695794 50.229061006 9.597602174 52.081720116 11 54 C11 54.66 11 55.32 11 56 C8.69 56 6.38 56 4 56 C3.806640625 55.445703125 3.61328125 54.89140625 3.4140625 54.3203125 C3.153671875 53.595859375 2.89328125 52.87140625 2.625 52.125 C2.369765625 51.405703125 2.11453125 50.68640625 1.8515625 49.9453125 C1.061222173 47.818420062 1.061222173 47.818420062 -1 46 C-1.306752318 43.100322433 -1.511733706 40.282168216 -1.625 37.375 C-1.663671875 36.573203125 -1.70234375 35.77140625 -1.7421875 34.9453125 C-1.836539312 32.963924445 -1.919362147 30.981993549 -2 29 C-2.7425 29.825 -3.485 30.65 -4.25 31.5 C-7 34 -7 34 -11 34 C-10.884903389 32.582494369 -10.757463422 31.165988307 -10.625 29.75 C-10.555390625 28.96109375 -10.48578125 28.1721875 -10.4140625 27.359375 C-9.984928871 24.914123003 -9.213993622 23.151630972 -8 21 C-6.68 21.33 -5.36 21.66 -4 22 C-2.198898334 14.670988818 -0.637790197 7.525924327 0 0 Z " fill="#53514C" transform="translate(37,96)" />
<path d="M0 0 C0.99 0.33 1.98 0.66 3 1 C3.22262303 7.728162697 2.950215358 13.539911627 1 20 C0.01 19.67 -0.98 19.34 -2 19 C-1.835 19.598125 -1.67 20.19625 -1.5 20.8125 C0.078195934 27.717107213 -2.422320684 35.245081764 -4 42 C-4.66 42 -5.32 42 -6 42 C-6.5775 40.96875 -7.155 39.9375 -7.75 38.875 C-9.155184432 36.400871696 -10.632153182 34.027599861 -12.25 31.6875 C-14 29 -14 29 -14 27 C-14.66 27 -15.32 27 -16 27 C-15.505 25.515 -15.505 25.515 -15 24 C-14.34 24 -13.68 24 -13 24 C-12.67 24.99 -12.34 25.98 -12 27 C-11.01 26.67 -10.02 26.34 -9 26 C-9.2475 25.2575 -9.2475 25.2575 -9.5 24.5 C-10.451318471 19.743407646 -10.546772291 14.640316872 -9 10 C-10.32 9.67 -11.64 9.34 -13 9 C-13 8.67 -13 8.34 -13 8 C-11.8553125 8.1546875 -11.8553125 8.1546875 -10.6875 8.3125 C-9.800625 8.209375 -8.91375 8.10625 -8 8 C-6.137556202 5.591412863 -6.137556202 5.591412863 -5 3 C-4.34 3.33 -3.68 3.66 -3 4 C-3.33 5.98 -3.66 7.96 -4 10 C-2.68 10 -1.36 10 0 10 C0 9.34 0 8.68 0 8 C-0.99 7.67 -1.98 7.34 -3 7 C-2.01 6.67 -1.02 6.34 0 6 C-0.2784375 4.7934375 -0.2784375 4.7934375 -0.5625 3.5625 C-0.706875 2.716875 -0.85125 1.87125 -1 1 C-0.67 0.67 -0.34 0.34 0 0 Z " fill="#9C9B94" transform="translate(115,34)" />
<path d="M0 0 C1.232599784 3.697799351 0.979439197 7.036859524 0.875 10.875 C0.763644733 17.727744538 1.525900994 23.812323081 3.34375 30.4609375 C4 33 4 33 4 36 C-0.052738078 36.982481958 -3.835350742 37.160178818 -8 37 C-10.094362012 34.905637988 -9.422121472 30.522586487 -9.5625 27.625 C-9.603508301 26.808781738 -9.644516602 25.992563477 -9.686767578 25.151611328 C-10.523657438 7.63583578 -10.523657438 7.63583578 -8 2 C-7.67 2 -7.34 2 -7 2 C-7 5.63 -7 9.26 -7 13 C-6.67 11.35 -6.34 9.7 -6 8 C-5.01 7.34 -4.02 6.68 -3 6 C-2.67 9.96 -2.34 13.92 -2 18 C-2.023203125 17.119570313 -2.04640625 16.239140625 -2.0703125 15.33203125 C-2.088359375 14.170585937 -2.10640625 13.009140625 -2.125 11.8125 C-2.148203125 10.663945313 -2.17140625 9.515390625 -2.1953125 8.33203125 C-2.004841517 5.082596275 -1.393601275 2.913394791 0 0 Z " fill="#929189" transform="translate(83,63)" />
<path d="M0 0 C0.66 0 1.32 0 2 0 C2 1.65 2 3.3 2 5 C2.99 5 3.98 5 5 5 C5 4.34 5 3.68 5 3 C5.99 3.33 6.98 3.66 8 4 C8.33 7.3 8.66 10.6 9 14 C9.33 12.02 9.66 10.04 10 8 C10.33 8 10.66 8 11 8 C11.33 5.36 11.66 2.72 12 0 C14.959107385 2.959107385 14.867757741 6.510601351 15.4375 10.5 C16.462743798 17.194356323 17.731232357 23.595960838 20 30 C17.894165132 29.549393395 15.790371281 29.089240436 13.6875 28.625 C11.929863281 28.242148437 11.929863281 28.242148437 10.13671875 27.8515625 C7 27 7 27 4 25 C3.198719478 22.313353545 2.567580868 19.73470782 2 17 C1.813085937 16.258789062 1.626171875 15.517578125 1.43359375 14.75390625 C0.18230362 9.704994328 -0.189060462 5.199162717 0 0 Z " fill="#817E77" transform="translate(53,69)" />
<path d="M0 0 C2.64 0 5.28 0 8 0 C8 0.99 8 1.98 8 3 C6.35 3.33 4.7 3.66 3 4 C4.32 4.99 5.64 5.98 7 7 C6.01 8.485 6.01 8.485 5 10 C4.701289369 13.034046555 4.622129218 16.042805505 4.5390625 19.08984375 C3.884282907 22.624704594 2.829129196 23.84298437 0 26 C-3.070983791 25.925097956 -4.485600364 25.443447962 -6.8125 23.4375 C-7.204375 22.963125 -7.59625 22.48875 -8 22 C-8.66 24.31 -9.32 26.62 -10 29 C-12.00535489 25.256670872 -13 22.26323685 -13 18 C-12.67 17.34 -12.34 16.68 -12 16 C-11.34 16.66 -10.68 17.32 -10 18 C-9.34 15.69 -8.68 13.38 -8 11 C-7.34 11 -6.68 11 -6 11 C-6 9.02 -6 7.04 -6 5 C-5.67 5 -5.34 5 -5 5 C-5 6.98 -5 8.96 -5 11 C-4.34 11 -3.68 11 -3 11 C-3 8.69 -3 6.38 -3 4 C-2.34 4 -1.68 4 -1 4 C-0.67 2.68 -0.34 1.36 0 0 Z " fill="#57574F" transform="translate(125,35)" />
<path d="M0 0 C1.32 0.33 2.64 0.66 4 1 C3.01 1.33 2.02 1.66 1 2 C1.147349294 11.202633192 2.255972841 19.217253392 5.272216797 27.923583984 C7.962650306 35.9889952 7.081764247 43.799723044 6.125 52.125 C6.046367187 52.884257813 5.967734375 53.643515625 5.88671875 54.42578125 C5.489255024 57.978495482 4.952180394 61.163045447 3.94140625 64.609375 C2.926240814 68.265655491 2.766733998 71.338903464 2.8125 75.125 C2.818945313 76.303203125 2.825390625 77.48140625 2.83203125 78.6953125 C2.978773403 81.582379046 3.337970278 84.192993979 4 87 C0.125 85.125 0.125 85.125 -1 84 C-0.906250062 81.93447717 -0.747635272 79.871844202 -0.5625 77.8125 C0.022204658 70.518684207 0.100119705 63.31986286 0 56 C0.66 56 1.32 56 2 56 C4.901506278 43.473985091 2.477865963 32.025873872 -1 20 C-2.91248447 13.330513017 -2.699626323 6.411612517 0 0 Z " fill="#DEDDD7" transform="translate(91,60)" />
<path d="M0 0 C2 2 2 2 3 8 C7.62 9.32 12.24 10.64 17 12 C16.67 10.35 16.34 8.7 16 7 C17.50559539 8.963820074 18.891316829 10.782633658 20 13 C22.321565971 13.407292276 24.656878699 13.744386767 27 14 C27.33 13.34 27.66 12.68 28 12 C29.32 12.33 30.64 12.66 32 13 C31.79375 12.401875 31.5875 11.80375 31.375 11.1875 C31 9 31 9 33 6 C33.204960938 6.626484375 33.409921875 7.25296875 33.62109375 7.8984375 C33.890507813 8.715703125 34.159921875 9.53296875 34.4375 10.375 C34.704335937 11.187109375 34.971171875 11.99921875 35.24609375 12.8359375 C35.951797289 15.010317986 35.951797289 15.010317986 37 17 C37.097318571 18.867782075 37.130767483 20.739060427 37.1328125 22.609375 C37.134746094 23.751081543 37.136679687 24.892788086 37.138671875 26.069091797 C37.134160156 27.283791504 37.129648438 28.498491211 37.125 29.75 C37.123066406 30.973078613 37.121132813 32.196157227 37.119140625 33.456298828 C37.079787482 41.678372807 36.847084346 49.81656016 36 58 C36.99 58.66 37.98 59.32 39 60 C39.33 58.68 39.66 57.36 40 56 C40.67408308 57.266915075 41.339004965 58.538707486 42 59.8125 C42.37125 60.520195312 42.7425 61.227890625 43.125 61.95703125 C44 64 44 64 44 67 C41.125 67.125 41.125 67.125 38 67 C34.640790636 63.640790636 34.058608827 60.012137181 33.788818359 55.353027344 C33.795808024 54.01390762 33.813276967 52.674811914 33.83984375 51.3359375 C33.845045319 50.621444397 33.850246887 49.906951294 33.855606079 49.170806885 C33.873298158 46.905323042 33.904456223 44.640307702 33.9375 42.375 C33.965194595 40.102598236 33.989893737 37.830263098 34.008682251 35.557769775 C34.020860023 34.148673058 34.038384664 32.739609463 34.06199646 31.330657959 C34.0955938 28.03304152 33.897732027 25.167593122 33 22 C32.961116511 19.666990673 32.9551365 17.332901993 33 15 C31.640683594 15.034804687 31.640683594 15.034804687 30.25390625 15.0703125 C23.138028618 15.175732909 16.865832006 14.894022622 10 13 C9.71125 13.969375 9.4225 14.93875 9.125 15.9375 C8 19 8 19 6 20 C7.875 14.25 7.875 14.25 9 12 C6.69 11.67 4.38 11.34 2 11 C1.34 11.99 0.68 12.98 0 14 C0 9.38 0 4.76 0 0 Z " fill="#3D3B35" transform="translate(55,86)" />
<path d="M0 0 C2.31 0.66 4.62 1.32 7 2 C5.833236168 6.231121588 4.169577875 9.428812652 1.622314453 12.996826172 C-2.223417213 18.402228226 -5.15522091 22.681046153 -4.44140625 29.55859375 C-4.295742187 30.364257812 -4.150078125 31.169921875 -4 32 C-3.864648438 32.939726562 -3.729296875 33.879453125 -3.58984375 34.84765625 C-2.808504413 39.726102699 -1.753136397 44.366710952 0 49 C-2.39453125 48.4921875 -2.39453125 48.4921875 -5 47 C-5.847657683 44.244341931 -6.336932083 41.949036252 -6.6875 39.125 C-6.907963139 37.575393805 -7.129322005 36.02591479 -7.3515625 34.4765625 C-7.506733398 33.332358398 -7.506733398 33.332358398 -7.665039062 32.165039062 C-7.958689773 30.267011001 -8.386925641 28.390823269 -8.8359375 26.5234375 C-10.573818006 19.291612167 -10.573818006 19.291612167 -8.92578125 15.58203125 C-7.375 13.3125 -7.375 13.3125 -5.671875 11.1796875 C-3.066964535 7.783565912 -1.587041815 3.948933457 0 0 Z " fill="#EAE9E3" transform="translate(57,96)" />
<path d="M0 0 C0 2.97 0 5.94 0 9 C-0.33 9 -0.66 9 -1 9 C-1.33 7.35 -1.66 5.7 -2 4 C-2.817217174 5.100679957 -3.628594515 6.20569731 -4.4375 7.3125 C-4.889960938 7.927382812 -5.342421875 8.542265625 -5.80859375 9.17578125 C-7.173363083 11.096771005 -7.173363083 11.096771005 -8 14 C-5.084827082 12.925988925 -3.221898245 12.221898245 -1 10 C-1.125 11.8125 -1.125 11.8125 -2 14 C-7.035714286 17 -7.035714286 17 -10 17 C-10 19.64 -10 22.28 -10 25 C-10.33 23.68 -10.66 22.36 -11 21 C-11.66 21 -12.32 21 -13 21 C-13 23.31 -13 25.62 -13 28 C-14.32 28 -15.64 28 -17 28 C-17.33 24.37 -17.66 20.74 -18 17 C-18.66 17 -19.32 17 -20 17 C-20 18.65 -20 20.3 -20 22 C-20.66 22.33 -21.32 22.66 -22 23 C-21.34 23.33 -20.68 23.66 -20 24 C-20 24.66 -20 25.32 -20 26 C-21.32 26.33 -22.64 26.66 -24 27 C-24.864769128 23.540923487 -24.908704911 21.407643416 -24 18 C-24.33 17.01 -24.66 16.02 -25 15 C-23.68 15 -22.36 15 -21 15 C-21.66 13.02 -22.32 11.04 -23 9 C-22.34 8.67 -21.68 8.34 -21 8 C-20.01 8.66 -19.02 9.32 -18 10 C-18 10.66 -18 11.32 -18 12 C-17.34 12 -16.68 12 -16 12 C-16 10.68 -16 9.36 -16 8 C-15.34 8 -14.68 8 -14 8 C-13.67 8.66 -13.34 9.32 -13 10 C-12.34 9.67 -11.68 9.34 -11 9 C-10.67 9.99 -10.34 10.98 -10 12 C-9.68546875 11.46890625 -9.3709375 10.9378125 -9.046875 10.390625 C-2.751824818 0 -2.751824818 0 0 0 Z " fill="#272621" transform="translate(135,18)" />
<path d="M0 0 C0.99 0.33 1.98 0.66 3 1 C3 2.98 3 4.96 3 7 C3.66 7 4.32 7 5 7 C5.650036252 9.207099834 6.294847451 11.415738923 6.9375 13.625 C7.297148437 14.854765625 7.656796875 16.08453125 8.02734375 17.3515625 C9.579961567 23.175438166 10.157079767 28.533209892 10.1875 34.5625 C10.201679688 35.842539063 10.215859375 37.122578125 10.23046875 38.44140625 C10.013715799 41.788218765 9.452139965 44.009624815 8 47 C7.34 47 6.68 47 6 47 C6 42.38 6 37.76 6 33 C5.67 33 5.34 33 5 33 C4.576822917 31.404947917 4.153645833 29.809895833 3.73046875 28.21484375 C2.99144542 25.794653011 2.99144542 25.794653011 1.4375 22.875 C-0.54392999 18.330863984 -0.332227246 13.942405843 -0.1875 9.0625 C-0.173964844 8.187871094 -0.160429687 7.313242187 -0.146484375 6.412109375 C-0.111441092 4.274469139 -0.057645409 2.137150163 0 0 Z " fill="#595951" transform="translate(85,69)" />
<path d="M0 0 C0.99 0.33 1.98 0.66 3 1 C3 1.66 3 2.32 3 3 C4.32 3.33 5.64 3.66 7 4 C7.392717812 7.123041648 7.761137261 10.248475721 8.125 13.375 C8.237148437 14.264453125 8.349296875 15.15390625 8.46484375 16.0703125 C8.561523438 16.92109375 8.658203125 17.771875 8.7578125 18.6484375 C8.899206543 19.826721191 8.899206543 19.826721191 9.043457031 21.028808594 C9 23 9 23 7 25 C2.157201497 39.04732281 5.24321517 56.600638624 7 71 C5.68 70.01 4.36 69.02 3 68 C3.66 68 4.32 68 5 68 C4.67 67.34 4.34 66.68 4 66 C3.558465559 62.674864083 3.299914687 59.341906516 3 56 C2.67 59.63 2.34 63.26 2 67 C1.34 67 0.68 67 0 67 C-0.054604542 64.812784715 -0.093063304 62.625163687 -0.125 60.4375 C-0.148203125 59.219335938 -0.17140625 58.001171875 -0.1953125 56.74609375 C0.007837173 52.849683019 0.895710974 49.731035347 2 46 C2.496109673 43.05327368 2.817242612 40.096624619 3.125 37.125 C3.211367188 36.373476563 3.297734375 35.621953125 3.38671875 34.84765625 C4.367429205 25.772192837 4.172511481 18.213449863 1.5 9.4375 C1.142285156 8.210634766 1.142285156 8.210634766 0.77734375 6.958984375 C0.195619988 4.969489108 -0.400655588 2.984258106 -1 1 C-0.67 0.67 -0.34 0.34 0 0 Z " fill="#41403C" transform="translate(93,75)" />
<path d="M0 0 C0.99 0.33 1.98 0.66 3 1 C2.34 1 1.68 1 1 1 C1 4.3 1 7.6 1 11 C0.67 11 0.34 11 0 11 C-0.33 8.36 -0.66 5.72 -1 3 C-1.33 5.97 -1.66 8.94 -2 12 C-2.33 12 -2.66 12 -3 12 C-3.33 10.35 -3.66 8.7 -4 7 C-4.99 7.66 -5.98 8.32 -7 9 C-7.404468956 11.954345853 -7.404468956 11.954345853 -7.25 15.3125 C-7.23453125 16.443007812 -7.2190625 17.573515625 -7.203125 18.73828125 C-7.087246537 21.872844817 -7.087246537 21.872844817 -6.49609375 24.38671875 C-5.792020652 28.09557625 -5.815752675 31.733401964 -5.8125 35.5 C-5.800253906 36.246367187 -5.788007812 36.992734375 -5.775390625 37.76171875 C-5.764219821 41.969388333 -6.070556014 45.156364549 -8 49 C-9 46 -9 46 -8 43 C-7.931450501 41.105291837 -7.915196275 39.208316605 -7.9375 37.3125 C-7.958125 35.559375 -7.97875 33.80625 -8 32 C-9.32 38.27 -10.64 44.54 -12 51 C-13.32 50.01 -14.64 49.02 -16 48 C-15.251302083 46.404947917 -14.502604167 44.809895833 -13.75390625 43.21484375 C-11.339270233 36.121068509 -11.737585838 28.240517278 -11.658203125 20.826171875 C-11.440794167 13.843805097 -10.099665594 8.259648334 -5.18359375 3.08984375 C-3.504705783 1.98185281 -1.752360884 0.987694316 0 0 Z " fill="#25231E" transform="translate(46,68)" />
<path d="M0 0 C1.076879201 3.275059453 0.892970411 5.332572386 0.00390625 8.640625 C-0.225466309 9.53894043 -0.454838867 10.437255859 -0.691162109 11.362792969 C-1.060599365 12.791960449 -1.060599365 12.791960449 -1.4375 14.25 C-4.349938537 26.244946661 -5.996413713 38.010758862 -2 50 C-1.67 50.99 -1.34 51.98 -1 53 C-2.9375 52.625 -2.9375 52.625 -5 52 C-8.77778943 44.44442114 -8.415257839 32.292573204 -8 24 C-7.947148438 22.830820312 -7.894296875 21.661640625 -7.83984375 20.45703125 C-7.326449532 11.44929634 -6.840795178 6.300732401 0 0 Z " fill="#ECEBE4" transform="translate(105,94)" />
<path d="M0 0 C0.33 0 0.66 0 1 0 C1.164355469 1.684160156 1.164355469 1.684160156 1.33203125 3.40234375 C2.151556462 11.298865709 3.028224179 18.570560448 6 26 C7.66342837 24.33657163 7.360480965 22.217429104 7.5625 19.9375 C7.646289063 19.018398437 7.730078125 18.099296875 7.81640625 17.15234375 C7.876992188 16.442070312 7.937578125 15.731796875 8 15 C8.66 15.33 9.32 15.66 10 16 C12.174232819 22.522698458 10.708734705 27.51172009 8.265625 33.66796875 C6.851429776 36.273754395 5.179264944 38.008444852 3 40 C2.878828125 38.756054687 2.75765625 37.512109375 2.6328125 36.23046875 C1.60330936 25.504218202 1.60330936 25.504218202 -0.125 14.875 C-1.061448135 10.155891288 -1.232650747 5.80811543 -1 1 C-0.67 0.67 -0.34 0.34 0 0 Z " fill="#DAD8D3" transform="translate(45,70)" />
<path d="M0 0 C0.33 0.66 0.66 1.32 1 2 C-1.321073953 7.454523791 -1.321073953 7.454523791 -3.58984375 9.27734375 C-6.834924935 13.241556499 -5.301226637 20.153950417 -5 25 C-4.433553568 29.790318591 -3.345252386 33.660373649 -0.875 37.8125 C1 41 1 41 1 45 C-1.31 45 -3.62 45 -6 45 C-6.28875 44.030625 -6.5775 43.06125 -6.875 42.0625 C-7.642146817 38.893357967 -7.642146817 38.893357967 -10 38 C-10.33 32.06 -10.66 26.12 -11 20 C-9.065406163 23.869187675 -8.466770759 26.523066007 -7.875 30.75 C-7.623632812 32.505703125 -7.623632812 32.505703125 -7.3671875 34.296875 C-7.246015625 35.18890625 -7.12484375 36.0809375 -7 37 C-6.01 37.33 -5.02 37.66 -4 38 C-4.7115625 36.2675 -4.7115625 36.2675 -5.4375 34.5 C-6.974125807 30.368506086 -7.700957601 26.388649257 -8 22 C-8.099257812 21.227851563 -8.198515625 20.455703125 -8.30078125 19.66015625 C-8.926711502 11.891257237 -5.584046487 7.057097396 -1 1 C-0.67 0.67 -0.34 0.34 0 0 Z " fill="#3D3C35" transform="translate(60,106)" />
<path d="M0 0 C1.116796882 3.350390647 0.867560921 4.329964242 0.00390625 7.65625 C-0.225466309 8.587597656 -0.454838867 9.518945312 -0.691162109 10.478515625 C-0.937453613 11.475605469 -1.183745117 12.472695313 -1.4375 13.5 C-3.23114179 21.211505646 -4.48281187 28.569627772 -4.4375 36.5 C-4.434841309 37.257324219 -4.432182617 38.014648438 -4.429443359 38.794921875 C-4.232549152 46.130260865 -2.631807366 51.250170167 2 57 C1.67 57.99 1.34 58.98 1 60 C-1.64 60 -4.28 60 -7 60 C-7 58.02 -7 56.04 -7 54 C-6.01 54 -5.02 54 -4 54 C-4.309375 53.46375 -4.61875 52.9275 -4.9375 52.375 C-11.785786013 37.067066559 -5.285881657 16.084854331 -1 1 C-0.67 0.67 -0.34 0.34 0 0 Z " fill="#44413B" transform="translate(107,92)" />
<path d="M0 0 C1.44277632 2.846558686 2.81175104 5.716396748 4.125 8.625 C4.478203125 9.401015625 4.83140625 10.17703125 5.1953125 10.9765625 C6 13 6 13 6 15 C6.66 15 7.32 15 8 15 C7.480417147 19.379341186 6.943242582 23.688033909 6 28 C5.34 28 4.68 28 4 28 C3.4225 26.96875 2.845 25.9375 2.25 24.875 C0.844815568 22.400871696 -0.632153182 20.027599861 -2.25 17.6875 C-4 15 -4 15 -4 13 C-4.66 13 -5.32 13 -6 13 C-5.67 12.01 -5.34 11.02 -5 10 C-4.34 10 -3.68 10 -3 10 C-2.67 10.99 -2.34 11.98 -2 13 C-1.01 12.67 -0.02 12.34 1 12 C0.835 11.505 0.67 11.01 0.5 10.5 C-0.206888178 6.96555911 -0.06005155 3.603092989 0 0 Z " fill="#B6B6AE" transform="translate(105,48)" />
<path d="M0 0 C0.33 0.99 0.66 1.98 1 3 C-0.1796875 5.33984375 -0.1796875 5.33984375 -1.875 7.9375 C-5.072348412 12.867365109 -6.338121723 15.889746985 -5.5625 21.75 C-5.460664063 22.54921875 -5.358828125 23.3484375 -5.25390625 24.171875 C-5.170117187 24.77515625 -5.086328125 25.3784375 -5 26 C-6.945100003 23.082349995 -7.452763165 21.374627148 -8 18 C-8.66 18 -9.32 18 -10 18 C-9.34 16.35 -8.68 14.7 -8 13 C-8.33 13.33 -8.66 13.66 -9 14 C-9.66 14.144375 -10.32 14.28875 -11 14.4375 C-11.66 14.623125 -12.32 14.80875 -13 15 C-13.33 15.66 -13.66 16.32 -14 17 C-14.66 16.34 -15.32 15.68 -16 15 C-15.7578125 12.1796875 -15.7578125 12.1796875 -15.125 8.875 C-14.921328125 7.779296875 -14.71765625 6.68359375 -14.5078125 5.5546875 C-14.340234375 4.711640625 -14.17265625 3.86859375 -14 3 C-13.01 3 -12.02 3 -11 3 C-11 3.66 -11 4.32 -11 5 C-11.33 5.33 -11.66 5.66 -12 6 C-10.71034824 4.624371456 -9.373107074 3.29233607 -8 2 C-7.34 2 -6.68 2 -6 2 C-5.67 4.31 -5.34 6.62 -5 9 C-3.35 6.03 -1.7 3.06 0 0 Z " fill="#4A4943" transform="translate(54,100)" />
<path d="M0 0 C0.99 0.33 1.98 0.66 3 1 C4.873876549 10.770927718 5.228672755 20.10355133 5 30 C4.34 28.68 3.68 27.36 3 26 C2.34 26 1.68 26 1 26 C0.465355652 23.794969639 -0.052144352 21.585778276 -0.5625 19.375 C-0.852539062 18.145234375 -1.142578125 16.91546875 -1.44140625 15.6484375 C-1.996675922 12.021711108 -1.806151814 9.547067983 -1 6 C-0.814375 4.88625 -0.62875 3.7725 -0.4375 2.625 C-0.293125 1.75875 -0.14875 0.8925 0 0 Z " fill="#625F59" transform="translate(69,67)" />
<path d="M0 0 C0.33 1.32 0.66 2.64 1 4 C1.66 4 2.32 4 3 4 C3.103962374 16.376320716 3.196840564 28.668267757 2 41 C2.99 41.66 3.98 42.32 5 43 C5.33 41.68 5.66 40.36 6 39 C6.67408308 40.266915075 7.339004965 41.538707486 8 42.8125 C8.556875 43.874042969 8.556875 43.874042969 9.125 44.95703125 C10 47 10 47 10 50 C7.125 50.125 7.125 50.125 4 50 C0.445609695 46.445609695 -0.112204284 42.331795643 -0.227050781 37.463378906 C-0.22673701 35.717741407 -0.215609469 33.972082024 -0.1953125 32.2265625 C-0.192482605 31.302818298 -0.18965271 30.379074097 -0.186737061 29.427337646 C-0.175591794 26.493090236 -0.150497652 23.559154295 -0.125 20.625 C-0.114962892 18.628910676 -0.10583832 16.63281654 -0.09765625 14.63671875 C-0.075670969 9.757693506 -0.041180167 4.878899465 0 0 Z " fill="#2F2D28" transform="translate(89,103)" />
<path d="M0 0 C5.75 -0.125 5.75 -0.125 8 1 C8.37890625 2.890625 8.37890625 2.890625 8.5625 5.25 C8.858386291 8.562869725 9.266006423 11.749457015 10 15 C9.01 14.67 8.02 14.34 7 14 C6.67 14.66 6.34 15.32 6 16 C5.67 14.68 5.34 13.36 5 12 C4.2575 12.061875 3.515 12.12375 2.75 12.1875 C-0.453830064 11.969057041 -1.640312556 11.097499951 -4 9 C-1.69 9 0.62 9 3 9 C-0.3 8.34 -3.6 7.68 -7 7 C-6.67 6.01 -6.34 5.02 -6 4 C-4.8553125 4.2475 -4.8553125 4.2475 -3.6875 4.5 C-0.964037636 5.091453958 -0.964037636 5.091453958 2 5 C0.68 4.34 -0.64 3.68 -2 3 C3.75 2.875 3.75 2.875 6 4 C6 3.34 6 2.68 6 2 C3.03 1.505 3.03 1.505 0 1 C0 0.67 0 0.34 0 0 Z " fill="#2A2A23" transform="translate(97,46)" />
<path d="M0 0 C0.66 0 1.32 0 2 0 C2.66 1.32 3.32 2.64 4 4 C4.66 4 5.32 4 6 4 C6.881355374 8.561895416 7.164067918 12.918261413 7.1875 17.5625 C7.201679688 18.842539062 7.215859375 20.122578125 7.23046875 21.44140625 C7.013715799 24.788218765 6.452139965 27.009624815 5 30 C4.34 30 3.68 30 3 30 C3 25.38 3 20.76 3 16 C2.67 16 2.34 16 2 16 C1.661043439 14.271926818 1.329084752 12.542480259 1 10.8125 C0.814375 9.849570312 0.62875 8.886640625 0.4375 7.89453125 C0.031223877 5.206579403 -0.079335717 2.712289811 0 0 Z " fill="#6C6A63" transform="translate(88,86)" />
<path d="M0 0 C0.66 0.33 1.32 0.66 2 1 C1.555273437 1.501445312 1.110546875 2.002890625 0.65234375 2.51953125 C-6.464785939 12.036057736 -4.00263284 23.008732497 -2.44140625 34.08203125 C-2.295742187 35.044960938 -2.150078125 36.007890625 -2 37 C-2.66 36.01 -3.32 35.02 -4 34 C-4.524970703 33.393012695 -5.049941406 32.786025391 -5.590820312 32.160644531 C-7.359214382 29.449229508 -7.43902304 27.649762589 -7.546875 24.4296875 C-7.586835937 23.368789063 -7.626796875 22.307890625 -7.66796875 21.21484375 C-7.695039063 20.112695312 -7.722109375 19.010546875 -7.75 17.875 C-7.792539062 16.765117188 -7.835078125 15.655234375 -7.87890625 14.51171875 C-8.149026786 6.298053571 -8.149026786 6.298053571 -7 4 C-5 3.333333333 -3 2.666666667 -1 2 C-0.67 1.34 -0.34 0.68 0 0 Z " fill="#E0DEDA" transform="translate(45,112)" />
<path d="M0 0 C1.180157737 2.360315474 1.038485952 3.566255934 0.9375 6.1875 C0.855848941 15.536546242 1.562294616 24.683861691 6 33 C6 33.66 6 34.32 6 35 C4.00045254 35.042543563 1.999583637 35.040807829 0 35 C-2.094362012 32.905637988 -1.422121472 28.522586487 -1.5625 25.625 C-1.603508301 24.808781738 -1.644516602 23.992563477 -1.686767578 23.151611328 C-2.523657438 5.63583578 -2.523657438 5.63583578 0 0 Z " fill="#E1DED8" transform="translate(75,65)" />
<path d="M0 0 C2.959107385 2.959107385 2.867757741 6.510601351 3.4375 10.5 C4.462743798 17.194356323 5.731232357 23.595960838 8 30 C1.125 28.125 1.125 28.125 0 27 C-0.087580029 25.000350179 -0.106965762 22.997638903 -0.09765625 20.99609375 C-0.094433594 19.781152344 -0.091210937 18.566210938 -0.087890625 17.314453125 C-0.079511719 16.035058594 -0.071132812 14.755664063 -0.0625 13.4375 C-0.057988281 12.154238281 -0.053476562 10.870976563 -0.048828125 9.548828125 C-0.036995455 6.365839777 -0.020510683 3.182942377 0 0 Z " fill="#E1DED8" transform="translate(65,69)" />
<path d="M0 0 C0.99 0.33 1.98 0.66 3 1 C3 1.66 3 2.32 3 3 C4.32 3.33 5.64 3.66 7 4 C7.66 10.27 8.32 16.54 9 23 C7.68 22.67 6.36 22.34 5 22 C3.02 15.07 1.04 8.14 -1 1 C-0.67 0.67 -0.34 0.34 0 0 Z " fill="#60605A" transform="translate(93,75)" />
</svg>