<?xml version='1.0' encoding='utf-8'?>
<svg xmlns="http://www.w3.org/2000/svg" version="1.1" width="162" height="114" viewBox="2.0625 13.0 162.9375 114.369230769">
<path d="M0 0 C0 0.66 0 1.32 0 2 C-1.98 2.99 -3.96 3.98 -6 5 C-6.495 4.01 -6.495 4.01 -7 3 C-6.505 6.465 -6.505 6.465 -6 10 C-6.99 10 -7.98 10 -9 10 C-9.495 7.03 -9.495 7.03 -10 4 C-10.556875 4.33 -11.11375 4.66 -11.6875 5 C-14.302845223 6.130960096 -16.180664598 6.156629745 -19 6 C-19 7.65 -19 9.3 -19 11 C-19.66 11 -20.32 11 -21 11 C-21.66 11.66 -22.32 12.32 -23 13 C-23.66 11.35 -24.32 9.7 -25 8 C-25.33 8.99 -25.66 9.98 -26 11 C-26.66 11 -27.32 11 -28 11 C-27.505 13.97 -27.505 13.97 -27 17 C-27.66 17 -28.32 17 -29 17 C-29.495 14.03 -29.495 14.03 -30 11 C-30.99 12.65 -31.98 14.3 -33 16 C-33.99 15.67 -34.98 15.34 -36 15 C-36 14.01 -36 13.02 -36 12 C-37.98 12.33 -39.96 12.66 -42 13 C-42.33 14.65 -42.66 16.3 -43 18 C-44.32 18.33 -45.64 18.66 -47 19 C-47 16.69 -47 14.38 -47 12 C-47.66 12 -48.32 12 -49 12 C-49.33 12.99 -49.66 13.98 -50 15 C-52.0625 15.6875 -52.0625 15.6875 -54 16 C-54 15.01 -54 14.02 -54 13 C-54.66 12.67 -55.32 12.34 -56 12 C-56.33 12.99 -56.66 13.98 -57 15 C-57 14.01 -57 13.02 -57 12 C-57.66 12 -58.32 12 -59 12 C-59.33 12.99 -59.66 13.98 -60 15 C-60.66 15 -61.32 15 -62 15 C-62 16.98 -62 18.96 -62 21 C-61.34 21.33 -60.68 21.66 -60 22 C-59.687585453 24.714469787 -59.486634079 27.339093612 -59.375 30.0625 C-59.336328125 30.821113281 -59.29765625 31.579726562 -59.2578125 32.361328125 C-59.163264383 34.240471951 -59.080532438 36.120203364 -59 38 C-58.34 36.68 -57.68 35.36 -57 34 C-56.34 34 -55.68 34 -55 34 C-54.67 36.64 -54.34 39.28 -54 42 C-52.515 41.505 -52.515 41.505 -51 41 C-48.3125 41.4375 -48.3125 41.4375 -46 42 C-45.505 41.01 -45.505 41.01 -45 40 C-44.505 41.98 -44.505 41.98 -44 44 C-41.03 43.505 -41.03 43.505 -38 43 C-37.505 45.97 -37.505 45.97 -37 49 C-48.670342837 52.03032086 -57.57556691 53.495535043 -69 49 C-69.99 48.34 -70.98 47.68 -72 47 C-71.079219327 42.027784365 -68.61402289 38.441926562 -65 35 C-65 34.67 -65 34.34 -65 34 C-65.33 34 -65.66 34 -66 34 C-66.164355469 33.004199219 -66.164355469 33.004199219 -66.33203125 31.98828125 C-67.221601692 27.034169439 -68.103743095 23.212737317 -71 19 C-71 18.34 -71 17.68 -71 17 C-69.02 17.66 -67.04 18.32 -65 19 C-65.33 16.69 -65.66 14.38 -66 12 C-66.66 12.66 -67.32 13.32 -68 14 C-68.33 13.67 -68.66 13.34 -69 13 C-69.66 13.66 -70.32 14.32 -71 15 C-71.33 14.34 -71.66 13.68 -72 13 C-73.32 14.65 -74.64 16.3 -76 18 C-76.33 17.01 -76.66 16.02 -77 15 C-77.33 16.65 -77.66 18.3 -78 20 C-80 17 -80 17 -81 15 C-81.66 16.32 -82.32 17.64 -83 19 C-83.66 16.69 -84.32 14.38 -85 12 C-75.699828264 7.349914132 -65.004568427 8.323702631 -55 10 C-50.32921438 10.184230523 -45.672346766 10.112264625 -41 10 C-40.182734375 9.983242187 -39.36546875 9.966484375 -38.5234375 9.94921875 C-34.01089492 9.644317224 -32.20106975 8.305978329 -29.01953125 5.2734375 C-24.188373042 2.227097895 -17.57126335 1.8539021 -12 1 C-10.706425781 0.800839844 -10.706425781 0.800839844 -9.38671875 0.59765625 C-6.219024489 0.162172858 -3.204202071 0 0 0 Z " fill="#CFCDC1" transform="translate(127,30)" />
<path d="M0 0 C0.33 0 0.66 0 1 0 C3.333889387 14.59247345 3.617567814 29.249932598 4 44 C3.01 43.34 2.02 42.68 1 42 C0.659423828 39.019042969 0.659423828 39.019042969 0.70703125 35.2421875 C0.711276093 34.579136047 0.715520935 33.916084595 0.719894409 33.232940674 C0.736700286 31.113215588 0.774352993 28.99443812 0.8125 26.875 C0.827544507 25.438815806 0.841233323 24.002616722 0.853515625 22.56640625 C0.886609103 19.043962364 0.938403196 15.522073638 1 12 C-0.076890869 12.318317871 -0.076890869 12.318317871 -1.175537109 12.643066406 C-12.515755159 15.886385868 -21.852195575 15.962295127 -33 12 C-34.329352808 11.651130395 -35.661650463 11.312585039 -37 11 C-39.713960973 14.844778045 -40.398961535 17.312201959 -40 22 C-39.697280387 23.340615428 -39.361620285 24.674058954 -39 26 C-38.896875 27.093125 -38.79375 28.18625 -38.6875 29.3125 C-37.400074972 36.217779694 -34.483655253 39.734934803 -29 44 C-29 44.99 -29 45.98 -29 47 C-31.97 47 -34.94 47 -38 47 C-38.33 46.01 -38.66 45.02 -39 44 C-39.617460937 43.751210937 -40.234921875 43.502421875 -40.87109375 43.24609375 C-44.073751236 41.371510745 -44.814545574 38.389257215 -46.0625 35.0625 C-48.111395326 29.438306591 -48.111395326 29.438306591 -52 25 C-52.33 27.64 -52.66 30.28 -53 33 C-53.33 33 -53.66 33 -54 33 C-54.090445458 27.82450991 -54.016606131 23.083030655 -53 18 C-53.377220146 15.274970346 -53.377220146 15.274970346 -54 13 C-56.708005968 15.039491261 -56.708005968 15.039491261 -59 18 C-58.995108489 21.534625871 -58.995108489 21.534625871 -58 25 C-56.781561756 30.009135001 -56.910436392 34.874971303 -57 40 C-56.01 40.33 -55.02 40.66 -54 41 C-53.67 41.99 -53.34 42.98 -53 44 C-50.984916418 44.733237961 -50.984916418 44.733237961 -49 45 C-48.67 44.34 -48.34 43.68 -48 43 C-47.34 43 -46.68 43 -46 43 C-46 44.32 -46 45.64 -46 47 C-51.270711024 47.527071102 -51.270711024 47.527071102 -54 47 C-56.4375 44.0625 -56.4375 44.0625 -58 41 C-58.33 40.67 -58.66 40.34 -59 40 C-59.40612526 37.456529393 -59.755003329 34.930638999 -60.0625 32.375 C-60.153378906 31.675039063 -60.244257812 30.975078125 -60.337890625 30.25390625 C-61.837495634 18.09921302 -61.837495634 18.09921302 -59 14.375 C-58.34 13.59125 -57.68 12.8075 -57 12 C-56.664074921 9.289539304 -56.664074921 9.289539304 -57 7 C-55.68 8.32 -54.36 9.64 -53 11 C-51.903410641 7.710231922 -52.200468622 6.286962332 -53 3 C-52.01 2.34 -51.02 1.68 -50 1 C-50 1.66 -50 2.32 -50 3 C-49.34 3 -48.68 3 -48 3 C-47.360625 3.99 -46.72125 4.98 -46.0625 6 C-45.0415625 7.485 -45.0415625 7.485 -44 9 C-43.01 9 -42.02 9 -41 9 C-40.34 8.01 -39.68 7.02 -39 6 C-38.01 6 -37.02 6 -36 6 C-35.484375 6.598125 -34.96875 7.19625 -34.4375 7.8125 C-29.271720621 12.448455853 -22.010778301 13.46656434 -15.234375 13.23828125 C-12.097879458 12.903794837 -9.09152457 12.237121199 -6.04296875 11.4375 C-4 11 -4 11 0 11 C0 7.37 0 3.74 0 0 Z " fill="#918F84" transform="translate(90,68)" />
<path d="M0 0 C0.66 0 1.32 0 2 0 C1.541775316 3.469415463 1.108683171 6.673950486 0 10 C0.576210938 10.228164062 1.152421875 10.456328125 1.74609375 10.69140625 C4.597288736 12.346779422 6.068637653 14.321275995 8.0625 16.9375 C10.732609718 20.456279866 10.732609718 20.456279866 13.75 23.6640625 C15 25 15 25 14.9375 27.4375 C13.777824339 30.607280139 12.672601798 31.930604868 10 34 C6.7578125 34.21484375 6.7578125 34.21484375 3.125 33.9375 C-1.620539337 33.63856941 -1.620539337 33.63856941 -6.00390625 35.0625 C-7.353500539 36.356933759 -8.677698313 37.677698313 -10 39 C-11.093125 39.061875 -12.18625 39.12375 -13.3125 39.1875 C-19.356076017 40.519135394 -22.172339513 45.394072131 -26 50 C-26.707695312 50.601992188 -27.415390625 51.203984375 -28.14453125 51.82421875 C-33.235758662 57.794352789 -32.397108465 66.902897248 -32.4375 74.3125 C-32.470371094 75.395957031 -32.503242188 76.479414062 -32.537109375 77.595703125 C-32.544199219 78.632753906 -32.551289063 79.669804688 -32.55859375 80.73828125 C-32.57204834 81.677121582 -32.58550293 82.615961914 -32.599365234 83.583251953 C-32.225382986 86.258936372 -32.225382986 86.258936372 -29.484619141 87.660888672 C-28.664694824 88.10279541 -27.844770508 88.544702148 -27 89 C-26.6875 91.6875 -26.6875 91.6875 -27 94 C-33.523076923 94.369230769 -33.523076923 94.369230769 -35.9375 92.5 C-36.288125 92.005 -36.63875 91.51 -37 91 C-36.67 91.99 -36.34 92.98 -36 94 C-38.97 94 -41.94 94 -45 94 C-45.33 92.68 -45.66 91.36 -46 90 C-45.34 90.33 -44.68 90.66 -44 91 C-44 91.66 -44 92.32 -44 93 C-41.525 92.505 -41.525 92.505 -39 92 C-39 91.34 -39 90.68 -39 90 C-39.64453125 89.765390625 -40.2890625 89.53078125 -40.953125 89.2890625 C-43 88 -43 88 -43.609375 85.8359375 C-43.678984375 84.617773438 -43.678984375 84.617773438 -43.75 83.375 C-43.80671875 82.557734375 -43.8634375 81.74046875 -43.921875 80.8984375 C-43.960546875 79.958710938 -43.960546875 79.958710938 -44 79 C-43.67 79 -43.34 79 -43 79 C-42.01 81.97 -41.02 84.94 -40 88 C-40.33 84.7 -40.66 81.4 -41 78 C-41.66 78 -42.32 78 -43 78 C-44.014057327 65.070769075 -37.560270562 53.292347237 -32 42 C-31.116631634 44.466764495 -30.8687594 45.638593725 -31.77734375 48.140625 C-32.160195313 48.83671875 -32.543046875 49.5328125 -32.9375 50.25 C-33.317773437 50.95640625 -33.698046875 51.6628125 -34.08984375 52.390625 C-34.390195312 52.92171875 -34.690546875 53.4528125 -35 54 C-28.583044452 49.970748842 -23.584572993 45.025438791 -19 39 C-19 38.01 -19 37.02 -19 36 C-16.36 36.33 -13.72 36.66 -11 37 C-10.505 36.01 -10.505 36.01 -10 35 C-10.94875 34.566875 -11.8975 34.13375 -12.875 33.6875 C-16 32 -16 32 -18 29 C-18.265625 26.40625 -18.265625 26.40625 -18.25 23.5 C-18.25515625 22.5409375 -18.2603125 21.581875 -18.265625 20.59375 C-18 18 -18 18 -16 15 C-16.069609375 16.338046875 -16.069609375 16.338046875 -16.140625 17.703125 C-16.17671875 18.87359375 -16.2128125 20.0440625 -16.25 21.25 C-16.319609375 22.990234375 -16.319609375 22.990234375 -16.390625 24.765625 C-16.26648582 28.0637666 -16.26648582 28.0637666 -14.19140625 30.40234375 C-11.031942282 32.70576757 -8.842258136 32.325615096 -5 32 C-3.845 31.814375 -2.69 31.62875 -1.5 31.4375 C2.235329267 30.970583842 5.300798005 31.41973302 9 32 C9.66 31.67 10.32 31.34 11 31 C10.34 30.34 9.68 29.68 9 29 C10.32 28.67 11.64 28.34 13 28 C10.844426084 23.815650634 8.047343551 20.922845907 4.69140625 17.70703125 C3 16 3 16 1 13.1875 C-1.66728219 10.270160105 -4.200072995 9.803830713 -8 9 C-8.33 9.66 -8.66 10.32 -9 11 C-9 8.36 -9 5.72 -9 3 C-8.34 4.32 -7.68 5.64 -7 7 C-6.21625 6.21625 -5.4325 5.4325 -4.625 4.625 C-3.083333333 3.083333333 -1.541666667 1.541666667 0 0 Z " fill="#403E35" transform="translate(140,23)" />
<path d="M0 0 C0.99 0 1.98 0 3 0 C3.33 1.98 3.66 3.96 4 6 C5.001601563 6.012890625 6.003203125 6.02578125 7.03515625 6.0390625 C12.333028428 6.799905821 15.057751556 10.526736164 18.4375 14.375 C19.073652344 15.06078125 19.709804687 15.7465625 20.365234375 16.453125 C25 21.570782425 25 21.570782425 25 25 C24.34 25.33 23.68 25.66 23 26 C23 26.99 23 27.98 23 29 C18.935342568 29.703498402 15.959433658 30.055848975 12 29 C10.329951715 29.315955081 8.663624166 29.651799593 7 30 C2.818705595 30.447995829 0.689345413 30.387756795 -3 28.3125 C-6.163443575 23.073046579 -5.095727896 17.863232716 -4 12 C-3.385642407 10.313350371 -2.73611909 8.637177726 -2 7 C-1.01 7.66 -0.02 8.32 1 9 C0.67 8.34 0.34 7.68 0 7 C-0.040223907 4.667013399 -0.043202469 2.332933345 0 0 Z " fill="#B2B0A4" transform="translate(128,26)" />
<path d="M0 0 C0.99 0 1.98 0 3 0 C3.33 0.66 3.66 1.32 4 2 C4.66 2 5.32 2 6 2 C6.048984375 2.868828125 6.09796875 3.73765625 6.1484375 4.6328125 C6.223203125 5.785234375 6.29796875 6.93765625 6.375 8.125 C6.479414062 9.830429688 6.479414062 9.830429688 6.5859375 11.5703125 C6.994438762 14.953936164 7.80967569 17.816124407 9 21 C9.33 19.02 9.66 17.04 10 15 C10.66 15.66 11.32 16.32 12 17 C11.835 16.29875 11.67 15.5975 11.5 14.875 C10.97584662 11.861118062 10.929003169 9.052863751 11 6 C11.99 7.485 11.99 7.485 13 9 C13.66 9 14.32 9 15 9 C17.029177719 13.185179046 17.368201324 16.369160273 17 21 C15.951439833 23.880702677 14.552427269 26.54090822 13.125 29.25 C9.864588659 35.747432775 7.632811694 41.675204642 7 49 C7.33 49 7.66 49 8 49 C9.190889858 54.38027025 10.291951903 59.45291384 10 65 C9.01 64.34 8.02 63.68 7 63 C7.901178823 65.065880785 7.901178823 65.065880785 9.5625 66.5625 C10.036875 67.036875 10.51125 67.51125 11 68 C11 68.33 11 68.66 11 69 C8.125 69.125 8.125 69.125 5 69 C1.581573125 65.581573125 1.857037122 61.841411456 1.71875 57.16796875 C1.662675781 55.475107422 1.662675781 55.475107422 1.60546875 53.748046875 C1.570664063 52.573066406 1.535859375 51.398085937 1.5 50.1875 C1.296296015 43.378505688 1.054924342 36.730591671 0 30 C-0.061618099 28.188427896 -0.087328078 26.37494968 -0.0625 24.5625 C-0.053476562 23.697539062 -0.044453125 22.832578125 -0.03515625 21.94140625 C-0.023554687 21.300742187 -0.011953125 20.660078125 0 20 C0.33 20.66 0.66 21.32 1 22 C1.66 22 2.32 22 3 22 C3 20.68 3 19.36 3 18 C3.66 18 4.32 18 5 18 C4.67 15.69 4.34 13.38 4 11 C3.01 11 2.02 11 1 11 C0.67 7.37 0.34 3.74 0 0 Z " fill="#D4D2C6" transform="translate(91,47)" />
<path d="M0 0 C0.66 0.99 1.32 1.98 2 3 C2.99 2.01 3.98 1.02 5 0 C6.3271261 3.981378299 6.069159129 7.850452269 6 12 C5.01 11.34 4.02 10.68 3 10 C3 9.34 3 8.68 3 8 C1.68 7.67 0.36 7.34 -1 7 C-0.38125 8.11375 0.2375 9.2275 0.875 10.375 C1.397070312 11.314726562 1.397070312 11.314726562 1.9296875 12.2734375 C3.008972737 14.161261395 3.008972737 14.161261395 5 16 C5.33 16 5.66 16 6 16 C7.332574032 25.410022779 7.332574032 25.410022779 6 30 C4.68 29.67 3.36 29.34 2 29 C0.515 31.475 0.515 31.475 -1 34 C-1.33 33.34 -1.66 32.68 -2 32 C-1.0625 29.375 -1.0625 29.375 0 27 C-1.32 26.67 -2.64 26.34 -4 26 C-4 27.98 -4 29.96 -4 32 C-5.485 32.495 -5.485 32.495 -7 33 C-7.33 31.35 -7.66 29.7 -8 28 C-8.66 28.66 -9.32 29.32 -10 30 C-12.149825477 20.940021205 -12.208717526 12.241548255 -12 3 C-11.01 4.32 -10.02 5.64 -9 7 C-8.34 5.68 -7.68 4.36 -7 3 C-6.67 3.66 -6.34 4.32 -6 5 C-5.34 4.01 -4.68 3.02 -4 2 C-3.01 2.33 -2.02 2.66 -1 3 C-0.67 2.01 -0.34 1.02 0 0 Z " fill="#AEAB9E" transform="translate(57,40)" />
<path d="M0 0 C0.66 1.32 1.32 2.64 2 4 C2.66 3.67 3.32 3.34 4 3 C4 4.32 4 5.64 4 7 C4.66 7 5.32 7 6 7 C6 10.63 6 14.26 6 18 C6.33 18 6.66 18 7 18 C7 21.96 7 25.92 7 30 C5.356499213 26.712998425 4.586783308 24.520699848 4 21 C3.01 21.33 2.02 21.66 1 22 C1.350625 23.2375 1.70125 24.475 2.0625 25.75 C2.955932732 28.903291996 3.008812942 30.867741635 2 34 C1.34 32.35 0.68 30.7 0 29 C-0.910585314 32.073225436 -1.088861844 34.800973606 -1 38 C-5.889270536 30.666094197 -5.233106365 22.495431985 -5 14 C-6.65 13.67 -8.3 13.34 -10 13 C-9.67 14.65 -9.34 16.3 -9 18 C-8.01 17.67 -7.02 17.34 -6 17 C-6 21.29 -6 25.58 -6 30 C-6.66 29.01 -7.32 28.02 -8 27 C-8.66 28.32 -9.32 29.64 -10 31 C-10.503433721 27.562993716 -11.002155237 24.12531992 -11.5 20.6875 C-11.643085938 19.711035156 -11.786171875 18.734570312 -11.93359375 17.728515625 C-12.068945313 16.790722656 -12.204296875 15.852929688 -12.34375 14.88671875 C-12.469433594 14.022644043 -12.595117187 13.158569336 -12.724609375 12.268310547 C-13 10 -13 10 -13 7 C-12.01 6.67 -11.02 6.34 -10 6 C-9.67 6.99 -9.34 7.98 -9 9 C-8.34 9 -7.68 9 -7 9 C-6.34 7.35 -5.68 5.7 -5 4 C-4.023917827 6.928246518 -3.917733318 8.956132755 -4 12 C-3.34 12 -2.68 12 -2 12 C-2.33 10.02 -2.66 8.04 -3 6 C-2.34 6 -1.68 6 -1 6 C-0.67 4.02 -0.34 2.04 0 0 Z " fill="#A9A799" transform="translate(102,35)" />
<path d="M0 0 C1.32 1.32 2.64 2.64 4 4 C5.32 2.68 6.64 1.36 8 0 C8.33 0.99 8.66 1.98 9 3 C9.99 2.67 10.98 2.34 12 2 C14.6875 2.4375 14.6875 2.4375 17 3 C17.33 2.34 17.66 1.68 18 1 C18.33 2.32 18.66 3.64 19 5 C20.98 4.67 22.96 4.34 25 4 C25.495 6.97 25.495 6.97 26 10 C14.329657163 13.03032086 5.42443309 14.495535043 -6 10 C-6.99 9.34 -7.98 8.68 -9 8 C-9 7.34 -9 6.68 -9 6 C-8.01 5.67 -7.02 5.34 -6 5 C-5.34 4.01 -4.68 3.02 -4 2 C-4 2.99 -4 3.98 -4 5 C-2.68 5 -1.36 5 0 5 C0 3.35 0 1.7 0 0 Z " fill="#E7E5DB" transform="translate(64,69)" />
<path d="M0 0 C0.99 0 1.98 0 3 0 C3.33 1.98 3.66 3.96 4 6 C5.051875 6.04125 6.10375 6.0825 7.1875 6.125 C12.184720546 7.271903076 13.122853981 8.902246579 16 13 C15.01 14.485 15.01 14.485 14 16 C13.67 15.34 13.34 14.68 13 14 C10.975367449 13.347867083 10.975367449 13.347867083 9 13 C9 13.66 9 14.32 9 15 C10.670625 15.4021875 10.670625 15.4021875 12.375 15.8125 C16 17 16 17 18 20 C18 20.99 18 21.98 18 23 C18.66 23 19.32 23 20 23 C20 24.32 20 25.64 20 27 C17.69 26.34 15.38 25.68 13 25 C13 24.01 13 23.02 13 22 C13.66 22 14.32 22 15 22 C14.34 21.01 13.68 20.02 13 19 C12.67 19.66 12.34 20.32 12 21 C11.34 20.01 10.68 19.02 10 18 C7.940748609 17.276175331 7.940748609 17.276175331 6 17 C6 17.66 6 18.32 6 19 C5.34 19 4.68 19 4 19 C3.67 17.35 3.34 15.7 3 14 C2.01 13.67 1.02 13.34 0 13 C0 17.62 0 22.24 0 27 C2.475 27.99 2.475 27.99 5 29 C5 29.33 5 29.66 5 30 C-1.456865897 29.512689366 -1.456865897 29.512689366 -3.7421875 27.35546875 C-5.431093853 24.192703126 -5.16091913 22.108177032 -4.8125 18.5625 C-4.715820312 17.450039062 -4.619140625 16.337578125 -4.51953125 15.19140625 C-4.03025912 12.185877453 -3.254556348 9.762089078 -2 7 C-1.01 7.66 -0.02 8.32 1 9 C0.67 8.34 0.34 7.68 0 7 C-0.040223907 4.667013399 -0.043202469 2.332933345 0 0 Z " fill="#D6D4C9" transform="translate(128,26)" />
<path d="M0 0 C0.99 0.33 1.98 0.66 3 1 C3.33 3.31 3.66 5.62 4 8 C3.34 8 2.68 8 2 8 C2.280730727 10.14729141 2.574884985 12.292831933 2.875 14.4375 C3.118632812 16.229941406 3.118632812 16.229941406 3.3671875 18.05859375 C3.576015625 19.029257812 3.78484375 19.999921875 4 21 C4.66 21.33 5.32 21.66 6 22 C6.37125 20.329375 6.37125 20.329375 6.75 18.625 C8 15 8 15 9.9375 13.75 C10.618125 13.5025 11.29875 13.255 12 13 C12.53625 12.46375 13.0725 11.9275 13.625 11.375 C14.305625 10.694375 14.305625 10.694375 15 10 C15.66 10 16.32 10 17 10 C17.66 15.94 18.32 21.88 19 28 C18.01 27.34 17.02 26.68 16 26 C15.4740625 26.7734375 15.4740625 26.7734375 14.9375 27.5625 C13 29 13 29 9.5 28.8125 C6 28 6 28 3 26 C2.34 26.99 1.68 27.98 1 29 C0.34 28.34 -0.32 27.68 -1 27 C-1.33 27 -1.66 27 -2 27 C-2.33 18.75 -2.66 10.5 -3 2 C-2.67 2.66 -2.34 3.32 -2 4 C-1.34 4 -0.68 4 0 4 C0 2.68 0 1.36 0 0 Z " fill="#B0AE9F" transform="translate(67,41)" />
<path d="M0 0 C0.99 0 1.98 0 3 0 C3.33 0.66 3.66 1.32 4 2 C4.66 2 5.32 2 6 2 C6.048984375 2.868828125 6.09796875 3.73765625 6.1484375 4.6328125 C6.223203125 5.785234375 6.29796875 6.93765625 6.375 8.125 C6.479414062 9.830429688 6.479414062 9.830429688 6.5859375 11.5703125 C6.994438762 14.953936164 7.80967569 17.816124407 9 21 C9.33 19.02 9.66 17.04 10 15 C10.66 15.66 11.32 16.32 12 17 C11.835 16.29875 11.67 15.5975 11.5 14.875 C10.97584662 11.861118062 10.929003169 9.052863751 11 6 C11.99 7.485 11.99 7.485 13 9 C13.66 9 14.32 9 15 9 C17.230815168 13.601056284 17.94706912 17.971721925 16.388183594 22.956298828 C15.557512755 24.970189767 14.647738066 26.919746634 13.6875 28.875 C13.378769531 29.55046875 13.070039063 30.2259375 12.751953125 30.921875 C11.923191474 32.659657324 10.968806604 34.336225062 10 36 C8.515 36.495 8.515 36.495 7 37 C6.867226562 36.047382812 6.734453125 35.094765625 6.59765625 34.11328125 C6.421054688 32.859023437 6.244453125 31.604765625 6.0625 30.3125 C5.888476563 29.071132812 5.714453125 27.829765625 5.53515625 26.55078125 C5.218965426 24.452843596 4.867354375 22.358879479 4.4375 20.28125 C3.841597208 17.174042586 3.938149275 14.154386954 4 11 C3.01 11 2.02 11 1 11 C0.67 7.37 0.34 3.74 0 0 Z " fill="#CDCBBF" transform="translate(91,47)" />
<path d="M0 0 C0.99 0.33 1.98 0.66 3 1 C3 1.66 3 2.32 3 3 C2.01 3 1.02 3 0 3 C0.99 7.95 0.99 7.95 2 13 C0.68 13 -0.64 13 -2 13 C-2.66 13.66 -3.32 14.32 -4 15 C-3.67 13.02 -3.34 11.04 -3 9 C-2.34 9 -1.68 9 -1 9 C-1 8.34 -1 7.68 -1 7 C-5.380602923 7.697791185 -9.752852907 8.438691577 -14.125 9.1875 C-15.3625 9.384082031 -16.6 9.580664062 -17.875 9.783203125 C-24.781266508 10.989943241 -29.048700562 11.999352062 -34 17 C-36.895773683 17.672233176 -39.074615424 17.940015774 -42 18 C-43.126640625 18.027070313 -44.25328125 18.054140625 -45.4140625 18.08203125 C-51.104778914 18.147923756 -56.390246828 17.950561513 -62 17 C-75.064409224 16.015598874 -86.329363133 17.768365845 -97 26 C-97.66 25.67 -98.32 25.34 -99 25 C-89.974133971 16.876720574 -79.350164429 13.632374313 -67.41015625 13.796875 C-63.12057034 14.052382981 -58.998333086 14.770346081 -54.77734375 15.546875 C-47.775948426 16.689156094 -40.730563452 16.370844269 -34 14 C-31.326015245 12.061021211 -31.326015245 12.061021211 -29 10 C-20.668590544 6.342308044 -10.98801059 5.700399647 -2 6 C-1.34 4.02 -0.68 2.04 0 0 Z " fill="#444237" transform="translate(128,23)" />
<path d="M0 0 C0.66 0 1.32 0 2 0 C2 3.3 2 6.6 2 10 C2.66 10.33 3.32 10.66 4 11 C4.312414547 13.714469787 4.513365921 16.339093612 4.625 19.0625 C4.663671875 19.821113281 4.70234375 20.579726562 4.7421875 21.361328125 C4.836735617 23.240471951 4.919467562 25.120203364 5 27 C5.66 25.68 6.32 24.36 7 23 C7.66 23 8.32 23 9 23 C9.625 25.3125 9.625 25.3125 10 28 C8 31 8 31 5 33 C4.01 32.67 3.02 32.34 2 32 C0.2675 32.495 0.2675 32.495 -1.5 33 C-5 34 -5 34 -8 33 C-5.872479676 29.698675359 -3.849618654 26.707137721 -1 24 C-1 23.67 -1 23.34 -1 23 C-1.33 23 -1.66 23 -2 23 C-2.109570312 22.336132812 -2.219140625 21.672265625 -2.33203125 20.98828125 C-3.221601692 16.034169439 -4.103743095 12.212737317 -7 8 C-7 7.34 -7 6.68 -7 6 C-5.02 6.66 -3.04 7.32 -1 8 C-1.020625 6.865625 -1.04125 5.73125 -1.0625 4.5625 C-1 1 -1 1 0 0 Z " fill="#CDCABD" transform="translate(63,41)" />
<path d="M0 0 C0.66 0.33 1.32 0.66 2 1 C1.01 2.485 1.01 2.485 0 4 C-0.562575442 9.738269508 0.788765402 13.844048107 3 19 C3.391875 19.99 3.78375 20.98 4.1875 22 C4.455625 22.66 4.72375 23.32 5 24 C4.34 23.67 3.68 23.34 3 23 C2.762167969 24.233632812 2.762167969 24.233632812 2.51953125 25.4921875 C0.39321641 35.665605462 -2.099637259 44.280698388 -10.3515625 51.0390625 C-12 52 -12 52 -15 52 C-14.9375 49.6875 -14.9375 49.6875 -14 47 C-12.906875 46.5875 -11.81375 46.175 -10.6875 45.75 C-7.492194989 44.538803924 -6.266189732 43.427548714 -4.7734375 40.34375 C-2.037546247 33.70445953 -2.678905565 26.793942836 -2.9375 19.75 C-3.027570288 17.07780871 -3.095208611 14.407768015 -3.15234375 11.734375 C-3.193513184 10.561005859 -3.234682617 9.387636719 -3.277099609 8.178710938 C-2.970799482 4.665030181 -2.034676738 2.838215742 0 0 Z " fill="#403D36" transform="translate(27,49)" />
<path d="M0 0 C3.501028276 0.257093054 7.009665002 0.390187126 10.517578125 0.517578125 C12.34987965 0.608083233 14.176839519 0.796024721 16 1 C16.495 1.99 16.495 1.99 17 3 C15.68 3 14.36 3 13 3 C12.67 4.65 12.34 6.3 12 8 C10.68 8.33 9.36 8.66 8 9 C8 6.69 8 4.38 8 2 C7.34 2 6.68 2 6 2 C5.67 2.99 5.34 3.98 5 5 C2.9375 5.6875 2.9375 5.6875 1 6 C1 5.01 1 4.02 1 3 C0.34 2.67 -0.32 2.34 -1 2 C-1.33 2.99 -1.66 3.98 -2 5 C-2 4.01 -2 3.02 -2 2 C-2.66 2 -3.32 2 -4 2 C-4.33 2.99 -4.66 3.98 -5 5 C-5.66 5 -6.32 5 -7 5 C-7 3.68 -7 2.36 -7 1 C-9.867246864 1.573449373 -10.861451504 1.861451504 -13 4 C-13.33 3.67 -13.66 3.34 -14 3 C-14.66 3.66 -15.32 4.32 -16 5 C-16.33 4.34 -16.66 3.68 -17 3 C-18.32 4.65 -19.64 6.3 -21 8 C-21.33 7.01 -21.66 6.02 -22 5 C-22.33 6.65 -22.66 8.3 -23 10 C-25 7 -25 7 -26 5 C-26.66 6.32 -27.32 7.64 -28 9 C-28.66 6.69 -29.32 4.38 -30 2 C-20.709696983 -2.645151508 -9.995421989 -1.689548749 0 0 Z " fill="#D7D5C8" transform="translate(72,40)" />
<path d="M0 0 C1.905798483 3.92370276 1.950678434 5.817014891 1 10 C0.903819617 13.001840368 0.941128227 15.997539601 1 19 C1.33 19 1.66 19 2 19 C2.455729167 21.018229167 2.911458333 23.036458333 3.3671875 25.0546875 C3.904744283 27.207199644 3.904744283 27.207199644 6 29 C5.625 31.125 5.625 31.125 5 33 C2.5625 32.1875 2.5625 32.1875 0 31 C-0.33 30.01 -0.66 29.02 -1 28 C-1.66 27.67 -2.32 27.34 -3 27 C-3.456882294 24.605100655 -3.797252846 22.29220885 -4.0625 19.875 C-4.218476563 18.573046875 -4.374453125 17.27109375 -4.53515625 15.9296875 C-4.688554688 14.632890625 -4.841953125 13.33609375 -5 12 C-5.22171875 10.743164062 -5.4434375 9.486328125 -5.671875 8.19140625 C-6 5 -6 5 -4.1875 2.0625 C-2 0 -2 0 0 0 Z " fill="#CFCCC0" transform="translate(36,81)" />
<path d="M0 0 C0.846018932 2.444054692 1.009268575 3.948015381 0.55078125 6.51953125 C-0.165681642 11.046966972 -0.301333564 15.485135575 -0.375 20.0625 C-0.412382812 20.947441406 -0.449765625 21.832382813 -0.48828125 22.744140625 C-0.550803387 27.37425218 -0.571047339 29.304772525 2.4609375 32.99609375 C3.298828125 33.657382813 4.13671875 34.318671875 5 35 C5.33 35.66 5.66 36.32 6 37 C4.02 37 2.04 37 0 37 C0 36.34 0 35.68 0 35 C-0.66 35 -1.32 35 -2 35 C-6.018483984 28.026748381 -7.259716873 16.963210231 -6 9 C-3.355509356 1.677754678 -3.355509356 1.677754678 0 0 Z " fill="#E3E1D6" transform="translate(106,78)" />
<path d="M0 0 C3.875 3.6953125 3.875 3.6953125 5 6.4375 C5 9 5 9 3.0625 11.375 C0.338848484 14.841465566 0.632424782 16.662612431 1 21 C1.183406926 22.375551944 1.370958069 23.750557226 1.5625 25.125 C1.946011745 28.521818309 1.912624188 30.755113999 1 34 C0.01 33.67 -0.98 33.34 -2 33 C-2.33 30.69 -2.66 28.38 -3 26 C-4.65 25.67 -6.3 25.34 -8 25 C-7.590078125 24.20078125 -7.18015625 23.4015625 -6.7578125 22.578125 C-3.074930216 15.071388862 -0.869377741 8.319045622 0 0 Z " fill="#EBE8DF" transform="translate(29,71)" />
<path d="M0 0 C2 0.3125 2 0.3125 4 1 C5.582699298 4.165398596 5.656965489 7.646415085 6.0625 11.125 C6.153378906 11.879101562 6.244257812 12.633203125 6.337890625 13.41015625 C6.561908517 15.27304188 6.781385728 17.136472515 7 19 C7.66 18.34 8.32 17.68 9 17 C9.749260706 20.663052343 10.238001398 23.423551516 9 27 C7.68 27 6.36 27 5 27 C4.71125 26.360625 4.4225 25.72125 4.125 25.0625 C3.171765491 22.847939209 3.171765491 22.847939209 1 22 C0.518530806 19.396499915 0.157016306 16.875987895 -0.125 14.25 C-0.211367188 13.53328125 -0.297734375 12.8165625 -0.38671875 12.078125 C-0.815091212 8.379162788 -1.213187726 4.723678942 -1 1 C-0.67 0.67 -0.34 0.34 0 0 Z " fill="#B6B4A5" transform="translate(85,42)" />
<path d="M0 0 C3.443270413 3.045969981 5.056625975 5.870659087 6.75 10.125 C7.17796875 11.179453125 7.6059375 12.23390625 8.046875 13.3203125 C9 16 9 16 9 18 C11.475 18.99 11.475 18.99 14 20 C14 20.66 14 21.32 14 22 C11.509351119 22.687075553 9.621137084 23 7 23 C6.87625 22.071875 6.87625 22.071875 6.75 21.125 C6.206739092 18.833301285 6.206739092 18.833301285 4.0625 17.9375 C3.381875 17.628125 2.70125 17.31875 2 17 C-0.330566294 13.504150559 -0.406970065 11.523163957 -0.6875 7.375 C-0.773867188 6.207109375 -0.860234375 5.03921875 -0.94921875 3.8359375 C-0.965976563 2.900078125 -0.982734375 1.96421875 -1 1 C-0.67 0.67 -0.34 0.34 0 0 Z " fill="#EAE8DE" transform="translate(38,92)" />
<path d="M0 0 C1.050569795 3.228240959 1.121774585 3.745861735 -0.4375 7 C-0.953125 7.99 -1.46875 8.98 -2 10 C-2 11.32 -2 12.64 -2 14 C-2.977536441 15.021969915 -3.980588103 16.019796253 -5 17 C-9.654712875 25.329486197 -6.675229858 37.495486827 -4.43359375 46.19921875 C-3.96022672 48.165184522 -4 49.98164483 -4 52 C-6.97 52 -9.94 52 -13 52 C-13.33 50.68 -13.66 49.36 -14 48 C-13.34 48.33 -12.68 48.66 -12 49 C-12 49.66 -12 50.32 -12 51 C-9.525 50.505 -9.525 50.505 -7 50 C-7 49.34 -7 48.68 -7 48 C-7.64453125 47.765390625 -8.2890625 47.53078125 -8.953125 47.2890625 C-11 46 -11 46 -11.609375 43.8359375 C-11.65578125 43.023828125 -11.7021875 42.21171875 -11.75 41.375 C-11.80671875 40.557734375 -11.8634375 39.74046875 -11.921875 38.8984375 C-11.94765625 38.271953125 -11.9734375 37.64546875 -12 37 C-11.67 37 -11.34 37 -11 37 C-10.01 39.97 -9.02 42.94 -8 46 C-8.33 42.7 -8.66 39.4 -9 36 C-9.66 36 -10.32 36 -11 36 C-12.014057327 23.070769075 -5.560270562 11.292347237 0 0 Z " fill="#48463C" transform="translate(108,65)" />
<path d="M0 0 C1.725581714 2.984241317 2.211175746 5.006063772 2.0625 8.4375 C1.979626189 11.785601955 2.156983371 14.733310562 3 18 C2.01 17.67 1.02 17.34 0 17 C-2.052704628 18.841886117 -2.052704628 18.841886117 -3 21 C-6.254716099 15.536726548 -7.976386031 11.400752871 -7 5 C-4.625 3.125 -4.625 3.125 -2 2 C-1.34 1.34 -0.68 0.68 0 0 Z " fill="#979588" transform="translate(117,33)" />
<path d="M0 0 C4.480353572 3.626952891 5.995265402 8.938622345 6.6875 14.4375 C6.790625 15.613125 6.89375 16.78875 7 18 C6.34 18 5.68 18 5 18 C4.67 20.64 4.34 23.28 4 26 C3.67 26 3.34 26 3 26 C2.909554542 20.82450991 2.983393869 16.083030655 4 11 C3.622779854 8.274970346 3.622779854 8.274970346 3 6 C0.291994032 8.039491261 0.291994032 8.039491261 -2 11 C-1.995108489 14.534625871 -1.995108489 14.534625871 -1 18 C0.218438244 23.009135001 0.089563608 27.874971303 0 33 C0.99 33.33 1.98 33.66 3 34 C3.33 34.99 3.66 35.98 4 37 C6.015083582 37.733237961 6.015083582 37.733237961 8 38 C8.33 37.34 8.66 36.68 9 36 C9.66 36 10.32 36 11 36 C11 37.32 11 38.64 11 40 C5.729288976 40.527071102 5.729288976 40.527071102 3 40 C0.5625 37.0625 0.5625 37.0625 -1 34 C-1.33 33.67 -1.66 33.34 -2 33 C-2.40612526 30.456529393 -2.755003329 27.930638999 -3.0625 25.375 C-3.153378906 24.675039063 -3.244257812 23.975078125 -3.337890625 23.25390625 C-4.837495634 11.09921302 -4.837495634 11.09921302 -2 7.375 C-1.34 6.59125 -0.68 5.8075 0 5 C0.335925079 2.289539304 0.335925079 2.289539304 0 0 Z " fill="#454338" transform="translate(33,75)" />
<path d="M0 0 C2 3 2 3 3 6 C2.34 6 1.68 6 1 6 C1.66 7.32 2.32 8.64 3 10 C3.350625 9.195625 3.70125 8.39125 4.0625 7.5625 C6 5 6 5 9.6875 4.1875 C10.780625 4.125625 11.87375 4.06375 13 4 C11.693860576 7.918418273 10.16870152 10.326408092 7 13 C6.34 13 5.68 13 5 13 C4.773125 13.5775 4.54625 14.155 4.3125 14.75 C2.65151778 17.597398091 0.684754389 19.120671928 -2 21 C-2.66 21 -3.32 21 -4 21 C-2.125 15.25 -2.125 15.25 -1 13 C-0.770496807 10.795636 -0.589240666 8.586078273 -0.4375 6.375 C-0.311816406 4.592226563 -0.311816406 4.592226563 -0.18359375 2.7734375 C-0.123007813 1.858203125 -0.062421875 0.94296875 0 0 Z " fill="#D0CDC3" transform="translate(109,56)" />
<path d="M0 0 C0.99 0.33 1.98 0.66 3 1 C3.132773437 1.67546875 3.265546875 2.3509375 3.40234375 3.046875 C3.578945312 3.93890625 3.755546875 4.8309375 3.9375 5.75 C4.111523437 6.63171875 4.285546875 7.5134375 4.46484375 8.421875 C4.923684883 10.632350532 5.433360737 12.81512068 6 15 C4.5 13.625 4.5 13.625 3 12 C3 11.34 3 10.68 3 10 C2.34 10 1.68 10 1 10 C0.162032692 14.655373931 -0.016169201 18.370784753 1 23 C-3.898190943 18.918174214 -4.695471689 14.523234574 -5.4375 8.375 C-4.879701487 4.071982899 -3.281708612 2.707409605 0 0 Z " fill="#CAC7BE" transform="translate(31,48)" />
<path d="M0 0 C1.32 1.32 2.64 2.64 4 4 C5.32 2.68 6.64 1.36 8 0 C8.33 0.99 8.66 1.98 9 3 C9.99 2.67 10.98 2.34 12 2 C14.6875 2.4375 14.6875 2.4375 17 3 C17.33 2.34 17.66 1.68 18 1 C18.33 2.32 18.66 3.64 19 5 C13.25 7 13.25 7 11 7 C10.34 7.66 9.68 8.32 9 9 C8.34 7.68 7.68 6.36 7 5 C7 6.65 7 8.3 7 10 C4 10 4 10 2.3125 8.5 C1.879375 8.005 1.44625 7.51 1 7 C0.01 7.495 0.01 7.495 -1 8 C-1.33 8.99 -1.66 9.98 -2 11 C-4.9375 10.1875 -4.9375 10.1875 -8 9 C-8.33 8.01 -8.66 7.02 -9 6 C-8.01 5.67 -7.02 5.34 -6 5 C-5.34 4.01 -4.68 3.02 -4 2 C-4 2.99 -4 3.98 -4 5 C-2.68 5 -1.36 5 0 5 C0 3.35 0 1.7 0 0 Z " fill="#DCD9CE" transform="translate(64,69)" />
<path d="M0 0 C0.33 0 0.66 0 1 0 C1.66 5.28 2.32 10.56 3 16 C3.99 16.33 4.98 16.66 6 17 C6 20.3 6 23.6 6 27 C5.67 26.34 5.34 25.68 5 25 C4.05125 25.20625 3.1025 25.4125 2.125 25.625 C1.09375 25.74875 0.0625 25.8725 -1 26 C-1.66 25.34 -2.32 24.68 -3 24 C-3.99 24.33 -4.98 24.66 -6 25 C-8.6875 24.5625 -8.6875 24.5625 -11 24 C-10.67 22.35 -10.34 20.7 -10 19 C-7.625 18.375 -7.625 18.375 -5 18 C-4.34 18.66 -3.68 19.32 -3 20 C-2.01 19.01 -1.02 18.02 0 17 C0.33 17.33 0.66 17.66 1 18 C0.67 12.06 0.34 6.12 0 0 Z " fill="#C8C6B8" transform="translate(84,48)" />
<path d="M0 0 C0.5775 0.804375 1.155 1.60875 1.75 2.4375 C3.981268928 4.97866739 4.744567709 5.651203683 8 6 C8.66 5.01 9.32 4.02 10 3 C11 4 11 4 11.1875 6.875 C11 10 11 10 9 13 C8.821840287 15.79116884 8.799074915 18.221415295 9.5 20.9375 C10.232392522 23.958619155 10.059489498 26.906546084 10 30 C7.082921013 27.082921013 6.11210179 23.9477686 5.875 19.828125 C5.875 17.884969891 5.933034453 15.942000874 6 14 C5.01 14.33 4.02 14.66 3 15 C2.495643059 13.0636296 1.996661264 11.125858542 1.5 9.1875 C1.2215625 8.108554688 0.943125 7.029609375 0.65625 5.91796875 C0 3 0 3 0 0 Z " fill="#A7A599" transform="translate(41,71)" />
</svg>