<?xml version='1.0' encoding='utf-8'?>
<svg xmlns="http://www.w3.org/2000/svg" version="1.1" width="181" height="136" viewBox="12.0 5.0 181.8125 136.375">
<path d="M0 0 C0.495 1.98 0.495 1.98 1 4 C1.66 2.68 2.32 1.36 3 0 C3.66 0 4.32 0 5 0 C4.67 12.21 4.34 24.42 4 37 C-2 37 -2 37 -5.125 35.9375 C-7.832159334 34.746413231 -7.832159334 34.746413231 -9.8828125 35.59375 C-12.873949885 36.167695181 -14.184408719 35.109400625 -16.75 33.5625 C-17.54921875 33.089414062 -18.3484375 32.616328125 -19.171875 32.12890625 C-19.77515625 31.756367188 -20.3784375 31.383828125 -21 31 C-21.112148437 31.684492187 -21.224296875 32.368984375 -21.33984375 33.07421875 C-22.107035534 36.474376419 -23.304734503 39.562376621 -24.5625 42.8125 C-27.891342224 52.044578152 -27.891342224 52.044578152 -25.6328125 61.1953125 C-22.513116705 67.393108147 -19.665129144 71.992957435 -14 76 C-14 76.66 -14 77.32 -14 78 C-16.31 78 -18.62 78 -21 78 C-21 77.01 -21 76.02 -21 75 C-21.7425 75.020625 -22.485 75.04125 -23.25 75.0625 C-26 74 -26 74 -27.01171875 72.28125 C-27.660867967 70.7254831 -28.28513789 69.159211383 -28.890625 67.5859375 C-30.059983973 64.860178203 -31.52269899 62.637135772 -33.1875 60.1875 C-36.63968715 54.665739697 -36.977990937 49.404637251 -37 43 C-45.334370749 48.869051157 -48.332874661 53.949577844 -50.57421875 63.546875 C-51.177215198 68.437231513 -50.728594806 70.90710779 -48 75 C-48 75.99 -48 76.98 -48 78 C-49.98 78 -51.96 78 -54 78 C-57.131554618 71.873045313 -58.235095301 69.069785014 -56.5625 62.3125 C-56.275039062 61.133007812 -55.987578125 59.953515625 -55.69140625 58.73828125 C-55.463242188 57.834648437 -55.235078125 56.931015625 -55 56 C-54.67 56 -54.34 56 -54 56 C-54.095390625 57.03640625 -54.19078125 58.0728125 -54.2890625 59.140625 C-54.401644058 60.510367288 -54.51358988 61.880161933 -54.625 63.25 C-54.689453125 63.931914062 -54.75390625 64.613828125 -54.8203125 65.31640625 C-55.115947347 69.122704901 -55.175613923 71.778098465 -53 75 C-52.34 75 -51.68 75 -51 75 C-51.66 74.01 -52.32 73.02 -53 72 C-53.774148186 64.87783669 -52.638168989 55.732371394 -48.46484375 49.828125 C-46.8125 48.1875 -46.8125 48.1875 -44 46 C-46.97 46.495 -46.97 46.495 -50 47 C-48.618115466 43.789561184 -47.075780972 41.950636347 -44.375 39.75 C-43.743359375 39.22921875 -43.11171875 38.7084375 -42.4609375 38.171875 C-41.737773437 37.591796875 -41.737773437 37.591796875 -41 37 C-42.65 37.99 -44.3 38.98 -46 40 C-45.846601562 39.315507813 -45.693203125 38.631015625 -45.53515625 37.92578125 C-44.940665887 34.675611309 -44.670503241 31.482831549 -44.4375 28.1875 C-44.353710937 27.026054687 -44.269921875 25.864609375 -44.18359375 24.66796875 C-44.123007812 23.787539063 -44.062421875 22.907109375 -44 22 C-41.703661755 25.444507367 -41.459835152 27.938122828 -41 32 C-40.34 31.67 -39.68 31.34 -39 31 C-38.01 33.64 -37.02 36.28 -36 39 C-36 38.01 -36 37.02 -36 36 C-36 35.34 -36 34.68 -36 34 C-35.01 34 -34.02 34 -33 34 C-34.65 33.01 -36.3 32.02 -38 31 C-35 29 -35 29 -32 29 C-33.65 28.01 -35.3 27.02 -37 26 C-34 24 -34 24 -31.8125 24.375 C-30.9153125 24.684375 -30.9153125 24.684375 -30 25 C-30 25.99 -30 26.98 -30 28 C-29.01 28 -28.02 28 -27 28 C-26.01 28 -25.02 28 -24 28 C-25.387824855 27.153396603 -26.785693966 26.323246611 -28.1875 25.5 C-29.353457031 24.80390625 -29.353457031 24.80390625 -30.54296875 24.09375 C-33.241033859 22.892703528 -35.080698201 22.79258957 -38 23 C-38 22.01 -38 21.02 -38 20 C-39.4540625 19.13375 -39.4540625 19.13375 -40.9375 18.25 C-44 16 -44 16 -44.875 12.25 C-44.936875 10.64125 -44.936875 10.64125 -45 9 C-44.360625 8.71125 -43.72125 8.4225 -43.0625 8.125 C-40.847939209 7.171765491 -40.847939209 7.171765491 -40 5 C-38.68 5.66 -37.36 6.32 -36 7 C-36.99 6.01 -37.98 5.02 -39 4 C-33.557917655 4.340130147 -30.063318017 7.702965282 -26 11 C-27.505716565 9.882662708 -29.004442917 8.755899646 -30.5 7.625 C-31.3353125 6.998515625 -32.170625 6.37203125 -33.03125 5.7265625 C-33.6809375 5.156796875 -34.330625 4.58703125 -35 4 C-35 3.34 -35 2.68 -35 2 C-33.68 2.33 -32.36 2.66 -31 3 C-31 2.34 -31 1.68 -31 1 C-21.925738229 -2.024753924 -9.569019645 0 0 0 Z " fill="#7C7A74" transform="translate(112,52)" />
<path d="M0 0 C0.33 0 0.66 0 1 0 C1.24234375 1.073789062 1.4846875 2.147578125 1.734375 3.25390625 C2.072336093 4.690240896 2.410910649 6.126431294 2.75 7.5625 C2.907265625 8.266972656 3.06453125 8.971445313 3.2265625 9.697265625 C4.12373137 13.441220331 5.165581775 16.493953312 7.203125 19.77734375 C9 23 9 23 8.75 25.4375 C8.5025 25.953125 8.255 26.46875 8 27 C7.181625579 25.586718711 6.370537806 24.169216544 5.5625 22.75 C5.110039062 21.96109375 4.657578125 21.1721875 4.19140625 20.359375 C3.10688398 18.211665324 2.468512837 16.347949389 2 14 C2.193359375 14.60328125 2.38671875 15.2065625 2.5859375 15.828125 C2.846328125 16.62734375 3.10671875 17.4265625 3.375 18.25 C3.630234375 19.03890625 3.88546875 19.8278125 4.1484375 20.640625 C4.943907046 23.002959565 4.943907046 23.002959565 6.09375 25.125 C7.24462985 27.506130724 7.145002469 29.389955562 7 32 C3.90988056 29.417348855 2.78372082 26.510433412 1.3125 22.8125 C0.875507812 21.725820313 0.438515625 20.639140625 -0.01171875 19.51953125 C-0.337851562 18.688085937 -0.663984375 17.856640625 -1 17 C-0.7834375 17.687070312 -0.566875 18.374140625 -0.34375 19.08203125 C-0.0653125 19.983085938 0.213125 20.884140625 0.5 21.8125 C0.7784375 22.705820312 1.056875 23.599140625 1.34375 24.51953125 C2 27 2 27 2 30 C2.631064287 32.011517415 3.293737608 34.013637023 4 36 C3.01 36.99 2.02 37.98 1 39 C0.34 38.34 -0.32 37.68 -1 37 C-0.67 37.99 -0.34 38.98 0 40 C-0.5775 40.337734375 -1.155 40.67546875 -1.75 41.0234375 C-2.4925 41.469453125 -3.235 41.91546875 -4 42.375 C-4.7425 42.815859375 -5.485 43.25671875 -6.25 43.7109375 C-6.8275 44.136328125 -7.405 44.56171875 -8 45 C-8 45.66 -8 46.32 -8 47 C-8.280274124 48.335774546 -8.574516282 49.668625989 -8.875 51 C-9.898908618 56.017152229 -10.55001992 61.040965607 -11.125 66.125 C-11.212495117 66.876523437 -11.299990234 67.628046875 -11.390136719 68.40234375 C-11.922675751 73.29698822 -12.246149939 78.077001214 -12 83 C-10.124980693 85.377196926 -10.124980693 85.377196926 -8 87 C-8 87.66 -8 88.32 -8 89 C-11.25 89.375 -11.25 89.375 -15 89 C-17.596386677 86.403613323 -18.988648367 84.58355278 -19.015625 80.8203125 C-18.779057602 78.865152531 -18.399015503 76.928574931 -18 75 C-17.34 75 -16.68 75 -16 75 C-15.951015625 73.735429688 -15.90203125 72.470859375 -15.8515625 71.16796875 C-15.776526196 69.50779053 -15.700978735 67.847635357 -15.625 66.1875 C-15.5940625 65.354121094 -15.563125 64.520742188 -15.53125 63.662109375 C-15.492578125 62.859667969 -15.45390625 62.057226563 -15.4140625 61.23046875 C-15.366931152 60.12288208 -15.366931152 60.12288208 -15.318847656 58.992919922 C-15 57 -15 57 -13 54 C-13.33 54 -13.66 54 -14 54 C-15.125 47.25 -15.125 47.25 -14 45 C-15.32 45 -16.64 45 -18 45 C-18.049361576 39.909682447 -18.085701046 34.819503572 -18.109863281 29.729003906 C-18.119933756 27.996557353 -18.133590891 26.264127844 -18.150878906 24.531738281 C-18.175081619 22.044553614 -18.186472387 19.557593248 -18.1953125 17.0703125 C-18.205635071 16.293179016 -18.215957642 15.516045532 -18.226593018 14.715362549 C-18.226992711 12.808745066 -18.122321399 10.902689638 -18 9 C-17.34 8.34 -16.68 7.68 -16 7 C-16.33 18.55 -16.66 30.1 -17 42 C-15.68 41.34 -14.36 40.68 -13 40 C-12.303677853 38.046345547 -12.303677853 38.046345547 -12.25 35.875 C-12.1675 34.59625 -12.085 33.3175 -12 32 C-11.01 31.67 -10.02 31.34 -9 31 C-8.67 31.33 -8.34 31.66 -8 32 C-8.350625 31.4225 -8.70125 30.845 -9.0625 30.25 C-10.149174068 27.641982237 -9.930651327 26.605823715 -9 24 C-8.01 25.32 -7.02 26.64 -6 28 C-6.601837488 25.979545575 -7.273060961 23.978889607 -8 22 C-8.66 21.67 -9.32 21.34 -10 21 C-10 19.68 -10 18.36 -10 17 C-10.99 21.29 -11.98 25.58 -13 30 C-13.33 30 -13.66 30 -14 30 C-14 27.36 -14 24.72 -14 22 C-14.33 26.29 -14.66 30.58 -15 35 C-15.33 35 -15.66 35 -16 35 C-16 27.74 -16 20.48 -16 13 C-15.34 13.33 -14.68 13.66 -14 14 C-14.33 13.34 -14.66 12.68 -15 12 C-15.039992002 10.00039988 -15.043467991 7.999527578 -15 6 C-12.36 5.67 -9.72 5.34 -7 5 C-7 5.66 -7 6.32 -7 7 C-6.21625 6.21625 -5.4325 5.4325 -4.625 4.625 C-3.083333333 3.083333333 -1.541666667 1.541666667 0 0 Z " fill="#9A9A92" transform="translate(143,42)" />
<path d="M0 0 C5.94 0 11.88 0 18 0 C18.495 1.98 18.495 1.98 19 4 C19.66 2.68 20.32 1.36 21 0 C21.66 0 22.32 0 23 0 C22.67 12.21 22.34 24.42 22 37 C16 37 16 37 12.875 35.9375 C9.950426951 34.983834875 8.809455659 34.919440131 6 36 C5.67 35.01 5.34 34.02 5 33 C4.34 33 3.68 33 3 33 C3 27.06 3 21.12 3 15 C2.67 20.61 2.34 26.22 2 32 C0.68 31.34 -0.64 30.68 -2 30 C-2 28.68 -2 27.36 -2 26 C-3.65 25.34 -5.3 24.68 -7 24 C-5 23 -5 23 -4 23 C-6.903779306 20.750940488 -6.903779306 20.750940488 -10.5625 20.5 C-14 20 -14 20 -16 18 C-15.67 17.67 -15.34 17.34 -15 17 C-15.957128906 16.493398437 -15.957128906 16.493398437 -16.93359375 15.9765625 C-17.759882812 15.530546875 -18.586171875 15.08453125 -19.4375 14.625 C-20.673066406 13.963710937 -20.673066406 13.963710937 -21.93359375 13.2890625 C-24 12 -24 12 -25 10 C-19.662250611 11.992480126 -14.676740914 14.650795861 -9.619140625 17.25390625 C-5.994453893 19.277226997 -5.994453893 19.277226997 -2 20 C-1.67 17.36 -1.34 14.72 -1 12 C-0.34 12.66 0.32 13.32 1 14 C0.67 13.01 0.34 12.02 0 11 C-0.132816948 7.32893957 -0.043232975 3.674802856 0 0 Z " fill="#B3B0A9" transform="translate(94,52)" />
<path d="M0 0 C1.548804981 0.020099615 3.097635202 0.038344257 4.646484375 0.0546875 C8.411299595 0.094974447 12.172554432 0.173294827 15.9375 0.25 C15.6075 5.53 15.2775 10.81 14.9375 16.25 C11.9375 13.25 11.9375 13.25 11.64453125 10.33203125 C11.679335937 9.253085938 11.714140625 8.174140625 11.75 7.0625 C11.790605469 5.432480469 11.790605469 5.432480469 11.83203125 3.76953125 C11.866835937 2.938085937 11.901640625 2.106640625 11.9375 1.25 C8.9675 1.25 5.9975 1.25 2.9375 1.25 C2.9375 2.9 2.9375 4.55 2.9375 6.25 C1.9475 6.25 0.9575 6.25 -0.0625 6.25 C-1.0525 5.26 -1.0525 5.26 -2.0625 4.25 C-2.0625 3.26 -2.0625 2.27 -2.0625 1.25 C-2.7225 1.25 -3.3825 1.25 -4.0625 1.25 C-4.0625 3.89 -4.0625 6.53 -4.0625 9.25 C-4.3925 9.25 -4.7225 9.25 -5.0625 9.25 C-5.0625 6.61 -5.0625 3.97 -5.0625 1.25 C-5.7225 1.25 -6.3825 1.25 -7.0625 1.25 C-7.0625 3.23 -7.0625 5.21 -7.0625 7.25 C-7.3925 7.25 -7.7225 7.25 -8.0625 7.25 C-8.0625 5.27 -8.0625 3.29 -8.0625 1.25 C-8.7225 1.25 -9.3825 1.25 -10.0625 1.25 C-10.3925 2.24 -10.7225 3.23 -11.0625 4.25 C-12.0525 3.26 -13.0425 2.27 -14.0625 1.25 C-14.3925 1.91 -14.7225 2.57 -15.0625 3.25 C-15.7225 2.92 -16.3825 2.59 -17.0625 2.25 C-16.4025 3.57 -15.7425 4.89 -15.0625 6.25 C-17.0625 5.25 -19.0625 4.25 -21.0625 3.25 C-21.0625 3.91 -21.0625 4.57 -21.0625 5.25 C-20.52625 5.476875 -19.99 5.70375 -19.4375 5.9375 C-16.277491369 7.683820559 -13.794801696 9.890284899 -11.0625 12.25 C-14.66823896 12.25 -15.475865663 11.43292538 -18.25 9.25 C-19.323144531 8.4146875 -19.323144531 8.4146875 -20.41796875 7.5625 C-21.232011719 6.9128125 -21.232011719 6.9128125 -22.0625 6.25 C-21.0725 7.57 -20.0825 8.89 -19.0625 10.25 C-19.84625 9.92 -20.63 9.59 -21.4375 9.25 C-23.905824973 8.131334891 -23.905824973 8.131334891 -26.0625 8.25 C-27.411324084 8.884740745 -28.747165896 9.548488478 -30.0625 10.25 C-30.03600778 13.6134269 -30.03600778 13.6134269 -29.0625 17.25 C-26.142062974 19.72648077 -26.142062974 19.72648077 -23.0625 21.25 C-23.3925 21.91 -23.7225 22.57 -24.0625 23.25 C-23.0725 23.311875 -22.0825 23.37375 -21.0625 23.4375 C-16.344220086 24.074323056 -12.887948595 26.557281638 -9.0625 29.25 C-10.0525 29.91 -11.0425 30.57 -12.0625 31.25 C-14.75 30.375 -14.75 30.375 -17.0625 29.25 C-16.5675 27.765 -16.5675 27.765 -16.0625 26.25 C-19.0325 26.745 -19.0325 26.745 -22.0625 27.25 C-20.4125 28.24 -18.7625 29.23 -17.0625 30.25 C-20.0625 32.25 -20.0625 32.25 -23.0625 32.25 C-20.7525 33.57 -18.4425 34.89 -16.0625 36.25 C-18.0625 37.25 -18.0625 37.25 -21.0625 37.25 C-21.5575 38.24 -21.5575 38.24 -22.0625 39.25 C-21.0725 39.58 -20.0825 39.91 -19.0625 40.25 C-19.7225 40.25 -20.3825 40.25 -21.0625 40.25 C-21.5575 41.24 -21.5575 41.24 -22.0625 42.25 C-22.0625 41.59 -22.0625 40.93 -22.0625 40.25 C-23.0525 39.755 -23.0525 39.755 -24.0625 39.25 C-24.789439039 37.271110393 -25.460662512 35.270454425 -26.0625 33.25 C-27.0525 33.745 -27.0525 33.745 -28.0625 34.25 C-28.041875 33.30125 -28.02125 32.3525 -28 31.375 C-27.836981742 28.343337172 -27.836981742 28.343337172 -29.0625 26.25 C-29.231022467 27.853972771 -29.397248865 29.458186896 -29.5625 31.0625 C-29.70171875 32.402480469 -29.70171875 32.402480469 -29.84375 33.76953125 C-30.106424014 36.333050988 -30.106424014 36.333050988 -30.0625 39.25 C-28.7425 38.59 -27.4225 37.93 -26.0625 37.25 C-26.99840504 38.355518898 -27.936298579 39.459354534 -28.875 40.5625 C-29.397070313 41.177382812 -29.919140625 41.792265625 -30.45703125 42.42578125 C-32.0625 44.25 -32.0625 44.25 -33.76171875 45.79296875 C-35.395488013 47.297454021 -35.395488013 47.297454021 -35.0625 50.25 C-36.3825 50.25 -37.7025 50.25 -39.0625 50.25 C-39.0625 52.23 -39.0625 54.21 -39.0625 56.25 C-39.3925 56.25 -39.7225 56.25 -40.0625 56.25 C-40.609148476 50.127537065 -39.820658861 47.021431107 -36.25390625 42.01171875 C-34.093265538 38.816804124 -33.897678375 35.890836973 -33.74609375 32.14453125 C-33.683251953 30.670166016 -33.683251953 30.670166016 -33.619140625 29.166015625 C-33.579824219 28.141855469 -33.540507813 27.117695313 -33.5 26.0625 C-33.435224609 24.508857422 -33.435224609 24.508857422 -33.369140625 22.923828125 C-33.263056338 20.366018101 -33.160998538 17.808111548 -33.0625 15.25 C-33.5471875 16.228398438 -34.031875 17.206796875 -34.53125 18.21484375 C-39.960601221 28.936683293 -45.92638823 40.185086557 -58.0625 44.25 C-65.230837884 45.382374955 -70.17709976 44.435173504 -76.0625 40.25 C-76.0625 39.26 -76.0625 38.27 -76.0625 37.25 C-69.427869084 37.875908577 -69.427869084 37.875908577 -67.58984375 39.7578125 C-65.648336446 41.654630378 -64.621511046 41.740349165 -61.9375 41.8125 C-56.226425018 41.598915082 -52.172490059 39.094598031 -48.0625 35.25 C-42.985258813 29.27447768 -39.407895426 22.643586872 -35.8515625 15.697265625 C-32.118844639 8.689503908 -27.318326602 4.065159332 -19.926269531 0.982421875 C-13.459131152 -0.67157771 -6.627315443 -0.150153989 0 0 Z " fill="#32302A" transform="translate(98.0625,50.75)" />
<path d="M0 0 C0.33 2.64 0.66 5.28 1 8 C1.66 7.01 2.32 6.02 3 5 C3.111381594 10.457698112 2.916579814 15.615093595 2 21 C1.34 20.67 0.68 20.34 0 20 C-0.66 20.66 -1.32 21.32 -2 22 C-3.051875 21.29875 -4.10375 20.5975 -5.1875 19.875 C-10.834547634 16.32397365 -16.913461896 13.699973458 -23 11 C-19.37 12.98 -15.74 14.96 -12 17 C-12.33 17.66 -12.66 18.32 -13 19 C-11.948125 19.103125 -10.89625 19.20625 -9.8125 19.3125 C-6.12569246 19.977334147 -4.033614008 20.885662964 -1 23 C-1.33 23.66 -1.66 24.32 -2 25 C-1.67 25.33 -1.34 25.66 -1 26 C-1 27.32 -1 28.64 -1 30 C-0.01 30.33 0.98 30.66 2 31 C2.66 22.75 3.32 14.5 4 6 C4.33 6 4.66 6 5 6 C5.122246257 15.059805901 4.83930594 23.977461142 4 33 C4.66 33 5.32 33 6 33 C6 24.09 6 15.18 6 6 C6.33 6 6.66 6 7 6 C7 15.57 7 25.14 7 35 C1 33 1 33 -2 31 C-2.12375 31.721875 -2.2475 32.44375 -2.375 33.1875 C-2.990493099 35.957218945 -3.884443742 38.397035398 -5 41 C-5.66 40.01 -6.32 39.02 -7 38 C-6.67 37.67 -6.34 37.34 -6 37 C-6.66 36.34 -7.32 35.68 -8 35 C-7.67 34.67 -7.34 34.34 -7 34 C-7.99 33.01 -8.98 32.02 -10 31 C-7.69 31.66 -5.38 32.32 -3 33 C-3.59940294 30.002985299 -4.4931618 28.373566004 -6.9609375 26.5546875 C-11.174812052 24.104760435 -14.03815947 22.692629348 -19 23 C-19 22.01 -19 21.02 -19 20 C-19.969375 19.4225 -20.93875 18.845 -21.9375 18.25 C-25 16 -25 16 -25.875 12.25 C-25.91625 11.1775 -25.9575 10.105 -26 9 C-25.360625 8.71125 -24.72125 8.4225 -24.0625 8.125 C-21.847939209 7.171765491 -21.847939209 7.171765491 -21 5 C-19.68 5.66 -18.36 6.32 -17 7 C-17.99 6.01 -18.98 5.02 -20 4 C-14.557917655 4.340130147 -11.063318017 7.702965282 -7 11 C-8.505716565 9.882662708 -10.004442917 8.755899646 -11.5 7.625 C-12.3353125 6.998515625 -13.170625 6.37203125 -14.03125 5.7265625 C-14.6809375 5.156796875 -15.330625 4.58703125 -16 4 C-16 3.34 -16 2.68 -16 2 C-14.68 2.33 -13.36 2.66 -12 3 C-12 2.34 -12 1.68 -12 1 C-8.014043838 -0.328652054 -4.159645894 0 0 0 Z " fill="#999893" transform="translate(93,52)" />
<path d="M0 0 C0.99 0 1.98 0 3 0 C2.67 1.65 2.34 3.3 2 5 C0.02 5.66 -1.96 6.32 -4 7 C-4 7.66 -4 8.32 -4 9 C-3.116347656 9.346113281 -3.116347656 9.346113281 -2.21484375 9.69921875 C0.56413442 11.33131704 1.6886475 13.118540144 3.4375 15.8125 C5.438336664 18.820237188 7.271744138 21.441425267 10 23.8125 C10.66 24.534375 11.32 25.25625 12 26 C11.8125 28.8125 11.8125 28.8125 11 31 C7.486054587 31.878486353 5.451609811 31.862902453 2 31 C-0.247072408 30.780177699 -2.497712378 30.595160134 -4.75 30.4375 C-5.92046875 30.353710937 -7.0909375 30.269921875 -8.296875 30.18359375 C-9.18890625 30.123007812 -10.0809375 30.062421875 -11 30 C-11.33 30.66 -11.66 31.32 -12 32 C-19.851936219 23.922551253 -19.851936219 23.922551253 -20 18 C-18 21 -18 21 -16.5625 23.625 C-15.15982726 26.290469932 -15.15982726 26.290469932 -12 27 C-11.67 23.7 -11.34 20.4 -11 17 C-8.36 17 -5.72 17 -3 17 C-2.67 16.34 -2.34 15.68 -2 15 C-0.68 16.32 0.64 17.64 2 19 C1.01 17.02 0.02 15.04 -1 13 C-2.98 13.66 -4.96 14.32 -7 15 C-7 13.35 -7 11.7 -7 10 C-6.67 10.99 -6.34 11.98 -6 13 C-5.34 13 -4.68 13 -4 13 C-4.33 12.01 -4.66 11.02 -5 10 C-8.634202411 8.977454916 -8.634202411 8.977454916 -12.1875 9.9375 C-12.785625 10.288125 -13.38375 10.63875 -14 11 C-14.66 11 -15.32 11 -16 11 C-16 11.66 -16 12.32 -16 13 C-16.66 13 -17.32 13 -18 13 C-18.2475 13.61875 -18.495 14.2375 -18.75 14.875 C-20.206286393 17.350686868 -21.378125062 17.951250025 -24 19 C-24 15.410875876 -23.335634458 14.891429714 -21 12.3125 C-20.443125 11.689882813 -19.88625 11.067265625 -19.3125 10.42578125 C-18.879375 9.955273438 -18.44625 9.484765625 -18 9 C-18.495 8.4225 -18.99 7.845 -19.5 7.25 C-21 5 -21 5 -21 1 C-18.201716441 1.385970146 -17.179411596 1.801365733 -15.25 3.9375 C-14 6 -14 6 -14 8 C-8.245105375 7.370247851 -8.245105375 7.370247851 -3.39453125 4.53125 C-2.246423314 3.033410724 -1.121758509 1.517673277 0 0 Z " fill="#77746E" transform="translate(172,15)" />
<path d="M0 0 C1.675429756 0.286048983 3.343853426 0.617812329 5 1 C5.33 2.32 5.66 3.64 6 5 C5.34 5 4.68 5 4 5 C3.67 5.66 3.34 6.32 3 7 C4.98 6.01 6.96 5.02 9 4 C10.98 6.97 10.98 6.97 13 10 C12.67 10.66 12.34 11.32 12 12 C11.34 11.505 10.68 11.01 10 10.5 C6.03366759 8.516833795 3.396967377 8.776425388 -1 9 C-0.979375 10.093125 -0.95875 11.18625 -0.9375 12.3125 C-1 16 -1 16 -2 19 C-4.861261844 18.605343194 -5.791397038 18.260878167 -7.63671875 15.953125 C-8.086601562 15.30859375 -8.536484375 14.6640625 -9 14 C-7.988293822 15.240544481 -6.991022032 16.492870201 -6 17.75 C-5.443125 18.44609375 -4.88625 19.1421875 -4.3125 19.859375 C-3 22 -3 22 -3 26 C-7.391583293 24.536138902 -7.879474326 22.021686622 -10 18 C-4.473494709 27.331953572 -4.473494709 27.331953572 -5.0625 32.5 C-6 36 -6 36 -8 38 C-8 38.99 -8 39.98 -8 41 C-8.99 40.67 -9.98 40.34 -11 40 C-12.217263745 37.432195457 -13.232234521 34.97544994 -14.1875 32.3125 C-14.460136719 31.604160156 -14.732773437 30.895820312 -15.013671875 30.166015625 C-16.546876707 26.004459651 -17.506899457 22.496264014 -17 18 C-16.01 16.515 -16.01 16.515 -15 15 C-14.67 14.01 -14.34 13.02 -14 12 C-14.99 11.67 -15.98 11.34 -17 11 C-16.34 10.34 -15.68 9.68 -15 9 C-13.68 9 -12.36 9 -11 9 C-9.363237434 7.039971905 -9.363237434 7.039971905 -8 5 C-7.34 5 -6.68 5 -6 5 C-6 4.34 -6 3.68 -6 3 C-5.195625 2.690625 -4.39125 2.38125 -3.5625 2.0625 C-1.109195955 1.236646552 -1.109195955 1.236646552 0 0 Z " fill="#A1A09B" transform="translate(162,23)" />
<path d="M0 0 C1.2294789 3.758810914 1.023680697 7.246878873 0.87890625 11.171875 C0.855295258 11.854292603 0.831684265 12.536710205 0.807357788 13.239807129 C0.731050397 15.410100578 0.64688594 17.580007138 0.5625 19.75 C0.509246265 21.22524176 0.456506109 22.700502155 0.404296875 24.17578125 C0.275480501 27.784089123 0.139618057 31.392092102 0 35 C2.001906979 34.135872 2.001906979 34.135872 4 33 C4.696322147 31.046345547 4.696322147 31.046345547 4.75 28.875 C4.8325 27.59625 4.915 26.3175 5 25 C5.99 24.67 6.98 24.34 8 24 C8.2475 24.5775 8.495 25.155 8.75 25.75 C9.931861202 28.132668865 9.931861202 28.132668865 12.125 30.0625 C14 32 14 32 14 35 C12.351787561 36.030132774 10.684962983 37.031146284 9 38 C9 38.66 9 39.32 9 40 C8.719725876 41.335774546 8.425483718 42.668625989 8.125 44 C7.101091382 49.017152229 6.44998008 54.040965607 5.875 59.125 C5.787504883 59.876523437 5.700009766 60.628046875 5.609863281 61.40234375 C5.077324249 66.29698822 4.753850061 71.077001214 5 76 C6.875019307 78.377196926 6.875019307 78.377196926 9 80 C9 80.66 9 81.32 9 82 C5.75 82.375 5.75 82.375 2 82 C-0.596386677 79.403613323 -1.988648367 77.58355278 -2.015625 73.8203125 C-1.779057602 71.865152531 -1.399015503 69.928574931 -1 68 C-0.34 68 0.32 68 1 68 C1.048984375 66.735429688 1.09796875 65.470859375 1.1484375 64.16796875 C1.223473804 62.50779053 1.299021265 60.847635357 1.375 59.1875 C1.4059375 58.354121094 1.436875 57.520742187 1.46875 56.662109375 C1.507421875 55.859667969 1.54609375 55.057226563 1.5859375 54.23046875 C1.633068848 53.12288208 1.633068848 53.12288208 1.681152344 51.992919922 C2 50 2 50 4 47 C3.67 47 3.34 47 3 47 C1.875 40.25 1.875 40.25 3 38 C1.68 38 0.36 38 -1 38 C-1.02468084 32.909671587 -1.042850822 27.819377849 -1.054931641 22.729003906 C-1.059966824 20.996575862 -1.066795325 19.264152078 -1.075439453 17.531738281 C-1.087540654 15.044585667 -1.093236378 12.557489134 -1.09765625 10.0703125 C-1.102817535 9.293179016 -1.107978821 8.516045532 -1.113296509 7.715362549 C-1.113871707 2.227743414 -1.113871707 2.227743414 0 0 Z " fill="#94918A" transform="translate(126,49)" />
<path d="M0 0 C1.32 0.33 2.64 0.66 4 1 C3.859049359 2.625430798 3.712079131 4.250340514 3.5625 5.875 C3.481289062 6.779921875 3.400078125 7.68484375 3.31640625 8.6171875 C3 11 3 11 2 13 C2.544874896 14.906986205 2.544874896 14.906986205 3.4375 16.9375 C4.557108539 19.62355636 5 21.023313846 5 24 C4.34 24 3.68 24 3 24 C1.68 19.05 0.36 14.1 -1 9 C-2.32 10.32 -3.64 11.64 -5 13 C-6.333333333 14.333333333 -7.666666667 15.666666667 -9 17 C-9 16.01 -9 15.02 -9 14 C-11.31 14 -13.62 14 -16 14 C-15.01 15.485 -15.01 15.485 -14 17 C-14.0234375 19.2265625 -14.0234375 19.2265625 -14.375 21.625 C-14.485859375 22.421640625 -14.59671875 23.21828125 -14.7109375 24.0390625 C-14.806328125 24.686171875 -14.90171875 25.33328125 -15 26 C-15 27.699673171 -14.412231295 29.35107482 -14 31 C-13.01 27.7 -12.02 24.4 -11 21 C-10.67 21 -10.34 21 -10 21 C-10.04125 21.928125 -10.0825 22.85625 -10.125 23.8125 C-10.27136339 27.158097194 -10.27136339 27.158097194 -8 30 C-7.182201588 32.640176354 -6.619051102 35.302705912 -6 38 C-7.708402814 36.365875569 -8.934530468 35.130939064 -10 33 C-9.328291936 36.806345696 -8.272534362 40.352068162 -7 44 C-7.61875 43.34 -8.2375 42.68 -8.875 42 C-10.756374267 39.7715451 -10.756374267 39.7715451 -13 40 C-12.814375 40.556875 -12.62875 41.11375 -12.4375 41.6875 C-11.924488351 44.399133 -12.335927598 46.343710392 -13 49 C-15.475 49.495 -15.475 49.495 -18 50 C-18.024763598 45.65836985 -18.04289015 41.316777395 -18.054931641 36.975097656 C-18.05995288 35.498853389 -18.066771156 34.022614076 -18.075439453 32.546386719 C-18.087601892 30.421537021 -18.093250456 28.296753221 -18.09765625 26.171875 C-18.102893066 24.894091797 -18.108129883 23.616308594 -18.113525391 22.299804688 C-18.021946321 19.637906399 -17.801085141 17.516904182 -17 15 C-18.32 14.67 -19.64 14.34 -21 14 C-17.346668572 11.366202924 -14.514783979 9.531151056 -10 9 C-10 8.34 -10 7.68 -10 7 C-8.35 6.34 -6.7 5.68 -5 5 C-5.33 3.68 -5.66 2.36 -6 1 C-3.03 1.495 -3.03 1.495 0 2 C0 1.34 0 0.68 0 0 Z " fill="#32302B" transform="translate(144,34)" />
<path d="M0 0 C2.64 0 5.28 0 8 0 C8.215512409 11.3503202 7.568731101 22.667730305 7 34 C5.68 33.67 4.36 33.34 3 33 C3 27.06 3 21.12 3 15 C2.67 20.61 2.34 26.22 2 32 C0.68 31.34 -0.64 30.68 -2 30 C-2 28.68 -2 27.36 -2 26 C-3.65 25.34 -5.3 24.68 -7 24 C-5 23 -5 23 -4 23 C-6.903779306 20.750940488 -6.903779306 20.750940488 -10.5625 20.5 C-14 20 -14 20 -16 18 C-15.67 17.67 -15.34 17.34 -15 17 C-15.957128906 16.493398437 -15.957128906 16.493398437 -16.93359375 15.9765625 C-17.759882812 15.530546875 -18.586171875 15.08453125 -19.4375 14.625 C-20.673066406 13.963710937 -20.673066406 13.963710937 -21.93359375 13.2890625 C-24 12 -24 12 -25 10 C-19.662250611 11.992480126 -14.676740914 14.650795861 -9.619140625 17.25390625 C-5.994453893 19.277226997 -5.994453893 19.277226997 -2 20 C-1.67 17.36 -1.34 14.72 -1 12 C-0.34 12.66 0.32 13.32 1 14 C0.67 13.01 0.34 12.02 0 11 C-0.068549499 9.105291837 -0.084803725 7.208316605 -0.0625 5.3125 C-0.053476562 4.318632812 -0.044453125 3.324765625 -0.03515625 2.30078125 C-0.023554687 1.541523437 -0.011953125 0.782265625 0 0 Z " fill="#BDBCB5" transform="translate(94,52)" />
<path d="M0 0 C0.33 0 0.66 0 1 0 C1 11.22 1 22.44 1 34 C2.32 34 3.64 34 5 34 C5 26.41 5 18.82 5 11 C5.33 11 5.66 11 6 11 C6.33 13.31 6.66 15.62 7 18 C7.33 18 7.66 18 8 18 C8 23.61 8 29.22 8 35 C8.66 35 9.32 35 10 35 C10 26.09 10 17.18 10 8 C10.33 8 10.66 8 11 8 C11 16.91 11 25.82 11 35 C12.32 35 13.64 35 15 35 C15 24.11 15 13.22 15 2 C15.33 2 15.66 2 16 2 C16 12.89 16 23.78 16 35 C18.97 34.34 21.94 33.68 25 33 C25.33 35.64 25.66 38.28 26 41 C26.99 40.505 26.99 40.505 28 40 C26.125 43.875 26.125 43.875 25 45 C24.774868989 46.338021858 24.606391934 47.685730233 24.46484375 49.03515625 C24.377832031 49.844042969 24.290820312 50.652929688 24.201171875 51.486328125 C24.114160156 52.336464844 24.027148437 53.186601563 23.9375 54.0625 C23.846621094 54.916503906 23.755742188 55.770507812 23.662109375 56.650390625 C23.437492784 58.766515346 23.218247727 60.883208943 23 63 C22.67 63 22.34 63 22 63 C21.892684617 53.603941979 22.007365712 44.359123287 23 35 C22.131695557 35.242303467 22.131695557 35.242303467 21.245849609 35.489501953 C17.716041354 36.291853194 14.163770374 36.18442462 10.5625 36.1875 C9.811621094 36.199746094 9.060742187 36.211992188 8.287109375 36.224609375 C4.063523519 36.235753401 0.856962841 35.939983298 -3 34 C-1.515 33.505 -1.515 33.505 0 33 C0 22.11 0 11.22 0 0 Z " fill="#39362F" transform="translate(104,54)" />
<path d="M0 0 C0.33 2.64 0.66 5.28 1 8 C1.66 7.01 2.32 6.02 3 5 C3.111381594 10.457698112 2.916579814 15.615093595 2 21 C1.34 20.67 0.68 20.34 0 20 C-0.66 20.66 -1.32 21.32 -2 22 C-4.97 20.02 -7.94 18.04 -11 16 C-10.67 15.34 -10.34 14.68 -10 14 C-9.34 14.33 -8.68 14.66 -8 15 C-8.66 14.01 -9.32 13.02 -10 12 C-9.01 11.67 -8.02 11.34 -7 11 C-7.6496875 10.517890625 -8.299375 10.03578125 -8.96875 9.5390625 C-9.8040625 8.907421875 -10.639375 8.27578125 -11.5 7.625 C-12.3353125 6.998515625 -13.170625 6.37203125 -14.03125 5.7265625 C-14.6809375 5.156796875 -15.330625 4.58703125 -16 4 C-16 3.34 -16 2.68 -16 2 C-14.68 2.33 -13.36 2.66 -12 3 C-12 2.34 -12 1.68 -12 1 C-8.014043838 -0.328652054 -4.159645894 0 0 0 Z " fill="#7D7C77" transform="translate(93,52)" />
<path d="M0 0 C0.33 0 0.66 0 1 0 C0.8612922 3.937785111 0.712815083 7.875142228 0.5625 11.8125 C0.503525391 13.491826172 0.503525391 13.491826172 0.443359375 15.205078125 C0.401464844 16.278222656 0.359570312 17.351367188 0.31640625 18.45703125 C0.261419678 19.941668701 0.261419678 19.941668701 0.205322266 21.456298828 C0 24 0 24 -1 27 C-2.32 27 -3.64 27 -5 27 C-5.33 27.66 -5.66 28.32 -6 29 C-6.7425 28.690625 -7.485 28.38125 -8.25 28.0625 C-10.506921758 27.190507503 -12.645015301 26.523329933 -15 26 C-12.954549622 22.547527696 -10.818586866 19.172360425 -8.625 15.8125 C-5.35953415 10.709776294 -2.578475818 5.477775817 0 0 Z " fill="#EBE9DF" transform="translate(65,64)" />
<path d="M0 0 C0.99 0 1.98 0 3 0 C2.67 1.65 2.34 3.3 2 5 C0.02 5.66 -1.96 6.32 -4 7 C-4 7.66 -4 8.32 -4 9 C-3.116347656 9.346113281 -3.116347656 9.346113281 -2.21484375 9.69921875 C0.56413442 11.33131704 1.6886475 13.118540144 3.4375 15.8125 C5.441232944 18.820263275 7.296352812 21.472594838 10 23.875 C10.66 24.57625 11.32 25.2775 12 26 C11.8125 28.3125 11.8125 28.3125 11 30 C10.731875 29.401875 10.46375 28.80375 10.1875 28.1875 C8.990125252 25.981809674 7.955210161 24.564168129 6 23 C5.01 23 4.02 23 3 23 C1.3125 21 1.3125 21 0 19 C0.66 18.67 1.32 18.34 2 18 C0.68 16.35 -0.64 14.7 -2 13 C-3.65 13.66 -5.3 14.32 -7 15 C-7 13.35 -7 11.7 -7 10 C-6.67 10.99 -6.34 11.98 -6 13 C-5.34 13 -4.68 13 -4 13 C-4.33 12.01 -4.66 11.02 -5 10 C-8.634202411 8.977454916 -8.634202411 8.977454916 -12.1875 9.9375 C-12.785625 10.288125 -13.38375 10.63875 -14 11 C-14.66 11 -15.32 11 -16 11 C-16 11.66 -16 12.32 -16 13 C-16.66 13 -17.32 13 -18 13 C-18.2475 13.61875 -18.495 14.2375 -18.75 14.875 C-20.206286393 17.350686868 -21.378125062 17.951250025 -24 19 C-24 15.410875876 -23.335634458 14.891429714 -21 12.3125 C-20.443125 11.689882813 -19.88625 11.067265625 -19.3125 10.42578125 C-18.879375 9.955273438 -18.44625 9.484765625 -18 9 C-18.495 8.4225 -18.99 7.845 -19.5 7.25 C-21 5 -21 5 -21 1 C-18.201716441 1.385970146 -17.179411596 1.801365733 -15.25 3.9375 C-14 6 -14 6 -14 8 C-8.245105375 7.370247851 -8.245105375 7.370247851 -3.39453125 4.53125 C-2.246423314 3.033410724 -1.121758509 1.517673277 0 0 Z " fill="#302D28" transform="translate(172,15)" />
<path d="M0 0 C0.142481689 1.010302734 0.142481689 1.010302734 0.287841797 2.041015625 C2.058547049 14.373951434 3.928244422 26.300699401 8.046875 38.0859375 C9 41 9 41 9 44 C7.15234375 43.44921875 7.15234375 43.44921875 5 42 C3.993671445 39.563783708 3.24345977 37.338354689 2.5625 34.8125 C2.142166114 33.361531831 1.720251148 31.911020891 1.296875 30.4609375 C1.084824219 29.720693359 0.872773438 28.980449219 0.654296875 28.217773438 C-0.366060632 24.759218365 -1.524197973 21.35011315 -2.6875 17.9375 C-4.254554202 13.318007972 -5.689657602 8.696889418 -7 4 C-1.125 0 -1.125 0 0 0 Z " fill="#E3E0DA" transform="translate(147,81)" />
<path d="M0 0 C0.33 1.32 0.66 2.64 1 4 C0.34 4 -0.32 4 -1 4 C-1.33 4.66 -1.66 5.32 -2 6 C-0.02 5.01 1.96 4.02 4 3 C5.98 5.97 5.98 5.97 8 9 C7.67 9.66 7.34 10.32 7 11 C6.34 10.505 5.68 10.01 5 9.5 C1.03366759 7.516833795 -1.603032623 7.776425388 -6 8 C-5.979375 9.093125 -5.95875 10.18625 -5.9375 11.3125 C-6 15 -6 15 -7 18 C-8.32 17.67 -9.64 17.34 -11 17 C-11.248872951 14.898073032 -11.473471898 12.79326036 -11.6875 10.6875 C-11.815117187 9.515742187 -11.942734375 8.343984375 -12.07421875 7.13671875 C-12 4 -12 4 -10.63671875 2.16015625 C-6.717407249 -0.617971473 -4.765666493 -1.323796248 0 0 Z " fill="#ABA9A2" transform="translate(167,24)" />
<path d="M0 0 C0.598125 0.20625 1.19625 0.4125 1.8125 0.625 C1.8125 1.615 1.8125 2.605 1.8125 3.625 C2.8025 3.625 3.7925 3.625 4.8125 3.625 C6.49486471 4.250996171 8.164896197 4.91252268 9.8125 5.625 C9.8125 6.615 9.8125 7.605 9.8125 8.625 C8.4925 8.625 7.1725 8.625 5.8125 8.625 C6.8025 9.285 7.7925 9.945 8.8125 10.625 C7.8225 11.12 7.8225 11.12 6.8125 11.625 C6.998125 12.40875 7.18375 13.1925 7.375 14 C7.8125 16.625 7.8125 16.625 6.8125 18.625 C3.8125 19.625 3.8125 19.625 0.1875 18.625 C-1.483125 17.635 -1.483125 17.635 -3.1875 16.625 C-4.125 12.9375 -4.125 12.9375 -4.1875 9.625 C-3.1975 9.625 -2.2075 9.625 -1.1875 9.625 C-2.8375 8.635 -4.4875 7.645 -6.1875 6.625 C-3.1875 4.625 -3.1875 4.625 -0.1875 4.625 C-1.8375 3.635 -3.4875 2.645 -5.1875 1.625 C-2.1875 -0.375 -2.1875 -0.375 0 0 Z " fill="#A3A09B" transform="translate(80.1875,76.375)" />
<path d="M0 0 C0.33 0 0.66 0 1 0 C1.122246257 9.059805901 0.83930594 17.977461142 0 27 C0.66 27 1.32 27 2 27 C2 18.09 2 9.18 2 0 C2.33 0 2.66 0 3 0 C3 9.57 3 19.14 3 29 C-3 27 -3 27 -6 25 C-6.12375 25.721875 -6.2475 26.44375 -6.375 27.1875 C-6.990493099 29.957218945 -7.884443742 32.397035398 -9 35 C-9.66 34.01 -10.32 33.02 -11 32 C-10.67 31.67 -10.34 31.34 -10 31 C-10.66 30.34 -11.32 29.68 -12 29 C-11.67 28.67 -11.34 28.34 -11 28 C-11.99 27.01 -12.98 26.02 -14 25 C-11.69 25.66 -9.38 26.32 -7 27 C-7.2475 26.071875 -7.2475 26.071875 -7.5 25.125 C-8 23 -8 23 -8 21 C-14.93 17.04 -14.93 17.04 -22 13 C-18.186513762 11.728837921 -16.706093498 12.638577899 -13 14 C-12.29875 14.165 -11.5975 14.33 -10.875 14.5 C-8.742011502 15.068796933 -6.941375935 15.959977178 -5 17 C-5.33 17.66 -5.66 18.32 -6 19 C-5.67 19.33 -5.34 19.66 -5 20 C-5 21.32 -5 22.64 -5 24 C-4.01 24.33 -3.02 24.66 -2 25 C-1.34 16.75 -0.68 8.5 0 0 Z " fill="#43413B" transform="translate(97,58)" />
<path d="M0 0 C2.475 0.495 2.475 0.495 5 1 C5 1.99 5 2.98 5 4 C5.99 4.061875 6.98 4.12375 8 4.1875 C12.718279914 4.824323056 16.174551405 7.307281638 20 10 C19.01 10.66 18.02 11.32 17 12 C14.3125 11.125 14.3125 11.125 12 10 C12.33 9.01 12.66 8.02 13 7 C11.02 7.33 9.04 7.66 7 8 C8.65 8.99 10.3 9.98 12 11 C9 13 9 13 6 13 C9.465 14.98 9.465 14.98 13 17 C11 18 11 18 8 18 C7.67 18.66 7.34 19.32 7 20 C7.99 20.33 8.98 20.66 10 21 C9.34 21 8.68 21 8 21 C7.67 21.66 7.34 22.32 7 23 C7 22.34 7 21.68 7 21 C6.34 20.67 5.68 20.34 5 20 C4.273060961 18.021110393 3.601837488 16.020454425 3 14 C2.01 14.495 2.01 14.495 1 15 C1.020625 14.05125 1.04125 13.1025 1.0625 12.125 C1.225518258 9.093337172 1.225518258 9.093337172 0 7 C-0.040223907 4.667013399 -0.043202469 2.332933345 0 0 Z " fill="#504F4A" transform="translate(69,70)" />
<path d="M0 0 C2.685559404 2.685559404 3.060499738 5.376213276 4 9 C3.34 9 2.68 9 2 9 C2.66 10.32 3.32 11.64 4 13 C4.33 12.01 4.66 11.02 5 10 C6.890682415 12.912158486 8.654272905 15.793845407 10 19 C9.3125 22.0625 9.3125 22.0625 8 24 C7.01 23.34 6.02 22.68 5 22 C5.33 22.99 5.66 23.98 6 25 C5.01 25.33 4.02 25.66 3 26 C1.797155988 23.924269187 0.612942989 21.841169051 -0.5625 19.75 C-0.904746094 19.163476562 -1.246992188 18.576953125 -1.599609375 17.97265625 C-4.063822182 13.542051406 -4.063822182 13.542051406 -3.71484375 10.578125 C-3.478945313 10.05734375 -3.243046875 9.5365625 -3 9 C-2.01 10.32 -1.02 11.64 0 13 C-0.601837488 10.979545575 -1.273060961 8.978889607 -2 7 C-2.66 6.67 -3.32 6.34 -4 6 C-4 5.01 -4 4.02 -4 3 C-2.68 3 -1.36 3 0 3 C0 2.01 0 1.02 0 0 Z " fill="#C3C3BC" transform="translate(137,57)" />
<path d="M0 0 C2.31 0 4.62 0 7 0 C7 3.96 7 7.92 7 12 C6.01 12 5.02 12 4 12 C4 8.7 4 5.4 4 2 C3.34 2 2.68 2 2 2 C2 12.89 2 23.78 2 35 C0.02 35.495 0.02 35.495 -2 36 C-1.01 18.18 -1.01 18.18 0 0 Z " fill="#7C7972" transform="translate(102,52)" />
<path d="M0 0 C0.33 0 0.66 0 1 0 C0.95875 0.928125 0.9175 1.85625 0.875 2.8125 C0.72863661 6.158097194 0.72863661 6.158097194 3 9 C3.817798412 11.640176354 4.380948898 14.302705912 5 17 C3.291597186 15.365875569 2.065469532 14.130939064 1 12 C1.671708064 15.806345696 2.727465638 19.352068162 4 23 C3.38125 22.34 2.7625 21.68 2.125 21 C0.243625733 18.7715451 0.243625733 18.7715451 -2 19 C-1.814375 19.556875 -1.62875 20.11375 -1.4375 20.6875 C-0.924488351 23.399133 -1.335927598 25.343710392 -2 28 C-3.65 28.33 -5.3 28.66 -7 29 C-6.722145498 25.727838868 -6.425344367 22.457667403 -6.125 19.1875 C-6.046367187 18.258730469 -5.967734375 17.329960938 -5.88671875 16.373046875 C-5.802929687 15.480371094 -5.719140625 14.587695313 -5.6328125 13.66796875 C-5.55949707 12.845788574 -5.486181641 12.023608398 -5.410644531 11.176513672 C-5 9 -5 9 -3 6 C-3 7.65 -3 9.3 -3 11 C-2.01 7.37 -1.02 3.74 0 0 Z " fill="#4D4D45" transform="translate(133,55)" />
</svg>