<?xml version='1.0' encoding='utf-8'?>
<svg xmlns="http://www.w3.org/2000/svg" version="1.1" width="98" height="155" viewBox="42.128492857 3.0 98.323871766 155.208769531">
<path d="M0 0 C2 0 2 0 3.4375 1.3203125 C6.67252955 5.05677163 8.802510629 8.090293579 10 13 C10.680625 12.649375 11.36125 12.29875 12.0625 11.9375 C16.494266704 10.523106371 20.210676896 11.220038647 24.4375 13.0625 C24.953125 13.371875 25.46875 13.68125 26 14 C26.0825 13.29875 26.165 12.5975 26.25 11.875 C27.517455251 7.016421539 29.843856314 3.770762458 34 1 C34.99 1 35.98 1 37 1 C37.452364623 7.446195873 36.722057817 10.682774547 33 16 C32.01 16.66 31.02 17.32 30 18 C29.636371824 20.207250734 29.636371824 20.207250734 29.8125 22.625 C29.839570313 23.442265625 29.866640625 24.25953125 29.89453125 25.1015625 C29.946738281 26.041289062 29.946738281 26.041289062 30 27 C28.35 26.67 26.7 26.34 25 26 C25 25.34 25 24.68 25 24 C26.32 24 27.64 24 29 24 C28.360201514 21.967582732 28.360201514 21.967582732 27 20 C24.444800786 19.188287717 24.444800786 19.188287717 22 19 C21.67 18.01 21.34 17.02 21 16 C19.4840625 16.680625 19.4840625 16.680625 17.9375 17.375 C15.355794007 18.500224201 12.858936821 19.332081688 10.125 20 C9.09375 20.33 8.0625 20.66 7 21 C6.67 21.99 6.34 22.98 6 24 C7.65 24 9.3 24 11 24 C11 24.66 11 25.32 11 26 C10.01 26.33 9.02 26.66 8 27 C7.665016995 29.331650338 7.665016995 29.331650338 8 32 C8.639375 32.639375 9.27875 33.27875 9.9375 33.9375 C12.534466091 36.534466091 12.673972459 38.413697048 13 42 C16.3 42 19.6 42 23 42 C22.34 39.36 21.68 36.72 21 34 C21.66 34.33 22.32 34.66 23 35 C23 35.99 23 36.98 23 38 C23.66 38 24.32 38 25 38 C25.103125 36.906875 25.20625 35.81375 25.3125 34.6875 C25.973077274 31.144403711 26.202709199 30.067562766 29 28 C28.243905177 34.552821802 28.243905177 34.552821802 26.938964844 36.9453125 C25.782271294 39.476444304 25.96221086 40.888955286 26.3515625 43.625 C27.954822548 56.622348519 27.880965241 68.855389563 23.930419922 81.391601562 C20.037497277 93.896730174 19.623314493 106.98342302 20 120 C18 118 18 118 17.734375 115.12109375 C17.792661124 101.380140019 18.881376808 88.290500967 23.09765625 75.1484375 C25.952643844 65.186879055 25.210291692 55.157805268 24 45 C22.9171875 45.7734375 22.9171875 45.7734375 21.8125 46.5625 C19 48 19 48 16.4375 48 C11.30987025 45.896357026 9.062361312 40.706745206 6.75 35.9375 C5.821989974 33.540140766 5.681966882 31.544264943 6 29 C5.34 28.67 4.68 28.34 4 28 C4.130195313 27.263945312 4.260390625 26.527890625 4.39453125 25.76953125 C4.816335639 22.785363752 5.114617724 20.014021627 5 17 C2.811455772 13.89138486 2.811455772 13.89138486 0 12 C-1.189830602 9.620338796 -1.133499655 8.085142654 -1.125 5.4375 C-1.128867188 4.229003906 -1.128867188 4.229003906 -1.1328125 2.99609375 C-1 1 -1 1 0 0 Z " fill="#737069" transform="translate(93,13)" />
<path d="M0 0 C2.217366342 1.108683171 4.036179926 2.49440461 6 4 C5.570241566 6.578550607 5.140055081 8.728128373 3.9375 11.0625 C2.709626048 13.241373348 2.709626048 13.241373348 3 17 C1.46875 19.359375 1.46875 19.359375 -0.5 21.75 C-1.1496875 22.54921875 -1.799375 23.3484375 -2.46875 24.171875 C-2.9740625 24.77515625 -3.479375 25.3784375 -4 26 C-5.31625194 23.367496121 -4.748136579 22.198209444 -4.0625 19.375 C-3.867851562 18.557734375 -3.673203125 17.74046875 -3.47265625 16.8984375 C-3.316679687 16.271953125 -3.160703125 15.64546875 -3 15 C-6.201212421 23.536566455 -7.937036662 35.188890013 -5 44 C-5.33 39.38 -5.66 34.76 -6 30 C-3.176643065 32.823356935 -2.447414084 34.01070642 -1.125 37.5625 C0.38657046 41.271813444 0.38657046 41.271813444 3.6875 43.5 C4.450625 43.665 5.21375 43.83 6 44 C7 45 7 45 7.0625 47.5625 C7.041875 48.366875 7.02125 49.17125 7 50 C6.21625 49.979375 5.4325 49.95875 4.625 49.9375 C2.01885039 49.813159373 2.01885039 49.813159373 0 51 C-0.33 50.34 -0.66 49.68 -1 49 C-2.450189744 54.002282759 -2.223937543 59.017360097 -2.25 64.1875 C-2.270625 65.191035156 -2.29125 66.194570313 -2.3125 67.228515625 C-2.342325167 72.958675792 -1.823019017 77.697275257 0.254882812 83.055908203 C1.006380508 85.016647438 1.528666504 86.955747883 2 89 C1.67 88.34 1.34 87.68 1 87 C-0.65 87 -2.3 87 -4 87 C-5.593102837 82.006957934 -6.329013413 77.546078503 -6.59765625 72.2734375 C-6.636846771 71.562731018 -6.676037292 70.852024536 -6.716415405 70.119781494 C-6.839344735 67.871847064 -6.951618159 65.623558126 -7.0625 63.375 C-7.17851054 61.119427089 -7.296879174 58.864029634 -7.419296265 56.608795166 C-7.529377175 54.568072251 -7.632199507 52.526961604 -7.734619141 50.485839844 C-7.957833993 47.553860393 -8.381324981 44.864988595 -9 42 C-9.468754722 36.340220765 -9.738985893 30.672706601 -10 25 C-10.055429688 23.930078125 -10.110859375 22.86015625 -10.16796875 21.7578125 C-10.34598951 15.772924108 -9.836495283 10.371473351 -7 5 C-4.715039926 2.770770659 -2.824210095 1.412105047 0 0 Z " fill="#CFCDC2" transform="translate(74,46)" />
<path d="M0 0 C0.598125 0.78375 1.19625 1.5675 1.8125 2.375 C3.91085249 5.145743232 3.91085249 5.145743232 7 7 C9.841202342 6.644849707 12.280477523 5.906507492 15 5 C18.776680439 20.8485697 15.545165357 33.687646806 11 49 C6.125 44.375 6.125 44.375 5 41 C6.485 40.505 6.485 40.505 8 40 C8 39.34 8 38.68 8 38 C7.46890625 38.300351562 6.9378125 38.600703125 6.390625 38.91015625 C5.68421875 39.290429687 4.9778125 39.670703125 4.25 40.0625 C3.55390625 40.445351563 2.8578125 40.828203125 2.140625 41.22265625 C-0.361406275 42.1312406 -1.533235505 41.883368366 -4 41 C-3.565555073 38.067496741 -2.899120594 36.880778884 -0.9375 34.5625 C1.229078653 31.697025008 1.399181832 30.492841032 1 27 C1.7425 27.2475 2.485 27.495 3.25 27.75 C4.1575 27.8325 5.065 27.915 6 28 C8.334546606 26.166416646 8.334546606 26.166416646 10 24 C10.33 24.66 10.66 25.32 11 26 C9.849414445 20.602040108 8.575782413 15.290126673 7 10 C6.34 10 5.68 10 5 10 C4.67 11.98 4.34 13.96 4 16 C4.66 16 5.32 16 6 16 C7.607256346 19.214512692 7.057481849 22.436125356 7 26 C5.35 26 3.7 26 2 26 C-0.120467924 22.465886794 -0.531992887 19.056061646 -1 15 C-1.33 16.32 -1.66 17.64 -2 19 C-3.32 18.01 -4.64 17.02 -6 16 C-5.34 14.68 -4.68 13.36 -4 12 C-3.01 12 -2.02 12 -1 12 C-1.66 11.67 -2.32 11.34 -3 11 C-2.25 3.375 -2.25 3.375 0 0 Z " fill="#CECCBF" transform="translate(102,53)" />
<path d="M0 0 C0.66 0.99 1.32 1.98 2 3 C5.949256803 2.448940911 9.349201737 1.610646292 13 0 C13 0.66 13 1.32 13 2 C12.01 2.495 12.01 2.495 11 3 C11.885785765 5.051851861 11.885785765 5.051851861 13.5 6.4375 C16.410358666 9.469123611 16.116826202 12.764963575 16.1328125 16.76953125 C16 19 16 19 15.49609375 21.70703125 C14.880392608 25.793929384 14.892058948 29.750350632 14.9375 33.875 C14.942011719 34.65875 14.946523438 35.4425 14.951171875 36.25 C14.962859071 38.166700141 14.980790918 40.083360485 15 42 C16.485 42.495 16.485 42.495 18 43 C18 43.66 18 44.32 18 45 C18.66 45 19.32 45 20 45 C22 48 22 48 22 52 C20.397321799 52.108248434 18.792542516 52.185706451 17.1875 52.25 C16.294179688 52.29640625 15.400859375 52.3428125 14.48046875 52.390625 C12 52 12 52 10.21875 50.46875 C8.560771838 47.110281416 8.427634353 43.925187959 8.3125 40.25 C8.279790039 39.502827148 8.247080078 38.755654297 8.213378906 37.985839844 C7.761803205 26.624768642 7.658117488 15.310152599 9 4 C8.01 4.495 8.01 4.495 7 5 C4.667013399 5.040223907 2.332933345 5.043202469 0 5 C0.137124023 5.523198242 0.274248047 6.046396484 0.415527344 6.585449219 C2.38075301 15.032224888 2.447056763 23.50216729 2.625 32.125 C2.66326676 33.669290757 2.70232323 35.213562156 2.7421875 36.7578125 C2.837224673 40.50502913 2.92159287 44.252394167 3 48 C1.516113281 46.858398438 1.516113281 46.858398438 0 45 C-0.324707031 42.383789062 -0.324707031 42.383789062 -0.2578125 39.265625 C-0.243632812 38.133828125 -0.229453125 37.00203125 -0.21484375 35.8359375 C-0.185195312 34.652578125 -0.155546875 33.46921875 -0.125 32.25 C0.078933579 22.088916471 0.078933579 22.088916471 -1 12 C-1.085083816 10.043072229 -1.130425953 8.08376903 -1.125 6.125 C-1.127578125 5.178828125 -1.13015625 4.23265625 -1.1328125 3.2578125 C-1 1 -1 1 0 0 Z " fill="#C4C2B7" transform="translate(97,91)" />
<path d="M0 0 C0.66 0.99 1.32 1.98 2 3 C4.562827418 3.729653662 4.562827418 3.729653662 7 4 C7.33 5.32 7.66 6.64 8 8 C6.68 8 5.36 8 4 8 C4.958655088 10.330759292 4.958655088 10.330759292 8 12 C7.251302083 13.725260417 6.502604167 15.450520833 5.75390625 17.17578125 C5.100380578 18.757110208 4.541081979 20.376754064 4 22 C3.34 22 2.68 22 2 22 C2 22.66 2 23.32 2 24 C2 24.66 2 25.32 2 26 C0.354927821 26.194064776 -1.291095943 26.380079354 -2.9375 26.5625 C-3.854023438 26.666914062 -4.770546875 26.771328125 -5.71484375 26.87890625 C-6.845996094 26.938847656 -6.845996094 26.938847656 -8 27 C-9 26 -9 26 -9.0625 22.9375 C-9.041875 21.968125 -9.02125 20.99875 -9 20 C-9.99 19.67 -10.98 19.34 -12 19 C-14.151943699 15.772084452 -14.200864427 14.715991908 -14 11 C-12.68 10.67 -11.36 10.34 -10 10 C-10 9.34 -10 8.68 -10 8 C-11.65 8 -13.3 8 -15 8 C-14.74609375 6.10546875 -14.74609375 6.10546875 -14 4 C-12.22265625 2.98828125 -12.22265625 2.98828125 -10.0625 2.3125 C-9.352226562 2.081757813 -8.641953125 1.851015625 -7.91015625 1.61328125 C-7.279804688 1.410898437 -6.649453125 1.208515625 -6 1 C-4 0 -4 0 0 0 Z " fill="#DCD9CF" transform="translate(114,29)" />
<path d="M0 0 C0.822421875 0.018046875 1.64484375 0.03609375 2.4921875 0.0546875 C4.495308044 0.101271699 6.497818209 0.172993008 8.5 0.25 C6.85 2.23 5.2 4.21 3.5 6.25 C2.84 5.92 2.18 5.59 1.5 5.25 C1.83 4.92 2.16 4.59 2.5 4.25 C-5.550251245 2.237437189 -10.581971607 2.769223501 -17.6171875 6.9609375 C-21.235587178 9.438265081 -22.158199446 11.629166847 -23.12109375 15.875 C-24.289002111 23.19549777 -23.463568793 30.756838338 -23.0625 38.125 C-23.023425293 38.850661621 -22.984350586 39.576323242 -22.944091797 40.323974609 C-22.775879979 43.098022273 -22.596391032 45.801620327 -22.011474609 48.522460938 C-21.373962296 51.922120874 -21.19006564 55.257088446 -21 58.7109375 C-20.959394531 59.41973053 -20.918789062 60.12852356 -20.876953125 60.858795166 C-20.747946545 63.114022462 -20.623485284 65.369464105 -20.5 67.625 C-20.376324543 69.873381153 -20.251529823 72.121669647 -20.123046875 74.369781494 C-20.006206094 76.414813929 -19.893608926 78.46008752 -19.78125 80.505371094 C-19.508602624 84.135462638 -19.058439805 87.655625466 -18.5 91.25 C-16.85 91.25 -15.2 91.25 -13.5 91.25 C-13.78875 90.722773437 -14.0775 90.195546875 -14.375 89.65234375 C-17.584659399 82.620069163 -17.884713105 76.217033809 -17.875 68.5625 C-17.876289063 67.576931152 -17.877578125 66.591362305 -17.87890625 65.575927734 C-17.793557803 59.815392507 -17.138441521 54.774824809 -15.5 49.25 C-15.17 49.25 -14.84 49.25 -14.5 49.25 C-12.203872437 58.660022779 -12.203872437 58.660022779 -12.5 63.25 C-13.49 61.93 -14.48 60.61 -15.5 59.25 C-15.5 66.51 -15.5 73.77 -15.5 81.25 C-14.51 81.25 -13.52 81.25 -12.5 81.25 C-12.5 81.91 -12.5 82.57 -12.5 83.25 C-13.16 83.25 -13.82 83.25 -14.5 83.25 C-13.84 84.24 -13.18 85.23 -12.5 86.25 C-11.015 85.755 -11.015 85.755 -9.5 85.25 C-9.5 83.6 -9.5 81.95 -9.5 80.25 C-8.84 80.91 -8.18 81.57 -7.5 82.25 C-7.6875 84.75 -7.6875 84.75 -8.5 87.25 C-9.985 88.24 -9.985 88.24 -11.5 89.25 C-11.314375 90.054375 -11.12875 90.85875 -10.9375 91.6875 C-10.793125 92.533125 -10.64875 93.37875 -10.5 94.25 C-11.5 95.25 -11.5 95.25 -13.3125 95.3828125 C-14.034375 95.380234375 -14.75625 95.37765625 -15.5 95.375 C-16.221875 95.377578125 -16.94375 95.38015625 -17.6875 95.3828125 C-19.5 95.25 -19.5 95.25 -20.5 94.25 C-20.788682659 92.141558592 -21.016392122 90.024719763 -21.21875 87.90625 C-21.346367187 86.5965625 -21.473984375 85.286875 -21.60546875 83.9375 C-21.737143513 82.541682161 -21.868652714 81.145848693 -22 79.75 C-22.195588704 77.713945734 -22.392425999 75.678014809 -22.589355469 73.642089844 C-22.777876263 71.691163452 -22.965121641 69.74011395 -23.15234375 67.7890625 C-23.563418797 63.604410902 -24.019439269 59.427181742 -24.5 55.25 C-26.741854569 58.960655839 -28.667827689 62.474944851 -30.125 66.5625 C-31.5 70.25 -31.5 70.25 -33.5 72.25 C-34.49 72.25 -35.48 72.25 -36.5 72.25 C-36.371507143 66.082342844 -34.350154965 63.644211913 -30.22265625 59.203125 C-24.651458252 52.886573982 -25.107844865 46.166631781 -25.5 38.25 C-25.622494336 36.540183227 -25.747702667 34.830559645 -25.875 33.12109375 C-25.935908203 32.206665039 -25.996816406 31.292236328 -26.059570312 30.350097656 C-26.183783218 28.531811821 -26.328043206 26.714751789 -26.495117188 24.899902344 C-26.930584046 18.496614812 -25.828768706 13.776345215 -22.5 8.25 C-16.152254635 1.725928375 -8.850961262 -0.374796405 0 0 Z " fill="#2B2820" transform="translate(88.5,41.75)" />
<path d="M0 0 C3.894064521 1.298021507 4.194059916 2.675592882 6.0625 6.25 C6.569101562 7.20390625 7.075703125 8.1578125 7.59765625 9.140625 C11.428610589 16.951930227 11.428610589 16.951930227 10.1875 21.5 C9.887792969 22.658222656 9.887792969 22.658222656 9.58203125 23.83984375 C9.293925781 24.909121094 9.293925781 24.909121094 9 26 C8.660133332 27.665346672 8.322975137 29.331295128 8 31 C7.67 31 7.34 31 7 31 C7 27.04 7 23.08 7 19 C4.989352419 26.288597479 3.622633598 32.452671964 4 40 C4.66 37.36 5.32 34.72 6 32 C6.33 32 6.66 32 7 32 C6.764923846 34.160699972 6.526119897 36.320852295 6.28125 38.48046875 C6.104339029 40.065296198 5.936360172 41.651171813 5.78125 43.23828125 C5.03401571 50.32366354 5.03401571 50.32366354 3 53 C0.875 53.75 0.875 53.75 -1 54 C-1.33 52.68 -1.66 51.36 -2 50 C-1.34 50 -0.68 50 0 50 C0 49.34 0 48.68 0 48 C-0.99 48 -1.98 48 -3 48 C-4.392762131 43.821713606 -4.184249064 39.875759655 -4.1875 35.5 C-4.199746094 34.632460937 -4.211992188 33.764921875 -4.224609375 32.87109375 C-4.226542969 32.037070312 -4.228476563 31.203046875 -4.23046875 30.34375 C-4.234577637 29.582558594 -4.238686523 28.821367188 -4.242919922 28.037109375 C-4 26 -4 26 -2 23 C-1.67 23.66 -1.34 24.32 -1 25 C-1 23.35 -1 21.7 -1 20 C0.65 20 2.3 20 4 20 C3.739749538 14.664865532 1.83276256 12.410569742 -1.6328125 8.6796875 C-3.364848853 6.551757124 -3.835160914 4.719844921 -4 2 C-3.01 2.33 -2.02 2.66 -1 3 C-0.67 2.01 -0.34 1.02 0 0 Z " fill="#A09E93" transform="translate(76,75)" />
<path d="M0 0 C1.875 0.3125 1.875 0.3125 4 1 C6.360861223 4.541291835 6.572695779 5.827502182 6 10 C4.706086263 11.390957268 3.412104214 12.781851409 2.1171875 14.171875 C-0.641135189 18.685493946 0.659006508 25.054331251 1.53125 30.03125 C2.336700446 36.850730443 1.960653089 43.716443442 1.78515625 50.572265625 C1.708156736 56.665727147 1.785276779 60.79144571 5 66 C3.934530468 68.130939064 2.708402814 69.365875569 1 71 C1 70.01 1 69.02 1 68 C0.34 68 -0.32 68 -1 68 C-1 68.66 -1 69.32 -1 70 C-1.99 69.67 -2.98 69.34 -4 69 C-3.994763184 68.324208984 -3.989526367 67.648417969 -3.984130859 66.952148438 C-3.963319927 63.884775114 -3.950326712 60.817416667 -3.9375 57.75 C-3.929121094 56.686523438 -3.920742187 55.623046875 -3.912109375 54.52734375 C-3.908886719 53.502539063 -3.905664062 52.477734375 -3.90234375 51.421875 C-3.897106934 50.479248047 -3.891870117 49.536621094 -3.886474609 48.565429688 C-3.991013763 46.203069629 -4.399110973 44.272111633 -5 42 C-5.068982424 39.406260856 -5.094347518 36.841898025 -5.0625 34.25 C-5.057988281 33.552617188 -5.053476562 32.855234375 -5.048828125 32.13671875 C-5.037100202 30.424441974 -5.019166526 28.712209667 -5 27 C-4.34 27 -3.68 27 -3 27 C-1.749497128 24.498994256 -1.97006551 22.996569484 -2.12109375 20.2109375 C-2.169433594 19.269921875 -2.217773438 18.32890625 -2.267578125 17.359375 C-2.323652344 16.37453125 -2.379726562 15.3896875 -2.4375 14.375 C-2.489707031 13.382421875 -2.541914062 12.38984375 -2.595703125 11.3671875 C-2.725589495 8.911154325 -2.860561638 6.455506397 -3 4 C-2.01 5.485 -2.01 5.485 -1 7 C-0.67 4.69 -0.34 2.38 0 0 Z " fill="#D0CDC1" transform="translate(96,76)" />
<path d="M0 0 C-0.005236816 0.728884277 -0.010473633 1.457768555 -0.015869141 2.208740234 C-1.286390408 24.863496438 -1.286390408 24.863496438 2 47 C-0.97 47.495 -0.97 47.495 -4 48 C-6.589687153 43.488044236 -7.391207334 40.16813995 -7.4765625 34.984375 C-7.492142029 34.328504028 -7.507721558 33.672633057 -7.523773193 32.996887207 C-7.570919346 30.914603969 -7.598876252 28.832643255 -7.625 26.75 C-7.673773213 24.015491335 -7.730334034 21.281186246 -7.7890625 18.546875 C-7.816455078 17.255878906 -7.843847656 15.964882813 -7.872070312 14.634765625 C-8.033083843 10.060014771 -8.428708731 5.540476453 -9 1 C-2.25 0 -2.25 0 0 0 Z " fill="#EDEBDE" transform="translate(106,95)" />
<path d="M0 0 C1.65 0 3.3 0 5 0 C5 1.666666667 5 3.333333333 5 5 C4.360625 5.268125 3.72125 5.53625 3.0625 5.8125 C0.668683138 6.886677522 0.668683138 6.886677522 0 10 C1.65 10 3.3 10 5 10 C5 10.66 5 11.32 5 12 C4.01 12.33 3.02 12.66 2 13 C1.665016995 15.331650338 1.665016995 15.331650338 2 18 C2.639375 18.639375 3.27875 19.27875 3.9375 19.9375 C6.534466091 22.534466091 6.673972459 24.413697048 7 28 C10.3 28 13.6 28 17 28 C16.34 25.36 15.68 22.72 15 20 C15.66 20.33 16.32 20.66 17 21 C17 21.99 17 22.98 17 24 C17.66 24 18.32 24 19 24 C19.103125 22.906875 19.20625 21.81375 19.3125 20.6875 C19.973077274 17.144403711 20.202709199 16.067562766 23 14 C22.243905177 20.552821802 22.243905177 20.552821802 20.938964844 22.9453125 C19.782271294 25.476444304 19.96221086 26.888955286 20.3515625 29.625 C21.954822548 42.622348519 21.880965241 54.855389563 17.930419922 67.391601562 C14.037497277 79.896730174 13.623314493 92.98342302 14 106 C12 104 12 104 11.734375 101.12109375 C11.792661124 87.380140019 12.881376808 74.290500967 17.09765625 61.1484375 C19.952643844 51.186879055 19.210291692 41.157805268 18 31 C16.9171875 31.7734375 16.9171875 31.7734375 15.8125 32.5625 C13 34 13 34 10.4375 34 C5.30987025 31.896357026 3.062361312 26.706745206 0.75 21.9375 C-0.178010026 19.540140766 -0.318033118 17.544264943 0 15 C-0.66 14.67 -1.32 14.34 -2 14 C-1.859236847 12.041295699 -1.7122324 10.083039074 -1.5625 8.125 C-1.481289062 7.034453125 -1.400078125 5.94390625 -1.31640625 4.8203125 C-1 2 -1 2 0 0 Z " fill="#343229" transform="translate(99,27)" />
<path d="M0 0 C0.33 0 0.66 0 1 0 C1 2.64 1 5.28 1 8 C1.33 5.69 1.66 3.38 2 1 C2.99 1 3.98 1 5 1 C5.908931028 5.802185596 6.266101231 10.506440437 6.5 15.375 C6.713229994 19.765958388 6.988813926 24.065912785 7.65625 28.4140625 C7.7696875 29.597421875 7.883125 30.78078125 8 32 C7.34 32.66 6.68 33.32 6 34 C5.01 33.67 4.02 33.34 3 33 C0.80961577 34.371682381 0.80961577 34.371682381 -1 36 C-1.864561083 33.025092965 -2.108513176 30.405607939 -2.0625 27.3125 C-2.053476562 26.524882812 -2.044453125 25.737265625 -2.03515625 24.92578125 C-2.023554687 24.290273438 -2.011953125 23.654765625 -2 23 C-2 22.67 -2 22.34 -2 22 C-2.66 22.99 -3.32 23.98 -4 25 C-4.403896614 16.563048513 -3.639589804 9.055535724 -1 1 C-0.67 0.67 -0.34 0.34 0 0 Z " fill="#F4F2E6" transform="translate(83,93)" />
<path d="M0 0 C0.598125 0.78375 1.19625 1.5675 1.8125 2.375 C3.91085249 5.145743232 3.91085249 5.145743232 7 7 C9.841202342 6.644849707 12.280477523 5.906507492 15 5 C16.612050899 11.764856451 17.266185948 18.049589144 17 25 C15.07421875 24.3046875 15.07421875 24.3046875 13 23 C12.20703125 20.7578125 12.20703125 20.7578125 11.8125 18.125 C11.674570312 17.261328125 11.536640625 16.39765625 11.39453125 15.5078125 C11.264335937 14.680234375 11.134140625 13.85265625 11 13 C10.682581147 11.662788663 10.355084248 10.327706318 10 9 C9.67 9.66 9.34 10.32 9 11 C7.68 10.67 6.36 10.34 5 10 C4.67 11.98 4.34 13.96 4 16 C4.66 16 5.32 16 6 16 C7.607256346 19.214512692 7.057481849 22.436125356 7 26 C5.35 26 3.7 26 2 26 C-0.120467924 22.465886794 -0.531992887 19.056061646 -1 15 C-1.33 16.32 -1.66 17.64 -2 19 C-3.32 18.01 -4.64 17.02 -6 16 C-5.34 14.68 -4.68 13.36 -4 12 C-3.01 12 -2.02 12 -1 12 C-1.66 11.67 -2.32 11.34 -3 11 C-2.25 3.375 -2.25 3.375 0 0 Z " fill="#BAB8AB" transform="translate(102,53)" />
<path d="M0 0 C2.217366342 1.108683171 4.036179926 2.49440461 6 4 C5.570241566 6.578550607 5.140055081 8.728128373 3.9375 11.0625 C2.709626048 13.241373348 2.709626048 13.241373348 3 17 C1.46875 19.359375 1.46875 19.359375 -0.5 21.75 C-1.1496875 22.54921875 -1.799375 23.3484375 -2.46875 24.171875 C-2.9740625 24.77515625 -3.479375 25.3784375 -4 26 C-5.31625194 23.367496121 -4.748136579 22.198209444 -4.0625 19.375 C-3.867851562 18.557734375 -3.673203125 17.74046875 -3.47265625 16.8984375 C-3.316679687 16.271953125 -3.160703125 15.64546875 -3 15 C-3.33 15.66 -3.66 16.32 -4 17 C-4.66 17 -5.32 17 -6 17 C-6.33 20.63 -6.66 24.26 -7 28 C-7.33 27.01 -7.66 26.02 -8 25 C-8.66 25 -9.32 25 -10 25 C-10.356199693 17.941969041 -10.370856158 11.38339296 -7 5 C-4.715039926 2.770770659 -2.824210095 1.412105047 0 0 Z " fill="#B2B0A5" transform="translate(74,46)" />
<path d="M0 0 C2.242023349 5.407232784 2.306781408 9.478567995 0.2578125 15 C-0.455170178 16.683997182 -1.222966844 18.344581538 -2 20 C-3.733606646 16.532786708 -2.483618452 12.761476845 -2 9 C-3.32 12.3 -4.64 15.6 -6 19 C-6.66 18.67 -7.32 18.34 -8 18 C-8.593556136 15.351395732 -8.742092688 12.708026779 -9 10 C-9.33 11.32 -9.66 12.64 -10 14 C-9.67 14 -9.34 14 -9 14 C-8.634953972 15.580860484 -8.283394942 17.164839074 -7.9375 18.75 C-7.641660156 20.072578125 -7.641660156 20.072578125 -7.33984375 21.421875 C-6.996511277 24.026466172 -7.069727999 25.562045791 -8 28 C-11.321428571 31 -11.321428571 31 -14 31 C-14.625572082 12.997425629 -14.625572082 12.997425629 -8.5625 6.3125 C-7.716875 5.549375 -6.87125 4.78625 -6 4 C-4.9171875 2.8553125 -4.9171875 2.8553125 -3.8125 1.6875 C-2 0 -2 0 0 0 Z " fill="#C0BEB1" transform="translate(99,42)" />
<path d="M0 0 C0.33 0.66 0.66 1.32 1 2 C2.32 1.34 3.64 0.68 5 0 C4.67 0.763125 4.34 1.52625 4 2.3125 C2.825633144 4.990691353 2.825633144 4.990691353 3 8 C2.333333333 10.333333333 1.666666667 12.666666667 1 15 C1 15.99 1 16.98 1 18 C0.67 18.66 0.34 19.32 0 20 C-0.66 20 -1.32 20 -2 20 C-2.33 20.66 -2.66 21.32 -3 22 C-3.66 22 -4.32 22 -5 22 C-3.442980692 26.671057925 -0.915526266 30.087056853 2 34 C0.35 33.34 -1.3 32.68 -3 32 C-3.33 32.66 -3.66 33.32 -4 34 C-4.193359375 33.39671875 -4.38671875 32.7934375 -4.5859375 32.171875 C-4.846328125 31.37265625 -5.10671875 30.5734375 -5.375 29.75 C-5.630234375 28.96109375 -5.88546875 28.1721875 -6.1484375 27.359375 C-7.066080727 24.672833748 -7.066080727 24.672833748 -9 21 C-8.67 26.61 -8.34 32.22 -8 38 C-12.71698662 28.566026761 -11.937835953 17.03891537 -9 7 C-8.01 6.01 -7.02 5.02 -6 4 C-6.66 7.63 -7.32 11.26 -8 15 C-5.36 11.37 -2.72 7.74 0 4 C-0.66 3.67 -1.32 3.34 -2 3 C-1.34 2.01 -0.68 1.02 0 0 Z " fill="#6C6A5E" transform="translate(78,56)" />
<path d="M0 0 C0.66 0.99 1.32 1.98 2 3 C5.949256803 2.448940911 9.349201737 1.610646292 13 0 C13 0.66 13 1.32 13 2 C12.01 2.495 12.01 2.495 11 3 C10.950610237 9.211332555 10.914285238 15.422551124 10.890136719 21.634033203 C10.880071055 23.747660224 10.866417435 25.861273297 10.849121094 27.974853516 C10.824897702 31.010614424 10.813522624 34.04619143 10.8046875 37.08203125 C10.794364929 38.028993683 10.784042358 38.975956116 10.773406982 39.95161438 C10.773180389 41.272644119 10.773180389 41.272644119 10.772949219 42.620361328 C10.768507996 43.395354767 10.764066772 44.170348206 10.759490967 44.968826294 C10.881567347 47.313115451 10.881567347 47.313115451 13 50 C14.963618639 50.577488026 14.963618639 50.577488026 17.125 50.6875 C18.40375 50.790625 19.6825 50.89375 21 51 C20.67 49.68 20.34 48.36 20 47 C20.66 47.33 21.32 47.66 22 48 C22 49.32 22 50.64 22 52 C20.397321799 52.108248434 18.792542516 52.185706451 17.1875 52.25 C16.294179688 52.29640625 15.400859375 52.3428125 14.48046875 52.390625 C12 52 12 52 10.21875 50.46875 C8.560771838 47.110281416 8.427634353 43.925187959 8.3125 40.25 C8.279790039 39.502827148 8.247080078 38.755654297 8.213378906 37.985839844 C7.761803205 26.624768642 7.658117488 15.310152599 9 4 C8.01 4.495 8.01 4.495 7 5 C4.667013399 5.040223907 2.332933345 5.043202469 0 5 C0.137124023 5.523198242 0.274248047 6.046396484 0.415527344 6.585449219 C2.38075301 15.032224888 2.447056763 23.50216729 2.625 32.125 C2.66326676 33.669290757 2.70232323 35.213562156 2.7421875 36.7578125 C2.837224673 40.50502913 2.92159287 44.252394167 3 48 C1.516113281 46.858398438 1.516113281 46.858398438 0 45 C-0.324707031 42.383789062 -0.324707031 42.383789062 -0.2578125 39.265625 C-0.243632812 38.133828125 -0.229453125 37.00203125 -0.21484375 35.8359375 C-0.185195312 34.652578125 -0.155546875 33.46921875 -0.125 32.25 C0.078933579 22.088916471 0.078933579 22.088916471 -1 12 C-1.085083816 10.043072229 -1.130425953 8.08376903 -1.125 6.125 C-1.127578125 5.178828125 -1.13015625 4.23265625 -1.1328125 3.2578125 C-1 1 -1 1 0 0 Z " fill="#39372D" transform="translate(97,91)" />
<path d="M0 0 C2.007209229 0.286744176 4.011786869 0.602357374 6 1 C5.3503125 2.2684375 5.3503125 2.2684375 4.6875 3.5625 C4.130625 4.696875 3.57375 5.83125 3 7 C2.475351562 8.055742188 1.950703125 9.111484375 1.41015625 10.19921875 C-0.310627262 14.250107124 -0.379824489 17.900879611 -0.25 22.25 C-0.24484375 22.95640625 -0.2396875 23.6628125 -0.234375 24.390625 C-0.187113321 27.509895812 0.00768429 30.02305287 1 33 C0.34 33 -0.32 33 -1 33 C-1.33 33.66 -1.66 34.32 -2 35 C-2.9729102 30.930764481 -3.133937572 27.115814784 -3.125 22.9375 C-3.127578125 21.729648438 -3.13015625 20.521796875 -3.1328125 19.27734375 C-3.025636808 16.632625929 -2.787001367 14.50466308 -2 12 C-3.65 12.66 -5.3 13.32 -7 14 C-8.096589359 10.710231922 -7.799531378 9.286962332 -7 6 C-7.66 6 -8.32 6 -9 6 C-9 5.34 -9 4.68 -9 4 C-9.66 3.67 -10.32 3.34 -11 3 C-8.289631048 -1.065553428 -4.376980848 -0.362687679 0 0 Z " fill="#989689" transform="translate(86,44)" />
<path d="M0 0 C2.875 -0.1875 2.875 -0.1875 6 0 C8 3 8 3 8 7 C7.21625 7.226875 6.4325 7.45375 5.625 7.6875 C2.78125 8.78125 2.78125 8.78125 1.6875 11.625 C1.460625 12.40875 1.23375 13.1925 1 14 C2.65 14.33 4.3 14.66 6 15 C6.33 14.01 6.66 13.02 7 12 C7 12.66 7 13.32 7 14 C7.66 14 8.32 14 9 14 C9.33 15.98 9.66 17.96 10 20 C8.354927821 20.194064776 6.708904057 20.380079354 5.0625 20.5625 C4.145976562 20.666914062 3.229453125 20.771328125 2.28515625 20.87890625 C1.154003906 20.938847656 1.154003906 20.938847656 0 21 C-1 20 -1 20 -1.0625 16.9375 C-1.041875 15.968125 -1.02125 14.99875 -1 14 C-1.99 13.67 -2.98 13.34 -4 13 C-6.151943699 9.772084452 -6.200864427 8.715991908 -6 5 C-4.68 4.67 -3.36 4.34 -2 4 C-2 4.99 -2 5.98 -2 7 C-1.34 7 -0.68 7 0 7 C0 4.69 0 2.38 0 0 Z " fill="#C2BFB5" transform="translate(106,35)" />
<path d="M0 0 C0.452364623 6.446195873 -0.277942183 9.682774547 -4 15 C-4.99 15.66 -5.98 16.32 -7 17 C-7.363628176 19.207250734 -7.363628176 19.207250734 -7.1875 21.625 C-7.160429687 22.442265625 -7.133359375 23.25953125 -7.10546875 24.1015625 C-7.070664063 24.728046875 -7.035859375 25.35453125 -7 26 C-8.65 25.67 -10.3 25.34 -12 25 C-12 24.34 -12 23.68 -12 23 C-10.68 23 -9.36 23 -8 23 C-9.292996942 20.115622206 -10.659413633 18.127805788 -13 16 C-12.67 15.67 -12.34 15.34 -12 15 C-12.99 14.01 -13.98 13.02 -15 12 C-13.68 12.33 -12.36 12.66 -11 13 C-10.9175 12.29875 -10.835 11.5975 -10.75 10.875 C-9.296718365 5.304087067 -6.227198986 0 0 0 Z " fill="#58554E" transform="translate(130,14)" />
<path d="M0 0 C2.275218657 2.166874911 4.157941616 4.456205089 6 7 C7.32 6.67 8.64 6.34 10 6 C10.33 7.98 10.66 9.96 11 12 C10.01 11.67 9.02 11.34 8 11 C8.313161621 11.533027344 8.626323242 12.066054687 8.948974609 12.615234375 C10.223072493 15.506149154 10.501033493 18.013260506 10.81640625 21.15625 C10.940800781 22.343476563 11.065195312 23.530703125 11.193359375 24.75390625 C11.315175781 25.990117188 11.436992187 27.226328125 11.5625 28.5 C11.811400725 30.948161999 12.0626045 33.396091238 12.31640625 35.84375 C12.424123535 36.928496094 12.53184082 38.013242187 12.642822266 39.130859375 C12.921290841 41.883702623 12.921290841 41.883702623 13.536621094 44.045898438 C14.129231494 46.544978334 14.111918433 48.854682031 14.09765625 51.421875 C14.094433594 52.446679687 14.091210937 53.471484375 14.087890625 54.52734375 C14.079511719 55.590820312 14.071132812 56.654296875 14.0625 57.75 C14.057988281 58.828945312 14.053476562 59.907890625 14.048828125 61.01953125 C14.037057273 63.67974383 14.020613992 66.339843647 14 69 C14.66 69.33 15.32 69.66 16 70 C16 69.34 16 68.68 16 68 C17.485 68.495 17.485 68.495 19 69 C21.102323436 66.131558703 21.102323436 66.131558703 22 63 C23.764626831 66.088096954 24 67.233121357 24 71 C21.771090047 72.114454976 20.469448941 72.164802859 18 72.1875 C16.948125 72.208769531 16.948125 72.208769531 15.875 72.23046875 C14 72 14 72 12 70 C11.8046875 67.756835938 11.8046875 67.756835938 11.875 64.984375 C11.89046875 63.980195313 11.9059375 62.976015625 11.921875 61.94140625 C11.973576066 59.829417691 12.025653706 57.717438314 12.078125 55.60546875 C12.160970054 50.199828967 11.893867963 46.112723399 10 41 C9.783273557 38.273087535 9.637984249 35.603832644 9.5625 32.875 C9.060625416 22.017428868 7.319905901 13.152559237 1.20703125 3.9609375 C0 2 0 2 0 0 Z " fill="#49463C" transform="translate(79,76)" />
<path d="M0 0 C0.33 0 0.66 0 1 0 C1 2.31 1 4.62 1 7 C1.66 7 2.32 7 3 7 C3.12375 7.969375 3.2475 8.93875 3.375 9.9375 C3.58125 10.948125 3.7875 11.95875 4 13 C4.66 13.33 5.32 13.66 6 14 C6.299663888 17.288716344 6.41546886 20.534536981 6.478515625 23.833984375 C6.660315149 28.636152301 7.684844317 31.698582617 10 36 C8.934530468 38.130939064 7.708402814 39.365875569 6 41 C6 40.01 6 39.02 6 38 C5.34 38 4.68 38 4 38 C4 38.66 4 39.32 4 40 C3.01 39.67 2.02 39.34 1 39 C1.005236816 38.324208984 1.010473633 37.648417969 1.015869141 36.952148438 C1.036680073 33.884775114 1.049673288 30.817416667 1.0625 27.75 C1.070878906 26.686523438 1.079257813 25.623046875 1.087890625 24.52734375 C1.091113281 23.502539063 1.094335938 22.477734375 1.09765625 21.421875 C1.102893066 20.479248047 1.108129883 19.536621094 1.113525391 18.565429688 C1.009104076 16.205732541 0.612827381 14.266982538 0 12 C-0.067433482 9.91765408 -0.085144722 7.833314432 -0.0625 5.75 C-0.048964844 4.133515625 -0.048964844 4.133515625 -0.03515625 2.484375 C-0.023554687 1.66453125 -0.011953125 0.8446875 0 0 Z " fill="#DDDBCF" transform="translate(91,106)" />
<path d="M0 0 C0.113819555 6.765940189 -0.119786311 13.28837062 -1 20 C-1.66 19.34 -2.32 18.68 -3 18 C-3.66 18.33 -4.32 18.66 -5 19 C-5.407292276 21.321565971 -5.744386767 23.656878699 -6 26 C-6.33 26 -6.66 26 -7 26 C-7.66 17.75 -8.32 9.5 -9 1 C-2 0 -2 0 0 0 Z " fill="#E1DFD2" transform="translate(106,95)" />
<path d="M0 0 C0.33 0.66 0.66 1.32 1 2 C0.67 2.99 0.34 3.98 0 5 C-0.081781145 6.700168439 -0.107495012 8.403362973 -0.09765625 10.10546875 C-0.094433594 11.088378906 -0.091210937 12.071289062 -0.087890625 13.083984375 C-0.079511719 14.108144531 -0.071132812 15.132304687 -0.0625 16.1875 C-0.057988281 17.223261719 -0.053476562 18.259023438 -0.048828125 19.326171875 C-0.037040103 21.884172662 -0.020585152 24.442057332 0 27 C0.66 27 1.32 27 2 27 C2.891304135 24.326087596 3.47731534 21.762761772 4 19 C6 20 6 20 7.125 23 C8.27521462 27.322290878 8.181242093 31.55956873 8 36 C4 30 4 30 3 28 C2.01 28.33 1.02 28.66 0 29 C-1.199903801 27.237547784 -2.384595166 25.46473019 -3.5625 23.6875 C-4.223789063 22.701367187 -4.885078125 21.715234375 -5.56640625 20.69921875 C-6.039492188 19.808476563 -6.512578125 18.917734375 -7 18 C-5.977224844 14.931674532 -4.81110948 11.943855529 -3.62109375 8.9375 C-2.847368338 6.862968736 -2.847368338 6.862968736 -3 4 C-1.5 1.8125 -1.5 1.8125 0 0 Z " fill="#CDCBBE" transform="translate(84,55)" />
<path d="M0 0 C0.33 0 0.66 0 1 0 C1 2.64 1 5.28 1 8 C1.33 5.69 1.66 3.38 2 1 C2.99 1 3.98 1 5 1 C6.517084282 13.669703872 6.517084282 13.669703872 4 19 C3.01 19 2.02 19 1 19 C0.34 18.34 -0.32 17.68 -1 17 C-1.66 19.64 -2.32 22.28 -3 25 C-3.33 25 -3.66 25 -4 25 C-4.403896614 16.563048513 -3.639589804 9.055535724 -1 1 C-0.67 0.67 -0.34 0.34 0 0 Z " fill="#DAD8CF" transform="translate(83,93)" />
<path d="M0 0 C0.981204635 3.052636642 0.981204635 4.947363358 0 8 C1.651777731 6.348222269 2.172522914 4.151440423 3 2 C3.66 2 4.32 2 5 2 C5 1.34 5 0.68 5 0 C5.66 0.33 6.32 0.66 7 1 C6.570241566 3.578550607 6.140055081 5.728128373 4.9375 8.0625 C3.709626048 10.241373348 3.709626048 10.241373348 4 14 C2.46875 16.359375 2.46875 16.359375 0.5 18.75 C-0.1496875 19.54921875 -0.799375 20.3484375 -1.46875 21.171875 C-1.9740625 21.77515625 -2.479375 22.3784375 -3 23 C-4.31625194 20.367496121 -3.748136579 19.198209444 -3.0625 16.375 C-2.867851562 15.557734375 -2.673203125 14.74046875 -2.47265625 13.8984375 C-2.316679687 13.271953125 -2.160703125 12.64546875 -2 12 C-2.99 11.67 -3.98 11.34 -5 11 C-4.25 3.25 -4.25 3.25 -2 1 C-1.67 1.33 -1.34 1.66 -1 2 C-0.67 1.34 -0.34 0.68 0 0 Z " fill="#C9C7BB" transform="translate(73,49)" />
<path d="M0 0 C1.421668919 4.265006756 0.57997373 7.55353474 0 12 C1.32 8.37 2.64 4.74 4 1 C4.66 1.99 5.32 2.98 6 4 C5.484375 4.86625 4.96875 5.7325 4.4375 6.625 C2.832170307 10.394034933 2.980889546 12.108850993 4 16 C3.34 16 2.68 16 2 16 C1.67 16.66 1.34 17.32 1 18 C0.67 18.66 0.34 19.32 0 20 C0.605782533 22.019275109 1.269197336 24.022533967 2 26 C-3.624807374 21.416823621 -7.498310648 13.007883642 -9 6 C-8.125 3.625 -8.125 3.625 -7 2 C-6.67 2 -6.34 2 -6 2 C-5.67 4.97 -5.34 7.94 -5 11 C-3.35 7.37 -1.7 3.74 0 0 Z " fill="#807E71" transform="translate(97,49)" />
<path d="M0 0 C0.33 0 0.66 0 1 0 C3.296127563 9.410022779 3.296127563 9.410022779 3 14 C2.01 12.68 1.02 11.36 0 10 C0 17.26 0 24.52 0 32 C0.99 32 1.98 32 3 32 C3 32.66 3 33.32 3 34 C2.34 34 1.68 34 1 34 C1.66 34.99 2.32 35.98 3 37 C4.485 36.505 4.485 36.505 6 36 C6 34.35 6 32.7 6 31 C6.66 31.66 7.32 32.32 8 33 C7.8125 35.5 7.8125 35.5 7 38 C6.01 38.66 5.02 39.32 4 40 C4.33 41.65 4.66 43.3 5 45 C1.799373127 46.600313437 -0.72271806 45.031736907 -4 44 C-4 41.69 -4 39.38 -4 37 C-3.67 37 -3.34 37 -3 37 C-3 38.65 -3 40.3 -3 42 C-1.35 42 0.3 42 2 42 C1.71125 41.472773437 1.4225 40.945546875 1.125 40.40234375 C-2.084659399 33.370069163 -2.384713105 26.967033809 -2.375 19.3125 C-2.376289063 18.326931152 -2.377578125 17.341362305 -2.37890625 16.325927734 C-2.293557803 10.565392507 -1.638441521 5.524824809 0 0 Z " fill="#3E3C32" transform="translate(73,91)" />
<path d="M0 0 C3.894064521 1.298021507 4.194059916 2.675592882 6.0625 6.25 C6.569101562 7.20390625 7.075703125 8.1578125 7.59765625 9.140625 C8.865234011 11.725212524 9.974674151 14.311585812 11 17 C10.34 17.33 9.68 17.66 9 18 C3.501088737 14.27493108 -0.621683512 10.775831416 -4 5 C-3.67 4.01 -3.34 3.02 -3 2 C-2.34 2.33 -1.68 2.66 -1 3 C-0.67 2.01 -0.34 1.02 0 0 Z " fill="#CCC9BD" transform="translate(76,75)" />
<path d="M0 0 C0.99 0.33 1.98 0.66 3 1 C4.203125 3.765625 4.203125 3.765625 5.25 7.25 C5.60578125 8.38953125 5.9615625 9.5290625 6.328125 10.703125 C6.990139594 13.951615218 6.921934511 15.855966924 6 19 C5.34 18.34 4.68 17.68 4 17 C3.5875 17.515625 3.175 18.03125 2.75 18.5625 C2.1725 19.036875 1.595 19.51125 1 20 C-1.1875 19.6875 -1.1875 19.6875 -3 19 C-3.061875 19.9075 -3.12375 20.815 -3.1875 21.75 C-4.184460439 25.737841756 -5.648881661 26.765921108 -9 29 C-7.125 25.125 -7.125 25.125 -6 24 C-5.955566525 22.000493644 -5.96079185 19.999615643 -6 18 C-6 16.68 -6 15.36 -6 14 C-5.34 14 -4.68 14 -4 14 C-3.67 14.66 -3.34 15.32 -3 16 C-0.472667649 16.655551192 -0.472667649 16.655551192 2 17 C1.67 13.7 1.34 10.4 1 7 C0.34 7 -0.32 7 -1 7 C-1.042543563 5.00045254 -1.040807829 2.999583637 -1 1 C-0.67 0.67 -0.34 0.34 0 0 Z " fill="#817F73" transform="translate(107,62)" />
<path d="M0 0 C1.233632812 0.027070313 1.233632812 0.027070313 2.4921875 0.0546875 C4.495308044 0.101271699 6.497818209 0.172993008 8.5 0.25 C6.85 2.23 5.2 4.21 3.5 6.25 C2.84 5.92 2.18 5.59 1.5 5.25 C1.83 4.92 2.16 4.59 2.5 4.25 C-5.550251245 2.237437189 -10.581971607 2.769223501 -17.6171875 6.9609375 C-21.283300545 9.470931908 -22.132337561 11.694319711 -23.125 15.985839844 C-23.738549642 19.690305586 -23.632092221 23.320987842 -23.5 27.0625 C-23.232215863 34.848323794 -23.232215863 34.848323794 -25.5 38.25 C-25.787971737 34.939683379 -26.02321755 31.627525818 -26.25 28.3125 C-26.331210938 27.386308594 -26.412421875 26.460117188 -26.49609375 25.505859375 C-26.914995786 18.873243811 -25.992931992 13.965425888 -22.5 8.25 C-16.152254635 1.725928375 -8.850961262 -0.374796405 0 0 Z " fill="#3E3B32" transform="translate(88.5,41.75)" />
<path d="M0 0 C2.60548141 2.28899638 3.672778768 4.333525275 4.875 7.5625 C6.38657046 11.271813444 6.38657046 11.271813444 9.6875 13.5 C10.450625 13.665 11.21375 13.83 12 14 C13 15 13 15 13.0625 17.5625 C13.041875 18.366875 13.02125 19.17125 13 20 C12.21625 19.979375 11.4325 19.95875 10.625 19.9375 C8.01885039 19.813159373 8.01885039 19.813159373 6 21 C5.67 20.34 5.34 19.68 5 19 C4.34 19.99 3.68 20.98 3 22 C2.49465273 19.271726347 1.995561553 16.54255306 1.5 13.8125 C1.356914062 13.043574219 1.213828125 12.274648438 1.06640625 11.482421875 C0.367612846 7.605782274 -0.190390172 3.958528996 0 0 Z " fill="#D5D3C7" transform="translate(68,76)" />
</svg>