<?xml version='1.0' encoding='utf-8'?>
<svg xmlns="http://www.w3.org/2000/svg" version="1.1" width="158" height="97" viewBox="11.670000000000002 4.039056471 158.70499999999998 97.960943529">
<path d="M0 0 C0 3 0 3 -0.875 6.1875 C-1.029751236 10.907412688 0.10034301 12.579779026 3.03125 16.1328125 C6.266677539 19.201333063 9.976187002 21.140104214 14 23 C14 23.33 14 23.66 14 24 C13.030625 24.28875 12.06125 24.5775 11.0625 24.875 C7.893357967 25.642146817 7.893357967 25.642146817 7 28 C6.509550783 33.661185247 7.809371871 37.562183957 10.375 42.5 C12.801776122 47.284497639 14.670690218 51.790179845 16 57 C13.73126339 54.928458231 12.425495339 53.142776767 11.24609375 50.3125 C10.948964844 49.613828125 10.651835938 48.91515625 10.345703125 48.1953125 C10.045996094 47.470859375 9.746289062 46.74640625 9.4375 46 C8.834667184 44.5613926 8.229289266 43.123848451 7.62109375 41.6875 C7.357399902 41.051992187 7.093706055 40.416484375 6.822021484 39.76171875 C5.925634863 37.725030932 5.925634863 37.725030932 4 35 C3.61500109 33.344504688 3.272068654 31.677756698 3 30 C-0.986088115 31.292785335 -2.62111287 32.601589815 -5 36 C-5.66 36 -6.32 36 -7 36 C-7.65161012 37.873000252 -8.296021953 39.7485055 -8.9375 41.625 C-9.297148437 42.669140625 -9.656796875 43.71328125 -10.02734375 44.7890625 C-10.957501231 47.85970286 -11.547463078 50.827478 -12 54 C-10.68 54.66 -9.36 55.32 -8 56 C-8 56.99 -8 57.98 -8 59 C-15.302816901 59.35915493 -15.302816901 59.35915493 -18.0625 57.9375 C-19.50252852 54.961441058 -18.552891444 52.149460697 -18 49 C-17.86907959 48.250651855 -17.73815918 47.501303711 -17.603271484 46.729248047 C-17.156404749 44.272358195 -16.675396696 41.824050082 -16.1875 39.375 C-16.034746094 38.542265625 -15.881992188 37.70953125 -15.724609375 36.8515625 C-14.7186977 31.857787544 -13.520731814 28.842096787 -10 25 C-9.67 24.01 -9.34 23.02 -9 22 C-9.640664063 22.3609375 -10.281328125 22.721875 -10.94140625 23.09375 C-16.257799149 25.946062137 -19.952515483 27.657335274 -26 27 C-26.33 25.68 -26.66 24.36 -27 23 C-25.96875 23.061875 -24.9375 23.12375 -23.875 23.1875 C-18.713448957 22.93774753 -15.781498435 21.913749411 -12.2109375 18.078125 C-8.814267754 13.886489994 -6.079474086 9.672756632 -3.921875 4.7265625 C-2.879504031 2.774325346 -1.624707675 1.487794106 0 0 Z " fill="#A7A598" transform="translate(48,31)" />
<path d="M0 0 C19.731543624 10.194630872 19.731543624 10.194630872 22 17 C19.146757161 22.334323568 14.880181072 27.419382975 10 31 C7.24609375 31.2265625 7.24609375 31.2265625 5 31 C4.67 30.01 4.34 29.02 4 28 C5.952164345 26.047835655 7.531999531 25.151733552 10 24 C8.8553125 24.4640625 8.8553125 24.4640625 7.6875 24.9375 C5.812103232 25.678935932 3.913153483 26.362282172 2 27 C0.40837921 21.429327235 -0.206749435 16.788984189 0 11 C1.32 11.33 2.64 11.66 4 12 C2.68 11.34 1.36 10.68 0 10 C0 6.7 0 3.4 0 0 Z " fill="#BAB8AE" transform="translate(116,55)" />
<path d="M0 0 C0.33 0.99 0.66 1.98 1 3 C0.34 3 -0.32 3 -1 3 C-1 4.65 -1 6.3 -1 8 C2.248499772 6.277735039 2.248499772 6.277735039 3 3 C5.3203125 3.59375 5.3203125 3.59375 8 5 C9.6171875 7.96875 9.6171875 7.96875 10.875 11.5 C11.305546875 12.6653125 11.73609375 13.830625 12.1796875 15.03125 C13 18 13 18 12 20 C12.281120638 22.008004556 12.610679665 24.010140511 13 26 C10.19880165 25.610944674 8.386652 25.308342734 6.1484375 23.5234375 C3.664502351 21.762101667 1.864829405 21.397130491 -1.125 20.9375 C-5.789103691 20.210896309 -5.789103691 20.210896309 -8 18 C-8.541731274 13.326420027 -8.169863209 8.549468033 -7 4 C-6.87625 3.2575 -6.7525 2.515 -6.625 1.75 C-6.41875 1.1725 -6.2125 0.595 -6 0 C-3 -1 -3 -1 0 0 Z " fill="#EFEDE2" transform="translate(143,30)" />
<path d="M0 0 C6.555007644 6.27450056 12.037366471 12.817380273 12.4453125 22.13671875 C12.456626997 26.646758239 12.233744273 31.144712604 12.034179688 35.649414062 C11.978054205 39.509243694 12.665892894 43.10788706 13.5625 46.84375 C14.055325572 49.272676036 14.06963131 51.528088481 14 54 C12.68 53.67 11.36 53.34 10 53 C9.925234375 52.126015625 9.85046875 51.25203125 9.7734375 50.3515625 C8.53523844 38.770759523 5.800843689 27.194137706 0.32421875 16.828125 C-1.130069331 13.722211813 -1.344915875 11.715234123 -1.25 8.3125 C-1.23453125 7.380507812 -1.2190625 6.448515625 -1.203125 5.48828125 C-1 3 -1 3 0 0 Z " fill="#EBE8DC" transform="translate(103,34)" />
<path d="M0 0 C2.31 0.33 4.62 0.66 7 1 C6.67 1.99 6.34 2.98 6 4 C5.066149773 11.777638317 6.609691446 17.524590894 9.90625 24.56640625 C11 27 11 27 11 29 C12.98 29 14.96 29 17 29 C16.34 28.01 15.68 27.02 15 26 C16.65 26.33 18.3 26.66 20 27 C20 27.66 20 28.32 20 29 C20.99 29.33 21.98 29.66 23 30 C22.34 30.33 21.68 30.66 21 31 C20.344448808 33.527332351 20.344448808 33.527332351 20 36 C18.515 35.505 18.515 35.505 17 35 C15.438815721 34.932591352 13.8749748 34.914855438 12.3125 34.9375 C11.504257813 34.946523437 10.696015625 34.955546875 9.86328125 34.96484375 C9.248398438 34.976445313 8.633515625 34.988046875 8 35 C7.563007813 34.035136719 7.563007813 34.035136719 7.1171875 33.05078125 C6.707265625 32.147148437 6.29734375 31.243515625 5.875 30.3125 C5.425117187 29.313476562 4.975234375 28.314453125 4.51171875 27.28515625 C3.482837819 25.049267715 2.421498846 22.828094853 1.33203125 20.62109375 C0.789335937 19.508632812 0.246640625 18.396171875 -0.3125 17.25 C-0.824257813 16.22390625 -1.336015625 15.1978125 -1.86328125 14.140625 C-3.167338766 10.537661967 -3.305325178 7.805171991 -3 4 C-1.5 1.5625 -1.5 1.5625 0 0 Z " fill="#CAC7BE" transform="translate(57,55)" />
<path d="M0 0 C6.516279799 0.93431953 11.085071896 2.322500564 15.375 7.5 C19.064799896 12.65208199 21.631612209 18.145101426 24 24 C24.33 24.66 24.66 25.32 25 26 C25.375 28.875 25.375 28.875 25 32 C22.75 34.4375 22.75 34.4375 20 36 C17.875 36 17.875 36 16 35 C14.25 32.9375 14.25 32.9375 13 31 C13.5775 31.309375 14.155 31.61875 14.75 31.9375 C16.842941836 32.925833645 18.745352748 33.516861303 21 34 C20.4740625 32.329375 20.4740625 32.329375 19.9375 30.625 C19 27 19 27 20 25 C19.268211345 22.92803369 18.441009965 20.889144798 17.5625 18.875 C17.089414062 17.779296875 16.616328125 16.68359375 16.12890625 15.5546875 C15.756367187 14.711640625 15.383828125 13.86859375 15 13 C14.34 13 13.68 13 13 13 C13 12.34 13 11.68 13 11 C12.34 11 11.68 11 11 11 C10.896875 11.639375 10.79375 12.27875 10.6875 12.9375 C10.460625 13.618125 10.23375 14.29875 10 15 C9.01 15.33 8.02 15.66 7 16 C7.020625 15.195625 7.04125 14.39125 7.0625 13.5625 C7.296336207 11.066451149 7.296336207 11.066451149 6 10 C5.01 9.67 4.02 9.34 3 9 C2.67 10.32 2.34 11.64 2 13 C1.34 13 0.68 13 0 13 C-0.33 10.69 -0.66 8.38 -1 6 C0.32 6 1.64 6 3 6 C3 4.68 3 3.36 3 2 C1.68 2.33 0.36 2.66 -1 3 C-0.67 2.01 -0.34 1.02 0 0 Z " fill="#D1CFC5" transform="translate(135,22)" />
<path d="M0 0 C2.16150339 0.705797025 4.297584365 1.450039469 6.42578125 2.25 C5.43578125 2.58 4.44578125 2.91 3.42578125 3.25 C3.09578125 4.9 2.76578125 6.55 2.42578125 8.25 C1.93078125 6.27 1.93078125 6.27 1.42578125 4.25 C0.631542638 5.811194219 -0.159489984 7.37401964 -0.94921875 8.9375 C-1.390078125 9.807617188 -1.8309375 10.677734375 -2.28515625 11.57421875 C-3.50086143 14.097727988 -4.566828332 16.637375319 -5.57421875 19.25 C-6.682667938 15.924652435 -6.418762312 13.628174246 -5.57421875 10.25 C-6.89421875 11.9 -8.21421875 13.55 -9.57421875 15.25 C-8.752346143 10.866679428 -7.672675927 6.57059823 -6.57421875 2.25 C-8.22421875 4.89 -9.87421875 7.53 -11.57421875 10.25 C-11.90421875 9.59 -12.23421875 8.93 -12.57421875 8.25 C-11.639753402 6.218553591 -10.641970995 4.21466413 -9.57421875 2.25 C-12.393609921 4.45979308 -15.104808187 6.65062046 -17.57421875 9.25 C-16.91421875 7.6 -16.25421875 5.95 -15.57421875 4.25 C-16.095 4.567109375 -16.61578125 4.88421875 -17.15234375 5.2109375 C-20.248305837 6.539205105 -22.968259958 6.673642472 -26.32421875 6.875 C-27.4946875 6.949765625 -28.66515625 7.02453125 -29.87109375 7.1015625 C-30.763125 7.150546875 -31.65515625 7.19953125 -32.57421875 7.25 C-29.687494683 5.697141536 -26.923541286 4.721472175 -23.76171875 3.875 C-20.454833373 2.937082218 -17.852646766 1.924927861 -15.01171875 0 C-9.686651104 -2.710943529 -5.574584519 -1.62415816 0 0 Z " fill="#636156" transform="translate(126.57421875,16.75)" />
<path d="M0 0 C1.32 0.33 2.64 0.66 4 1 C3.67 1.86625 3.34 2.7325 3 3.625 C2.000695526 6.997652599 1.682665188 9.509317065 2 13 C2.66 13.66 3.32 14.32 4 15 C4.165470933 19.136773325 3.814276773 21.017725072 1.14453125 24.23828125 C-0.851682684 26.22742894 -2.881534267 28.142120029 -5 30 C-5.66 29.67 -6.32 29.34 -7 29 C-6.525111024 27.019802573 -6.044971415 25.040863648 -5.5625 23.0625 C-5.295664062 21.960351563 -5.028828125 20.858203125 -4.75390625 19.72265625 C-4 17 -4 17 -3 16 C-2.713511209 13.289725091 -2.551645789 10.579103919 -2.37890625 7.859375 C-1.993355242 4.949856052 -1.201494223 2.665663296 0 0 Z " fill="#D8D5CB" transform="translate(130,20)" />
<path d="M0 0 C0 7.391569042 -1.395322354 11.399716377 -6 17 C-6.446015625 17.586523437 -6.89203125 18.173046875 -7.3515625 18.77734375 C-10.754925984 23.081597569 -13.591396078 25.386907602 -19 27 C-22.9375 27.1875 -22.9375 27.1875 -26 27 C-26.33 25.68 -26.66 24.36 -27 23 C-25.96875 23.061875 -24.9375 23.12375 -23.875 23.1875 C-18.713448957 22.93774753 -15.781498435 21.913749411 -12.2109375 18.078125 C-8.814267754 13.886489994 -6.079474086 9.672756632 -3.921875 4.7265625 C-2.879504031 2.774325346 -1.624707675 1.487794106 0 0 Z " fill="#66635A" transform="translate(48,31)" />
<path d="M0 0 C1.439993841 2.879987683 0.580567828 4.594159587 -0.14453125 7.70703125 C-0.409433594 8.851074219 -0.674335938 9.995117188 -0.947265625 11.173828125 C-1.232792969 12.374589844 -1.518320312 13.575351563 -1.8125 14.8125 C-2.086425781 16.001660156 -2.360351562 17.190820313 -2.642578125 18.416015625 C-5.882869677 32.255246452 -5.882869677 32.255246452 -10 35 C-10.598955674 22.821234624 -6.781791908 10.172687862 0 0 Z " fill="#E7E5D9" transform="translate(128,19)" />
<path d="M0 0 C9.59453303 3.854214123 9.59453303 3.854214123 13 8 C11.478073549 11.043852903 10.591959168 12.704020416 7.5 14.25 C6.675 14.4975 5.85 14.745 5 15 C4.01 15.33 3.02 15.66 2 16 C0.40837921 10.429327235 -0.206749435 5.788984189 0 0 Z " fill="#EDEBE0" transform="translate(116,66)" />
<path d="M0 0 C0.33 0 0.66 0 1 0 C1 2.31 1 4.62 1 7 C2.27875 7.185625 3.5575 7.37125 4.875 7.5625 C5.594296875 7.666914062 6.31359375 7.771328125 7.0546875 7.87890625 C9.081406667 8.168429699 9.081406667 8.168429699 11 7 C13.031446409 7.934465348 15.03533587 8.932247755 17 10 C17 10.33 17 10.66 17 11 C16.030625 11.28875 15.06125 11.5775 14.0625 11.875 C10.893357967 12.642146817 10.893357967 12.642146817 10 15 C9.509550783 20.661185247 10.809371871 24.562183957 13.375 29.5 C15.801776122 34.284497639 17.670690218 38.790179845 19 44 C16.73126339 41.928458231 15.425495339 40.142776767 14.24609375 37.3125 C13.948964844 36.613828125 13.651835937 35.91515625 13.345703125 35.1953125 C13.045996094 34.470859375 12.746289062 33.74640625 12.4375 33 C11.834667184 31.5613926 11.229289266 30.123848451 10.62109375 28.6875 C10.225552979 27.734238281 10.225552979 27.734238281 9.822021484 26.76171875 C8.925634863 24.725030932 8.925634863 24.725030932 7 22 C6.835 21.154375 6.67 20.30875 6.5 19.4375 C6.198517528 16.831454364 6.198517528 16.831454364 4 15 C5.32 13.68 6.64 12.36 8 11 C6.56496445 10.635976307 5.126834945 10.284134094 3.6875 9.9375 C2.886992187 9.740273438 2.086484375 9.543046875 1.26171875 9.33984375 C-1.159571786 8.801144462 -1.159571786 8.801144462 -4 10 C-2.666666667 6.666666667 -1.333333333 3.333333333 0 0 Z " fill="#58564E" transform="translate(45,44)" />
<path d="M0 0 C0.33 0 0.66 0 1 0 C0.976796875 1.316132813 0.95359375 2.632265625 0.9296875 3.98828125 C0.717201598 16.484314734 0.717201598 16.484314734 2.5625 28.80859375 C3.049961565 31.250253913 3.070081509 33.516486531 3 36 C1.68 35.67 0.36 35.34 -1 35 C-1.121171875 34.021601562 -1.24234375 33.043203125 -1.3671875 32.03515625 C-1.535539577 30.710820382 -1.704876185 29.386609437 -1.875 28.0625 C-2.006000977 27.036124268 -2.006000977 27.036124268 -2.139648438 25.989013672 C-2.643496281 22.193569106 -3.292492357 18.518178932 -4.25 14.8125 C-5.054429183 10.723318322 -4.866218494 10.36337139 -3 7 C-3 6.34 -3 5.68 -3 5 C-2.34 5 -1.68 5 -1 5 C-0.67 3.35 -0.34 1.7 0 0 Z " fill="#EFEDE5" transform="translate(114,52)" />
<path d="M0 0 C1.010625 0.33 2.02125 0.66 3.0625 1 C4.733125 1.5259375 4.733125 1.5259375 6.4375 2.0625 C7.30375 2.371875 8.17 2.68125 9.0625 3 C-1.765086207 12.135775862 -1.765086207 12.135775862 -6.9375 11.8125 C-7.5975 11.544375 -8.2575 11.27625 -8.9375 11 C-8.470343989 5.705565208 -5.922569634 0 0 0 Z " fill="#EEECE2" transform="translate(45.9375,52)" />
<path d="M0 0 C3.421975853 1.420863887 5.099100226 3.069707638 7.25 6.0625 C7.77078125 6.775351562 8.2915625 7.488203125 8.828125 8.22265625 C10 10 10 10 10 11 C3.25 10.125 3.25 10.125 1 9 C0.375 6.9375 0.375 6.9375 0 5 C-1.547457728 7.461864567 -2.914433457 9.771822552 -3.9375 12.5 C-5 15 -5 15 -7 17.0625 C-9.647121165 20.950459211 -9.92675745 24.502011534 -10.5625 29.10546875 C-11.034193082 32.226223871 -11.856484762 35.059532244 -13 38 C-14.46616045 34.080264918 -13.615737137 30.532121215 -12.8125 26.5625 C-12.698417969 25.907011719 -12.584335938 25.251523437 -12.466796875 24.576171875 C-11.572948217 20.05248095 -10.011564747 17.428644997 -7 14 C-6.835 13.175 -6.67 12.35 -6.5 11.5 C-5.839843745 8.199218726 -4.152608018 6.543991294 -2 4 C-1.291141058 2.688610957 -0.605435479 1.362229828 0 0 Z " fill="#9D9B91" transform="translate(45,42)" />
<path d="M0 0 C8.41899476 3.63917838 11.647677571 13.066615447 15 21 C15.33 21.66 15.66 22.32 16 23 C16.375 25.875 16.375 25.875 16 29 C13.75 31.4375 13.75 31.4375 11 33 C8.875 33 8.875 33 7 32 C5.25 29.9375 5.25 29.9375 4 28 C4.5775 28.309375 5.155 28.61875 5.75 28.9375 C7.842941836 29.925833645 9.745352748 30.516861303 12 31 C11.649375 29.88625 11.29875 28.7725 10.9375 27.625 C10 24 10 24 11 22 C10.207603509 19.536421436 9.353900386 17.201189182 8.375 14.8125 C8.101557617 14.13501709 7.828115234 13.45753418 7.546386719 12.759521484 C5.561477378 7.99263585 3.311562464 3.993354736 0 0 Z " fill="#434138" transform="translate(144,25)" />
<path d="M0 0 C0.33 0 0.66 0 1 0 C3.111617312 15.744874715 3.111617312 15.744874715 4 23 C4.556875 22.525625 5.11375 22.05125 5.6875 21.5625 C8.183460738 19.876040042 10.044623695 19.410468931 13 19 C12.67 19.99 12.34 20.98 12 22 C10.333333333 22.666666667 8.666666667 23.333333333 7 24 C6.67 24.99 6.34 25.98 6 27 C6.804375 27.2475 7.60875 27.495 8.4375 27.75 C9.283125 28.1625 10.12875 28.575 11 29 C11.33 30.32 11.66 31.64 12 33 C8.37 33 4.74 33 1 33 C1 31.68 1 30.36 1 29 C1.66 29 2.32 29 3 29 C2.7834375 27.995820313 2.566875 26.991640625 2.34375 25.95703125 C0.533156493 17.195609077 -0.415742768 8.992362087 0 0 Z " fill="#78756E" transform="translate(114,59)" />
</svg>